M48
; DRILL file {KiCad 9.0.7} date 2026-01-28T21:35:55+0100
; FORMAT={-:-/ absolute / metric / decimal}
; #@! TF.CreationDate,2026-01-28T21:35:55+01:00
; #@! TF.GenerationSoftware,Kicad,Pcbnew,9.0.7
; #@! TF.FileFunction,Plated,1,4,PTH
FMAT,2
METRIC
; #@! TA.AperFunction,Plated,PTH,ComponentDrill
T1C0.200
; #@! TA.AperFunction,Plated,PTH,ViaDrill
T2C0.300
; #@! TA.AperFunction,Plated,PTH,ComponentDrill
T3C0.800
; #@! TA.AperFunction,Plated,PTH,ComponentDrill
T4C0.900
%
G90
G05
T1
X114.632Y-96.425
X114.632Y-97.825
X115.332Y-95.725
X115.332Y-97.125
X115.332Y-98.525
X116.007Y-96.425
X116.007Y-97.825
X116.732Y-95.725
X116.732Y-97.125
X116.732Y-98.525
X117.432Y-96.425
X117.432Y-97.825
T2
X49.7Y-102.5
X49.7Y-103.4
X49.7Y-104.3
X50.9Y-102.5
X50.9Y-103.4
X50.9Y-104.3
X58.98Y-106.6
X59.15Y-96.165
X59.15Y-97.925
X59.2Y-100.3
X59.9Y-100.95
X59.9Y-105.6
X60.0Y-100.1
X60.29Y-106.6
X60.45Y-94.5
X60.45Y-96.165
X60.45Y-97.925
X61.6Y-106.6
X61.75Y-94.5
X61.75Y-96.125
X61.75Y-97.885
X61.75Y-99.825
X61.755Y-91.212
X61.755Y-93.0
X61.759Y-89.447
X62.9Y-102.5
X62.9Y-103.4
X62.9Y-104.3
X63.35Y-99.825
X63.614Y-88.697
X63.9Y-102.5
X63.9Y-103.4
X63.9Y-104.3
X65.15Y-99.825
X65.379Y-88.7
X66.65Y-99.825
X67.167Y-88.7
X68.15Y-99.525
X68.15Y-100.725
X68.925Y-88.7
X69.75Y-99.825
X70.714Y-88.7
X71.55Y-99.825
X72.5Y-88.7
X73.45Y-99.825
X74.6Y-91.212
X74.6Y-93.0
X74.6Y-94.5
X74.6Y-96.26
X74.603Y-89.447
X74.75Y-98.6
X74.75Y-99.6
X76.0Y-97.5
X77.0Y-97.5
X78.15Y-98.6
X78.15Y-99.6
X79.0Y-97.5
X79.75Y-98.6
X79.75Y-99.6
X81.0Y-97.5
X82.0Y-97.5
X82.25Y-94.365
X82.25Y-96.125
X83.1Y-98.6
X83.1Y-99.6
X85.7Y-104.2
X85.7Y-105.125
X85.797Y-123.1
X85.797Y-124.1
X85.797Y-125.1
X86.597Y-122.2
X87.1Y-104.2
X87.1Y-105.125
X87.897Y-122.2
X88.5Y-104.2
X88.5Y-105.125
X88.597Y-123.1
X88.597Y-124.1
X88.597Y-125.1
X89.845Y-99.93
X90.4Y-97.35
X92.2Y-105.2
X92.437Y-117.0
X93.35Y-98.45
X96.312Y-110.888
X97.862Y-112.438
X98.6Y-95.7
X100.0Y-96.7
X100.635Y-114.478
X101.483Y-116.307
X101.5Y-117.9
X101.6Y-90.0
X101.6Y-92.3
X102.6Y-90.0
X102.85Y-107.4
X103.47Y-117.136
X103.47Y-118.775
X103.505Y-115.519
X103.9Y-95.3
X104.7Y-101.6
X104.8Y-88.5
X106.4Y-91.8
X106.4Y-92.6
X107.1Y-90.1
X107.1Y-90.9
X107.15Y-88.5
X108.84Y-88.5
X109.407Y-117.297
X110.033Y-89.4
X110.363Y-104.064
X110.6Y-88.5
X110.846Y-106.705
X110.846Y-107.721
X111.0Y-103.0
X111.785Y-108.483
X111.811Y-105.867
X112.1Y-102.0
X112.38Y-88.5
X112.624Y-112.538
X114.14Y-88.5
X114.326Y-124.516
X114.9Y-112.55
X114.957Y-118.536
X114.957Y-121.121
X115.9Y-88.5
X116.205Y-117.286
X116.281Y-109.331
X116.332Y-124.294
X117.66Y-88.5
X118.6Y-119.3
X118.8Y-121.6
X118.8Y-124.4
X119.42Y-88.5
X119.8Y-120.4
X119.9Y-124.8
X120.9Y-122.95
X121.1Y-88.5
X122.508Y-123.575
X122.86Y-88.5
X123.5Y-121.1
X124.49Y-123.575
X124.841Y-93.242
X124.841Y-94.488
X124.968Y-105.918
X125.019Y-89.027
X125.019Y-89.84
X125.5Y-121.1
X126.3Y-88.5
X126.471Y-123.575
X127.5Y-121.1
X127.889Y-89.052
X127.889Y-90.0
X128.5Y-123.55
T3
X72.6Y-127.9
X75.14Y-127.9
X77.68Y-127.9
T4
X103.35Y-128.125
X104.37Y-125.585
X105.39Y-128.125
X106.41Y-125.585
X107.43Y-128.125
X108.45Y-125.585
M30
