%TF.GenerationSoftware,KiCad,Pcbnew,9.0.7*%
%TF.CreationDate,2026-01-28T21:35:42+01:00*%
%TF.ProjectId,modbus-to-x,6d6f6462-7573-42d7-946f-2d782e6b6963,rev?*%
%TF.SameCoordinates,Original*%
%TF.FileFunction,Legend,Top*%
%TF.FilePolarity,Positive*%
%FSLAX46Y46*%
G04 Gerber Fmt 4.6, Leading zero omitted, Abs format (unit mm)*
G04 Created by KiCad (PCBNEW 9.0.7) date 2026-01-28 21:35:42*
%MOMM*%
%LPD*%
G01*
G04 APERTURE LIST*
%ADD10C,0.150000*%
%ADD11C,0.300000*%
%ADD12C,0.120000*%
%ADD13C,0.200000*%
%ADD14C,0.152400*%
%ADD15C,0.100000*%
%ADD16C,0.400000*%
%ADD17C,0.127000*%
G04 APERTURE END LIST*
D10*
X89636779Y-119069819D02*
X89636779Y-118069819D01*
X89636779Y-118069819D02*
X90017731Y-118069819D01*
X90017731Y-118069819D02*
X90112969Y-118117438D01*
X90112969Y-118117438D02*
X90160588Y-118165057D01*
X90160588Y-118165057D02*
X90208207Y-118260295D01*
X90208207Y-118260295D02*
X90208207Y-118403152D01*
X90208207Y-118403152D02*
X90160588Y-118498390D01*
X90160588Y-118498390D02*
X90112969Y-118546009D01*
X90112969Y-118546009D02*
X90017731Y-118593628D01*
X90017731Y-118593628D02*
X89636779Y-118593628D01*
X90541541Y-118069819D02*
X90779636Y-119069819D01*
X90779636Y-119069819D02*
X90970112Y-118355533D01*
X90970112Y-118355533D02*
X91160588Y-119069819D01*
X91160588Y-119069819D02*
X91398684Y-118069819D01*
X92351064Y-119069819D02*
X92017731Y-118593628D01*
X91779636Y-119069819D02*
X91779636Y-118069819D01*
X91779636Y-118069819D02*
X92160588Y-118069819D01*
X92160588Y-118069819D02*
X92255826Y-118117438D01*
X92255826Y-118117438D02*
X92303445Y-118165057D01*
X92303445Y-118165057D02*
X92351064Y-118260295D01*
X92351064Y-118260295D02*
X92351064Y-118403152D01*
X92351064Y-118403152D02*
X92303445Y-118498390D01*
X92303445Y-118498390D02*
X92255826Y-118546009D01*
X92255826Y-118546009D02*
X92160588Y-118593628D01*
X92160588Y-118593628D02*
X91779636Y-118593628D01*
X95008207Y-100169819D02*
X94674874Y-99693628D01*
X94436779Y-100169819D02*
X94436779Y-99169819D01*
X94436779Y-99169819D02*
X94817731Y-99169819D01*
X94817731Y-99169819D02*
X94912969Y-99217438D01*
X94912969Y-99217438D02*
X94960588Y-99265057D01*
X94960588Y-99265057D02*
X95008207Y-99360295D01*
X95008207Y-99360295D02*
X95008207Y-99503152D01*
X95008207Y-99503152D02*
X94960588Y-99598390D01*
X94960588Y-99598390D02*
X94912969Y-99646009D01*
X94912969Y-99646009D02*
X94817731Y-99693628D01*
X94817731Y-99693628D02*
X94436779Y-99693628D01*
X95341541Y-99169819D02*
X96008207Y-100169819D01*
X96008207Y-99169819D02*
X95341541Y-100169819D01*
X127074580Y-125291792D02*
X127122200Y-125339411D01*
X127122200Y-125339411D02*
X127169819Y-125482268D01*
X127169819Y-125482268D02*
X127169819Y-125577506D01*
X127169819Y-125577506D02*
X127122200Y-125720363D01*
X127122200Y-125720363D02*
X127026961Y-125815601D01*
X127026961Y-125815601D02*
X126931723Y-125863220D01*
X126931723Y-125863220D02*
X126741247Y-125910839D01*
X126741247Y-125910839D02*
X126598390Y-125910839D01*
X126598390Y-125910839D02*
X126407914Y-125863220D01*
X126407914Y-125863220D02*
X126312676Y-125815601D01*
X126312676Y-125815601D02*
X126217438Y-125720363D01*
X126217438Y-125720363D02*
X126169819Y-125577506D01*
X126169819Y-125577506D02*
X126169819Y-125482268D01*
X126169819Y-125482268D02*
X126217438Y-125339411D01*
X126217438Y-125339411D02*
X126265057Y-125291792D01*
X123584104Y-125810839D02*
X123584104Y-125334649D01*
X123869819Y-125906077D02*
X122869819Y-125572744D01*
X122869819Y-125572744D02*
X123869819Y-125239411D01*
D11*
X102568576Y-109809272D02*
X103163814Y-109392606D01*
X102568576Y-109094987D02*
X103818576Y-109094987D01*
X103818576Y-109094987D02*
X103818576Y-109571177D01*
X103818576Y-109571177D02*
X103759052Y-109690225D01*
X103759052Y-109690225D02*
X103699528Y-109749748D01*
X103699528Y-109749748D02*
X103580480Y-109809272D01*
X103580480Y-109809272D02*
X103401909Y-109809272D01*
X103401909Y-109809272D02*
X103282861Y-109749748D01*
X103282861Y-109749748D02*
X103223338Y-109690225D01*
X103223338Y-109690225D02*
X103163814Y-109571177D01*
X103163814Y-109571177D02*
X103163814Y-109094987D01*
X103223338Y-110344987D02*
X103223338Y-110761653D01*
X102568576Y-110940225D02*
X102568576Y-110344987D01*
X102568576Y-110344987D02*
X103818576Y-110344987D01*
X103818576Y-110344987D02*
X103818576Y-110940225D01*
X102628100Y-111416415D02*
X102568576Y-111594986D01*
X102568576Y-111594986D02*
X102568576Y-111892605D01*
X102568576Y-111892605D02*
X102628100Y-112011653D01*
X102628100Y-112011653D02*
X102687623Y-112071177D01*
X102687623Y-112071177D02*
X102806671Y-112130700D01*
X102806671Y-112130700D02*
X102925719Y-112130700D01*
X102925719Y-112130700D02*
X103044766Y-112071177D01*
X103044766Y-112071177D02*
X103104290Y-112011653D01*
X103104290Y-112011653D02*
X103163814Y-111892605D01*
X103163814Y-111892605D02*
X103223338Y-111654510D01*
X103223338Y-111654510D02*
X103282861Y-111535462D01*
X103282861Y-111535462D02*
X103342385Y-111475939D01*
X103342385Y-111475939D02*
X103461433Y-111416415D01*
X103461433Y-111416415D02*
X103580480Y-111416415D01*
X103580480Y-111416415D02*
X103699528Y-111475939D01*
X103699528Y-111475939D02*
X103759052Y-111535462D01*
X103759052Y-111535462D02*
X103818576Y-111654510D01*
X103818576Y-111654510D02*
X103818576Y-111952129D01*
X103818576Y-111952129D02*
X103759052Y-112130700D01*
X103223338Y-112666415D02*
X103223338Y-113083081D01*
X102568576Y-113261653D02*
X102568576Y-112666415D01*
X102568576Y-112666415D02*
X103818576Y-112666415D01*
X103818576Y-112666415D02*
X103818576Y-113261653D01*
X103818576Y-113618795D02*
X103818576Y-114333081D01*
X102568576Y-113975938D02*
X103818576Y-113975938D01*
D10*
X86208207Y-96269819D02*
X85874874Y-95793628D01*
X85636779Y-96269819D02*
X85636779Y-95269819D01*
X85636779Y-95269819D02*
X86017731Y-95269819D01*
X86017731Y-95269819D02*
X86112969Y-95317438D01*
X86112969Y-95317438D02*
X86160588Y-95365057D01*
X86160588Y-95365057D02*
X86208207Y-95460295D01*
X86208207Y-95460295D02*
X86208207Y-95603152D01*
X86208207Y-95603152D02*
X86160588Y-95698390D01*
X86160588Y-95698390D02*
X86112969Y-95746009D01*
X86112969Y-95746009D02*
X86017731Y-95793628D01*
X86017731Y-95793628D02*
X85636779Y-95793628D01*
X86493922Y-95269819D02*
X87065350Y-95269819D01*
X86779636Y-96269819D02*
X86779636Y-95269819D01*
X87351065Y-96222200D02*
X87493922Y-96269819D01*
X87493922Y-96269819D02*
X87732017Y-96269819D01*
X87732017Y-96269819D02*
X87827255Y-96222200D01*
X87827255Y-96222200D02*
X87874874Y-96174580D01*
X87874874Y-96174580D02*
X87922493Y-96079342D01*
X87922493Y-96079342D02*
X87922493Y-95984104D01*
X87922493Y-95984104D02*
X87874874Y-95888866D01*
X87874874Y-95888866D02*
X87827255Y-95841247D01*
X87827255Y-95841247D02*
X87732017Y-95793628D01*
X87732017Y-95793628D02*
X87541541Y-95746009D01*
X87541541Y-95746009D02*
X87446303Y-95698390D01*
X87446303Y-95698390D02*
X87398684Y-95650771D01*
X87398684Y-95650771D02*
X87351065Y-95555533D01*
X87351065Y-95555533D02*
X87351065Y-95460295D01*
X87351065Y-95460295D02*
X87398684Y-95365057D01*
X87398684Y-95365057D02*
X87446303Y-95317438D01*
X87446303Y-95317438D02*
X87541541Y-95269819D01*
X87541541Y-95269819D02*
X87779636Y-95269819D01*
X87779636Y-95269819D02*
X87922493Y-95317438D01*
X124946009Y-125429887D02*
X124993628Y-125287030D01*
X124993628Y-125287030D02*
X125041247Y-125239411D01*
X125041247Y-125239411D02*
X125136485Y-125191792D01*
X125136485Y-125191792D02*
X125279342Y-125191792D01*
X125279342Y-125191792D02*
X125374580Y-125239411D01*
X125374580Y-125239411D02*
X125422200Y-125287030D01*
X125422200Y-125287030D02*
X125469819Y-125382268D01*
X125469819Y-125382268D02*
X125469819Y-125763220D01*
X125469819Y-125763220D02*
X124469819Y-125763220D01*
X124469819Y-125763220D02*
X124469819Y-125429887D01*
X124469819Y-125429887D02*
X124517438Y-125334649D01*
X124517438Y-125334649D02*
X124565057Y-125287030D01*
X124565057Y-125287030D02*
X124660295Y-125239411D01*
X124660295Y-125239411D02*
X124755533Y-125239411D01*
X124755533Y-125239411D02*
X124850771Y-125287030D01*
X124850771Y-125287030D02*
X124898390Y-125334649D01*
X124898390Y-125334649D02*
X124946009Y-125429887D01*
X124946009Y-125429887D02*
X124946009Y-125763220D01*
X94436779Y-97469819D02*
X94436779Y-96469819D01*
X94436779Y-96469819D02*
X94674874Y-96469819D01*
X94674874Y-96469819D02*
X94817731Y-96517438D01*
X94817731Y-96517438D02*
X94912969Y-96612676D01*
X94912969Y-96612676D02*
X94960588Y-96707914D01*
X94960588Y-96707914D02*
X95008207Y-96898390D01*
X95008207Y-96898390D02*
X95008207Y-97041247D01*
X95008207Y-97041247D02*
X94960588Y-97231723D01*
X94960588Y-97231723D02*
X94912969Y-97326961D01*
X94912969Y-97326961D02*
X94817731Y-97422200D01*
X94817731Y-97422200D02*
X94674874Y-97469819D01*
X94674874Y-97469819D02*
X94436779Y-97469819D01*
X95293922Y-96469819D02*
X95865350Y-96469819D01*
X95579636Y-97469819D02*
X95579636Y-96469819D01*
X96770112Y-97469819D02*
X96436779Y-96993628D01*
X96198684Y-97469819D02*
X96198684Y-96469819D01*
X96198684Y-96469819D02*
X96579636Y-96469819D01*
X96579636Y-96469819D02*
X96674874Y-96517438D01*
X96674874Y-96517438D02*
X96722493Y-96565057D01*
X96722493Y-96565057D02*
X96770112Y-96660295D01*
X96770112Y-96660295D02*
X96770112Y-96803152D01*
X96770112Y-96803152D02*
X96722493Y-96898390D01*
X96722493Y-96898390D02*
X96674874Y-96946009D01*
X96674874Y-96946009D02*
X96579636Y-96993628D01*
X96579636Y-96993628D02*
X96198684Y-96993628D01*
X85593922Y-97469819D02*
X86165350Y-97469819D01*
X85879636Y-98469819D02*
X85879636Y-97469819D01*
X86403446Y-97469819D02*
X87070112Y-98469819D01*
X87070112Y-97469819D02*
X86403446Y-98469819D01*
X61259580Y-102066666D02*
X61307200Y-102114285D01*
X61307200Y-102114285D02*
X61354819Y-102257142D01*
X61354819Y-102257142D02*
X61354819Y-102352380D01*
X61354819Y-102352380D02*
X61307200Y-102495237D01*
X61307200Y-102495237D02*
X61211961Y-102590475D01*
X61211961Y-102590475D02*
X61116723Y-102638094D01*
X61116723Y-102638094D02*
X60926247Y-102685713D01*
X60926247Y-102685713D02*
X60783390Y-102685713D01*
X60783390Y-102685713D02*
X60592914Y-102638094D01*
X60592914Y-102638094D02*
X60497676Y-102590475D01*
X60497676Y-102590475D02*
X60402438Y-102495237D01*
X60402438Y-102495237D02*
X60354819Y-102352380D01*
X60354819Y-102352380D02*
X60354819Y-102257142D01*
X60354819Y-102257142D02*
X60402438Y-102114285D01*
X60402438Y-102114285D02*
X60450057Y-102066666D01*
X60354819Y-101733332D02*
X60354819Y-101114285D01*
X60354819Y-101114285D02*
X60735771Y-101447618D01*
X60735771Y-101447618D02*
X60735771Y-101304761D01*
X60735771Y-101304761D02*
X60783390Y-101209523D01*
X60783390Y-101209523D02*
X60831009Y-101161904D01*
X60831009Y-101161904D02*
X60926247Y-101114285D01*
X60926247Y-101114285D02*
X61164342Y-101114285D01*
X61164342Y-101114285D02*
X61259580Y-101161904D01*
X61259580Y-101161904D02*
X61307200Y-101209523D01*
X61307200Y-101209523D02*
X61354819Y-101304761D01*
X61354819Y-101304761D02*
X61354819Y-101590475D01*
X61354819Y-101590475D02*
X61307200Y-101685713D01*
X61307200Y-101685713D02*
X61259580Y-101733332D01*
X73806667Y-130847200D02*
X73949524Y-130894819D01*
X73949524Y-130894819D02*
X74187619Y-130894819D01*
X74187619Y-130894819D02*
X74282857Y-130847200D01*
X74282857Y-130847200D02*
X74330476Y-130799580D01*
X74330476Y-130799580D02*
X74378095Y-130704342D01*
X74378095Y-130704342D02*
X74378095Y-130609104D01*
X74378095Y-130609104D02*
X74330476Y-130513866D01*
X74330476Y-130513866D02*
X74282857Y-130466247D01*
X74282857Y-130466247D02*
X74187619Y-130418628D01*
X74187619Y-130418628D02*
X73997143Y-130371009D01*
X73997143Y-130371009D02*
X73901905Y-130323390D01*
X73901905Y-130323390D02*
X73854286Y-130275771D01*
X73854286Y-130275771D02*
X73806667Y-130180533D01*
X73806667Y-130180533D02*
X73806667Y-130085295D01*
X73806667Y-130085295D02*
X73854286Y-129990057D01*
X73854286Y-129990057D02*
X73901905Y-129942438D01*
X73901905Y-129942438D02*
X73997143Y-129894819D01*
X73997143Y-129894819D02*
X74235238Y-129894819D01*
X74235238Y-129894819D02*
X74378095Y-129942438D01*
X74711429Y-129894819D02*
X74949524Y-130894819D01*
X74949524Y-130894819D02*
X75140000Y-130180533D01*
X75140000Y-130180533D02*
X75330476Y-130894819D01*
X75330476Y-130894819D02*
X75568572Y-129894819D01*
X76473333Y-130894819D02*
X75901905Y-130894819D01*
X76187619Y-130894819D02*
X76187619Y-129894819D01*
X76187619Y-129894819D02*
X76092381Y-130037676D01*
X76092381Y-130037676D02*
X75997143Y-130132914D01*
X75997143Y-130132914D02*
X75901905Y-130180533D01*
X116557142Y-126459580D02*
X116509523Y-126507200D01*
X116509523Y-126507200D02*
X116366666Y-126554819D01*
X116366666Y-126554819D02*
X116271428Y-126554819D01*
X116271428Y-126554819D02*
X116128571Y-126507200D01*
X116128571Y-126507200D02*
X116033333Y-126411961D01*
X116033333Y-126411961D02*
X115985714Y-126316723D01*
X115985714Y-126316723D02*
X115938095Y-126126247D01*
X115938095Y-126126247D02*
X115938095Y-125983390D01*
X115938095Y-125983390D02*
X115985714Y-125792914D01*
X115985714Y-125792914D02*
X116033333Y-125697676D01*
X116033333Y-125697676D02*
X116128571Y-125602438D01*
X116128571Y-125602438D02*
X116271428Y-125554819D01*
X116271428Y-125554819D02*
X116366666Y-125554819D01*
X116366666Y-125554819D02*
X116509523Y-125602438D01*
X116509523Y-125602438D02*
X116557142Y-125650057D01*
X116938095Y-125650057D02*
X116985714Y-125602438D01*
X116985714Y-125602438D02*
X117080952Y-125554819D01*
X117080952Y-125554819D02*
X117319047Y-125554819D01*
X117319047Y-125554819D02*
X117414285Y-125602438D01*
X117414285Y-125602438D02*
X117461904Y-125650057D01*
X117461904Y-125650057D02*
X117509523Y-125745295D01*
X117509523Y-125745295D02*
X117509523Y-125840533D01*
X117509523Y-125840533D02*
X117461904Y-125983390D01*
X117461904Y-125983390D02*
X116890476Y-126554819D01*
X116890476Y-126554819D02*
X117509523Y-126554819D01*
X117890476Y-125650057D02*
X117938095Y-125602438D01*
X117938095Y-125602438D02*
X118033333Y-125554819D01*
X118033333Y-125554819D02*
X118271428Y-125554819D01*
X118271428Y-125554819D02*
X118366666Y-125602438D01*
X118366666Y-125602438D02*
X118414285Y-125650057D01*
X118414285Y-125650057D02*
X118461904Y-125745295D01*
X118461904Y-125745295D02*
X118461904Y-125840533D01*
X118461904Y-125840533D02*
X118414285Y-125983390D01*
X118414285Y-125983390D02*
X117842857Y-126554819D01*
X117842857Y-126554819D02*
X118461904Y-126554819D01*
X97666666Y-132154819D02*
X97666666Y-132869104D01*
X97666666Y-132869104D02*
X97619047Y-133011961D01*
X97619047Y-133011961D02*
X97523809Y-133107200D01*
X97523809Y-133107200D02*
X97380952Y-133154819D01*
X97380952Y-133154819D02*
X97285714Y-133154819D01*
X98666666Y-133154819D02*
X98095238Y-133154819D01*
X98380952Y-133154819D02*
X98380952Y-132154819D01*
X98380952Y-132154819D02*
X98285714Y-132297676D01*
X98285714Y-132297676D02*
X98190476Y-132392914D01*
X98190476Y-132392914D02*
X98095238Y-132440533D01*
X59638095Y-89179819D02*
X59638095Y-89989342D01*
X59638095Y-89989342D02*
X59685714Y-90084580D01*
X59685714Y-90084580D02*
X59733333Y-90132200D01*
X59733333Y-90132200D02*
X59828571Y-90179819D01*
X59828571Y-90179819D02*
X60019047Y-90179819D01*
X60019047Y-90179819D02*
X60114285Y-90132200D01*
X60114285Y-90132200D02*
X60161904Y-90084580D01*
X60161904Y-90084580D02*
X60209523Y-89989342D01*
X60209523Y-89989342D02*
X60209523Y-89179819D01*
X61209523Y-90179819D02*
X60638095Y-90179819D01*
X60923809Y-90179819D02*
X60923809Y-89179819D01*
X60923809Y-89179819D02*
X60828571Y-89322676D01*
X60828571Y-89322676D02*
X60733333Y-89417914D01*
X60733333Y-89417914D02*
X60638095Y-89465533D01*
X54033333Y-96559580D02*
X53985714Y-96607200D01*
X53985714Y-96607200D02*
X53842857Y-96654819D01*
X53842857Y-96654819D02*
X53747619Y-96654819D01*
X53747619Y-96654819D02*
X53604762Y-96607200D01*
X53604762Y-96607200D02*
X53509524Y-96511961D01*
X53509524Y-96511961D02*
X53461905Y-96416723D01*
X53461905Y-96416723D02*
X53414286Y-96226247D01*
X53414286Y-96226247D02*
X53414286Y-96083390D01*
X53414286Y-96083390D02*
X53461905Y-95892914D01*
X53461905Y-95892914D02*
X53509524Y-95797676D01*
X53509524Y-95797676D02*
X53604762Y-95702438D01*
X53604762Y-95702438D02*
X53747619Y-95654819D01*
X53747619Y-95654819D02*
X53842857Y-95654819D01*
X53842857Y-95654819D02*
X53985714Y-95702438D01*
X53985714Y-95702438D02*
X54033333Y-95750057D01*
X54890476Y-95654819D02*
X54700000Y-95654819D01*
X54700000Y-95654819D02*
X54604762Y-95702438D01*
X54604762Y-95702438D02*
X54557143Y-95750057D01*
X54557143Y-95750057D02*
X54461905Y-95892914D01*
X54461905Y-95892914D02*
X54414286Y-96083390D01*
X54414286Y-96083390D02*
X54414286Y-96464342D01*
X54414286Y-96464342D02*
X54461905Y-96559580D01*
X54461905Y-96559580D02*
X54509524Y-96607200D01*
X54509524Y-96607200D02*
X54604762Y-96654819D01*
X54604762Y-96654819D02*
X54795238Y-96654819D01*
X54795238Y-96654819D02*
X54890476Y-96607200D01*
X54890476Y-96607200D02*
X54938095Y-96559580D01*
X54938095Y-96559580D02*
X54985714Y-96464342D01*
X54985714Y-96464342D02*
X54985714Y-96226247D01*
X54985714Y-96226247D02*
X54938095Y-96131009D01*
X54938095Y-96131009D02*
X54890476Y-96083390D01*
X54890476Y-96083390D02*
X54795238Y-96035771D01*
X54795238Y-96035771D02*
X54604762Y-96035771D01*
X54604762Y-96035771D02*
X54509524Y-96083390D01*
X54509524Y-96083390D02*
X54461905Y-96131009D01*
X54461905Y-96131009D02*
X54414286Y-96226247D01*
X97857142Y-117650419D02*
X97523809Y-117174228D01*
X97285714Y-117650419D02*
X97285714Y-116650419D01*
X97285714Y-116650419D02*
X97666666Y-116650419D01*
X97666666Y-116650419D02*
X97761904Y-116698038D01*
X97761904Y-116698038D02*
X97809523Y-116745657D01*
X97809523Y-116745657D02*
X97857142Y-116840895D01*
X97857142Y-116840895D02*
X97857142Y-116983752D01*
X97857142Y-116983752D02*
X97809523Y-117078990D01*
X97809523Y-117078990D02*
X97761904Y-117126609D01*
X97761904Y-117126609D02*
X97666666Y-117174228D01*
X97666666Y-117174228D02*
X97285714Y-117174228D01*
X98809523Y-117650419D02*
X98238095Y-117650419D01*
X98523809Y-117650419D02*
X98523809Y-116650419D01*
X98523809Y-116650419D02*
X98428571Y-116793276D01*
X98428571Y-116793276D02*
X98333333Y-116888514D01*
X98333333Y-116888514D02*
X98238095Y-116936133D01*
X99142857Y-116650419D02*
X99809523Y-116650419D01*
X99809523Y-116650419D02*
X99380952Y-117650419D01*
X76322941Y-102287281D02*
X76275322Y-102334901D01*
X76275322Y-102334901D02*
X76132465Y-102382520D01*
X76132465Y-102382520D02*
X76037227Y-102382520D01*
X76037227Y-102382520D02*
X75894370Y-102334901D01*
X75894370Y-102334901D02*
X75799132Y-102239662D01*
X75799132Y-102239662D02*
X75751513Y-102144424D01*
X75751513Y-102144424D02*
X75703894Y-101953948D01*
X75703894Y-101953948D02*
X75703894Y-101811091D01*
X75703894Y-101811091D02*
X75751513Y-101620615D01*
X75751513Y-101620615D02*
X75799132Y-101525377D01*
X75799132Y-101525377D02*
X75894370Y-101430139D01*
X75894370Y-101430139D02*
X76037227Y-101382520D01*
X76037227Y-101382520D02*
X76132465Y-101382520D01*
X76132465Y-101382520D02*
X76275322Y-101430139D01*
X76275322Y-101430139D02*
X76322941Y-101477758D01*
X77275322Y-102382520D02*
X76703894Y-102382520D01*
X76989608Y-102382520D02*
X76989608Y-101382520D01*
X76989608Y-101382520D02*
X76894370Y-101525377D01*
X76894370Y-101525377D02*
X76799132Y-101620615D01*
X76799132Y-101620615D02*
X76703894Y-101668234D01*
X92859580Y-109466666D02*
X92907200Y-109514285D01*
X92907200Y-109514285D02*
X92954819Y-109657142D01*
X92954819Y-109657142D02*
X92954819Y-109752380D01*
X92954819Y-109752380D02*
X92907200Y-109895237D01*
X92907200Y-109895237D02*
X92811961Y-109990475D01*
X92811961Y-109990475D02*
X92716723Y-110038094D01*
X92716723Y-110038094D02*
X92526247Y-110085713D01*
X92526247Y-110085713D02*
X92383390Y-110085713D01*
X92383390Y-110085713D02*
X92192914Y-110038094D01*
X92192914Y-110038094D02*
X92097676Y-109990475D01*
X92097676Y-109990475D02*
X92002438Y-109895237D01*
X92002438Y-109895237D02*
X91954819Y-109752380D01*
X91954819Y-109752380D02*
X91954819Y-109657142D01*
X91954819Y-109657142D02*
X92002438Y-109514285D01*
X92002438Y-109514285D02*
X92050057Y-109466666D01*
X92050057Y-109085713D02*
X92002438Y-109038094D01*
X92002438Y-109038094D02*
X91954819Y-108942856D01*
X91954819Y-108942856D02*
X91954819Y-108704761D01*
X91954819Y-108704761D02*
X92002438Y-108609523D01*
X92002438Y-108609523D02*
X92050057Y-108561904D01*
X92050057Y-108561904D02*
X92145295Y-108514285D01*
X92145295Y-108514285D02*
X92240533Y-108514285D01*
X92240533Y-108514285D02*
X92383390Y-108561904D01*
X92383390Y-108561904D02*
X92954819Y-109133332D01*
X92954819Y-109133332D02*
X92954819Y-108514285D01*
X101504761Y-106550057D02*
X101409523Y-106502438D01*
X101409523Y-106502438D02*
X101314285Y-106407200D01*
X101314285Y-106407200D02*
X101171428Y-106264342D01*
X101171428Y-106264342D02*
X101076190Y-106216723D01*
X101076190Y-106216723D02*
X100980952Y-106216723D01*
X101028571Y-106454819D02*
X100933333Y-106407200D01*
X100933333Y-106407200D02*
X100838095Y-106311961D01*
X100838095Y-106311961D02*
X100790476Y-106121485D01*
X100790476Y-106121485D02*
X100790476Y-105788152D01*
X100790476Y-105788152D02*
X100838095Y-105597676D01*
X100838095Y-105597676D02*
X100933333Y-105502438D01*
X100933333Y-105502438D02*
X101028571Y-105454819D01*
X101028571Y-105454819D02*
X101219047Y-105454819D01*
X101219047Y-105454819D02*
X101314285Y-105502438D01*
X101314285Y-105502438D02*
X101409523Y-105597676D01*
X101409523Y-105597676D02*
X101457142Y-105788152D01*
X101457142Y-105788152D02*
X101457142Y-106121485D01*
X101457142Y-106121485D02*
X101409523Y-106311961D01*
X101409523Y-106311961D02*
X101314285Y-106407200D01*
X101314285Y-106407200D02*
X101219047Y-106454819D01*
X101219047Y-106454819D02*
X101028571Y-106454819D01*
X101838095Y-105550057D02*
X101885714Y-105502438D01*
X101885714Y-105502438D02*
X101980952Y-105454819D01*
X101980952Y-105454819D02*
X102219047Y-105454819D01*
X102219047Y-105454819D02*
X102314285Y-105502438D01*
X102314285Y-105502438D02*
X102361904Y-105550057D01*
X102361904Y-105550057D02*
X102409523Y-105645295D01*
X102409523Y-105645295D02*
X102409523Y-105740533D01*
X102409523Y-105740533D02*
X102361904Y-105883390D01*
X102361904Y-105883390D02*
X101790476Y-106454819D01*
X101790476Y-106454819D02*
X102409523Y-106454819D01*
X126036669Y-121666994D02*
X125036669Y-121666994D01*
X125036669Y-121666994D02*
X125036669Y-121428899D01*
X125036669Y-121428899D02*
X125084288Y-121286042D01*
X125084288Y-121286042D02*
X125179526Y-121190804D01*
X125179526Y-121190804D02*
X125274764Y-121143185D01*
X125274764Y-121143185D02*
X125465240Y-121095566D01*
X125465240Y-121095566D02*
X125608097Y-121095566D01*
X125608097Y-121095566D02*
X125798573Y-121143185D01*
X125798573Y-121143185D02*
X125893811Y-121190804D01*
X125893811Y-121190804D02*
X125989050Y-121286042D01*
X125989050Y-121286042D02*
X126036669Y-121428899D01*
X126036669Y-121428899D02*
X126036669Y-121666994D01*
X125036669Y-120190804D02*
X125036669Y-120666994D01*
X125036669Y-120666994D02*
X125512859Y-120714613D01*
X125512859Y-120714613D02*
X125465240Y-120666994D01*
X125465240Y-120666994D02*
X125417621Y-120571756D01*
X125417621Y-120571756D02*
X125417621Y-120333661D01*
X125417621Y-120333661D02*
X125465240Y-120238423D01*
X125465240Y-120238423D02*
X125512859Y-120190804D01*
X125512859Y-120190804D02*
X125608097Y-120143185D01*
X125608097Y-120143185D02*
X125846192Y-120143185D01*
X125846192Y-120143185D02*
X125941430Y-120190804D01*
X125941430Y-120190804D02*
X125989050Y-120238423D01*
X125989050Y-120238423D02*
X126036669Y-120333661D01*
X126036669Y-120333661D02*
X126036669Y-120571756D01*
X126036669Y-120571756D02*
X125989050Y-120666994D01*
X125989050Y-120666994D02*
X125941430Y-120714613D01*
X123995869Y-121666994D02*
X122995869Y-121666994D01*
X122995869Y-121666994D02*
X122995869Y-121428899D01*
X122995869Y-121428899D02*
X123043488Y-121286042D01*
X123043488Y-121286042D02*
X123138726Y-121190804D01*
X123138726Y-121190804D02*
X123233964Y-121143185D01*
X123233964Y-121143185D02*
X123424440Y-121095566D01*
X123424440Y-121095566D02*
X123567297Y-121095566D01*
X123567297Y-121095566D02*
X123757773Y-121143185D01*
X123757773Y-121143185D02*
X123853011Y-121190804D01*
X123853011Y-121190804D02*
X123948250Y-121286042D01*
X123948250Y-121286042D02*
X123995869Y-121428899D01*
X123995869Y-121428899D02*
X123995869Y-121666994D01*
X122995869Y-120238423D02*
X122995869Y-120428899D01*
X122995869Y-120428899D02*
X123043488Y-120524137D01*
X123043488Y-120524137D02*
X123091107Y-120571756D01*
X123091107Y-120571756D02*
X123233964Y-120666994D01*
X123233964Y-120666994D02*
X123424440Y-120714613D01*
X123424440Y-120714613D02*
X123805392Y-120714613D01*
X123805392Y-120714613D02*
X123900630Y-120666994D01*
X123900630Y-120666994D02*
X123948250Y-120619375D01*
X123948250Y-120619375D02*
X123995869Y-120524137D01*
X123995869Y-120524137D02*
X123995869Y-120333661D01*
X123995869Y-120333661D02*
X123948250Y-120238423D01*
X123948250Y-120238423D02*
X123900630Y-120190804D01*
X123900630Y-120190804D02*
X123805392Y-120143185D01*
X123805392Y-120143185D02*
X123567297Y-120143185D01*
X123567297Y-120143185D02*
X123472059Y-120190804D01*
X123472059Y-120190804D02*
X123424440Y-120238423D01*
X123424440Y-120238423D02*
X123376821Y-120333661D01*
X123376821Y-120333661D02*
X123376821Y-120524137D01*
X123376821Y-120524137D02*
X123424440Y-120619375D01*
X123424440Y-120619375D02*
X123472059Y-120666994D01*
X123472059Y-120666994D02*
X123567297Y-120714613D01*
X83461905Y-132254819D02*
X83461905Y-131254819D01*
X83461905Y-131254819D02*
X83700000Y-131254819D01*
X83700000Y-131254819D02*
X83842857Y-131302438D01*
X83842857Y-131302438D02*
X83938095Y-131397676D01*
X83938095Y-131397676D02*
X83985714Y-131492914D01*
X83985714Y-131492914D02*
X84033333Y-131683390D01*
X84033333Y-131683390D02*
X84033333Y-131826247D01*
X84033333Y-131826247D02*
X83985714Y-132016723D01*
X83985714Y-132016723D02*
X83938095Y-132111961D01*
X83938095Y-132111961D02*
X83842857Y-132207200D01*
X83842857Y-132207200D02*
X83700000Y-132254819D01*
X83700000Y-132254819D02*
X83461905Y-132254819D01*
X84366667Y-131254819D02*
X85033333Y-131254819D01*
X85033333Y-131254819D02*
X84604762Y-132254819D01*
X85151694Y-126738094D02*
X84151694Y-126738094D01*
X84151694Y-126738094D02*
X84151694Y-126499999D01*
X84151694Y-126499999D02*
X84199313Y-126357142D01*
X84199313Y-126357142D02*
X84294551Y-126261904D01*
X84294551Y-126261904D02*
X84389789Y-126214285D01*
X84389789Y-126214285D02*
X84580265Y-126166666D01*
X84580265Y-126166666D02*
X84723122Y-126166666D01*
X84723122Y-126166666D02*
X84913598Y-126214285D01*
X84913598Y-126214285D02*
X85008836Y-126261904D01*
X85008836Y-126261904D02*
X85104075Y-126357142D01*
X85104075Y-126357142D02*
X85151694Y-126499999D01*
X85151694Y-126499999D02*
X85151694Y-126738094D01*
X84580265Y-125595237D02*
X84532646Y-125690475D01*
X84532646Y-125690475D02*
X84485027Y-125738094D01*
X84485027Y-125738094D02*
X84389789Y-125785713D01*
X84389789Y-125785713D02*
X84342170Y-125785713D01*
X84342170Y-125785713D02*
X84246932Y-125738094D01*
X84246932Y-125738094D02*
X84199313Y-125690475D01*
X84199313Y-125690475D02*
X84151694Y-125595237D01*
X84151694Y-125595237D02*
X84151694Y-125404761D01*
X84151694Y-125404761D02*
X84199313Y-125309523D01*
X84199313Y-125309523D02*
X84246932Y-125261904D01*
X84246932Y-125261904D02*
X84342170Y-125214285D01*
X84342170Y-125214285D02*
X84389789Y-125214285D01*
X84389789Y-125214285D02*
X84485027Y-125261904D01*
X84485027Y-125261904D02*
X84532646Y-125309523D01*
X84532646Y-125309523D02*
X84580265Y-125404761D01*
X84580265Y-125404761D02*
X84580265Y-125595237D01*
X84580265Y-125595237D02*
X84627884Y-125690475D01*
X84627884Y-125690475D02*
X84675503Y-125738094D01*
X84675503Y-125738094D02*
X84770741Y-125785713D01*
X84770741Y-125785713D02*
X84961217Y-125785713D01*
X84961217Y-125785713D02*
X85056455Y-125738094D01*
X85056455Y-125738094D02*
X85104075Y-125690475D01*
X85104075Y-125690475D02*
X85151694Y-125595237D01*
X85151694Y-125595237D02*
X85151694Y-125404761D01*
X85151694Y-125404761D02*
X85104075Y-125309523D01*
X85104075Y-125309523D02*
X85056455Y-125261904D01*
X85056455Y-125261904D02*
X84961217Y-125214285D01*
X84961217Y-125214285D02*
X84770741Y-125214285D01*
X84770741Y-125214285D02*
X84675503Y-125261904D01*
X84675503Y-125261904D02*
X84627884Y-125309523D01*
X84627884Y-125309523D02*
X84580265Y-125404761D01*
X97857142Y-115999419D02*
X97523809Y-115523228D01*
X97285714Y-115999419D02*
X97285714Y-114999419D01*
X97285714Y-114999419D02*
X97666666Y-114999419D01*
X97666666Y-114999419D02*
X97761904Y-115047038D01*
X97761904Y-115047038D02*
X97809523Y-115094657D01*
X97809523Y-115094657D02*
X97857142Y-115189895D01*
X97857142Y-115189895D02*
X97857142Y-115332752D01*
X97857142Y-115332752D02*
X97809523Y-115427990D01*
X97809523Y-115427990D02*
X97761904Y-115475609D01*
X97761904Y-115475609D02*
X97666666Y-115523228D01*
X97666666Y-115523228D02*
X97285714Y-115523228D01*
X98809523Y-115999419D02*
X98238095Y-115999419D01*
X98523809Y-115999419D02*
X98523809Y-114999419D01*
X98523809Y-114999419D02*
X98428571Y-115142276D01*
X98428571Y-115142276D02*
X98333333Y-115237514D01*
X98333333Y-115237514D02*
X98238095Y-115285133D01*
X99666666Y-114999419D02*
X99476190Y-114999419D01*
X99476190Y-114999419D02*
X99380952Y-115047038D01*
X99380952Y-115047038D02*
X99333333Y-115094657D01*
X99333333Y-115094657D02*
X99238095Y-115237514D01*
X99238095Y-115237514D02*
X99190476Y-115427990D01*
X99190476Y-115427990D02*
X99190476Y-115808942D01*
X99190476Y-115808942D02*
X99238095Y-115904180D01*
X99238095Y-115904180D02*
X99285714Y-115951800D01*
X99285714Y-115951800D02*
X99380952Y-115999419D01*
X99380952Y-115999419D02*
X99571428Y-115999419D01*
X99571428Y-115999419D02*
X99666666Y-115951800D01*
X99666666Y-115951800D02*
X99714285Y-115904180D01*
X99714285Y-115904180D02*
X99761904Y-115808942D01*
X99761904Y-115808942D02*
X99761904Y-115570847D01*
X99761904Y-115570847D02*
X99714285Y-115475609D01*
X99714285Y-115475609D02*
X99666666Y-115427990D01*
X99666666Y-115427990D02*
X99571428Y-115380371D01*
X99571428Y-115380371D02*
X99380952Y-115380371D01*
X99380952Y-115380371D02*
X99285714Y-115427990D01*
X99285714Y-115427990D02*
X99238095Y-115475609D01*
X99238095Y-115475609D02*
X99190476Y-115570847D01*
X111475733Y-112722819D02*
X111142400Y-112246628D01*
X110904305Y-112722819D02*
X110904305Y-111722819D01*
X110904305Y-111722819D02*
X111285257Y-111722819D01*
X111285257Y-111722819D02*
X111380495Y-111770438D01*
X111380495Y-111770438D02*
X111428114Y-111818057D01*
X111428114Y-111818057D02*
X111475733Y-111913295D01*
X111475733Y-111913295D02*
X111475733Y-112056152D01*
X111475733Y-112056152D02*
X111428114Y-112151390D01*
X111428114Y-112151390D02*
X111380495Y-112199009D01*
X111380495Y-112199009D02*
X111285257Y-112246628D01*
X111285257Y-112246628D02*
X110904305Y-112246628D01*
X111856686Y-111818057D02*
X111904305Y-111770438D01*
X111904305Y-111770438D02*
X111999543Y-111722819D01*
X111999543Y-111722819D02*
X112237638Y-111722819D01*
X112237638Y-111722819D02*
X112332876Y-111770438D01*
X112332876Y-111770438D02*
X112380495Y-111818057D01*
X112380495Y-111818057D02*
X112428114Y-111913295D01*
X112428114Y-111913295D02*
X112428114Y-112008533D01*
X112428114Y-112008533D02*
X112380495Y-112151390D01*
X112380495Y-112151390D02*
X111809067Y-112722819D01*
X111809067Y-112722819D02*
X112428114Y-112722819D01*
X97933333Y-100159580D02*
X97885714Y-100207200D01*
X97885714Y-100207200D02*
X97742857Y-100254819D01*
X97742857Y-100254819D02*
X97647619Y-100254819D01*
X97647619Y-100254819D02*
X97504762Y-100207200D01*
X97504762Y-100207200D02*
X97409524Y-100111961D01*
X97409524Y-100111961D02*
X97361905Y-100016723D01*
X97361905Y-100016723D02*
X97314286Y-99826247D01*
X97314286Y-99826247D02*
X97314286Y-99683390D01*
X97314286Y-99683390D02*
X97361905Y-99492914D01*
X97361905Y-99492914D02*
X97409524Y-99397676D01*
X97409524Y-99397676D02*
X97504762Y-99302438D01*
X97504762Y-99302438D02*
X97647619Y-99254819D01*
X97647619Y-99254819D02*
X97742857Y-99254819D01*
X97742857Y-99254819D02*
X97885714Y-99302438D01*
X97885714Y-99302438D02*
X97933333Y-99350057D01*
X98790476Y-99588152D02*
X98790476Y-100254819D01*
X98552381Y-99207200D02*
X98314286Y-99921485D01*
X98314286Y-99921485D02*
X98933333Y-99921485D01*
X99824819Y-104242857D02*
X99348628Y-104576190D01*
X99824819Y-104814285D02*
X98824819Y-104814285D01*
X98824819Y-104814285D02*
X98824819Y-104433333D01*
X98824819Y-104433333D02*
X98872438Y-104338095D01*
X98872438Y-104338095D02*
X98920057Y-104290476D01*
X98920057Y-104290476D02*
X99015295Y-104242857D01*
X99015295Y-104242857D02*
X99158152Y-104242857D01*
X99158152Y-104242857D02*
X99253390Y-104290476D01*
X99253390Y-104290476D02*
X99301009Y-104338095D01*
X99301009Y-104338095D02*
X99348628Y-104433333D01*
X99348628Y-104433333D02*
X99348628Y-104814285D01*
X99824819Y-103290476D02*
X99824819Y-103861904D01*
X99824819Y-103576190D02*
X98824819Y-103576190D01*
X98824819Y-103576190D02*
X98967676Y-103671428D01*
X98967676Y-103671428D02*
X99062914Y-103766666D01*
X99062914Y-103766666D02*
X99110533Y-103861904D01*
X99824819Y-102814285D02*
X99824819Y-102623809D01*
X99824819Y-102623809D02*
X99777200Y-102528571D01*
X99777200Y-102528571D02*
X99729580Y-102480952D01*
X99729580Y-102480952D02*
X99586723Y-102385714D01*
X99586723Y-102385714D02*
X99396247Y-102338095D01*
X99396247Y-102338095D02*
X99015295Y-102338095D01*
X99015295Y-102338095D02*
X98920057Y-102385714D01*
X98920057Y-102385714D02*
X98872438Y-102433333D01*
X98872438Y-102433333D02*
X98824819Y-102528571D01*
X98824819Y-102528571D02*
X98824819Y-102719047D01*
X98824819Y-102719047D02*
X98872438Y-102814285D01*
X98872438Y-102814285D02*
X98920057Y-102861904D01*
X98920057Y-102861904D02*
X99015295Y-102909523D01*
X99015295Y-102909523D02*
X99253390Y-102909523D01*
X99253390Y-102909523D02*
X99348628Y-102861904D01*
X99348628Y-102861904D02*
X99396247Y-102814285D01*
X99396247Y-102814285D02*
X99443866Y-102719047D01*
X99443866Y-102719047D02*
X99443866Y-102528571D01*
X99443866Y-102528571D02*
X99396247Y-102433333D01*
X99396247Y-102433333D02*
X99348628Y-102385714D01*
X99348628Y-102385714D02*
X99253390Y-102338095D01*
X97857142Y-119276019D02*
X97523809Y-118799828D01*
X97285714Y-119276019D02*
X97285714Y-118276019D01*
X97285714Y-118276019D02*
X97666666Y-118276019D01*
X97666666Y-118276019D02*
X97761904Y-118323638D01*
X97761904Y-118323638D02*
X97809523Y-118371257D01*
X97809523Y-118371257D02*
X97857142Y-118466495D01*
X97857142Y-118466495D02*
X97857142Y-118609352D01*
X97857142Y-118609352D02*
X97809523Y-118704590D01*
X97809523Y-118704590D02*
X97761904Y-118752209D01*
X97761904Y-118752209D02*
X97666666Y-118799828D01*
X97666666Y-118799828D02*
X97285714Y-118799828D01*
X98809523Y-119276019D02*
X98238095Y-119276019D01*
X98523809Y-119276019D02*
X98523809Y-118276019D01*
X98523809Y-118276019D02*
X98428571Y-118418876D01*
X98428571Y-118418876D02*
X98333333Y-118514114D01*
X98333333Y-118514114D02*
X98238095Y-118561733D01*
X99380952Y-118704590D02*
X99285714Y-118656971D01*
X99285714Y-118656971D02*
X99238095Y-118609352D01*
X99238095Y-118609352D02*
X99190476Y-118514114D01*
X99190476Y-118514114D02*
X99190476Y-118466495D01*
X99190476Y-118466495D02*
X99238095Y-118371257D01*
X99238095Y-118371257D02*
X99285714Y-118323638D01*
X99285714Y-118323638D02*
X99380952Y-118276019D01*
X99380952Y-118276019D02*
X99571428Y-118276019D01*
X99571428Y-118276019D02*
X99666666Y-118323638D01*
X99666666Y-118323638D02*
X99714285Y-118371257D01*
X99714285Y-118371257D02*
X99761904Y-118466495D01*
X99761904Y-118466495D02*
X99761904Y-118514114D01*
X99761904Y-118514114D02*
X99714285Y-118609352D01*
X99714285Y-118609352D02*
X99666666Y-118656971D01*
X99666666Y-118656971D02*
X99571428Y-118704590D01*
X99571428Y-118704590D02*
X99380952Y-118704590D01*
X99380952Y-118704590D02*
X99285714Y-118752209D01*
X99285714Y-118752209D02*
X99238095Y-118799828D01*
X99238095Y-118799828D02*
X99190476Y-118895066D01*
X99190476Y-118895066D02*
X99190476Y-119085542D01*
X99190476Y-119085542D02*
X99238095Y-119180780D01*
X99238095Y-119180780D02*
X99285714Y-119228400D01*
X99285714Y-119228400D02*
X99380952Y-119276019D01*
X99380952Y-119276019D02*
X99571428Y-119276019D01*
X99571428Y-119276019D02*
X99666666Y-119228400D01*
X99666666Y-119228400D02*
X99714285Y-119180780D01*
X99714285Y-119180780D02*
X99761904Y-119085542D01*
X99761904Y-119085542D02*
X99761904Y-118895066D01*
X99761904Y-118895066D02*
X99714285Y-118799828D01*
X99714285Y-118799828D02*
X99666666Y-118752209D01*
X99666666Y-118752209D02*
X99571428Y-118704590D01*
X99957142Y-90359580D02*
X99909523Y-90407200D01*
X99909523Y-90407200D02*
X99766666Y-90454819D01*
X99766666Y-90454819D02*
X99671428Y-90454819D01*
X99671428Y-90454819D02*
X99528571Y-90407200D01*
X99528571Y-90407200D02*
X99433333Y-90311961D01*
X99433333Y-90311961D02*
X99385714Y-90216723D01*
X99385714Y-90216723D02*
X99338095Y-90026247D01*
X99338095Y-90026247D02*
X99338095Y-89883390D01*
X99338095Y-89883390D02*
X99385714Y-89692914D01*
X99385714Y-89692914D02*
X99433333Y-89597676D01*
X99433333Y-89597676D02*
X99528571Y-89502438D01*
X99528571Y-89502438D02*
X99671428Y-89454819D01*
X99671428Y-89454819D02*
X99766666Y-89454819D01*
X99766666Y-89454819D02*
X99909523Y-89502438D01*
X99909523Y-89502438D02*
X99957142Y-89550057D01*
X100338095Y-89550057D02*
X100385714Y-89502438D01*
X100385714Y-89502438D02*
X100480952Y-89454819D01*
X100480952Y-89454819D02*
X100719047Y-89454819D01*
X100719047Y-89454819D02*
X100814285Y-89502438D01*
X100814285Y-89502438D02*
X100861904Y-89550057D01*
X100861904Y-89550057D02*
X100909523Y-89645295D01*
X100909523Y-89645295D02*
X100909523Y-89740533D01*
X100909523Y-89740533D02*
X100861904Y-89883390D01*
X100861904Y-89883390D02*
X100290476Y-90454819D01*
X100290476Y-90454819D02*
X100909523Y-90454819D01*
X101814285Y-89454819D02*
X101338095Y-89454819D01*
X101338095Y-89454819D02*
X101290476Y-89931009D01*
X101290476Y-89931009D02*
X101338095Y-89883390D01*
X101338095Y-89883390D02*
X101433333Y-89835771D01*
X101433333Y-89835771D02*
X101671428Y-89835771D01*
X101671428Y-89835771D02*
X101766666Y-89883390D01*
X101766666Y-89883390D02*
X101814285Y-89931009D01*
X101814285Y-89931009D02*
X101861904Y-90026247D01*
X101861904Y-90026247D02*
X101861904Y-90264342D01*
X101861904Y-90264342D02*
X101814285Y-90359580D01*
X101814285Y-90359580D02*
X101766666Y-90407200D01*
X101766666Y-90407200D02*
X101671428Y-90454819D01*
X101671428Y-90454819D02*
X101433333Y-90454819D01*
X101433333Y-90454819D02*
X101338095Y-90407200D01*
X101338095Y-90407200D02*
X101290476Y-90359580D01*
X114571542Y-110030419D02*
X114238209Y-109554228D01*
X114000114Y-110030419D02*
X114000114Y-109030419D01*
X114000114Y-109030419D02*
X114381066Y-109030419D01*
X114381066Y-109030419D02*
X114476304Y-109078038D01*
X114476304Y-109078038D02*
X114523923Y-109125657D01*
X114523923Y-109125657D02*
X114571542Y-109220895D01*
X114571542Y-109220895D02*
X114571542Y-109363752D01*
X114571542Y-109363752D02*
X114523923Y-109458990D01*
X114523923Y-109458990D02*
X114476304Y-109506609D01*
X114476304Y-109506609D02*
X114381066Y-109554228D01*
X114381066Y-109554228D02*
X114000114Y-109554228D01*
X115523923Y-110030419D02*
X114952495Y-110030419D01*
X115238209Y-110030419D02*
X115238209Y-109030419D01*
X115238209Y-109030419D02*
X115142971Y-109173276D01*
X115142971Y-109173276D02*
X115047733Y-109268514D01*
X115047733Y-109268514D02*
X114952495Y-109316133D01*
X116428685Y-109030419D02*
X115952495Y-109030419D01*
X115952495Y-109030419D02*
X115904876Y-109506609D01*
X115904876Y-109506609D02*
X115952495Y-109458990D01*
X115952495Y-109458990D02*
X116047733Y-109411371D01*
X116047733Y-109411371D02*
X116285828Y-109411371D01*
X116285828Y-109411371D02*
X116381066Y-109458990D01*
X116381066Y-109458990D02*
X116428685Y-109506609D01*
X116428685Y-109506609D02*
X116476304Y-109601847D01*
X116476304Y-109601847D02*
X116476304Y-109839942D01*
X116476304Y-109839942D02*
X116428685Y-109935180D01*
X116428685Y-109935180D02*
X116381066Y-109982800D01*
X116381066Y-109982800D02*
X116285828Y-110030419D01*
X116285828Y-110030419D02*
X116047733Y-110030419D01*
X116047733Y-110030419D02*
X115952495Y-109982800D01*
X115952495Y-109982800D02*
X115904876Y-109935180D01*
X107343733Y-115669219D02*
X107010400Y-115193028D01*
X106772305Y-115669219D02*
X106772305Y-114669219D01*
X106772305Y-114669219D02*
X107153257Y-114669219D01*
X107153257Y-114669219D02*
X107248495Y-114716838D01*
X107248495Y-114716838D02*
X107296114Y-114764457D01*
X107296114Y-114764457D02*
X107343733Y-114859695D01*
X107343733Y-114859695D02*
X107343733Y-115002552D01*
X107343733Y-115002552D02*
X107296114Y-115097790D01*
X107296114Y-115097790D02*
X107248495Y-115145409D01*
X107248495Y-115145409D02*
X107153257Y-115193028D01*
X107153257Y-115193028D02*
X106772305Y-115193028D01*
X108296114Y-115669219D02*
X107724686Y-115669219D01*
X108010400Y-115669219D02*
X108010400Y-114669219D01*
X108010400Y-114669219D02*
X107915162Y-114812076D01*
X107915162Y-114812076D02*
X107819924Y-114907314D01*
X107819924Y-114907314D02*
X107724686Y-114954933D01*
X119133333Y-119759580D02*
X119085714Y-119807200D01*
X119085714Y-119807200D02*
X118942857Y-119854819D01*
X118942857Y-119854819D02*
X118847619Y-119854819D01*
X118847619Y-119854819D02*
X118704762Y-119807200D01*
X118704762Y-119807200D02*
X118609524Y-119711961D01*
X118609524Y-119711961D02*
X118561905Y-119616723D01*
X118561905Y-119616723D02*
X118514286Y-119426247D01*
X118514286Y-119426247D02*
X118514286Y-119283390D01*
X118514286Y-119283390D02*
X118561905Y-119092914D01*
X118561905Y-119092914D02*
X118609524Y-118997676D01*
X118609524Y-118997676D02*
X118704762Y-118902438D01*
X118704762Y-118902438D02*
X118847619Y-118854819D01*
X118847619Y-118854819D02*
X118942857Y-118854819D01*
X118942857Y-118854819D02*
X119085714Y-118902438D01*
X119085714Y-118902438D02*
X119133333Y-118950057D01*
X119466667Y-118854819D02*
X120133333Y-118854819D01*
X120133333Y-118854819D02*
X119704762Y-119854819D01*
X116640295Y-114835519D02*
X116640295Y-115645042D01*
X116640295Y-115645042D02*
X116687914Y-115740280D01*
X116687914Y-115740280D02*
X116735533Y-115787900D01*
X116735533Y-115787900D02*
X116830771Y-115835519D01*
X116830771Y-115835519D02*
X117021247Y-115835519D01*
X117021247Y-115835519D02*
X117116485Y-115787900D01*
X117116485Y-115787900D02*
X117164104Y-115740280D01*
X117164104Y-115740280D02*
X117211723Y-115645042D01*
X117211723Y-115645042D02*
X117211723Y-114835519D01*
X117592676Y-114835519D02*
X118211723Y-114835519D01*
X118211723Y-114835519D02*
X117878390Y-115216471D01*
X117878390Y-115216471D02*
X118021247Y-115216471D01*
X118021247Y-115216471D02*
X118116485Y-115264090D01*
X118116485Y-115264090D02*
X118164104Y-115311709D01*
X118164104Y-115311709D02*
X118211723Y-115406947D01*
X118211723Y-115406947D02*
X118211723Y-115645042D01*
X118211723Y-115645042D02*
X118164104Y-115740280D01*
X118164104Y-115740280D02*
X118116485Y-115787900D01*
X118116485Y-115787900D02*
X118021247Y-115835519D01*
X118021247Y-115835519D02*
X117735533Y-115835519D01*
X117735533Y-115835519D02*
X117640295Y-115787900D01*
X117640295Y-115787900D02*
X117592676Y-115740280D01*
X68533333Y-120654819D02*
X68057143Y-120654819D01*
X68057143Y-120654819D02*
X68057143Y-119654819D01*
X69390476Y-120654819D02*
X68819048Y-120654819D01*
X69104762Y-120654819D02*
X69104762Y-119654819D01*
X69104762Y-119654819D02*
X69009524Y-119797676D01*
X69009524Y-119797676D02*
X68914286Y-119892914D01*
X68914286Y-119892914D02*
X68819048Y-119940533D01*
X99054819Y-96066666D02*
X98578628Y-96399999D01*
X99054819Y-96638094D02*
X98054819Y-96638094D01*
X98054819Y-96638094D02*
X98054819Y-96257142D01*
X98054819Y-96257142D02*
X98102438Y-96161904D01*
X98102438Y-96161904D02*
X98150057Y-96114285D01*
X98150057Y-96114285D02*
X98245295Y-96066666D01*
X98245295Y-96066666D02*
X98388152Y-96066666D01*
X98388152Y-96066666D02*
X98483390Y-96114285D01*
X98483390Y-96114285D02*
X98531009Y-96161904D01*
X98531009Y-96161904D02*
X98578628Y-96257142D01*
X98578628Y-96257142D02*
X98578628Y-96638094D01*
X98388152Y-95209523D02*
X99054819Y-95209523D01*
X98007200Y-95447618D02*
X98721485Y-95685713D01*
X98721485Y-95685713D02*
X98721485Y-95066666D01*
X81283333Y-102287281D02*
X81235714Y-102334901D01*
X81235714Y-102334901D02*
X81092857Y-102382520D01*
X81092857Y-102382520D02*
X80997619Y-102382520D01*
X80997619Y-102382520D02*
X80854762Y-102334901D01*
X80854762Y-102334901D02*
X80759524Y-102239662D01*
X80759524Y-102239662D02*
X80711905Y-102144424D01*
X80711905Y-102144424D02*
X80664286Y-101953948D01*
X80664286Y-101953948D02*
X80664286Y-101811091D01*
X80664286Y-101811091D02*
X80711905Y-101620615D01*
X80711905Y-101620615D02*
X80759524Y-101525377D01*
X80759524Y-101525377D02*
X80854762Y-101430139D01*
X80854762Y-101430139D02*
X80997619Y-101382520D01*
X80997619Y-101382520D02*
X81092857Y-101382520D01*
X81092857Y-101382520D02*
X81235714Y-101430139D01*
X81235714Y-101430139D02*
X81283333Y-101477758D01*
X81854762Y-101811091D02*
X81759524Y-101763472D01*
X81759524Y-101763472D02*
X81711905Y-101715853D01*
X81711905Y-101715853D02*
X81664286Y-101620615D01*
X81664286Y-101620615D02*
X81664286Y-101572996D01*
X81664286Y-101572996D02*
X81711905Y-101477758D01*
X81711905Y-101477758D02*
X81759524Y-101430139D01*
X81759524Y-101430139D02*
X81854762Y-101382520D01*
X81854762Y-101382520D02*
X82045238Y-101382520D01*
X82045238Y-101382520D02*
X82140476Y-101430139D01*
X82140476Y-101430139D02*
X82188095Y-101477758D01*
X82188095Y-101477758D02*
X82235714Y-101572996D01*
X82235714Y-101572996D02*
X82235714Y-101620615D01*
X82235714Y-101620615D02*
X82188095Y-101715853D01*
X82188095Y-101715853D02*
X82140476Y-101763472D01*
X82140476Y-101763472D02*
X82045238Y-101811091D01*
X82045238Y-101811091D02*
X81854762Y-101811091D01*
X81854762Y-101811091D02*
X81759524Y-101858710D01*
X81759524Y-101858710D02*
X81711905Y-101906329D01*
X81711905Y-101906329D02*
X81664286Y-102001567D01*
X81664286Y-102001567D02*
X81664286Y-102192043D01*
X81664286Y-102192043D02*
X81711905Y-102287281D01*
X81711905Y-102287281D02*
X81759524Y-102334901D01*
X81759524Y-102334901D02*
X81854762Y-102382520D01*
X81854762Y-102382520D02*
X82045238Y-102382520D01*
X82045238Y-102382520D02*
X82140476Y-102334901D01*
X82140476Y-102334901D02*
X82188095Y-102287281D01*
X82188095Y-102287281D02*
X82235714Y-102192043D01*
X82235714Y-102192043D02*
X82235714Y-102001567D01*
X82235714Y-102001567D02*
X82188095Y-101906329D01*
X82188095Y-101906329D02*
X82140476Y-101858710D01*
X82140476Y-101858710D02*
X82045238Y-101811091D01*
X110999542Y-115720019D02*
X110666209Y-115243828D01*
X110428114Y-115720019D02*
X110428114Y-114720019D01*
X110428114Y-114720019D02*
X110809066Y-114720019D01*
X110809066Y-114720019D02*
X110904304Y-114767638D01*
X110904304Y-114767638D02*
X110951923Y-114815257D01*
X110951923Y-114815257D02*
X110999542Y-114910495D01*
X110999542Y-114910495D02*
X110999542Y-115053352D01*
X110999542Y-115053352D02*
X110951923Y-115148590D01*
X110951923Y-115148590D02*
X110904304Y-115196209D01*
X110904304Y-115196209D02*
X110809066Y-115243828D01*
X110809066Y-115243828D02*
X110428114Y-115243828D01*
X111951923Y-115720019D02*
X111380495Y-115720019D01*
X111666209Y-115720019D02*
X111666209Y-114720019D01*
X111666209Y-114720019D02*
X111570971Y-114862876D01*
X111570971Y-114862876D02*
X111475733Y-114958114D01*
X111475733Y-114958114D02*
X111380495Y-115005733D01*
X112809066Y-115053352D02*
X112809066Y-115720019D01*
X112570971Y-114672400D02*
X112332876Y-115386685D01*
X112332876Y-115386685D02*
X112951923Y-115386685D01*
X128026669Y-121666994D02*
X127026669Y-121666994D01*
X127026669Y-121666994D02*
X127026669Y-121428899D01*
X127026669Y-121428899D02*
X127074288Y-121286042D01*
X127074288Y-121286042D02*
X127169526Y-121190804D01*
X127169526Y-121190804D02*
X127264764Y-121143185D01*
X127264764Y-121143185D02*
X127455240Y-121095566D01*
X127455240Y-121095566D02*
X127598097Y-121095566D01*
X127598097Y-121095566D02*
X127788573Y-121143185D01*
X127788573Y-121143185D02*
X127883811Y-121190804D01*
X127883811Y-121190804D02*
X127979050Y-121286042D01*
X127979050Y-121286042D02*
X128026669Y-121428899D01*
X128026669Y-121428899D02*
X128026669Y-121666994D01*
X127360002Y-120238423D02*
X128026669Y-120238423D01*
X126979050Y-120476518D02*
X127693335Y-120714613D01*
X127693335Y-120714613D02*
X127693335Y-120095566D01*
X91133333Y-113454819D02*
X90800000Y-112978628D01*
X90561905Y-113454819D02*
X90561905Y-112454819D01*
X90561905Y-112454819D02*
X90942857Y-112454819D01*
X90942857Y-112454819D02*
X91038095Y-112502438D01*
X91038095Y-112502438D02*
X91085714Y-112550057D01*
X91085714Y-112550057D02*
X91133333Y-112645295D01*
X91133333Y-112645295D02*
X91133333Y-112788152D01*
X91133333Y-112788152D02*
X91085714Y-112883390D01*
X91085714Y-112883390D02*
X91038095Y-112931009D01*
X91038095Y-112931009D02*
X90942857Y-112978628D01*
X90942857Y-112978628D02*
X90561905Y-112978628D01*
X91466667Y-112454819D02*
X92085714Y-112454819D01*
X92085714Y-112454819D02*
X91752381Y-112835771D01*
X91752381Y-112835771D02*
X91895238Y-112835771D01*
X91895238Y-112835771D02*
X91990476Y-112883390D01*
X91990476Y-112883390D02*
X92038095Y-112931009D01*
X92038095Y-112931009D02*
X92085714Y-113026247D01*
X92085714Y-113026247D02*
X92085714Y-113264342D01*
X92085714Y-113264342D02*
X92038095Y-113359580D01*
X92038095Y-113359580D02*
X91990476Y-113407200D01*
X91990476Y-113407200D02*
X91895238Y-113454819D01*
X91895238Y-113454819D02*
X91609524Y-113454819D01*
X91609524Y-113454819D02*
X91514286Y-113407200D01*
X91514286Y-113407200D02*
X91466667Y-113359580D01*
X62261905Y-110854819D02*
X62261905Y-109854819D01*
X62261905Y-109854819D02*
X62500000Y-109854819D01*
X62500000Y-109854819D02*
X62642857Y-109902438D01*
X62642857Y-109902438D02*
X62738095Y-109997676D01*
X62738095Y-109997676D02*
X62785714Y-110092914D01*
X62785714Y-110092914D02*
X62833333Y-110283390D01*
X62833333Y-110283390D02*
X62833333Y-110426247D01*
X62833333Y-110426247D02*
X62785714Y-110616723D01*
X62785714Y-110616723D02*
X62738095Y-110711961D01*
X62738095Y-110711961D02*
X62642857Y-110807200D01*
X62642857Y-110807200D02*
X62500000Y-110854819D01*
X62500000Y-110854819D02*
X62261905Y-110854819D01*
X63214286Y-109950057D02*
X63261905Y-109902438D01*
X63261905Y-109902438D02*
X63357143Y-109854819D01*
X63357143Y-109854819D02*
X63595238Y-109854819D01*
X63595238Y-109854819D02*
X63690476Y-109902438D01*
X63690476Y-109902438D02*
X63738095Y-109950057D01*
X63738095Y-109950057D02*
X63785714Y-110045295D01*
X63785714Y-110045295D02*
X63785714Y-110140533D01*
X63785714Y-110140533D02*
X63738095Y-110283390D01*
X63738095Y-110283390D02*
X63166667Y-110854819D01*
X63166667Y-110854819D02*
X63785714Y-110854819D01*
X99157142Y-92659580D02*
X99109523Y-92707200D01*
X99109523Y-92707200D02*
X98966666Y-92754819D01*
X98966666Y-92754819D02*
X98871428Y-92754819D01*
X98871428Y-92754819D02*
X98728571Y-92707200D01*
X98728571Y-92707200D02*
X98633333Y-92611961D01*
X98633333Y-92611961D02*
X98585714Y-92516723D01*
X98585714Y-92516723D02*
X98538095Y-92326247D01*
X98538095Y-92326247D02*
X98538095Y-92183390D01*
X98538095Y-92183390D02*
X98585714Y-91992914D01*
X98585714Y-91992914D02*
X98633333Y-91897676D01*
X98633333Y-91897676D02*
X98728571Y-91802438D01*
X98728571Y-91802438D02*
X98871428Y-91754819D01*
X98871428Y-91754819D02*
X98966666Y-91754819D01*
X98966666Y-91754819D02*
X99109523Y-91802438D01*
X99109523Y-91802438D02*
X99157142Y-91850057D01*
X99538095Y-91850057D02*
X99585714Y-91802438D01*
X99585714Y-91802438D02*
X99680952Y-91754819D01*
X99680952Y-91754819D02*
X99919047Y-91754819D01*
X99919047Y-91754819D02*
X100014285Y-91802438D01*
X100014285Y-91802438D02*
X100061904Y-91850057D01*
X100061904Y-91850057D02*
X100109523Y-91945295D01*
X100109523Y-91945295D02*
X100109523Y-92040533D01*
X100109523Y-92040533D02*
X100061904Y-92183390D01*
X100061904Y-92183390D02*
X99490476Y-92754819D01*
X99490476Y-92754819D02*
X100109523Y-92754819D01*
X100966666Y-92088152D02*
X100966666Y-92754819D01*
X100728571Y-91707200D02*
X100490476Y-92421485D01*
X100490476Y-92421485D02*
X101109523Y-92421485D01*
X90061905Y-116454819D02*
X90061905Y-115454819D01*
X90061905Y-115454819D02*
X90300000Y-115454819D01*
X90300000Y-115454819D02*
X90442857Y-115502438D01*
X90442857Y-115502438D02*
X90538095Y-115597676D01*
X90538095Y-115597676D02*
X90585714Y-115692914D01*
X90585714Y-115692914D02*
X90633333Y-115883390D01*
X90633333Y-115883390D02*
X90633333Y-116026247D01*
X90633333Y-116026247D02*
X90585714Y-116216723D01*
X90585714Y-116216723D02*
X90538095Y-116311961D01*
X90538095Y-116311961D02*
X90442857Y-116407200D01*
X90442857Y-116407200D02*
X90300000Y-116454819D01*
X90300000Y-116454819D02*
X90061905Y-116454819D01*
X91585714Y-116454819D02*
X91014286Y-116454819D01*
X91300000Y-116454819D02*
X91300000Y-115454819D01*
X91300000Y-115454819D02*
X91204762Y-115597676D01*
X91204762Y-115597676D02*
X91109524Y-115692914D01*
X91109524Y-115692914D02*
X91014286Y-115740533D01*
X94366666Y-122151009D02*
X94033333Y-122151009D01*
X94033333Y-122674819D02*
X94033333Y-121674819D01*
X94033333Y-121674819D02*
X94509523Y-121674819D01*
X95414285Y-122674819D02*
X94842857Y-122674819D01*
X95128571Y-122674819D02*
X95128571Y-121674819D01*
X95128571Y-121674819D02*
X95033333Y-121817676D01*
X95033333Y-121817676D02*
X94938095Y-121912914D01*
X94938095Y-121912914D02*
X94842857Y-121960533D01*
X99207200Y-111433332D02*
X99254819Y-111290475D01*
X99254819Y-111290475D02*
X99254819Y-111052380D01*
X99254819Y-111052380D02*
X99207200Y-110957142D01*
X99207200Y-110957142D02*
X99159580Y-110909523D01*
X99159580Y-110909523D02*
X99064342Y-110861904D01*
X99064342Y-110861904D02*
X98969104Y-110861904D01*
X98969104Y-110861904D02*
X98873866Y-110909523D01*
X98873866Y-110909523D02*
X98826247Y-110957142D01*
X98826247Y-110957142D02*
X98778628Y-111052380D01*
X98778628Y-111052380D02*
X98731009Y-111242856D01*
X98731009Y-111242856D02*
X98683390Y-111338094D01*
X98683390Y-111338094D02*
X98635771Y-111385713D01*
X98635771Y-111385713D02*
X98540533Y-111433332D01*
X98540533Y-111433332D02*
X98445295Y-111433332D01*
X98445295Y-111433332D02*
X98350057Y-111385713D01*
X98350057Y-111385713D02*
X98302438Y-111338094D01*
X98302438Y-111338094D02*
X98254819Y-111242856D01*
X98254819Y-111242856D02*
X98254819Y-111004761D01*
X98254819Y-111004761D02*
X98302438Y-110861904D01*
X98254819Y-110528570D02*
X99254819Y-110290475D01*
X99254819Y-110290475D02*
X98540533Y-110099999D01*
X98540533Y-110099999D02*
X99254819Y-109909523D01*
X99254819Y-109909523D02*
X98254819Y-109671428D01*
X98588152Y-108861904D02*
X99254819Y-108861904D01*
X98207200Y-109099999D02*
X98921485Y-109338094D01*
X98921485Y-109338094D02*
X98921485Y-108719047D01*
X101504761Y-101950057D02*
X101409523Y-101902438D01*
X101409523Y-101902438D02*
X101314285Y-101807200D01*
X101314285Y-101807200D02*
X101171428Y-101664342D01*
X101171428Y-101664342D02*
X101076190Y-101616723D01*
X101076190Y-101616723D02*
X100980952Y-101616723D01*
X101028571Y-101854819D02*
X100933333Y-101807200D01*
X100933333Y-101807200D02*
X100838095Y-101711961D01*
X100838095Y-101711961D02*
X100790476Y-101521485D01*
X100790476Y-101521485D02*
X100790476Y-101188152D01*
X100790476Y-101188152D02*
X100838095Y-100997676D01*
X100838095Y-100997676D02*
X100933333Y-100902438D01*
X100933333Y-100902438D02*
X101028571Y-100854819D01*
X101028571Y-100854819D02*
X101219047Y-100854819D01*
X101219047Y-100854819D02*
X101314285Y-100902438D01*
X101314285Y-100902438D02*
X101409523Y-100997676D01*
X101409523Y-100997676D02*
X101457142Y-101188152D01*
X101457142Y-101188152D02*
X101457142Y-101521485D01*
X101457142Y-101521485D02*
X101409523Y-101711961D01*
X101409523Y-101711961D02*
X101314285Y-101807200D01*
X101314285Y-101807200D02*
X101219047Y-101854819D01*
X101219047Y-101854819D02*
X101028571Y-101854819D01*
X102409523Y-101854819D02*
X101838095Y-101854819D01*
X102123809Y-101854819D02*
X102123809Y-100854819D01*
X102123809Y-100854819D02*
X102028571Y-100997676D01*
X102028571Y-100997676D02*
X101933333Y-101092914D01*
X101933333Y-101092914D02*
X101838095Y-101140533D01*
X116473410Y-103096219D02*
X116473410Y-102096219D01*
X117521028Y-103000980D02*
X117473409Y-103048600D01*
X117473409Y-103048600D02*
X117330552Y-103096219D01*
X117330552Y-103096219D02*
X117235314Y-103096219D01*
X117235314Y-103096219D02*
X117092457Y-103048600D01*
X117092457Y-103048600D02*
X116997219Y-102953361D01*
X116997219Y-102953361D02*
X116949600Y-102858123D01*
X116949600Y-102858123D02*
X116901981Y-102667647D01*
X116901981Y-102667647D02*
X116901981Y-102524790D01*
X116901981Y-102524790D02*
X116949600Y-102334314D01*
X116949600Y-102334314D02*
X116997219Y-102239076D01*
X116997219Y-102239076D02*
X117092457Y-102143838D01*
X117092457Y-102143838D02*
X117235314Y-102096219D01*
X117235314Y-102096219D02*
X117330552Y-102096219D01*
X117330552Y-102096219D02*
X117473409Y-102143838D01*
X117473409Y-102143838D02*
X117521028Y-102191457D01*
X118473409Y-103096219D02*
X117901981Y-103096219D01*
X118187695Y-103096219D02*
X118187695Y-102096219D01*
X118187695Y-102096219D02*
X118092457Y-102239076D01*
X118092457Y-102239076D02*
X117997219Y-102334314D01*
X117997219Y-102334314D02*
X117901981Y-102381933D01*
X90866666Y-102454819D02*
X90866666Y-103169104D01*
X90866666Y-103169104D02*
X90819047Y-103311961D01*
X90819047Y-103311961D02*
X90723809Y-103407200D01*
X90723809Y-103407200D02*
X90580952Y-103454819D01*
X90580952Y-103454819D02*
X90485714Y-103454819D01*
X91771428Y-102788152D02*
X91771428Y-103454819D01*
X91533333Y-102407200D02*
X91295238Y-103121485D01*
X91295238Y-103121485D02*
X91914285Y-103121485D01*
X106754819Y-102166666D02*
X106278628Y-102499999D01*
X106754819Y-102738094D02*
X105754819Y-102738094D01*
X105754819Y-102738094D02*
X105754819Y-102357142D01*
X105754819Y-102357142D02*
X105802438Y-102261904D01*
X105802438Y-102261904D02*
X105850057Y-102214285D01*
X105850057Y-102214285D02*
X105945295Y-102166666D01*
X105945295Y-102166666D02*
X106088152Y-102166666D01*
X106088152Y-102166666D02*
X106183390Y-102214285D01*
X106183390Y-102214285D02*
X106231009Y-102261904D01*
X106231009Y-102261904D02*
X106278628Y-102357142D01*
X106278628Y-102357142D02*
X106278628Y-102738094D01*
X105754819Y-101261904D02*
X105754819Y-101738094D01*
X105754819Y-101738094D02*
X106231009Y-101785713D01*
X106231009Y-101785713D02*
X106183390Y-101738094D01*
X106183390Y-101738094D02*
X106135771Y-101642856D01*
X106135771Y-101642856D02*
X106135771Y-101404761D01*
X106135771Y-101404761D02*
X106183390Y-101309523D01*
X106183390Y-101309523D02*
X106231009Y-101261904D01*
X106231009Y-101261904D02*
X106326247Y-101214285D01*
X106326247Y-101214285D02*
X106564342Y-101214285D01*
X106564342Y-101214285D02*
X106659580Y-101261904D01*
X106659580Y-101261904D02*
X106707200Y-101309523D01*
X106707200Y-101309523D02*
X106754819Y-101404761D01*
X106754819Y-101404761D02*
X106754819Y-101642856D01*
X106754819Y-101642856D02*
X106707200Y-101738094D01*
X106707200Y-101738094D02*
X106659580Y-101785713D01*
D12*
%TO.C,C3*%
X61690000Y-102040580D02*
X61690000Y-101759420D01*
X62710000Y-102040580D02*
X62710000Y-101759420D01*
%TO.C,SW1*%
X80250000Y-129260000D02*
X70030000Y-129260000D01*
X70030000Y-126540000D01*
X80250000Y-126540000D01*
X80250000Y-129260000D01*
%TO.C,C22*%
X119280555Y-125228067D02*
X119280555Y-124028067D01*
X119280555Y-120708067D02*
X119280555Y-121908067D01*
X115824992Y-125228067D02*
X119280555Y-125228067D01*
X115824992Y-120708067D02*
X119280555Y-120708067D01*
X114760555Y-124163630D02*
X115824992Y-125228067D01*
X114760555Y-124163630D02*
X114760555Y-124028067D01*
X114760555Y-121772504D02*
X115824992Y-120708067D01*
X114760555Y-121772504D02*
X114760555Y-121908067D01*
X114270555Y-121158067D02*
X114270555Y-121658067D01*
X114020555Y-121408067D02*
X114520555Y-121408067D01*
D13*
%TO.C,J1*%
X110000000Y-125625000D02*
G75*
G02*
X109800000Y-125625000I-100000J0D01*
G01*
X109800000Y-125625000D02*
G75*
G02*
X110000000Y-125625000I100000J0D01*
G01*
X112100000Y-136525000D02*
X112100000Y-131925000D01*
X112100000Y-123325000D02*
X112100000Y-128925000D01*
X99700000Y-136525000D02*
X112100000Y-136525000D01*
X99700000Y-131925000D02*
X99700000Y-136525000D01*
X99700000Y-128925000D02*
X99700000Y-123325000D01*
X99700000Y-123325000D02*
X112100000Y-123325000D01*
D12*
%TO.C,U1*%
X63940000Y-103500000D02*
X63470000Y-103840000D01*
X63470000Y-103160000D01*
X63940000Y-103500000D01*
G36*
X63940000Y-103500000D02*
G01*
X63470000Y-103840000D01*
X63470000Y-103160000D01*
X63940000Y-103500000D01*
G37*
X73350000Y-100675000D02*
X72400000Y-100675000D01*
X73350000Y-99310000D02*
X73350000Y-100675000D01*
X62950000Y-100675000D02*
X63900000Y-100675000D01*
X62950000Y-99310000D02*
X62950000Y-100675000D01*
D14*
%TO.C,C6*%
X48177000Y-101069000D02*
X48177000Y-101831000D01*
X48558000Y-101450000D02*
X47796000Y-101450000D01*
X50018500Y-97068500D02*
X50018500Y-100507660D01*
X50018500Y-102392340D02*
X50018500Y-105831500D01*
X50018500Y-105831500D02*
X58781500Y-105831500D01*
X58781500Y-97068500D02*
X50018500Y-97068500D01*
X58781500Y-100507660D02*
X58781500Y-97068500D01*
X58781500Y-105831500D02*
X58781500Y-102392340D01*
D12*
%TO.C,R17*%
X101261276Y-116613800D02*
X101770724Y-116613800D01*
X101261276Y-117658800D02*
X101770724Y-117658800D01*
D14*
%TO.C,C1*%
X74212612Y-98000709D02*
X74212612Y-105854693D01*
X74212612Y-105854693D02*
X74906870Y-105854693D01*
X74906870Y-98000709D02*
X74212612Y-98000709D01*
X76108608Y-107497692D02*
X76870608Y-107497692D01*
X76489608Y-107116692D02*
X76489608Y-107878692D01*
X78072346Y-105854693D02*
X78766604Y-105854693D01*
X78766604Y-98000709D02*
X78072346Y-98000709D01*
X78766604Y-105854693D02*
X78766604Y-98000709D01*
D12*
%TO.C,C2*%
X93465000Y-109038748D02*
X93465000Y-109561252D01*
X94935000Y-109038748D02*
X94935000Y-109561252D01*
D13*
%TO.C,Q2*%
X102901000Y-106209200D02*
X104901000Y-106209200D01*
X102901000Y-106509200D02*
X102901000Y-106209200D01*
X104901000Y-106209200D02*
X104901000Y-106509200D01*
X104901000Y-106509200D02*
X102901000Y-106509200D01*
X105051000Y-104859200D02*
X105051000Y-105859200D01*
D15*
%TO.C,D5*%
X125555650Y-124263000D02*
G75*
G02*
X125455650Y-124263000I-50000J0D01*
G01*
X125455650Y-124263000D02*
G75*
G02*
X125555650Y-124263000I50000J0D01*
G01*
%TO.C,D6*%
X123565650Y-124263000D02*
G75*
G02*
X123465650Y-124263000I-50000J0D01*
G01*
X123465650Y-124263000D02*
G75*
G02*
X123565650Y-124263000I50000J0D01*
G01*
D12*
%TO.C,D7*%
X85490000Y-129850000D02*
X85490000Y-133150000D01*
X85490000Y-129850000D02*
X91000000Y-129850000D01*
X85490000Y-133150000D02*
X91000000Y-133150000D01*
%TO.C,D8*%
X85546875Y-129510000D02*
X85546875Y-124000000D01*
X85546875Y-129510000D02*
X88846875Y-129510000D01*
X88846875Y-129510000D02*
X88846875Y-124000000D01*
%TO.C,R16*%
X101261276Y-114975500D02*
X101770724Y-114975500D01*
X101261276Y-116020500D02*
X101770724Y-116020500D01*
%TO.C,R2*%
X111415336Y-112955400D02*
X111869464Y-112955400D01*
X111415336Y-114425400D02*
X111869464Y-114425400D01*
%TO.C,C4*%
X104911252Y-93890000D02*
X103488748Y-93890000D01*
X104911252Y-95710000D02*
X103488748Y-95710000D01*
%TO.C,R19*%
X100277500Y-103837258D02*
X100277500Y-103362742D01*
X101322500Y-103837258D02*
X101322500Y-103362742D01*
%TO.C,R18*%
X101261276Y-118252100D02*
X101770724Y-118252100D01*
X101261276Y-119297100D02*
X101770724Y-119297100D01*
%TO.C,C25*%
X104538748Y-89265000D02*
X105061252Y-89265000D01*
X104538748Y-90735000D02*
X105061252Y-90735000D01*
%TO.C,R15*%
X118365536Y-108866000D02*
X118819664Y-108866000D01*
X118365536Y-110336000D02*
X118819664Y-110336000D01*
%TO.C,R1*%
X106617600Y-114487336D02*
X106617600Y-115941464D01*
X108437600Y-114487336D02*
X108437600Y-115941464D01*
%TO.C,C7*%
X116257948Y-118594200D02*
X116780452Y-118594200D01*
X116257948Y-120064200D02*
X116780452Y-120064200D01*
%TO.C,U3*%
X117402200Y-112820700D02*
X115452200Y-112820700D01*
X117402200Y-112820700D02*
X119352200Y-112820700D01*
X117402200Y-117940700D02*
X115452200Y-117940700D01*
X117402200Y-117940700D02*
X119352200Y-117940700D01*
X120342200Y-118175700D02*
X119862200Y-118175700D01*
X120102200Y-117845700D01*
X120342200Y-118175700D01*
G36*
X120342200Y-118175700D02*
G01*
X119862200Y-118175700D01*
X120102200Y-117845700D01*
X120342200Y-118175700D01*
G37*
D13*
%TO.C,L1*%
X67950000Y-108500000D02*
X67950000Y-109400000D01*
X67950000Y-116500000D02*
X67950000Y-115600000D01*
X78050000Y-106400000D02*
X70050000Y-106400000D01*
X78050000Y-118600000D02*
X70050000Y-118600000D01*
X80150000Y-109400000D02*
X80150000Y-108500000D01*
X80150000Y-115600000D02*
X80150000Y-116500000D01*
X67950000Y-108500000D02*
G75*
G02*
X70050000Y-106400000I2100000J0D01*
G01*
X70050000Y-118600000D02*
G75*
G02*
X67950000Y-116500000I1J2100001D01*
G01*
X70050000Y-118600000D02*
G75*
G02*
X67950000Y-116500000I1J2100001D01*
G01*
X78050000Y-106400000D02*
G75*
G02*
X80150000Y-108500000I0J-2100000D01*
G01*
X80150000Y-116500000D02*
G75*
G02*
X78050000Y-118600000I-2100001J1D01*
G01*
D16*
X81050000Y-116200000D02*
G75*
G02*
X80650000Y-116200000I-200000J0D01*
G01*
X80650000Y-116200000D02*
G75*
G02*
X81050000Y-116200000I200000J0D01*
G01*
D12*
%TO.C,R4*%
X99477500Y-95462742D02*
X99477500Y-95937258D01*
X100522500Y-95462742D02*
X100522500Y-95937258D01*
D14*
%TO.C,C8*%
X79173004Y-98000709D02*
X79173004Y-105854693D01*
X79173004Y-105854693D02*
X79867262Y-105854693D01*
X79867262Y-98000709D02*
X79173004Y-98000709D01*
X81069000Y-107497692D02*
X81831000Y-107497692D01*
X81450000Y-107116692D02*
X81450000Y-107878692D01*
X83032738Y-105854693D02*
X83726996Y-105854693D01*
X83726996Y-98000709D02*
X83032738Y-98000709D01*
X83726996Y-105854693D02*
X83726996Y-98000709D01*
D12*
%TO.C,R14*%
X111415336Y-116155800D02*
X111869464Y-116155800D01*
X111415336Y-117625800D02*
X111869464Y-117625800D01*
D15*
%TO.C,D4*%
X127545650Y-124263000D02*
G75*
G02*
X127445650Y-124263000I-50000J0D01*
G01*
X127445650Y-124263000D02*
G75*
G02*
X127545650Y-124263000I50000J0D01*
G01*
D12*
%TO.C,R3*%
X91567224Y-113877500D02*
X91057776Y-113877500D01*
X91567224Y-114922500D02*
X91057776Y-114922500D01*
%TO.C,D2*%
X67260000Y-106200000D02*
X60250000Y-106200000D01*
X67260000Y-109500000D02*
X60250000Y-109500000D01*
X67260000Y-109500000D02*
X67260000Y-106200000D01*
%TO.C,C24*%
X103938748Y-91565000D02*
X104461252Y-91565000D01*
X103938748Y-93035000D02*
X104461252Y-93035000D01*
D15*
%TO.C,D1*%
X92087500Y-117032500D02*
G75*
G02*
X91987500Y-117032500I-50000J0D01*
G01*
X91987500Y-117032500D02*
G75*
G02*
X92087500Y-117032500I50000J0D01*
G01*
D12*
%TO.C,F1*%
X92496248Y-123230000D02*
X96903752Y-123230000D01*
X92496248Y-128570000D02*
X96903752Y-128570000D01*
D14*
%TO.C,SW4*%
X95726600Y-107026600D02*
X95726600Y-113173400D01*
X95726600Y-113173400D02*
X97794160Y-113173400D01*
X97794160Y-107026600D02*
X95726600Y-107026600D01*
X99805840Y-113173400D02*
X101873400Y-113173400D01*
X101873400Y-107026600D02*
X99805840Y-107026600D01*
X101873400Y-113173400D02*
X101873400Y-107026600D01*
D13*
%TO.C,Q1*%
X102751000Y-104100000D02*
X102751000Y-103100000D01*
X102901000Y-102450000D02*
X104901000Y-102450000D01*
X102901000Y-102750000D02*
X102901000Y-102450000D01*
X104901000Y-102450000D02*
X104901000Y-102750000D01*
X104901000Y-102750000D02*
X102901000Y-102750000D01*
D12*
%TO.C,IC1*%
X108411800Y-106755400D02*
X108411800Y-107535400D01*
X108411800Y-107535400D02*
X109411800Y-107535400D01*
X126651800Y-106755400D02*
X126651800Y-107535400D01*
X126651800Y-107535400D02*
X125651800Y-107535400D01*
X108406800Y-88680400D02*
X107906800Y-88680400D01*
X108406800Y-88180400D01*
X108406800Y-88680400D01*
G36*
X108406800Y-88680400D02*
G01*
X107906800Y-88680400D01*
X108406800Y-88180400D01*
X108406800Y-88680400D01*
G37*
D17*
%TO.C,J4*%
X90300000Y-95025000D02*
X90300000Y-95170000D01*
X90300000Y-101630000D02*
X90300000Y-101775000D01*
X90300000Y-101775000D02*
X92100000Y-101775000D01*
X92100000Y-95025000D02*
X90300000Y-95025000D01*
X92100000Y-96440000D02*
X92100000Y-95025000D01*
X92100000Y-101775000D02*
X92100000Y-100360000D01*
D13*
X88600000Y-100940000D02*
G75*
G02*
X88400000Y-100940000I-100000J0D01*
G01*
X88400000Y-100940000D02*
G75*
G02*
X88600000Y-100940000I100000J0D01*
G01*
D12*
%TO.C,R5*%
X105777500Y-104637258D02*
X105777500Y-104162742D01*
X106822500Y-104637258D02*
X106822500Y-104162742D01*
%TD*%
M02*
