%TF.GenerationSoftware,KiCad,Pcbnew,9.0.7*%
%TF.CreationDate,2026-01-28T21:35:42+01:00*%
%TF.ProjectId,modbus-to-x,6d6f6462-7573-42d7-946f-2d782e6b6963,rev?*%
%TF.SameCoordinates,Original*%
%TF.FileFunction,Copper,L2,Inr*%
%TF.FilePolarity,Positive*%
%FSLAX46Y46*%
G04 Gerber Fmt 4.6, Leading zero omitted, Abs format (unit mm)*
G04 Created by KiCad (PCBNEW 9.0.7) date 2026-01-28 21:35:42*
%MOMM*%
%LPD*%
G01*
G04 APERTURE LIST*
%TA.AperFunction,ComponentPad*%
%ADD10R,1.500000X1.500000*%
%TD*%
%TA.AperFunction,ComponentPad*%
%ADD11C,1.600000*%
%TD*%
%TA.AperFunction,ComponentPad*%
%ADD12C,1.408000*%
%TD*%
%TA.AperFunction,HeatsinkPad*%
%ADD13C,0.600000*%
%TD*%
%TA.AperFunction,ViaPad*%
%ADD14C,0.600000*%
%TD*%
G04 APERTURE END LIST*
D10*
%TO.N,/V_PROT*%
%TO.C,SW1*%
X75140000Y-127900000D03*
D11*
X77680000Y-127900000D03*
%TO.N,/V_BUCK*%
X72600000Y-127900000D03*
%TD*%
D12*
%TO.N,/V_EXT*%
%TO.C,J1*%
X103350000Y-128125000D03*
%TO.N,/RS485+*%
X104370000Y-125585000D03*
%TO.N,unconnected-(J1-Pad4)*%
X105390000Y-128125000D03*
%TO.N,/RS485-*%
X106410000Y-125585000D03*
%TO.N,unconnected-(J1-Pad2)*%
X107430000Y-128125000D03*
%TO.N,GND*%
X108450000Y-125585000D03*
%TD*%
D13*
%TO.N,GND*%
%TO.C,IC1*%
X114631800Y-96425400D03*
X114631800Y-97825400D03*
X115331800Y-95725400D03*
X115331800Y-97125400D03*
X115331800Y-98525400D03*
X116006800Y-96425400D03*
X116006800Y-97825400D03*
X116731800Y-95725400D03*
X116731800Y-97125400D03*
X116731800Y-98525400D03*
X117431800Y-96425400D03*
X117431800Y-97825400D03*
%TD*%
D14*
%TO.N,GND*%
X59900000Y-105600000D03*
X72500000Y-88700000D03*
X70713627Y-88700000D03*
X68925220Y-88700000D03*
X67167107Y-88700000D03*
X63613784Y-88696622D03*
X65378700Y-88700000D03*
X74600000Y-93000000D03*
X74603378Y-89446677D03*
X74600000Y-91211593D03*
X61758648Y-89446677D03*
X61755270Y-93000000D03*
X61755270Y-91211593D03*
X122508450Y-123575200D03*
X89845434Y-99930196D03*
X63350000Y-99825000D03*
X79000000Y-97500000D03*
X109407200Y-117297200D03*
X71550000Y-99825000D03*
X60290000Y-106600000D03*
X110845600Y-107721400D03*
X78150000Y-99600000D03*
X76000000Y-97500000D03*
X59900000Y-100950000D03*
X85796875Y-123100000D03*
X85796875Y-125100000D03*
X65150000Y-99825000D03*
X74600000Y-94500000D03*
X118600000Y-119300000D03*
X74750000Y-99600000D03*
X58980000Y-106600000D03*
X59150000Y-97925000D03*
X83100000Y-99600000D03*
X108840000Y-88500000D03*
X114900000Y-112550000D03*
X79750000Y-99600000D03*
X61600000Y-106600000D03*
X61750000Y-94500000D03*
X60450000Y-97925000D03*
X88596875Y-124100000D03*
X124489650Y-123575200D03*
X87896875Y-122200000D03*
X74600000Y-96260000D03*
X86596875Y-122200000D03*
X82250000Y-96125000D03*
X92436786Y-117000000D03*
X61750000Y-99825000D03*
X104800000Y-88500000D03*
X79750000Y-98600000D03*
X82000000Y-97500000D03*
X111785400Y-108483400D03*
X128500000Y-123550000D03*
X125018800Y-89027000D03*
X118800000Y-124400000D03*
X66650000Y-99825000D03*
X96311700Y-110888300D03*
X59200000Y-100300000D03*
X68150000Y-99525000D03*
X81000000Y-97500000D03*
X60450000Y-94500000D03*
X88596875Y-123100000D03*
X114140000Y-88500000D03*
X77000000Y-97500000D03*
X59150000Y-96165000D03*
X115900000Y-88500000D03*
X116281200Y-109331200D03*
X60450000Y-96165000D03*
X126300000Y-88500000D03*
X118800000Y-121600000D03*
X117660000Y-88500000D03*
X122860000Y-88500000D03*
X126470850Y-123575200D03*
X73450000Y-99825000D03*
X74750000Y-98600000D03*
X102600000Y-90000000D03*
X83100000Y-98600000D03*
X112380000Y-88500000D03*
X82250000Y-94365000D03*
X127889000Y-89052400D03*
X119800000Y-120400000D03*
X111810800Y-105867200D03*
X97861700Y-112438300D03*
X121100000Y-88500000D03*
X85796875Y-124100000D03*
X78150000Y-98600000D03*
X110845600Y-106705400D03*
X88596875Y-125100000D03*
X60000000Y-100100000D03*
X120900000Y-122950000D03*
X127889000Y-90000000D03*
X110600000Y-88500000D03*
X110032800Y-89400000D03*
X103900000Y-95300000D03*
X68150000Y-100725000D03*
X119420000Y-88500000D03*
X119900000Y-124800000D03*
X69750000Y-99825000D03*
X107150000Y-88500000D03*
X61750000Y-97885000D03*
X61750000Y-96125000D03*
X101600000Y-92300000D03*
X125018800Y-89839800D03*
X101600000Y-90000000D03*
%TO.N,/EN*%
X100000000Y-96700000D03*
X102850000Y-107400000D03*
%TO.N,/IO_0*%
X104700000Y-101600000D03*
X124968000Y-105918000D03*
%TO.N,VDD33*%
X106400000Y-92600000D03*
X114326007Y-124516311D03*
X88500000Y-105125000D03*
X107100000Y-90100000D03*
X98600000Y-95700000D03*
X87100000Y-105125000D03*
X92200000Y-105200000D03*
X112623947Y-112537800D03*
X114956700Y-118536400D03*
X85700000Y-105125000D03*
X87100000Y-104200000D03*
X107100000Y-90900000D03*
X114956700Y-121120678D03*
X116332127Y-124293730D03*
X106400000Y-91800000D03*
X85700000Y-104200000D03*
X116205000Y-117285700D03*
X88500000Y-104200000D03*
%TO.N,/TX_0*%
X124841000Y-93242208D03*
X90400000Y-97350000D03*
%TO.N,/RX_0*%
X93350000Y-98450000D03*
X124841000Y-94488000D03*
%TO.N,/V_BUCK*%
X49700000Y-103400000D03*
X63900000Y-104300000D03*
X62900000Y-104300000D03*
X49700000Y-104300000D03*
X50900000Y-102500000D03*
X62900000Y-103400000D03*
X63900000Y-103400000D03*
X62900000Y-102500000D03*
X49700000Y-102500000D03*
X50900000Y-103400000D03*
X63900000Y-102500000D03*
X50900000Y-104300000D03*
%TO.N,Net-(D4-A)*%
X103505000Y-115519200D03*
X127500000Y-121100000D03*
%TO.N,Net-(D5-A)*%
X103469900Y-117136300D03*
X125500000Y-121100000D03*
%TO.N,Net-(D6-A)*%
X103469900Y-118774600D03*
X123500000Y-121100000D03*
%TO.N,/LED_C*%
X100634800Y-114477800D03*
X110363000Y-104063800D03*
%TO.N,/LED_A*%
X101500000Y-117900000D03*
X112100000Y-102000000D03*
%TO.N,/LED_B*%
X111000000Y-103000000D03*
X101482600Y-116306600D03*
%TD*%
%TA.AperFunction,Conductor*%
%TO.N,GND*%
G36*
X93474839Y-88020185D02*
G01*
X93520594Y-88072989D01*
X93526489Y-88100089D01*
X93531800Y-88105400D01*
X130182851Y-88105400D01*
X130184206Y-88105606D01*
X130184892Y-88105417D01*
X130219740Y-88111014D01*
X130236549Y-88116251D01*
X130309391Y-88138950D01*
X130324904Y-88144955D01*
X130766302Y-88350941D01*
X130777994Y-88357180D01*
X130913465Y-88439075D01*
X130925776Y-88447573D01*
X131151573Y-88624473D01*
X131162781Y-88634403D01*
X131365596Y-88837218D01*
X131375526Y-88848426D01*
X131466701Y-88964803D01*
X131481457Y-88988838D01*
X131932646Y-89955672D01*
X131942248Y-89985758D01*
X131979923Y-90191340D01*
X131981728Y-90206205D01*
X131999274Y-90496263D01*
X131999500Y-90503750D01*
X131999500Y-131196249D01*
X131999274Y-131203736D01*
X131981728Y-131493794D01*
X131979923Y-131508659D01*
X131935107Y-131753211D01*
X131925336Y-131783658D01*
X131558791Y-132562567D01*
X131535625Y-132596077D01*
X131100434Y-133044995D01*
X131067659Y-133069190D01*
X130051510Y-133586504D01*
X129995253Y-133600000D01*
X50312228Y-133600000D01*
X50289656Y-133597928D01*
X47611042Y-133102044D01*
X47589502Y-133096004D01*
X46656053Y-132740691D01*
X46612484Y-132712484D01*
X46144953Y-132244953D01*
X46115646Y-132198378D01*
X45803939Y-131311213D01*
X45798262Y-131288244D01*
X45717400Y-130741269D01*
X45548213Y-129596828D01*
X45409416Y-128657956D01*
X45407334Y-128643872D01*
X47724500Y-128643872D01*
X47724500Y-128906127D01*
X47745436Y-129065140D01*
X47758730Y-129166116D01*
X47813205Y-129369419D01*
X47826602Y-129419418D01*
X47826605Y-129419428D01*
X47926953Y-129661690D01*
X47926958Y-129661700D01*
X48058075Y-129888803D01*
X48217718Y-130096851D01*
X48217726Y-130096860D01*
X48403140Y-130282274D01*
X48403148Y-130282281D01*
X48611196Y-130441924D01*
X48838299Y-130573041D01*
X48838309Y-130573046D01*
X49080571Y-130673394D01*
X49080581Y-130673398D01*
X49333884Y-130741270D01*
X49593880Y-130775500D01*
X49593887Y-130775500D01*
X49856113Y-130775500D01*
X49856120Y-130775500D01*
X50116116Y-130741270D01*
X50369419Y-130673398D01*
X50611697Y-130573043D01*
X50838803Y-130441924D01*
X51007579Y-130312417D01*
X98469500Y-130312417D01*
X98469500Y-130537582D01*
X98504723Y-130759976D01*
X98574305Y-130974125D01*
X98655821Y-131134108D01*
X98676527Y-131174745D01*
X98808876Y-131356908D01*
X98968092Y-131516124D01*
X99150255Y-131648473D01*
X99245041Y-131696769D01*
X99350874Y-131750694D01*
X99350876Y-131750694D01*
X99350879Y-131750696D01*
X99452326Y-131783658D01*
X99565023Y-131820276D01*
X99676220Y-131837888D01*
X99787417Y-131855500D01*
X99787418Y-131855500D01*
X100012582Y-131855500D01*
X100012583Y-131855500D01*
X100234976Y-131820276D01*
X100449121Y-131750696D01*
X100649745Y-131648473D01*
X100831908Y-131516124D01*
X100991124Y-131356908D01*
X101123473Y-131174745D01*
X101225696Y-130974121D01*
X101295276Y-130759976D01*
X101330500Y-130537583D01*
X101330500Y-130312417D01*
X110469500Y-130312417D01*
X110469500Y-130537582D01*
X110504723Y-130759976D01*
X110574305Y-130974125D01*
X110655821Y-131134108D01*
X110676527Y-131174745D01*
X110808876Y-131356908D01*
X110968092Y-131516124D01*
X111150255Y-131648473D01*
X111245041Y-131696769D01*
X111350874Y-131750694D01*
X111350876Y-131750694D01*
X111350879Y-131750696D01*
X111452326Y-131783658D01*
X111565023Y-131820276D01*
X111676220Y-131837888D01*
X111787417Y-131855500D01*
X111787418Y-131855500D01*
X112012582Y-131855500D01*
X112012583Y-131855500D01*
X112234976Y-131820276D01*
X112449121Y-131750696D01*
X112649745Y-131648473D01*
X112831908Y-131516124D01*
X112991124Y-131356908D01*
X113123473Y-131174745D01*
X113225696Y-130974121D01*
X113295276Y-130759976D01*
X113330500Y-130537583D01*
X113330500Y-130312417D01*
X113317808Y-130232281D01*
X113295276Y-130090023D01*
X113225694Y-129875874D01*
X113146112Y-129719687D01*
X113123473Y-129675255D01*
X112991124Y-129493092D01*
X112831908Y-129333876D01*
X112649745Y-129201527D01*
X112584881Y-129168477D01*
X112449125Y-129099305D01*
X112234976Y-129029723D01*
X112042989Y-128999316D01*
X112012583Y-128994500D01*
X111787417Y-128994500D01*
X111760667Y-128998736D01*
X111565023Y-129029723D01*
X111350874Y-129099305D01*
X111150254Y-129201527D01*
X110968089Y-129333878D01*
X110808878Y-129493089D01*
X110676527Y-129675254D01*
X110574305Y-129875874D01*
X110504723Y-130090023D01*
X110469500Y-130312417D01*
X101330500Y-130312417D01*
X101317808Y-130232281D01*
X101295276Y-130090023D01*
X101225694Y-129875874D01*
X101146112Y-129719687D01*
X101123473Y-129675255D01*
X100991124Y-129493092D01*
X100831908Y-129333876D01*
X100649745Y-129201527D01*
X100584881Y-129168477D01*
X100449125Y-129099305D01*
X100234976Y-129029723D01*
X100042989Y-128999316D01*
X100012583Y-128994500D01*
X99787417Y-128994500D01*
X99760667Y-128998736D01*
X99565023Y-129029723D01*
X99350874Y-129099305D01*
X99150254Y-129201527D01*
X98968089Y-129333878D01*
X98808878Y-129493089D01*
X98676527Y-129675254D01*
X98574305Y-129875874D01*
X98504723Y-130090023D01*
X98469500Y-130312417D01*
X51007579Y-130312417D01*
X51046851Y-130282282D01*
X51046855Y-130282277D01*
X51046860Y-130282274D01*
X51232274Y-130096860D01*
X51232277Y-130096855D01*
X51232282Y-130096851D01*
X51391924Y-129888803D01*
X51523043Y-129661697D01*
X51623398Y-129419419D01*
X51691270Y-129166116D01*
X51725500Y-128906120D01*
X51725500Y-128643880D01*
X51724938Y-128639615D01*
X51718916Y-128593872D01*
X51691270Y-128383884D01*
X51623398Y-128130581D01*
X51606972Y-128090924D01*
X51523046Y-127888309D01*
X51523041Y-127888300D01*
X51470703Y-127797648D01*
X71299500Y-127797648D01*
X71299500Y-128002351D01*
X71331522Y-128204534D01*
X71394781Y-128399223D01*
X71487715Y-128581613D01*
X71608028Y-128747213D01*
X71752786Y-128891971D01*
X71893908Y-128994500D01*
X71918390Y-129012287D01*
X72022120Y-129065140D01*
X72100776Y-129105218D01*
X72100778Y-129105218D01*
X72100781Y-129105220D01*
X72205137Y-129139127D01*
X72295465Y-129168477D01*
X72396557Y-129184488D01*
X72497648Y-129200500D01*
X72497649Y-129200500D01*
X72702351Y-129200500D01*
X72702352Y-129200500D01*
X72904534Y-129168477D01*
X73099219Y-129105220D01*
X73281610Y-129012287D01*
X73422838Y-128909680D01*
X73447213Y-128891971D01*
X73447215Y-128891968D01*
X73447219Y-128891966D01*
X73591966Y-128747219D01*
X73666568Y-128644536D01*
X73721898Y-128601870D01*
X73791511Y-128595891D01*
X73853306Y-128628496D01*
X73887664Y-128689334D01*
X73890177Y-128704166D01*
X73895909Y-128757483D01*
X73946202Y-128892328D01*
X73946206Y-128892335D01*
X74032452Y-129007544D01*
X74032455Y-129007547D01*
X74147664Y-129093793D01*
X74147671Y-129093797D01*
X74282517Y-129144091D01*
X74282516Y-129144091D01*
X74289444Y-129144835D01*
X74342127Y-129150500D01*
X75937872Y-129150499D01*
X75997483Y-129144091D01*
X76132331Y-129093796D01*
X76247546Y-129007546D01*
X76333796Y-128892331D01*
X76384091Y-128757483D01*
X76389823Y-128704162D01*
X76416560Y-128639615D01*
X76473952Y-128599767D01*
X76543777Y-128597273D01*
X76603866Y-128632925D01*
X76613430Y-128644536D01*
X76688028Y-128747212D01*
X76688032Y-128747217D01*
X76832786Y-128891971D01*
X76973908Y-128994500D01*
X76998390Y-129012287D01*
X77102120Y-129065140D01*
X77180776Y-129105218D01*
X77180778Y-129105218D01*
X77180781Y-129105220D01*
X77285137Y-129139127D01*
X77375465Y-129168477D01*
X77476557Y-129184488D01*
X77577648Y-129200500D01*
X77577649Y-129200500D01*
X77782351Y-129200500D01*
X77782352Y-129200500D01*
X77984534Y-129168477D01*
X78179219Y-129105220D01*
X78361610Y-129012287D01*
X78502838Y-128909680D01*
X78527213Y-128891971D01*
X78527215Y-128891968D01*
X78527219Y-128891966D01*
X78671966Y-128747219D01*
X78671968Y-128747215D01*
X78671971Y-128747213D01*
X78747041Y-128643886D01*
X78792287Y-128581610D01*
X78885220Y-128399219D01*
X78948477Y-128204534D01*
X78960192Y-128130571D01*
X78976090Y-128030199D01*
X102145500Y-128030199D01*
X102145500Y-128219800D01*
X102175157Y-128407049D01*
X102175158Y-128407055D01*
X102184193Y-128434860D01*
X102233747Y-128587372D01*
X102290051Y-128697873D01*
X102319819Y-128756296D01*
X102431259Y-128909679D01*
X102565321Y-129043741D01*
X102718704Y-129155181D01*
X102798515Y-129195846D01*
X102887627Y-129241252D01*
X102887629Y-129241252D01*
X102887632Y-129241254D01*
X103067945Y-129299842D01*
X103161574Y-129314671D01*
X103255200Y-129329500D01*
X103255204Y-129329500D01*
X103444800Y-129329500D01*
X103528022Y-129316318D01*
X103632055Y-129299842D01*
X103812368Y-129241254D01*
X103981296Y-129155181D01*
X104134679Y-129043741D01*
X104268741Y-128909679D01*
X104269677Y-128908389D01*
X104270158Y-128908018D01*
X104271905Y-128905974D01*
X104272334Y-128906340D01*
X104325003Y-128865720D01*
X104394616Y-128859736D01*
X104456413Y-128892337D01*
X104470319Y-128908385D01*
X104471259Y-128909679D01*
X104605321Y-129043741D01*
X104758704Y-129155181D01*
X104838515Y-129195846D01*
X104927627Y-129241252D01*
X104927629Y-129241252D01*
X104927632Y-129241254D01*
X105107945Y-129299842D01*
X105201574Y-129314671D01*
X105295200Y-129329500D01*
X105295204Y-129329500D01*
X105484800Y-129329500D01*
X105568022Y-129316318D01*
X105672055Y-129299842D01*
X105852368Y-129241254D01*
X106021296Y-129155181D01*
X106174679Y-129043741D01*
X106308741Y-128909679D01*
X106309677Y-128908389D01*
X106310158Y-128908018D01*
X106311905Y-128905974D01*
X106312334Y-128906340D01*
X106365003Y-128865720D01*
X106434616Y-128859736D01*
X106496413Y-128892337D01*
X106510319Y-128908385D01*
X106511259Y-128909679D01*
X106645321Y-129043741D01*
X106798704Y-129155181D01*
X106878515Y-129195846D01*
X106967627Y-129241252D01*
X106967629Y-129241252D01*
X106967632Y-129241254D01*
X107147945Y-129299842D01*
X107241574Y-129314671D01*
X107335200Y-129329500D01*
X107335204Y-129329500D01*
X107524800Y-129329500D01*
X107608022Y-129316318D01*
X107712055Y-129299842D01*
X107892368Y-129241254D01*
X108061296Y-129155181D01*
X108214679Y-129043741D01*
X108348741Y-128909679D01*
X108460181Y-128756296D01*
X108542940Y-128593872D01*
X125674500Y-128593872D01*
X125674500Y-128856127D01*
X125694436Y-129007544D01*
X125708730Y-129116116D01*
X125767079Y-129333878D01*
X125776602Y-129369418D01*
X125776605Y-129369428D01*
X125876953Y-129611690D01*
X125876958Y-129611700D01*
X126008075Y-129838803D01*
X126167718Y-130046851D01*
X126167726Y-130046860D01*
X126353140Y-130232274D01*
X126353148Y-130232281D01*
X126561196Y-130391924D01*
X126788299Y-130523041D01*
X126788309Y-130523046D01*
X127030571Y-130623394D01*
X127030581Y-130623398D01*
X127283884Y-130691270D01*
X127543880Y-130725500D01*
X127543887Y-130725500D01*
X127806113Y-130725500D01*
X127806120Y-130725500D01*
X128066116Y-130691270D01*
X128319419Y-130623398D01*
X128496340Y-130550114D01*
X128561690Y-130523046D01*
X128561691Y-130523045D01*
X128561697Y-130523043D01*
X128788803Y-130391924D01*
X128996851Y-130232282D01*
X128996855Y-130232277D01*
X128996860Y-130232274D01*
X129182274Y-130046860D01*
X129182277Y-130046855D01*
X129182282Y-130046851D01*
X129341924Y-129838803D01*
X129473043Y-129611697D01*
X129573398Y-129369419D01*
X129641270Y-129116116D01*
X129675500Y-128856120D01*
X129675500Y-128593880D01*
X129641270Y-128333884D01*
X129573398Y-128080581D01*
X129573394Y-128080571D01*
X129473046Y-127838309D01*
X129473041Y-127838299D01*
X129341924Y-127611196D01*
X129182281Y-127403148D01*
X129182274Y-127403140D01*
X128996860Y-127217726D01*
X128996851Y-127217718D01*
X128788803Y-127058075D01*
X128561700Y-126926958D01*
X128561690Y-126926953D01*
X128319428Y-126826605D01*
X128319421Y-126826603D01*
X128319419Y-126826602D01*
X128066116Y-126758730D01*
X128008339Y-126751123D01*
X127806127Y-126724500D01*
X127806120Y-126724500D01*
X127543880Y-126724500D01*
X127543872Y-126724500D01*
X127312772Y-126754926D01*
X127283884Y-126758730D01*
X127158024Y-126792454D01*
X127030581Y-126826602D01*
X127030571Y-126826605D01*
X126788309Y-126926953D01*
X126788299Y-126926958D01*
X126561196Y-127058075D01*
X126353148Y-127217718D01*
X126167718Y-127403148D01*
X126008075Y-127611196D01*
X125876958Y-127838299D01*
X125876953Y-127838309D01*
X125776605Y-128080571D01*
X125776602Y-128080581D01*
X125716781Y-128303839D01*
X125708730Y-128333885D01*
X125674500Y-128593872D01*
X108542940Y-128593872D01*
X108546254Y-128587368D01*
X108604842Y-128407055D01*
X108622636Y-128294699D01*
X108634500Y-128219800D01*
X108634500Y-128030199D01*
X108612852Y-127893520D01*
X108604842Y-127842945D01*
X108546254Y-127662632D01*
X108546252Y-127662629D01*
X108546252Y-127662627D01*
X108460180Y-127493703D01*
X108430709Y-127453140D01*
X108348741Y-127340321D01*
X108214679Y-127206259D01*
X108061296Y-127094819D01*
X107892372Y-127008747D01*
X107833905Y-126989750D01*
X107712055Y-126950158D01*
X107712051Y-126950157D01*
X107712050Y-126950157D01*
X107524800Y-126920500D01*
X107524796Y-126920500D01*
X107335204Y-126920500D01*
X107335200Y-126920500D01*
X107147949Y-126950157D01*
X107147946Y-126950157D01*
X107147945Y-126950158D01*
X107089482Y-126969153D01*
X106967627Y-127008747D01*
X106798703Y-127094819D01*
X106645319Y-127206260D01*
X106511258Y-127340321D01*
X106510317Y-127341618D01*
X106509832Y-127341991D01*
X106508095Y-127344026D01*
X106507667Y-127343660D01*
X106454987Y-127384283D01*
X106385373Y-127390261D01*
X106323579Y-127357654D01*
X106309683Y-127341618D01*
X106308741Y-127340321D01*
X106174680Y-127206260D01*
X106021296Y-127094819D01*
X105852372Y-127008747D01*
X105793905Y-126989750D01*
X105672055Y-126950158D01*
X105672051Y-126950157D01*
X105672050Y-126950157D01*
X105484800Y-126920500D01*
X105484796Y-126920500D01*
X105295204Y-126920500D01*
X105295200Y-126920500D01*
X105107949Y-126950157D01*
X105107946Y-126950157D01*
X105107945Y-126950158D01*
X105049482Y-126969153D01*
X104927627Y-127008747D01*
X104758703Y-127094819D01*
X104605319Y-127206260D01*
X104471258Y-127340321D01*
X104470317Y-127341618D01*
X104469832Y-127341991D01*
X104468095Y-127344026D01*
X104467667Y-127343660D01*
X104414987Y-127384283D01*
X104345373Y-127390261D01*
X104283579Y-127357654D01*
X104269683Y-127341618D01*
X104268741Y-127340321D01*
X104134680Y-127206260D01*
X103981296Y-127094819D01*
X103812372Y-127008747D01*
X103753905Y-126989750D01*
X103632055Y-126950158D01*
X103632051Y-126950157D01*
X103632050Y-126950157D01*
X103444800Y-126920500D01*
X103444796Y-126920500D01*
X103255204Y-126920500D01*
X103255200Y-126920500D01*
X103067949Y-126950157D01*
X103067946Y-126950157D01*
X103067945Y-126950158D01*
X103009482Y-126969153D01*
X102887627Y-127008747D01*
X102718703Y-127094819D01*
X102565319Y-127206260D01*
X102431260Y-127340319D01*
X102319819Y-127493703D01*
X102233747Y-127662627D01*
X102212441Y-127728200D01*
X102176665Y-127838309D01*
X102175157Y-127842949D01*
X102145500Y-128030199D01*
X78976090Y-128030199D01*
X78979933Y-128005934D01*
X78979933Y-128005933D01*
X78980496Y-128002376D01*
X78980500Y-128002352D01*
X78980500Y-127797648D01*
X78969835Y-127730313D01*
X78948477Y-127595465D01*
X78919127Y-127505137D01*
X78885220Y-127400781D01*
X78885218Y-127400778D01*
X78885218Y-127400776D01*
X78851503Y-127334607D01*
X78792287Y-127218390D01*
X78758221Y-127171502D01*
X78671971Y-127052786D01*
X78527213Y-126908028D01*
X78361613Y-126787715D01*
X78361612Y-126787714D01*
X78361610Y-126787713D01*
X78304653Y-126758691D01*
X78179223Y-126694781D01*
X77984534Y-126631522D01*
X77809995Y-126603878D01*
X77782352Y-126599500D01*
X77577648Y-126599500D01*
X77553329Y-126603351D01*
X77375465Y-126631522D01*
X77180776Y-126694781D01*
X76998386Y-126787715D01*
X76832786Y-126908028D01*
X76688032Y-127052782D01*
X76688028Y-127052787D01*
X76613430Y-127155463D01*
X76558100Y-127198129D01*
X76488487Y-127204108D01*
X76426692Y-127171502D01*
X76392334Y-127110664D01*
X76389822Y-127095831D01*
X76384091Y-127042516D01*
X76333797Y-126907671D01*
X76333793Y-126907664D01*
X76247547Y-126792455D01*
X76247544Y-126792452D01*
X76132335Y-126706206D01*
X76132328Y-126706202D01*
X75997482Y-126655908D01*
X75997483Y-126655908D01*
X75937883Y-126649501D01*
X75937881Y-126649500D01*
X75937873Y-126649500D01*
X75937864Y-126649500D01*
X74342129Y-126649500D01*
X74342123Y-126649501D01*
X74282516Y-126655908D01*
X74147671Y-126706202D01*
X74147664Y-126706206D01*
X74032455Y-126792452D01*
X74032452Y-126792455D01*
X73946206Y-126907664D01*
X73946202Y-126907671D01*
X73895908Y-127042516D01*
X73890176Y-127095834D01*
X73863438Y-127160385D01*
X73806045Y-127200233D01*
X73736220Y-127202726D01*
X73676131Y-127167073D01*
X73666569Y-127155463D01*
X73591971Y-127052786D01*
X73447213Y-126908028D01*
X73281613Y-126787715D01*
X73281612Y-126787714D01*
X73281610Y-126787713D01*
X73224653Y-126758691D01*
X73099223Y-126694781D01*
X72904534Y-126631522D01*
X72729995Y-126603878D01*
X72702352Y-126599500D01*
X72497648Y-126599500D01*
X72473329Y-126603351D01*
X72295465Y-126631522D01*
X72100776Y-126694781D01*
X71918386Y-126787715D01*
X71752786Y-126908028D01*
X71608028Y-127052786D01*
X71487715Y-127218386D01*
X71394781Y-127400776D01*
X71331522Y-127595465D01*
X71299500Y-127797648D01*
X51470703Y-127797648D01*
X51430608Y-127728200D01*
X51391927Y-127661201D01*
X51391925Y-127661197D01*
X51262413Y-127492417D01*
X51232282Y-127453149D01*
X51232281Y-127453148D01*
X51232274Y-127453140D01*
X51046860Y-127267726D01*
X51046851Y-127267718D01*
X50838803Y-127108075D01*
X50611700Y-126976958D01*
X50611690Y-126976953D01*
X50369428Y-126876605D01*
X50369421Y-126876603D01*
X50369419Y-126876602D01*
X50116116Y-126808730D01*
X50058339Y-126801123D01*
X49856127Y-126774500D01*
X49856120Y-126774500D01*
X49593880Y-126774500D01*
X49593872Y-126774500D01*
X49362772Y-126804926D01*
X49333884Y-126808730D01*
X49080581Y-126876602D01*
X49080571Y-126876605D01*
X48838309Y-126976953D01*
X48838299Y-126976958D01*
X48611196Y-127108075D01*
X48403148Y-127267718D01*
X48217718Y-127453148D01*
X48058075Y-127661196D01*
X47926958Y-127888299D01*
X47926953Y-127888309D01*
X47826605Y-128130571D01*
X47826602Y-128130581D01*
X47772128Y-128333884D01*
X47758730Y-128383885D01*
X47724500Y-128643872D01*
X45407334Y-128643872D01*
X45402181Y-128609017D01*
X45400848Y-128590882D01*
X45400848Y-125490199D01*
X103165500Y-125490199D01*
X103165500Y-125679800D01*
X103194247Y-125861306D01*
X103195158Y-125867055D01*
X103234750Y-125988905D01*
X103253747Y-126047372D01*
X103339682Y-126216027D01*
X103339819Y-126216296D01*
X103451259Y-126369679D01*
X103585321Y-126503741D01*
X103738704Y-126615181D01*
X103806059Y-126649500D01*
X103907627Y-126701252D01*
X103907629Y-126701252D01*
X103907632Y-126701254D01*
X104087945Y-126759842D01*
X104180495Y-126774500D01*
X104275200Y-126789500D01*
X104275204Y-126789500D01*
X104464800Y-126789500D01*
X104559505Y-126774500D01*
X104652055Y-126759842D01*
X104832368Y-126701254D01*
X105001296Y-126615181D01*
X105154679Y-126503741D01*
X105288741Y-126369679D01*
X105289677Y-126368389D01*
X105290158Y-126368018D01*
X105291905Y-126365974D01*
X105292334Y-126366340D01*
X105345003Y-126325720D01*
X105414616Y-126319736D01*
X105476413Y-126352337D01*
X105490319Y-126368385D01*
X105491259Y-126369679D01*
X105625321Y-126503741D01*
X105778704Y-126615181D01*
X105846059Y-126649500D01*
X105947627Y-126701252D01*
X105947629Y-126701252D01*
X105947632Y-126701254D01*
X106127945Y-126759842D01*
X106220495Y-126774500D01*
X106315200Y-126789500D01*
X106315204Y-126789500D01*
X106504800Y-126789500D01*
X106599505Y-126774500D01*
X106692055Y-126759842D01*
X106872368Y-126701254D01*
X107041296Y-126615181D01*
X107194679Y-126503741D01*
X107328741Y-126369679D01*
X107384858Y-126292440D01*
X107388590Y-126288184D01*
X107401373Y-126280072D01*
X108007861Y-125673584D01*
X108030667Y-125758694D01*
X108089910Y-125861306D01*
X108173694Y-125945090D01*
X108276306Y-126004333D01*
X108361414Y-126027137D01*
X107792806Y-126595745D01*
X107792806Y-126595746D01*
X107818966Y-126614752D01*
X107987821Y-126700789D01*
X108168062Y-126759354D01*
X108355238Y-126789000D01*
X108544762Y-126789000D01*
X108731937Y-126759354D01*
X108912182Y-126700788D01*
X108912184Y-126700787D01*
X109081027Y-126614756D01*
X109081043Y-126614746D01*
X109107192Y-126595746D01*
X109107193Y-126595745D01*
X108538585Y-126027137D01*
X108623694Y-126004333D01*
X108726306Y-125945090D01*
X108810090Y-125861306D01*
X108869333Y-125758694D01*
X108892137Y-125673585D01*
X109460745Y-126242193D01*
X109460746Y-126242192D01*
X109479746Y-126216043D01*
X109479756Y-126216027D01*
X109565787Y-126047184D01*
X109565788Y-126047182D01*
X109624354Y-125866937D01*
X109654000Y-125679762D01*
X109654000Y-125490237D01*
X109624354Y-125303062D01*
X109565789Y-125122821D01*
X109479752Y-124953966D01*
X109460745Y-124927806D01*
X108892137Y-125496414D01*
X108869333Y-125411306D01*
X108810090Y-125308694D01*
X108726306Y-125224910D01*
X108623694Y-125165667D01*
X108538584Y-125142861D01*
X109107193Y-124574253D01*
X109081033Y-124555246D01*
X109054764Y-124541862D01*
X108912178Y-124469210D01*
X108814476Y-124437464D01*
X113525507Y-124437464D01*
X113525507Y-124595157D01*
X113556268Y-124749800D01*
X113556271Y-124749812D01*
X113616609Y-124895483D01*
X113616616Y-124895496D01*
X113704217Y-125026599D01*
X113704220Y-125026603D01*
X113815714Y-125138097D01*
X113815718Y-125138100D01*
X113946821Y-125225701D01*
X113946834Y-125225708D01*
X114092505Y-125286046D01*
X114092510Y-125286048D01*
X114247160Y-125316810D01*
X114247163Y-125316811D01*
X114247165Y-125316811D01*
X114404851Y-125316811D01*
X114404852Y-125316810D01*
X114559504Y-125286048D01*
X114705186Y-125225705D01*
X114836296Y-125138100D01*
X114947796Y-125026600D01*
X115035401Y-124895490D01*
X115035991Y-124894067D01*
X115073289Y-124804019D01*
X115095744Y-124749808D01*
X115126507Y-124595153D01*
X115126507Y-124437469D01*
X115126507Y-124437466D01*
X115126506Y-124437464D01*
X115121074Y-124410157D01*
X115095744Y-124282814D01*
X115067606Y-124214883D01*
X115531627Y-124214883D01*
X115531627Y-124372576D01*
X115562388Y-124527219D01*
X115562391Y-124527231D01*
X115622729Y-124672902D01*
X115622736Y-124672915D01*
X115710337Y-124804018D01*
X115710340Y-124804022D01*
X115821834Y-124915516D01*
X115821838Y-124915519D01*
X115952941Y-125003120D01*
X115952954Y-125003127D01*
X116098625Y-125063465D01*
X116098630Y-125063467D01*
X116253280Y-125094229D01*
X116253283Y-125094230D01*
X116253285Y-125094230D01*
X116410971Y-125094230D01*
X116410972Y-125094229D01*
X116565624Y-125063467D01*
X116711306Y-125003124D01*
X116842416Y-124915519D01*
X116953916Y-124804019D01*
X117041521Y-124672909D01*
X117044276Y-124666259D01*
X117073727Y-124595157D01*
X117101864Y-124527227D01*
X117132627Y-124372572D01*
X117132627Y-124214888D01*
X117132627Y-124214885D01*
X117132626Y-124214883D01*
X117101865Y-124060240D01*
X117101864Y-124060233D01*
X117079408Y-124006018D01*
X117041524Y-123914557D01*
X117041517Y-123914544D01*
X116953916Y-123783441D01*
X116953913Y-123783437D01*
X116842419Y-123671943D01*
X116842415Y-123671940D01*
X116711312Y-123584339D01*
X116711299Y-123584332D01*
X116565628Y-123523994D01*
X116565616Y-123523991D01*
X116410972Y-123493230D01*
X116410969Y-123493230D01*
X116253285Y-123493230D01*
X116253282Y-123493230D01*
X116098637Y-123523991D01*
X116098625Y-123523994D01*
X115952954Y-123584332D01*
X115952941Y-123584339D01*
X115821838Y-123671940D01*
X115821834Y-123671943D01*
X115710340Y-123783437D01*
X115710337Y-123783441D01*
X115622736Y-123914544D01*
X115622729Y-123914557D01*
X115562391Y-124060228D01*
X115562388Y-124060240D01*
X115531627Y-124214883D01*
X115067606Y-124214883D01*
X115056798Y-124188791D01*
X115035404Y-124137138D01*
X115035397Y-124137125D01*
X114947796Y-124006022D01*
X114947793Y-124006018D01*
X114836299Y-123894524D01*
X114836295Y-123894521D01*
X114705192Y-123806920D01*
X114705179Y-123806913D01*
X114559508Y-123746575D01*
X114559496Y-123746572D01*
X114404852Y-123715811D01*
X114404849Y-123715811D01*
X114247165Y-123715811D01*
X114247162Y-123715811D01*
X114092517Y-123746572D01*
X114092505Y-123746575D01*
X113946834Y-123806913D01*
X113946821Y-123806920D01*
X113815718Y-123894521D01*
X113815714Y-123894524D01*
X113704220Y-124006018D01*
X113704217Y-124006022D01*
X113616616Y-124137125D01*
X113616609Y-124137138D01*
X113556271Y-124282809D01*
X113556268Y-124282821D01*
X113525507Y-124437464D01*
X108814476Y-124437464D01*
X108731937Y-124410645D01*
X108544762Y-124381000D01*
X108355238Y-124381000D01*
X108168062Y-124410645D01*
X107987821Y-124469210D01*
X107818969Y-124555245D01*
X107792806Y-124574253D01*
X108361415Y-125142861D01*
X108276306Y-125165667D01*
X108173694Y-125224910D01*
X108089910Y-125308694D01*
X108030667Y-125411306D01*
X108007861Y-125496414D01*
X107416551Y-124905104D01*
X107415398Y-124904773D01*
X107403996Y-124894067D01*
X107388591Y-124881815D01*
X107384849Y-124877546D01*
X107328741Y-124800321D01*
X107194679Y-124666259D01*
X107041296Y-124554819D01*
X106872372Y-124468747D01*
X106813905Y-124449750D01*
X106692055Y-124410158D01*
X106692051Y-124410157D01*
X106692050Y-124410157D01*
X106504800Y-124380500D01*
X106504796Y-124380500D01*
X106315204Y-124380500D01*
X106315200Y-124380500D01*
X106127949Y-124410157D01*
X106127946Y-124410157D01*
X106127945Y-124410158D01*
X106069482Y-124429153D01*
X105947627Y-124468747D01*
X105778703Y-124554819D01*
X105625319Y-124666260D01*
X105491258Y-124800321D01*
X105490317Y-124801618D01*
X105489832Y-124801991D01*
X105488095Y-124804026D01*
X105487667Y-124803660D01*
X105434987Y-124844283D01*
X105365373Y-124850261D01*
X105303579Y-124817654D01*
X105289683Y-124801618D01*
X105288741Y-124800321D01*
X105154680Y-124666260D01*
X105056810Y-124595153D01*
X105001296Y-124554819D01*
X104832372Y-124468747D01*
X104773905Y-124449750D01*
X104652055Y-124410158D01*
X104652051Y-124410157D01*
X104652050Y-124410157D01*
X104464800Y-124380500D01*
X104464796Y-124380500D01*
X104275204Y-124380500D01*
X104275200Y-124380500D01*
X104087949Y-124410157D01*
X104087946Y-124410157D01*
X104087945Y-124410158D01*
X104029482Y-124429153D01*
X103907627Y-124468747D01*
X103738703Y-124554819D01*
X103585319Y-124666260D01*
X103451260Y-124800319D01*
X103339819Y-124953703D01*
X103253747Y-125122627D01*
X103195157Y-125302949D01*
X103165500Y-125490199D01*
X45400848Y-125490199D01*
X45400848Y-121041831D01*
X114156200Y-121041831D01*
X114156200Y-121199524D01*
X114186961Y-121354167D01*
X114186964Y-121354179D01*
X114247302Y-121499850D01*
X114247309Y-121499863D01*
X114334910Y-121630966D01*
X114334913Y-121630970D01*
X114446407Y-121742464D01*
X114446411Y-121742467D01*
X114577514Y-121830068D01*
X114577527Y-121830075D01*
X114723198Y-121890413D01*
X114723203Y-121890415D01*
X114877853Y-121921177D01*
X114877856Y-121921178D01*
X114877858Y-121921178D01*
X115035544Y-121921178D01*
X115035545Y-121921177D01*
X115190197Y-121890415D01*
X115335879Y-121830072D01*
X115466989Y-121742467D01*
X115578489Y-121630967D01*
X115666094Y-121499857D01*
X115726437Y-121354175D01*
X115757200Y-121199520D01*
X115757200Y-121041836D01*
X115757200Y-121041833D01*
X115757199Y-121041831D01*
X115756687Y-121039253D01*
X115756687Y-121039252D01*
X115753087Y-121021153D01*
X122699500Y-121021153D01*
X122699500Y-121178846D01*
X122730261Y-121333489D01*
X122730264Y-121333501D01*
X122790602Y-121479172D01*
X122790609Y-121479185D01*
X122878210Y-121610288D01*
X122878213Y-121610292D01*
X122989707Y-121721786D01*
X122989711Y-121721789D01*
X123120814Y-121809390D01*
X123120827Y-121809397D01*
X123266498Y-121869735D01*
X123266503Y-121869737D01*
X123370448Y-121890413D01*
X123421153Y-121900499D01*
X123421156Y-121900500D01*
X123421158Y-121900500D01*
X123578844Y-121900500D01*
X123578845Y-121900499D01*
X123733497Y-121869737D01*
X123879179Y-121809394D01*
X124010289Y-121721789D01*
X124121789Y-121610289D01*
X124209394Y-121479179D01*
X124269737Y-121333497D01*
X124300500Y-121178842D01*
X124300500Y-121021158D01*
X124300500Y-121021155D01*
X124300499Y-121021153D01*
X124699500Y-121021153D01*
X124699500Y-121178846D01*
X124730261Y-121333489D01*
X124730264Y-121333501D01*
X124790602Y-121479172D01*
X124790609Y-121479185D01*
X124878210Y-121610288D01*
X124878213Y-121610292D01*
X124989707Y-121721786D01*
X124989711Y-121721789D01*
X125120814Y-121809390D01*
X125120827Y-121809397D01*
X125266498Y-121869735D01*
X125266503Y-121869737D01*
X125370448Y-121890413D01*
X125421153Y-121900499D01*
X125421156Y-121900500D01*
X125421158Y-121900500D01*
X125578844Y-121900500D01*
X125578845Y-121900499D01*
X125733497Y-121869737D01*
X125879179Y-121809394D01*
X126010289Y-121721789D01*
X126121789Y-121610289D01*
X126209394Y-121479179D01*
X126269737Y-121333497D01*
X126300500Y-121178842D01*
X126300500Y-121021158D01*
X126300500Y-121021155D01*
X126300499Y-121021153D01*
X126699500Y-121021153D01*
X126699500Y-121178846D01*
X126730261Y-121333489D01*
X126730264Y-121333501D01*
X126790602Y-121479172D01*
X126790609Y-121479185D01*
X126878210Y-121610288D01*
X126878213Y-121610292D01*
X126989707Y-121721786D01*
X126989711Y-121721789D01*
X127120814Y-121809390D01*
X127120827Y-121809397D01*
X127266498Y-121869735D01*
X127266503Y-121869737D01*
X127370448Y-121890413D01*
X127421153Y-121900499D01*
X127421156Y-121900500D01*
X127421158Y-121900500D01*
X127578844Y-121900500D01*
X127578845Y-121900499D01*
X127733497Y-121869737D01*
X127879179Y-121809394D01*
X128010289Y-121721789D01*
X128121789Y-121610289D01*
X128209394Y-121479179D01*
X128269737Y-121333497D01*
X128300500Y-121178842D01*
X128300500Y-121021158D01*
X128300500Y-121021155D01*
X128300499Y-121021153D01*
X128269737Y-120866503D01*
X128217959Y-120741499D01*
X128209397Y-120720827D01*
X128209390Y-120720814D01*
X128121789Y-120589711D01*
X128121786Y-120589707D01*
X128010292Y-120478213D01*
X128010288Y-120478210D01*
X127879185Y-120390609D01*
X127879172Y-120390602D01*
X127733501Y-120330264D01*
X127733489Y-120330261D01*
X127578845Y-120299500D01*
X127578842Y-120299500D01*
X127421158Y-120299500D01*
X127421155Y-120299500D01*
X127266510Y-120330261D01*
X127266498Y-120330264D01*
X127120827Y-120390602D01*
X127120814Y-120390609D01*
X126989711Y-120478210D01*
X126989707Y-120478213D01*
X126878213Y-120589707D01*
X126878210Y-120589711D01*
X126790609Y-120720814D01*
X126790602Y-120720827D01*
X126730264Y-120866498D01*
X126730261Y-120866510D01*
X126699500Y-121021153D01*
X126300499Y-121021153D01*
X126269737Y-120866503D01*
X126217959Y-120741499D01*
X126209397Y-120720827D01*
X126209390Y-120720814D01*
X126121789Y-120589711D01*
X126121786Y-120589707D01*
X126010292Y-120478213D01*
X126010288Y-120478210D01*
X125879185Y-120390609D01*
X125879172Y-120390602D01*
X125733501Y-120330264D01*
X125733489Y-120330261D01*
X125578845Y-120299500D01*
X125578842Y-120299500D01*
X125421158Y-120299500D01*
X125421155Y-120299500D01*
X125266510Y-120330261D01*
X125266498Y-120330264D01*
X125120827Y-120390602D01*
X125120814Y-120390609D01*
X124989711Y-120478210D01*
X124989707Y-120478213D01*
X124878213Y-120589707D01*
X124878210Y-120589711D01*
X124790609Y-120720814D01*
X124790602Y-120720827D01*
X124730264Y-120866498D01*
X124730261Y-120866510D01*
X124699500Y-121021153D01*
X124300499Y-121021153D01*
X124269737Y-120866503D01*
X124217959Y-120741499D01*
X124209397Y-120720827D01*
X124209390Y-120720814D01*
X124121789Y-120589711D01*
X124121786Y-120589707D01*
X124010292Y-120478213D01*
X124010288Y-120478210D01*
X123879185Y-120390609D01*
X123879172Y-120390602D01*
X123733501Y-120330264D01*
X123733489Y-120330261D01*
X123578845Y-120299500D01*
X123578842Y-120299500D01*
X123421158Y-120299500D01*
X123421155Y-120299500D01*
X123266510Y-120330261D01*
X123266498Y-120330264D01*
X123120827Y-120390602D01*
X123120814Y-120390609D01*
X122989711Y-120478210D01*
X122989707Y-120478213D01*
X122878213Y-120589707D01*
X122878210Y-120589711D01*
X122790609Y-120720814D01*
X122790602Y-120720827D01*
X122730264Y-120866498D01*
X122730261Y-120866510D01*
X122699500Y-121021153D01*
X115753087Y-121021153D01*
X115726438Y-120887186D01*
X115726437Y-120887185D01*
X115726437Y-120887181D01*
X115717870Y-120866498D01*
X115666097Y-120741505D01*
X115666090Y-120741492D01*
X115578489Y-120610389D01*
X115578486Y-120610385D01*
X115466992Y-120498891D01*
X115466988Y-120498888D01*
X115335885Y-120411287D01*
X115335872Y-120411280D01*
X115190201Y-120350942D01*
X115190189Y-120350939D01*
X115035545Y-120320178D01*
X115035542Y-120320178D01*
X114877858Y-120320178D01*
X114877855Y-120320178D01*
X114723210Y-120350939D01*
X114723198Y-120350942D01*
X114577527Y-120411280D01*
X114577514Y-120411287D01*
X114446411Y-120498888D01*
X114446407Y-120498891D01*
X114334913Y-120610385D01*
X114334910Y-120610389D01*
X114247309Y-120741492D01*
X114247302Y-120741505D01*
X114186964Y-120887176D01*
X114186961Y-120887188D01*
X114156200Y-121041831D01*
X45400848Y-121041831D01*
X45400848Y-116227753D01*
X100682100Y-116227753D01*
X100682100Y-116385446D01*
X100712861Y-116540089D01*
X100712864Y-116540101D01*
X100773202Y-116685772D01*
X100773209Y-116685785D01*
X100860810Y-116816888D01*
X100860813Y-116816892D01*
X100972307Y-116928386D01*
X100972311Y-116928389D01*
X101088479Y-117006011D01*
X101133284Y-117059623D01*
X101141991Y-117128948D01*
X101111836Y-117191976D01*
X101088479Y-117212215D01*
X100989711Y-117278210D01*
X100989707Y-117278213D01*
X100878213Y-117389707D01*
X100878210Y-117389711D01*
X100790609Y-117520814D01*
X100790602Y-117520827D01*
X100730264Y-117666498D01*
X100730261Y-117666510D01*
X100699500Y-117821153D01*
X100699500Y-117978846D01*
X100730261Y-118133489D01*
X100730264Y-118133501D01*
X100790602Y-118279172D01*
X100790609Y-118279185D01*
X100878210Y-118410288D01*
X100878213Y-118410292D01*
X100989707Y-118521786D01*
X100989711Y-118521789D01*
X101120814Y-118609390D01*
X101120827Y-118609397D01*
X101266498Y-118669735D01*
X101266503Y-118669737D01*
X101397319Y-118695758D01*
X101421153Y-118700499D01*
X101421156Y-118700500D01*
X101421158Y-118700500D01*
X101578844Y-118700500D01*
X101578845Y-118700499D01*
X101733497Y-118669737D01*
X101879179Y-118609394D01*
X102010289Y-118521789D01*
X102121789Y-118410289D01*
X102209394Y-118279179D01*
X102215553Y-118264311D01*
X102223067Y-118246166D01*
X102269737Y-118133497D01*
X102300500Y-117978842D01*
X102300500Y-117821158D01*
X102300500Y-117821155D01*
X102300499Y-117821153D01*
X102295494Y-117795992D01*
X102269737Y-117666503D01*
X102261490Y-117646592D01*
X102209397Y-117520827D01*
X102209390Y-117520814D01*
X102121789Y-117389711D01*
X102121786Y-117389707D01*
X102010292Y-117278213D01*
X102010288Y-117278210D01*
X101894120Y-117200588D01*
X101873078Y-117175410D01*
X101851154Y-117151002D01*
X101850786Y-117148736D01*
X101849315Y-117146975D01*
X101845226Y-117114419D01*
X101839978Y-117082032D01*
X101840894Y-117079927D01*
X101840608Y-117077650D01*
X101850271Y-117057453D01*
X102669400Y-117057453D01*
X102669400Y-117215146D01*
X102700161Y-117369789D01*
X102700164Y-117369801D01*
X102760502Y-117515472D01*
X102760509Y-117515485D01*
X102848110Y-117646588D01*
X102848113Y-117646592D01*
X102959607Y-117758086D01*
X102959611Y-117758089D01*
X103090719Y-117845693D01*
X103091463Y-117846091D01*
X103091779Y-117846402D01*
X103095786Y-117849079D01*
X103095278Y-117849838D01*
X103141308Y-117895053D01*
X103156769Y-117963191D01*
X103132938Y-118028871D01*
X103095465Y-118061341D01*
X103095786Y-118061821D01*
X103091964Y-118064374D01*
X103091463Y-118064809D01*
X103090719Y-118065206D01*
X102959611Y-118152810D01*
X102959607Y-118152813D01*
X102848113Y-118264307D01*
X102848110Y-118264311D01*
X102760509Y-118395414D01*
X102760502Y-118395427D01*
X102700164Y-118541098D01*
X102700161Y-118541110D01*
X102669400Y-118695753D01*
X102669400Y-118853446D01*
X102700161Y-119008089D01*
X102700164Y-119008101D01*
X102760502Y-119153772D01*
X102760509Y-119153785D01*
X102848110Y-119284888D01*
X102848113Y-119284892D01*
X102959607Y-119396386D01*
X102959611Y-119396389D01*
X103090714Y-119483990D01*
X103090727Y-119483997D01*
X103236398Y-119544335D01*
X103236403Y-119544337D01*
X103391053Y-119575099D01*
X103391056Y-119575100D01*
X103391058Y-119575100D01*
X103548744Y-119575100D01*
X103548745Y-119575099D01*
X103703397Y-119544337D01*
X103849079Y-119483994D01*
X103980189Y-119396389D01*
X104091689Y-119284889D01*
X104179294Y-119153779D01*
X104239637Y-119008097D01*
X104270400Y-118853442D01*
X104270400Y-118695758D01*
X104270400Y-118695755D01*
X104270399Y-118695753D01*
X104254385Y-118615246D01*
X104239637Y-118541103D01*
X104205030Y-118457553D01*
X114156200Y-118457553D01*
X114156200Y-118615246D01*
X114186961Y-118769889D01*
X114186964Y-118769901D01*
X114247302Y-118915572D01*
X114247309Y-118915585D01*
X114334910Y-119046688D01*
X114334913Y-119046692D01*
X114446407Y-119158186D01*
X114446411Y-119158189D01*
X114577514Y-119245790D01*
X114577527Y-119245797D01*
X114723198Y-119306135D01*
X114723203Y-119306137D01*
X114877853Y-119336899D01*
X114877856Y-119336900D01*
X114877858Y-119336900D01*
X115035544Y-119336900D01*
X115035545Y-119336899D01*
X115190197Y-119306137D01*
X115335879Y-119245794D01*
X115466989Y-119158189D01*
X115578489Y-119046689D01*
X115666094Y-118915579D01*
X115726437Y-118769897D01*
X115757200Y-118615242D01*
X115757200Y-118457558D01*
X115757200Y-118457555D01*
X115757199Y-118457553D01*
X115747798Y-118410292D01*
X115726437Y-118302903D01*
X115666511Y-118158227D01*
X115659042Y-118088758D01*
X115690317Y-118026279D01*
X115750406Y-117990627D01*
X115820232Y-117993121D01*
X115828524Y-117996214D01*
X115971498Y-118055435D01*
X115971503Y-118055437D01*
X116126153Y-118086199D01*
X116126156Y-118086200D01*
X116126158Y-118086200D01*
X116283844Y-118086200D01*
X116283845Y-118086199D01*
X116438497Y-118055437D01*
X116584179Y-117995094D01*
X116715289Y-117907489D01*
X116826789Y-117795989D01*
X116914394Y-117664879D01*
X116974737Y-117519197D01*
X117005500Y-117364542D01*
X117005500Y-117206858D01*
X117005500Y-117206855D01*
X117005499Y-117206853D01*
X117002267Y-117190606D01*
X116974737Y-117052203D01*
X116923452Y-116928389D01*
X116914397Y-116906527D01*
X116914390Y-116906514D01*
X116826789Y-116775411D01*
X116826786Y-116775407D01*
X116715292Y-116663913D01*
X116715288Y-116663910D01*
X116584185Y-116576309D01*
X116584172Y-116576302D01*
X116438501Y-116515964D01*
X116438489Y-116515961D01*
X116283845Y-116485200D01*
X116283842Y-116485200D01*
X116126158Y-116485200D01*
X116126155Y-116485200D01*
X115971510Y-116515961D01*
X115971498Y-116515964D01*
X115825827Y-116576302D01*
X115825814Y-116576309D01*
X115694711Y-116663910D01*
X115694707Y-116663913D01*
X115583213Y-116775407D01*
X115583210Y-116775411D01*
X115495609Y-116906514D01*
X115495602Y-116906527D01*
X115435264Y-117052198D01*
X115435261Y-117052210D01*
X115404500Y-117206853D01*
X115404500Y-117364546D01*
X115435261Y-117519189D01*
X115435264Y-117519201D01*
X115495188Y-117663872D01*
X115502657Y-117733341D01*
X115471381Y-117795820D01*
X115411292Y-117831472D01*
X115341467Y-117828978D01*
X115333175Y-117825885D01*
X115190201Y-117766664D01*
X115190189Y-117766661D01*
X115035545Y-117735900D01*
X115035542Y-117735900D01*
X114877858Y-117735900D01*
X114877855Y-117735900D01*
X114723210Y-117766661D01*
X114723198Y-117766664D01*
X114577527Y-117827002D01*
X114577514Y-117827009D01*
X114446411Y-117914610D01*
X114446407Y-117914613D01*
X114334913Y-118026107D01*
X114334910Y-118026111D01*
X114247309Y-118157214D01*
X114247302Y-118157227D01*
X114186964Y-118302898D01*
X114186961Y-118302910D01*
X114156200Y-118457553D01*
X104205030Y-118457553D01*
X104185454Y-118410292D01*
X104179297Y-118395427D01*
X104179290Y-118395414D01*
X104091689Y-118264311D01*
X104091686Y-118264307D01*
X103980192Y-118152813D01*
X103980188Y-118152810D01*
X103849086Y-118065210D01*
X103848343Y-118064813D01*
X103848026Y-118064501D01*
X103844014Y-118061821D01*
X103844522Y-118061060D01*
X103798495Y-118015854D01*
X103783029Y-117947718D01*
X103806856Y-117882036D01*
X103844335Y-117849559D01*
X103844014Y-117849079D01*
X103847841Y-117846521D01*
X103848343Y-117846087D01*
X103849068Y-117845698D01*
X103849079Y-117845694D01*
X103980189Y-117758089D01*
X104091689Y-117646589D01*
X104179294Y-117515479D01*
X104239637Y-117369797D01*
X104270400Y-117215142D01*
X104270400Y-117057458D01*
X104270400Y-117057455D01*
X104270399Y-117057453D01*
X104262138Y-117015924D01*
X104239637Y-116902803D01*
X104186870Y-116775411D01*
X104179297Y-116757127D01*
X104179290Y-116757114D01*
X104091689Y-116626011D01*
X104091686Y-116626007D01*
X103980192Y-116514513D01*
X103980188Y-116514510D01*
X103871804Y-116442089D01*
X103826999Y-116388476D01*
X103818292Y-116319151D01*
X103848447Y-116256124D01*
X103879160Y-116232048D01*
X103879114Y-116231979D01*
X103880027Y-116231368D01*
X103882257Y-116229621D01*
X103884171Y-116228596D01*
X103884179Y-116228594D01*
X104015289Y-116140989D01*
X104126789Y-116029489D01*
X104214394Y-115898379D01*
X104274737Y-115752697D01*
X104305500Y-115598042D01*
X104305500Y-115440358D01*
X104305500Y-115440355D01*
X104305499Y-115440353D01*
X104274738Y-115285710D01*
X104274737Y-115285703D01*
X104258928Y-115247537D01*
X104214397Y-115140027D01*
X104214390Y-115140014D01*
X104126789Y-115008911D01*
X104126786Y-115008907D01*
X104015292Y-114897413D01*
X104015288Y-114897410D01*
X103884185Y-114809809D01*
X103884172Y-114809802D01*
X103738501Y-114749464D01*
X103738489Y-114749461D01*
X103583845Y-114718700D01*
X103583842Y-114718700D01*
X103426158Y-114718700D01*
X103426155Y-114718700D01*
X103271510Y-114749461D01*
X103271498Y-114749464D01*
X103125827Y-114809802D01*
X103125814Y-114809809D01*
X102994711Y-114897410D01*
X102994707Y-114897413D01*
X102883213Y-115008907D01*
X102883210Y-115008911D01*
X102795609Y-115140014D01*
X102795602Y-115140027D01*
X102735264Y-115285698D01*
X102735261Y-115285710D01*
X102704500Y-115440353D01*
X102704500Y-115598046D01*
X102735261Y-115752689D01*
X102735264Y-115752701D01*
X102795602Y-115898372D01*
X102795609Y-115898385D01*
X102883210Y-116029488D01*
X102883213Y-116029492D01*
X102994707Y-116140986D01*
X102994711Y-116140989D01*
X103103095Y-116213410D01*
X103147900Y-116267023D01*
X103156607Y-116336348D01*
X103126452Y-116399375D01*
X103095740Y-116423453D01*
X103095786Y-116423521D01*
X103094897Y-116424114D01*
X103092660Y-116425869D01*
X103090719Y-116426906D01*
X102959611Y-116514510D01*
X102959607Y-116514513D01*
X102848113Y-116626007D01*
X102848110Y-116626011D01*
X102760509Y-116757114D01*
X102760502Y-116757127D01*
X102700164Y-116902798D01*
X102700161Y-116902810D01*
X102669400Y-117057453D01*
X101850271Y-117057453D01*
X101854770Y-117048049D01*
X101867864Y-117017969D01*
X101870140Y-117015924D01*
X101870763Y-117014623D01*
X101894121Y-116994384D01*
X101963140Y-116948267D01*
X101963145Y-116948263D01*
X101992889Y-116928389D01*
X102104389Y-116816889D01*
X102191994Y-116685779D01*
X102252337Y-116540097D01*
X102283100Y-116385442D01*
X102283100Y-116227758D01*
X102283100Y-116227755D01*
X102283099Y-116227753D01*
X102252338Y-116073110D01*
X102252337Y-116073103D01*
X102234271Y-116029488D01*
X102191997Y-115927427D01*
X102191990Y-115927414D01*
X102104389Y-115796311D01*
X102104386Y-115796307D01*
X101992892Y-115684813D01*
X101992888Y-115684810D01*
X101861785Y-115597209D01*
X101861772Y-115597202D01*
X101716101Y-115536864D01*
X101716089Y-115536861D01*
X101561445Y-115506100D01*
X101561442Y-115506100D01*
X101403758Y-115506100D01*
X101403755Y-115506100D01*
X101249110Y-115536861D01*
X101249098Y-115536864D01*
X101103427Y-115597202D01*
X101103414Y-115597209D01*
X100972311Y-115684810D01*
X100972307Y-115684813D01*
X100860813Y-115796307D01*
X100860810Y-115796311D01*
X100773209Y-115927414D01*
X100773202Y-115927427D01*
X100712864Y-116073098D01*
X100712861Y-116073110D01*
X100682100Y-116227753D01*
X45400848Y-116227753D01*
X45400848Y-114398953D01*
X99834300Y-114398953D01*
X99834300Y-114556646D01*
X99865061Y-114711289D01*
X99865064Y-114711301D01*
X99925402Y-114856972D01*
X99925409Y-114856985D01*
X100013010Y-114988088D01*
X100013013Y-114988092D01*
X100124507Y-115099586D01*
X100124511Y-115099589D01*
X100255614Y-115187190D01*
X100255627Y-115187197D01*
X100401298Y-115247535D01*
X100401303Y-115247537D01*
X100555953Y-115278299D01*
X100555956Y-115278300D01*
X100555958Y-115278300D01*
X100713644Y-115278300D01*
X100713645Y-115278299D01*
X100868297Y-115247537D01*
X101013979Y-115187194D01*
X101145089Y-115099589D01*
X101256589Y-114988089D01*
X101344194Y-114856979D01*
X101404537Y-114711297D01*
X101435300Y-114556642D01*
X101435300Y-114398958D01*
X101435300Y-114398955D01*
X101435299Y-114398953D01*
X101404538Y-114244310D01*
X101404537Y-114244303D01*
X101404535Y-114244298D01*
X101344197Y-114098627D01*
X101344190Y-114098614D01*
X101256589Y-113967511D01*
X101256586Y-113967507D01*
X101145092Y-113856013D01*
X101145088Y-113856010D01*
X101013985Y-113768409D01*
X101013972Y-113768402D01*
X100868301Y-113708064D01*
X100868289Y-113708061D01*
X100713645Y-113677300D01*
X100713642Y-113677300D01*
X100555958Y-113677300D01*
X100555955Y-113677300D01*
X100401310Y-113708061D01*
X100401298Y-113708064D01*
X100255627Y-113768402D01*
X100255614Y-113768409D01*
X100124511Y-113856010D01*
X100124507Y-113856013D01*
X100013013Y-113967507D01*
X100013010Y-113967511D01*
X99925409Y-114098614D01*
X99925402Y-114098627D01*
X99865064Y-114244298D01*
X99865061Y-114244310D01*
X99834300Y-114398953D01*
X45400848Y-114398953D01*
X45400848Y-112458953D01*
X111823447Y-112458953D01*
X111823447Y-112616646D01*
X111854208Y-112771289D01*
X111854211Y-112771301D01*
X111914549Y-112916972D01*
X111914556Y-112916985D01*
X112002157Y-113048088D01*
X112002160Y-113048092D01*
X112113654Y-113159586D01*
X112113658Y-113159589D01*
X112244761Y-113247190D01*
X112244774Y-113247197D01*
X112390445Y-113307535D01*
X112390450Y-113307537D01*
X112545100Y-113338299D01*
X112545103Y-113338300D01*
X112545105Y-113338300D01*
X112702791Y-113338300D01*
X112702792Y-113338299D01*
X112857444Y-113307537D01*
X113003126Y-113247194D01*
X113134236Y-113159589D01*
X113245736Y-113048089D01*
X113333341Y-112916979D01*
X113393684Y-112771297D01*
X113424447Y-112616642D01*
X113424447Y-112458958D01*
X113424447Y-112458955D01*
X113424446Y-112458953D01*
X113393685Y-112304310D01*
X113393684Y-112304303D01*
X113393682Y-112304298D01*
X113333344Y-112158627D01*
X113333337Y-112158614D01*
X113245736Y-112027511D01*
X113245733Y-112027507D01*
X113134239Y-111916013D01*
X113134235Y-111916010D01*
X113003132Y-111828409D01*
X113003119Y-111828402D01*
X112857448Y-111768064D01*
X112857436Y-111768061D01*
X112702792Y-111737300D01*
X112702789Y-111737300D01*
X112545105Y-111737300D01*
X112545102Y-111737300D01*
X112390457Y-111768061D01*
X112390445Y-111768064D01*
X112244774Y-111828402D01*
X112244761Y-111828409D01*
X112113658Y-111916010D01*
X112113654Y-111916013D01*
X112002160Y-112027507D01*
X112002157Y-112027511D01*
X111914556Y-112158614D01*
X111914549Y-112158627D01*
X111854211Y-112304298D01*
X111854208Y-112304310D01*
X111823447Y-112458953D01*
X45400848Y-112458953D01*
X45400848Y-107321153D01*
X102049500Y-107321153D01*
X102049500Y-107478846D01*
X102080261Y-107633489D01*
X102080264Y-107633501D01*
X102140602Y-107779172D01*
X102140609Y-107779185D01*
X102228210Y-107910288D01*
X102228213Y-107910292D01*
X102339707Y-108021786D01*
X102339711Y-108021789D01*
X102470814Y-108109390D01*
X102470827Y-108109397D01*
X102616498Y-108169735D01*
X102616503Y-108169737D01*
X102771153Y-108200499D01*
X102771156Y-108200500D01*
X102771158Y-108200500D01*
X102928844Y-108200500D01*
X102928845Y-108200499D01*
X103083497Y-108169737D01*
X103229179Y-108109394D01*
X103360289Y-108021789D01*
X103471789Y-107910289D01*
X103559394Y-107779179D01*
X103619737Y-107633497D01*
X103650500Y-107478842D01*
X103650500Y-107321158D01*
X103650500Y-107321155D01*
X103650499Y-107321153D01*
X103619738Y-107166510D01*
X103619737Y-107166503D01*
X103619735Y-107166498D01*
X103559397Y-107020827D01*
X103559390Y-107020814D01*
X103471789Y-106889711D01*
X103471786Y-106889707D01*
X103360292Y-106778213D01*
X103360288Y-106778210D01*
X103229185Y-106690609D01*
X103229172Y-106690602D01*
X103083501Y-106630264D01*
X103083489Y-106630261D01*
X102928845Y-106599500D01*
X102928842Y-106599500D01*
X102771158Y-106599500D01*
X102771155Y-106599500D01*
X102616510Y-106630261D01*
X102616498Y-106630264D01*
X102470827Y-106690602D01*
X102470814Y-106690609D01*
X102339711Y-106778210D01*
X102339707Y-106778213D01*
X102228213Y-106889707D01*
X102228210Y-106889711D01*
X102140609Y-107020814D01*
X102140602Y-107020827D01*
X102080264Y-107166498D01*
X102080261Y-107166510D01*
X102049500Y-107321153D01*
X45400848Y-107321153D01*
X45400848Y-102421153D01*
X48899500Y-102421153D01*
X48899500Y-102578846D01*
X48930261Y-102733489D01*
X48930264Y-102733501D01*
X48990604Y-102879177D01*
X48990605Y-102879179D01*
X48991899Y-102881115D01*
X48992264Y-102882282D01*
X48993476Y-102884549D01*
X48993045Y-102884778D01*
X49012773Y-102947794D01*
X48994285Y-103015173D01*
X48991899Y-103018885D01*
X48990605Y-103020820D01*
X48990604Y-103020822D01*
X48930264Y-103166498D01*
X48930261Y-103166510D01*
X48899500Y-103321153D01*
X48899500Y-103478846D01*
X48930261Y-103633489D01*
X48930264Y-103633501D01*
X48990604Y-103779177D01*
X48990605Y-103779179D01*
X48991899Y-103781115D01*
X48992264Y-103782282D01*
X48993476Y-103784549D01*
X48993045Y-103784778D01*
X49012773Y-103847794D01*
X48994285Y-103915173D01*
X48991899Y-103918885D01*
X48990605Y-103920820D01*
X48990604Y-103920822D01*
X48930264Y-104066498D01*
X48930261Y-104066510D01*
X48899500Y-104221153D01*
X48899500Y-104378846D01*
X48930261Y-104533489D01*
X48930264Y-104533501D01*
X48990602Y-104679172D01*
X48990609Y-104679185D01*
X49078210Y-104810288D01*
X49078213Y-104810292D01*
X49189707Y-104921786D01*
X49189711Y-104921789D01*
X49320814Y-105009390D01*
X49320827Y-105009397D01*
X49466498Y-105069735D01*
X49466503Y-105069737D01*
X49621153Y-105100499D01*
X49621156Y-105100500D01*
X49621158Y-105100500D01*
X49778844Y-105100500D01*
X49778845Y-105100499D01*
X49933497Y-105069737D01*
X50079179Y-105009394D01*
X50210289Y-104921789D01*
X50212312Y-104919766D01*
X50213634Y-104919043D01*
X50214999Y-104917924D01*
X50215211Y-104918182D01*
X50273632Y-104886276D01*
X50343324Y-104891255D01*
X50384939Y-104917999D01*
X50385001Y-104917924D01*
X50385648Y-104918454D01*
X50387688Y-104919766D01*
X50389711Y-104921789D01*
X50520814Y-105009390D01*
X50520827Y-105009397D01*
X50666498Y-105069735D01*
X50666503Y-105069737D01*
X50821153Y-105100499D01*
X50821156Y-105100500D01*
X50821158Y-105100500D01*
X50978844Y-105100500D01*
X50978845Y-105100499D01*
X51133497Y-105069737D01*
X51279179Y-105009394D01*
X51410289Y-104921789D01*
X51521789Y-104810289D01*
X51609394Y-104679179D01*
X51669737Y-104533497D01*
X51700500Y-104378842D01*
X51700500Y-104221158D01*
X51700500Y-104221155D01*
X51700499Y-104221153D01*
X51684209Y-104139257D01*
X51669737Y-104066503D01*
X51643457Y-104003057D01*
X51609397Y-103920827D01*
X51609394Y-103920822D01*
X51609394Y-103920821D01*
X51608103Y-103918889D01*
X51607737Y-103917723D01*
X51606525Y-103915454D01*
X51606955Y-103915223D01*
X51587226Y-103852214D01*
X51605710Y-103784834D01*
X51608100Y-103781115D01*
X51609394Y-103779179D01*
X51612340Y-103772068D01*
X51638570Y-103708741D01*
X51669737Y-103633497D01*
X51700500Y-103478842D01*
X51700500Y-103321158D01*
X51700500Y-103321155D01*
X51700499Y-103321153D01*
X51669738Y-103166510D01*
X51669737Y-103166503D01*
X51633427Y-103078842D01*
X51609397Y-103020827D01*
X51609394Y-103020822D01*
X51609394Y-103020821D01*
X51608103Y-103018889D01*
X51607737Y-103017723D01*
X51606525Y-103015454D01*
X51606955Y-103015223D01*
X51587226Y-102952214D01*
X51605710Y-102884834D01*
X51608100Y-102881115D01*
X51609394Y-102879179D01*
X51669737Y-102733497D01*
X51700500Y-102578842D01*
X51700500Y-102421158D01*
X51700500Y-102421155D01*
X51700499Y-102421153D01*
X62099500Y-102421153D01*
X62099500Y-102578846D01*
X62130261Y-102733489D01*
X62130264Y-102733501D01*
X62190604Y-102879177D01*
X62190605Y-102879179D01*
X62191899Y-102881115D01*
X62192264Y-102882282D01*
X62193476Y-102884549D01*
X62193045Y-102884778D01*
X62212773Y-102947794D01*
X62194285Y-103015173D01*
X62191899Y-103018885D01*
X62190605Y-103020820D01*
X62190604Y-103020822D01*
X62130264Y-103166498D01*
X62130261Y-103166510D01*
X62099500Y-103321153D01*
X62099500Y-103478846D01*
X62130261Y-103633489D01*
X62130264Y-103633501D01*
X62190604Y-103779177D01*
X62190605Y-103779179D01*
X62191899Y-103781115D01*
X62192264Y-103782282D01*
X62193476Y-103784549D01*
X62193045Y-103784778D01*
X62212773Y-103847794D01*
X62194285Y-103915173D01*
X62191899Y-103918885D01*
X62190605Y-103920820D01*
X62190604Y-103920822D01*
X62130264Y-104066498D01*
X62130261Y-104066510D01*
X62099500Y-104221153D01*
X62099500Y-104378846D01*
X62130261Y-104533489D01*
X62130264Y-104533501D01*
X62190602Y-104679172D01*
X62190609Y-104679185D01*
X62278210Y-104810288D01*
X62278213Y-104810292D01*
X62389707Y-104921786D01*
X62389711Y-104921789D01*
X62520814Y-105009390D01*
X62520827Y-105009397D01*
X62666498Y-105069735D01*
X62666503Y-105069737D01*
X62821153Y-105100499D01*
X62821156Y-105100500D01*
X62821158Y-105100500D01*
X62978844Y-105100500D01*
X62978845Y-105100499D01*
X63133497Y-105069737D01*
X63279179Y-105009394D01*
X63331110Y-104974694D01*
X63397785Y-104953816D01*
X63465165Y-104972300D01*
X63468863Y-104974676D01*
X63520821Y-105009394D01*
X63520823Y-105009395D01*
X63520825Y-105009396D01*
X63666498Y-105069735D01*
X63666503Y-105069737D01*
X63821153Y-105100499D01*
X63821156Y-105100500D01*
X63821158Y-105100500D01*
X63978844Y-105100500D01*
X63978845Y-105100499D01*
X64133497Y-105069737D01*
X64279179Y-105009394D01*
X64410289Y-104921789D01*
X64521789Y-104810289D01*
X64609394Y-104679179D01*
X64669737Y-104533497D01*
X64700500Y-104378842D01*
X64700500Y-104221158D01*
X64700500Y-104221155D01*
X64684209Y-104139258D01*
X64684209Y-104139257D01*
X64680608Y-104121153D01*
X84899500Y-104121153D01*
X84899500Y-104278846D01*
X84930261Y-104433489D01*
X84930264Y-104433501D01*
X84990602Y-104579171D01*
X84990604Y-104579174D01*
X84990606Y-104579179D01*
X84990609Y-104579184D01*
X84990610Y-104579185D01*
X85000249Y-104593612D01*
X85021125Y-104660290D01*
X85002639Y-104727670D01*
X85000249Y-104731388D01*
X84990610Y-104745814D01*
X84990602Y-104745828D01*
X84930264Y-104891498D01*
X84930261Y-104891510D01*
X84899500Y-105046153D01*
X84899500Y-105203846D01*
X84930261Y-105358489D01*
X84930264Y-105358501D01*
X84990602Y-105504172D01*
X84990609Y-105504185D01*
X85078210Y-105635288D01*
X85078213Y-105635292D01*
X85189707Y-105746786D01*
X85189711Y-105746789D01*
X85320814Y-105834390D01*
X85320827Y-105834397D01*
X85466498Y-105894735D01*
X85466503Y-105894737D01*
X85621153Y-105925499D01*
X85621156Y-105925500D01*
X85621158Y-105925500D01*
X85778844Y-105925500D01*
X85778845Y-105925499D01*
X85933497Y-105894737D01*
X86079179Y-105834394D01*
X86210289Y-105746789D01*
X86246790Y-105710288D01*
X86312319Y-105644760D01*
X86373642Y-105611275D01*
X86443334Y-105616259D01*
X86487681Y-105644760D01*
X86589707Y-105746786D01*
X86589711Y-105746789D01*
X86720814Y-105834390D01*
X86720827Y-105834397D01*
X86866498Y-105894735D01*
X86866503Y-105894737D01*
X87021153Y-105925499D01*
X87021156Y-105925500D01*
X87021158Y-105925500D01*
X87178844Y-105925500D01*
X87178845Y-105925499D01*
X87333497Y-105894737D01*
X87479179Y-105834394D01*
X87610289Y-105746789D01*
X87646790Y-105710288D01*
X87712319Y-105644760D01*
X87773642Y-105611275D01*
X87843334Y-105616259D01*
X87887681Y-105644760D01*
X87989707Y-105746786D01*
X87989711Y-105746789D01*
X88120814Y-105834390D01*
X88120827Y-105834397D01*
X88266498Y-105894735D01*
X88266503Y-105894737D01*
X88421153Y-105925499D01*
X88421156Y-105925500D01*
X88421158Y-105925500D01*
X88578844Y-105925500D01*
X88578845Y-105925499D01*
X88733497Y-105894737D01*
X88879179Y-105834394D01*
X89010289Y-105746789D01*
X89121789Y-105635289D01*
X89209394Y-105504179D01*
X89269737Y-105358497D01*
X89300500Y-105203842D01*
X89300500Y-105121153D01*
X91399500Y-105121153D01*
X91399500Y-105278846D01*
X91430261Y-105433489D01*
X91430264Y-105433501D01*
X91490602Y-105579172D01*
X91490609Y-105579185D01*
X91578210Y-105710288D01*
X91578213Y-105710292D01*
X91689707Y-105821786D01*
X91689711Y-105821789D01*
X91820814Y-105909390D01*
X91820827Y-105909397D01*
X91966498Y-105969735D01*
X91966503Y-105969737D01*
X92102768Y-105996842D01*
X92121153Y-106000499D01*
X92121156Y-106000500D01*
X92121158Y-106000500D01*
X92278844Y-106000500D01*
X92278845Y-106000499D01*
X92433497Y-105969737D01*
X92579179Y-105909394D01*
X92684302Y-105839153D01*
X124167500Y-105839153D01*
X124167500Y-105996846D01*
X124198261Y-106151489D01*
X124198264Y-106151501D01*
X124258602Y-106297172D01*
X124258609Y-106297185D01*
X124346210Y-106428288D01*
X124346213Y-106428292D01*
X124457707Y-106539786D01*
X124457711Y-106539789D01*
X124588814Y-106627390D01*
X124588827Y-106627397D01*
X124734498Y-106687735D01*
X124734503Y-106687737D01*
X124889153Y-106718499D01*
X124889156Y-106718500D01*
X124889158Y-106718500D01*
X125046844Y-106718500D01*
X125046845Y-106718499D01*
X125201497Y-106687737D01*
X125340253Y-106630263D01*
X125347172Y-106627397D01*
X125347172Y-106627396D01*
X125347179Y-106627394D01*
X125478289Y-106539789D01*
X125589789Y-106428289D01*
X125677394Y-106297179D01*
X125737737Y-106151497D01*
X125768500Y-105996842D01*
X125768500Y-105839158D01*
X125768500Y-105839155D01*
X125768499Y-105839153D01*
X125765044Y-105821786D01*
X125737737Y-105684503D01*
X125721275Y-105644760D01*
X125677397Y-105538827D01*
X125677390Y-105538814D01*
X125589789Y-105407711D01*
X125589786Y-105407707D01*
X125478292Y-105296213D01*
X125478288Y-105296210D01*
X125347185Y-105208609D01*
X125347172Y-105208602D01*
X125201501Y-105148264D01*
X125201489Y-105148261D01*
X125046845Y-105117500D01*
X125046842Y-105117500D01*
X124889158Y-105117500D01*
X124889155Y-105117500D01*
X124734510Y-105148261D01*
X124734498Y-105148264D01*
X124588827Y-105208602D01*
X124588814Y-105208609D01*
X124457711Y-105296210D01*
X124457707Y-105296213D01*
X124346213Y-105407707D01*
X124346210Y-105407711D01*
X124258609Y-105538814D01*
X124258602Y-105538827D01*
X124198264Y-105684498D01*
X124198261Y-105684510D01*
X124167500Y-105839153D01*
X92684302Y-105839153D01*
X92710289Y-105821789D01*
X92710292Y-105821786D01*
X92786694Y-105745385D01*
X92821786Y-105710292D01*
X92821789Y-105710289D01*
X92909394Y-105579179D01*
X92969737Y-105433497D01*
X93000500Y-105278842D01*
X93000500Y-105121158D01*
X93000500Y-105121155D01*
X93000499Y-105121153D01*
X92978269Y-105009396D01*
X92969737Y-104966503D01*
X92938674Y-104891510D01*
X92909397Y-104820827D01*
X92909390Y-104820814D01*
X92821789Y-104689711D01*
X92821786Y-104689707D01*
X92710292Y-104578213D01*
X92710288Y-104578210D01*
X92579185Y-104490609D01*
X92579172Y-104490602D01*
X92433501Y-104430264D01*
X92433489Y-104430261D01*
X92278845Y-104399500D01*
X92278842Y-104399500D01*
X92121158Y-104399500D01*
X92121155Y-104399500D01*
X91966510Y-104430261D01*
X91966498Y-104430264D01*
X91820827Y-104490602D01*
X91820814Y-104490609D01*
X91689711Y-104578210D01*
X91689707Y-104578213D01*
X91578213Y-104689707D01*
X91578210Y-104689711D01*
X91490609Y-104820814D01*
X91490602Y-104820827D01*
X91430264Y-104966498D01*
X91430261Y-104966510D01*
X91399500Y-105121153D01*
X89300500Y-105121153D01*
X89300500Y-105046158D01*
X89300500Y-105046155D01*
X89300499Y-105046153D01*
X89293188Y-105009397D01*
X89269737Y-104891503D01*
X89236099Y-104810292D01*
X89209396Y-104745825D01*
X89209395Y-104745823D01*
X89209394Y-104745821D01*
X89199752Y-104731390D01*
X89178873Y-104664717D01*
X89197356Y-104597336D01*
X89199726Y-104593647D01*
X89209394Y-104579179D01*
X89269737Y-104433497D01*
X89300500Y-104278842D01*
X89300500Y-104121158D01*
X89300500Y-104121155D01*
X89300499Y-104121153D01*
X89277009Y-104003057D01*
X89273407Y-103984953D01*
X109562500Y-103984953D01*
X109562500Y-104142646D01*
X109593261Y-104297289D01*
X109593264Y-104297301D01*
X109653602Y-104442972D01*
X109653609Y-104442985D01*
X109741210Y-104574088D01*
X109741213Y-104574092D01*
X109852707Y-104685586D01*
X109852711Y-104685589D01*
X109983814Y-104773190D01*
X109983827Y-104773197D01*
X110129498Y-104833535D01*
X110129503Y-104833537D01*
X110284153Y-104864299D01*
X110284156Y-104864300D01*
X110284158Y-104864300D01*
X110441844Y-104864300D01*
X110441845Y-104864299D01*
X110596497Y-104833537D01*
X110742179Y-104773194D01*
X110873289Y-104685589D01*
X110984789Y-104574089D01*
X111072394Y-104442979D01*
X111132737Y-104297297D01*
X111163500Y-104142642D01*
X111163500Y-103984958D01*
X111163500Y-103984955D01*
X111149035Y-103912237D01*
X111155262Y-103842645D01*
X111198125Y-103787468D01*
X111228101Y-103772630D01*
X111227869Y-103772068D01*
X111379172Y-103709397D01*
X111379172Y-103709396D01*
X111379179Y-103709394D01*
X111510289Y-103621789D01*
X111621789Y-103510289D01*
X111709394Y-103379179D01*
X111769737Y-103233497D01*
X111800500Y-103078842D01*
X111800500Y-102921158D01*
X111800498Y-102921152D01*
X111800357Y-102919713D01*
X111800500Y-102918958D01*
X111800500Y-102915066D01*
X111801238Y-102915066D01*
X111813374Y-102851066D01*
X111861438Y-102800355D01*
X111929288Y-102783678D01*
X111947946Y-102785937D01*
X112000952Y-102796480D01*
X112021157Y-102800500D01*
X112021158Y-102800500D01*
X112178844Y-102800500D01*
X112178845Y-102800499D01*
X112333497Y-102769737D01*
X112479179Y-102709394D01*
X112610289Y-102621789D01*
X112721789Y-102510289D01*
X112809394Y-102379179D01*
X112869737Y-102233497D01*
X112900500Y-102078842D01*
X112900500Y-101921158D01*
X112900500Y-101921155D01*
X112900499Y-101921153D01*
X112883061Y-101833489D01*
X112869737Y-101766503D01*
X112869735Y-101766498D01*
X112809397Y-101620827D01*
X112809390Y-101620814D01*
X112721789Y-101489711D01*
X112721786Y-101489707D01*
X112610292Y-101378213D01*
X112610288Y-101378210D01*
X112479185Y-101290609D01*
X112479172Y-101290602D01*
X112333501Y-101230264D01*
X112333489Y-101230261D01*
X112178845Y-101199500D01*
X112178842Y-101199500D01*
X112021158Y-101199500D01*
X112021155Y-101199500D01*
X111866510Y-101230261D01*
X111866498Y-101230264D01*
X111720827Y-101290602D01*
X111720814Y-101290609D01*
X111589711Y-101378210D01*
X111589707Y-101378213D01*
X111478213Y-101489707D01*
X111478210Y-101489711D01*
X111390609Y-101620814D01*
X111390602Y-101620827D01*
X111330264Y-101766498D01*
X111330261Y-101766510D01*
X111299500Y-101921153D01*
X111299500Y-102078847D01*
X111299643Y-102080301D01*
X111299500Y-102081054D01*
X111299500Y-102084934D01*
X111298764Y-102084934D01*
X111286618Y-102148946D01*
X111238549Y-102199652D01*
X111170696Y-102216320D01*
X111152048Y-102214061D01*
X111078845Y-102199500D01*
X111078842Y-102199500D01*
X110921158Y-102199500D01*
X110921155Y-102199500D01*
X110766510Y-102230261D01*
X110766498Y-102230264D01*
X110620827Y-102290602D01*
X110620814Y-102290609D01*
X110489711Y-102378210D01*
X110489707Y-102378213D01*
X110378213Y-102489707D01*
X110378210Y-102489711D01*
X110290609Y-102620814D01*
X110290602Y-102620827D01*
X110230264Y-102766498D01*
X110230261Y-102766510D01*
X110199500Y-102921153D01*
X110199500Y-103078846D01*
X110213964Y-103151563D01*
X110207737Y-103221155D01*
X110164873Y-103276332D01*
X110134898Y-103291172D01*
X110135130Y-103291732D01*
X109983827Y-103354402D01*
X109983814Y-103354409D01*
X109852711Y-103442010D01*
X109852707Y-103442013D01*
X109741213Y-103553507D01*
X109741210Y-103553511D01*
X109653609Y-103684614D01*
X109653602Y-103684627D01*
X109593264Y-103830298D01*
X109593261Y-103830310D01*
X109562500Y-103984953D01*
X89273407Y-103984953D01*
X89269738Y-103966508D01*
X89269737Y-103966507D01*
X89269737Y-103966503D01*
X89250818Y-103920827D01*
X89209397Y-103820827D01*
X89209390Y-103820814D01*
X89121789Y-103689711D01*
X89121786Y-103689707D01*
X89010292Y-103578213D01*
X89010288Y-103578210D01*
X88879185Y-103490609D01*
X88879172Y-103490602D01*
X88733501Y-103430264D01*
X88733489Y-103430261D01*
X88578845Y-103399500D01*
X88578842Y-103399500D01*
X88421158Y-103399500D01*
X88421155Y-103399500D01*
X88266510Y-103430261D01*
X88266498Y-103430264D01*
X88120827Y-103490602D01*
X88120814Y-103490609D01*
X87989711Y-103578210D01*
X87989707Y-103578213D01*
X87887681Y-103680240D01*
X87826358Y-103713725D01*
X87756666Y-103708741D01*
X87712319Y-103680240D01*
X87610292Y-103578213D01*
X87610288Y-103578210D01*
X87479185Y-103490609D01*
X87479172Y-103490602D01*
X87333501Y-103430264D01*
X87333489Y-103430261D01*
X87178845Y-103399500D01*
X87178842Y-103399500D01*
X87021158Y-103399500D01*
X87021155Y-103399500D01*
X86866510Y-103430261D01*
X86866498Y-103430264D01*
X86720827Y-103490602D01*
X86720814Y-103490609D01*
X86589711Y-103578210D01*
X86589707Y-103578213D01*
X86487681Y-103680240D01*
X86426358Y-103713725D01*
X86356666Y-103708741D01*
X86312319Y-103680240D01*
X86210292Y-103578213D01*
X86210288Y-103578210D01*
X86079185Y-103490609D01*
X86079172Y-103490602D01*
X85933501Y-103430264D01*
X85933489Y-103430261D01*
X85778845Y-103399500D01*
X85778842Y-103399500D01*
X85621158Y-103399500D01*
X85621155Y-103399500D01*
X85466510Y-103430261D01*
X85466498Y-103430264D01*
X85320827Y-103490602D01*
X85320814Y-103490609D01*
X85189711Y-103578210D01*
X85189707Y-103578213D01*
X85078213Y-103689707D01*
X85078210Y-103689711D01*
X84990609Y-103820814D01*
X84990602Y-103820827D01*
X84930264Y-103966498D01*
X84930261Y-103966510D01*
X84899500Y-104121153D01*
X64680608Y-104121153D01*
X64669738Y-104066510D01*
X64669737Y-104066503D01*
X64643457Y-104003057D01*
X64609397Y-103920827D01*
X64609394Y-103920822D01*
X64609394Y-103920821D01*
X64608103Y-103918889D01*
X64607737Y-103917723D01*
X64606525Y-103915454D01*
X64606955Y-103915223D01*
X64587226Y-103852214D01*
X64605710Y-103784834D01*
X64608100Y-103781115D01*
X64609394Y-103779179D01*
X64612340Y-103772068D01*
X64638570Y-103708741D01*
X64669737Y-103633497D01*
X64700500Y-103478842D01*
X64700500Y-103321158D01*
X64700500Y-103321155D01*
X64700499Y-103321153D01*
X64669738Y-103166510D01*
X64669737Y-103166503D01*
X64633427Y-103078842D01*
X64609397Y-103020827D01*
X64609394Y-103020822D01*
X64609394Y-103020821D01*
X64608103Y-103018889D01*
X64607737Y-103017723D01*
X64606525Y-103015454D01*
X64606955Y-103015223D01*
X64587226Y-102952214D01*
X64605710Y-102884834D01*
X64608100Y-102881115D01*
X64609394Y-102879179D01*
X64669737Y-102733497D01*
X64700500Y-102578842D01*
X64700500Y-102421158D01*
X64700500Y-102421155D01*
X64700499Y-102421153D01*
X64678269Y-102309397D01*
X64669737Y-102266503D01*
X64656062Y-102233489D01*
X64609397Y-102120827D01*
X64609390Y-102120814D01*
X64521789Y-101989711D01*
X64521786Y-101989707D01*
X64410292Y-101878213D01*
X64410288Y-101878210D01*
X64279185Y-101790609D01*
X64279172Y-101790602D01*
X64133501Y-101730264D01*
X64133489Y-101730261D01*
X63978845Y-101699500D01*
X63978842Y-101699500D01*
X63821158Y-101699500D01*
X63821155Y-101699500D01*
X63666510Y-101730261D01*
X63666498Y-101730264D01*
X63520827Y-101790602D01*
X63520814Y-101790609D01*
X63468891Y-101825304D01*
X63402214Y-101846182D01*
X63334833Y-101827698D01*
X63331109Y-101825304D01*
X63279185Y-101790609D01*
X63279172Y-101790602D01*
X63133501Y-101730264D01*
X63133489Y-101730261D01*
X62978845Y-101699500D01*
X62978842Y-101699500D01*
X62821158Y-101699500D01*
X62821155Y-101699500D01*
X62666510Y-101730261D01*
X62666498Y-101730264D01*
X62520827Y-101790602D01*
X62520814Y-101790609D01*
X62389711Y-101878210D01*
X62389707Y-101878213D01*
X62278213Y-101989707D01*
X62278210Y-101989711D01*
X62190609Y-102120814D01*
X62190602Y-102120827D01*
X62130264Y-102266498D01*
X62130261Y-102266510D01*
X62099500Y-102421153D01*
X51700499Y-102421153D01*
X51678269Y-102309397D01*
X51669737Y-102266503D01*
X51656062Y-102233489D01*
X51609397Y-102120827D01*
X51609390Y-102120814D01*
X51521789Y-101989711D01*
X51521786Y-101989707D01*
X51410292Y-101878213D01*
X51410288Y-101878210D01*
X51279185Y-101790609D01*
X51279172Y-101790602D01*
X51133501Y-101730264D01*
X51133489Y-101730261D01*
X50978845Y-101699500D01*
X50978842Y-101699500D01*
X50821158Y-101699500D01*
X50821155Y-101699500D01*
X50666510Y-101730261D01*
X50666498Y-101730264D01*
X50520827Y-101790602D01*
X50520814Y-101790609D01*
X50389711Y-101878210D01*
X50389707Y-101878213D01*
X50387681Y-101880240D01*
X50386357Y-101880962D01*
X50385001Y-101882076D01*
X50384789Y-101881818D01*
X50326358Y-101913725D01*
X50256666Y-101908741D01*
X50215060Y-101882001D01*
X50214999Y-101882076D01*
X50214360Y-101881552D01*
X50212319Y-101880240D01*
X50210292Y-101878213D01*
X50210288Y-101878210D01*
X50079185Y-101790609D01*
X50079172Y-101790602D01*
X49933501Y-101730264D01*
X49933489Y-101730261D01*
X49778845Y-101699500D01*
X49778842Y-101699500D01*
X49621158Y-101699500D01*
X49621155Y-101699500D01*
X49466510Y-101730261D01*
X49466498Y-101730264D01*
X49320827Y-101790602D01*
X49320814Y-101790609D01*
X49189711Y-101878210D01*
X49189707Y-101878213D01*
X49078213Y-101989707D01*
X49078210Y-101989711D01*
X48990609Y-102120814D01*
X48990602Y-102120827D01*
X48930264Y-102266498D01*
X48930261Y-102266510D01*
X48899500Y-102421153D01*
X45400848Y-102421153D01*
X45400848Y-101521153D01*
X103899500Y-101521153D01*
X103899500Y-101678846D01*
X103930261Y-101833489D01*
X103930264Y-101833501D01*
X103990602Y-101979172D01*
X103990609Y-101979185D01*
X104078210Y-102110288D01*
X104078213Y-102110292D01*
X104189707Y-102221786D01*
X104189711Y-102221789D01*
X104320814Y-102309390D01*
X104320827Y-102309397D01*
X104466498Y-102369735D01*
X104466503Y-102369737D01*
X104621153Y-102400499D01*
X104621156Y-102400500D01*
X104621158Y-102400500D01*
X104778844Y-102400500D01*
X104778845Y-102400499D01*
X104933497Y-102369737D01*
X105079179Y-102309394D01*
X105210289Y-102221789D01*
X105321789Y-102110289D01*
X105409394Y-101979179D01*
X105469737Y-101833497D01*
X105500500Y-101678842D01*
X105500500Y-101521158D01*
X105500500Y-101521155D01*
X105500499Y-101521153D01*
X105472066Y-101378211D01*
X105469737Y-101366503D01*
X105438298Y-101290602D01*
X105409397Y-101220827D01*
X105409390Y-101220814D01*
X105321789Y-101089711D01*
X105321786Y-101089707D01*
X105210292Y-100978213D01*
X105210288Y-100978210D01*
X105079185Y-100890609D01*
X105079172Y-100890602D01*
X104933501Y-100830264D01*
X104933489Y-100830261D01*
X104778845Y-100799500D01*
X104778842Y-100799500D01*
X104621158Y-100799500D01*
X104621155Y-100799500D01*
X104466510Y-100830261D01*
X104466498Y-100830264D01*
X104320827Y-100890602D01*
X104320814Y-100890609D01*
X104189711Y-100978210D01*
X104189707Y-100978213D01*
X104078213Y-101089707D01*
X104078210Y-101089711D01*
X103990609Y-101220814D01*
X103990602Y-101220827D01*
X103930264Y-101366498D01*
X103930261Y-101366510D01*
X103899500Y-101521153D01*
X45400848Y-101521153D01*
X45400848Y-98371153D01*
X92549500Y-98371153D01*
X92549500Y-98528846D01*
X92580261Y-98683489D01*
X92580264Y-98683501D01*
X92640602Y-98829172D01*
X92640609Y-98829185D01*
X92728210Y-98960288D01*
X92728213Y-98960292D01*
X92839707Y-99071786D01*
X92839711Y-99071789D01*
X92970814Y-99159390D01*
X92970827Y-99159397D01*
X93116498Y-99219735D01*
X93116503Y-99219737D01*
X93271153Y-99250499D01*
X93271156Y-99250500D01*
X93271158Y-99250500D01*
X93428844Y-99250500D01*
X93428845Y-99250499D01*
X93583497Y-99219737D01*
X93729179Y-99159394D01*
X93860289Y-99071789D01*
X93971789Y-98960289D01*
X94059394Y-98829179D01*
X94119737Y-98683497D01*
X94150500Y-98528842D01*
X94150500Y-98371158D01*
X94150500Y-98371155D01*
X94150499Y-98371153D01*
X94119738Y-98216510D01*
X94119737Y-98216503D01*
X94092398Y-98150500D01*
X94059397Y-98070827D01*
X94059390Y-98070814D01*
X93971789Y-97939711D01*
X93971786Y-97939707D01*
X93860292Y-97828213D01*
X93860288Y-97828210D01*
X93729185Y-97740609D01*
X93729172Y-97740602D01*
X93583501Y-97680264D01*
X93583489Y-97680261D01*
X93428845Y-97649500D01*
X93428842Y-97649500D01*
X93271158Y-97649500D01*
X93271155Y-97649500D01*
X93116510Y-97680261D01*
X93116498Y-97680264D01*
X92970827Y-97740602D01*
X92970814Y-97740609D01*
X92839711Y-97828210D01*
X92839707Y-97828213D01*
X92728213Y-97939707D01*
X92728210Y-97939711D01*
X92640609Y-98070814D01*
X92640602Y-98070827D01*
X92580264Y-98216498D01*
X92580261Y-98216510D01*
X92549500Y-98371153D01*
X45400848Y-98371153D01*
X45400848Y-97271153D01*
X89599500Y-97271153D01*
X89599500Y-97428846D01*
X89630261Y-97583489D01*
X89630264Y-97583501D01*
X89690602Y-97729172D01*
X89690609Y-97729185D01*
X89778210Y-97860288D01*
X89778213Y-97860292D01*
X89889707Y-97971786D01*
X89889711Y-97971789D01*
X90020814Y-98059390D01*
X90020827Y-98059397D01*
X90166498Y-98119735D01*
X90166503Y-98119737D01*
X90321153Y-98150499D01*
X90321156Y-98150500D01*
X90321158Y-98150500D01*
X90478844Y-98150500D01*
X90478845Y-98150499D01*
X90633497Y-98119737D01*
X90751592Y-98070821D01*
X90779172Y-98059397D01*
X90779172Y-98059396D01*
X90779179Y-98059394D01*
X90910289Y-97971789D01*
X91021789Y-97860289D01*
X91109394Y-97729179D01*
X91169737Y-97583497D01*
X91200500Y-97428842D01*
X91200500Y-97271158D01*
X91200500Y-97271155D01*
X91200499Y-97271153D01*
X91169738Y-97116510D01*
X91169737Y-97116503D01*
X91169735Y-97116498D01*
X91109397Y-96970827D01*
X91109390Y-96970814D01*
X91021789Y-96839711D01*
X91021786Y-96839707D01*
X90910292Y-96728213D01*
X90910288Y-96728210D01*
X90779185Y-96640609D01*
X90779172Y-96640602D01*
X90633501Y-96580264D01*
X90633489Y-96580261D01*
X90478845Y-96549500D01*
X90478842Y-96549500D01*
X90321158Y-96549500D01*
X90321155Y-96549500D01*
X90166510Y-96580261D01*
X90166498Y-96580264D01*
X90020827Y-96640602D01*
X90020814Y-96640609D01*
X89889711Y-96728210D01*
X89889707Y-96728213D01*
X89778213Y-96839707D01*
X89778210Y-96839711D01*
X89690609Y-96970814D01*
X89690602Y-96970827D01*
X89630264Y-97116498D01*
X89630261Y-97116510D01*
X89599500Y-97271153D01*
X45400848Y-97271153D01*
X45400848Y-95621153D01*
X97799500Y-95621153D01*
X97799500Y-95778846D01*
X97830261Y-95933489D01*
X97830264Y-95933501D01*
X97890602Y-96079172D01*
X97890609Y-96079185D01*
X97978210Y-96210288D01*
X97978213Y-96210292D01*
X98089707Y-96321786D01*
X98089711Y-96321789D01*
X98220814Y-96409390D01*
X98220827Y-96409397D01*
X98358683Y-96466498D01*
X98366503Y-96469737D01*
X98478567Y-96492028D01*
X98521153Y-96500499D01*
X98521156Y-96500500D01*
X98521158Y-96500500D01*
X98678844Y-96500500D01*
X98678845Y-96500499D01*
X98833497Y-96469737D01*
X98979179Y-96409394D01*
X99032939Y-96373473D01*
X99099616Y-96352595D01*
X99166996Y-96371079D01*
X99213687Y-96423058D01*
X99224863Y-96492028D01*
X99223447Y-96500766D01*
X99199500Y-96621153D01*
X99199500Y-96778846D01*
X99230261Y-96933489D01*
X99230264Y-96933501D01*
X99290602Y-97079172D01*
X99290609Y-97079185D01*
X99378210Y-97210288D01*
X99378213Y-97210292D01*
X99489707Y-97321786D01*
X99489711Y-97321789D01*
X99620814Y-97409390D01*
X99620827Y-97409397D01*
X99766498Y-97469735D01*
X99766503Y-97469737D01*
X99921153Y-97500499D01*
X99921156Y-97500500D01*
X99921158Y-97500500D01*
X100078844Y-97500500D01*
X100078845Y-97500499D01*
X100233497Y-97469737D01*
X100379179Y-97409394D01*
X100510289Y-97321789D01*
X100621789Y-97210289D01*
X100709394Y-97079179D01*
X100769737Y-96933497D01*
X100800500Y-96778842D01*
X100800500Y-96621158D01*
X100800500Y-96621155D01*
X100800499Y-96621153D01*
X100769738Y-96466510D01*
X100769737Y-96466503D01*
X100731203Y-96373473D01*
X100709397Y-96320827D01*
X100709390Y-96320814D01*
X100621789Y-96189711D01*
X100621786Y-96189707D01*
X100510292Y-96078213D01*
X100510288Y-96078210D01*
X100379185Y-95990609D01*
X100379172Y-95990602D01*
X100233501Y-95930264D01*
X100233489Y-95930261D01*
X100078845Y-95899500D01*
X100078842Y-95899500D01*
X99921158Y-95899500D01*
X99921155Y-95899500D01*
X99766510Y-95930261D01*
X99766498Y-95930264D01*
X99620827Y-95990602D01*
X99620811Y-95990611D01*
X99567058Y-96026527D01*
X99500380Y-96047404D01*
X99433001Y-96028918D01*
X99386311Y-95976939D01*
X99375136Y-95907969D01*
X99376547Y-95899257D01*
X99400500Y-95778842D01*
X99400500Y-95621158D01*
X99400500Y-95621155D01*
X99400499Y-95621153D01*
X99369738Y-95466510D01*
X99369737Y-95466503D01*
X99369735Y-95466498D01*
X99309397Y-95320827D01*
X99309390Y-95320814D01*
X99221789Y-95189711D01*
X99221786Y-95189707D01*
X99110292Y-95078213D01*
X99110288Y-95078210D01*
X98979185Y-94990609D01*
X98979172Y-94990602D01*
X98833501Y-94930264D01*
X98833489Y-94930261D01*
X98678845Y-94899500D01*
X98678842Y-94899500D01*
X98521158Y-94899500D01*
X98521155Y-94899500D01*
X98366510Y-94930261D01*
X98366498Y-94930264D01*
X98220827Y-94990602D01*
X98220814Y-94990609D01*
X98089711Y-95078210D01*
X98089707Y-95078213D01*
X97978213Y-95189707D01*
X97978210Y-95189711D01*
X97890609Y-95320814D01*
X97890602Y-95320827D01*
X97830264Y-95466498D01*
X97830261Y-95466510D01*
X97799500Y-95621153D01*
X45400848Y-95621153D01*
X45400848Y-92793872D01*
X47724500Y-92793872D01*
X47724500Y-93056127D01*
X47745436Y-93215140D01*
X47758730Y-93316116D01*
X47819906Y-93544428D01*
X47826602Y-93569418D01*
X47826605Y-93569428D01*
X47926953Y-93811690D01*
X47926958Y-93811700D01*
X48058075Y-94038803D01*
X48217718Y-94246851D01*
X48217726Y-94246860D01*
X48403140Y-94432274D01*
X48403148Y-94432281D01*
X48611196Y-94591924D01*
X48838299Y-94723041D01*
X48838309Y-94723046D01*
X49080571Y-94823394D01*
X49080581Y-94823398D01*
X49333884Y-94891270D01*
X49593880Y-94925500D01*
X49593887Y-94925500D01*
X49856113Y-94925500D01*
X49856120Y-94925500D01*
X50116116Y-94891270D01*
X50369419Y-94823398D01*
X50611697Y-94723043D01*
X50838803Y-94591924D01*
X51046851Y-94432282D01*
X51046855Y-94432277D01*
X51046860Y-94432274D01*
X51232274Y-94246860D01*
X51232277Y-94246855D01*
X51232282Y-94246851D01*
X51391924Y-94038803D01*
X51523043Y-93811697D01*
X51623398Y-93569419D01*
X51691270Y-93316116D01*
X51725500Y-93056120D01*
X51725500Y-92793880D01*
X51722208Y-92768872D01*
X85699500Y-92768872D01*
X85699500Y-93031127D01*
X85716911Y-93163366D01*
X85733730Y-93291116D01*
X85798831Y-93534076D01*
X85801602Y-93544418D01*
X85801605Y-93544428D01*
X85901953Y-93786690D01*
X85901958Y-93786700D01*
X86033075Y-94013803D01*
X86192718Y-94221851D01*
X86192726Y-94221860D01*
X86378140Y-94407274D01*
X86378148Y-94407281D01*
X86378149Y-94407282D01*
X86380590Y-94409155D01*
X86586196Y-94566924D01*
X86813299Y-94698041D01*
X86813309Y-94698046D01*
X87055571Y-94798394D01*
X87055581Y-94798398D01*
X87308884Y-94866270D01*
X87568880Y-94900500D01*
X87568887Y-94900500D01*
X87831113Y-94900500D01*
X87831120Y-94900500D01*
X88091116Y-94866270D01*
X88344419Y-94798398D01*
X88526347Y-94723041D01*
X88586690Y-94698046D01*
X88586691Y-94698045D01*
X88586697Y-94698043D01*
X88813803Y-94566924D01*
X89021851Y-94407282D01*
X89021855Y-94407277D01*
X89021860Y-94407274D01*
X89207274Y-94221860D01*
X89207277Y-94221855D01*
X89207282Y-94221851D01*
X89366924Y-94013803D01*
X89498043Y-93786697D01*
X89501885Y-93777423D01*
X89588039Y-93569428D01*
X89598398Y-93544419D01*
X89666270Y-93291116D01*
X89700500Y-93031120D01*
X89700500Y-92768880D01*
X89666270Y-92508884D01*
X89598398Y-92255581D01*
X89566256Y-92177983D01*
X89498046Y-92013309D01*
X89498041Y-92013299D01*
X89366927Y-91786202D01*
X89366920Y-91786191D01*
X89317014Y-91721153D01*
X105599500Y-91721153D01*
X105599500Y-91878846D01*
X105630261Y-92033489D01*
X105630264Y-92033501D01*
X105679574Y-92152548D01*
X105687043Y-92222018D01*
X105679574Y-92247452D01*
X105630264Y-92366498D01*
X105630261Y-92366510D01*
X105599500Y-92521153D01*
X105599500Y-92678846D01*
X105630261Y-92833489D01*
X105630264Y-92833501D01*
X105690602Y-92979172D01*
X105690609Y-92979185D01*
X105778210Y-93110288D01*
X105778213Y-93110292D01*
X105889707Y-93221786D01*
X105889711Y-93221789D01*
X106020814Y-93309390D01*
X106020827Y-93309397D01*
X106166498Y-93369735D01*
X106166503Y-93369737D01*
X106299345Y-93396161D01*
X106321153Y-93400499D01*
X106321156Y-93400500D01*
X106321158Y-93400500D01*
X106478844Y-93400500D01*
X106478845Y-93400499D01*
X106633497Y-93369737D01*
X106779179Y-93309394D01*
X106910289Y-93221789D01*
X106968717Y-93163361D01*
X124040500Y-93163361D01*
X124040500Y-93321054D01*
X124071261Y-93475697D01*
X124071264Y-93475709D01*
X124131602Y-93621380D01*
X124131609Y-93621393D01*
X124219210Y-93752496D01*
X124219213Y-93752500D01*
X124244136Y-93777423D01*
X124277621Y-93838746D01*
X124272637Y-93908438D01*
X124244136Y-93952785D01*
X124219213Y-93977707D01*
X124219210Y-93977711D01*
X124131609Y-94108814D01*
X124131602Y-94108827D01*
X124071264Y-94254498D01*
X124071261Y-94254510D01*
X124040500Y-94409153D01*
X124040500Y-94566846D01*
X124071261Y-94721489D01*
X124071264Y-94721501D01*
X124131602Y-94867172D01*
X124131609Y-94867185D01*
X124219210Y-94998288D01*
X124219213Y-94998292D01*
X124330707Y-95109786D01*
X124330711Y-95109789D01*
X124461814Y-95197390D01*
X124461827Y-95197397D01*
X124607498Y-95257735D01*
X124607503Y-95257737D01*
X124762153Y-95288499D01*
X124762156Y-95288500D01*
X124762158Y-95288500D01*
X124919844Y-95288500D01*
X124919845Y-95288499D01*
X125074497Y-95257737D01*
X125220179Y-95197394D01*
X125351289Y-95109789D01*
X125462789Y-94998289D01*
X125550394Y-94867179D01*
X125610737Y-94721497D01*
X125641500Y-94566842D01*
X125641500Y-94409158D01*
X125641500Y-94409155D01*
X125641499Y-94409153D01*
X125610738Y-94254510D01*
X125610737Y-94254503D01*
X125607571Y-94246860D01*
X125550397Y-94108827D01*
X125550390Y-94108814D01*
X125462790Y-93977712D01*
X125462785Y-93977707D01*
X125437862Y-93952784D01*
X125404378Y-93891464D01*
X125409361Y-93821772D01*
X125437862Y-93777423D01*
X125462789Y-93752497D01*
X125550394Y-93621387D01*
X125610737Y-93475705D01*
X125641500Y-93321050D01*
X125641500Y-93163366D01*
X125641500Y-93163363D01*
X125641499Y-93163361D01*
X125630942Y-93110286D01*
X125610737Y-93008711D01*
X125598502Y-92979172D01*
X125550397Y-92863035D01*
X125550390Y-92863022D01*
X125462789Y-92731919D01*
X125462786Y-92731915D01*
X125351292Y-92620421D01*
X125351288Y-92620418D01*
X125220185Y-92532817D01*
X125220172Y-92532810D01*
X125074501Y-92472472D01*
X125074489Y-92472469D01*
X124919845Y-92441708D01*
X124919842Y-92441708D01*
X124762158Y-92441708D01*
X124762155Y-92441708D01*
X124607510Y-92472469D01*
X124607498Y-92472472D01*
X124461827Y-92532810D01*
X124461814Y-92532817D01*
X124330711Y-92620418D01*
X124330707Y-92620421D01*
X124219213Y-92731915D01*
X124219210Y-92731919D01*
X124131609Y-92863022D01*
X124131602Y-92863035D01*
X124071264Y-93008706D01*
X124071261Y-93008718D01*
X124040500Y-93163361D01*
X106968717Y-93163361D01*
X107021789Y-93110289D01*
X107021846Y-93110203D01*
X107036428Y-93088382D01*
X107109390Y-92979185D01*
X107109390Y-92979184D01*
X107109394Y-92979179D01*
X107169737Y-92833497D01*
X107200500Y-92678842D01*
X107200500Y-92521158D01*
X107200500Y-92521155D01*
X107200499Y-92521153D01*
X107198059Y-92508885D01*
X107169737Y-92366503D01*
X107169735Y-92366498D01*
X107120425Y-92247452D01*
X107112956Y-92177983D01*
X107120425Y-92152548D01*
X107165585Y-92043520D01*
X107169737Y-92033497D01*
X107200500Y-91878842D01*
X107200500Y-91797955D01*
X107220185Y-91730916D01*
X107272989Y-91685161D01*
X107300304Y-91676339D01*
X107333497Y-91669737D01*
X107479179Y-91609394D01*
X107610289Y-91521789D01*
X107721789Y-91410289D01*
X107809394Y-91279179D01*
X107818136Y-91258075D01*
X107869735Y-91133501D01*
X107869737Y-91133497D01*
X107900500Y-90978842D01*
X107900500Y-90821158D01*
X107900500Y-90821155D01*
X107900499Y-90821153D01*
X107869738Y-90666510D01*
X107869737Y-90666503D01*
X107820425Y-90547452D01*
X107812956Y-90477983D01*
X107820425Y-90452548D01*
X107869735Y-90333501D01*
X107869737Y-90333497D01*
X107900500Y-90178842D01*
X107900500Y-90021158D01*
X107900500Y-90021155D01*
X107900499Y-90021153D01*
X107869738Y-89866510D01*
X107869737Y-89866503D01*
X107869735Y-89866498D01*
X107809397Y-89720827D01*
X107809390Y-89720814D01*
X107721789Y-89589711D01*
X107721786Y-89589707D01*
X107610292Y-89478213D01*
X107610288Y-89478210D01*
X107479185Y-89390609D01*
X107479172Y-89390602D01*
X107333501Y-89330264D01*
X107333489Y-89330261D01*
X107178845Y-89299500D01*
X107178842Y-89299500D01*
X107021158Y-89299500D01*
X107021155Y-89299500D01*
X106866510Y-89330261D01*
X106866498Y-89330264D01*
X106720827Y-89390602D01*
X106720814Y-89390609D01*
X106589711Y-89478210D01*
X106589707Y-89478213D01*
X106478213Y-89589707D01*
X106478210Y-89589711D01*
X106390609Y-89720814D01*
X106390602Y-89720827D01*
X106330264Y-89866498D01*
X106330261Y-89866510D01*
X106299500Y-90021153D01*
X106299500Y-90178846D01*
X106330261Y-90333489D01*
X106330264Y-90333501D01*
X106379574Y-90452548D01*
X106387043Y-90522018D01*
X106379574Y-90547452D01*
X106330264Y-90666498D01*
X106330261Y-90666510D01*
X106299500Y-90821153D01*
X106299500Y-90902043D01*
X106279815Y-90969082D01*
X106227011Y-91014837D01*
X106199694Y-91023660D01*
X106166506Y-91030262D01*
X106166498Y-91030264D01*
X106020827Y-91090602D01*
X106020814Y-91090609D01*
X105889711Y-91178210D01*
X105889707Y-91178213D01*
X105778213Y-91289707D01*
X105778210Y-91289711D01*
X105690609Y-91420814D01*
X105690602Y-91420827D01*
X105630264Y-91566498D01*
X105630261Y-91566510D01*
X105599500Y-91721153D01*
X89317014Y-91721153D01*
X89226465Y-91603149D01*
X89207282Y-91578149D01*
X89207281Y-91578148D01*
X89207274Y-91578140D01*
X89021860Y-91392726D01*
X89021851Y-91392718D01*
X88813803Y-91233075D01*
X88586700Y-91101958D01*
X88586690Y-91101953D01*
X88344428Y-91001605D01*
X88344421Y-91001603D01*
X88344419Y-91001602D01*
X88091116Y-90933730D01*
X88021009Y-90924500D01*
X87831127Y-90899500D01*
X87831120Y-90899500D01*
X87568880Y-90899500D01*
X87568872Y-90899500D01*
X87337772Y-90929926D01*
X87308884Y-90933730D01*
X87140508Y-90978846D01*
X87055581Y-91001602D01*
X87055571Y-91001605D01*
X86813309Y-91101953D01*
X86813299Y-91101958D01*
X86586196Y-91233075D01*
X86378148Y-91392718D01*
X86192718Y-91578148D01*
X86033075Y-91786196D01*
X85901958Y-92013299D01*
X85901953Y-92013309D01*
X85801605Y-92255571D01*
X85801602Y-92255581D01*
X85733730Y-92508884D01*
X85732114Y-92521158D01*
X85699500Y-92768872D01*
X51722208Y-92768872D01*
X51691270Y-92533884D01*
X51623398Y-92280581D01*
X51613039Y-92255571D01*
X51523046Y-92038309D01*
X51523041Y-92038299D01*
X51391924Y-91811196D01*
X51232281Y-91603148D01*
X51232274Y-91603140D01*
X51046860Y-91417726D01*
X51046851Y-91417718D01*
X50838803Y-91258075D01*
X50611700Y-91126958D01*
X50611690Y-91126953D01*
X50369428Y-91026605D01*
X50369421Y-91026603D01*
X50369419Y-91026602D01*
X50116116Y-90958730D01*
X50058339Y-90951123D01*
X49856127Y-90924500D01*
X49856120Y-90924500D01*
X49593880Y-90924500D01*
X49593872Y-90924500D01*
X49362772Y-90954926D01*
X49333884Y-90958730D01*
X49258810Y-90978846D01*
X49080581Y-91026602D01*
X49080571Y-91026605D01*
X48838309Y-91126953D01*
X48838299Y-91126958D01*
X48611196Y-91258075D01*
X48403148Y-91417718D01*
X48217718Y-91603148D01*
X48058075Y-91811196D01*
X47926958Y-92038299D01*
X47926953Y-92038309D01*
X47826605Y-92280571D01*
X47826602Y-92280581D01*
X47765429Y-92508885D01*
X47758730Y-92533885D01*
X47724500Y-92793872D01*
X45400848Y-92793872D01*
X45400848Y-90866822D01*
X45409483Y-90821358D01*
X45470507Y-90666510D01*
X45965947Y-89409325D01*
X45992938Y-89367808D01*
X46667090Y-88682923D01*
X46701614Y-88658211D01*
X48040587Y-88012798D01*
X48094429Y-88000500D01*
X93407800Y-88000500D01*
X93474839Y-88020185D01*
G37*
%TD.AperFunction*%
%TD*%
M02*
