%TF.GenerationSoftware,KiCad,Pcbnew,9.0.7*%
%TF.CreationDate,2026-01-28T21:35:42+01:00*%
%TF.ProjectId,modbus-to-x,6d6f6462-7573-42d7-946f-2d782e6b6963,rev?*%
%TF.SameCoordinates,Original*%
%TF.FileFunction,Copper,L3,Inr*%
%TF.FilePolarity,Positive*%
%FSLAX46Y46*%
G04 Gerber Fmt 4.6, Leading zero omitted, Abs format (unit mm)*
G04 Created by KiCad (PCBNEW 9.0.7) date 2026-01-28 21:35:42*
%MOMM*%
%LPD*%
G01*
G04 APERTURE LIST*
%TA.AperFunction,ComponentPad*%
%ADD10R,1.500000X1.500000*%
%TD*%
%TA.AperFunction,ComponentPad*%
%ADD11C,1.600000*%
%TD*%
%TA.AperFunction,ComponentPad*%
%ADD12C,1.408000*%
%TD*%
%TA.AperFunction,HeatsinkPad*%
%ADD13C,0.600000*%
%TD*%
%TA.AperFunction,ViaPad*%
%ADD14C,0.600000*%
%TD*%
G04 APERTURE END LIST*
D10*
%TO.N,/V_PROT*%
%TO.C,SW1*%
X75140000Y-127900000D03*
D11*
X77680000Y-127900000D03*
%TO.N,/V_BUCK*%
X72600000Y-127900000D03*
%TD*%
D12*
%TO.N,/V_EXT*%
%TO.C,J1*%
X103350000Y-128125000D03*
%TO.N,/RS485+*%
X104370000Y-125585000D03*
%TO.N,unconnected-(J1-Pad4)*%
X105390000Y-128125000D03*
%TO.N,/RS485-*%
X106410000Y-125585000D03*
%TO.N,unconnected-(J1-Pad2)*%
X107430000Y-128125000D03*
%TO.N,GND*%
X108450000Y-125585000D03*
%TD*%
D13*
%TO.N,GND*%
%TO.C,IC1*%
X114631800Y-96425400D03*
X114631800Y-97825400D03*
X115331800Y-95725400D03*
X115331800Y-97125400D03*
X115331800Y-98525400D03*
X116006800Y-96425400D03*
X116006800Y-97825400D03*
X116731800Y-95725400D03*
X116731800Y-97125400D03*
X116731800Y-98525400D03*
X117431800Y-96425400D03*
X117431800Y-97825400D03*
%TD*%
D14*
%TO.N,GND*%
X59900000Y-105600000D03*
X72500000Y-88700000D03*
X70713627Y-88700000D03*
X68925220Y-88700000D03*
X67167107Y-88700000D03*
X63613784Y-88696622D03*
X65378700Y-88700000D03*
X74600000Y-93000000D03*
X74603378Y-89446677D03*
X74600000Y-91211593D03*
X61758648Y-89446677D03*
X61755270Y-93000000D03*
X61755270Y-91211593D03*
X122508450Y-123575200D03*
X89845434Y-99930196D03*
X63350000Y-99825000D03*
X79000000Y-97500000D03*
X109407200Y-117297200D03*
X71550000Y-99825000D03*
X60290000Y-106600000D03*
X110845600Y-107721400D03*
X78150000Y-99600000D03*
X76000000Y-97500000D03*
X59900000Y-100950000D03*
X85796875Y-123100000D03*
X85796875Y-125100000D03*
X65150000Y-99825000D03*
X74600000Y-94500000D03*
X118600000Y-119300000D03*
X74750000Y-99600000D03*
X58980000Y-106600000D03*
X59150000Y-97925000D03*
X83100000Y-99600000D03*
X108840000Y-88500000D03*
X114900000Y-112550000D03*
X79750000Y-99600000D03*
X61600000Y-106600000D03*
X61750000Y-94500000D03*
X60450000Y-97925000D03*
X88596875Y-124100000D03*
X124489650Y-123575200D03*
X87896875Y-122200000D03*
X74600000Y-96260000D03*
X86596875Y-122200000D03*
X82250000Y-96125000D03*
X92436786Y-117000000D03*
X61750000Y-99825000D03*
X104800000Y-88500000D03*
X79750000Y-98600000D03*
X82000000Y-97500000D03*
X111785400Y-108483400D03*
X128500000Y-123550000D03*
X125018800Y-89027000D03*
X118800000Y-124400000D03*
X66650000Y-99825000D03*
X96311700Y-110888300D03*
X59200000Y-100300000D03*
X68150000Y-99525000D03*
X81000000Y-97500000D03*
X60450000Y-94500000D03*
X88596875Y-123100000D03*
X114140000Y-88500000D03*
X77000000Y-97500000D03*
X59150000Y-96165000D03*
X115900000Y-88500000D03*
X116281200Y-109331200D03*
X60450000Y-96165000D03*
X126300000Y-88500000D03*
X118800000Y-121600000D03*
X117660000Y-88500000D03*
X122860000Y-88500000D03*
X126470850Y-123575200D03*
X73450000Y-99825000D03*
X74750000Y-98600000D03*
X102600000Y-90000000D03*
X83100000Y-98600000D03*
X112380000Y-88500000D03*
X82250000Y-94365000D03*
X127889000Y-89052400D03*
X119800000Y-120400000D03*
X111810800Y-105867200D03*
X97861700Y-112438300D03*
X121100000Y-88500000D03*
X85796875Y-124100000D03*
X78150000Y-98600000D03*
X110845600Y-106705400D03*
X88596875Y-125100000D03*
X60000000Y-100100000D03*
X120900000Y-122950000D03*
X127889000Y-90000000D03*
X110600000Y-88500000D03*
X110032800Y-89400000D03*
X103900000Y-95300000D03*
X68150000Y-100725000D03*
X119420000Y-88500000D03*
X119900000Y-124800000D03*
X69750000Y-99825000D03*
X107150000Y-88500000D03*
X61750000Y-97885000D03*
X61750000Y-96125000D03*
X101600000Y-92300000D03*
X125018800Y-89839800D03*
X101600000Y-90000000D03*
%TO.N,/EN*%
X100000000Y-96700000D03*
X102850000Y-107400000D03*
%TO.N,/IO_0*%
X104700000Y-101600000D03*
X124968000Y-105918000D03*
%TO.N,VDD33*%
X106400000Y-92600000D03*
X114326007Y-124516311D03*
X88500000Y-105125000D03*
X107100000Y-90100000D03*
X98600000Y-95700000D03*
X87100000Y-105125000D03*
X92200000Y-105200000D03*
X112623947Y-112537800D03*
X114956700Y-118536400D03*
X85700000Y-105125000D03*
X87100000Y-104200000D03*
X107100000Y-90900000D03*
X114956700Y-121120678D03*
X116332127Y-124293730D03*
X106400000Y-91800000D03*
X85700000Y-104200000D03*
X116205000Y-117285700D03*
X88500000Y-104200000D03*
%TO.N,/TX_0*%
X124841000Y-93242208D03*
X90400000Y-97350000D03*
%TO.N,/RX_0*%
X93350000Y-98450000D03*
X124841000Y-94488000D03*
%TO.N,/V_BUCK*%
X49700000Y-103400000D03*
X63900000Y-104300000D03*
X62900000Y-104300000D03*
X49700000Y-104300000D03*
X50900000Y-102500000D03*
X62900000Y-103400000D03*
X63900000Y-103400000D03*
X62900000Y-102500000D03*
X49700000Y-102500000D03*
X50900000Y-103400000D03*
X63900000Y-102500000D03*
X50900000Y-104300000D03*
%TO.N,Net-(D4-A)*%
X103505000Y-115519200D03*
X127500000Y-121100000D03*
%TO.N,Net-(D5-A)*%
X103469900Y-117136300D03*
X125500000Y-121100000D03*
%TO.N,Net-(D6-A)*%
X103469900Y-118774600D03*
X123500000Y-121100000D03*
%TO.N,/LED_C*%
X100634800Y-114477800D03*
X110363000Y-104063800D03*
%TO.N,/LED_A*%
X101500000Y-117900000D03*
X112100000Y-102000000D03*
%TO.N,/LED_B*%
X111000000Y-103000000D03*
X101482600Y-116306600D03*
%TD*%
%TA.AperFunction,Conductor*%
%TO.N,/V_BUCK*%
G36*
X64176085Y-102110315D02*
G01*
X64243111Y-102130045D01*
X64288830Y-102182881D01*
X64300000Y-102234315D01*
X64300000Y-104576000D01*
X64280315Y-104643039D01*
X64227511Y-104688794D01*
X64176000Y-104700000D01*
X49651362Y-104700000D01*
X49584323Y-104680315D01*
X49563681Y-104663681D01*
X49136319Y-104236319D01*
X49102834Y-104174996D01*
X49100000Y-104148638D01*
X49100000Y-102676388D01*
X49119685Y-102609349D01*
X49136349Y-102588676D01*
X49588652Y-102136688D01*
X49649986Y-102103226D01*
X49676385Y-102100401D01*
X64176085Y-102110315D01*
G37*
%TD.AperFunction*%
%TD*%
%TA.AperFunction,Conductor*%
%TO.N,VDD33*%
G36*
X107125706Y-89719685D02*
G01*
X107133067Y-89724800D01*
X107450400Y-89962800D01*
X107492221Y-90018771D01*
X107500000Y-90062000D01*
X107500000Y-94476000D01*
X107480315Y-94543039D01*
X107427511Y-94588794D01*
X107376000Y-94600000D01*
X106200000Y-94600000D01*
X104891024Y-95432134D01*
X104823888Y-95451487D01*
X104756947Y-95431473D01*
X104711453Y-95378444D01*
X104700500Y-95327489D01*
X104700500Y-95221155D01*
X104700499Y-95221153D01*
X104669738Y-95066510D01*
X104669737Y-95066503D01*
X104611084Y-94924900D01*
X104609397Y-94920827D01*
X104609390Y-94920814D01*
X104521789Y-94789711D01*
X104521786Y-94789707D01*
X104410292Y-94678213D01*
X104410288Y-94678210D01*
X104279185Y-94590609D01*
X104279172Y-94590602D01*
X104133501Y-94530264D01*
X104133489Y-94530261D01*
X103978845Y-94499500D01*
X103978842Y-94499500D01*
X103821158Y-94499500D01*
X103821155Y-94499500D01*
X103666510Y-94530261D01*
X103666498Y-94530264D01*
X103520827Y-94590602D01*
X103520814Y-94590609D01*
X103389711Y-94678210D01*
X103389707Y-94678213D01*
X103278213Y-94789707D01*
X103278210Y-94789711D01*
X103190609Y-94920814D01*
X103190602Y-94920827D01*
X103130264Y-95066498D01*
X103130261Y-95066510D01*
X103099500Y-95221153D01*
X103099500Y-95378846D01*
X103130261Y-95533489D01*
X103130264Y-95533501D01*
X103190602Y-95679172D01*
X103190609Y-95679185D01*
X103278210Y-95810288D01*
X103278213Y-95810292D01*
X103389707Y-95921786D01*
X103389711Y-95921789D01*
X103520814Y-96009390D01*
X103520821Y-96009394D01*
X103580319Y-96034038D01*
X103634721Y-96077878D01*
X103656787Y-96144171D01*
X103639509Y-96211871D01*
X103599390Y-96253244D01*
X102700000Y-96824999D01*
X102700000Y-96825000D01*
X102700000Y-104500000D01*
X106115846Y-108200500D01*
X106297030Y-108396782D01*
X106302736Y-108403420D01*
X107500000Y-109900000D01*
X115666559Y-109900000D01*
X115733598Y-109919685D01*
X115754240Y-109936319D01*
X115770907Y-109952986D01*
X115770911Y-109952989D01*
X115902014Y-110040590D01*
X115902027Y-110040597D01*
X116015987Y-110087800D01*
X116047703Y-110100937D01*
X116199357Y-110131103D01*
X116202353Y-110131699D01*
X116202356Y-110131700D01*
X116202358Y-110131700D01*
X116360044Y-110131700D01*
X116366107Y-110131103D01*
X116366370Y-110133782D01*
X116424367Y-110138957D01*
X116466678Y-110166678D01*
X117663681Y-111363681D01*
X117697166Y-111425004D01*
X117700000Y-111451362D01*
X117700000Y-123761925D01*
X117680315Y-123828964D01*
X117669729Y-123843109D01*
X117063516Y-124542993D01*
X116732476Y-124925184D01*
X116673705Y-124962970D01*
X116638747Y-124968000D01*
X114213111Y-124968000D01*
X114146072Y-124948315D01*
X114125206Y-124931456D01*
X113738760Y-124542990D01*
X113705437Y-124481583D01*
X113702674Y-124454901D01*
X113733480Y-118545458D01*
X113753513Y-118478524D01*
X113778555Y-118450465D01*
X115900000Y-116700000D01*
X115900000Y-114375000D01*
X115425000Y-113900000D01*
X112833411Y-113900000D01*
X112766372Y-113880315D01*
X112737803Y-113854962D01*
X111655113Y-112544028D01*
X111618751Y-112500000D01*
X111618750Y-112500000D01*
X102649824Y-112500000D01*
X102582785Y-112480315D01*
X102571164Y-112471153D01*
X114099500Y-112471153D01*
X114099500Y-112628846D01*
X114130261Y-112783489D01*
X114130264Y-112783501D01*
X114190602Y-112929172D01*
X114190609Y-112929185D01*
X114278210Y-113060288D01*
X114278213Y-113060292D01*
X114389707Y-113171786D01*
X114389711Y-113171789D01*
X114520814Y-113259390D01*
X114520827Y-113259397D01*
X114666498Y-113319735D01*
X114666503Y-113319737D01*
X114821153Y-113350499D01*
X114821156Y-113350500D01*
X114821158Y-113350500D01*
X114978844Y-113350500D01*
X114978845Y-113350499D01*
X115133497Y-113319737D01*
X115279179Y-113259394D01*
X115410289Y-113171789D01*
X115521789Y-113060289D01*
X115609394Y-112929179D01*
X115669737Y-112783497D01*
X115700500Y-112628842D01*
X115700500Y-112471158D01*
X115700500Y-112471155D01*
X115700499Y-112471153D01*
X115669738Y-112316510D01*
X115669737Y-112316503D01*
X115623470Y-112204803D01*
X115609397Y-112170827D01*
X115609390Y-112170814D01*
X115521789Y-112039711D01*
X115521786Y-112039707D01*
X115410292Y-111928213D01*
X115410288Y-111928210D01*
X115279185Y-111840609D01*
X115279172Y-111840602D01*
X115133501Y-111780264D01*
X115133489Y-111780261D01*
X114978845Y-111749500D01*
X114978842Y-111749500D01*
X114821158Y-111749500D01*
X114821155Y-111749500D01*
X114666510Y-111780261D01*
X114666498Y-111780264D01*
X114520827Y-111840602D01*
X114520814Y-111840609D01*
X114389711Y-111928210D01*
X114389707Y-111928213D01*
X114278213Y-112039707D01*
X114278210Y-112039711D01*
X114190609Y-112170814D01*
X114190602Y-112170827D01*
X114130264Y-112316498D01*
X114130261Y-112316510D01*
X114099500Y-112471153D01*
X102571164Y-112471153D01*
X102564028Y-112465527D01*
X102408519Y-112316498D01*
X100130903Y-110133782D01*
X97283054Y-107404593D01*
X97195986Y-107321153D01*
X102049500Y-107321153D01*
X102049500Y-107478846D01*
X102080261Y-107633489D01*
X102080264Y-107633501D01*
X102140602Y-107779172D01*
X102140609Y-107779185D01*
X102228210Y-107910288D01*
X102228213Y-107910292D01*
X102339707Y-108021786D01*
X102339711Y-108021789D01*
X102470814Y-108109390D01*
X102470827Y-108109397D01*
X102616498Y-108169735D01*
X102616503Y-108169737D01*
X102771153Y-108200499D01*
X102771156Y-108200500D01*
X102771158Y-108200500D01*
X102928844Y-108200500D01*
X102928845Y-108200499D01*
X103083497Y-108169737D01*
X103229179Y-108109394D01*
X103360289Y-108021789D01*
X103471789Y-107910289D01*
X103559394Y-107779179D01*
X103619737Y-107633497D01*
X103650500Y-107478842D01*
X103650500Y-107321158D01*
X103650500Y-107321155D01*
X103650499Y-107321153D01*
X103619738Y-107166510D01*
X103619737Y-107166503D01*
X103619735Y-107166498D01*
X103559397Y-107020827D01*
X103559390Y-107020814D01*
X103471789Y-106889711D01*
X103471786Y-106889707D01*
X103360292Y-106778213D01*
X103360288Y-106778210D01*
X103229185Y-106690609D01*
X103229172Y-106690602D01*
X103083501Y-106630264D01*
X103083489Y-106630261D01*
X102928845Y-106599500D01*
X102928842Y-106599500D01*
X102771158Y-106599500D01*
X102771155Y-106599500D01*
X102616510Y-106630261D01*
X102616498Y-106630264D01*
X102470827Y-106690602D01*
X102470814Y-106690609D01*
X102339711Y-106778210D01*
X102339707Y-106778213D01*
X102228213Y-106889707D01*
X102228210Y-106889711D01*
X102140609Y-107020814D01*
X102140602Y-107020827D01*
X102080264Y-107166498D01*
X102080261Y-107166510D01*
X102049500Y-107321153D01*
X97195986Y-107321153D01*
X95400000Y-105600000D01*
X85424000Y-105600000D01*
X85356961Y-105580315D01*
X85311206Y-105527511D01*
X85300000Y-105476000D01*
X85300000Y-103664062D01*
X85319685Y-103597023D01*
X85352246Y-103562931D01*
X87804806Y-101822867D01*
X87870872Y-101800130D01*
X87876558Y-101800000D01*
X94847060Y-101800000D01*
X96300000Y-100347060D01*
X96300000Y-96621153D01*
X99199500Y-96621153D01*
X99199500Y-96778846D01*
X99230261Y-96933489D01*
X99230264Y-96933501D01*
X99290602Y-97079172D01*
X99290609Y-97079185D01*
X99378210Y-97210288D01*
X99378213Y-97210292D01*
X99489707Y-97321786D01*
X99489711Y-97321789D01*
X99620814Y-97409390D01*
X99620827Y-97409397D01*
X99766498Y-97469735D01*
X99766503Y-97469737D01*
X99921153Y-97500499D01*
X99921156Y-97500500D01*
X99921158Y-97500500D01*
X100078844Y-97500500D01*
X100078845Y-97500499D01*
X100233497Y-97469737D01*
X100379179Y-97409394D01*
X100510289Y-97321789D01*
X100621789Y-97210289D01*
X100709394Y-97079179D01*
X100769737Y-96933497D01*
X100800500Y-96778842D01*
X100800500Y-96621158D01*
X100800500Y-96621155D01*
X100800499Y-96621153D01*
X100769738Y-96466510D01*
X100769737Y-96466503D01*
X100720055Y-96346558D01*
X100709397Y-96320827D01*
X100709390Y-96320814D01*
X100621789Y-96189711D01*
X100621786Y-96189707D01*
X100510292Y-96078213D01*
X100510288Y-96078210D01*
X100379185Y-95990609D01*
X100379172Y-95990602D01*
X100233501Y-95930264D01*
X100233489Y-95930261D01*
X100078845Y-95899500D01*
X100078842Y-95899500D01*
X99921158Y-95899500D01*
X99921155Y-95899500D01*
X99766510Y-95930261D01*
X99766498Y-95930264D01*
X99620827Y-95990602D01*
X99620814Y-95990609D01*
X99489711Y-96078210D01*
X99489707Y-96078213D01*
X99378213Y-96189707D01*
X99378210Y-96189711D01*
X99290609Y-96320814D01*
X99290602Y-96320827D01*
X99230264Y-96466498D01*
X99230261Y-96466510D01*
X99199500Y-96621153D01*
X96300000Y-96621153D01*
X96300000Y-96046755D01*
X96319685Y-95979716D01*
X96345170Y-95951037D01*
X100623074Y-92428056D01*
X100687336Y-92400635D01*
X100756223Y-92412310D01*
X100807863Y-92459374D01*
X100823517Y-92499585D01*
X100830261Y-92533491D01*
X100830264Y-92533501D01*
X100890602Y-92679172D01*
X100890609Y-92679185D01*
X100978210Y-92810288D01*
X100978213Y-92810292D01*
X101089707Y-92921786D01*
X101089711Y-92921789D01*
X101220814Y-93009390D01*
X101220827Y-93009397D01*
X101366498Y-93069735D01*
X101366503Y-93069737D01*
X101521153Y-93100499D01*
X101521156Y-93100500D01*
X101521158Y-93100500D01*
X101678844Y-93100500D01*
X101678845Y-93100499D01*
X101833497Y-93069737D01*
X101979179Y-93009394D01*
X102110289Y-92921789D01*
X102221789Y-92810289D01*
X102309394Y-92679179D01*
X102369737Y-92533497D01*
X102400500Y-92378842D01*
X102400500Y-92221158D01*
X102400500Y-92221155D01*
X102400499Y-92221153D01*
X102369738Y-92066510D01*
X102369737Y-92066503D01*
X102318804Y-91943538D01*
X102309397Y-91920827D01*
X102309390Y-91920814D01*
X102221789Y-91789711D01*
X102221786Y-91789707D01*
X102110292Y-91678213D01*
X102110288Y-91678210D01*
X101979185Y-91590609D01*
X101979170Y-91590601D01*
X101944256Y-91576139D01*
X101889853Y-91532298D01*
X101867789Y-91466003D01*
X101885069Y-91398304D01*
X101912872Y-91365869D01*
X102565054Y-90828779D01*
X102629316Y-90801358D01*
X102643880Y-90800500D01*
X102678844Y-90800500D01*
X102678845Y-90800499D01*
X102833497Y-90769737D01*
X102979179Y-90709394D01*
X103110289Y-90621789D01*
X103221789Y-90510289D01*
X103309394Y-90379179D01*
X103369737Y-90233497D01*
X103377137Y-90196291D01*
X103409520Y-90134383D01*
X103419908Y-90124781D01*
X103901374Y-89728279D01*
X103965637Y-89700858D01*
X103980201Y-89700000D01*
X107058667Y-89700000D01*
X107125706Y-89719685D01*
G37*
%TD.AperFunction*%
%TD*%
M02*
