G04 #@! TF.GenerationSoftware,KiCad,Pcbnew,8.0.7*
G04 #@! TF.CreationDate,2025-07-06T21:45:57+02:00*
G04 #@! TF.ProjectId,modbus-to-x,6d6f6462-7573-42d7-946f-2d782e6b6963,rev?*
G04 #@! TF.SameCoordinates,Original*
G04 #@! TF.FileFunction,Legend,Bot*
G04 #@! TF.FilePolarity,Positive*
%FSLAX46Y46*%
G04 Gerber Fmt 4.6, Leading zero omitted, Abs format (unit mm)*
G04 Created by KiCad (PCBNEW 8.0.7) date 2025-07-06 21:45:57*
%MOMM*%
%LPD*%
G01*
G04 APERTURE LIST*
%ADD10C,0.000000*%
%ADD11C,0.600000*%
%ADD12R,2.032000X2.032000*%
%ADD13C,2.032000*%
%ADD14C,0.499999*%
%ADD15R,2.413000X2.413000*%
%ADD16C,2.413000*%
G04 APERTURE END LIST*
D10*
G36*
X102591537Y-119797355D02*
G01*
X102775751Y-119800875D01*
X102885271Y-119809879D01*
X102935050Y-119826916D01*
X102940042Y-119854538D01*
X102915201Y-119895296D01*
X102895668Y-119922051D01*
X102816577Y-120029486D01*
X102690662Y-120200018D01*
X102527693Y-120420430D01*
X102337439Y-120677506D01*
X102129670Y-120958027D01*
X102014468Y-121113958D01*
X101819668Y-121379797D01*
X101650497Y-121613414D01*
X101516056Y-121802099D01*
X101425450Y-121933142D01*
X101387781Y-121993834D01*
X101391115Y-122014357D01*
X101441897Y-122111637D01*
X101545533Y-122274165D01*
X101694582Y-122490963D01*
X101881602Y-122751050D01*
X102099152Y-123043449D01*
X102217447Y-123200059D01*
X102427711Y-123478546D01*
X102618153Y-123730927D01*
X102778101Y-123943052D01*
X102896883Y-124100770D01*
X102963827Y-124189930D01*
X103089652Y-124358400D01*
X102474369Y-124358400D01*
X101859086Y-124358400D01*
X101293651Y-123582529D01*
X100728216Y-122806659D01*
X100542068Y-123063393D01*
X100301194Y-123395832D01*
X100110133Y-123660153D01*
X99965432Y-123861298D01*
X99859690Y-124009650D01*
X99785507Y-124115591D01*
X99735484Y-124189502D01*
X99702222Y-124241767D01*
X99681329Y-124273284D01*
X99639174Y-124312878D01*
X99571716Y-124337830D01*
X99459363Y-124351495D01*
X99282526Y-124357233D01*
X99021613Y-124358400D01*
X98787451Y-124355399D01*
X98592480Y-124347060D01*
X98460737Y-124334670D01*
X98412440Y-124319522D01*
X98442101Y-124269582D01*
X98525963Y-124147868D01*
X98655945Y-123965638D01*
X98823970Y-123734110D01*
X99021957Y-123464500D01*
X99241828Y-123168025D01*
X99460477Y-122872971D01*
X99658641Y-122602468D01*
X99826841Y-122369676D01*
X99956994Y-122185884D01*
X100041014Y-122062381D01*
X100070817Y-122010456D01*
X100053866Y-121978567D01*
X99982520Y-121872369D01*
X99863252Y-121704233D01*
X99704554Y-121485933D01*
X99514922Y-121229241D01*
X99302847Y-120945932D01*
X99145274Y-120736448D01*
X98944569Y-120468734D01*
X98770309Y-120235272D01*
X98631505Y-120048177D01*
X98537171Y-119919569D01*
X98496318Y-119861563D01*
X98492391Y-119846233D01*
X98525643Y-119822605D01*
X98624553Y-119807726D01*
X98801760Y-119800212D01*
X99069900Y-119798675D01*
X99682041Y-119800584D01*
X100197589Y-120518182D01*
X100713137Y-121235780D01*
X101174702Y-120581070D01*
X101261291Y-120457762D01*
X101413059Y-120239124D01*
X101537901Y-120056000D01*
X101624755Y-119924707D01*
X101662557Y-119861563D01*
X101663586Y-119859357D01*
X101713905Y-119830451D01*
X101835958Y-119811061D01*
X102040324Y-119800171D01*
X102337583Y-119796767D01*
X102591537Y-119797355D01*
G37*
G36*
X108669917Y-122250306D02*
G01*
X108396428Y-122315052D01*
X108047967Y-122335629D01*
X107601647Y-122336767D01*
X107571597Y-122627925D01*
X107541979Y-122805494D01*
X107414249Y-123168983D01*
X107210786Y-123505802D01*
X106948204Y-123791377D01*
X106643118Y-124001136D01*
X106521229Y-124057658D01*
X106181794Y-124169977D01*
X105833278Y-124230765D01*
X105518826Y-124231193D01*
X105490396Y-124227635D01*
X105103599Y-124126514D01*
X104735955Y-123938697D01*
X104407783Y-123679974D01*
X104139403Y-123366135D01*
X103951136Y-123012972D01*
X103897009Y-122835865D01*
X103843000Y-122489068D01*
X103837183Y-122229320D01*
X104837922Y-122229320D01*
X104871774Y-122520191D01*
X104965364Y-122786887D01*
X105117194Y-123008225D01*
X105325767Y-123163019D01*
X105589532Y-123252391D01*
X105857986Y-123251746D01*
X106137690Y-123153196D01*
X106308914Y-123042859D01*
X106488375Y-122832679D01*
X106593327Y-122555945D01*
X106626603Y-122207175D01*
X106624950Y-122133921D01*
X106571450Y-121785905D01*
X106443232Y-121507745D01*
X106241054Y-121301219D01*
X106234644Y-121296704D01*
X105983173Y-121180054D01*
X105706850Y-121148895D01*
X105434964Y-121202171D01*
X105196803Y-121338828D01*
X105109768Y-121423508D01*
X104955421Y-121659794D01*
X104865305Y-121935459D01*
X104837922Y-122229320D01*
X103837183Y-122229320D01*
X103834599Y-122113955D01*
X103871726Y-121751029D01*
X103954298Y-121440791D01*
X104097769Y-121161713D01*
X104338975Y-120850712D01*
X104633609Y-120583537D01*
X104954769Y-120388483D01*
X105042993Y-120349045D01*
X105197164Y-120291114D01*
X105346014Y-120258420D01*
X105525820Y-120244509D01*
X105772857Y-120242927D01*
X105943913Y-120246404D01*
X106173939Y-120263386D01*
X106352433Y-120298634D01*
X106511995Y-120357188D01*
X106584872Y-120393338D01*
X106817835Y-120546272D01*
X107050476Y-120744618D01*
X107251235Y-120959409D01*
X107388548Y-121161677D01*
X107491160Y-121362812D01*
X107878684Y-121343243D01*
X108077686Y-121327424D01*
X108239044Y-121295201D01*
X108314658Y-121247057D01*
X108317981Y-121239319D01*
X108332390Y-121145654D01*
X108344948Y-120968834D01*
X108354921Y-120725693D01*
X108361579Y-120433066D01*
X108364190Y-120107787D01*
X108364306Y-120055609D01*
X108367985Y-119723160D01*
X108376123Y-119417315D01*
X108387880Y-119157338D01*
X108402417Y-118962496D01*
X108418895Y-118852056D01*
X108444270Y-118774519D01*
X108596424Y-118499114D01*
X108826630Y-118253576D01*
X109114775Y-118060775D01*
X109419790Y-117904726D01*
X111989487Y-117888025D01*
X112041528Y-117887694D01*
X112554118Y-117885210D01*
X113040460Y-117884206D01*
X113489492Y-117884614D01*
X113890155Y-117886365D01*
X114231389Y-117889390D01*
X114502134Y-117893621D01*
X114691330Y-117898988D01*
X114787918Y-117905424D01*
X114960196Y-117952515D01*
X115149028Y-118072674D01*
X115271338Y-118238661D01*
X115319142Y-118430903D01*
X115284455Y-118629826D01*
X115159294Y-118815856D01*
X115007771Y-118967379D01*
X113422763Y-118967379D01*
X111837755Y-118967379D01*
X111837755Y-121459530D01*
X111837755Y-123951681D01*
X111686233Y-124103203D01*
X111669572Y-124119490D01*
X111518206Y-124224507D01*
X111345306Y-124254726D01*
X111324649Y-124254427D01*
X111156299Y-124217347D01*
X111004380Y-124103203D01*
X110852857Y-123951681D01*
X110852857Y-121455189D01*
X110852857Y-118958697D01*
X110232114Y-118975997D01*
X110115865Y-118978923D01*
X109886049Y-118986046D01*
X109709535Y-119003023D01*
X109578947Y-119041563D01*
X109486907Y-119113373D01*
X109426042Y-119230160D01*
X109388974Y-119403633D01*
X109368327Y-119645500D01*
X109356726Y-119967467D01*
X109346795Y-120381243D01*
X109335697Y-120776936D01*
X109322151Y-121102834D01*
X109303942Y-121353666D01*
X109278365Y-121544048D01*
X109242713Y-121688597D01*
X109194278Y-121801928D01*
X109130354Y-121898659D01*
X109048233Y-121993406D01*
X108890443Y-122133863D01*
X108751601Y-122207175D01*
X108669917Y-122250306D01*
G37*
G36*
X100562983Y-116618260D02*
G01*
X100461547Y-117001175D01*
X100284165Y-117350194D01*
X100036423Y-117651606D01*
X99723905Y-117891701D01*
X99352196Y-118056768D01*
X99343093Y-118059486D01*
X99164629Y-118095857D01*
X98933442Y-118122262D01*
X98697143Y-118133151D01*
X98377329Y-118111879D01*
X97965772Y-118005482D01*
X97608032Y-117814634D01*
X97311339Y-117544831D01*
X97082922Y-117201564D01*
X96930009Y-116790327D01*
X96876907Y-116483936D01*
X96880343Y-116274343D01*
X97858510Y-116274343D01*
X97888740Y-116565456D01*
X97988402Y-116832026D01*
X98153740Y-117053627D01*
X98380995Y-117209832D01*
X98537777Y-117267356D01*
X98817000Y-117295933D01*
X99078688Y-117222343D01*
X99321947Y-117046742D01*
X99457730Y-116869868D01*
X99562386Y-116600350D01*
X99595500Y-116297809D01*
X99554905Y-115987417D01*
X99438432Y-115694343D01*
X99431315Y-115681938D01*
X99256569Y-115475553D01*
X99032476Y-115344682D01*
X98781195Y-115290779D01*
X98524888Y-115315302D01*
X98285714Y-115419707D01*
X98085834Y-115605451D01*
X98021383Y-115700200D01*
X97901472Y-115979115D01*
X97858510Y-116274343D01*
X96880343Y-116274343D01*
X96883982Y-116052402D01*
X96984190Y-115639992D01*
X97173202Y-115262250D01*
X97446690Y-114934725D01*
X97594162Y-114805366D01*
X97826623Y-114650661D01*
X98078763Y-114551622D01*
X98377308Y-114498988D01*
X98748980Y-114483502D01*
X98912872Y-114484558D01*
X99117911Y-114493311D01*
X99271326Y-114515696D01*
X99405409Y-114557357D01*
X99552449Y-114623938D01*
X99881318Y-114828140D01*
X100174281Y-115120355D01*
X100398301Y-115488539D01*
X100515681Y-115805581D01*
X100582889Y-116215158D01*
X100578808Y-116297809D01*
X100562983Y-116618260D01*
G37*
G36*
X96517870Y-116349314D02*
G01*
X96482689Y-116735062D01*
X96391678Y-117074956D01*
X96323687Y-117219927D01*
X96149118Y-117483926D01*
X95929746Y-117727301D01*
X95690694Y-117923905D01*
X95457088Y-118047591D01*
X95444746Y-118051877D01*
X95132322Y-118121452D01*
X94808300Y-118129301D01*
X94498895Y-118079537D01*
X94230321Y-117976269D01*
X94028794Y-117823608D01*
X94008264Y-117801596D01*
X93917363Y-117731951D01*
X93866346Y-117757193D01*
X93850408Y-117878808D01*
X93850408Y-118034318D01*
X93383878Y-118034318D01*
X92917347Y-118034318D01*
X92917347Y-116183439D01*
X93866431Y-116183439D01*
X93871275Y-116494184D01*
X93951297Y-116780044D01*
X94099714Y-117012141D01*
X94308557Y-117172644D01*
X94457700Y-117231256D01*
X94733733Y-117268496D01*
X95000512Y-117223173D01*
X95228362Y-117097705D01*
X95280084Y-117047856D01*
X95406603Y-116844577D01*
X95484583Y-116585181D01*
X95510552Y-116298094D01*
X95481033Y-116011745D01*
X95392551Y-115754561D01*
X95371147Y-115714187D01*
X95209543Y-115494018D01*
X95007949Y-115361298D01*
X94748454Y-115303482D01*
X94510446Y-115315895D01*
X94267141Y-115413912D01*
X94074049Y-115595818D01*
X93938152Y-115854649D01*
X93866431Y-116183439D01*
X92917347Y-116183439D01*
X92917347Y-115673801D01*
X92917347Y-113313285D01*
X93396837Y-113328189D01*
X93876327Y-113343094D01*
X93902245Y-114113340D01*
X93907814Y-114276122D01*
X93917622Y-114524363D01*
X93927947Y-114689078D01*
X93941197Y-114783586D01*
X93959781Y-114821205D01*
X93986104Y-114815254D01*
X94022574Y-114779052D01*
X94075578Y-114732897D01*
X94215162Y-114643681D01*
X94383346Y-114559931D01*
X94648137Y-114485039D01*
X94977077Y-114463309D01*
X95306112Y-114502898D01*
X95592774Y-114602318D01*
X95609640Y-114611219D01*
X95837724Y-114774537D01*
X96062856Y-115004118D01*
X96257862Y-115268370D01*
X96395572Y-115535703D01*
X96420322Y-115605326D01*
X96497115Y-115958980D01*
X96515147Y-116298094D01*
X96517870Y-116349314D01*
G37*
G36*
X92243470Y-118034318D02*
G01*
X91776939Y-118034318D01*
X91310408Y-118034318D01*
X91310408Y-117843191D01*
X91310408Y-117652064D01*
X91163003Y-117793288D01*
X91108350Y-117839238D01*
X90942928Y-117946151D01*
X90761269Y-118033827D01*
X90569258Y-118093717D01*
X90195579Y-118136926D01*
X89820974Y-118095093D01*
X89470361Y-117972304D01*
X89168660Y-117772646D01*
X89029719Y-117634803D01*
X88795343Y-117296985D01*
X88641791Y-116901076D01*
X88573359Y-116456572D01*
X88570147Y-116366609D01*
X88581029Y-116214375D01*
X89574251Y-116214375D01*
X89579449Y-116496958D01*
X89639636Y-116761357D01*
X89755891Y-116985040D01*
X89929294Y-117145477D01*
X90163739Y-117247340D01*
X90440306Y-117278789D01*
X90701103Y-117221780D01*
X90928683Y-117083790D01*
X91105600Y-116872293D01*
X91214408Y-116594768D01*
X91239863Y-116415926D01*
X91233327Y-116121549D01*
X91176596Y-115840476D01*
X91075545Y-115614196D01*
X90989050Y-115509645D01*
X90780724Y-115368612D01*
X90530362Y-115296644D01*
X90265502Y-115299716D01*
X90013681Y-115383801D01*
X89877800Y-115482828D01*
X89724505Y-115684779D01*
X89622963Y-115936138D01*
X89574251Y-116214375D01*
X88581029Y-116214375D01*
X88602328Y-115916409D01*
X88711775Y-115510725D01*
X88891403Y-115158417D01*
X89134124Y-114868346D01*
X89432855Y-114649371D01*
X89780509Y-114510351D01*
X90170000Y-114460148D01*
X90502458Y-114483391D01*
X90787580Y-114567964D01*
X91020607Y-114719595D01*
X91070388Y-114762183D01*
X91171566Y-114841014D01*
X91226537Y-114872277D01*
X91232277Y-114859687D01*
X91242674Y-114765715D01*
X91251014Y-114594953D01*
X91256559Y-114365317D01*
X91258572Y-114094726D01*
X91258572Y-113317175D01*
X91751021Y-113317175D01*
X92243470Y-113317175D01*
X92243470Y-115675747D01*
X92243470Y-116415926D01*
X92243470Y-118034318D01*
G37*
G36*
X85815908Y-115662787D02*
G01*
X85815934Y-115728128D01*
X85817019Y-116083234D01*
X85820562Y-116352120D01*
X85827766Y-116549845D01*
X85839837Y-116691466D01*
X85857978Y-116792039D01*
X85883394Y-116866621D01*
X85917290Y-116930271D01*
X85947733Y-116975702D01*
X86130029Y-117144555D01*
X86360129Y-117238692D01*
X86611874Y-117251301D01*
X86859107Y-117175569D01*
X86932661Y-117132140D01*
X87009398Y-117063283D01*
X87067241Y-116968435D01*
X87108773Y-116834657D01*
X87136578Y-116649011D01*
X87153240Y-116398560D01*
X87161343Y-116070367D01*
X87163470Y-115651493D01*
X87163470Y-114561257D01*
X87655919Y-114561257D01*
X88148368Y-114561257D01*
X88148368Y-115795930D01*
X88148081Y-115989550D01*
X88143972Y-116416404D01*
X88133073Y-116758233D01*
X88112958Y-117028392D01*
X88081197Y-117240234D01*
X88035362Y-117407113D01*
X87973025Y-117542383D01*
X87891759Y-117659398D01*
X87789134Y-117771511D01*
X87719978Y-117834011D01*
X87539160Y-117962392D01*
X87364337Y-118049664D01*
X87045959Y-118125356D01*
X86670441Y-118125985D01*
X86312163Y-118033699D01*
X85990433Y-117851286D01*
X85875257Y-117767090D01*
X85800516Y-117733294D01*
X85769821Y-117769752D01*
X85763878Y-117878808D01*
X85763878Y-118034318D01*
X85297347Y-118034318D01*
X84830817Y-118034318D01*
X84830817Y-116297787D01*
X84830817Y-114561257D01*
X85323266Y-114561257D01*
X85815715Y-114561257D01*
X85815908Y-115662787D01*
G37*
G36*
X83181744Y-114501366D02*
G01*
X83537610Y-114604607D01*
X83826926Y-114767615D01*
X84042493Y-114985626D01*
X84177113Y-115253876D01*
X84223586Y-115567602D01*
X84220662Y-115662435D01*
X84176287Y-115906555D01*
X84071770Y-116108717D01*
X83898459Y-116275790D01*
X83647706Y-116414643D01*
X83310860Y-116532146D01*
X82879270Y-116635168D01*
X82709231Y-116670611D01*
X82448682Y-116731294D01*
X82267685Y-116786497D01*
X82151049Y-116842591D01*
X82083581Y-116905949D01*
X82050089Y-116982943D01*
X82043141Y-117074344D01*
X82107444Y-117201719D01*
X82262358Y-117292324D01*
X82502454Y-117341852D01*
X82669686Y-117349773D01*
X82942964Y-117315223D01*
X83148314Y-117218597D01*
X83275715Y-117063501D01*
X83308123Y-116998482D01*
X83365498Y-116930121D01*
X83455137Y-116902719D01*
X83612653Y-116898874D01*
X83676442Y-116900372D01*
X83901406Y-116914124D01*
X84105102Y-116936759D01*
X84189268Y-116950349D01*
X84288955Y-116979478D01*
X84324384Y-117030931D01*
X84321181Y-117127305D01*
X84304399Y-117222526D01*
X84190939Y-117483831D01*
X83989214Y-117718561D01*
X83710122Y-117916028D01*
X83364561Y-118065541D01*
X83224164Y-118097011D01*
X82951888Y-118121514D01*
X82597113Y-118123776D01*
X82368521Y-118116454D01*
X82175167Y-118101537D01*
X82027353Y-118073813D01*
X81893946Y-118027140D01*
X81743816Y-117955372D01*
X81638075Y-117896145D01*
X81373189Y-117683786D01*
X81195913Y-117427830D01*
X81112406Y-117136266D01*
X81111460Y-116806277D01*
X81194476Y-116522119D01*
X81364638Y-116292186D01*
X81623740Y-116112889D01*
X81730891Y-116069427D01*
X81926438Y-116007690D01*
X82169056Y-115942498D01*
X82429126Y-115882331D01*
X82657498Y-115830263D01*
X82882625Y-115771162D01*
X83056791Y-115716980D01*
X83154560Y-115674985D01*
X83228757Y-115611530D01*
X83279475Y-115495549D01*
X83247001Y-115380417D01*
X83142706Y-115280452D01*
X82977959Y-115209973D01*
X82764130Y-115183298D01*
X82547701Y-115201892D01*
X82342468Y-115281245D01*
X82200126Y-115428230D01*
X82156146Y-115492445D01*
X82103407Y-115536726D01*
X82022513Y-115558120D01*
X81888323Y-115562794D01*
X81675694Y-115556920D01*
X81242000Y-115541767D01*
X81274544Y-115379048D01*
X81367108Y-115104070D01*
X81550013Y-114848686D01*
X81812362Y-114655831D01*
X82150659Y-114527981D01*
X82561411Y-114467609D01*
X82766527Y-114462657D01*
X83181744Y-114501366D01*
G37*
G36*
X106188444Y-114340951D02*
G01*
X106188684Y-114602074D01*
X106189137Y-115053880D01*
X106189660Y-115537496D01*
X106190204Y-116009728D01*
X106190723Y-116427379D01*
X106190771Y-116464745D01*
X106191059Y-116805446D01*
X106191095Y-117126561D01*
X106190893Y-117407069D01*
X106190467Y-117625948D01*
X106189831Y-117762175D01*
X106187551Y-118034318D01*
X105721749Y-118034318D01*
X105255946Y-118034318D01*
X105242259Y-116394526D01*
X105228572Y-114754735D01*
X104776227Y-115940955D01*
X104707607Y-116120988D01*
X104570016Y-116482456D01*
X104438032Y-116829774D01*
X104319502Y-117142268D01*
X104222271Y-117399261D01*
X104154186Y-117580080D01*
X103984490Y-118032985D01*
X103668672Y-118033651D01*
X103352854Y-118034318D01*
X103042297Y-117243808D01*
X103014781Y-117173636D01*
X102872595Y-116808074D01*
X102715410Y-116400095D01*
X102560479Y-115994621D01*
X102425054Y-115636574D01*
X102118368Y-114819849D01*
X102104670Y-116427084D01*
X102090972Y-118034318D01*
X101598734Y-118034318D01*
X101106495Y-118034318D01*
X101119982Y-115688706D01*
X101133470Y-113343094D01*
X101807347Y-113343094D01*
X102481225Y-113343094D01*
X102645757Y-113757787D01*
X102658503Y-113790065D01*
X102734193Y-113984946D01*
X102835810Y-114250095D01*
X102955018Y-114563606D01*
X103083481Y-114903575D01*
X103212863Y-115248094D01*
X103268606Y-115396282D01*
X103382087Y-115693153D01*
X103481967Y-115948070D01*
X103562692Y-116147198D01*
X103618706Y-116276704D01*
X103644453Y-116322756D01*
X103648652Y-116317833D01*
X103683879Y-116242583D01*
X103748863Y-116085891D01*
X103838879Y-115859736D01*
X103949202Y-115576097D01*
X104075106Y-115246954D01*
X104211867Y-114884286D01*
X104252169Y-114776878D01*
X104388043Y-114417734D01*
X104512824Y-114092324D01*
X104621531Y-113813345D01*
X104709180Y-113593495D01*
X104770790Y-113445471D01*
X104801377Y-113381971D01*
X104855199Y-113354465D01*
X104988222Y-113333214D01*
X105206866Y-113321051D01*
X105520021Y-113317175D01*
X106187551Y-113317175D01*
X106188444Y-114340951D01*
G37*
G36*
X118265511Y-108185338D02*
G01*
X119081939Y-108186103D01*
X119364067Y-108187798D01*
X119644506Y-108196240D01*
X119850253Y-108215564D01*
X119997532Y-108249913D01*
X120102566Y-108303429D01*
X120181578Y-108380255D01*
X120250793Y-108484531D01*
X120318841Y-108674735D01*
X120289611Y-108861853D01*
X120157800Y-109045109D01*
X120109254Y-109090201D01*
X120056091Y-109123245D01*
X119982337Y-109145658D01*
X119871377Y-109159503D01*
X119706594Y-109166840D01*
X119471371Y-109169731D01*
X119149091Y-109170236D01*
X118265511Y-109170236D01*
X118265511Y-110534501D01*
X118264356Y-110943542D01*
X118258754Y-111345748D01*
X118246512Y-111668191D01*
X118225471Y-111923848D01*
X118193470Y-112125695D01*
X118148351Y-112286706D01*
X118087954Y-112419858D01*
X118010119Y-112538127D01*
X117912687Y-112654488D01*
X117833665Y-112738632D01*
X117699027Y-112858112D01*
X117555666Y-112943736D01*
X117384633Y-113000963D01*
X117166981Y-113035253D01*
X116883759Y-113052063D01*
X116516021Y-113056853D01*
X115725511Y-113057992D01*
X115725511Y-114020959D01*
X115725511Y-114983926D01*
X115573988Y-115135448D01*
X115571659Y-115137769D01*
X115414558Y-115252847D01*
X115241289Y-115286971D01*
X115103628Y-115281533D01*
X114979941Y-115255092D01*
X114887802Y-115195779D01*
X114822646Y-115091809D01*
X114779912Y-114931395D01*
X114755037Y-114702751D01*
X114743458Y-114394091D01*
X114740613Y-113993627D01*
X114740613Y-113057992D01*
X114121714Y-113057992D01*
X113502815Y-113057992D01*
X113486714Y-114047485D01*
X113470613Y-115036978D01*
X113325171Y-115161975D01*
X113238401Y-115223076D01*
X113034316Y-115287988D01*
X112828244Y-115263571D01*
X112648293Y-115150311D01*
X112511633Y-115013650D01*
X112511633Y-114035821D01*
X112511633Y-113057992D01*
X111889592Y-113057992D01*
X111267551Y-113057992D01*
X111267551Y-114035821D01*
X111267551Y-115013650D01*
X111130891Y-115150311D01*
X110984960Y-115252274D01*
X110784045Y-115297002D01*
X110585053Y-115255097D01*
X110416853Y-115127484D01*
X110395982Y-115102494D01*
X110354148Y-115046133D01*
X110324131Y-114983824D01*
X110303969Y-114899279D01*
X110291701Y-114776212D01*
X110285367Y-114598333D01*
X110283005Y-114349356D01*
X110282653Y-114012994D01*
X110282653Y-113057992D01*
X109463443Y-113057992D01*
X109295375Y-113057824D01*
X109027569Y-113055528D01*
X108832592Y-113048478D01*
X108689903Y-113034106D01*
X108578957Y-113009846D01*
X108479212Y-112973132D01*
X108370125Y-112921397D01*
X108135339Y-112767975D01*
X107896917Y-112507197D01*
X107732851Y-112185634D01*
X107714924Y-112112935D01*
X107696296Y-111963877D01*
X107682381Y-111744713D01*
X107672826Y-111447064D01*
X107667278Y-111062551D01*
X107665385Y-110582797D01*
X107664898Y-109170255D01*
X106725947Y-109170246D01*
X105786995Y-109170236D01*
X105650334Y-109033576D01*
X105586382Y-108954524D01*
X105514578Y-108758868D01*
X105531842Y-108550222D01*
X105638658Y-108356698D01*
X105763642Y-108211257D01*
X106714270Y-108185338D01*
X107664898Y-108159420D01*
X107665298Y-108132592D01*
X109660613Y-108132592D01*
X109660649Y-108535875D01*
X109661287Y-109076423D01*
X109663488Y-109527848D01*
X109668221Y-109898967D01*
X109676455Y-110198598D01*
X109689161Y-110435560D01*
X109707309Y-110618672D01*
X109731867Y-110756750D01*
X109763806Y-110858614D01*
X109804095Y-110933082D01*
X109853705Y-110988973D01*
X109913604Y-111035103D01*
X109984763Y-111080292D01*
X110007162Y-111093918D01*
X110049007Y-111116227D01*
X110098471Y-111134862D01*
X110164287Y-111150155D01*
X110255187Y-111162434D01*
X110379902Y-111172032D01*
X110547165Y-111179277D01*
X110765708Y-111184502D01*
X111044264Y-111188035D01*
X111391564Y-111190208D01*
X111816341Y-111191351D01*
X112327327Y-111191795D01*
X112933254Y-111191869D01*
X113396524Y-111191773D01*
X113933966Y-111191199D01*
X114382924Y-111189859D01*
X114752102Y-111187474D01*
X115050203Y-111183763D01*
X115285930Y-111178446D01*
X115467986Y-111171244D01*
X115605076Y-111161876D01*
X115705901Y-111150063D01*
X115779165Y-111135524D01*
X115833572Y-111117979D01*
X115877824Y-111097150D01*
X115888308Y-111091313D01*
X116035622Y-110973091D01*
X116149158Y-110825815D01*
X116150617Y-110823078D01*
X116172302Y-110776044D01*
X116190356Y-110717918D01*
X116205108Y-110639441D01*
X116216890Y-110531357D01*
X116226029Y-110384407D01*
X116232858Y-110189333D01*
X116237705Y-109936876D01*
X116240901Y-109617779D01*
X116242775Y-109222783D01*
X116243657Y-108742630D01*
X116243878Y-108168063D01*
X116243849Y-107756890D01*
X116243229Y-107220064D01*
X116241014Y-106772138D01*
X116236193Y-106404244D01*
X116227752Y-106107514D01*
X116214676Y-105873082D01*
X116195953Y-105692078D01*
X116170569Y-105555635D01*
X116137510Y-105454885D01*
X116095763Y-105380961D01*
X116044315Y-105324994D01*
X115982152Y-105278117D01*
X115908261Y-105231462D01*
X115895641Y-105223792D01*
X115854889Y-105202168D01*
X115805723Y-105184027D01*
X115739483Y-105169066D01*
X115647510Y-105156978D01*
X115521144Y-105147461D01*
X115351725Y-105140207D01*
X115130592Y-105134913D01*
X114849086Y-105131274D01*
X114498546Y-105128985D01*
X114070313Y-105127740D01*
X113555727Y-105127235D01*
X112946127Y-105127165D01*
X112837580Y-105127175D01*
X112243869Y-105127406D01*
X111743743Y-105128143D01*
X111328555Y-105129683D01*
X110989656Y-105132322D01*
X110718398Y-105136356D01*
X110506134Y-105142081D01*
X110344214Y-105149794D01*
X110223991Y-105159791D01*
X110136818Y-105172369D01*
X110074045Y-105187823D01*
X110027024Y-105206450D01*
X109987109Y-105228546D01*
X109933277Y-105261453D01*
X109869601Y-105304788D01*
X109816698Y-105354159D01*
X109773570Y-105418442D01*
X109739219Y-105506513D01*
X109712646Y-105627249D01*
X109692853Y-105789525D01*
X109678844Y-106002217D01*
X109669620Y-106274202D01*
X109664182Y-106614356D01*
X109661534Y-107031555D01*
X109660677Y-107534675D01*
X109660613Y-108132592D01*
X107665298Y-108132592D01*
X107674360Y-107524420D01*
X107683821Y-106889420D01*
X106750270Y-106889420D01*
X105816719Y-106889420D01*
X105665197Y-106737897D01*
X105560678Y-106598500D01*
X105504937Y-106400934D01*
X105542512Y-106207305D01*
X105673161Y-106038722D01*
X105687690Y-106026536D01*
X105745947Y-105981628D01*
X105807403Y-105949359D01*
X105888805Y-105927637D01*
X106006897Y-105914371D01*
X106178425Y-105907470D01*
X106420135Y-105904841D01*
X106748773Y-105904395D01*
X107664898Y-105904268D01*
X107672386Y-105052762D01*
X107673442Y-104942252D01*
X107678033Y-104648336D01*
X107686225Y-104432476D01*
X107700312Y-104275139D01*
X107722590Y-104156792D01*
X107755354Y-104057900D01*
X107800898Y-103958930D01*
X107842561Y-103883276D01*
X107960076Y-103712717D01*
X108078512Y-103584545D01*
X108171570Y-103510354D01*
X108290556Y-103434799D01*
X108422153Y-103381138D01*
X108584561Y-103345733D01*
X108795979Y-103324948D01*
X109074606Y-103315145D01*
X109438642Y-103312685D01*
X110308572Y-103312685D01*
X110308572Y-102303047D01*
X110308572Y-101293409D01*
X110444525Y-101157455D01*
X110460840Y-101141907D01*
X110638523Y-101041526D01*
X110836719Y-101022785D01*
X111027870Y-101078263D01*
X111184418Y-101200535D01*
X111278804Y-101382179D01*
X111288379Y-101446291D01*
X111299239Y-101611324D01*
X111306344Y-101844036D01*
X111309125Y-102123312D01*
X111307011Y-102428037D01*
X111293470Y-103312786D01*
X111902551Y-103312736D01*
X112511633Y-103312685D01*
X112511633Y-102324380D01*
X112512518Y-102116927D01*
X112518697Y-101777518D01*
X112530309Y-101509678D01*
X112546807Y-101324086D01*
X112567642Y-101231420D01*
X112621783Y-101159626D01*
X112777668Y-101058587D01*
X112971650Y-101012308D01*
X113164939Y-101033634D01*
X113217676Y-101052606D01*
X113311977Y-101102187D01*
X113382479Y-101174650D01*
X113432569Y-101283449D01*
X113465632Y-101442042D01*
X113485056Y-101663883D01*
X113494227Y-101962427D01*
X113496531Y-102351132D01*
X113496531Y-103312685D01*
X114118572Y-103312685D01*
X114740613Y-103312685D01*
X114740613Y-102299513D01*
X114740691Y-102077858D01*
X114741895Y-101785310D01*
X114745915Y-101571956D01*
X114754455Y-101422540D01*
X114769216Y-101321803D01*
X114791900Y-101254490D01*
X114824210Y-101205343D01*
X114867848Y-101159105D01*
X114921675Y-101111371D01*
X115050827Y-101049046D01*
X115233062Y-101031869D01*
X115325600Y-101035127D01*
X115477899Y-101070856D01*
X115598275Y-101159105D01*
X115626101Y-101187554D01*
X115662688Y-101233727D01*
X115688977Y-101292031D01*
X115706668Y-101377723D01*
X115717465Y-101506060D01*
X115723070Y-101692299D01*
X115725184Y-101951698D01*
X115725511Y-102299513D01*
X115725511Y-103312685D01*
X116556963Y-103312685D01*
X116796575Y-103313943D01*
X117105870Y-103323215D01*
X117341322Y-103345496D01*
X117521180Y-103385442D01*
X117663695Y-103447709D01*
X117787116Y-103536955D01*
X117909695Y-103657836D01*
X118003928Y-103764857D01*
X118091839Y-103888353D01*
X118155142Y-104022373D01*
X118198514Y-104185544D01*
X118226632Y-104396496D01*
X118244174Y-104673858D01*
X118255818Y-105036257D01*
X118277474Y-105904522D01*
X119131982Y-105904522D01*
X119986490Y-105904522D01*
X120162735Y-106080767D01*
X120214876Y-106137916D01*
X120303811Y-106266682D01*
X120338980Y-106368443D01*
X120336108Y-106409744D01*
X120285751Y-106575747D01*
X120192572Y-106733717D01*
X120082668Y-106836047D01*
X120048399Y-106846436D01*
X119914002Y-106863751D01*
X119703284Y-106877350D01*
X119434079Y-106886237D01*
X119124224Y-106889420D01*
X118265511Y-106889420D01*
X118265511Y-107537379D01*
X118265511Y-108168063D01*
X118265511Y-108185338D01*
G37*
G36*
X94009908Y-101578307D02*
G01*
X94343365Y-101629530D01*
X94808645Y-101740575D01*
X95374609Y-101960135D01*
X95894607Y-102258594D01*
X96349199Y-102626291D01*
X96541256Y-102810805D01*
X96938957Y-102692740D01*
X97158184Y-102634539D01*
X97735866Y-102549303D01*
X98306619Y-102566310D01*
X98875075Y-102685959D01*
X99445864Y-102908647D01*
X99674750Y-103027167D01*
X99876126Y-103157570D01*
X100073893Y-103320014D01*
X100301756Y-103539336D01*
X100335910Y-103574030D01*
X100636495Y-103915428D01*
X100862167Y-104256660D01*
X101032122Y-104631853D01*
X101165552Y-105075134D01*
X101187479Y-105162202D01*
X101236082Y-105347249D01*
X101273827Y-105480024D01*
X101293961Y-105536279D01*
X101322478Y-105547546D01*
X101429949Y-105572232D01*
X101585975Y-105599817D01*
X101592868Y-105600921D01*
X101937213Y-105695825D01*
X102300857Y-105863625D01*
X102652692Y-106087357D01*
X102961612Y-106350055D01*
X103091137Y-106489546D01*
X103372285Y-106891921D01*
X103564482Y-107334889D01*
X103665882Y-107806343D01*
X103674640Y-108294177D01*
X103588910Y-108786284D01*
X103406846Y-109270557D01*
X103375980Y-109329760D01*
X103200281Y-109589455D01*
X102962586Y-109862140D01*
X102688467Y-110122944D01*
X102403494Y-110346994D01*
X102133237Y-110509416D01*
X102124988Y-110513412D01*
X101987553Y-110578285D01*
X101858019Y-110633549D01*
X101727087Y-110679977D01*
X101585460Y-110718341D01*
X101423841Y-110749412D01*
X101232931Y-110773963D01*
X101003432Y-110792766D01*
X100726047Y-110806593D01*
X100391479Y-110816216D01*
X99990428Y-110822407D01*
X99513598Y-110825939D01*
X98951691Y-110827583D01*
X98295408Y-110828112D01*
X98018967Y-110828301D01*
X97508042Y-110829199D01*
X97034529Y-110830738D01*
X96607893Y-110832845D01*
X96237600Y-110835449D01*
X95933117Y-110838476D01*
X95703909Y-110841855D01*
X95559443Y-110845513D01*
X95509184Y-110849379D01*
X95510682Y-110855075D01*
X95537152Y-110933337D01*
X95593316Y-111093216D01*
X95674806Y-111322457D01*
X95777254Y-111608803D01*
X95896292Y-111939999D01*
X96027551Y-112303790D01*
X96063203Y-112402630D01*
X96192239Y-112764031D01*
X96307748Y-113093187D01*
X96405302Y-113377081D01*
X96480468Y-113602693D01*
X96528818Y-113757002D01*
X96545919Y-113826991D01*
X96545792Y-113833418D01*
X96500676Y-113971716D01*
X96397097Y-114108330D01*
X96268229Y-114198836D01*
X96142781Y-114237028D01*
X95985216Y-114233419D01*
X95797586Y-114163615D01*
X95748931Y-114140750D01*
X95703922Y-114116343D01*
X95662158Y-114083806D01*
X95620078Y-114035035D01*
X95574122Y-113961930D01*
X95520730Y-113856387D01*
X95456340Y-113710307D01*
X95377392Y-113515586D01*
X95280326Y-113264122D01*
X95161582Y-112947814D01*
X95017598Y-112558561D01*
X94844814Y-112088259D01*
X94639670Y-111528808D01*
X94392533Y-110854930D01*
X91775858Y-110826496D01*
X91701497Y-110825690D01*
X91100371Y-110819090D01*
X90591796Y-110812647D01*
X90165790Y-110805251D01*
X89812371Y-110795795D01*
X89521557Y-110783169D01*
X89283364Y-110766266D01*
X89087811Y-110743976D01*
X88924916Y-110715191D01*
X88784697Y-110678803D01*
X88657170Y-110633703D01*
X88532354Y-110578782D01*
X88400266Y-110512932D01*
X88250925Y-110435044D01*
X88193329Y-110404087D01*
X87747211Y-110100317D01*
X87357882Y-109718617D01*
X87038494Y-109273995D01*
X86802195Y-108781461D01*
X86738411Y-108566222D01*
X86676743Y-108203325D01*
X86651230Y-107810597D01*
X86663911Y-107428317D01*
X86716829Y-107096767D01*
X86879400Y-106616235D01*
X87147146Y-106112394D01*
X87493924Y-105665273D01*
X87542257Y-105614303D01*
X87969807Y-105242747D01*
X88444298Y-104963557D01*
X88966354Y-104776430D01*
X89536603Y-104681066D01*
X89962672Y-104645533D01*
X90016295Y-104432681D01*
X90101432Y-104146341D01*
X90344546Y-103593557D01*
X90676033Y-103086516D01*
X91087776Y-102638808D01*
X91421386Y-102357419D01*
X91930101Y-102023844D01*
X92469701Y-101782035D01*
X93053555Y-101625100D01*
X93209899Y-101597002D01*
X93482867Y-101562180D01*
X93736306Y-101555903D01*
X94009908Y-101578307D01*
G37*
G36*
X94349253Y-98963270D02*
G01*
X94887003Y-99049300D01*
X95405481Y-99171239D01*
X95863367Y-99320655D01*
X96113282Y-99425130D01*
X96622346Y-99679513D01*
X97124878Y-99980830D01*
X97588779Y-100309030D01*
X97981950Y-100644062D01*
X97985475Y-100647432D01*
X98148949Y-100810594D01*
X98247385Y-100930187D01*
X98295590Y-101028076D01*
X98308368Y-101126126D01*
X98285851Y-101283625D01*
X98178906Y-101517688D01*
X97999298Y-101732803D01*
X97764082Y-101904579D01*
X97742744Y-101915921D01*
X97609976Y-101962553D01*
X97471639Y-101960030D01*
X97310507Y-101902609D01*
X97109356Y-101784545D01*
X96850962Y-101600096D01*
X96705519Y-101494678D01*
X96262773Y-101210144D01*
X95796021Y-100956812D01*
X95335903Y-100750390D01*
X94913062Y-100606588D01*
X94826449Y-100583903D01*
X94651155Y-100545701D01*
X94469473Y-100519807D01*
X94257101Y-100504075D01*
X93989732Y-100496360D01*
X93643062Y-100494519D01*
X93567251Y-100494637D01*
X93255987Y-100497045D01*
X93018823Y-100504437D01*
X92831261Y-100519442D01*
X92668804Y-100544691D01*
X92506958Y-100582812D01*
X92321225Y-100636438D01*
X91707183Y-100860845D01*
X91036006Y-101195936D01*
X90418997Y-101601723D01*
X90401661Y-101614748D01*
X90152387Y-101794004D01*
X89959602Y-101907585D01*
X89803549Y-101958564D01*
X89664472Y-101950010D01*
X89522617Y-101884994D01*
X89358227Y-101766586D01*
X89225027Y-101650723D01*
X89047747Y-101443230D01*
X88951702Y-101244013D01*
X88944960Y-101066733D01*
X88991399Y-100965079D01*
X89133051Y-100788882D01*
X89359003Y-100577768D01*
X89663599Y-100336874D01*
X90041179Y-100071337D01*
X90460102Y-99806309D01*
X91138864Y-99447699D01*
X91812743Y-99183962D01*
X92494046Y-99011470D01*
X93195083Y-98926596D01*
X93928164Y-98925713D01*
X94349253Y-98963270D01*
G37*
G36*
X115260017Y-109404038D02*
G01*
X115350958Y-109463814D01*
X115478836Y-109626346D01*
X115526322Y-109822056D01*
X115490048Y-110025432D01*
X115366641Y-110210959D01*
X115315641Y-110258599D01*
X115176542Y-110340625D01*
X114999796Y-110362481D01*
X114800620Y-110326262D01*
X114629324Y-110215957D01*
X114517637Y-110053529D01*
X114474830Y-109861354D01*
X114510177Y-109661809D01*
X114632952Y-109477269D01*
X114816027Y-109354901D01*
X115027309Y-109329147D01*
X115260017Y-109404038D01*
G37*
G36*
X110975238Y-109338670D02*
G01*
X111072373Y-109389336D01*
X111194980Y-109501992D01*
X111260115Y-109568966D01*
X111339385Y-109672584D01*
X111365494Y-109772162D01*
X111355143Y-109910276D01*
X111312056Y-110076293D01*
X111190111Y-110245768D01*
X111093650Y-110311910D01*
X110899012Y-110367663D01*
X110705057Y-110343911D01*
X110532090Y-110253476D01*
X110400417Y-110109182D01*
X110330344Y-109923851D01*
X110342176Y-109710306D01*
X110413179Y-109548459D01*
X110566504Y-109409947D01*
X110795550Y-109340641D01*
X110861769Y-109333106D01*
X110975238Y-109338670D01*
G37*
G36*
X115064155Y-105907317D02*
G01*
X115223126Y-105973139D01*
X115369410Y-106104520D01*
X115476569Y-106272228D01*
X115518164Y-106447032D01*
X115502078Y-106619855D01*
X115424238Y-106789975D01*
X115270636Y-106912290D01*
X115223667Y-106935507D01*
X115002695Y-106986986D01*
X114800368Y-106948565D01*
X114634419Y-106831603D01*
X114522580Y-106647459D01*
X114482582Y-106407491D01*
X114515891Y-106240378D01*
X114631882Y-106067456D01*
X114809817Y-105948672D01*
X115027490Y-105904522D01*
X115064155Y-105907317D01*
G37*
%LPC*%
D11*
X104468500Y-88585800D03*
X104468500Y-92585800D03*
X104468500Y-96585800D03*
X104468500Y-101085800D03*
X108468500Y-88585800D03*
X108468500Y-92585800D03*
X108468500Y-96585800D03*
X108468500Y-101085800D03*
X112468500Y-88585800D03*
X112468500Y-92585800D03*
X112468500Y-96585800D03*
X112468500Y-101085800D03*
X116468500Y-88585800D03*
X116468500Y-92585800D03*
X116468500Y-96585800D03*
X116468500Y-101085800D03*
D12*
X104015600Y-126798400D03*
D13*
X107515600Y-126798400D03*
D12*
X124438500Y-98403800D03*
D13*
X124438500Y-101903800D03*
D14*
X90894501Y-113262800D03*
X89894500Y-114462800D03*
X89894500Y-113262800D03*
X89894500Y-112062800D03*
X88894502Y-113262800D03*
D15*
X124438500Y-87100800D03*
D16*
X124438500Y-90600800D03*
X124438500Y-94100800D03*
%LPD*%
M02*
