%TF.GenerationSoftware,KiCad,Pcbnew,8.0.7*%
%TF.CreationDate,2025-07-10T22:44:46+02:00*%
%TF.ProjectId,modbus-to-x,6d6f6462-7573-42d7-946f-2d782e6b6963,rev?*%
%TF.SameCoordinates,Original*%
%TF.FileFunction,Drillmap*%
%TF.FilePolarity,Positive*%
%FSLAX45Y45*%
G04 Gerber Fmt 4.5, Leading zero omitted, Abs format (unit mm)*
G04 Created by KiCad (PCBNEW 8.0.7) date 2025-07-10 22:44:46*
%MOMM*%
%LPD*%
G01*
G04 APERTURE LIST*
%ADD10C,0.100000*%
%ADD11C,0.050000*%
%ADD12C,0.200000*%
%ADD13C,0.102000*%
%ADD14C,0.120000*%
G04 APERTURE END LIST*
D10*
X8100000Y-13500000D02*
G75*
G02*
X8000000Y-13400000I0J100000D01*
G01*
X8000000Y-8100000D02*
G75*
G02*
X8100000Y-8000000I100000J0D01*
G01*
X13500000Y-13400000D02*
G75*
G02*
X13400000Y-13500000I-100000J0D01*
G01*
X13400000Y-8000000D02*
G75*
G02*
X13500000Y-8100000I0J-100000D01*
G01*
X8000000Y-13400000D02*
X8000000Y-8100000D01*
X13400000Y-13500000D02*
X8100000Y-13500000D01*
X8100000Y-8000000D02*
X13400000Y-8000000D01*
X13500000Y-8100000D02*
X13500000Y-13400000D01*
D11*
X8700000Y-8550000D02*
G75*
G02*
X8400000Y-8550000I-150000J0D01*
G01*
X8400000Y-8550000D02*
G75*
G02*
X8700000Y-8550000I150000J0D01*
G01*
X13100000Y-12950000D02*
G75*
G02*
X12800000Y-12950000I-150000J0D01*
G01*
X12800000Y-12950000D02*
G75*
G02*
X13100000Y-12950000I150000J0D01*
G01*
X13100000Y-8550000D02*
G75*
G02*
X12800000Y-8550000I-150000J0D01*
G01*
X12800000Y-8550000D02*
G75*
G02*
X13100000Y-8550000I150000J0D01*
G01*
X10150000Y-12200000D02*
G75*
G02*
X9850000Y-12200000I-150000J0D01*
G01*
X9850000Y-12200000D02*
G75*
G02*
X10150000Y-12200000I150000J0D01*
G01*
D12*
D10*
X8255240Y-10246600D02*
X8285240Y-10276600D01*
X8285240Y-10246600D02*
X8255240Y-10276600D01*
X8394120Y-10913230D02*
X8424120Y-10943230D01*
X8424120Y-10913230D02*
X8394120Y-10943230D01*
X8419520Y-11436470D02*
X8449520Y-11466470D01*
X8449520Y-11436470D02*
X8419520Y-11466470D01*
X8524480Y-12624040D02*
X8554480Y-12654040D01*
X8554480Y-12624040D02*
X8524480Y-12654040D01*
X8536360Y-12020670D02*
X8566360Y-12050670D01*
X8566360Y-12020670D02*
X8536360Y-12050670D01*
X8560040Y-8854680D02*
X8590040Y-8884680D01*
X8590040Y-8854680D02*
X8560040Y-8884680D01*
X8582370Y-11876410D02*
X8612370Y-11906410D01*
X8612370Y-11876410D02*
X8582370Y-11906410D01*
X8820840Y-10014070D02*
X8850840Y-10044070D01*
X8850840Y-10014070D02*
X8820840Y-10044070D01*
X8897040Y-10887830D02*
X8927040Y-10917830D01*
X8927040Y-10887830D02*
X8897040Y-10917830D01*
X9057870Y-9002310D02*
X9087870Y-9032310D01*
X9087870Y-9002310D02*
X9057870Y-9032310D01*
X9059600Y-10964030D02*
X9089600Y-10994030D01*
X9089600Y-10964030D02*
X9059600Y-10994030D01*
X9095550Y-10880630D02*
X9125550Y-10910630D01*
X9125550Y-10880630D02*
X9095550Y-10910630D01*
X9110400Y-11600710D02*
X9140400Y-11630710D01*
X9140400Y-11600710D02*
X9110400Y-11630710D01*
X9113360Y-11520710D02*
X9143360Y-11550710D01*
X9143360Y-11520710D02*
X9113360Y-11550710D01*
X9196760Y-10689710D02*
X9226760Y-10719710D01*
X9226760Y-10689710D02*
X9196760Y-10719710D01*
X9205200Y-9098520D02*
X9235200Y-9128520D01*
X9235200Y-9098520D02*
X9205200Y-9128520D01*
X9349160Y-10008990D02*
X9379160Y-10038990D01*
X9379160Y-10008990D02*
X9349160Y-10038990D01*
X9354240Y-10125830D02*
X9384240Y-10155830D01*
X9384240Y-10125830D02*
X9354240Y-10155830D01*
X9394880Y-10501750D02*
X9424880Y-10531750D01*
X9424880Y-10501750D02*
X9394880Y-10531750D01*
X9473240Y-8370990D02*
X9503240Y-8400990D01*
X9503240Y-8370990D02*
X9473240Y-8400990D01*
X9521880Y-10608430D02*
X9551880Y-10638430D01*
X9551880Y-10608430D02*
X9521880Y-10638430D01*
X9674280Y-11385670D02*
X9704280Y-11415670D01*
X9704280Y-11385670D02*
X9674280Y-11415670D01*
X9745680Y-8362910D02*
X9775680Y-8392910D01*
X9775680Y-8362910D02*
X9745680Y-8392910D01*
X9775770Y-8834360D02*
X9805770Y-8864360D01*
X9805770Y-8834360D02*
X9775770Y-8864360D01*
X9845280Y-12649440D02*
X9875280Y-12679440D01*
X9875280Y-12649440D02*
X9845280Y-12679440D01*
X9897420Y-10050010D02*
X9927420Y-10080010D01*
X9927420Y-10050010D02*
X9897420Y-10080010D01*
X10004480Y-11238350D02*
X10034480Y-11268350D01*
X10034480Y-11238350D02*
X10004480Y-11268350D01*
X10004870Y-10936510D02*
X10034870Y-10966510D01*
X10034870Y-10936510D02*
X10004870Y-10966510D01*
X10004870Y-11139710D02*
X10034870Y-11169710D01*
X10034870Y-11139710D02*
X10004870Y-11169710D01*
X10168120Y-9619430D02*
X10198120Y-9649430D01*
X10198120Y-9619430D02*
X10168120Y-9649430D01*
X10207680Y-9252070D02*
X10237680Y-9282070D01*
X10237680Y-9252070D02*
X10207680Y-9282070D01*
X10283880Y-9155550D02*
X10313880Y-9185550D01*
X10313880Y-9155550D02*
X10283880Y-9185550D01*
X10332960Y-9758920D02*
X10362960Y-9788920D01*
X10362960Y-9758920D02*
X10332960Y-9788920D01*
X10368520Y-10368520D02*
X10398520Y-10398520D01*
X10398520Y-10368520D02*
X10368520Y-10398520D01*
X10368520Y-10465040D02*
X10398520Y-10495040D01*
X10398520Y-10465040D02*
X10368520Y-10495040D01*
X10368520Y-10566640D02*
X10398520Y-10596640D01*
X10398520Y-10566640D02*
X10368520Y-10596640D01*
X10375710Y-12435110D02*
X10405710Y-12465110D01*
X10405710Y-12435110D02*
X10375710Y-12465110D01*
X10459960Y-9809720D02*
X10489960Y-9839720D01*
X10489960Y-9809720D02*
X10459960Y-9839720D01*
X10523030Y-12435110D02*
X10553030Y-12465110D01*
X10553030Y-12435110D02*
X10523030Y-12465110D01*
X10581880Y-8911700D02*
X10611880Y-8941700D01*
X10611880Y-8911700D02*
X10581880Y-8941700D01*
X10649640Y-12046070D02*
X10679640Y-12076070D01*
X10679640Y-12046070D02*
X10649640Y-12076070D01*
X10665270Y-11038110D02*
X10695270Y-11068110D01*
X10695270Y-11038110D02*
X10665270Y-11068110D01*
X10670350Y-11154950D02*
X10700350Y-11184950D01*
X10700350Y-11154950D02*
X10670350Y-11184950D01*
X10693640Y-12436080D02*
X10723640Y-12466080D01*
X10723640Y-12436080D02*
X10693640Y-12466080D01*
X10868470Y-10949210D02*
X10898470Y-10979210D01*
X10898470Y-10949210D02*
X10868470Y-10979210D01*
X10984920Y-11304390D02*
X11014920Y-11334390D01*
X11014920Y-11304390D02*
X10984920Y-11334390D01*
X11018760Y-13132040D02*
X11048760Y-13162040D01*
X11048760Y-13132040D02*
X11018760Y-13162040D01*
X11064480Y-12136360D02*
X11094480Y-12166360D01*
X11094480Y-12136360D02*
X11064480Y-12166360D01*
X11303240Y-11430240D02*
X11333240Y-11460240D01*
X11333240Y-11430240D02*
X11303240Y-11460240D01*
X11330750Y-11073670D02*
X11360750Y-11103670D01*
X11360750Y-11073670D02*
X11330750Y-11103670D01*
X11330750Y-11195590D02*
X11360750Y-11225590D01*
X11360750Y-11195590D02*
X11330750Y-11225590D01*
X11348960Y-11785840D02*
X11378960Y-11815840D01*
X11378960Y-11785840D02*
X11348960Y-11815840D01*
X11691040Y-12452470D02*
X11721040Y-12482470D01*
X11721040Y-12452470D02*
X11691040Y-12482470D01*
X11760440Y-11034000D02*
X11790440Y-11064000D01*
X11790440Y-11034000D02*
X11760440Y-11064000D01*
X11853600Y-10933550D02*
X11883600Y-10963550D01*
X11883600Y-10933550D02*
X11853600Y-10963550D01*
X12073410Y-11195590D02*
X12103410Y-11225590D01*
X12103410Y-11195590D02*
X12073410Y-11225590D01*
X12087280Y-11979170D02*
X12117280Y-12009170D01*
X12117280Y-11979170D02*
X12087280Y-12009170D01*
X12112680Y-10933550D02*
X12142680Y-10963550D01*
X12142680Y-10933550D02*
X12112680Y-10963550D01*
X12184190Y-11703590D02*
X12214190Y-11733590D01*
X12214190Y-11703590D02*
X12184190Y-11733590D01*
X12265470Y-11204150D02*
X12295470Y-11234150D01*
X12295470Y-11204150D02*
X12265470Y-11234150D01*
X12355760Y-10909210D02*
X12385760Y-10939210D01*
X12385760Y-10909210D02*
X12355760Y-10939210D01*
X12402630Y-12071890D02*
X12432630Y-12101890D01*
X12432630Y-12071890D02*
X12402630Y-12101890D01*
X12407710Y-12450350D02*
X12437710Y-12480350D01*
X12437710Y-12450350D02*
X12407710Y-12480350D01*
X12415760Y-8869920D02*
X12445760Y-8899920D01*
X12445760Y-8869920D02*
X12415760Y-8899920D01*
X12415760Y-9083280D02*
X12445760Y-9113280D01*
X12445760Y-9083280D02*
X12415760Y-9113280D01*
X12415760Y-10058640D02*
X12445760Y-10088640D01*
X12445760Y-10058640D02*
X12415760Y-10088640D01*
X12415760Y-10170400D02*
X12445760Y-10200400D01*
X12445760Y-10170400D02*
X12415760Y-10200400D01*
X12415760Y-10272000D02*
X12445760Y-10302000D01*
X12445760Y-10272000D02*
X12415760Y-10302000D01*
X12417870Y-9219470D02*
X12447870Y-9249470D01*
X12447870Y-9219470D02*
X12417870Y-9249470D01*
X12420840Y-9621760D02*
X12450840Y-9651760D01*
X12450840Y-9621760D02*
X12420840Y-9651760D01*
X12554640Y-11405100D02*
X12584640Y-11435100D01*
X12584640Y-11405100D02*
X12554640Y-11435100D01*
X12608800Y-10769840D02*
X12638800Y-10799840D01*
X12638800Y-10769840D02*
X12608800Y-10799840D01*
X12620680Y-11619350D02*
X12650680Y-11649350D01*
X12650680Y-11619350D02*
X12620680Y-11649350D01*
X12635920Y-12269590D02*
X12665920Y-12299590D01*
X12665920Y-12269590D02*
X12635920Y-12299590D01*
X12651160Y-10491590D02*
X12681160Y-10521590D01*
X12681160Y-10491590D02*
X12651160Y-10521590D01*
X12701960Y-11248510D02*
X12731960Y-11278510D01*
X12731960Y-11248510D02*
X12701960Y-11278510D01*
X12768000Y-11908910D02*
X12798000Y-11938910D01*
X12798000Y-11908910D02*
X12768000Y-11938910D01*
X12772610Y-11517750D02*
X12802610Y-11547750D01*
X12802610Y-11517750D02*
X12772610Y-11547750D01*
X12976670Y-11596910D02*
X13006670Y-11626910D01*
X13006670Y-11596910D02*
X12976670Y-11626910D01*
X13116800Y-11851880D02*
X13146800Y-11881880D01*
X13146800Y-11851880D02*
X13116800Y-11881880D01*
X9312570Y-11535710D02*
G75*
G02*
X9282570Y-11535710I-15000J0D01*
G01*
X9282570Y-11535710D02*
G75*
G02*
X9312570Y-11535710I15000J0D01*
G01*
X9412570Y-11415710D02*
G75*
G02*
X9382570Y-11415710I-15000J0D01*
G01*
X9382570Y-11415710D02*
G75*
G02*
X9412570Y-11415710I15000J0D01*
G01*
X9412570Y-11535710D02*
G75*
G02*
X9382570Y-11535710I-15000J0D01*
G01*
X9382570Y-11535710D02*
G75*
G02*
X9412570Y-11535710I15000J0D01*
G01*
X9412570Y-11655710D02*
G75*
G02*
X9382570Y-11655710I-15000J0D01*
G01*
X9382570Y-11655710D02*
G75*
G02*
X9412570Y-11655710I15000J0D01*
G01*
X9512570Y-11535710D02*
G75*
G02*
X9482570Y-11535710I-15000J0D01*
G01*
X9482570Y-11535710D02*
G75*
G02*
X9512570Y-11535710I15000J0D01*
G01*
X10869970Y-9068010D02*
G75*
G02*
X10839970Y-9068010I-15000J0D01*
G01*
X10839970Y-9068010D02*
G75*
G02*
X10869970Y-9068010I15000J0D01*
G01*
X10869970Y-9468010D02*
G75*
G02*
X10839970Y-9468010I-15000J0D01*
G01*
X10839970Y-9468010D02*
G75*
G02*
X10869970Y-9468010I15000J0D01*
G01*
X10869970Y-9868010D02*
G75*
G02*
X10839970Y-9868010I-15000J0D01*
G01*
X10839970Y-9868010D02*
G75*
G02*
X10869970Y-9868010I15000J0D01*
G01*
X10869970Y-10318010D02*
G75*
G02*
X10839970Y-10318010I-15000J0D01*
G01*
X10839970Y-10318010D02*
G75*
G02*
X10869970Y-10318010I15000J0D01*
G01*
X11269970Y-9068010D02*
G75*
G02*
X11239970Y-9068010I-15000J0D01*
G01*
X11239970Y-9068010D02*
G75*
G02*
X11269970Y-9068010I15000J0D01*
G01*
X11269970Y-9468010D02*
G75*
G02*
X11239970Y-9468010I-15000J0D01*
G01*
X11239970Y-9468010D02*
G75*
G02*
X11269970Y-9468010I15000J0D01*
G01*
X11269970Y-9868010D02*
G75*
G02*
X11239970Y-9868010I-15000J0D01*
G01*
X11239970Y-9868010D02*
G75*
G02*
X11269970Y-9868010I15000J0D01*
G01*
X11269970Y-10318010D02*
G75*
G02*
X11239970Y-10318010I-15000J0D01*
G01*
X11239970Y-10318010D02*
G75*
G02*
X11269970Y-10318010I15000J0D01*
G01*
X11669970Y-9068010D02*
G75*
G02*
X11639970Y-9068010I-15000J0D01*
G01*
X11639970Y-9068010D02*
G75*
G02*
X11669970Y-9068010I15000J0D01*
G01*
X11669970Y-9468010D02*
G75*
G02*
X11639970Y-9468010I-15000J0D01*
G01*
X11639970Y-9468010D02*
G75*
G02*
X11669970Y-9468010I15000J0D01*
G01*
X11669970Y-9868010D02*
G75*
G02*
X11639970Y-9868010I-15000J0D01*
G01*
X11639970Y-9868010D02*
G75*
G02*
X11669970Y-9868010I15000J0D01*
G01*
X11669970Y-10318010D02*
G75*
G02*
X11639970Y-10318010I-15000J0D01*
G01*
X11639970Y-10318010D02*
G75*
G02*
X11669970Y-10318010I15000J0D01*
G01*
X12069970Y-9068010D02*
G75*
G02*
X12039970Y-9068010I-15000J0D01*
G01*
X12039970Y-9068010D02*
G75*
G02*
X12069970Y-9068010I15000J0D01*
G01*
X12069970Y-9468010D02*
G75*
G02*
X12039970Y-9468010I-15000J0D01*
G01*
X12039970Y-9468010D02*
G75*
G02*
X12069970Y-9468010I15000J0D01*
G01*
X12069970Y-9868010D02*
G75*
G02*
X12039970Y-9868010I-15000J0D01*
G01*
X12039970Y-9868010D02*
G75*
G02*
X12069970Y-9868010I15000J0D01*
G01*
X12069970Y-10318010D02*
G75*
G02*
X12039970Y-10318010I-15000J0D01*
G01*
X12039970Y-10318010D02*
G75*
G02*
X12069970Y-10318010I15000J0D01*
G01*
X13162280Y-12075460D02*
X13162280Y-12175460D01*
X13112280Y-12125460D02*
X13212280Y-12125460D01*
X13162280Y-12329460D02*
X13162280Y-12429460D01*
X13112280Y-12379460D02*
X13212280Y-12379460D01*
D13*
X8509503Y-12863063D02*
X8509503Y-12790937D01*
X8437377Y-12790937D01*
X8437377Y-12863063D01*
X8509503Y-12863063D01*
X8509503Y-13117063D02*
X8509503Y-13044937D01*
X8437377Y-13044937D01*
X8437377Y-13117063D01*
X8509503Y-13117063D01*
X8763503Y-12863063D02*
X8763503Y-12790937D01*
X8691377Y-12790937D01*
X8691377Y-12863063D01*
X8763503Y-12863063D01*
X8763503Y-13117063D02*
X8763503Y-13044937D01*
X8691377Y-13044937D01*
X8691377Y-13117063D01*
X8763503Y-13117063D01*
X9017503Y-12863063D02*
X9017503Y-12790937D01*
X8945377Y-12790937D01*
X8945377Y-12863063D01*
X9017503Y-12863063D01*
X9017503Y-13117063D02*
X9017503Y-13044937D01*
X8945377Y-13044937D01*
X8945377Y-13117063D01*
X9017503Y-13117063D01*
X9271503Y-12863063D02*
X9271503Y-12790937D01*
X9199377Y-12790937D01*
X9199377Y-12863063D01*
X9271503Y-12863063D01*
X9271503Y-13117063D02*
X9271503Y-13044937D01*
X9199377Y-13044937D01*
X9199377Y-13117063D01*
X9271503Y-13117063D01*
X9525503Y-12863063D02*
X9525503Y-12790937D01*
X9453377Y-12790937D01*
X9453377Y-12863063D01*
X9525503Y-12863063D01*
X9525503Y-13117063D02*
X9525503Y-13044937D01*
X9453377Y-13044937D01*
X9453377Y-13117063D01*
X9525503Y-13117063D01*
X9779503Y-12863063D02*
X9779503Y-12790937D01*
X9707377Y-12790937D01*
X9707377Y-12863063D01*
X9779503Y-12863063D01*
X9779503Y-13117063D02*
X9779503Y-13044937D01*
X9707377Y-13044937D01*
X9707377Y-13117063D01*
X9779503Y-13117063D01*
X10033503Y-12863063D02*
X10033503Y-12790937D01*
X9961377Y-12790937D01*
X9961377Y-12863063D01*
X10033503Y-12863063D01*
X10033503Y-13117063D02*
X10033503Y-13044937D01*
X9961377Y-13044937D01*
X9961377Y-13117063D01*
X10033503Y-13117063D01*
X10287503Y-12863063D02*
X10287503Y-12790937D01*
X10215377Y-12790937D01*
X10215377Y-12863063D01*
X10287503Y-12863063D01*
X10287503Y-13117063D02*
X10287503Y-13044937D01*
X10215377Y-13044937D01*
X10215377Y-13117063D01*
X10287503Y-13117063D01*
X10541503Y-12863063D02*
X10541503Y-12790937D01*
X10469377Y-12790937D01*
X10469377Y-12863063D01*
X10541503Y-12863063D01*
X10541503Y-13117063D02*
X10541503Y-13044937D01*
X10469377Y-13044937D01*
X10469377Y-13117063D01*
X10541503Y-13117063D01*
X10795503Y-12863063D02*
X10795503Y-12790937D01*
X10723377Y-12790937D01*
X10723377Y-12863063D01*
X10795503Y-12863063D01*
X10795503Y-13117063D02*
X10795503Y-13044937D01*
X10723377Y-13044937D01*
X10723377Y-13117063D01*
X10795503Y-13117063D01*
D14*
X11427160Y-13111670D02*
X11487160Y-13051670D01*
X11427160Y-12991670D01*
X11367160Y-13051670D01*
X11427160Y-13111670D01*
X11777160Y-13111670D02*
X11837160Y-13051670D01*
X11777160Y-12991670D01*
X11717160Y-13051670D01*
X11777160Y-13111670D01*
X12851970Y-8979510D02*
X12911970Y-8919510D01*
X12851970Y-8859510D01*
X12791970Y-8919510D01*
X12851970Y-8979510D01*
X12851970Y-9329510D02*
X12911970Y-9269510D01*
X12851970Y-9209510D01*
X12791970Y-9269510D01*
X12851970Y-9329510D01*
X12851970Y-9679510D02*
X12911970Y-9619510D01*
X12851970Y-9559510D01*
X12791970Y-9619510D01*
X12851970Y-9679510D01*
X12851970Y-10109810D02*
X12911970Y-10049810D01*
X12851970Y-9989810D01*
X12791970Y-10049810D01*
X12851970Y-10109810D01*
X12851970Y-10459810D02*
X12911970Y-10399810D01*
X12851970Y-10339810D01*
X12791970Y-10399810D01*
X12851970Y-10459810D01*
D12*
X8255777Y-13816484D02*
X8255777Y-13616484D01*
X8255777Y-13616484D02*
X8303396Y-13616484D01*
X8303396Y-13616484D02*
X8331967Y-13626008D01*
X8331967Y-13626008D02*
X8351015Y-13645055D01*
X8351015Y-13645055D02*
X8360539Y-13664103D01*
X8360539Y-13664103D02*
X8370062Y-13702198D01*
X8370062Y-13702198D02*
X8370062Y-13730769D01*
X8370062Y-13730769D02*
X8360539Y-13768865D01*
X8360539Y-13768865D02*
X8351015Y-13787912D01*
X8351015Y-13787912D02*
X8331967Y-13806960D01*
X8331967Y-13806960D02*
X8303396Y-13816484D01*
X8303396Y-13816484D02*
X8255777Y-13816484D01*
X8455777Y-13816484D02*
X8455777Y-13683150D01*
X8455777Y-13721246D02*
X8465301Y-13702198D01*
X8465301Y-13702198D02*
X8474824Y-13692674D01*
X8474824Y-13692674D02*
X8493872Y-13683150D01*
X8493872Y-13683150D02*
X8512920Y-13683150D01*
X8579586Y-13816484D02*
X8579586Y-13683150D01*
X8579586Y-13616484D02*
X8570063Y-13626008D01*
X8570063Y-13626008D02*
X8579586Y-13635531D01*
X8579586Y-13635531D02*
X8589110Y-13626008D01*
X8589110Y-13626008D02*
X8579586Y-13616484D01*
X8579586Y-13616484D02*
X8579586Y-13635531D01*
X8703396Y-13816484D02*
X8684348Y-13806960D01*
X8684348Y-13806960D02*
X8674824Y-13787912D01*
X8674824Y-13787912D02*
X8674824Y-13616484D01*
X8808158Y-13816484D02*
X8789110Y-13806960D01*
X8789110Y-13806960D02*
X8779586Y-13787912D01*
X8779586Y-13787912D02*
X8779586Y-13616484D01*
X9036729Y-13816484D02*
X9036729Y-13616484D01*
X9036729Y-13616484D02*
X9103396Y-13759341D01*
X9103396Y-13759341D02*
X9170063Y-13616484D01*
X9170063Y-13616484D02*
X9170063Y-13816484D01*
X9351015Y-13816484D02*
X9351015Y-13711722D01*
X9351015Y-13711722D02*
X9341491Y-13692674D01*
X9341491Y-13692674D02*
X9322444Y-13683150D01*
X9322444Y-13683150D02*
X9284348Y-13683150D01*
X9284348Y-13683150D02*
X9265301Y-13692674D01*
X9351015Y-13806960D02*
X9331967Y-13816484D01*
X9331967Y-13816484D02*
X9284348Y-13816484D01*
X9284348Y-13816484D02*
X9265301Y-13806960D01*
X9265301Y-13806960D02*
X9255777Y-13787912D01*
X9255777Y-13787912D02*
X9255777Y-13768865D01*
X9255777Y-13768865D02*
X9265301Y-13749817D01*
X9265301Y-13749817D02*
X9284348Y-13740293D01*
X9284348Y-13740293D02*
X9331967Y-13740293D01*
X9331967Y-13740293D02*
X9351015Y-13730769D01*
X9446253Y-13683150D02*
X9446253Y-13883150D01*
X9446253Y-13692674D02*
X9465301Y-13683150D01*
X9465301Y-13683150D02*
X9503396Y-13683150D01*
X9503396Y-13683150D02*
X9522444Y-13692674D01*
X9522444Y-13692674D02*
X9531967Y-13702198D01*
X9531967Y-13702198D02*
X9541491Y-13721246D01*
X9541491Y-13721246D02*
X9541491Y-13778388D01*
X9541491Y-13778388D02*
X9531967Y-13797436D01*
X9531967Y-13797436D02*
X9522444Y-13806960D01*
X9522444Y-13806960D02*
X9503396Y-13816484D01*
X9503396Y-13816484D02*
X9465301Y-13816484D01*
X9465301Y-13816484D02*
X9446253Y-13806960D01*
X9627205Y-13797436D02*
X9636729Y-13806960D01*
X9636729Y-13806960D02*
X9627205Y-13816484D01*
X9627205Y-13816484D02*
X9617682Y-13806960D01*
X9617682Y-13806960D02*
X9627205Y-13797436D01*
X9627205Y-13797436D02*
X9627205Y-13816484D01*
X9627205Y-13692674D02*
X9636729Y-13702198D01*
X9636729Y-13702198D02*
X9627205Y-13711722D01*
X9627205Y-13711722D02*
X9617682Y-13702198D01*
X9617682Y-13702198D02*
X9627205Y-13692674D01*
X9627205Y-13692674D02*
X9627205Y-13711722D01*
D10*
X7965000Y-14130000D02*
X7995000Y-14160000D01*
X7995000Y-14130000D02*
X7965000Y-14160000D01*
D12*
X8293872Y-14036484D02*
X8312920Y-14036484D01*
X8312920Y-14036484D02*
X8331967Y-14046008D01*
X8331967Y-14046008D02*
X8341491Y-14055531D01*
X8341491Y-14055531D02*
X8351015Y-14074579D01*
X8351015Y-14074579D02*
X8360539Y-14112674D01*
X8360539Y-14112674D02*
X8360539Y-14160293D01*
X8360539Y-14160293D02*
X8351015Y-14198388D01*
X8351015Y-14198388D02*
X8341491Y-14217436D01*
X8341491Y-14217436D02*
X8331967Y-14226960D01*
X8331967Y-14226960D02*
X8312920Y-14236484D01*
X8312920Y-14236484D02*
X8293872Y-14236484D01*
X8293872Y-14236484D02*
X8274824Y-14226960D01*
X8274824Y-14226960D02*
X8265301Y-14217436D01*
X8265301Y-14217436D02*
X8255777Y-14198388D01*
X8255777Y-14198388D02*
X8246253Y-14160293D01*
X8246253Y-14160293D02*
X8246253Y-14112674D01*
X8246253Y-14112674D02*
X8255777Y-14074579D01*
X8255777Y-14074579D02*
X8265301Y-14055531D01*
X8265301Y-14055531D02*
X8274824Y-14046008D01*
X8274824Y-14046008D02*
X8293872Y-14036484D01*
X8446253Y-14217436D02*
X8455777Y-14226960D01*
X8455777Y-14226960D02*
X8446253Y-14236484D01*
X8446253Y-14236484D02*
X8436729Y-14226960D01*
X8436729Y-14226960D02*
X8446253Y-14217436D01*
X8446253Y-14217436D02*
X8446253Y-14236484D01*
X8522444Y-14036484D02*
X8646253Y-14036484D01*
X8646253Y-14036484D02*
X8579586Y-14112674D01*
X8579586Y-14112674D02*
X8608158Y-14112674D01*
X8608158Y-14112674D02*
X8627205Y-14122198D01*
X8627205Y-14122198D02*
X8636729Y-14131722D01*
X8636729Y-14131722D02*
X8646253Y-14150769D01*
X8646253Y-14150769D02*
X8646253Y-14198388D01*
X8646253Y-14198388D02*
X8636729Y-14217436D01*
X8636729Y-14217436D02*
X8627205Y-14226960D01*
X8627205Y-14226960D02*
X8608158Y-14236484D01*
X8608158Y-14236484D02*
X8551015Y-14236484D01*
X8551015Y-14236484D02*
X8531967Y-14226960D01*
X8531967Y-14226960D02*
X8522444Y-14217436D01*
X8770063Y-14036484D02*
X8789110Y-14036484D01*
X8789110Y-14036484D02*
X8808158Y-14046008D01*
X8808158Y-14046008D02*
X8817682Y-14055531D01*
X8817682Y-14055531D02*
X8827205Y-14074579D01*
X8827205Y-14074579D02*
X8836729Y-14112674D01*
X8836729Y-14112674D02*
X8836729Y-14160293D01*
X8836729Y-14160293D02*
X8827205Y-14198388D01*
X8827205Y-14198388D02*
X8817682Y-14217436D01*
X8817682Y-14217436D02*
X8808158Y-14226960D01*
X8808158Y-14226960D02*
X8789110Y-14236484D01*
X8789110Y-14236484D02*
X8770063Y-14236484D01*
X8770063Y-14236484D02*
X8751015Y-14226960D01*
X8751015Y-14226960D02*
X8741491Y-14217436D01*
X8741491Y-14217436D02*
X8731967Y-14198388D01*
X8731967Y-14198388D02*
X8722444Y-14160293D01*
X8722444Y-14160293D02*
X8722444Y-14112674D01*
X8722444Y-14112674D02*
X8731967Y-14074579D01*
X8731967Y-14074579D02*
X8741491Y-14055531D01*
X8741491Y-14055531D02*
X8751015Y-14046008D01*
X8751015Y-14046008D02*
X8770063Y-14036484D01*
X8960539Y-14036484D02*
X8979586Y-14036484D01*
X8979586Y-14036484D02*
X8998634Y-14046008D01*
X8998634Y-14046008D02*
X9008158Y-14055531D01*
X9008158Y-14055531D02*
X9017682Y-14074579D01*
X9017682Y-14074579D02*
X9027205Y-14112674D01*
X9027205Y-14112674D02*
X9027205Y-14160293D01*
X9027205Y-14160293D02*
X9017682Y-14198388D01*
X9017682Y-14198388D02*
X9008158Y-14217436D01*
X9008158Y-14217436D02*
X8998634Y-14226960D01*
X8998634Y-14226960D02*
X8979586Y-14236484D01*
X8979586Y-14236484D02*
X8960539Y-14236484D01*
X8960539Y-14236484D02*
X8941491Y-14226960D01*
X8941491Y-14226960D02*
X8931967Y-14217436D01*
X8931967Y-14217436D02*
X8922444Y-14198388D01*
X8922444Y-14198388D02*
X8912920Y-14160293D01*
X8912920Y-14160293D02*
X8912920Y-14112674D01*
X8912920Y-14112674D02*
X8922444Y-14074579D01*
X8922444Y-14074579D02*
X8931967Y-14055531D01*
X8931967Y-14055531D02*
X8941491Y-14046008D01*
X8941491Y-14046008D02*
X8960539Y-14036484D01*
X9112920Y-14236484D02*
X9112920Y-14103150D01*
X9112920Y-14122198D02*
X9122444Y-14112674D01*
X9122444Y-14112674D02*
X9141491Y-14103150D01*
X9141491Y-14103150D02*
X9170063Y-14103150D01*
X9170063Y-14103150D02*
X9189110Y-14112674D01*
X9189110Y-14112674D02*
X9198634Y-14131722D01*
X9198634Y-14131722D02*
X9198634Y-14236484D01*
X9198634Y-14131722D02*
X9208158Y-14112674D01*
X9208158Y-14112674D02*
X9227205Y-14103150D01*
X9227205Y-14103150D02*
X9255777Y-14103150D01*
X9255777Y-14103150D02*
X9274825Y-14112674D01*
X9274825Y-14112674D02*
X9284348Y-14131722D01*
X9284348Y-14131722D02*
X9284348Y-14236484D01*
X9379586Y-14236484D02*
X9379586Y-14103150D01*
X9379586Y-14122198D02*
X9389110Y-14112674D01*
X9389110Y-14112674D02*
X9408158Y-14103150D01*
X9408158Y-14103150D02*
X9436729Y-14103150D01*
X9436729Y-14103150D02*
X9455777Y-14112674D01*
X9455777Y-14112674D02*
X9465301Y-14131722D01*
X9465301Y-14131722D02*
X9465301Y-14236484D01*
X9465301Y-14131722D02*
X9474825Y-14112674D01*
X9474825Y-14112674D02*
X9493872Y-14103150D01*
X9493872Y-14103150D02*
X9522444Y-14103150D01*
X9522444Y-14103150D02*
X9541491Y-14112674D01*
X9541491Y-14112674D02*
X9551015Y-14131722D01*
X9551015Y-14131722D02*
X9551015Y-14236484D01*
X9941491Y-14026960D02*
X9770063Y-14284103D01*
X10198634Y-14036484D02*
X10217682Y-14036484D01*
X10217682Y-14036484D02*
X10236729Y-14046008D01*
X10236729Y-14046008D02*
X10246253Y-14055531D01*
X10246253Y-14055531D02*
X10255777Y-14074579D01*
X10255777Y-14074579D02*
X10265301Y-14112674D01*
X10265301Y-14112674D02*
X10265301Y-14160293D01*
X10265301Y-14160293D02*
X10255777Y-14198388D01*
X10255777Y-14198388D02*
X10246253Y-14217436D01*
X10246253Y-14217436D02*
X10236729Y-14226960D01*
X10236729Y-14226960D02*
X10217682Y-14236484D01*
X10217682Y-14236484D02*
X10198634Y-14236484D01*
X10198634Y-14236484D02*
X10179587Y-14226960D01*
X10179587Y-14226960D02*
X10170063Y-14217436D01*
X10170063Y-14217436D02*
X10160539Y-14198388D01*
X10160539Y-14198388D02*
X10151015Y-14160293D01*
X10151015Y-14160293D02*
X10151015Y-14112674D01*
X10151015Y-14112674D02*
X10160539Y-14074579D01*
X10160539Y-14074579D02*
X10170063Y-14055531D01*
X10170063Y-14055531D02*
X10179587Y-14046008D01*
X10179587Y-14046008D02*
X10198634Y-14036484D01*
X10351015Y-14217436D02*
X10360539Y-14226960D01*
X10360539Y-14226960D02*
X10351015Y-14236484D01*
X10351015Y-14236484D02*
X10341491Y-14226960D01*
X10341491Y-14226960D02*
X10351015Y-14217436D01*
X10351015Y-14217436D02*
X10351015Y-14236484D01*
X10484348Y-14036484D02*
X10503396Y-14036484D01*
X10503396Y-14036484D02*
X10522444Y-14046008D01*
X10522444Y-14046008D02*
X10531968Y-14055531D01*
X10531968Y-14055531D02*
X10541491Y-14074579D01*
X10541491Y-14074579D02*
X10551015Y-14112674D01*
X10551015Y-14112674D02*
X10551015Y-14160293D01*
X10551015Y-14160293D02*
X10541491Y-14198388D01*
X10541491Y-14198388D02*
X10531968Y-14217436D01*
X10531968Y-14217436D02*
X10522444Y-14226960D01*
X10522444Y-14226960D02*
X10503396Y-14236484D01*
X10503396Y-14236484D02*
X10484348Y-14236484D01*
X10484348Y-14236484D02*
X10465301Y-14226960D01*
X10465301Y-14226960D02*
X10455777Y-14217436D01*
X10455777Y-14217436D02*
X10446253Y-14198388D01*
X10446253Y-14198388D02*
X10436729Y-14160293D01*
X10436729Y-14160293D02*
X10436729Y-14112674D01*
X10436729Y-14112674D02*
X10446253Y-14074579D01*
X10446253Y-14074579D02*
X10455777Y-14055531D01*
X10455777Y-14055531D02*
X10465301Y-14046008D01*
X10465301Y-14046008D02*
X10484348Y-14036484D01*
X10741491Y-14236484D02*
X10627206Y-14236484D01*
X10684348Y-14236484D02*
X10684348Y-14036484D01*
X10684348Y-14036484D02*
X10665301Y-14065055D01*
X10665301Y-14065055D02*
X10646253Y-14084103D01*
X10646253Y-14084103D02*
X10627206Y-14093627D01*
X10931968Y-14236484D02*
X10817682Y-14236484D01*
X10874825Y-14236484D02*
X10874825Y-14036484D01*
X10874825Y-14036484D02*
X10855777Y-14065055D01*
X10855777Y-14065055D02*
X10836729Y-14084103D01*
X10836729Y-14084103D02*
X10817682Y-14093627D01*
X11046253Y-14122198D02*
X11027206Y-14112674D01*
X11027206Y-14112674D02*
X11017682Y-14103150D01*
X11017682Y-14103150D02*
X11008158Y-14084103D01*
X11008158Y-14084103D02*
X11008158Y-14074579D01*
X11008158Y-14074579D02*
X11017682Y-14055531D01*
X11017682Y-14055531D02*
X11027206Y-14046008D01*
X11027206Y-14046008D02*
X11046253Y-14036484D01*
X11046253Y-14036484D02*
X11084349Y-14036484D01*
X11084349Y-14036484D02*
X11103396Y-14046008D01*
X11103396Y-14046008D02*
X11112920Y-14055531D01*
X11112920Y-14055531D02*
X11122444Y-14074579D01*
X11122444Y-14074579D02*
X11122444Y-14084103D01*
X11122444Y-14084103D02*
X11112920Y-14103150D01*
X11112920Y-14103150D02*
X11103396Y-14112674D01*
X11103396Y-14112674D02*
X11084349Y-14122198D01*
X11084349Y-14122198D02*
X11046253Y-14122198D01*
X11046253Y-14122198D02*
X11027206Y-14131722D01*
X11027206Y-14131722D02*
X11017682Y-14141246D01*
X11017682Y-14141246D02*
X11008158Y-14160293D01*
X11008158Y-14160293D02*
X11008158Y-14198388D01*
X11008158Y-14198388D02*
X11017682Y-14217436D01*
X11017682Y-14217436D02*
X11027206Y-14226960D01*
X11027206Y-14226960D02*
X11046253Y-14236484D01*
X11046253Y-14236484D02*
X11084349Y-14236484D01*
X11084349Y-14236484D02*
X11103396Y-14226960D01*
X11103396Y-14226960D02*
X11112920Y-14217436D01*
X11112920Y-14217436D02*
X11122444Y-14198388D01*
X11122444Y-14198388D02*
X11122444Y-14160293D01*
X11122444Y-14160293D02*
X11112920Y-14141246D01*
X11112920Y-14141246D02*
X11103396Y-14131722D01*
X11103396Y-14131722D02*
X11084349Y-14122198D01*
X11198634Y-14036484D02*
X11198634Y-14074579D01*
X11274825Y-14036484D02*
X11274825Y-14074579D01*
X11570063Y-14312674D02*
X11560539Y-14303150D01*
X11560539Y-14303150D02*
X11541491Y-14274579D01*
X11541491Y-14274579D02*
X11531968Y-14255531D01*
X11531968Y-14255531D02*
X11522444Y-14226960D01*
X11522444Y-14226960D02*
X11512920Y-14179341D01*
X11512920Y-14179341D02*
X11512920Y-14141246D01*
X11512920Y-14141246D02*
X11522444Y-14093627D01*
X11522444Y-14093627D02*
X11531968Y-14065055D01*
X11531968Y-14065055D02*
X11541491Y-14046008D01*
X11541491Y-14046008D02*
X11560539Y-14017436D01*
X11560539Y-14017436D02*
X11570063Y-14007912D01*
X11674825Y-14122198D02*
X11655777Y-14112674D01*
X11655777Y-14112674D02*
X11646253Y-14103150D01*
X11646253Y-14103150D02*
X11636729Y-14084103D01*
X11636729Y-14084103D02*
X11636729Y-14074579D01*
X11636729Y-14074579D02*
X11646253Y-14055531D01*
X11646253Y-14055531D02*
X11655777Y-14046008D01*
X11655777Y-14046008D02*
X11674825Y-14036484D01*
X11674825Y-14036484D02*
X11712920Y-14036484D01*
X11712920Y-14036484D02*
X11731968Y-14046008D01*
X11731968Y-14046008D02*
X11741491Y-14055531D01*
X11741491Y-14055531D02*
X11751015Y-14074579D01*
X11751015Y-14074579D02*
X11751015Y-14084103D01*
X11751015Y-14084103D02*
X11741491Y-14103150D01*
X11741491Y-14103150D02*
X11731968Y-14112674D01*
X11731968Y-14112674D02*
X11712920Y-14122198D01*
X11712920Y-14122198D02*
X11674825Y-14122198D01*
X11674825Y-14122198D02*
X11655777Y-14131722D01*
X11655777Y-14131722D02*
X11646253Y-14141246D01*
X11646253Y-14141246D02*
X11636729Y-14160293D01*
X11636729Y-14160293D02*
X11636729Y-14198388D01*
X11636729Y-14198388D02*
X11646253Y-14217436D01*
X11646253Y-14217436D02*
X11655777Y-14226960D01*
X11655777Y-14226960D02*
X11674825Y-14236484D01*
X11674825Y-14236484D02*
X11712920Y-14236484D01*
X11712920Y-14236484D02*
X11731968Y-14226960D01*
X11731968Y-14226960D02*
X11741491Y-14217436D01*
X11741491Y-14217436D02*
X11751015Y-14198388D01*
X11751015Y-14198388D02*
X11751015Y-14160293D01*
X11751015Y-14160293D02*
X11741491Y-14141246D01*
X11741491Y-14141246D02*
X11731968Y-14131722D01*
X11731968Y-14131722D02*
X11712920Y-14122198D01*
X11874825Y-14036484D02*
X11893872Y-14036484D01*
X11893872Y-14036484D02*
X11912920Y-14046008D01*
X11912920Y-14046008D02*
X11922444Y-14055531D01*
X11922444Y-14055531D02*
X11931968Y-14074579D01*
X11931968Y-14074579D02*
X11941491Y-14112674D01*
X11941491Y-14112674D02*
X11941491Y-14160293D01*
X11941491Y-14160293D02*
X11931968Y-14198388D01*
X11931968Y-14198388D02*
X11922444Y-14217436D01*
X11922444Y-14217436D02*
X11912920Y-14226960D01*
X11912920Y-14226960D02*
X11893872Y-14236484D01*
X11893872Y-14236484D02*
X11874825Y-14236484D01*
X11874825Y-14236484D02*
X11855777Y-14226960D01*
X11855777Y-14226960D02*
X11846253Y-14217436D01*
X11846253Y-14217436D02*
X11836729Y-14198388D01*
X11836729Y-14198388D02*
X11827206Y-14160293D01*
X11827206Y-14160293D02*
X11827206Y-14112674D01*
X11827206Y-14112674D02*
X11836729Y-14074579D01*
X11836729Y-14074579D02*
X11846253Y-14055531D01*
X11846253Y-14055531D02*
X11855777Y-14046008D01*
X11855777Y-14046008D02*
X11874825Y-14036484D01*
X12179587Y-14236484D02*
X12179587Y-14036484D01*
X12265301Y-14236484D02*
X12265301Y-14131722D01*
X12265301Y-14131722D02*
X12255777Y-14112674D01*
X12255777Y-14112674D02*
X12236730Y-14103150D01*
X12236730Y-14103150D02*
X12208158Y-14103150D01*
X12208158Y-14103150D02*
X12189110Y-14112674D01*
X12189110Y-14112674D02*
X12179587Y-14122198D01*
X12389110Y-14236484D02*
X12370063Y-14226960D01*
X12370063Y-14226960D02*
X12360539Y-14217436D01*
X12360539Y-14217436D02*
X12351015Y-14198388D01*
X12351015Y-14198388D02*
X12351015Y-14141246D01*
X12351015Y-14141246D02*
X12360539Y-14122198D01*
X12360539Y-14122198D02*
X12370063Y-14112674D01*
X12370063Y-14112674D02*
X12389110Y-14103150D01*
X12389110Y-14103150D02*
X12417682Y-14103150D01*
X12417682Y-14103150D02*
X12436730Y-14112674D01*
X12436730Y-14112674D02*
X12446253Y-14122198D01*
X12446253Y-14122198D02*
X12455777Y-14141246D01*
X12455777Y-14141246D02*
X12455777Y-14198388D01*
X12455777Y-14198388D02*
X12446253Y-14217436D01*
X12446253Y-14217436D02*
X12436730Y-14226960D01*
X12436730Y-14226960D02*
X12417682Y-14236484D01*
X12417682Y-14236484D02*
X12389110Y-14236484D01*
X12570063Y-14236484D02*
X12551015Y-14226960D01*
X12551015Y-14226960D02*
X12541491Y-14207912D01*
X12541491Y-14207912D02*
X12541491Y-14036484D01*
X12722444Y-14226960D02*
X12703396Y-14236484D01*
X12703396Y-14236484D02*
X12665301Y-14236484D01*
X12665301Y-14236484D02*
X12646253Y-14226960D01*
X12646253Y-14226960D02*
X12636730Y-14207912D01*
X12636730Y-14207912D02*
X12636730Y-14131722D01*
X12636730Y-14131722D02*
X12646253Y-14112674D01*
X12646253Y-14112674D02*
X12665301Y-14103150D01*
X12665301Y-14103150D02*
X12703396Y-14103150D01*
X12703396Y-14103150D02*
X12722444Y-14112674D01*
X12722444Y-14112674D02*
X12731968Y-14131722D01*
X12731968Y-14131722D02*
X12731968Y-14150769D01*
X12731968Y-14150769D02*
X12636730Y-14169817D01*
X12808158Y-14226960D02*
X12827206Y-14236484D01*
X12827206Y-14236484D02*
X12865301Y-14236484D01*
X12865301Y-14236484D02*
X12884349Y-14226960D01*
X12884349Y-14226960D02*
X12893872Y-14207912D01*
X12893872Y-14207912D02*
X12893872Y-14198388D01*
X12893872Y-14198388D02*
X12884349Y-14179341D01*
X12884349Y-14179341D02*
X12865301Y-14169817D01*
X12865301Y-14169817D02*
X12836730Y-14169817D01*
X12836730Y-14169817D02*
X12817682Y-14160293D01*
X12817682Y-14160293D02*
X12808158Y-14141246D01*
X12808158Y-14141246D02*
X12808158Y-14131722D01*
X12808158Y-14131722D02*
X12817682Y-14112674D01*
X12817682Y-14112674D02*
X12836730Y-14103150D01*
X12836730Y-14103150D02*
X12865301Y-14103150D01*
X12865301Y-14103150D02*
X12884349Y-14112674D01*
X12960539Y-14312674D02*
X12970063Y-14303150D01*
X12970063Y-14303150D02*
X12989111Y-14274579D01*
X12989111Y-14274579D02*
X12998634Y-14255531D01*
X12998634Y-14255531D02*
X13008158Y-14226960D01*
X13008158Y-14226960D02*
X13017682Y-14179341D01*
X13017682Y-14179341D02*
X13017682Y-14141246D01*
X13017682Y-14141246D02*
X13008158Y-14093627D01*
X13008158Y-14093627D02*
X12998634Y-14065055D01*
X12998634Y-14065055D02*
X12989111Y-14046008D01*
X12989111Y-14046008D02*
X12970063Y-14017436D01*
X12970063Y-14017436D02*
X12960539Y-14007912D01*
D10*
X7995000Y-14409000D02*
G75*
G02*
X7965000Y-14409000I-15000J0D01*
G01*
X7965000Y-14409000D02*
G75*
G02*
X7995000Y-14409000I15000J0D01*
G01*
D12*
X8293872Y-14300484D02*
X8312920Y-14300484D01*
X8312920Y-14300484D02*
X8331967Y-14310008D01*
X8331967Y-14310008D02*
X8341491Y-14319531D01*
X8341491Y-14319531D02*
X8351015Y-14338579D01*
X8351015Y-14338579D02*
X8360539Y-14376674D01*
X8360539Y-14376674D02*
X8360539Y-14424293D01*
X8360539Y-14424293D02*
X8351015Y-14462388D01*
X8351015Y-14462388D02*
X8341491Y-14481436D01*
X8341491Y-14481436D02*
X8331967Y-14490960D01*
X8331967Y-14490960D02*
X8312920Y-14500484D01*
X8312920Y-14500484D02*
X8293872Y-14500484D01*
X8293872Y-14500484D02*
X8274824Y-14490960D01*
X8274824Y-14490960D02*
X8265301Y-14481436D01*
X8265301Y-14481436D02*
X8255777Y-14462388D01*
X8255777Y-14462388D02*
X8246253Y-14424293D01*
X8246253Y-14424293D02*
X8246253Y-14376674D01*
X8246253Y-14376674D02*
X8255777Y-14338579D01*
X8255777Y-14338579D02*
X8265301Y-14319531D01*
X8265301Y-14319531D02*
X8274824Y-14310008D01*
X8274824Y-14310008D02*
X8293872Y-14300484D01*
X8446253Y-14481436D02*
X8455777Y-14490960D01*
X8455777Y-14490960D02*
X8446253Y-14500484D01*
X8446253Y-14500484D02*
X8436729Y-14490960D01*
X8436729Y-14490960D02*
X8446253Y-14481436D01*
X8446253Y-14481436D02*
X8446253Y-14500484D01*
X8522444Y-14300484D02*
X8646253Y-14300484D01*
X8646253Y-14300484D02*
X8579586Y-14376674D01*
X8579586Y-14376674D02*
X8608158Y-14376674D01*
X8608158Y-14376674D02*
X8627205Y-14386198D01*
X8627205Y-14386198D02*
X8636729Y-14395722D01*
X8636729Y-14395722D02*
X8646253Y-14414769D01*
X8646253Y-14414769D02*
X8646253Y-14462388D01*
X8646253Y-14462388D02*
X8636729Y-14481436D01*
X8636729Y-14481436D02*
X8627205Y-14490960D01*
X8627205Y-14490960D02*
X8608158Y-14500484D01*
X8608158Y-14500484D02*
X8551015Y-14500484D01*
X8551015Y-14500484D02*
X8531967Y-14490960D01*
X8531967Y-14490960D02*
X8522444Y-14481436D01*
X8770063Y-14300484D02*
X8789110Y-14300484D01*
X8789110Y-14300484D02*
X8808158Y-14310008D01*
X8808158Y-14310008D02*
X8817682Y-14319531D01*
X8817682Y-14319531D02*
X8827205Y-14338579D01*
X8827205Y-14338579D02*
X8836729Y-14376674D01*
X8836729Y-14376674D02*
X8836729Y-14424293D01*
X8836729Y-14424293D02*
X8827205Y-14462388D01*
X8827205Y-14462388D02*
X8817682Y-14481436D01*
X8817682Y-14481436D02*
X8808158Y-14490960D01*
X8808158Y-14490960D02*
X8789110Y-14500484D01*
X8789110Y-14500484D02*
X8770063Y-14500484D01*
X8770063Y-14500484D02*
X8751015Y-14490960D01*
X8751015Y-14490960D02*
X8741491Y-14481436D01*
X8741491Y-14481436D02*
X8731967Y-14462388D01*
X8731967Y-14462388D02*
X8722444Y-14424293D01*
X8722444Y-14424293D02*
X8722444Y-14376674D01*
X8722444Y-14376674D02*
X8731967Y-14338579D01*
X8731967Y-14338579D02*
X8741491Y-14319531D01*
X8741491Y-14319531D02*
X8751015Y-14310008D01*
X8751015Y-14310008D02*
X8770063Y-14300484D01*
X8960539Y-14300484D02*
X8979586Y-14300484D01*
X8979586Y-14300484D02*
X8998634Y-14310008D01*
X8998634Y-14310008D02*
X9008158Y-14319531D01*
X9008158Y-14319531D02*
X9017682Y-14338579D01*
X9017682Y-14338579D02*
X9027205Y-14376674D01*
X9027205Y-14376674D02*
X9027205Y-14424293D01*
X9027205Y-14424293D02*
X9017682Y-14462388D01*
X9017682Y-14462388D02*
X9008158Y-14481436D01*
X9008158Y-14481436D02*
X8998634Y-14490960D01*
X8998634Y-14490960D02*
X8979586Y-14500484D01*
X8979586Y-14500484D02*
X8960539Y-14500484D01*
X8960539Y-14500484D02*
X8941491Y-14490960D01*
X8941491Y-14490960D02*
X8931967Y-14481436D01*
X8931967Y-14481436D02*
X8922444Y-14462388D01*
X8922444Y-14462388D02*
X8912920Y-14424293D01*
X8912920Y-14424293D02*
X8912920Y-14376674D01*
X8912920Y-14376674D02*
X8922444Y-14338579D01*
X8922444Y-14338579D02*
X8931967Y-14319531D01*
X8931967Y-14319531D02*
X8941491Y-14310008D01*
X8941491Y-14310008D02*
X8960539Y-14300484D01*
X9112920Y-14500484D02*
X9112920Y-14367150D01*
X9112920Y-14386198D02*
X9122444Y-14376674D01*
X9122444Y-14376674D02*
X9141491Y-14367150D01*
X9141491Y-14367150D02*
X9170063Y-14367150D01*
X9170063Y-14367150D02*
X9189110Y-14376674D01*
X9189110Y-14376674D02*
X9198634Y-14395722D01*
X9198634Y-14395722D02*
X9198634Y-14500484D01*
X9198634Y-14395722D02*
X9208158Y-14376674D01*
X9208158Y-14376674D02*
X9227205Y-14367150D01*
X9227205Y-14367150D02*
X9255777Y-14367150D01*
X9255777Y-14367150D02*
X9274825Y-14376674D01*
X9274825Y-14376674D02*
X9284348Y-14395722D01*
X9284348Y-14395722D02*
X9284348Y-14500484D01*
X9379586Y-14500484D02*
X9379586Y-14367150D01*
X9379586Y-14386198D02*
X9389110Y-14376674D01*
X9389110Y-14376674D02*
X9408158Y-14367150D01*
X9408158Y-14367150D02*
X9436729Y-14367150D01*
X9436729Y-14367150D02*
X9455777Y-14376674D01*
X9455777Y-14376674D02*
X9465301Y-14395722D01*
X9465301Y-14395722D02*
X9465301Y-14500484D01*
X9465301Y-14395722D02*
X9474825Y-14376674D01*
X9474825Y-14376674D02*
X9493872Y-14367150D01*
X9493872Y-14367150D02*
X9522444Y-14367150D01*
X9522444Y-14367150D02*
X9541491Y-14376674D01*
X9541491Y-14376674D02*
X9551015Y-14395722D01*
X9551015Y-14395722D02*
X9551015Y-14500484D01*
X9941491Y-14290960D02*
X9770063Y-14548103D01*
X10198634Y-14300484D02*
X10217682Y-14300484D01*
X10217682Y-14300484D02*
X10236729Y-14310008D01*
X10236729Y-14310008D02*
X10246253Y-14319531D01*
X10246253Y-14319531D02*
X10255777Y-14338579D01*
X10255777Y-14338579D02*
X10265301Y-14376674D01*
X10265301Y-14376674D02*
X10265301Y-14424293D01*
X10265301Y-14424293D02*
X10255777Y-14462388D01*
X10255777Y-14462388D02*
X10246253Y-14481436D01*
X10246253Y-14481436D02*
X10236729Y-14490960D01*
X10236729Y-14490960D02*
X10217682Y-14500484D01*
X10217682Y-14500484D02*
X10198634Y-14500484D01*
X10198634Y-14500484D02*
X10179587Y-14490960D01*
X10179587Y-14490960D02*
X10170063Y-14481436D01*
X10170063Y-14481436D02*
X10160539Y-14462388D01*
X10160539Y-14462388D02*
X10151015Y-14424293D01*
X10151015Y-14424293D02*
X10151015Y-14376674D01*
X10151015Y-14376674D02*
X10160539Y-14338579D01*
X10160539Y-14338579D02*
X10170063Y-14319531D01*
X10170063Y-14319531D02*
X10179587Y-14310008D01*
X10179587Y-14310008D02*
X10198634Y-14300484D01*
X10351015Y-14481436D02*
X10360539Y-14490960D01*
X10360539Y-14490960D02*
X10351015Y-14500484D01*
X10351015Y-14500484D02*
X10341491Y-14490960D01*
X10341491Y-14490960D02*
X10351015Y-14481436D01*
X10351015Y-14481436D02*
X10351015Y-14500484D01*
X10484348Y-14300484D02*
X10503396Y-14300484D01*
X10503396Y-14300484D02*
X10522444Y-14310008D01*
X10522444Y-14310008D02*
X10531968Y-14319531D01*
X10531968Y-14319531D02*
X10541491Y-14338579D01*
X10541491Y-14338579D02*
X10551015Y-14376674D01*
X10551015Y-14376674D02*
X10551015Y-14424293D01*
X10551015Y-14424293D02*
X10541491Y-14462388D01*
X10541491Y-14462388D02*
X10531968Y-14481436D01*
X10531968Y-14481436D02*
X10522444Y-14490960D01*
X10522444Y-14490960D02*
X10503396Y-14500484D01*
X10503396Y-14500484D02*
X10484348Y-14500484D01*
X10484348Y-14500484D02*
X10465301Y-14490960D01*
X10465301Y-14490960D02*
X10455777Y-14481436D01*
X10455777Y-14481436D02*
X10446253Y-14462388D01*
X10446253Y-14462388D02*
X10436729Y-14424293D01*
X10436729Y-14424293D02*
X10436729Y-14376674D01*
X10436729Y-14376674D02*
X10446253Y-14338579D01*
X10446253Y-14338579D02*
X10455777Y-14319531D01*
X10455777Y-14319531D02*
X10465301Y-14310008D01*
X10465301Y-14310008D02*
X10484348Y-14300484D01*
X10741491Y-14500484D02*
X10627206Y-14500484D01*
X10684348Y-14500484D02*
X10684348Y-14300484D01*
X10684348Y-14300484D02*
X10665301Y-14329055D01*
X10665301Y-14329055D02*
X10646253Y-14348103D01*
X10646253Y-14348103D02*
X10627206Y-14357627D01*
X10931968Y-14500484D02*
X10817682Y-14500484D01*
X10874825Y-14500484D02*
X10874825Y-14300484D01*
X10874825Y-14300484D02*
X10855777Y-14329055D01*
X10855777Y-14329055D02*
X10836729Y-14348103D01*
X10836729Y-14348103D02*
X10817682Y-14357627D01*
X11046253Y-14386198D02*
X11027206Y-14376674D01*
X11027206Y-14376674D02*
X11017682Y-14367150D01*
X11017682Y-14367150D02*
X11008158Y-14348103D01*
X11008158Y-14348103D02*
X11008158Y-14338579D01*
X11008158Y-14338579D02*
X11017682Y-14319531D01*
X11017682Y-14319531D02*
X11027206Y-14310008D01*
X11027206Y-14310008D02*
X11046253Y-14300484D01*
X11046253Y-14300484D02*
X11084349Y-14300484D01*
X11084349Y-14300484D02*
X11103396Y-14310008D01*
X11103396Y-14310008D02*
X11112920Y-14319531D01*
X11112920Y-14319531D02*
X11122444Y-14338579D01*
X11122444Y-14338579D02*
X11122444Y-14348103D01*
X11122444Y-14348103D02*
X11112920Y-14367150D01*
X11112920Y-14367150D02*
X11103396Y-14376674D01*
X11103396Y-14376674D02*
X11084349Y-14386198D01*
X11084349Y-14386198D02*
X11046253Y-14386198D01*
X11046253Y-14386198D02*
X11027206Y-14395722D01*
X11027206Y-14395722D02*
X11017682Y-14405246D01*
X11017682Y-14405246D02*
X11008158Y-14424293D01*
X11008158Y-14424293D02*
X11008158Y-14462388D01*
X11008158Y-14462388D02*
X11017682Y-14481436D01*
X11017682Y-14481436D02*
X11027206Y-14490960D01*
X11027206Y-14490960D02*
X11046253Y-14500484D01*
X11046253Y-14500484D02*
X11084349Y-14500484D01*
X11084349Y-14500484D02*
X11103396Y-14490960D01*
X11103396Y-14490960D02*
X11112920Y-14481436D01*
X11112920Y-14481436D02*
X11122444Y-14462388D01*
X11122444Y-14462388D02*
X11122444Y-14424293D01*
X11122444Y-14424293D02*
X11112920Y-14405246D01*
X11112920Y-14405246D02*
X11103396Y-14395722D01*
X11103396Y-14395722D02*
X11084349Y-14386198D01*
X11198634Y-14300484D02*
X11198634Y-14338579D01*
X11274825Y-14300484D02*
X11274825Y-14338579D01*
X11570063Y-14576674D02*
X11560539Y-14567150D01*
X11560539Y-14567150D02*
X11541491Y-14538579D01*
X11541491Y-14538579D02*
X11531968Y-14519531D01*
X11531968Y-14519531D02*
X11522444Y-14490960D01*
X11522444Y-14490960D02*
X11512920Y-14443341D01*
X11512920Y-14443341D02*
X11512920Y-14405246D01*
X11512920Y-14405246D02*
X11522444Y-14357627D01*
X11522444Y-14357627D02*
X11531968Y-14329055D01*
X11531968Y-14329055D02*
X11541491Y-14310008D01*
X11541491Y-14310008D02*
X11560539Y-14281436D01*
X11560539Y-14281436D02*
X11570063Y-14271912D01*
X11636729Y-14319531D02*
X11646253Y-14310008D01*
X11646253Y-14310008D02*
X11665301Y-14300484D01*
X11665301Y-14300484D02*
X11712920Y-14300484D01*
X11712920Y-14300484D02*
X11731968Y-14310008D01*
X11731968Y-14310008D02*
X11741491Y-14319531D01*
X11741491Y-14319531D02*
X11751015Y-14338579D01*
X11751015Y-14338579D02*
X11751015Y-14357627D01*
X11751015Y-14357627D02*
X11741491Y-14386198D01*
X11741491Y-14386198D02*
X11627206Y-14500484D01*
X11627206Y-14500484D02*
X11751015Y-14500484D01*
X11941491Y-14500484D02*
X11827206Y-14500484D01*
X11884348Y-14500484D02*
X11884348Y-14300484D01*
X11884348Y-14300484D02*
X11865301Y-14329055D01*
X11865301Y-14329055D02*
X11846253Y-14348103D01*
X11846253Y-14348103D02*
X11827206Y-14357627D01*
X12179587Y-14500484D02*
X12179587Y-14300484D01*
X12265301Y-14500484D02*
X12265301Y-14395722D01*
X12265301Y-14395722D02*
X12255777Y-14376674D01*
X12255777Y-14376674D02*
X12236730Y-14367150D01*
X12236730Y-14367150D02*
X12208158Y-14367150D01*
X12208158Y-14367150D02*
X12189110Y-14376674D01*
X12189110Y-14376674D02*
X12179587Y-14386198D01*
X12389110Y-14500484D02*
X12370063Y-14490960D01*
X12370063Y-14490960D02*
X12360539Y-14481436D01*
X12360539Y-14481436D02*
X12351015Y-14462388D01*
X12351015Y-14462388D02*
X12351015Y-14405246D01*
X12351015Y-14405246D02*
X12360539Y-14386198D01*
X12360539Y-14386198D02*
X12370063Y-14376674D01*
X12370063Y-14376674D02*
X12389110Y-14367150D01*
X12389110Y-14367150D02*
X12417682Y-14367150D01*
X12417682Y-14367150D02*
X12436730Y-14376674D01*
X12436730Y-14376674D02*
X12446253Y-14386198D01*
X12446253Y-14386198D02*
X12455777Y-14405246D01*
X12455777Y-14405246D02*
X12455777Y-14462388D01*
X12455777Y-14462388D02*
X12446253Y-14481436D01*
X12446253Y-14481436D02*
X12436730Y-14490960D01*
X12436730Y-14490960D02*
X12417682Y-14500484D01*
X12417682Y-14500484D02*
X12389110Y-14500484D01*
X12570063Y-14500484D02*
X12551015Y-14490960D01*
X12551015Y-14490960D02*
X12541491Y-14471912D01*
X12541491Y-14471912D02*
X12541491Y-14300484D01*
X12722444Y-14490960D02*
X12703396Y-14500484D01*
X12703396Y-14500484D02*
X12665301Y-14500484D01*
X12665301Y-14500484D02*
X12646253Y-14490960D01*
X12646253Y-14490960D02*
X12636730Y-14471912D01*
X12636730Y-14471912D02*
X12636730Y-14395722D01*
X12636730Y-14395722D02*
X12646253Y-14376674D01*
X12646253Y-14376674D02*
X12665301Y-14367150D01*
X12665301Y-14367150D02*
X12703396Y-14367150D01*
X12703396Y-14367150D02*
X12722444Y-14376674D01*
X12722444Y-14376674D02*
X12731968Y-14395722D01*
X12731968Y-14395722D02*
X12731968Y-14414769D01*
X12731968Y-14414769D02*
X12636730Y-14433817D01*
X12808158Y-14490960D02*
X12827206Y-14500484D01*
X12827206Y-14500484D02*
X12865301Y-14500484D01*
X12865301Y-14500484D02*
X12884349Y-14490960D01*
X12884349Y-14490960D02*
X12893872Y-14471912D01*
X12893872Y-14471912D02*
X12893872Y-14462388D01*
X12893872Y-14462388D02*
X12884349Y-14443341D01*
X12884349Y-14443341D02*
X12865301Y-14433817D01*
X12865301Y-14433817D02*
X12836730Y-14433817D01*
X12836730Y-14433817D02*
X12817682Y-14424293D01*
X12817682Y-14424293D02*
X12808158Y-14405246D01*
X12808158Y-14405246D02*
X12808158Y-14395722D01*
X12808158Y-14395722D02*
X12817682Y-14376674D01*
X12817682Y-14376674D02*
X12836730Y-14367150D01*
X12836730Y-14367150D02*
X12865301Y-14367150D01*
X12865301Y-14367150D02*
X12884349Y-14376674D01*
X12960539Y-14576674D02*
X12970063Y-14567150D01*
X12970063Y-14567150D02*
X12989111Y-14538579D01*
X12989111Y-14538579D02*
X12998634Y-14519531D01*
X12998634Y-14519531D02*
X13008158Y-14490960D01*
X13008158Y-14490960D02*
X13017682Y-14443341D01*
X13017682Y-14443341D02*
X13017682Y-14405246D01*
X13017682Y-14405246D02*
X13008158Y-14357627D01*
X13008158Y-14357627D02*
X12998634Y-14329055D01*
X12998634Y-14329055D02*
X12989111Y-14310008D01*
X12989111Y-14310008D02*
X12970063Y-14281436D01*
X12970063Y-14281436D02*
X12960539Y-14271912D01*
D10*
X7945000Y-14623000D02*
X7945000Y-14723000D01*
X7895000Y-14673000D02*
X7995000Y-14673000D01*
D12*
X8360539Y-14764484D02*
X8246253Y-14764484D01*
X8303396Y-14764484D02*
X8303396Y-14564484D01*
X8303396Y-14564484D02*
X8284348Y-14593055D01*
X8284348Y-14593055D02*
X8265301Y-14612103D01*
X8265301Y-14612103D02*
X8246253Y-14621627D01*
X8446253Y-14745436D02*
X8455777Y-14754960D01*
X8455777Y-14754960D02*
X8446253Y-14764484D01*
X8446253Y-14764484D02*
X8436729Y-14754960D01*
X8436729Y-14754960D02*
X8446253Y-14745436D01*
X8446253Y-14745436D02*
X8446253Y-14764484D01*
X8579586Y-14564484D02*
X8598634Y-14564484D01*
X8598634Y-14564484D02*
X8617682Y-14574008D01*
X8617682Y-14574008D02*
X8627205Y-14583531D01*
X8627205Y-14583531D02*
X8636729Y-14602579D01*
X8636729Y-14602579D02*
X8646253Y-14640674D01*
X8646253Y-14640674D02*
X8646253Y-14688293D01*
X8646253Y-14688293D02*
X8636729Y-14726388D01*
X8636729Y-14726388D02*
X8627205Y-14745436D01*
X8627205Y-14745436D02*
X8617682Y-14754960D01*
X8617682Y-14754960D02*
X8598634Y-14764484D01*
X8598634Y-14764484D02*
X8579586Y-14764484D01*
X8579586Y-14764484D02*
X8560539Y-14754960D01*
X8560539Y-14754960D02*
X8551015Y-14745436D01*
X8551015Y-14745436D02*
X8541491Y-14726388D01*
X8541491Y-14726388D02*
X8531967Y-14688293D01*
X8531967Y-14688293D02*
X8531967Y-14640674D01*
X8531967Y-14640674D02*
X8541491Y-14602579D01*
X8541491Y-14602579D02*
X8551015Y-14583531D01*
X8551015Y-14583531D02*
X8560539Y-14574008D01*
X8560539Y-14574008D02*
X8579586Y-14564484D01*
X8770063Y-14564484D02*
X8789110Y-14564484D01*
X8789110Y-14564484D02*
X8808158Y-14574008D01*
X8808158Y-14574008D02*
X8817682Y-14583531D01*
X8817682Y-14583531D02*
X8827205Y-14602579D01*
X8827205Y-14602579D02*
X8836729Y-14640674D01*
X8836729Y-14640674D02*
X8836729Y-14688293D01*
X8836729Y-14688293D02*
X8827205Y-14726388D01*
X8827205Y-14726388D02*
X8817682Y-14745436D01*
X8817682Y-14745436D02*
X8808158Y-14754960D01*
X8808158Y-14754960D02*
X8789110Y-14764484D01*
X8789110Y-14764484D02*
X8770063Y-14764484D01*
X8770063Y-14764484D02*
X8751015Y-14754960D01*
X8751015Y-14754960D02*
X8741491Y-14745436D01*
X8741491Y-14745436D02*
X8731967Y-14726388D01*
X8731967Y-14726388D02*
X8722444Y-14688293D01*
X8722444Y-14688293D02*
X8722444Y-14640674D01*
X8722444Y-14640674D02*
X8731967Y-14602579D01*
X8731967Y-14602579D02*
X8741491Y-14583531D01*
X8741491Y-14583531D02*
X8751015Y-14574008D01*
X8751015Y-14574008D02*
X8770063Y-14564484D01*
X8960539Y-14564484D02*
X8979586Y-14564484D01*
X8979586Y-14564484D02*
X8998634Y-14574008D01*
X8998634Y-14574008D02*
X9008158Y-14583531D01*
X9008158Y-14583531D02*
X9017682Y-14602579D01*
X9017682Y-14602579D02*
X9027205Y-14640674D01*
X9027205Y-14640674D02*
X9027205Y-14688293D01*
X9027205Y-14688293D02*
X9017682Y-14726388D01*
X9017682Y-14726388D02*
X9008158Y-14745436D01*
X9008158Y-14745436D02*
X8998634Y-14754960D01*
X8998634Y-14754960D02*
X8979586Y-14764484D01*
X8979586Y-14764484D02*
X8960539Y-14764484D01*
X8960539Y-14764484D02*
X8941491Y-14754960D01*
X8941491Y-14754960D02*
X8931967Y-14745436D01*
X8931967Y-14745436D02*
X8922444Y-14726388D01*
X8922444Y-14726388D02*
X8912920Y-14688293D01*
X8912920Y-14688293D02*
X8912920Y-14640674D01*
X8912920Y-14640674D02*
X8922444Y-14602579D01*
X8922444Y-14602579D02*
X8931967Y-14583531D01*
X8931967Y-14583531D02*
X8941491Y-14574008D01*
X8941491Y-14574008D02*
X8960539Y-14564484D01*
X9112920Y-14764484D02*
X9112920Y-14631150D01*
X9112920Y-14650198D02*
X9122444Y-14640674D01*
X9122444Y-14640674D02*
X9141491Y-14631150D01*
X9141491Y-14631150D02*
X9170063Y-14631150D01*
X9170063Y-14631150D02*
X9189110Y-14640674D01*
X9189110Y-14640674D02*
X9198634Y-14659722D01*
X9198634Y-14659722D02*
X9198634Y-14764484D01*
X9198634Y-14659722D02*
X9208158Y-14640674D01*
X9208158Y-14640674D02*
X9227205Y-14631150D01*
X9227205Y-14631150D02*
X9255777Y-14631150D01*
X9255777Y-14631150D02*
X9274825Y-14640674D01*
X9274825Y-14640674D02*
X9284348Y-14659722D01*
X9284348Y-14659722D02*
X9284348Y-14764484D01*
X9379586Y-14764484D02*
X9379586Y-14631150D01*
X9379586Y-14650198D02*
X9389110Y-14640674D01*
X9389110Y-14640674D02*
X9408158Y-14631150D01*
X9408158Y-14631150D02*
X9436729Y-14631150D01*
X9436729Y-14631150D02*
X9455777Y-14640674D01*
X9455777Y-14640674D02*
X9465301Y-14659722D01*
X9465301Y-14659722D02*
X9465301Y-14764484D01*
X9465301Y-14659722D02*
X9474825Y-14640674D01*
X9474825Y-14640674D02*
X9493872Y-14631150D01*
X9493872Y-14631150D02*
X9522444Y-14631150D01*
X9522444Y-14631150D02*
X9541491Y-14640674D01*
X9541491Y-14640674D02*
X9551015Y-14659722D01*
X9551015Y-14659722D02*
X9551015Y-14764484D01*
X9941491Y-14554960D02*
X9770063Y-14812103D01*
X10198634Y-14564484D02*
X10217682Y-14564484D01*
X10217682Y-14564484D02*
X10236729Y-14574008D01*
X10236729Y-14574008D02*
X10246253Y-14583531D01*
X10246253Y-14583531D02*
X10255777Y-14602579D01*
X10255777Y-14602579D02*
X10265301Y-14640674D01*
X10265301Y-14640674D02*
X10265301Y-14688293D01*
X10265301Y-14688293D02*
X10255777Y-14726388D01*
X10255777Y-14726388D02*
X10246253Y-14745436D01*
X10246253Y-14745436D02*
X10236729Y-14754960D01*
X10236729Y-14754960D02*
X10217682Y-14764484D01*
X10217682Y-14764484D02*
X10198634Y-14764484D01*
X10198634Y-14764484D02*
X10179587Y-14754960D01*
X10179587Y-14754960D02*
X10170063Y-14745436D01*
X10170063Y-14745436D02*
X10160539Y-14726388D01*
X10160539Y-14726388D02*
X10151015Y-14688293D01*
X10151015Y-14688293D02*
X10151015Y-14640674D01*
X10151015Y-14640674D02*
X10160539Y-14602579D01*
X10160539Y-14602579D02*
X10170063Y-14583531D01*
X10170063Y-14583531D02*
X10179587Y-14574008D01*
X10179587Y-14574008D02*
X10198634Y-14564484D01*
X10351015Y-14745436D02*
X10360539Y-14754960D01*
X10360539Y-14754960D02*
X10351015Y-14764484D01*
X10351015Y-14764484D02*
X10341491Y-14754960D01*
X10341491Y-14754960D02*
X10351015Y-14745436D01*
X10351015Y-14745436D02*
X10351015Y-14764484D01*
X10484348Y-14564484D02*
X10503396Y-14564484D01*
X10503396Y-14564484D02*
X10522444Y-14574008D01*
X10522444Y-14574008D02*
X10531968Y-14583531D01*
X10531968Y-14583531D02*
X10541491Y-14602579D01*
X10541491Y-14602579D02*
X10551015Y-14640674D01*
X10551015Y-14640674D02*
X10551015Y-14688293D01*
X10551015Y-14688293D02*
X10541491Y-14726388D01*
X10541491Y-14726388D02*
X10531968Y-14745436D01*
X10531968Y-14745436D02*
X10522444Y-14754960D01*
X10522444Y-14754960D02*
X10503396Y-14764484D01*
X10503396Y-14764484D02*
X10484348Y-14764484D01*
X10484348Y-14764484D02*
X10465301Y-14754960D01*
X10465301Y-14754960D02*
X10455777Y-14745436D01*
X10455777Y-14745436D02*
X10446253Y-14726388D01*
X10446253Y-14726388D02*
X10436729Y-14688293D01*
X10436729Y-14688293D02*
X10436729Y-14640674D01*
X10436729Y-14640674D02*
X10446253Y-14602579D01*
X10446253Y-14602579D02*
X10455777Y-14583531D01*
X10455777Y-14583531D02*
X10465301Y-14574008D01*
X10465301Y-14574008D02*
X10484348Y-14564484D01*
X10617682Y-14564484D02*
X10741491Y-14564484D01*
X10741491Y-14564484D02*
X10674825Y-14640674D01*
X10674825Y-14640674D02*
X10703396Y-14640674D01*
X10703396Y-14640674D02*
X10722444Y-14650198D01*
X10722444Y-14650198D02*
X10731968Y-14659722D01*
X10731968Y-14659722D02*
X10741491Y-14678769D01*
X10741491Y-14678769D02*
X10741491Y-14726388D01*
X10741491Y-14726388D02*
X10731968Y-14745436D01*
X10731968Y-14745436D02*
X10722444Y-14754960D01*
X10722444Y-14754960D02*
X10703396Y-14764484D01*
X10703396Y-14764484D02*
X10646253Y-14764484D01*
X10646253Y-14764484D02*
X10627206Y-14754960D01*
X10627206Y-14754960D02*
X10617682Y-14745436D01*
X10836729Y-14764484D02*
X10874825Y-14764484D01*
X10874825Y-14764484D02*
X10893872Y-14754960D01*
X10893872Y-14754960D02*
X10903396Y-14745436D01*
X10903396Y-14745436D02*
X10922444Y-14716865D01*
X10922444Y-14716865D02*
X10931968Y-14678769D01*
X10931968Y-14678769D02*
X10931968Y-14602579D01*
X10931968Y-14602579D02*
X10922444Y-14583531D01*
X10922444Y-14583531D02*
X10912920Y-14574008D01*
X10912920Y-14574008D02*
X10893872Y-14564484D01*
X10893872Y-14564484D02*
X10855777Y-14564484D01*
X10855777Y-14564484D02*
X10836729Y-14574008D01*
X10836729Y-14574008D02*
X10827206Y-14583531D01*
X10827206Y-14583531D02*
X10817682Y-14602579D01*
X10817682Y-14602579D02*
X10817682Y-14650198D01*
X10817682Y-14650198D02*
X10827206Y-14669246D01*
X10827206Y-14669246D02*
X10836729Y-14678769D01*
X10836729Y-14678769D02*
X10855777Y-14688293D01*
X10855777Y-14688293D02*
X10893872Y-14688293D01*
X10893872Y-14688293D02*
X10912920Y-14678769D01*
X10912920Y-14678769D02*
X10922444Y-14669246D01*
X10922444Y-14669246D02*
X10931968Y-14650198D01*
X11103396Y-14631150D02*
X11103396Y-14764484D01*
X11055777Y-14554960D02*
X11008158Y-14697817D01*
X11008158Y-14697817D02*
X11131968Y-14697817D01*
X11198634Y-14564484D02*
X11198634Y-14602579D01*
X11274825Y-14564484D02*
X11274825Y-14602579D01*
X11570063Y-14840674D02*
X11560539Y-14831150D01*
X11560539Y-14831150D02*
X11541491Y-14802579D01*
X11541491Y-14802579D02*
X11531968Y-14783531D01*
X11531968Y-14783531D02*
X11522444Y-14754960D01*
X11522444Y-14754960D02*
X11512920Y-14707341D01*
X11512920Y-14707341D02*
X11512920Y-14669246D01*
X11512920Y-14669246D02*
X11522444Y-14621627D01*
X11522444Y-14621627D02*
X11531968Y-14593055D01*
X11531968Y-14593055D02*
X11541491Y-14574008D01*
X11541491Y-14574008D02*
X11560539Y-14545436D01*
X11560539Y-14545436D02*
X11570063Y-14535912D01*
X11636729Y-14583531D02*
X11646253Y-14574008D01*
X11646253Y-14574008D02*
X11665301Y-14564484D01*
X11665301Y-14564484D02*
X11712920Y-14564484D01*
X11712920Y-14564484D02*
X11731968Y-14574008D01*
X11731968Y-14574008D02*
X11741491Y-14583531D01*
X11741491Y-14583531D02*
X11751015Y-14602579D01*
X11751015Y-14602579D02*
X11751015Y-14621627D01*
X11751015Y-14621627D02*
X11741491Y-14650198D01*
X11741491Y-14650198D02*
X11627206Y-14764484D01*
X11627206Y-14764484D02*
X11751015Y-14764484D01*
X11989110Y-14764484D02*
X11989110Y-14564484D01*
X12074825Y-14764484D02*
X12074825Y-14659722D01*
X12074825Y-14659722D02*
X12065301Y-14640674D01*
X12065301Y-14640674D02*
X12046253Y-14631150D01*
X12046253Y-14631150D02*
X12017682Y-14631150D01*
X12017682Y-14631150D02*
X11998634Y-14640674D01*
X11998634Y-14640674D02*
X11989110Y-14650198D01*
X12198634Y-14764484D02*
X12179587Y-14754960D01*
X12179587Y-14754960D02*
X12170063Y-14745436D01*
X12170063Y-14745436D02*
X12160539Y-14726388D01*
X12160539Y-14726388D02*
X12160539Y-14669246D01*
X12160539Y-14669246D02*
X12170063Y-14650198D01*
X12170063Y-14650198D02*
X12179587Y-14640674D01*
X12179587Y-14640674D02*
X12198634Y-14631150D01*
X12198634Y-14631150D02*
X12227206Y-14631150D01*
X12227206Y-14631150D02*
X12246253Y-14640674D01*
X12246253Y-14640674D02*
X12255777Y-14650198D01*
X12255777Y-14650198D02*
X12265301Y-14669246D01*
X12265301Y-14669246D02*
X12265301Y-14726388D01*
X12265301Y-14726388D02*
X12255777Y-14745436D01*
X12255777Y-14745436D02*
X12246253Y-14754960D01*
X12246253Y-14754960D02*
X12227206Y-14764484D01*
X12227206Y-14764484D02*
X12198634Y-14764484D01*
X12379587Y-14764484D02*
X12360539Y-14754960D01*
X12360539Y-14754960D02*
X12351015Y-14735912D01*
X12351015Y-14735912D02*
X12351015Y-14564484D01*
X12531968Y-14754960D02*
X12512920Y-14764484D01*
X12512920Y-14764484D02*
X12474825Y-14764484D01*
X12474825Y-14764484D02*
X12455777Y-14754960D01*
X12455777Y-14754960D02*
X12446253Y-14735912D01*
X12446253Y-14735912D02*
X12446253Y-14659722D01*
X12446253Y-14659722D02*
X12455777Y-14640674D01*
X12455777Y-14640674D02*
X12474825Y-14631150D01*
X12474825Y-14631150D02*
X12512920Y-14631150D01*
X12512920Y-14631150D02*
X12531968Y-14640674D01*
X12531968Y-14640674D02*
X12541491Y-14659722D01*
X12541491Y-14659722D02*
X12541491Y-14678769D01*
X12541491Y-14678769D02*
X12446253Y-14697817D01*
X12617682Y-14754960D02*
X12636730Y-14764484D01*
X12636730Y-14764484D02*
X12674825Y-14764484D01*
X12674825Y-14764484D02*
X12693872Y-14754960D01*
X12693872Y-14754960D02*
X12703396Y-14735912D01*
X12703396Y-14735912D02*
X12703396Y-14726388D01*
X12703396Y-14726388D02*
X12693872Y-14707341D01*
X12693872Y-14707341D02*
X12674825Y-14697817D01*
X12674825Y-14697817D02*
X12646253Y-14697817D01*
X12646253Y-14697817D02*
X12627206Y-14688293D01*
X12627206Y-14688293D02*
X12617682Y-14669246D01*
X12617682Y-14669246D02*
X12617682Y-14659722D01*
X12617682Y-14659722D02*
X12627206Y-14640674D01*
X12627206Y-14640674D02*
X12646253Y-14631150D01*
X12646253Y-14631150D02*
X12674825Y-14631150D01*
X12674825Y-14631150D02*
X12693872Y-14640674D01*
X12770063Y-14840674D02*
X12779587Y-14831150D01*
X12779587Y-14831150D02*
X12798634Y-14802579D01*
X12798634Y-14802579D02*
X12808158Y-14783531D01*
X12808158Y-14783531D02*
X12817682Y-14754960D01*
X12817682Y-14754960D02*
X12827206Y-14707341D01*
X12827206Y-14707341D02*
X12827206Y-14669246D01*
X12827206Y-14669246D02*
X12817682Y-14621627D01*
X12817682Y-14621627D02*
X12808158Y-14593055D01*
X12808158Y-14593055D02*
X12798634Y-14574008D01*
X12798634Y-14574008D02*
X12779587Y-14545436D01*
X12779587Y-14545436D02*
X12770063Y-14535912D01*
D13*
X7980063Y-14973063D02*
X7980063Y-14900937D01*
X7907937Y-14900937D01*
X7907937Y-14973063D01*
X7980063Y-14973063D01*
D12*
X8360539Y-15028484D02*
X8246253Y-15028484D01*
X8303396Y-15028484D02*
X8303396Y-14828484D01*
X8303396Y-14828484D02*
X8284348Y-14857055D01*
X8284348Y-14857055D02*
X8265301Y-14876103D01*
X8265301Y-14876103D02*
X8246253Y-14885627D01*
X8446253Y-15009436D02*
X8455777Y-15018960D01*
X8455777Y-15018960D02*
X8446253Y-15028484D01*
X8446253Y-15028484D02*
X8436729Y-15018960D01*
X8436729Y-15018960D02*
X8446253Y-15009436D01*
X8446253Y-15009436D02*
X8446253Y-15028484D01*
X8579586Y-14828484D02*
X8598634Y-14828484D01*
X8598634Y-14828484D02*
X8617682Y-14838008D01*
X8617682Y-14838008D02*
X8627205Y-14847531D01*
X8627205Y-14847531D02*
X8636729Y-14866579D01*
X8636729Y-14866579D02*
X8646253Y-14904674D01*
X8646253Y-14904674D02*
X8646253Y-14952293D01*
X8646253Y-14952293D02*
X8636729Y-14990388D01*
X8636729Y-14990388D02*
X8627205Y-15009436D01*
X8627205Y-15009436D02*
X8617682Y-15018960D01*
X8617682Y-15018960D02*
X8598634Y-15028484D01*
X8598634Y-15028484D02*
X8579586Y-15028484D01*
X8579586Y-15028484D02*
X8560539Y-15018960D01*
X8560539Y-15018960D02*
X8551015Y-15009436D01*
X8551015Y-15009436D02*
X8541491Y-14990388D01*
X8541491Y-14990388D02*
X8531967Y-14952293D01*
X8531967Y-14952293D02*
X8531967Y-14904674D01*
X8531967Y-14904674D02*
X8541491Y-14866579D01*
X8541491Y-14866579D02*
X8551015Y-14847531D01*
X8551015Y-14847531D02*
X8560539Y-14838008D01*
X8560539Y-14838008D02*
X8579586Y-14828484D01*
X8722444Y-14847531D02*
X8731967Y-14838008D01*
X8731967Y-14838008D02*
X8751015Y-14828484D01*
X8751015Y-14828484D02*
X8798634Y-14828484D01*
X8798634Y-14828484D02*
X8817682Y-14838008D01*
X8817682Y-14838008D02*
X8827205Y-14847531D01*
X8827205Y-14847531D02*
X8836729Y-14866579D01*
X8836729Y-14866579D02*
X8836729Y-14885627D01*
X8836729Y-14885627D02*
X8827205Y-14914198D01*
X8827205Y-14914198D02*
X8712920Y-15028484D01*
X8712920Y-15028484D02*
X8836729Y-15028484D01*
X8960539Y-14828484D02*
X8979586Y-14828484D01*
X8979586Y-14828484D02*
X8998634Y-14838008D01*
X8998634Y-14838008D02*
X9008158Y-14847531D01*
X9008158Y-14847531D02*
X9017682Y-14866579D01*
X9017682Y-14866579D02*
X9027205Y-14904674D01*
X9027205Y-14904674D02*
X9027205Y-14952293D01*
X9027205Y-14952293D02*
X9017682Y-14990388D01*
X9017682Y-14990388D02*
X9008158Y-15009436D01*
X9008158Y-15009436D02*
X8998634Y-15018960D01*
X8998634Y-15018960D02*
X8979586Y-15028484D01*
X8979586Y-15028484D02*
X8960539Y-15028484D01*
X8960539Y-15028484D02*
X8941491Y-15018960D01*
X8941491Y-15018960D02*
X8931967Y-15009436D01*
X8931967Y-15009436D02*
X8922444Y-14990388D01*
X8922444Y-14990388D02*
X8912920Y-14952293D01*
X8912920Y-14952293D02*
X8912920Y-14904674D01*
X8912920Y-14904674D02*
X8922444Y-14866579D01*
X8922444Y-14866579D02*
X8931967Y-14847531D01*
X8931967Y-14847531D02*
X8941491Y-14838008D01*
X8941491Y-14838008D02*
X8960539Y-14828484D01*
X9112920Y-15028484D02*
X9112920Y-14895150D01*
X9112920Y-14914198D02*
X9122444Y-14904674D01*
X9122444Y-14904674D02*
X9141491Y-14895150D01*
X9141491Y-14895150D02*
X9170063Y-14895150D01*
X9170063Y-14895150D02*
X9189110Y-14904674D01*
X9189110Y-14904674D02*
X9198634Y-14923722D01*
X9198634Y-14923722D02*
X9198634Y-15028484D01*
X9198634Y-14923722D02*
X9208158Y-14904674D01*
X9208158Y-14904674D02*
X9227205Y-14895150D01*
X9227205Y-14895150D02*
X9255777Y-14895150D01*
X9255777Y-14895150D02*
X9274825Y-14904674D01*
X9274825Y-14904674D02*
X9284348Y-14923722D01*
X9284348Y-14923722D02*
X9284348Y-15028484D01*
X9379586Y-15028484D02*
X9379586Y-14895150D01*
X9379586Y-14914198D02*
X9389110Y-14904674D01*
X9389110Y-14904674D02*
X9408158Y-14895150D01*
X9408158Y-14895150D02*
X9436729Y-14895150D01*
X9436729Y-14895150D02*
X9455777Y-14904674D01*
X9455777Y-14904674D02*
X9465301Y-14923722D01*
X9465301Y-14923722D02*
X9465301Y-15028484D01*
X9465301Y-14923722D02*
X9474825Y-14904674D01*
X9474825Y-14904674D02*
X9493872Y-14895150D01*
X9493872Y-14895150D02*
X9522444Y-14895150D01*
X9522444Y-14895150D02*
X9541491Y-14904674D01*
X9541491Y-14904674D02*
X9551015Y-14923722D01*
X9551015Y-14923722D02*
X9551015Y-15028484D01*
X9941491Y-14818960D02*
X9770063Y-15076103D01*
X10198634Y-14828484D02*
X10217682Y-14828484D01*
X10217682Y-14828484D02*
X10236729Y-14838008D01*
X10236729Y-14838008D02*
X10246253Y-14847531D01*
X10246253Y-14847531D02*
X10255777Y-14866579D01*
X10255777Y-14866579D02*
X10265301Y-14904674D01*
X10265301Y-14904674D02*
X10265301Y-14952293D01*
X10265301Y-14952293D02*
X10255777Y-14990388D01*
X10255777Y-14990388D02*
X10246253Y-15009436D01*
X10246253Y-15009436D02*
X10236729Y-15018960D01*
X10236729Y-15018960D02*
X10217682Y-15028484D01*
X10217682Y-15028484D02*
X10198634Y-15028484D01*
X10198634Y-15028484D02*
X10179587Y-15018960D01*
X10179587Y-15018960D02*
X10170063Y-15009436D01*
X10170063Y-15009436D02*
X10160539Y-14990388D01*
X10160539Y-14990388D02*
X10151015Y-14952293D01*
X10151015Y-14952293D02*
X10151015Y-14904674D01*
X10151015Y-14904674D02*
X10160539Y-14866579D01*
X10160539Y-14866579D02*
X10170063Y-14847531D01*
X10170063Y-14847531D02*
X10179587Y-14838008D01*
X10179587Y-14838008D02*
X10198634Y-14828484D01*
X10351015Y-15009436D02*
X10360539Y-15018960D01*
X10360539Y-15018960D02*
X10351015Y-15028484D01*
X10351015Y-15028484D02*
X10341491Y-15018960D01*
X10341491Y-15018960D02*
X10351015Y-15009436D01*
X10351015Y-15009436D02*
X10351015Y-15028484D01*
X10484348Y-14828484D02*
X10503396Y-14828484D01*
X10503396Y-14828484D02*
X10522444Y-14838008D01*
X10522444Y-14838008D02*
X10531968Y-14847531D01*
X10531968Y-14847531D02*
X10541491Y-14866579D01*
X10541491Y-14866579D02*
X10551015Y-14904674D01*
X10551015Y-14904674D02*
X10551015Y-14952293D01*
X10551015Y-14952293D02*
X10541491Y-14990388D01*
X10541491Y-14990388D02*
X10531968Y-15009436D01*
X10531968Y-15009436D02*
X10522444Y-15018960D01*
X10522444Y-15018960D02*
X10503396Y-15028484D01*
X10503396Y-15028484D02*
X10484348Y-15028484D01*
X10484348Y-15028484D02*
X10465301Y-15018960D01*
X10465301Y-15018960D02*
X10455777Y-15009436D01*
X10455777Y-15009436D02*
X10446253Y-14990388D01*
X10446253Y-14990388D02*
X10436729Y-14952293D01*
X10436729Y-14952293D02*
X10436729Y-14904674D01*
X10436729Y-14904674D02*
X10446253Y-14866579D01*
X10446253Y-14866579D02*
X10455777Y-14847531D01*
X10455777Y-14847531D02*
X10465301Y-14838008D01*
X10465301Y-14838008D02*
X10484348Y-14828484D01*
X10722444Y-14895150D02*
X10722444Y-15028484D01*
X10674825Y-14818960D02*
X10627206Y-14961817D01*
X10627206Y-14961817D02*
X10751015Y-14961817D01*
X10865301Y-14828484D02*
X10884349Y-14828484D01*
X10884349Y-14828484D02*
X10903396Y-14838008D01*
X10903396Y-14838008D02*
X10912920Y-14847531D01*
X10912920Y-14847531D02*
X10922444Y-14866579D01*
X10922444Y-14866579D02*
X10931968Y-14904674D01*
X10931968Y-14904674D02*
X10931968Y-14952293D01*
X10931968Y-14952293D02*
X10922444Y-14990388D01*
X10922444Y-14990388D02*
X10912920Y-15009436D01*
X10912920Y-15009436D02*
X10903396Y-15018960D01*
X10903396Y-15018960D02*
X10884349Y-15028484D01*
X10884349Y-15028484D02*
X10865301Y-15028484D01*
X10865301Y-15028484D02*
X10846253Y-15018960D01*
X10846253Y-15018960D02*
X10836729Y-15009436D01*
X10836729Y-15009436D02*
X10827206Y-14990388D01*
X10827206Y-14990388D02*
X10817682Y-14952293D01*
X10817682Y-14952293D02*
X10817682Y-14904674D01*
X10817682Y-14904674D02*
X10827206Y-14866579D01*
X10827206Y-14866579D02*
X10836729Y-14847531D01*
X10836729Y-14847531D02*
X10846253Y-14838008D01*
X10846253Y-14838008D02*
X10865301Y-14828484D01*
X11008158Y-14847531D02*
X11017682Y-14838008D01*
X11017682Y-14838008D02*
X11036729Y-14828484D01*
X11036729Y-14828484D02*
X11084349Y-14828484D01*
X11084349Y-14828484D02*
X11103396Y-14838008D01*
X11103396Y-14838008D02*
X11112920Y-14847531D01*
X11112920Y-14847531D02*
X11122444Y-14866579D01*
X11122444Y-14866579D02*
X11122444Y-14885627D01*
X11122444Y-14885627D02*
X11112920Y-14914198D01*
X11112920Y-14914198D02*
X10998634Y-15028484D01*
X10998634Y-15028484D02*
X11122444Y-15028484D01*
X11198634Y-14828484D02*
X11198634Y-14866579D01*
X11274825Y-14828484D02*
X11274825Y-14866579D01*
X11570063Y-15104674D02*
X11560539Y-15095150D01*
X11560539Y-15095150D02*
X11541491Y-15066579D01*
X11541491Y-15066579D02*
X11531968Y-15047531D01*
X11531968Y-15047531D02*
X11522444Y-15018960D01*
X11522444Y-15018960D02*
X11512920Y-14971341D01*
X11512920Y-14971341D02*
X11512920Y-14933246D01*
X11512920Y-14933246D02*
X11522444Y-14885627D01*
X11522444Y-14885627D02*
X11531968Y-14857055D01*
X11531968Y-14857055D02*
X11541491Y-14838008D01*
X11541491Y-14838008D02*
X11560539Y-14809436D01*
X11560539Y-14809436D02*
X11570063Y-14799912D01*
X11636729Y-14847531D02*
X11646253Y-14838008D01*
X11646253Y-14838008D02*
X11665301Y-14828484D01*
X11665301Y-14828484D02*
X11712920Y-14828484D01*
X11712920Y-14828484D02*
X11731968Y-14838008D01*
X11731968Y-14838008D02*
X11741491Y-14847531D01*
X11741491Y-14847531D02*
X11751015Y-14866579D01*
X11751015Y-14866579D02*
X11751015Y-14885627D01*
X11751015Y-14885627D02*
X11741491Y-14914198D01*
X11741491Y-14914198D02*
X11627206Y-15028484D01*
X11627206Y-15028484D02*
X11751015Y-15028484D01*
X11874825Y-14828484D02*
X11893872Y-14828484D01*
X11893872Y-14828484D02*
X11912920Y-14838008D01*
X11912920Y-14838008D02*
X11922444Y-14847531D01*
X11922444Y-14847531D02*
X11931968Y-14866579D01*
X11931968Y-14866579D02*
X11941491Y-14904674D01*
X11941491Y-14904674D02*
X11941491Y-14952293D01*
X11941491Y-14952293D02*
X11931968Y-14990388D01*
X11931968Y-14990388D02*
X11922444Y-15009436D01*
X11922444Y-15009436D02*
X11912920Y-15018960D01*
X11912920Y-15018960D02*
X11893872Y-15028484D01*
X11893872Y-15028484D02*
X11874825Y-15028484D01*
X11874825Y-15028484D02*
X11855777Y-15018960D01*
X11855777Y-15018960D02*
X11846253Y-15009436D01*
X11846253Y-15009436D02*
X11836729Y-14990388D01*
X11836729Y-14990388D02*
X11827206Y-14952293D01*
X11827206Y-14952293D02*
X11827206Y-14904674D01*
X11827206Y-14904674D02*
X11836729Y-14866579D01*
X11836729Y-14866579D02*
X11846253Y-14847531D01*
X11846253Y-14847531D02*
X11855777Y-14838008D01*
X11855777Y-14838008D02*
X11874825Y-14828484D01*
X12179587Y-15028484D02*
X12179587Y-14828484D01*
X12265301Y-15028484D02*
X12265301Y-14923722D01*
X12265301Y-14923722D02*
X12255777Y-14904674D01*
X12255777Y-14904674D02*
X12236730Y-14895150D01*
X12236730Y-14895150D02*
X12208158Y-14895150D01*
X12208158Y-14895150D02*
X12189110Y-14904674D01*
X12189110Y-14904674D02*
X12179587Y-14914198D01*
X12389110Y-15028484D02*
X12370063Y-15018960D01*
X12370063Y-15018960D02*
X12360539Y-15009436D01*
X12360539Y-15009436D02*
X12351015Y-14990388D01*
X12351015Y-14990388D02*
X12351015Y-14933246D01*
X12351015Y-14933246D02*
X12360539Y-14914198D01*
X12360539Y-14914198D02*
X12370063Y-14904674D01*
X12370063Y-14904674D02*
X12389110Y-14895150D01*
X12389110Y-14895150D02*
X12417682Y-14895150D01*
X12417682Y-14895150D02*
X12436730Y-14904674D01*
X12436730Y-14904674D02*
X12446253Y-14914198D01*
X12446253Y-14914198D02*
X12455777Y-14933246D01*
X12455777Y-14933246D02*
X12455777Y-14990388D01*
X12455777Y-14990388D02*
X12446253Y-15009436D01*
X12446253Y-15009436D02*
X12436730Y-15018960D01*
X12436730Y-15018960D02*
X12417682Y-15028484D01*
X12417682Y-15028484D02*
X12389110Y-15028484D01*
X12570063Y-15028484D02*
X12551015Y-15018960D01*
X12551015Y-15018960D02*
X12541491Y-14999912D01*
X12541491Y-14999912D02*
X12541491Y-14828484D01*
X12722444Y-15018960D02*
X12703396Y-15028484D01*
X12703396Y-15028484D02*
X12665301Y-15028484D01*
X12665301Y-15028484D02*
X12646253Y-15018960D01*
X12646253Y-15018960D02*
X12636730Y-14999912D01*
X12636730Y-14999912D02*
X12636730Y-14923722D01*
X12636730Y-14923722D02*
X12646253Y-14904674D01*
X12646253Y-14904674D02*
X12665301Y-14895150D01*
X12665301Y-14895150D02*
X12703396Y-14895150D01*
X12703396Y-14895150D02*
X12722444Y-14904674D01*
X12722444Y-14904674D02*
X12731968Y-14923722D01*
X12731968Y-14923722D02*
X12731968Y-14942769D01*
X12731968Y-14942769D02*
X12636730Y-14961817D01*
X12808158Y-15018960D02*
X12827206Y-15028484D01*
X12827206Y-15028484D02*
X12865301Y-15028484D01*
X12865301Y-15028484D02*
X12884349Y-15018960D01*
X12884349Y-15018960D02*
X12893872Y-14999912D01*
X12893872Y-14999912D02*
X12893872Y-14990388D01*
X12893872Y-14990388D02*
X12884349Y-14971341D01*
X12884349Y-14971341D02*
X12865301Y-14961817D01*
X12865301Y-14961817D02*
X12836730Y-14961817D01*
X12836730Y-14961817D02*
X12817682Y-14952293D01*
X12817682Y-14952293D02*
X12808158Y-14933246D01*
X12808158Y-14933246D02*
X12808158Y-14923722D01*
X12808158Y-14923722D02*
X12817682Y-14904674D01*
X12817682Y-14904674D02*
X12836730Y-14895150D01*
X12836730Y-14895150D02*
X12865301Y-14895150D01*
X12865301Y-14895150D02*
X12884349Y-14904674D01*
X12960539Y-15104674D02*
X12970063Y-15095150D01*
X12970063Y-15095150D02*
X12989111Y-15066579D01*
X12989111Y-15066579D02*
X12998634Y-15047531D01*
X12998634Y-15047531D02*
X13008158Y-15018960D01*
X13008158Y-15018960D02*
X13017682Y-14971341D01*
X13017682Y-14971341D02*
X13017682Y-14933246D01*
X13017682Y-14933246D02*
X13008158Y-14885627D01*
X13008158Y-14885627D02*
X12998634Y-14857055D01*
X12998634Y-14857055D02*
X12989111Y-14838008D01*
X12989111Y-14838008D02*
X12970063Y-14809436D01*
X12970063Y-14809436D02*
X12960539Y-14799912D01*
D14*
X7935000Y-15261000D02*
X7995000Y-15201000D01*
X7935000Y-15141000D01*
X7875000Y-15201000D01*
X7935000Y-15261000D01*
D12*
X8360539Y-15292484D02*
X8246253Y-15292484D01*
X8303396Y-15292484D02*
X8303396Y-15092484D01*
X8303396Y-15092484D02*
X8284348Y-15121055D01*
X8284348Y-15121055D02*
X8265301Y-15140103D01*
X8265301Y-15140103D02*
X8246253Y-15149627D01*
X8446253Y-15273436D02*
X8455777Y-15282960D01*
X8455777Y-15282960D02*
X8446253Y-15292484D01*
X8446253Y-15292484D02*
X8436729Y-15282960D01*
X8436729Y-15282960D02*
X8446253Y-15273436D01*
X8446253Y-15273436D02*
X8446253Y-15292484D01*
X8531967Y-15111531D02*
X8541491Y-15102008D01*
X8541491Y-15102008D02*
X8560539Y-15092484D01*
X8560539Y-15092484D02*
X8608158Y-15092484D01*
X8608158Y-15092484D02*
X8627205Y-15102008D01*
X8627205Y-15102008D02*
X8636729Y-15111531D01*
X8636729Y-15111531D02*
X8646253Y-15130579D01*
X8646253Y-15130579D02*
X8646253Y-15149627D01*
X8646253Y-15149627D02*
X8636729Y-15178198D01*
X8636729Y-15178198D02*
X8522444Y-15292484D01*
X8522444Y-15292484D02*
X8646253Y-15292484D01*
X8770063Y-15092484D02*
X8789110Y-15092484D01*
X8789110Y-15092484D02*
X8808158Y-15102008D01*
X8808158Y-15102008D02*
X8817682Y-15111531D01*
X8817682Y-15111531D02*
X8827205Y-15130579D01*
X8827205Y-15130579D02*
X8836729Y-15168674D01*
X8836729Y-15168674D02*
X8836729Y-15216293D01*
X8836729Y-15216293D02*
X8827205Y-15254388D01*
X8827205Y-15254388D02*
X8817682Y-15273436D01*
X8817682Y-15273436D02*
X8808158Y-15282960D01*
X8808158Y-15282960D02*
X8789110Y-15292484D01*
X8789110Y-15292484D02*
X8770063Y-15292484D01*
X8770063Y-15292484D02*
X8751015Y-15282960D01*
X8751015Y-15282960D02*
X8741491Y-15273436D01*
X8741491Y-15273436D02*
X8731967Y-15254388D01*
X8731967Y-15254388D02*
X8722444Y-15216293D01*
X8722444Y-15216293D02*
X8722444Y-15168674D01*
X8722444Y-15168674D02*
X8731967Y-15130579D01*
X8731967Y-15130579D02*
X8741491Y-15111531D01*
X8741491Y-15111531D02*
X8751015Y-15102008D01*
X8751015Y-15102008D02*
X8770063Y-15092484D01*
X8960539Y-15092484D02*
X8979586Y-15092484D01*
X8979586Y-15092484D02*
X8998634Y-15102008D01*
X8998634Y-15102008D02*
X9008158Y-15111531D01*
X9008158Y-15111531D02*
X9017682Y-15130579D01*
X9017682Y-15130579D02*
X9027205Y-15168674D01*
X9027205Y-15168674D02*
X9027205Y-15216293D01*
X9027205Y-15216293D02*
X9017682Y-15254388D01*
X9017682Y-15254388D02*
X9008158Y-15273436D01*
X9008158Y-15273436D02*
X8998634Y-15282960D01*
X8998634Y-15282960D02*
X8979586Y-15292484D01*
X8979586Y-15292484D02*
X8960539Y-15292484D01*
X8960539Y-15292484D02*
X8941491Y-15282960D01*
X8941491Y-15282960D02*
X8931967Y-15273436D01*
X8931967Y-15273436D02*
X8922444Y-15254388D01*
X8922444Y-15254388D02*
X8912920Y-15216293D01*
X8912920Y-15216293D02*
X8912920Y-15168674D01*
X8912920Y-15168674D02*
X8922444Y-15130579D01*
X8922444Y-15130579D02*
X8931967Y-15111531D01*
X8931967Y-15111531D02*
X8941491Y-15102008D01*
X8941491Y-15102008D02*
X8960539Y-15092484D01*
X9112920Y-15292484D02*
X9112920Y-15159150D01*
X9112920Y-15178198D02*
X9122444Y-15168674D01*
X9122444Y-15168674D02*
X9141491Y-15159150D01*
X9141491Y-15159150D02*
X9170063Y-15159150D01*
X9170063Y-15159150D02*
X9189110Y-15168674D01*
X9189110Y-15168674D02*
X9198634Y-15187722D01*
X9198634Y-15187722D02*
X9198634Y-15292484D01*
X9198634Y-15187722D02*
X9208158Y-15168674D01*
X9208158Y-15168674D02*
X9227205Y-15159150D01*
X9227205Y-15159150D02*
X9255777Y-15159150D01*
X9255777Y-15159150D02*
X9274825Y-15168674D01*
X9274825Y-15168674D02*
X9284348Y-15187722D01*
X9284348Y-15187722D02*
X9284348Y-15292484D01*
X9379586Y-15292484D02*
X9379586Y-15159150D01*
X9379586Y-15178198D02*
X9389110Y-15168674D01*
X9389110Y-15168674D02*
X9408158Y-15159150D01*
X9408158Y-15159150D02*
X9436729Y-15159150D01*
X9436729Y-15159150D02*
X9455777Y-15168674D01*
X9455777Y-15168674D02*
X9465301Y-15187722D01*
X9465301Y-15187722D02*
X9465301Y-15292484D01*
X9465301Y-15187722D02*
X9474825Y-15168674D01*
X9474825Y-15168674D02*
X9493872Y-15159150D01*
X9493872Y-15159150D02*
X9522444Y-15159150D01*
X9522444Y-15159150D02*
X9541491Y-15168674D01*
X9541491Y-15168674D02*
X9551015Y-15187722D01*
X9551015Y-15187722D02*
X9551015Y-15292484D01*
X9941491Y-15082960D02*
X9770063Y-15340103D01*
X10198634Y-15092484D02*
X10217682Y-15092484D01*
X10217682Y-15092484D02*
X10236729Y-15102008D01*
X10236729Y-15102008D02*
X10246253Y-15111531D01*
X10246253Y-15111531D02*
X10255777Y-15130579D01*
X10255777Y-15130579D02*
X10265301Y-15168674D01*
X10265301Y-15168674D02*
X10265301Y-15216293D01*
X10265301Y-15216293D02*
X10255777Y-15254388D01*
X10255777Y-15254388D02*
X10246253Y-15273436D01*
X10246253Y-15273436D02*
X10236729Y-15282960D01*
X10236729Y-15282960D02*
X10217682Y-15292484D01*
X10217682Y-15292484D02*
X10198634Y-15292484D01*
X10198634Y-15292484D02*
X10179587Y-15282960D01*
X10179587Y-15282960D02*
X10170063Y-15273436D01*
X10170063Y-15273436D02*
X10160539Y-15254388D01*
X10160539Y-15254388D02*
X10151015Y-15216293D01*
X10151015Y-15216293D02*
X10151015Y-15168674D01*
X10151015Y-15168674D02*
X10160539Y-15130579D01*
X10160539Y-15130579D02*
X10170063Y-15111531D01*
X10170063Y-15111531D02*
X10179587Y-15102008D01*
X10179587Y-15102008D02*
X10198634Y-15092484D01*
X10351015Y-15273436D02*
X10360539Y-15282960D01*
X10360539Y-15282960D02*
X10351015Y-15292484D01*
X10351015Y-15292484D02*
X10341491Y-15282960D01*
X10341491Y-15282960D02*
X10351015Y-15273436D01*
X10351015Y-15273436D02*
X10351015Y-15292484D01*
X10484348Y-15092484D02*
X10503396Y-15092484D01*
X10503396Y-15092484D02*
X10522444Y-15102008D01*
X10522444Y-15102008D02*
X10531968Y-15111531D01*
X10531968Y-15111531D02*
X10541491Y-15130579D01*
X10541491Y-15130579D02*
X10551015Y-15168674D01*
X10551015Y-15168674D02*
X10551015Y-15216293D01*
X10551015Y-15216293D02*
X10541491Y-15254388D01*
X10541491Y-15254388D02*
X10531968Y-15273436D01*
X10531968Y-15273436D02*
X10522444Y-15282960D01*
X10522444Y-15282960D02*
X10503396Y-15292484D01*
X10503396Y-15292484D02*
X10484348Y-15292484D01*
X10484348Y-15292484D02*
X10465301Y-15282960D01*
X10465301Y-15282960D02*
X10455777Y-15273436D01*
X10455777Y-15273436D02*
X10446253Y-15254388D01*
X10446253Y-15254388D02*
X10436729Y-15216293D01*
X10436729Y-15216293D02*
X10436729Y-15168674D01*
X10436729Y-15168674D02*
X10446253Y-15130579D01*
X10446253Y-15130579D02*
X10455777Y-15111531D01*
X10455777Y-15111531D02*
X10465301Y-15102008D01*
X10465301Y-15102008D02*
X10484348Y-15092484D01*
X10722444Y-15159150D02*
X10722444Y-15292484D01*
X10674825Y-15082960D02*
X10627206Y-15225817D01*
X10627206Y-15225817D02*
X10751015Y-15225817D01*
X10808158Y-15092484D02*
X10941491Y-15092484D01*
X10941491Y-15092484D02*
X10855777Y-15292484D01*
X11008158Y-15111531D02*
X11017682Y-15102008D01*
X11017682Y-15102008D02*
X11036729Y-15092484D01*
X11036729Y-15092484D02*
X11084349Y-15092484D01*
X11084349Y-15092484D02*
X11103396Y-15102008D01*
X11103396Y-15102008D02*
X11112920Y-15111531D01*
X11112920Y-15111531D02*
X11122444Y-15130579D01*
X11122444Y-15130579D02*
X11122444Y-15149627D01*
X11122444Y-15149627D02*
X11112920Y-15178198D01*
X11112920Y-15178198D02*
X10998634Y-15292484D01*
X10998634Y-15292484D02*
X11122444Y-15292484D01*
X11198634Y-15092484D02*
X11198634Y-15130579D01*
X11274825Y-15092484D02*
X11274825Y-15130579D01*
X11570063Y-15368674D02*
X11560539Y-15359150D01*
X11560539Y-15359150D02*
X11541491Y-15330579D01*
X11541491Y-15330579D02*
X11531968Y-15311531D01*
X11531968Y-15311531D02*
X11522444Y-15282960D01*
X11522444Y-15282960D02*
X11512920Y-15235341D01*
X11512920Y-15235341D02*
X11512920Y-15197246D01*
X11512920Y-15197246D02*
X11522444Y-15149627D01*
X11522444Y-15149627D02*
X11531968Y-15121055D01*
X11531968Y-15121055D02*
X11541491Y-15102008D01*
X11541491Y-15102008D02*
X11560539Y-15073436D01*
X11560539Y-15073436D02*
X11570063Y-15063912D01*
X11627206Y-15092484D02*
X11760539Y-15092484D01*
X11760539Y-15092484D02*
X11674825Y-15292484D01*
X11989110Y-15292484D02*
X11989110Y-15092484D01*
X12074825Y-15292484D02*
X12074825Y-15187722D01*
X12074825Y-15187722D02*
X12065301Y-15168674D01*
X12065301Y-15168674D02*
X12046253Y-15159150D01*
X12046253Y-15159150D02*
X12017682Y-15159150D01*
X12017682Y-15159150D02*
X11998634Y-15168674D01*
X11998634Y-15168674D02*
X11989110Y-15178198D01*
X12198634Y-15292484D02*
X12179587Y-15282960D01*
X12179587Y-15282960D02*
X12170063Y-15273436D01*
X12170063Y-15273436D02*
X12160539Y-15254388D01*
X12160539Y-15254388D02*
X12160539Y-15197246D01*
X12160539Y-15197246D02*
X12170063Y-15178198D01*
X12170063Y-15178198D02*
X12179587Y-15168674D01*
X12179587Y-15168674D02*
X12198634Y-15159150D01*
X12198634Y-15159150D02*
X12227206Y-15159150D01*
X12227206Y-15159150D02*
X12246253Y-15168674D01*
X12246253Y-15168674D02*
X12255777Y-15178198D01*
X12255777Y-15178198D02*
X12265301Y-15197246D01*
X12265301Y-15197246D02*
X12265301Y-15254388D01*
X12265301Y-15254388D02*
X12255777Y-15273436D01*
X12255777Y-15273436D02*
X12246253Y-15282960D01*
X12246253Y-15282960D02*
X12227206Y-15292484D01*
X12227206Y-15292484D02*
X12198634Y-15292484D01*
X12379587Y-15292484D02*
X12360539Y-15282960D01*
X12360539Y-15282960D02*
X12351015Y-15263912D01*
X12351015Y-15263912D02*
X12351015Y-15092484D01*
X12531968Y-15282960D02*
X12512920Y-15292484D01*
X12512920Y-15292484D02*
X12474825Y-15292484D01*
X12474825Y-15292484D02*
X12455777Y-15282960D01*
X12455777Y-15282960D02*
X12446253Y-15263912D01*
X12446253Y-15263912D02*
X12446253Y-15187722D01*
X12446253Y-15187722D02*
X12455777Y-15168674D01*
X12455777Y-15168674D02*
X12474825Y-15159150D01*
X12474825Y-15159150D02*
X12512920Y-15159150D01*
X12512920Y-15159150D02*
X12531968Y-15168674D01*
X12531968Y-15168674D02*
X12541491Y-15187722D01*
X12541491Y-15187722D02*
X12541491Y-15206769D01*
X12541491Y-15206769D02*
X12446253Y-15225817D01*
X12617682Y-15282960D02*
X12636730Y-15292484D01*
X12636730Y-15292484D02*
X12674825Y-15292484D01*
X12674825Y-15292484D02*
X12693872Y-15282960D01*
X12693872Y-15282960D02*
X12703396Y-15263912D01*
X12703396Y-15263912D02*
X12703396Y-15254388D01*
X12703396Y-15254388D02*
X12693872Y-15235341D01*
X12693872Y-15235341D02*
X12674825Y-15225817D01*
X12674825Y-15225817D02*
X12646253Y-15225817D01*
X12646253Y-15225817D02*
X12627206Y-15216293D01*
X12627206Y-15216293D02*
X12617682Y-15197246D01*
X12617682Y-15197246D02*
X12617682Y-15187722D01*
X12617682Y-15187722D02*
X12627206Y-15168674D01*
X12627206Y-15168674D02*
X12646253Y-15159150D01*
X12646253Y-15159150D02*
X12674825Y-15159150D01*
X12674825Y-15159150D02*
X12693872Y-15168674D01*
X12770063Y-15368674D02*
X12779587Y-15359150D01*
X12779587Y-15359150D02*
X12798634Y-15330579D01*
X12798634Y-15330579D02*
X12808158Y-15311531D01*
X12808158Y-15311531D02*
X12817682Y-15282960D01*
X12817682Y-15282960D02*
X12827206Y-15235341D01*
X12827206Y-15235341D02*
X12827206Y-15197246D01*
X12827206Y-15197246D02*
X12817682Y-15149627D01*
X12817682Y-15149627D02*
X12808158Y-15121055D01*
X12808158Y-15121055D02*
X12798634Y-15102008D01*
X12798634Y-15102008D02*
X12779587Y-15073436D01*
X12779587Y-15073436D02*
X12770063Y-15063912D01*
M02*
