G04 #@! TF.GenerationSoftware,KiCad,Pcbnew,8.0.7*
G04 #@! TF.CreationDate,2025-07-10T22:44:40+02:00*
G04 #@! TF.ProjectId,modbus-to-x,6d6f6462-7573-42d7-946f-2d782e6b6963,rev?*
G04 #@! TF.SameCoordinates,Original*
G04 #@! TF.FileFunction,Copper,L3,Inr*
G04 #@! TF.FilePolarity,Positive*
%FSLAX46Y46*%
G04 Gerber Fmt 4.6, Leading zero omitted, Abs format (unit mm)*
G04 Created by KiCad (PCBNEW 8.0.7) date 2025-07-10 22:44:40*
%MOMM*%
%LPD*%
G01*
G04 APERTURE LIST*
G04 #@! TA.AperFunction,ComponentPad*
%ADD10C,0.600000*%
G04 #@! TD*
G04 #@! TA.AperFunction,ComponentPad*
%ADD11R,1.700000X1.700000*%
G04 #@! TD*
G04 #@! TA.AperFunction,ComponentPad*
%ADD12O,1.700000X1.700000*%
G04 #@! TD*
G04 #@! TA.AperFunction,ComponentPad*
%ADD13R,2.032000X2.032000*%
G04 #@! TD*
G04 #@! TA.AperFunction,ComponentPad*
%ADD14C,2.032000*%
G04 #@! TD*
G04 #@! TA.AperFunction,ComponentPad*
%ADD15C,0.499999*%
G04 #@! TD*
G04 #@! TA.AperFunction,ComponentPad*
%ADD16C,1.530000*%
G04 #@! TD*
G04 #@! TA.AperFunction,ComponentPad*
%ADD17R,1.530000X1.530000*%
G04 #@! TD*
G04 #@! TA.AperFunction,ComponentPad*
%ADD18R,2.413000X2.413000*%
G04 #@! TD*
G04 #@! TA.AperFunction,ComponentPad*
%ADD19C,2.413000*%
G04 #@! TD*
G04 #@! TA.AperFunction,ViaPad*
%ADD20C,0.600000*%
G04 #@! TD*
G04 #@! TA.AperFunction,ViaPad*
%ADD21C,0.500000*%
G04 #@! TD*
G04 APERTURE END LIST*
D10*
X108549700Y-90680100D03*
X108549700Y-94680100D03*
X108549700Y-98680100D03*
X108549700Y-103180100D03*
X112549700Y-90680100D03*
X112549700Y-94680100D03*
X112549700Y-98680100D03*
X112549700Y-103180100D03*
X116549700Y-90680100D03*
X116549700Y-94680100D03*
X116549700Y-98680100D03*
X116549700Y-103180100D03*
X120549700Y-90680100D03*
X120549700Y-94680100D03*
X120549700Y-98680100D03*
X120549700Y-103180100D03*
D11*
X131622800Y-121254600D03*
D12*
X131622800Y-123794600D03*
D13*
X114271600Y-130516700D03*
D14*
X117771600Y-130516700D03*
D13*
X128519700Y-100498100D03*
D14*
X128519700Y-103998100D03*
D15*
X94975701Y-115357100D03*
X93975700Y-116557100D03*
X93975700Y-115357100D03*
X93975700Y-114157100D03*
X92975702Y-115357100D03*
D16*
X107594400Y-130810000D03*
X107594400Y-128270000D03*
X105054400Y-130810000D03*
X105054400Y-128270000D03*
X102514400Y-130810000D03*
X102514400Y-128270000D03*
X99974400Y-130810000D03*
X99974400Y-128270000D03*
X97434400Y-130810000D03*
X97434400Y-128270000D03*
X94894400Y-130810000D03*
X94894400Y-128270000D03*
X92354400Y-130810000D03*
X92354400Y-128270000D03*
X89814400Y-130810000D03*
X89814400Y-128270000D03*
X87274400Y-130810000D03*
X87274400Y-128270000D03*
X84734400Y-130810000D03*
D17*
X84734400Y-128270000D03*
D18*
X128519700Y-89195100D03*
D19*
X128519700Y-92695100D03*
X128519700Y-96195100D03*
D20*
X104749600Y-98247200D03*
X103479600Y-97739200D03*
X97907700Y-88493600D03*
X90746000Y-109790300D03*
X84345200Y-114514700D03*
X100198700Y-109515100D03*
D21*
X91105500Y-108956300D03*
X85973700Y-118914100D03*
X84091200Y-109282300D03*
D20*
X105968800Y-89267000D03*
X117060400Y-124674700D03*
D21*
X85513600Y-120356700D03*
D20*
X85394800Y-126390400D03*
X103907100Y-124501100D03*
X97606800Y-83779100D03*
D21*
X117754400Y-110490000D03*
D20*
X92202000Y-91135200D03*
X85750400Y-88696800D03*
D21*
X124176300Y-120868900D03*
X106853500Y-111699500D03*
X110337600Y-131470400D03*
X98602800Y-126644400D03*
D20*
X100198700Y-111547100D03*
D21*
X125696400Y-114201000D03*
D20*
X94882400Y-83859900D03*
X129916700Y-116119100D03*
X124307600Y-88849200D03*
X91254000Y-116157101D03*
X108834700Y-109642100D03*
X94098800Y-105167500D03*
X101831200Y-96344300D03*
D21*
X106802700Y-110531100D03*
D20*
X82702400Y-102616000D03*
D21*
X113457500Y-110886700D03*
X88358400Y-100290700D03*
D20*
X90728700Y-90173100D03*
X95368800Y-106234300D03*
X126661600Y-105065900D03*
X105380300Y-124501100D03*
X93641600Y-100239900D03*
D21*
X113457500Y-112105900D03*
X121276800Y-109485500D03*
X124227100Y-124653500D03*
X121991900Y-117185900D03*
D20*
X99124200Y-100650100D03*
X121022800Y-119941700D03*
X102988800Y-91705500D03*
X106646400Y-120610700D03*
X102226800Y-92670700D03*
D21*
X120884100Y-112105900D03*
D20*
X93692400Y-101408300D03*
D21*
X107086400Y-124510800D03*
X113182400Y-114452400D03*
X124328700Y-92344700D03*
D20*
X122804700Y-112191500D03*
D21*
X113639600Y-118008400D03*
X126238000Y-107848400D03*
X124358400Y-96367600D03*
X126356800Y-116343500D03*
X91283600Y-115357100D03*
D20*
X89120400Y-109028300D03*
X92117600Y-107047100D03*
X96892800Y-114006700D03*
X100194800Y-112533500D03*
X110794800Y-121513600D03*
D21*
X126509200Y-122845900D03*
X118686000Y-109485500D03*
D20*
X127169600Y-112635100D03*
X127830000Y-119239100D03*
X127876100Y-115327500D03*
X131318000Y-118668800D03*
X103835200Y-105816400D03*
X103835200Y-104800400D03*
X103835200Y-103835200D03*
X124307600Y-100736400D03*
X124307600Y-101854000D03*
X124307600Y-102870000D03*
X124307600Y-90982800D03*
G04 #@! TA.AperFunction,Conductor*
G36*
X86204603Y-128955008D02*
G01*
X86224972Y-128977593D01*
X86301268Y-129086555D01*
X86457845Y-129243132D01*
X86639233Y-129370142D01*
X86686509Y-129392187D01*
X86762491Y-129427618D01*
X86814931Y-129473790D01*
X86834083Y-129540983D01*
X86813867Y-129607865D01*
X86762491Y-129652382D01*
X86639236Y-129709856D01*
X86639234Y-129709857D01*
X86457844Y-129836868D01*
X86301268Y-129993444D01*
X86174257Y-130174833D01*
X86116506Y-130298683D01*
X86070334Y-130351122D01*
X86003140Y-130370274D01*
X85936259Y-130350058D01*
X85891742Y-130298683D01*
X85834107Y-130175084D01*
X85788294Y-130109657D01*
X85225528Y-130672424D01*
X85209645Y-130613147D01*
X85142502Y-130496853D01*
X85047547Y-130401898D01*
X84931253Y-130334755D01*
X84871974Y-130318871D01*
X85434741Y-129756104D01*
X85434395Y-129752154D01*
X85397502Y-129705999D01*
X85390308Y-129636501D01*
X85421830Y-129574146D01*
X85482060Y-129538731D01*
X85512250Y-129535000D01*
X85547228Y-129535000D01*
X85547244Y-129534999D01*
X85606772Y-129528598D01*
X85606779Y-129528596D01*
X85741486Y-129478354D01*
X85741493Y-129478350D01*
X85856587Y-129392190D01*
X85856590Y-129392187D01*
X85942750Y-129277093D01*
X85942754Y-129277086D01*
X85992996Y-129142379D01*
X85992998Y-129142372D01*
X85999399Y-129082844D01*
X85999400Y-129082827D01*
X85999400Y-129048721D01*
X86019085Y-128981682D01*
X86071889Y-128935927D01*
X86141047Y-128925983D01*
X86204603Y-128955008D01*
G37*
G04 #@! TD.AperFunction*
G04 #@! TA.AperFunction,Conductor*
G36*
X106392264Y-128730531D02*
G01*
X106436782Y-128781908D01*
X106494138Y-128904911D01*
X106494258Y-128905167D01*
X106621268Y-129086555D01*
X106777845Y-129243132D01*
X106959233Y-129370142D01*
X107083082Y-129427893D01*
X107135522Y-129474065D01*
X107154674Y-129541258D01*
X107134459Y-129608139D01*
X107083083Y-129652657D01*
X106959480Y-129710294D01*
X106894058Y-129756103D01*
X106894057Y-129756104D01*
X107456825Y-130318871D01*
X107397547Y-130334755D01*
X107281253Y-130401898D01*
X107186298Y-130496853D01*
X107119155Y-130613147D01*
X107103271Y-130672424D01*
X106540504Y-130109657D01*
X106540503Y-130109658D01*
X106494694Y-130175080D01*
X106437057Y-130298683D01*
X106390884Y-130351122D01*
X106323690Y-130370274D01*
X106256809Y-130350058D01*
X106212293Y-130298682D01*
X106154542Y-130174833D01*
X106027532Y-129993445D01*
X105870955Y-129836868D01*
X105689567Y-129709858D01*
X105681291Y-129705999D01*
X105566308Y-129652382D01*
X105513868Y-129606210D01*
X105494716Y-129539017D01*
X105514931Y-129472136D01*
X105566308Y-129427618D01*
X105566900Y-129427342D01*
X105689567Y-129370142D01*
X105870955Y-129243132D01*
X106027532Y-129086555D01*
X106154542Y-128905167D01*
X106212018Y-128781907D01*
X106258190Y-128729468D01*
X106325383Y-128710316D01*
X106392264Y-128730531D01*
G37*
G04 #@! TD.AperFunction*
G04 #@! TA.AperFunction,Conductor*
G36*
X96959155Y-128466853D02*
G01*
X97026298Y-128583147D01*
X97121253Y-128678102D01*
X97237547Y-128745245D01*
X97296825Y-128761128D01*
X96734057Y-129323894D01*
X96799484Y-129369707D01*
X96923083Y-129427342D01*
X96975522Y-129473514D01*
X96994674Y-129540708D01*
X96974458Y-129607589D01*
X96923083Y-129652106D01*
X96799233Y-129709857D01*
X96617844Y-129836868D01*
X96461268Y-129993444D01*
X96334257Y-130174834D01*
X96334256Y-130174836D01*
X96276782Y-130298091D01*
X96230610Y-130350531D01*
X96163417Y-130369683D01*
X96096535Y-130349467D01*
X96052018Y-130298091D01*
X95994543Y-130174836D01*
X95994542Y-130174834D01*
X95994542Y-130174833D01*
X95867532Y-129993445D01*
X95710955Y-129836868D01*
X95529567Y-129709858D01*
X95521291Y-129705999D01*
X95406308Y-129652382D01*
X95353868Y-129606210D01*
X95334716Y-129539017D01*
X95354931Y-129472136D01*
X95406308Y-129427618D01*
X95406900Y-129427342D01*
X95529567Y-129370142D01*
X95710955Y-129243132D01*
X95867532Y-129086555D01*
X95994542Y-128905167D01*
X96052295Y-128781312D01*
X96098464Y-128728878D01*
X96165658Y-128709725D01*
X96232539Y-128729940D01*
X96277057Y-128781316D01*
X96334693Y-128904916D01*
X96334695Y-128904920D01*
X96380503Y-128970341D01*
X96380504Y-128970341D01*
X96943271Y-128407574D01*
X96959155Y-128466853D01*
G37*
G04 #@! TD.AperFunction*
G04 #@! TA.AperFunction,Conductor*
G36*
X98488295Y-128970341D02*
G01*
X98534105Y-128904919D01*
X98534109Y-128904911D01*
X98591742Y-128781317D01*
X98637914Y-128728877D01*
X98705107Y-128709725D01*
X98771988Y-128729940D01*
X98816506Y-128781317D01*
X98874141Y-128904916D01*
X98874258Y-128905167D01*
X99001268Y-129086555D01*
X99157845Y-129243132D01*
X99339233Y-129370142D01*
X99386509Y-129392187D01*
X99462491Y-129427618D01*
X99514931Y-129473790D01*
X99534083Y-129540983D01*
X99513867Y-129607865D01*
X99462491Y-129652382D01*
X99339236Y-129709856D01*
X99339234Y-129709857D01*
X99157844Y-129836868D01*
X99001268Y-129993444D01*
X98874257Y-130174834D01*
X98874256Y-130174836D01*
X98816782Y-130298091D01*
X98770610Y-130350531D01*
X98703417Y-130369683D01*
X98636535Y-130349467D01*
X98592018Y-130298091D01*
X98534543Y-130174836D01*
X98534542Y-130174834D01*
X98534542Y-130174833D01*
X98407532Y-129993445D01*
X98250955Y-129836868D01*
X98069567Y-129709858D01*
X98069563Y-129709856D01*
X97945717Y-129652106D01*
X97893277Y-129605934D01*
X97874125Y-129538741D01*
X97894341Y-129471859D01*
X97945717Y-129427342D01*
X98069311Y-129369709D01*
X98069319Y-129369705D01*
X98134741Y-129323895D01*
X97571974Y-128761128D01*
X97631253Y-128745245D01*
X97747547Y-128678102D01*
X97842502Y-128583147D01*
X97909645Y-128466853D01*
X97925528Y-128407574D01*
X98488295Y-128970341D01*
G37*
G04 #@! TD.AperFunction*
G04 #@! TA.AperFunction,Conductor*
G36*
X132886639Y-82061685D02*
G01*
X132932394Y-82114489D01*
X132943600Y-82166000D01*
X132943600Y-119884113D01*
X132923915Y-119951152D01*
X132871111Y-119996907D01*
X132801953Y-120006851D01*
X132745290Y-119983380D01*
X132715134Y-119960806D01*
X132715128Y-119960802D01*
X132580282Y-119910508D01*
X132580283Y-119910508D01*
X132520683Y-119904101D01*
X132520681Y-119904100D01*
X132520673Y-119904100D01*
X132520664Y-119904100D01*
X130724929Y-119904100D01*
X130724923Y-119904101D01*
X130665316Y-119910508D01*
X130530471Y-119960802D01*
X130530464Y-119960806D01*
X130415255Y-120047052D01*
X130415252Y-120047055D01*
X130329006Y-120162264D01*
X130329002Y-120162271D01*
X130278708Y-120297117D01*
X130272301Y-120356716D01*
X130272300Y-120356735D01*
X130272300Y-122152470D01*
X130272301Y-122152476D01*
X130278708Y-122212083D01*
X130329002Y-122346928D01*
X130329006Y-122346935D01*
X130415252Y-122462144D01*
X130415255Y-122462147D01*
X130530464Y-122548393D01*
X130530471Y-122548397D01*
X130661881Y-122597410D01*
X130717815Y-122639281D01*
X130742232Y-122704745D01*
X130727380Y-122773018D01*
X130706230Y-122801273D01*
X130584303Y-122923200D01*
X130448765Y-123116769D01*
X130448764Y-123116771D01*
X130348898Y-123330935D01*
X130348894Y-123330944D01*
X130287738Y-123559186D01*
X130287736Y-123559196D01*
X130267141Y-123794599D01*
X130267141Y-123794600D01*
X130287736Y-124030003D01*
X130287738Y-124030013D01*
X130348894Y-124258255D01*
X130348896Y-124258259D01*
X130348897Y-124258263D01*
X130380395Y-124325810D01*
X130448765Y-124472430D01*
X130448767Y-124472434D01*
X130527575Y-124584982D01*
X130584305Y-124666001D01*
X130751399Y-124833095D01*
X130776432Y-124850623D01*
X130944965Y-124968632D01*
X130944967Y-124968633D01*
X130944970Y-124968635D01*
X131159137Y-125068503D01*
X131387392Y-125129663D01*
X131575718Y-125146139D01*
X131622799Y-125150259D01*
X131622800Y-125150259D01*
X131622801Y-125150259D01*
X131662034Y-125146826D01*
X131858208Y-125129663D01*
X132086463Y-125068503D01*
X132300630Y-124968635D01*
X132494201Y-124833095D01*
X132661295Y-124666001D01*
X132718025Y-124584981D01*
X132772602Y-124541357D01*
X132842100Y-124534163D01*
X132904455Y-124565686D01*
X132939869Y-124625915D01*
X132943600Y-124656105D01*
X132943600Y-132819600D01*
X132923915Y-132886639D01*
X132871111Y-132932394D01*
X132819600Y-132943600D01*
X82166000Y-132943600D01*
X82098961Y-132923915D01*
X82053206Y-132871111D01*
X82042000Y-132819600D01*
X82042000Y-130809999D01*
X83464568Y-130809999D01*
X83464568Y-130810000D01*
X83483859Y-131030499D01*
X83483861Y-131030509D01*
X83541145Y-131244300D01*
X83541149Y-131244309D01*
X83634693Y-131444916D01*
X83634695Y-131444920D01*
X83680503Y-131510341D01*
X83680504Y-131510341D01*
X84243271Y-130947574D01*
X84259155Y-131006853D01*
X84326298Y-131123147D01*
X84421253Y-131218102D01*
X84537547Y-131285245D01*
X84596825Y-131301128D01*
X84034057Y-131863894D01*
X84099484Y-131909706D01*
X84300090Y-132003250D01*
X84300099Y-132003254D01*
X84513890Y-132060538D01*
X84513900Y-132060540D01*
X84734399Y-132079832D01*
X84734401Y-132079832D01*
X84954899Y-132060540D01*
X84954909Y-132060538D01*
X85168700Y-132003254D01*
X85168714Y-132003249D01*
X85369311Y-131909709D01*
X85369319Y-131909705D01*
X85434741Y-131863895D01*
X84871974Y-131301128D01*
X84931253Y-131285245D01*
X85047547Y-131218102D01*
X85142502Y-131123147D01*
X85209645Y-131006853D01*
X85225528Y-130947574D01*
X85788295Y-131510341D01*
X85834105Y-131444919D01*
X85834109Y-131444911D01*
X85891742Y-131321317D01*
X85937914Y-131268877D01*
X86005107Y-131249725D01*
X86071988Y-131269940D01*
X86116506Y-131321317D01*
X86174141Y-131444916D01*
X86174258Y-131445167D01*
X86301268Y-131626555D01*
X86457845Y-131783132D01*
X86639233Y-131910142D01*
X86753526Y-131963437D01*
X86839913Y-132003720D01*
X86839915Y-132003720D01*
X86839920Y-132003723D01*
X87053809Y-132061035D01*
X87211374Y-132074820D01*
X87274398Y-132080334D01*
X87274400Y-132080334D01*
X87274402Y-132080334D01*
X87329547Y-132075509D01*
X87494991Y-132061035D01*
X87708880Y-132003723D01*
X87909567Y-131910142D01*
X88090955Y-131783132D01*
X88247532Y-131626555D01*
X88374542Y-131445167D01*
X88432018Y-131321907D01*
X88478190Y-131269468D01*
X88545383Y-131250316D01*
X88612264Y-131270531D01*
X88656782Y-131321908D01*
X88714138Y-131444911D01*
X88714258Y-131445167D01*
X88841268Y-131626555D01*
X88997845Y-131783132D01*
X89179233Y-131910142D01*
X89293526Y-131963437D01*
X89379913Y-132003720D01*
X89379915Y-132003720D01*
X89379920Y-132003723D01*
X89593809Y-132061035D01*
X89751374Y-132074820D01*
X89814398Y-132080334D01*
X89814400Y-132080334D01*
X89814402Y-132080334D01*
X89869547Y-132075509D01*
X90034991Y-132061035D01*
X90248880Y-132003723D01*
X90449567Y-131910142D01*
X90630955Y-131783132D01*
X90787532Y-131626555D01*
X90914542Y-131445167D01*
X90972018Y-131321907D01*
X91018190Y-131269468D01*
X91085383Y-131250316D01*
X91152264Y-131270531D01*
X91196782Y-131321908D01*
X91254138Y-131444911D01*
X91254258Y-131445167D01*
X91381268Y-131626555D01*
X91537845Y-131783132D01*
X91719233Y-131910142D01*
X91833526Y-131963437D01*
X91919913Y-132003720D01*
X91919915Y-132003720D01*
X91919920Y-132003723D01*
X92133809Y-132061035D01*
X92291374Y-132074820D01*
X92354398Y-132080334D01*
X92354400Y-132080334D01*
X92354402Y-132080334D01*
X92409547Y-132075509D01*
X92574991Y-132061035D01*
X92788880Y-132003723D01*
X92989567Y-131910142D01*
X93170955Y-131783132D01*
X93327532Y-131626555D01*
X93454542Y-131445167D01*
X93512018Y-131321907D01*
X93558190Y-131269468D01*
X93625383Y-131250316D01*
X93692264Y-131270531D01*
X93736782Y-131321908D01*
X93794138Y-131444911D01*
X93794258Y-131445167D01*
X93921268Y-131626555D01*
X94077845Y-131783132D01*
X94259233Y-131910142D01*
X94373526Y-131963437D01*
X94459913Y-132003720D01*
X94459915Y-132003720D01*
X94459920Y-132003723D01*
X94673809Y-132061035D01*
X94831374Y-132074820D01*
X94894398Y-132080334D01*
X94894400Y-132080334D01*
X94894402Y-132080334D01*
X94949547Y-132075509D01*
X95114991Y-132061035D01*
X95328880Y-132003723D01*
X95529567Y-131910142D01*
X95710955Y-131783132D01*
X95867532Y-131626555D01*
X95994542Y-131445167D01*
X96052018Y-131321907D01*
X96098190Y-131269468D01*
X96165383Y-131250316D01*
X96232264Y-131270531D01*
X96276782Y-131321908D01*
X96334138Y-131444911D01*
X96334258Y-131445167D01*
X96461268Y-131626555D01*
X96617845Y-131783132D01*
X96799233Y-131910142D01*
X96913526Y-131963437D01*
X96999913Y-132003720D01*
X96999915Y-132003720D01*
X96999920Y-132003723D01*
X97213809Y-132061035D01*
X97371374Y-132074820D01*
X97434398Y-132080334D01*
X97434400Y-132080334D01*
X97434402Y-132080334D01*
X97489547Y-132075509D01*
X97654991Y-132061035D01*
X97868880Y-132003723D01*
X98069567Y-131910142D01*
X98250955Y-131783132D01*
X98407532Y-131626555D01*
X98534542Y-131445167D01*
X98592018Y-131321907D01*
X98638190Y-131269468D01*
X98705383Y-131250316D01*
X98772264Y-131270531D01*
X98816782Y-131321908D01*
X98874138Y-131444911D01*
X98874258Y-131445167D01*
X99001268Y-131626555D01*
X99157845Y-131783132D01*
X99339233Y-131910142D01*
X99453526Y-131963437D01*
X99539913Y-132003720D01*
X99539915Y-132003720D01*
X99539920Y-132003723D01*
X99753809Y-132061035D01*
X99911374Y-132074820D01*
X99974398Y-132080334D01*
X99974400Y-132080334D01*
X99974402Y-132080334D01*
X100029547Y-132075509D01*
X100194991Y-132061035D01*
X100408880Y-132003723D01*
X100609567Y-131910142D01*
X100790955Y-131783132D01*
X100947532Y-131626555D01*
X101074542Y-131445167D01*
X101132018Y-131321907D01*
X101178190Y-131269468D01*
X101245383Y-131250316D01*
X101312264Y-131270531D01*
X101356782Y-131321908D01*
X101414138Y-131444911D01*
X101414258Y-131445167D01*
X101541268Y-131626555D01*
X101697845Y-131783132D01*
X101879233Y-131910142D01*
X101993526Y-131963437D01*
X102079913Y-132003720D01*
X102079915Y-132003720D01*
X102079920Y-132003723D01*
X102293809Y-132061035D01*
X102451374Y-132074820D01*
X102514398Y-132080334D01*
X102514400Y-132080334D01*
X102514402Y-132080334D01*
X102569547Y-132075509D01*
X102734991Y-132061035D01*
X102948880Y-132003723D01*
X103149567Y-131910142D01*
X103330955Y-131783132D01*
X103487532Y-131626555D01*
X103614542Y-131445167D01*
X103672018Y-131321907D01*
X103718190Y-131269468D01*
X103785383Y-131250316D01*
X103852264Y-131270531D01*
X103896782Y-131321908D01*
X103954138Y-131444911D01*
X103954258Y-131445167D01*
X104081268Y-131626555D01*
X104237845Y-131783132D01*
X104419233Y-131910142D01*
X104533526Y-131963437D01*
X104619913Y-132003720D01*
X104619915Y-132003720D01*
X104619920Y-132003723D01*
X104833809Y-132061035D01*
X104991374Y-132074820D01*
X105054398Y-132080334D01*
X105054400Y-132080334D01*
X105054402Y-132080334D01*
X105109547Y-132075509D01*
X105274991Y-132061035D01*
X105488880Y-132003723D01*
X105689567Y-131910142D01*
X105870955Y-131783132D01*
X106027532Y-131626555D01*
X106154542Y-131445167D01*
X106212295Y-131321312D01*
X106258464Y-131268878D01*
X106325658Y-131249725D01*
X106392539Y-131269940D01*
X106437057Y-131321316D01*
X106494693Y-131444916D01*
X106494695Y-131444920D01*
X106540503Y-131510341D01*
X106540504Y-131510341D01*
X107103271Y-130947574D01*
X107119155Y-131006853D01*
X107186298Y-131123147D01*
X107281253Y-131218102D01*
X107397547Y-131285245D01*
X107456825Y-131301128D01*
X106894057Y-131863894D01*
X106959484Y-131909706D01*
X107160090Y-132003250D01*
X107160099Y-132003254D01*
X107373890Y-132060538D01*
X107373900Y-132060540D01*
X107594399Y-132079832D01*
X107594401Y-132079832D01*
X107814899Y-132060540D01*
X107814909Y-132060538D01*
X108028700Y-132003254D01*
X108028714Y-132003249D01*
X108229311Y-131909709D01*
X108229319Y-131909705D01*
X108294741Y-131863895D01*
X107731974Y-131301128D01*
X107791253Y-131285245D01*
X107907547Y-131218102D01*
X108002502Y-131123147D01*
X108069645Y-131006853D01*
X108085528Y-130947574D01*
X108648295Y-131510341D01*
X108694105Y-131444919D01*
X108694109Y-131444911D01*
X108787649Y-131244314D01*
X108787654Y-131244300D01*
X108844938Y-131030509D01*
X108844940Y-131030499D01*
X108864232Y-130810000D01*
X108864232Y-130809999D01*
X108844940Y-130589500D01*
X108844938Y-130589490D01*
X108787654Y-130375699D01*
X108787650Y-130375690D01*
X108694106Y-130175084D01*
X108648294Y-130109657D01*
X108085528Y-130672424D01*
X108069645Y-130613147D01*
X108002502Y-130496853D01*
X107907547Y-130401898D01*
X107791253Y-130334755D01*
X107731974Y-130318871D01*
X108294741Y-129756104D01*
X108294741Y-129756103D01*
X108229320Y-129710295D01*
X108229316Y-129710293D01*
X108105716Y-129652657D01*
X108053277Y-129606484D01*
X108034125Y-129539291D01*
X108054341Y-129472410D01*
X108076931Y-129452835D01*
X112755100Y-129452835D01*
X112755100Y-131580570D01*
X112755101Y-131580576D01*
X112761508Y-131640183D01*
X112811802Y-131775028D01*
X112811806Y-131775035D01*
X112898052Y-131890244D01*
X112898055Y-131890247D01*
X113013264Y-131976493D01*
X113013271Y-131976497D01*
X113148117Y-132026791D01*
X113148116Y-132026791D01*
X113155044Y-132027535D01*
X113207727Y-132033200D01*
X115335472Y-132033199D01*
X115395083Y-132026791D01*
X115529931Y-131976496D01*
X115645146Y-131890246D01*
X115731396Y-131775031D01*
X115781691Y-131640183D01*
X115788100Y-131580573D01*
X115788099Y-130516700D01*
X116250411Y-130516700D01*
X116269138Y-130754663D01*
X116324861Y-130986768D01*
X116416208Y-131207300D01*
X116416210Y-131207304D01*
X116416211Y-131207305D01*
X116540932Y-131410832D01*
X116695957Y-131592343D01*
X116877468Y-131747368D01*
X117080995Y-131872089D01*
X117080997Y-131872089D01*
X117080999Y-131872091D01*
X117124832Y-131890247D01*
X117301527Y-131963437D01*
X117533634Y-132019161D01*
X117771600Y-132037889D01*
X118009566Y-132019161D01*
X118241673Y-131963437D01*
X118462205Y-131872089D01*
X118665732Y-131747368D01*
X118847243Y-131592343D01*
X119002268Y-131410832D01*
X119126989Y-131207305D01*
X119218337Y-130986773D01*
X119274061Y-130754666D01*
X119292789Y-130516700D01*
X119274061Y-130278734D01*
X119218337Y-130046627D01*
X119150350Y-129882492D01*
X119126991Y-129826099D01*
X119084098Y-129756104D01*
X119002268Y-129622568D01*
X118897583Y-129499998D01*
X127494390Y-129499998D01*
X127494390Y-129500001D01*
X127514804Y-129785433D01*
X127575628Y-130065037D01*
X127575630Y-130065043D01*
X127575631Y-130065046D01*
X127662553Y-130298091D01*
X127675635Y-130333166D01*
X127812770Y-130584309D01*
X127812775Y-130584317D01*
X127984254Y-130813387D01*
X127984270Y-130813405D01*
X128186594Y-131015729D01*
X128186612Y-131015745D01*
X128415682Y-131187224D01*
X128415690Y-131187229D01*
X128666833Y-131324364D01*
X128666832Y-131324364D01*
X128666836Y-131324365D01*
X128666839Y-131324367D01*
X128934954Y-131424369D01*
X128934960Y-131424370D01*
X128934962Y-131424371D01*
X129214566Y-131485195D01*
X129214568Y-131485195D01*
X129214572Y-131485196D01*
X129468220Y-131503337D01*
X129499999Y-131505610D01*
X129500000Y-131505610D01*
X129500001Y-131505610D01*
X129528595Y-131503564D01*
X129785428Y-131485196D01*
X129969435Y-131445168D01*
X130065037Y-131424371D01*
X130065037Y-131424370D01*
X130065046Y-131424369D01*
X130333161Y-131324367D01*
X130584315Y-131187226D01*
X130813395Y-131015739D01*
X131015739Y-130813395D01*
X131187226Y-130584315D01*
X131324367Y-130333161D01*
X131424369Y-130065046D01*
X131476349Y-129826099D01*
X131485195Y-129785433D01*
X131485195Y-129785432D01*
X131485196Y-129785428D01*
X131505610Y-129500000D01*
X131503735Y-129473790D01*
X131497899Y-129392187D01*
X131485196Y-129214572D01*
X131469660Y-129143155D01*
X131424371Y-128934962D01*
X131424370Y-128934960D01*
X131424369Y-128934954D01*
X131324367Y-128666839D01*
X131244025Y-128519705D01*
X131187229Y-128415690D01*
X131187224Y-128415682D01*
X131015745Y-128186612D01*
X131015729Y-128186594D01*
X130813405Y-127984270D01*
X130813387Y-127984254D01*
X130584317Y-127812775D01*
X130584309Y-127812770D01*
X130333166Y-127675635D01*
X130333167Y-127675635D01*
X130165823Y-127613219D01*
X130065046Y-127575631D01*
X130065043Y-127575630D01*
X130065037Y-127575628D01*
X129785433Y-127514804D01*
X129500001Y-127494390D01*
X129499999Y-127494390D01*
X129214566Y-127514804D01*
X128934962Y-127575628D01*
X128666833Y-127675635D01*
X128415690Y-127812770D01*
X128415682Y-127812775D01*
X128186612Y-127984254D01*
X128186594Y-127984270D01*
X127984270Y-128186594D01*
X127984254Y-128186612D01*
X127812775Y-128415682D01*
X127812770Y-128415690D01*
X127675635Y-128666833D01*
X127575628Y-128934962D01*
X127514804Y-129214566D01*
X127494390Y-129499998D01*
X118897583Y-129499998D01*
X118847243Y-129441057D01*
X118665732Y-129286032D01*
X118462205Y-129161311D01*
X118462204Y-129161310D01*
X118462200Y-129161308D01*
X118241668Y-129069961D01*
X118009562Y-129014238D01*
X118009563Y-129014238D01*
X117771600Y-128995511D01*
X117533636Y-129014238D01*
X117301531Y-129069961D01*
X117080999Y-129161308D01*
X116877467Y-129286032D01*
X116695957Y-129441057D01*
X116540932Y-129622567D01*
X116416208Y-129826099D01*
X116324861Y-130046631D01*
X116269138Y-130278736D01*
X116250411Y-130516700D01*
X115788099Y-130516700D01*
X115788099Y-129452828D01*
X115781691Y-129393217D01*
X115772922Y-129369707D01*
X115731397Y-129258371D01*
X115731393Y-129258364D01*
X115645147Y-129143155D01*
X115645144Y-129143152D01*
X115529935Y-129056906D01*
X115529928Y-129056902D01*
X115395082Y-129006608D01*
X115395083Y-129006608D01*
X115335483Y-129000201D01*
X115335481Y-129000200D01*
X115335473Y-129000200D01*
X115335464Y-129000200D01*
X113207729Y-129000200D01*
X113207723Y-129000201D01*
X113148116Y-129006608D01*
X113013271Y-129056902D01*
X113013264Y-129056906D01*
X112898055Y-129143152D01*
X112898052Y-129143155D01*
X112811806Y-129258364D01*
X112811802Y-129258371D01*
X112761508Y-129393217D01*
X112756365Y-129441057D01*
X112755101Y-129452823D01*
X112755100Y-129452835D01*
X108076931Y-129452835D01*
X108105712Y-129427895D01*
X108229567Y-129370142D01*
X108410955Y-129243132D01*
X108567532Y-129086555D01*
X108694542Y-128905167D01*
X108788123Y-128704480D01*
X108845435Y-128490591D01*
X108864734Y-128270000D01*
X108845435Y-128049409D01*
X108788123Y-127835520D01*
X108777516Y-127812774D01*
X108694543Y-127634836D01*
X108694542Y-127634834D01*
X108694542Y-127634833D01*
X108567532Y-127453445D01*
X108410955Y-127296868D01*
X108229567Y-127169858D01*
X108182289Y-127147812D01*
X108028886Y-127076279D01*
X108028875Y-127076275D01*
X107814992Y-127018965D01*
X107814985Y-127018964D01*
X107594402Y-126999666D01*
X107594398Y-126999666D01*
X107373814Y-127018964D01*
X107373807Y-127018965D01*
X107159924Y-127076275D01*
X107159913Y-127076279D01*
X106959236Y-127169856D01*
X106959234Y-127169857D01*
X106777844Y-127296868D01*
X106621268Y-127453444D01*
X106494257Y-127634834D01*
X106494256Y-127634836D01*
X106436782Y-127758091D01*
X106390610Y-127810531D01*
X106323417Y-127829683D01*
X106256535Y-127809467D01*
X106212018Y-127758091D01*
X106154543Y-127634836D01*
X106154542Y-127634834D01*
X106154542Y-127634833D01*
X106027532Y-127453445D01*
X105870955Y-127296868D01*
X105689567Y-127169858D01*
X105642289Y-127147812D01*
X105488886Y-127076279D01*
X105488875Y-127076275D01*
X105274992Y-127018965D01*
X105274985Y-127018964D01*
X105054402Y-126999666D01*
X105054398Y-126999666D01*
X104833814Y-127018964D01*
X104833807Y-127018965D01*
X104619924Y-127076275D01*
X104619913Y-127076279D01*
X104419236Y-127169856D01*
X104419234Y-127169857D01*
X104237844Y-127296868D01*
X104081268Y-127453444D01*
X103954257Y-127634834D01*
X103954256Y-127634836D01*
X103896782Y-127758091D01*
X103850610Y-127810531D01*
X103783417Y-127829683D01*
X103716535Y-127809467D01*
X103672018Y-127758091D01*
X103614543Y-127634836D01*
X103614542Y-127634834D01*
X103614542Y-127634833D01*
X103487532Y-127453445D01*
X103330955Y-127296868D01*
X103149567Y-127169858D01*
X103102289Y-127147812D01*
X102948886Y-127076279D01*
X102948875Y-127076275D01*
X102734992Y-127018965D01*
X102734985Y-127018964D01*
X102514402Y-126999666D01*
X102514398Y-126999666D01*
X102293814Y-127018964D01*
X102293807Y-127018965D01*
X102079924Y-127076275D01*
X102079913Y-127076279D01*
X101879236Y-127169856D01*
X101879234Y-127169857D01*
X101697844Y-127296868D01*
X101541268Y-127453444D01*
X101414257Y-127634834D01*
X101414256Y-127634836D01*
X101356782Y-127758091D01*
X101310610Y-127810531D01*
X101243417Y-127829683D01*
X101176535Y-127809467D01*
X101132018Y-127758091D01*
X101074543Y-127634836D01*
X101074542Y-127634834D01*
X101074542Y-127634833D01*
X100947532Y-127453445D01*
X100790955Y-127296868D01*
X100609567Y-127169858D01*
X100562289Y-127147812D01*
X100408886Y-127076279D01*
X100408875Y-127076275D01*
X100194992Y-127018965D01*
X100194985Y-127018964D01*
X99974402Y-126999666D01*
X99974398Y-126999666D01*
X99753814Y-127018964D01*
X99753807Y-127018965D01*
X99539924Y-127076275D01*
X99539913Y-127076279D01*
X99339236Y-127169856D01*
X99339234Y-127169857D01*
X99157844Y-127296868D01*
X99001268Y-127453444D01*
X98874257Y-127634833D01*
X98816506Y-127758683D01*
X98770334Y-127811122D01*
X98703140Y-127830274D01*
X98636259Y-127810058D01*
X98591742Y-127758683D01*
X98534107Y-127635084D01*
X98488294Y-127569657D01*
X97925528Y-128132424D01*
X97909645Y-128073147D01*
X97842502Y-127956853D01*
X97747547Y-127861898D01*
X97631253Y-127794755D01*
X97571974Y-127778871D01*
X98134741Y-127216104D01*
X98134741Y-127216103D01*
X98069320Y-127170295D01*
X98069316Y-127170293D01*
X97868709Y-127076749D01*
X97868700Y-127076745D01*
X97654909Y-127019461D01*
X97654899Y-127019459D01*
X97434401Y-127000168D01*
X97434399Y-127000168D01*
X97213900Y-127019459D01*
X97213890Y-127019461D01*
X97000099Y-127076745D01*
X97000090Y-127076749D01*
X96799480Y-127170295D01*
X96734058Y-127216103D01*
X96734057Y-127216104D01*
X97296825Y-127778871D01*
X97237547Y-127794755D01*
X97121253Y-127861898D01*
X97026298Y-127956853D01*
X96959155Y-128073147D01*
X96943271Y-128132424D01*
X96380504Y-127569657D01*
X96380503Y-127569658D01*
X96334694Y-127635080D01*
X96277057Y-127758683D01*
X96230884Y-127811122D01*
X96163690Y-127830274D01*
X96096809Y-127810058D01*
X96052293Y-127758682D01*
X95994542Y-127634833D01*
X95867532Y-127453445D01*
X95710955Y-127296868D01*
X95529567Y-127169858D01*
X95482289Y-127147812D01*
X95328886Y-127076279D01*
X95328875Y-127076275D01*
X95114992Y-127018965D01*
X95114985Y-127018964D01*
X94894402Y-126999666D01*
X94894398Y-126999666D01*
X94673814Y-127018964D01*
X94673807Y-127018965D01*
X94459924Y-127076275D01*
X94459913Y-127076279D01*
X94259236Y-127169856D01*
X94259234Y-127169857D01*
X94077844Y-127296868D01*
X93921268Y-127453444D01*
X93794257Y-127634834D01*
X93794256Y-127634836D01*
X93736782Y-127758091D01*
X93690610Y-127810531D01*
X93623417Y-127829683D01*
X93556535Y-127809467D01*
X93512018Y-127758091D01*
X93454543Y-127634836D01*
X93454542Y-127634834D01*
X93454542Y-127634833D01*
X93327532Y-127453445D01*
X93170955Y-127296868D01*
X92989567Y-127169858D01*
X92942289Y-127147812D01*
X92788886Y-127076279D01*
X92788875Y-127076275D01*
X92574992Y-127018965D01*
X92574985Y-127018964D01*
X92354402Y-126999666D01*
X92354398Y-126999666D01*
X92133814Y-127018964D01*
X92133807Y-127018965D01*
X91919924Y-127076275D01*
X91919913Y-127076279D01*
X91719236Y-127169856D01*
X91719234Y-127169857D01*
X91537844Y-127296868D01*
X91381268Y-127453444D01*
X91254257Y-127634834D01*
X91254256Y-127634836D01*
X91196782Y-127758091D01*
X91150610Y-127810531D01*
X91083417Y-127829683D01*
X91016535Y-127809467D01*
X90972018Y-127758091D01*
X90914543Y-127634836D01*
X90914542Y-127634834D01*
X90914542Y-127634833D01*
X90787532Y-127453445D01*
X90630955Y-127296868D01*
X90449567Y-127169858D01*
X90402289Y-127147812D01*
X90248886Y-127076279D01*
X90248875Y-127076275D01*
X90034992Y-127018965D01*
X90034985Y-127018964D01*
X89814402Y-126999666D01*
X89814398Y-126999666D01*
X89593814Y-127018964D01*
X89593807Y-127018965D01*
X89379924Y-127076275D01*
X89379913Y-127076279D01*
X89179236Y-127169856D01*
X89179234Y-127169857D01*
X88997844Y-127296868D01*
X88841268Y-127453444D01*
X88714257Y-127634834D01*
X88714256Y-127634836D01*
X88656782Y-127758091D01*
X88610610Y-127810531D01*
X88543417Y-127829683D01*
X88476535Y-127809467D01*
X88432018Y-127758091D01*
X88374543Y-127634836D01*
X88374542Y-127634834D01*
X88374542Y-127634833D01*
X88247532Y-127453445D01*
X88090955Y-127296868D01*
X87909567Y-127169858D01*
X87862289Y-127147812D01*
X87708886Y-127076279D01*
X87708875Y-127076275D01*
X87494992Y-127018965D01*
X87494985Y-127018964D01*
X87274402Y-126999666D01*
X87274398Y-126999666D01*
X87053814Y-127018964D01*
X87053807Y-127018965D01*
X86839924Y-127076275D01*
X86839913Y-127076279D01*
X86639236Y-127169856D01*
X86639234Y-127169857D01*
X86457844Y-127296868D01*
X86301271Y-127453441D01*
X86301262Y-127453452D01*
X86224974Y-127562402D01*
X86170397Y-127606027D01*
X86100899Y-127613219D01*
X86038544Y-127581697D01*
X86003131Y-127521466D01*
X85999400Y-127491278D01*
X85999400Y-127457172D01*
X85999399Y-127457155D01*
X85992998Y-127397627D01*
X85992996Y-127397620D01*
X85942754Y-127262913D01*
X85942750Y-127262906D01*
X85856590Y-127147812D01*
X85856587Y-127147809D01*
X85741493Y-127061649D01*
X85741486Y-127061645D01*
X85606779Y-127011403D01*
X85606772Y-127011401D01*
X85547244Y-127005000D01*
X84984400Y-127005000D01*
X84984400Y-127825439D01*
X84931253Y-127794755D01*
X84801543Y-127760000D01*
X84667257Y-127760000D01*
X84537547Y-127794755D01*
X84484400Y-127825439D01*
X84484400Y-127005000D01*
X83921555Y-127005000D01*
X83862027Y-127011401D01*
X83862020Y-127011403D01*
X83727313Y-127061645D01*
X83727306Y-127061649D01*
X83612212Y-127147809D01*
X83612209Y-127147812D01*
X83526049Y-127262906D01*
X83526045Y-127262913D01*
X83475803Y-127397620D01*
X83475801Y-127397627D01*
X83469400Y-127457155D01*
X83469400Y-128020000D01*
X84289840Y-128020000D01*
X84259155Y-128073147D01*
X84224400Y-128202857D01*
X84224400Y-128337143D01*
X84259155Y-128466853D01*
X84289840Y-128520000D01*
X83469400Y-128520000D01*
X83469400Y-129082844D01*
X83475801Y-129142372D01*
X83475803Y-129142379D01*
X83526045Y-129277086D01*
X83526049Y-129277093D01*
X83612209Y-129392187D01*
X83612212Y-129392190D01*
X83727306Y-129478350D01*
X83727313Y-129478354D01*
X83862020Y-129528596D01*
X83862027Y-129528598D01*
X83921555Y-129534999D01*
X83921572Y-129535000D01*
X83956550Y-129535000D01*
X84023589Y-129554685D01*
X84069344Y-129607489D01*
X84079288Y-129676647D01*
X84050263Y-129740203D01*
X84034180Y-129754706D01*
X84034057Y-129756104D01*
X84596825Y-130318871D01*
X84537547Y-130334755D01*
X84421253Y-130401898D01*
X84326298Y-130496853D01*
X84259155Y-130613147D01*
X84243271Y-130672424D01*
X83680504Y-130109657D01*
X83680503Y-130109658D01*
X83634695Y-130175080D01*
X83541149Y-130375690D01*
X83541145Y-130375699D01*
X83483861Y-130589490D01*
X83483859Y-130589500D01*
X83464568Y-130809999D01*
X82042000Y-130809999D01*
X82042000Y-124501096D01*
X104574735Y-124501096D01*
X104574735Y-124501103D01*
X104594930Y-124680349D01*
X104594931Y-124680354D01*
X104654511Y-124850623D01*
X104750484Y-125003362D01*
X104878038Y-125130916D01*
X105030778Y-125226889D01*
X105088575Y-125247113D01*
X105201045Y-125286468D01*
X105201050Y-125286469D01*
X105380296Y-125306665D01*
X105380300Y-125306665D01*
X105380304Y-125306665D01*
X105559549Y-125286469D01*
X105559552Y-125286468D01*
X105559555Y-125286468D01*
X105729822Y-125226889D01*
X105882562Y-125130916D01*
X106010116Y-125003362D01*
X106106089Y-124850622D01*
X106141097Y-124750575D01*
X106181819Y-124693799D01*
X106246771Y-124668051D01*
X106315333Y-124681507D01*
X106365736Y-124729894D01*
X106375180Y-124750574D01*
X106405942Y-124838486D01*
X106405947Y-124838497D01*
X106495918Y-124981684D01*
X106495923Y-124981690D01*
X106615509Y-125101276D01*
X106615515Y-125101281D01*
X106758702Y-125191252D01*
X106758705Y-125191254D01*
X106758709Y-125191255D01*
X106758710Y-125191256D01*
X106831313Y-125216660D01*
X106918343Y-125247114D01*
X107086397Y-125266049D01*
X107086400Y-125266049D01*
X107086403Y-125266049D01*
X107254456Y-125247114D01*
X107263424Y-125243976D01*
X107414090Y-125191256D01*
X107414092Y-125191254D01*
X107414094Y-125191254D01*
X107414097Y-125191252D01*
X107557284Y-125101281D01*
X107557285Y-125101280D01*
X107557290Y-125101277D01*
X107676877Y-124981690D01*
X107685082Y-124968632D01*
X107766852Y-124838497D01*
X107766854Y-124838494D01*
X107766854Y-124838492D01*
X107766856Y-124838490D01*
X107822713Y-124678859D01*
X107822713Y-124678858D01*
X107822714Y-124678856D01*
X107825571Y-124653497D01*
X123471851Y-124653497D01*
X123471851Y-124653502D01*
X123490785Y-124821556D01*
X123546645Y-124981194D01*
X123546647Y-124981197D01*
X123636618Y-125124384D01*
X123636623Y-125124390D01*
X123756209Y-125243976D01*
X123756215Y-125243981D01*
X123899402Y-125333952D01*
X123899405Y-125333954D01*
X123899409Y-125333955D01*
X123899410Y-125333956D01*
X123972013Y-125359360D01*
X124059043Y-125389814D01*
X124227097Y-125408749D01*
X124227100Y-125408749D01*
X124227103Y-125408749D01*
X124395156Y-125389814D01*
X124395159Y-125389813D01*
X124554790Y-125333956D01*
X124554792Y-125333954D01*
X124554794Y-125333954D01*
X124554797Y-125333952D01*
X124697984Y-125243981D01*
X124697985Y-125243980D01*
X124697990Y-125243977D01*
X124817577Y-125124390D01*
X124817581Y-125124384D01*
X124907552Y-124981197D01*
X124907554Y-124981194D01*
X124907554Y-124981192D01*
X124907556Y-124981190D01*
X124963413Y-124821559D01*
X124963413Y-124821558D01*
X124963414Y-124821556D01*
X124982349Y-124653502D01*
X124982349Y-124653497D01*
X124963414Y-124485443D01*
X124907554Y-124325805D01*
X124907552Y-124325802D01*
X124817581Y-124182615D01*
X124817576Y-124182609D01*
X124697990Y-124063023D01*
X124697984Y-124063018D01*
X124554797Y-123973047D01*
X124554794Y-123973045D01*
X124395156Y-123917185D01*
X124227103Y-123898251D01*
X124227097Y-123898251D01*
X124059043Y-123917185D01*
X123899405Y-123973045D01*
X123899402Y-123973047D01*
X123756215Y-124063018D01*
X123756209Y-124063023D01*
X123636623Y-124182609D01*
X123636618Y-124182615D01*
X123546647Y-124325802D01*
X123546645Y-124325805D01*
X123490785Y-124485443D01*
X123471851Y-124653497D01*
X107825571Y-124653497D01*
X107841649Y-124510802D01*
X107841649Y-124510797D01*
X107822714Y-124342743D01*
X107766854Y-124183105D01*
X107766852Y-124183102D01*
X107676881Y-124039915D01*
X107676876Y-124039909D01*
X107557290Y-123920323D01*
X107557284Y-123920318D01*
X107414097Y-123830347D01*
X107414094Y-123830345D01*
X107254456Y-123774485D01*
X107086403Y-123755551D01*
X107086397Y-123755551D01*
X106918343Y-123774485D01*
X106758705Y-123830345D01*
X106758702Y-123830347D01*
X106615515Y-123920318D01*
X106615509Y-123920323D01*
X106495923Y-124039909D01*
X106495918Y-124039915D01*
X106405947Y-124183102D01*
X106405943Y-124183110D01*
X106378574Y-124261326D01*
X106337852Y-124318101D01*
X106272899Y-124343848D01*
X106204338Y-124330391D01*
X106153935Y-124282004D01*
X106144491Y-124261324D01*
X106106089Y-124151578D01*
X106035923Y-124039910D01*
X106010116Y-123998838D01*
X105882562Y-123871284D01*
X105729823Y-123775311D01*
X105559554Y-123715731D01*
X105559549Y-123715730D01*
X105380304Y-123695535D01*
X105380296Y-123695535D01*
X105201050Y-123715730D01*
X105201045Y-123715731D01*
X105030776Y-123775311D01*
X104878037Y-123871284D01*
X104750484Y-123998837D01*
X104654511Y-124151576D01*
X104594931Y-124321845D01*
X104594930Y-124321850D01*
X104574735Y-124501096D01*
X82042000Y-124501096D01*
X82042000Y-121999998D01*
X97994390Y-121999998D01*
X97994390Y-122000001D01*
X98014804Y-122285433D01*
X98075628Y-122565037D01*
X98075630Y-122565043D01*
X98075631Y-122565046D01*
X98163740Y-122801274D01*
X98175635Y-122833166D01*
X98312770Y-123084309D01*
X98312775Y-123084317D01*
X98484254Y-123313387D01*
X98484270Y-123313405D01*
X98686594Y-123515729D01*
X98686612Y-123515745D01*
X98915682Y-123687224D01*
X98915690Y-123687229D01*
X99166833Y-123824364D01*
X99166832Y-123824364D01*
X99166836Y-123824365D01*
X99166839Y-123824367D01*
X99434954Y-123924369D01*
X99434960Y-123924370D01*
X99434962Y-123924371D01*
X99714566Y-123985195D01*
X99714568Y-123985195D01*
X99714572Y-123985196D01*
X99968220Y-124003337D01*
X99999999Y-124005610D01*
X100000000Y-124005610D01*
X100000001Y-124005610D01*
X100028595Y-124003564D01*
X100285428Y-123985196D01*
X100341277Y-123973047D01*
X100565037Y-123924371D01*
X100565037Y-123924370D01*
X100565046Y-123924369D01*
X100833161Y-123824367D01*
X101084315Y-123687226D01*
X101313395Y-123515739D01*
X101515739Y-123313395D01*
X101687226Y-123084315D01*
X101817413Y-122845897D01*
X125753951Y-122845897D01*
X125753951Y-122845902D01*
X125772885Y-123013956D01*
X125828745Y-123173594D01*
X125828747Y-123173597D01*
X125918718Y-123316784D01*
X125918723Y-123316790D01*
X126038309Y-123436376D01*
X126038315Y-123436381D01*
X126181502Y-123526352D01*
X126181505Y-123526354D01*
X126181509Y-123526355D01*
X126181510Y-123526356D01*
X126254113Y-123551760D01*
X126341143Y-123582214D01*
X126509197Y-123601149D01*
X126509200Y-123601149D01*
X126509203Y-123601149D01*
X126677256Y-123582214D01*
X126677259Y-123582213D01*
X126836890Y-123526356D01*
X126836892Y-123526354D01*
X126836894Y-123526354D01*
X126836897Y-123526352D01*
X126980084Y-123436381D01*
X126980085Y-123436380D01*
X126980090Y-123436377D01*
X127099677Y-123316790D01*
X127189652Y-123173597D01*
X127189654Y-123173594D01*
X127189654Y-123173592D01*
X127189656Y-123173590D01*
X127245513Y-123013959D01*
X127245513Y-123013958D01*
X127245514Y-123013956D01*
X127264449Y-122845902D01*
X127264449Y-122845897D01*
X127245514Y-122677843D01*
X127206258Y-122565657D01*
X127189656Y-122518210D01*
X127189655Y-122518209D01*
X127189654Y-122518205D01*
X127189652Y-122518202D01*
X127099681Y-122375015D01*
X127099676Y-122375009D01*
X126980090Y-122255423D01*
X126980084Y-122255418D01*
X126836897Y-122165447D01*
X126836894Y-122165445D01*
X126677256Y-122109585D01*
X126509203Y-122090651D01*
X126509197Y-122090651D01*
X126341143Y-122109585D01*
X126181505Y-122165445D01*
X126181502Y-122165447D01*
X126038315Y-122255418D01*
X126038309Y-122255423D01*
X125918723Y-122375009D01*
X125918718Y-122375015D01*
X125828747Y-122518202D01*
X125828745Y-122518205D01*
X125772885Y-122677843D01*
X125753951Y-122845897D01*
X101817413Y-122845897D01*
X101824367Y-122833161D01*
X101924369Y-122565046D01*
X101946753Y-122462147D01*
X101985195Y-122285433D01*
X101985195Y-122285432D01*
X101985196Y-122285428D01*
X102005610Y-122000000D01*
X101985196Y-121714572D01*
X101980470Y-121692849D01*
X101941477Y-121513596D01*
X109989235Y-121513596D01*
X109989235Y-121513603D01*
X110009430Y-121692849D01*
X110009431Y-121692854D01*
X110069011Y-121863123D01*
X110155016Y-121999998D01*
X110164984Y-122015862D01*
X110292538Y-122143416D01*
X110445278Y-122239389D01*
X110491101Y-122255423D01*
X110615545Y-122298968D01*
X110615550Y-122298969D01*
X110794796Y-122319165D01*
X110794800Y-122319165D01*
X110794804Y-122319165D01*
X110974049Y-122298969D01*
X110974052Y-122298968D01*
X110974055Y-122298968D01*
X111144322Y-122239389D01*
X111297062Y-122143416D01*
X111424616Y-122015862D01*
X111520589Y-121863122D01*
X111580168Y-121692855D01*
X111580169Y-121692849D01*
X111600365Y-121513603D01*
X111600365Y-121513596D01*
X111580169Y-121334350D01*
X111580168Y-121334345D01*
X111520588Y-121164076D01*
X111481382Y-121101680D01*
X111424616Y-121011338D01*
X111297062Y-120883784D01*
X111144323Y-120787811D01*
X110974054Y-120728231D01*
X110974049Y-120728230D01*
X110794804Y-120708035D01*
X110794796Y-120708035D01*
X110615550Y-120728230D01*
X110615545Y-120728231D01*
X110445276Y-120787811D01*
X110292537Y-120883784D01*
X110164984Y-121011337D01*
X110069011Y-121164076D01*
X110009431Y-121334345D01*
X110009430Y-121334350D01*
X109989235Y-121513596D01*
X101941477Y-121513596D01*
X101924371Y-121434962D01*
X101924370Y-121434960D01*
X101924369Y-121434954D01*
X101824367Y-121166839D01*
X101822859Y-121164078D01*
X101687229Y-120915690D01*
X101687224Y-120915682D01*
X101515745Y-120686612D01*
X101515729Y-120686594D01*
X101439831Y-120610696D01*
X105840835Y-120610696D01*
X105840835Y-120610703D01*
X105861030Y-120789949D01*
X105861031Y-120789954D01*
X105920611Y-120960223D01*
X105993725Y-121076582D01*
X106016584Y-121112962D01*
X106144138Y-121240516D01*
X106228059Y-121293247D01*
X106293473Y-121334350D01*
X106296878Y-121336489D01*
X106467145Y-121396068D01*
X106467150Y-121396069D01*
X106646396Y-121416265D01*
X106646400Y-121416265D01*
X106646404Y-121416265D01*
X106825649Y-121396069D01*
X106825652Y-121396068D01*
X106825655Y-121396068D01*
X106995922Y-121336489D01*
X107148662Y-121240516D01*
X107276216Y-121112962D01*
X107372189Y-120960222D01*
X107431768Y-120789955D01*
X107436578Y-120747265D01*
X107451965Y-120610703D01*
X107451965Y-120610696D01*
X107431769Y-120431450D01*
X107431768Y-120431445D01*
X107405619Y-120356716D01*
X107372189Y-120261178D01*
X107276216Y-120108438D01*
X107148662Y-119980884D01*
X107086295Y-119941696D01*
X120217235Y-119941696D01*
X120217235Y-119941703D01*
X120237430Y-120120949D01*
X120237431Y-120120954D01*
X120297011Y-120291223D01*
X120385119Y-120431445D01*
X120392984Y-120443962D01*
X120520538Y-120571516D01*
X120673278Y-120667489D01*
X120789152Y-120708035D01*
X120843545Y-120727068D01*
X120843550Y-120727069D01*
X121022796Y-120747265D01*
X121022800Y-120747265D01*
X121022804Y-120747265D01*
X121202049Y-120727069D01*
X121202052Y-120727068D01*
X121202055Y-120727068D01*
X121372322Y-120667489D01*
X121525062Y-120571516D01*
X121652616Y-120443962D01*
X121748589Y-120291222D01*
X121808168Y-120120955D01*
X121808169Y-120120949D01*
X121828365Y-119941703D01*
X121828365Y-119941696D01*
X121808169Y-119762450D01*
X121808168Y-119762445D01*
X121775592Y-119669349D01*
X121748589Y-119592178D01*
X121652616Y-119439438D01*
X121525062Y-119311884D01*
X121503945Y-119298615D01*
X121409222Y-119239096D01*
X127024435Y-119239096D01*
X127024435Y-119239103D01*
X127044630Y-119418349D01*
X127044631Y-119418354D01*
X127104211Y-119588623D01*
X127154935Y-119669349D01*
X127200184Y-119741362D01*
X127327738Y-119868916D01*
X127351924Y-119884113D01*
X127473976Y-119960804D01*
X127480478Y-119964889D01*
X127600399Y-120006851D01*
X127650745Y-120024468D01*
X127650750Y-120024469D01*
X127829996Y-120044665D01*
X127830000Y-120044665D01*
X127830004Y-120044665D01*
X128009249Y-120024469D01*
X128009252Y-120024468D01*
X128009255Y-120024468D01*
X128179522Y-119964889D01*
X128332262Y-119868916D01*
X128459816Y-119741362D01*
X128555789Y-119588622D01*
X128615368Y-119418355D01*
X128618046Y-119394588D01*
X128635565Y-119239103D01*
X128635565Y-119239096D01*
X128615369Y-119059850D01*
X128615368Y-119059845D01*
X128564370Y-118914102D01*
X128555789Y-118889578D01*
X128459816Y-118736838D01*
X128391774Y-118668796D01*
X130512435Y-118668796D01*
X130512435Y-118668803D01*
X130532630Y-118848049D01*
X130532631Y-118848054D01*
X130592211Y-119018323D01*
X130688184Y-119171062D01*
X130815738Y-119298616D01*
X130836854Y-119311884D01*
X130953191Y-119384984D01*
X130968478Y-119394589D01*
X131096646Y-119439437D01*
X131138745Y-119454168D01*
X131138750Y-119454169D01*
X131317996Y-119474365D01*
X131318000Y-119474365D01*
X131318004Y-119474365D01*
X131497249Y-119454169D01*
X131497252Y-119454168D01*
X131497255Y-119454168D01*
X131667522Y-119394589D01*
X131820262Y-119298616D01*
X131947816Y-119171062D01*
X132043789Y-119018322D01*
X132103368Y-118848055D01*
X132103369Y-118848049D01*
X132123565Y-118668803D01*
X132123565Y-118668796D01*
X132103369Y-118489550D01*
X132103368Y-118489545D01*
X132045309Y-118323623D01*
X132043789Y-118319278D01*
X131947816Y-118166538D01*
X131820262Y-118038984D01*
X131771583Y-118008397D01*
X131667523Y-117943011D01*
X131497254Y-117883431D01*
X131497249Y-117883430D01*
X131318004Y-117863235D01*
X131317996Y-117863235D01*
X131138750Y-117883430D01*
X131138745Y-117883431D01*
X130968476Y-117943011D01*
X130815737Y-118038984D01*
X130688184Y-118166537D01*
X130592211Y-118319276D01*
X130532631Y-118489545D01*
X130532630Y-118489550D01*
X130512435Y-118668796D01*
X128391774Y-118668796D01*
X128332262Y-118609284D01*
X128315698Y-118598876D01*
X128179523Y-118513311D01*
X128009254Y-118453731D01*
X128009249Y-118453730D01*
X127830004Y-118433535D01*
X127829996Y-118433535D01*
X127650750Y-118453730D01*
X127650745Y-118453731D01*
X127480476Y-118513311D01*
X127327737Y-118609284D01*
X127200184Y-118736837D01*
X127104211Y-118889576D01*
X127044631Y-119059845D01*
X127044630Y-119059850D01*
X127024435Y-119239096D01*
X121409222Y-119239096D01*
X121372323Y-119215911D01*
X121202054Y-119156331D01*
X121202049Y-119156330D01*
X121022804Y-119136135D01*
X121022796Y-119136135D01*
X120843550Y-119156330D01*
X120843545Y-119156331D01*
X120673276Y-119215911D01*
X120520537Y-119311884D01*
X120392984Y-119439437D01*
X120297011Y-119592176D01*
X120237431Y-119762445D01*
X120237430Y-119762450D01*
X120217235Y-119941696D01*
X107086295Y-119941696D01*
X106995923Y-119884911D01*
X106825654Y-119825331D01*
X106825649Y-119825330D01*
X106646404Y-119805135D01*
X106646396Y-119805135D01*
X106467150Y-119825330D01*
X106467145Y-119825331D01*
X106296876Y-119884911D01*
X106144137Y-119980884D01*
X106016584Y-120108437D01*
X105920611Y-120261176D01*
X105861031Y-120431445D01*
X105861030Y-120431450D01*
X105840835Y-120610696D01*
X101439831Y-120610696D01*
X101313405Y-120484270D01*
X101313387Y-120484254D01*
X101084317Y-120312775D01*
X101084309Y-120312770D01*
X100833166Y-120175635D01*
X100833167Y-120175635D01*
X100686548Y-120120949D01*
X100565046Y-120075631D01*
X100565043Y-120075630D01*
X100565037Y-120075628D01*
X100285433Y-120014804D01*
X100000001Y-119994390D01*
X99999999Y-119994390D01*
X99714566Y-120014804D01*
X99434962Y-120075628D01*
X99166833Y-120175635D01*
X98915690Y-120312770D01*
X98915682Y-120312775D01*
X98686612Y-120484254D01*
X98686594Y-120484270D01*
X98484270Y-120686594D01*
X98484254Y-120686612D01*
X98312775Y-120915682D01*
X98312770Y-120915690D01*
X98175635Y-121166833D01*
X98075628Y-121434962D01*
X98014804Y-121714566D01*
X97994390Y-121999998D01*
X82042000Y-121999998D01*
X82042000Y-118914097D01*
X85218451Y-118914097D01*
X85218451Y-118914102D01*
X85237385Y-119082156D01*
X85293245Y-119241794D01*
X85293247Y-119241797D01*
X85383218Y-119384984D01*
X85383223Y-119384990D01*
X85502809Y-119504576D01*
X85502815Y-119504581D01*
X85646002Y-119594552D01*
X85646005Y-119594554D01*
X85646009Y-119594555D01*
X85646010Y-119594556D01*
X85718613Y-119619960D01*
X85805643Y-119650414D01*
X85973697Y-119669349D01*
X85973700Y-119669349D01*
X85973703Y-119669349D01*
X86141756Y-119650414D01*
X86141759Y-119650413D01*
X86301390Y-119594556D01*
X86301392Y-119594554D01*
X86301394Y-119594554D01*
X86301397Y-119594552D01*
X86444584Y-119504581D01*
X86444585Y-119504580D01*
X86444590Y-119504577D01*
X86564177Y-119384990D01*
X86618450Y-119298616D01*
X86654152Y-119241797D01*
X86654154Y-119241794D01*
X86654154Y-119241792D01*
X86654156Y-119241790D01*
X86710013Y-119082159D01*
X86710013Y-119082158D01*
X86710014Y-119082156D01*
X86728949Y-118914102D01*
X86728949Y-118914097D01*
X86710014Y-118746043D01*
X86654154Y-118586405D01*
X86654152Y-118586402D01*
X86564181Y-118443215D01*
X86564176Y-118443209D01*
X86444590Y-118323623D01*
X86444584Y-118323618D01*
X86301397Y-118233647D01*
X86301394Y-118233645D01*
X86141756Y-118177785D01*
X85973703Y-118158851D01*
X85973697Y-118158851D01*
X85805643Y-118177785D01*
X85646005Y-118233645D01*
X85646002Y-118233647D01*
X85502815Y-118323618D01*
X85502809Y-118323623D01*
X85383223Y-118443209D01*
X85383218Y-118443215D01*
X85293247Y-118586402D01*
X85293245Y-118586405D01*
X85237385Y-118746043D01*
X85218451Y-118914097D01*
X82042000Y-118914097D01*
X82042000Y-118008397D01*
X112884351Y-118008397D01*
X112884351Y-118008402D01*
X112903285Y-118176456D01*
X112959145Y-118336094D01*
X112959147Y-118336097D01*
X113049118Y-118479284D01*
X113049123Y-118479290D01*
X113168709Y-118598876D01*
X113168715Y-118598881D01*
X113311902Y-118688852D01*
X113311905Y-118688854D01*
X113311909Y-118688855D01*
X113311910Y-118688856D01*
X113384513Y-118714260D01*
X113471543Y-118744714D01*
X113639597Y-118763649D01*
X113639600Y-118763649D01*
X113639603Y-118763649D01*
X113807656Y-118744714D01*
X113807659Y-118744713D01*
X113967290Y-118688856D01*
X113967292Y-118688854D01*
X113967294Y-118688854D01*
X113967297Y-118688852D01*
X114110484Y-118598881D01*
X114110485Y-118598880D01*
X114110490Y-118598877D01*
X114230077Y-118479290D01*
X114230081Y-118479284D01*
X114320052Y-118336097D01*
X114320054Y-118336094D01*
X114320054Y-118336092D01*
X114320056Y-118336090D01*
X114375913Y-118176459D01*
X114375913Y-118176458D01*
X114375914Y-118176456D01*
X114394849Y-118008402D01*
X114394849Y-118008397D01*
X114375914Y-117840343D01*
X114320054Y-117680705D01*
X114320052Y-117680702D01*
X114230081Y-117537515D01*
X114230076Y-117537509D01*
X114110490Y-117417923D01*
X114110484Y-117417918D01*
X113967297Y-117327947D01*
X113967294Y-117327945D01*
X113807656Y-117272085D01*
X113639603Y-117253151D01*
X113639597Y-117253151D01*
X113471543Y-117272085D01*
X113311905Y-117327945D01*
X113311902Y-117327947D01*
X113168715Y-117417918D01*
X113168709Y-117417923D01*
X113049123Y-117537509D01*
X113049118Y-117537515D01*
X112959147Y-117680702D01*
X112959145Y-117680705D01*
X112903285Y-117840343D01*
X112884351Y-118008397D01*
X82042000Y-118008397D01*
X82042000Y-117185897D01*
X121236651Y-117185897D01*
X121236651Y-117185902D01*
X121255585Y-117353956D01*
X121311445Y-117513594D01*
X121311447Y-117513597D01*
X121401418Y-117656784D01*
X121401423Y-117656790D01*
X121521009Y-117776376D01*
X121521015Y-117776381D01*
X121664202Y-117866352D01*
X121664205Y-117866354D01*
X121664209Y-117866355D01*
X121664210Y-117866356D01*
X121713005Y-117883430D01*
X121823843Y-117922214D01*
X121991897Y-117941149D01*
X121991900Y-117941149D01*
X121991903Y-117941149D01*
X122159956Y-117922214D01*
X122159959Y-117922213D01*
X122319590Y-117866356D01*
X122319592Y-117866354D01*
X122319594Y-117866354D01*
X122319597Y-117866352D01*
X122462784Y-117776381D01*
X122462785Y-117776380D01*
X122462790Y-117776377D01*
X122582377Y-117656790D01*
X122672352Y-117513597D01*
X122672354Y-117513594D01*
X122672354Y-117513592D01*
X122672356Y-117513590D01*
X122728213Y-117353959D01*
X122728213Y-117353958D01*
X122728214Y-117353956D01*
X122747149Y-117185902D01*
X122747149Y-117185897D01*
X122728214Y-117017843D01*
X122672354Y-116858205D01*
X122672352Y-116858202D01*
X122582381Y-116715015D01*
X122582376Y-116715009D01*
X122462790Y-116595423D01*
X122462784Y-116595418D01*
X122319597Y-116505447D01*
X122319594Y-116505445D01*
X122159956Y-116449585D01*
X121991903Y-116430651D01*
X121991897Y-116430651D01*
X121823843Y-116449585D01*
X121664205Y-116505445D01*
X121664202Y-116505447D01*
X121521015Y-116595418D01*
X121521009Y-116595423D01*
X121401423Y-116715009D01*
X121401418Y-116715015D01*
X121311447Y-116858202D01*
X121311445Y-116858205D01*
X121255585Y-117017843D01*
X121236651Y-117185897D01*
X82042000Y-117185897D01*
X82042000Y-116343497D01*
X125601551Y-116343497D01*
X125601551Y-116343502D01*
X125620485Y-116511556D01*
X125676345Y-116671194D01*
X125676347Y-116671197D01*
X125766318Y-116814384D01*
X125766323Y-116814390D01*
X125885909Y-116933976D01*
X125885915Y-116933981D01*
X126029102Y-117023952D01*
X126029105Y-117023954D01*
X126029109Y-117023955D01*
X126029110Y-117023956D01*
X126101713Y-117049360D01*
X126188743Y-117079814D01*
X126356797Y-117098749D01*
X126356800Y-117098749D01*
X126356803Y-117098749D01*
X126524856Y-117079814D01*
X126524859Y-117079813D01*
X126684490Y-117023956D01*
X126684492Y-117023954D01*
X126684494Y-117023954D01*
X126684497Y-117023952D01*
X126827684Y-116933981D01*
X126827685Y-116933980D01*
X126827690Y-116933977D01*
X126947277Y-116814390D01*
X127037252Y-116671197D01*
X127037254Y-116671194D01*
X127037254Y-116671192D01*
X127037256Y-116671190D01*
X127093113Y-116511559D01*
X127093113Y-116511558D01*
X127093114Y-116511556D01*
X127112049Y-116343502D01*
X127112049Y-116343497D01*
X127093114Y-116175443D01*
X127044865Y-116037556D01*
X127037256Y-116015810D01*
X127037255Y-116015809D01*
X127037254Y-116015805D01*
X127037252Y-116015802D01*
X126947281Y-115872615D01*
X126947276Y-115872609D01*
X126827690Y-115753023D01*
X126827684Y-115753018D01*
X126684497Y-115663047D01*
X126684494Y-115663045D01*
X126524856Y-115607185D01*
X126356803Y-115588251D01*
X126356797Y-115588251D01*
X126188743Y-115607185D01*
X126029105Y-115663045D01*
X126029102Y-115663047D01*
X125885915Y-115753018D01*
X125885909Y-115753023D01*
X125766323Y-115872609D01*
X125766318Y-115872615D01*
X125676347Y-116015802D01*
X125676345Y-116015805D01*
X125620485Y-116175443D01*
X125601551Y-116343497D01*
X82042000Y-116343497D01*
X82042000Y-115357097D01*
X90528351Y-115357097D01*
X90528351Y-115357102D01*
X90547285Y-115525156D01*
X90603145Y-115684794D01*
X90603147Y-115684797D01*
X90693118Y-115827984D01*
X90693123Y-115827990D01*
X90812709Y-115947576D01*
X90812715Y-115947581D01*
X90955902Y-116037552D01*
X90955905Y-116037554D01*
X90955909Y-116037555D01*
X90955910Y-116037556D01*
X91000870Y-116053288D01*
X91115543Y-116093414D01*
X91283597Y-116112349D01*
X91283600Y-116112349D01*
X91283603Y-116112349D01*
X91451656Y-116093414D01*
X91451659Y-116093413D01*
X91611290Y-116037556D01*
X91611292Y-116037554D01*
X91611294Y-116037554D01*
X91611297Y-116037552D01*
X91754484Y-115947581D01*
X91754485Y-115947580D01*
X91754490Y-115947577D01*
X91874077Y-115827990D01*
X91921182Y-115753023D01*
X91964052Y-115684797D01*
X91964054Y-115684794D01*
X91964054Y-115684792D01*
X91964056Y-115684790D01*
X92019913Y-115525159D01*
X92019913Y-115525158D01*
X92019914Y-115525156D01*
X92038849Y-115357102D01*
X92038849Y-115357097D01*
X92035514Y-115327496D01*
X127070535Y-115327496D01*
X127070535Y-115327503D01*
X127090730Y-115506749D01*
X127090731Y-115506754D01*
X127150311Y-115677023D01*
X127245167Y-115827984D01*
X127246284Y-115829762D01*
X127373838Y-115957316D01*
X127464180Y-116014082D01*
X127501532Y-116037552D01*
X127526578Y-116053289D01*
X127641246Y-116093413D01*
X127696845Y-116112868D01*
X127696850Y-116112869D01*
X127876096Y-116133065D01*
X127876100Y-116133065D01*
X127876104Y-116133065D01*
X128055349Y-116112869D01*
X128055352Y-116112868D01*
X128055355Y-116112868D01*
X128225622Y-116053289D01*
X128378362Y-115957316D01*
X128505916Y-115829762D01*
X128601889Y-115677022D01*
X128661468Y-115506755D01*
X128678330Y-115357100D01*
X128681665Y-115327503D01*
X128681665Y-115327496D01*
X128661469Y-115148250D01*
X128661468Y-115148245D01*
X128656082Y-115132852D01*
X128601889Y-114977978D01*
X128505916Y-114825238D01*
X128378362Y-114697684D01*
X128281014Y-114636516D01*
X128225623Y-114601711D01*
X128055354Y-114542131D01*
X128055349Y-114542130D01*
X127876104Y-114521935D01*
X127876096Y-114521935D01*
X127696850Y-114542130D01*
X127696845Y-114542131D01*
X127526576Y-114601711D01*
X127373837Y-114697684D01*
X127246284Y-114825237D01*
X127150311Y-114977976D01*
X127090731Y-115148245D01*
X127090730Y-115148250D01*
X127070535Y-115327496D01*
X92035514Y-115327496D01*
X92019914Y-115189043D01*
X91989460Y-115102013D01*
X91964056Y-115029410D01*
X91964055Y-115029409D01*
X91964054Y-115029405D01*
X91964052Y-115029402D01*
X91874081Y-114886215D01*
X91874076Y-114886209D01*
X91754490Y-114766623D01*
X91754484Y-114766618D01*
X91611297Y-114676647D01*
X91611294Y-114676645D01*
X91451656Y-114620785D01*
X91283603Y-114601851D01*
X91283597Y-114601851D01*
X91115543Y-114620785D01*
X90955905Y-114676645D01*
X90955902Y-114676647D01*
X90812715Y-114766618D01*
X90812709Y-114766623D01*
X90693123Y-114886209D01*
X90693118Y-114886215D01*
X90603147Y-115029402D01*
X90603145Y-115029405D01*
X90547285Y-115189043D01*
X90528351Y-115357097D01*
X82042000Y-115357097D01*
X82042000Y-114514696D01*
X83539635Y-114514696D01*
X83539635Y-114514703D01*
X83559830Y-114693949D01*
X83559831Y-114693954D01*
X83619411Y-114864223D01*
X83633230Y-114886215D01*
X83715384Y-115016962D01*
X83842938Y-115144516D01*
X83995678Y-115240489D01*
X84165945Y-115300068D01*
X84165950Y-115300069D01*
X84345196Y-115320265D01*
X84345200Y-115320265D01*
X84345204Y-115320265D01*
X84524449Y-115300069D01*
X84524452Y-115300068D01*
X84524455Y-115300068D01*
X84694722Y-115240489D01*
X84847462Y-115144516D01*
X84975016Y-115016962D01*
X85070989Y-114864222D01*
X85130568Y-114693955D01*
X85132518Y-114676647D01*
X85150765Y-114514703D01*
X85150765Y-114514696D01*
X85130569Y-114335450D01*
X85130568Y-114335445D01*
X85070988Y-114165176D01*
X84975015Y-114012437D01*
X84969274Y-114006696D01*
X96087235Y-114006696D01*
X96087235Y-114006703D01*
X96107430Y-114185949D01*
X96107431Y-114185954D01*
X96167011Y-114356223D01*
X96227445Y-114452402D01*
X96262984Y-114508962D01*
X96390538Y-114636516D01*
X96543278Y-114732489D01*
X96679314Y-114780090D01*
X96713545Y-114792068D01*
X96713550Y-114792069D01*
X96892796Y-114812265D01*
X96892800Y-114812265D01*
X96892804Y-114812265D01*
X97072049Y-114792069D01*
X97072052Y-114792068D01*
X97072055Y-114792068D01*
X97242322Y-114732489D01*
X97395062Y-114636516D01*
X97522616Y-114508962D01*
X97558158Y-114452397D01*
X112427151Y-114452397D01*
X112427151Y-114452402D01*
X112446085Y-114620456D01*
X112501945Y-114780094D01*
X112501947Y-114780097D01*
X112591918Y-114923284D01*
X112591923Y-114923290D01*
X112711509Y-115042876D01*
X112711515Y-115042881D01*
X112854702Y-115132852D01*
X112854705Y-115132854D01*
X112854709Y-115132855D01*
X112854710Y-115132856D01*
X112898704Y-115148250D01*
X113014343Y-115188714D01*
X113182397Y-115207649D01*
X113182400Y-115207649D01*
X113182403Y-115207649D01*
X113350456Y-115188714D01*
X113350459Y-115188713D01*
X113510090Y-115132856D01*
X113510092Y-115132854D01*
X113510094Y-115132854D01*
X113510097Y-115132852D01*
X113653284Y-115042881D01*
X113653285Y-115042880D01*
X113653290Y-115042877D01*
X113772877Y-114923290D01*
X113796177Y-114886209D01*
X113862852Y-114780097D01*
X113862854Y-114780094D01*
X113862854Y-114780092D01*
X113862856Y-114780090D01*
X113918713Y-114620459D01*
X113918713Y-114620458D01*
X113918714Y-114620456D01*
X113937649Y-114452402D01*
X113937649Y-114452397D01*
X113918714Y-114284343D01*
X113877016Y-114165178D01*
X113862856Y-114124710D01*
X113862855Y-114124709D01*
X113862854Y-114124705D01*
X113862852Y-114124702D01*
X113772881Y-113981515D01*
X113772876Y-113981509D01*
X113653290Y-113861923D01*
X113653284Y-113861918D01*
X113510097Y-113771947D01*
X113510094Y-113771945D01*
X113350456Y-113716085D01*
X113182403Y-113697151D01*
X113182397Y-113697151D01*
X113014343Y-113716085D01*
X112854705Y-113771945D01*
X112854702Y-113771947D01*
X112711515Y-113861918D01*
X112711509Y-113861923D01*
X112591923Y-113981509D01*
X112591918Y-113981515D01*
X112501947Y-114124702D01*
X112501945Y-114124705D01*
X112446085Y-114284343D01*
X112427151Y-114452397D01*
X97558158Y-114452397D01*
X97618589Y-114356222D01*
X97678168Y-114185955D01*
X97680509Y-114165178D01*
X97698365Y-114006703D01*
X97698365Y-114006696D01*
X97678169Y-113827450D01*
X97678168Y-113827445D01*
X97658747Y-113771944D01*
X97618589Y-113657178D01*
X97600525Y-113628430D01*
X97522615Y-113504437D01*
X97395062Y-113376884D01*
X97242323Y-113280911D01*
X97072054Y-113221331D01*
X97072049Y-113221330D01*
X96892804Y-113201135D01*
X96892796Y-113201135D01*
X96713550Y-113221330D01*
X96713545Y-113221331D01*
X96543276Y-113280911D01*
X96390537Y-113376884D01*
X96262984Y-113504437D01*
X96167011Y-113657176D01*
X96107431Y-113827445D01*
X96107430Y-113827450D01*
X96087235Y-114006696D01*
X84969274Y-114006696D01*
X84847462Y-113884884D01*
X84694723Y-113788911D01*
X84524454Y-113729331D01*
X84524449Y-113729330D01*
X84345204Y-113709135D01*
X84345196Y-113709135D01*
X84165950Y-113729330D01*
X84165945Y-113729331D01*
X83995676Y-113788911D01*
X83842937Y-113884884D01*
X83715384Y-114012437D01*
X83619411Y-114165176D01*
X83559831Y-114335445D01*
X83559830Y-114335450D01*
X83539635Y-114514696D01*
X82042000Y-114514696D01*
X82042000Y-112533496D01*
X99389235Y-112533496D01*
X99389235Y-112533503D01*
X99409430Y-112712749D01*
X99409431Y-112712754D01*
X99469011Y-112883023D01*
X99532851Y-112984623D01*
X99564984Y-113035762D01*
X99692538Y-113163316D01*
X99845278Y-113259289D01*
X100015545Y-113318868D01*
X100015550Y-113318869D01*
X100194796Y-113339065D01*
X100194800Y-113339065D01*
X100194804Y-113339065D01*
X100374049Y-113318869D01*
X100374052Y-113318868D01*
X100374055Y-113318868D01*
X100544322Y-113259289D01*
X100648389Y-113193899D01*
X109343922Y-113193899D01*
X109343922Y-113193900D01*
X109362962Y-113350718D01*
X109397075Y-113440665D01*
X109418980Y-113498423D01*
X109508717Y-113628430D01*
X109626960Y-113733183D01*
X109626962Y-113733184D01*
X109766834Y-113806596D01*
X109920214Y-113844400D01*
X109920215Y-113844400D01*
X110078185Y-113844400D01*
X110231565Y-113806596D01*
X110371440Y-113733183D01*
X110489683Y-113628430D01*
X110579420Y-113498423D01*
X110635437Y-113350718D01*
X110654478Y-113193900D01*
X110650765Y-113163316D01*
X110635437Y-113037081D01*
X110612601Y-112976868D01*
X110579420Y-112889377D01*
X110489683Y-112759370D01*
X110371440Y-112654617D01*
X110371438Y-112654616D01*
X110371437Y-112654615D01*
X110231565Y-112581203D01*
X110078186Y-112543400D01*
X110078185Y-112543400D01*
X109920215Y-112543400D01*
X109920214Y-112543400D01*
X109766834Y-112581203D01*
X109626962Y-112654615D01*
X109508716Y-112759371D01*
X109418981Y-112889375D01*
X109418980Y-112889376D01*
X109362962Y-113037081D01*
X109343922Y-113193899D01*
X100648389Y-113193899D01*
X100697062Y-113163316D01*
X100824616Y-113035762D01*
X100920589Y-112883022D01*
X100980168Y-112712755D01*
X100982013Y-112696381D01*
X101000365Y-112533503D01*
X101000365Y-112533496D01*
X100980169Y-112354250D01*
X100980168Y-112354245D01*
X100923221Y-112191500D01*
X100920589Y-112183978D01*
X100871527Y-112105897D01*
X112702251Y-112105897D01*
X112702251Y-112105902D01*
X112721185Y-112273956D01*
X112777045Y-112433594D01*
X112777047Y-112433597D01*
X112867018Y-112576784D01*
X112867023Y-112576790D01*
X112986609Y-112696376D01*
X112986615Y-112696381D01*
X113129802Y-112786352D01*
X113129805Y-112786354D01*
X113129809Y-112786355D01*
X113129810Y-112786356D01*
X113202413Y-112811760D01*
X113289443Y-112842214D01*
X113457497Y-112861149D01*
X113457500Y-112861149D01*
X113457503Y-112861149D01*
X113625556Y-112842214D01*
X113625559Y-112842213D01*
X113785190Y-112786356D01*
X113785192Y-112786354D01*
X113785194Y-112786354D01*
X113785197Y-112786352D01*
X113928384Y-112696381D01*
X113928385Y-112696380D01*
X113928390Y-112696377D01*
X114047977Y-112576790D01*
X114047981Y-112576784D01*
X114137952Y-112433597D01*
X114137954Y-112433594D01*
X114137954Y-112433592D01*
X114137956Y-112433590D01*
X114193813Y-112273959D01*
X114193813Y-112273958D01*
X114193814Y-112273956D01*
X114212749Y-112105902D01*
X114212749Y-112105897D01*
X120128851Y-112105897D01*
X120128851Y-112105902D01*
X120147785Y-112273956D01*
X120203645Y-112433594D01*
X120203647Y-112433597D01*
X120293618Y-112576784D01*
X120293623Y-112576790D01*
X120413209Y-112696376D01*
X120413215Y-112696381D01*
X120556402Y-112786352D01*
X120556405Y-112786354D01*
X120556409Y-112786355D01*
X120556410Y-112786356D01*
X120629013Y-112811760D01*
X120716043Y-112842214D01*
X120884097Y-112861149D01*
X120884100Y-112861149D01*
X120884103Y-112861149D01*
X121052156Y-112842214D01*
X121052159Y-112842213D01*
X121211790Y-112786356D01*
X121211792Y-112786354D01*
X121211794Y-112786354D01*
X121211797Y-112786352D01*
X121354984Y-112696381D01*
X121354985Y-112696380D01*
X121354990Y-112696377D01*
X121474577Y-112576790D01*
X121474581Y-112576784D01*
X121564552Y-112433597D01*
X121564554Y-112433594D01*
X121564554Y-112433592D01*
X121564556Y-112433590D01*
X121620413Y-112273959D01*
X121620413Y-112273958D01*
X121620414Y-112273956D01*
X121629705Y-112191496D01*
X121999135Y-112191496D01*
X121999135Y-112191503D01*
X122019330Y-112370749D01*
X122019331Y-112370754D01*
X122078911Y-112541023D01*
X122174884Y-112693762D01*
X122302438Y-112821316D01*
X122455178Y-112917289D01*
X122625445Y-112976868D01*
X122625450Y-112976869D01*
X122804696Y-112997065D01*
X122804700Y-112997065D01*
X122804704Y-112997065D01*
X122983949Y-112976869D01*
X122983952Y-112976868D01*
X122983955Y-112976868D01*
X123154222Y-112917289D01*
X123306962Y-112821316D01*
X123434516Y-112693762D01*
X123471378Y-112635096D01*
X126364035Y-112635096D01*
X126364035Y-112635103D01*
X126384230Y-112814349D01*
X126384231Y-112814354D01*
X126443811Y-112984623D01*
X126539784Y-113137362D01*
X126667338Y-113264916D01*
X126820078Y-113360889D01*
X126990345Y-113420468D01*
X126990350Y-113420469D01*
X127169596Y-113440665D01*
X127169600Y-113440665D01*
X127169604Y-113440665D01*
X127348849Y-113420469D01*
X127348852Y-113420468D01*
X127348855Y-113420468D01*
X127519122Y-113360889D01*
X127671862Y-113264916D01*
X127799416Y-113137362D01*
X127895389Y-112984622D01*
X127954968Y-112814355D01*
X127961163Y-112759371D01*
X127975165Y-112635103D01*
X127975165Y-112635096D01*
X127954969Y-112455850D01*
X127954968Y-112455845D01*
X127925193Y-112370754D01*
X127895389Y-112285578D01*
X127888086Y-112273956D01*
X127799415Y-112132837D01*
X127671862Y-112005284D01*
X127519123Y-111909311D01*
X127348854Y-111849731D01*
X127348849Y-111849730D01*
X127169604Y-111829535D01*
X127169596Y-111829535D01*
X126990350Y-111849730D01*
X126990345Y-111849731D01*
X126820076Y-111909311D01*
X126667337Y-112005284D01*
X126539784Y-112132837D01*
X126443811Y-112285576D01*
X126384231Y-112455845D01*
X126384230Y-112455850D01*
X126364035Y-112635096D01*
X123471378Y-112635096D01*
X123530489Y-112541022D01*
X123590068Y-112370755D01*
X123591928Y-112354250D01*
X123610265Y-112191503D01*
X123610265Y-112191496D01*
X123590069Y-112012250D01*
X123590068Y-112012245D01*
X123587632Y-112005284D01*
X123530489Y-111841978D01*
X123434516Y-111689238D01*
X123306962Y-111561684D01*
X123154223Y-111465711D01*
X122983954Y-111406131D01*
X122983949Y-111406130D01*
X122804704Y-111385935D01*
X122804696Y-111385935D01*
X122625450Y-111406130D01*
X122625445Y-111406131D01*
X122455176Y-111465711D01*
X122302437Y-111561684D01*
X122174884Y-111689237D01*
X122078911Y-111841976D01*
X122019331Y-112012245D01*
X122019330Y-112012250D01*
X121999135Y-112191496D01*
X121629705Y-112191496D01*
X121639349Y-112105902D01*
X121639349Y-112105897D01*
X121620414Y-111937843D01*
X121564554Y-111778205D01*
X121564552Y-111778202D01*
X121474581Y-111635015D01*
X121474576Y-111635009D01*
X121354990Y-111515423D01*
X121354984Y-111515418D01*
X121211797Y-111425447D01*
X121211794Y-111425445D01*
X121052156Y-111369585D01*
X120884103Y-111350651D01*
X120884097Y-111350651D01*
X120716043Y-111369585D01*
X120556405Y-111425445D01*
X120556402Y-111425447D01*
X120413215Y-111515418D01*
X120413209Y-111515423D01*
X120293623Y-111635009D01*
X120293618Y-111635015D01*
X120203647Y-111778202D01*
X120203645Y-111778205D01*
X120147785Y-111937843D01*
X120128851Y-112105897D01*
X114212749Y-112105897D01*
X114193814Y-111937843D01*
X114137954Y-111778205D01*
X114137952Y-111778202D01*
X114047981Y-111635015D01*
X114047976Y-111635009D01*
X113928390Y-111515423D01*
X113928384Y-111515418D01*
X113785197Y-111425447D01*
X113785194Y-111425445D01*
X113625556Y-111369585D01*
X113457503Y-111350651D01*
X113457497Y-111350651D01*
X113289443Y-111369585D01*
X113129805Y-111425445D01*
X113129802Y-111425447D01*
X112986615Y-111515418D01*
X112986609Y-111515423D01*
X112867023Y-111635009D01*
X112867018Y-111635015D01*
X112777047Y-111778202D01*
X112777045Y-111778205D01*
X112721185Y-111937843D01*
X112702251Y-112105897D01*
X100871527Y-112105897D01*
X100824616Y-112031238D01*
X100697062Y-111903684D01*
X100544323Y-111807711D01*
X100374054Y-111748131D01*
X100374049Y-111748130D01*
X100194804Y-111727935D01*
X100194796Y-111727935D01*
X100015550Y-111748130D01*
X100015545Y-111748131D01*
X99845276Y-111807711D01*
X99692537Y-111903684D01*
X99564984Y-112031237D01*
X99469011Y-112183976D01*
X99409431Y-112354245D01*
X99409430Y-112354250D01*
X99389235Y-112533496D01*
X82042000Y-112533496D01*
X82042000Y-109282297D01*
X83335951Y-109282297D01*
X83335951Y-109282302D01*
X83354885Y-109450356D01*
X83410745Y-109609994D01*
X83410747Y-109609997D01*
X83500718Y-109753184D01*
X83500723Y-109753190D01*
X83620309Y-109872776D01*
X83620315Y-109872781D01*
X83763502Y-109962752D01*
X83763505Y-109962754D01*
X83763509Y-109962755D01*
X83763510Y-109962756D01*
X83782938Y-109969554D01*
X83923143Y-110018614D01*
X84091197Y-110037549D01*
X84091200Y-110037549D01*
X84091203Y-110037549D01*
X84259256Y-110018614D01*
X84262834Y-110017362D01*
X84418890Y-109962756D01*
X84418892Y-109962754D01*
X84418894Y-109962754D01*
X84418897Y-109962752D01*
X84562084Y-109872781D01*
X84562085Y-109872780D01*
X84562090Y-109872777D01*
X84681677Y-109753190D01*
X84718646Y-109694355D01*
X84771652Y-109609997D01*
X84771654Y-109609994D01*
X84771654Y-109609992D01*
X84771656Y-109609990D01*
X84827513Y-109450359D01*
X84827513Y-109450358D01*
X84827514Y-109450356D01*
X84846449Y-109282302D01*
X84846449Y-109282297D01*
X84827514Y-109114243D01*
X84797440Y-109028296D01*
X88314835Y-109028296D01*
X88314835Y-109028303D01*
X88335030Y-109207549D01*
X88335031Y-109207554D01*
X88394611Y-109377823D01*
X88462271Y-109485502D01*
X88490584Y-109530562D01*
X88618138Y-109658116D01*
X88675812Y-109694355D01*
X88769437Y-109753184D01*
X88770878Y-109754089D01*
X88848880Y-109781383D01*
X88941145Y-109813668D01*
X88941150Y-109813669D01*
X89120396Y-109833865D01*
X89120400Y-109833865D01*
X89120404Y-109833865D01*
X89299649Y-109813669D01*
X89299652Y-109813668D01*
X89299655Y-109813668D01*
X89469922Y-109754089D01*
X89622662Y-109658116D01*
X89746994Y-109533783D01*
X89808313Y-109500301D01*
X89878005Y-109505285D01*
X89933939Y-109547156D01*
X89958356Y-109612620D01*
X89957892Y-109635350D01*
X89940435Y-109790295D01*
X89940435Y-109790303D01*
X89960630Y-109969549D01*
X89960631Y-109969554D01*
X90020211Y-110139823D01*
X90116184Y-110292562D01*
X90243738Y-110420116D01*
X90396478Y-110516089D01*
X90566745Y-110575668D01*
X90566750Y-110575669D01*
X90745996Y-110595865D01*
X90746000Y-110595865D01*
X90746004Y-110595865D01*
X90925249Y-110575669D01*
X90925252Y-110575668D01*
X90925255Y-110575668D01*
X91095522Y-110516089D01*
X91248262Y-110420116D01*
X91375816Y-110292562D01*
X91471789Y-110139822D01*
X91531368Y-109969555D01*
X91532134Y-109962756D01*
X91551565Y-109790303D01*
X91551565Y-109790297D01*
X91536105Y-109653087D01*
X91548159Y-109584265D01*
X91571644Y-109551521D01*
X91576384Y-109546780D01*
X91576390Y-109546777D01*
X91608071Y-109515096D01*
X99393135Y-109515096D01*
X99393135Y-109515103D01*
X99413330Y-109694349D01*
X99413331Y-109694354D01*
X99472911Y-109864623D01*
X99534570Y-109962752D01*
X99568884Y-110017362D01*
X99696438Y-110144916D01*
X99849178Y-110240889D01*
X99996851Y-110292562D01*
X100019445Y-110300468D01*
X100019450Y-110300469D01*
X100198696Y-110320665D01*
X100198700Y-110320665D01*
X100198704Y-110320665D01*
X100377949Y-110300469D01*
X100377952Y-110300468D01*
X100377955Y-110300468D01*
X100548222Y-110240889D01*
X100700962Y-110144916D01*
X100828516Y-110017362D01*
X100924489Y-109864622D01*
X100984068Y-109694355D01*
X100986065Y-109676630D01*
X101004265Y-109515103D01*
X101004265Y-109515096D01*
X101000930Y-109485497D01*
X117930751Y-109485497D01*
X117930751Y-109485502D01*
X117949685Y-109653556D01*
X118005545Y-109813194D01*
X118005547Y-109813197D01*
X118095518Y-109956384D01*
X118095523Y-109956390D01*
X118215109Y-110075976D01*
X118215115Y-110075981D01*
X118358302Y-110165952D01*
X118358305Y-110165954D01*
X118358309Y-110165955D01*
X118358310Y-110165956D01*
X118430913Y-110191360D01*
X118517943Y-110221814D01*
X118685997Y-110240749D01*
X118686000Y-110240749D01*
X118686003Y-110240749D01*
X118854056Y-110221814D01*
X118854059Y-110221813D01*
X119013690Y-110165956D01*
X119013692Y-110165954D01*
X119013694Y-110165954D01*
X119013697Y-110165952D01*
X119156884Y-110075981D01*
X119156885Y-110075980D01*
X119156890Y-110075977D01*
X119276477Y-109956390D01*
X119316559Y-109892600D01*
X119366452Y-109813197D01*
X119366454Y-109813194D01*
X119366454Y-109813192D01*
X119366456Y-109813190D01*
X119422313Y-109653559D01*
X119422313Y-109653558D01*
X119422314Y-109653556D01*
X119441249Y-109485502D01*
X119441249Y-109485497D01*
X120521551Y-109485497D01*
X120521551Y-109485502D01*
X120540485Y-109653556D01*
X120596345Y-109813194D01*
X120596347Y-109813197D01*
X120686318Y-109956384D01*
X120686323Y-109956390D01*
X120805909Y-110075976D01*
X120805915Y-110075981D01*
X120949102Y-110165952D01*
X120949105Y-110165954D01*
X120949109Y-110165955D01*
X120949110Y-110165956D01*
X121021713Y-110191360D01*
X121108743Y-110221814D01*
X121276797Y-110240749D01*
X121276800Y-110240749D01*
X121276803Y-110240749D01*
X121444856Y-110221814D01*
X121444859Y-110221813D01*
X121604490Y-110165956D01*
X121604492Y-110165954D01*
X121604494Y-110165954D01*
X121604497Y-110165952D01*
X121747684Y-110075981D01*
X121747685Y-110075980D01*
X121747690Y-110075977D01*
X121867277Y-109956390D01*
X121907359Y-109892600D01*
X121957252Y-109813197D01*
X121957254Y-109813194D01*
X121957254Y-109813192D01*
X121957256Y-109813190D01*
X122013113Y-109653559D01*
X122013113Y-109653558D01*
X122013114Y-109653556D01*
X122032049Y-109485502D01*
X122032049Y-109485497D01*
X122013114Y-109317443D01*
X121986750Y-109242099D01*
X123052323Y-109242099D01*
X123052323Y-109242100D01*
X123071363Y-109398918D01*
X123127381Y-109546623D01*
X123217118Y-109676630D01*
X123335361Y-109781383D01*
X123335363Y-109781384D01*
X123475235Y-109854796D01*
X123628615Y-109892600D01*
X123628616Y-109892600D01*
X123786586Y-109892600D01*
X123939966Y-109854796D01*
X123979846Y-109833865D01*
X124079841Y-109781383D01*
X124198084Y-109676630D01*
X124287821Y-109546623D01*
X124343838Y-109398918D01*
X124362879Y-109242100D01*
X124358685Y-109207554D01*
X124343838Y-109085281D01*
X124322226Y-109028296D01*
X124287821Y-108937577D01*
X124198084Y-108807570D01*
X124079841Y-108702817D01*
X124079839Y-108702816D01*
X124079838Y-108702815D01*
X123939966Y-108629403D01*
X123786587Y-108591600D01*
X123786586Y-108591600D01*
X123628616Y-108591600D01*
X123628615Y-108591600D01*
X123475235Y-108629403D01*
X123335363Y-108702815D01*
X123217117Y-108807571D01*
X123127382Y-108937575D01*
X123127381Y-108937576D01*
X123071363Y-109085281D01*
X123052323Y-109242099D01*
X121986750Y-109242099D01*
X121959973Y-109165576D01*
X121957256Y-109157810D01*
X121957255Y-109157809D01*
X121957254Y-109157805D01*
X121957252Y-109157802D01*
X121867281Y-109014615D01*
X121867276Y-109014609D01*
X121747690Y-108895023D01*
X121747684Y-108895018D01*
X121604497Y-108805047D01*
X121604494Y-108805045D01*
X121444856Y-108749185D01*
X121276803Y-108730251D01*
X121276797Y-108730251D01*
X121108743Y-108749185D01*
X120949105Y-108805045D01*
X120949102Y-108805047D01*
X120805915Y-108895018D01*
X120805909Y-108895023D01*
X120686323Y-109014609D01*
X120686318Y-109014615D01*
X120596347Y-109157802D01*
X120596345Y-109157805D01*
X120540485Y-109317443D01*
X120521551Y-109485497D01*
X119441249Y-109485497D01*
X119422314Y-109317443D01*
X119369173Y-109165576D01*
X119366456Y-109157810D01*
X119366455Y-109157809D01*
X119366454Y-109157805D01*
X119366452Y-109157802D01*
X119276481Y-109014615D01*
X119276476Y-109014609D01*
X119156890Y-108895023D01*
X119156884Y-108895018D01*
X119013697Y-108805047D01*
X119013694Y-108805045D01*
X118854056Y-108749185D01*
X118686003Y-108730251D01*
X118685997Y-108730251D01*
X118517943Y-108749185D01*
X118358305Y-108805045D01*
X118358302Y-108805047D01*
X118215115Y-108895018D01*
X118215109Y-108895023D01*
X118095523Y-109014609D01*
X118095518Y-109014615D01*
X118005547Y-109157802D01*
X118005545Y-109157805D01*
X117949685Y-109317443D01*
X117930751Y-109485497D01*
X101000930Y-109485497D01*
X100984069Y-109335850D01*
X100984068Y-109335845D01*
X100965926Y-109283997D01*
X100924489Y-109165578D01*
X100898587Y-109124356D01*
X100873533Y-109084482D01*
X100828516Y-109012838D01*
X100700962Y-108885284D01*
X100643288Y-108849045D01*
X100548223Y-108789311D01*
X100377954Y-108729731D01*
X100377949Y-108729730D01*
X100198704Y-108709535D01*
X100198696Y-108709535D01*
X100019450Y-108729730D01*
X100019445Y-108729731D01*
X99849176Y-108789311D01*
X99696437Y-108885284D01*
X99568884Y-109012837D01*
X99472911Y-109165576D01*
X99413331Y-109335845D01*
X99413330Y-109335850D01*
X99393135Y-109515096D01*
X91608071Y-109515096D01*
X91695977Y-109427190D01*
X91753370Y-109335850D01*
X91785952Y-109283997D01*
X91785954Y-109283994D01*
X91785954Y-109283992D01*
X91785956Y-109283990D01*
X91841813Y-109124359D01*
X91841813Y-109124358D01*
X91841814Y-109124356D01*
X91860749Y-108956302D01*
X91860749Y-108956297D01*
X91841814Y-108788243D01*
X91785954Y-108628605D01*
X91785952Y-108628602D01*
X91695981Y-108485415D01*
X91695976Y-108485409D01*
X91576390Y-108365823D01*
X91576384Y-108365818D01*
X91433197Y-108275847D01*
X91433194Y-108275845D01*
X91273556Y-108219985D01*
X91105503Y-108201051D01*
X91105497Y-108201051D01*
X90937443Y-108219985D01*
X90777805Y-108275845D01*
X90777802Y-108275847D01*
X90634615Y-108365818D01*
X90634609Y-108365823D01*
X90515023Y-108485409D01*
X90515018Y-108485415D01*
X90425047Y-108628602D01*
X90425045Y-108628605D01*
X90369185Y-108788243D01*
X90350251Y-108956297D01*
X90350251Y-108956304D01*
X90355969Y-109007059D01*
X90343914Y-109075881D01*
X90298722Y-109125934D01*
X90243742Y-109160480D01*
X90119408Y-109284814D01*
X90058085Y-109318298D01*
X89988393Y-109313314D01*
X89932460Y-109271442D01*
X89908043Y-109205978D01*
X89908507Y-109183249D01*
X89925965Y-109028303D01*
X89925965Y-109028296D01*
X89905769Y-108849050D01*
X89905768Y-108849045D01*
X89864200Y-108730251D01*
X89846189Y-108678778D01*
X89750216Y-108526038D01*
X89622662Y-108398484D01*
X89469923Y-108302511D01*
X89299654Y-108242931D01*
X89299649Y-108242930D01*
X89120404Y-108222735D01*
X89120396Y-108222735D01*
X88941150Y-108242930D01*
X88941145Y-108242931D01*
X88770876Y-108302511D01*
X88618137Y-108398484D01*
X88490584Y-108526037D01*
X88394611Y-108678776D01*
X88335031Y-108849045D01*
X88335030Y-108849050D01*
X88314835Y-109028296D01*
X84797440Y-109028296D01*
X84771654Y-108954605D01*
X84771652Y-108954602D01*
X84681681Y-108811415D01*
X84681676Y-108811409D01*
X84562090Y-108691823D01*
X84562084Y-108691818D01*
X84418897Y-108601847D01*
X84418894Y-108601845D01*
X84259256Y-108545985D01*
X84091203Y-108527051D01*
X84091197Y-108527051D01*
X83923143Y-108545985D01*
X83763505Y-108601845D01*
X83763502Y-108601847D01*
X83620315Y-108691818D01*
X83620309Y-108691823D01*
X83500723Y-108811409D01*
X83500718Y-108811415D01*
X83410747Y-108954602D01*
X83410745Y-108954605D01*
X83354885Y-109114243D01*
X83335951Y-109282297D01*
X82042000Y-109282297D01*
X82042000Y-107047096D01*
X91312035Y-107047096D01*
X91312035Y-107047103D01*
X91332230Y-107226349D01*
X91332231Y-107226354D01*
X91391811Y-107396623D01*
X91469781Y-107520710D01*
X91487784Y-107549362D01*
X91615338Y-107676916D01*
X91768078Y-107772889D01*
X91938345Y-107832468D01*
X91938350Y-107832469D01*
X92117596Y-107852665D01*
X92117600Y-107852665D01*
X92117604Y-107852665D01*
X92155484Y-107848397D01*
X125482751Y-107848397D01*
X125482751Y-107848402D01*
X125501685Y-108016456D01*
X125557545Y-108176094D01*
X125557547Y-108176097D01*
X125647518Y-108319284D01*
X125647523Y-108319290D01*
X125767109Y-108438876D01*
X125767115Y-108438881D01*
X125910302Y-108528852D01*
X125910305Y-108528854D01*
X125910309Y-108528855D01*
X125910310Y-108528856D01*
X125959262Y-108545985D01*
X126069943Y-108584714D01*
X126237997Y-108603649D01*
X126238000Y-108603649D01*
X126238003Y-108603649D01*
X126406056Y-108584714D01*
X126406059Y-108584713D01*
X126565690Y-108528856D01*
X126565692Y-108528854D01*
X126565694Y-108528854D01*
X126565697Y-108528852D01*
X126708884Y-108438881D01*
X126708885Y-108438880D01*
X126708890Y-108438877D01*
X126828477Y-108319290D01*
X126855774Y-108275847D01*
X126918452Y-108176097D01*
X126918454Y-108176094D01*
X126918454Y-108176092D01*
X126918456Y-108176090D01*
X126974313Y-108016459D01*
X126974313Y-108016458D01*
X126974314Y-108016456D01*
X126993249Y-107848402D01*
X126993249Y-107848397D01*
X126974314Y-107680343D01*
X126918454Y-107520705D01*
X126918452Y-107520702D01*
X126828481Y-107377515D01*
X126828476Y-107377509D01*
X126708890Y-107257923D01*
X126708884Y-107257918D01*
X126565697Y-107167947D01*
X126565694Y-107167945D01*
X126406056Y-107112085D01*
X126238003Y-107093151D01*
X126237997Y-107093151D01*
X126069943Y-107112085D01*
X125910305Y-107167945D01*
X125910302Y-107167947D01*
X125767115Y-107257918D01*
X125767109Y-107257923D01*
X125647523Y-107377509D01*
X125647518Y-107377515D01*
X125557547Y-107520702D01*
X125557545Y-107520705D01*
X125501685Y-107680343D01*
X125482751Y-107848397D01*
X92155484Y-107848397D01*
X92296849Y-107832469D01*
X92296852Y-107832468D01*
X92296855Y-107832468D01*
X92467122Y-107772889D01*
X92619862Y-107676916D01*
X92747416Y-107549362D01*
X92843389Y-107396622D01*
X92902968Y-107226355D01*
X92909549Y-107167945D01*
X92923165Y-107047103D01*
X92923165Y-107047096D01*
X92902969Y-106867850D01*
X92902968Y-106867845D01*
X92843388Y-106697576D01*
X92783188Y-106601769D01*
X92747416Y-106544838D01*
X92619862Y-106417284D01*
X92613918Y-106413549D01*
X92467123Y-106321311D01*
X92296854Y-106261731D01*
X92296849Y-106261730D01*
X92117604Y-106241535D01*
X92117596Y-106241535D01*
X91938350Y-106261730D01*
X91938345Y-106261731D01*
X91768076Y-106321311D01*
X91615337Y-106417284D01*
X91487784Y-106544837D01*
X91391811Y-106697576D01*
X91332231Y-106867845D01*
X91332230Y-106867850D01*
X91312035Y-107047096D01*
X82042000Y-107047096D01*
X82042000Y-106234296D01*
X94563235Y-106234296D01*
X94563235Y-106234303D01*
X94583430Y-106413549D01*
X94583431Y-106413554D01*
X94643011Y-106583823D01*
X94714487Y-106697576D01*
X94738984Y-106736562D01*
X94866538Y-106864116D01*
X95019278Y-106960089D01*
X95189545Y-107019668D01*
X95189550Y-107019669D01*
X95368796Y-107039865D01*
X95368800Y-107039865D01*
X95368804Y-107039865D01*
X95548049Y-107019669D01*
X95548052Y-107019668D01*
X95548055Y-107019668D01*
X95718322Y-106960089D01*
X95871062Y-106864116D01*
X95998616Y-106736562D01*
X96094589Y-106583822D01*
X96154168Y-106413555D01*
X96154169Y-106413549D01*
X96174365Y-106234303D01*
X96174365Y-106234296D01*
X96154169Y-106055050D01*
X96154168Y-106055045D01*
X96094589Y-105884778D01*
X95998616Y-105732038D01*
X95871062Y-105604484D01*
X95813256Y-105568162D01*
X95718323Y-105508511D01*
X95548054Y-105448931D01*
X95548049Y-105448930D01*
X95368804Y-105428735D01*
X95368796Y-105428735D01*
X95189550Y-105448930D01*
X95189545Y-105448931D01*
X95019276Y-105508511D01*
X94866537Y-105604484D01*
X94738984Y-105732037D01*
X94643011Y-105884776D01*
X94583431Y-106055045D01*
X94583430Y-106055050D01*
X94563235Y-106234296D01*
X82042000Y-106234296D01*
X82042000Y-103835196D01*
X103029635Y-103835196D01*
X103029635Y-103835203D01*
X103049830Y-104014449D01*
X103049833Y-104014462D01*
X103109409Y-104184720D01*
X103151576Y-104251829D01*
X103170576Y-104319066D01*
X103151576Y-104383771D01*
X103109409Y-104450879D01*
X103049833Y-104621137D01*
X103049830Y-104621150D01*
X103029635Y-104800396D01*
X103029635Y-104800403D01*
X103049830Y-104979649D01*
X103049831Y-104979654D01*
X103109411Y-105149923D01*
X103167536Y-105242428D01*
X103186536Y-105309665D01*
X103167536Y-105374372D01*
X103109411Y-105466876D01*
X103049831Y-105637145D01*
X103049830Y-105637150D01*
X103029635Y-105816396D01*
X103029635Y-105816403D01*
X103049830Y-105995649D01*
X103049831Y-105995654D01*
X103109411Y-106165923D01*
X103156922Y-106241535D01*
X103205384Y-106318662D01*
X103332938Y-106446216D01*
X103485678Y-106542189D01*
X103604661Y-106583823D01*
X103655945Y-106601768D01*
X103655950Y-106601769D01*
X103835196Y-106621965D01*
X103835200Y-106621965D01*
X103835204Y-106621965D01*
X104014449Y-106601769D01*
X104014452Y-106601768D01*
X104014455Y-106601768D01*
X104184722Y-106542189D01*
X104337462Y-106446216D01*
X104465016Y-106318662D01*
X104560989Y-106165922D01*
X104620568Y-105995655D01*
X104634561Y-105871465D01*
X104640765Y-105816403D01*
X104640765Y-105816396D01*
X104620569Y-105637150D01*
X104620568Y-105637145D01*
X104560988Y-105466875D01*
X104502864Y-105374373D01*
X104483863Y-105307136D01*
X104502864Y-105242427D01*
X104507613Y-105234870D01*
X104560989Y-105149922D01*
X104590391Y-105065896D01*
X125856035Y-105065896D01*
X125856035Y-105065903D01*
X125876230Y-105245149D01*
X125876231Y-105245154D01*
X125935811Y-105415423D01*
X126031784Y-105568162D01*
X126159338Y-105695716D01*
X126312078Y-105791689D01*
X126382687Y-105816396D01*
X126482345Y-105851268D01*
X126482350Y-105851269D01*
X126661596Y-105871465D01*
X126661600Y-105871465D01*
X126661604Y-105871465D01*
X126840849Y-105851269D01*
X126840852Y-105851268D01*
X126840855Y-105851268D01*
X127011122Y-105791689D01*
X127163862Y-105695716D01*
X127291416Y-105568162D01*
X127387389Y-105415422D01*
X127432855Y-105285485D01*
X127473575Y-105228712D01*
X127538528Y-105202964D01*
X127607090Y-105216420D01*
X127622783Y-105226125D01*
X127625866Y-105228365D01*
X127829321Y-105353043D01*
X128049775Y-105444357D01*
X128049772Y-105444357D01*
X128281816Y-105500066D01*
X128519700Y-105518787D01*
X128757583Y-105500066D01*
X128989625Y-105444357D01*
X129210078Y-105353043D01*
X129402917Y-105234870D01*
X129402917Y-105234869D01*
X128730759Y-104562712D01*
X128751291Y-104557211D01*
X128888108Y-104478219D01*
X128999819Y-104366508D01*
X129078811Y-104229691D01*
X129084312Y-104209160D01*
X129756469Y-104881317D01*
X129756470Y-104881317D01*
X129874643Y-104688478D01*
X129965957Y-104468025D01*
X130021666Y-104235983D01*
X130040387Y-103998100D01*
X130021666Y-103760216D01*
X129965957Y-103528174D01*
X129874643Y-103307721D01*
X129756469Y-103114881D01*
X129084312Y-103787039D01*
X129078811Y-103766509D01*
X128999819Y-103629692D01*
X128888108Y-103517981D01*
X128751291Y-103438989D01*
X128730758Y-103433487D01*
X129402917Y-102761329D01*
X129210078Y-102643156D01*
X128989624Y-102551842D01*
X128989627Y-102551842D01*
X128757583Y-102496133D01*
X128519700Y-102477412D01*
X128281816Y-102496133D01*
X128049774Y-102551842D01*
X127829321Y-102643156D01*
X127636481Y-102761329D01*
X128308640Y-103433487D01*
X128288109Y-103438989D01*
X128151292Y-103517981D01*
X128039581Y-103629692D01*
X127960589Y-103766509D01*
X127955087Y-103787040D01*
X127282929Y-103114881D01*
X127164756Y-103307721D01*
X127073442Y-103528174D01*
X127017733Y-103760216D01*
X126999012Y-103998100D01*
X127011427Y-104155861D01*
X126997062Y-104224238D01*
X126948011Y-104273995D01*
X126879845Y-104289333D01*
X126846855Y-104282631D01*
X126840857Y-104280532D01*
X126840849Y-104280530D01*
X126661604Y-104260335D01*
X126661596Y-104260335D01*
X126482350Y-104280530D01*
X126482345Y-104280531D01*
X126312076Y-104340111D01*
X126159337Y-104436084D01*
X126031784Y-104563637D01*
X125935811Y-104716376D01*
X125876231Y-104886645D01*
X125876230Y-104886650D01*
X125856035Y-105065896D01*
X104590391Y-105065896D01*
X104620568Y-104979655D01*
X104640765Y-104800400D01*
X104631298Y-104716378D01*
X104620569Y-104621150D01*
X104620568Y-104621145D01*
X104560988Y-104450875D01*
X104518824Y-104383773D01*
X104499823Y-104316536D01*
X104518824Y-104251827D01*
X104560988Y-104184724D01*
X104560989Y-104184722D01*
X104620568Y-104014455D01*
X104640765Y-103835200D01*
X104633025Y-103766509D01*
X104620569Y-103655950D01*
X104620568Y-103655945D01*
X104611382Y-103629692D01*
X104560989Y-103485678D01*
X104465016Y-103332938D01*
X104337462Y-103205384D01*
X104184723Y-103109411D01*
X104014454Y-103049831D01*
X104014449Y-103049830D01*
X103835204Y-103029635D01*
X103835196Y-103029635D01*
X103655950Y-103049830D01*
X103655945Y-103049831D01*
X103485676Y-103109411D01*
X103332937Y-103205384D01*
X103205384Y-103332937D01*
X103109411Y-103485676D01*
X103049831Y-103655945D01*
X103049830Y-103655950D01*
X103029635Y-103835196D01*
X82042000Y-103835196D01*
X82042000Y-100239896D01*
X92836035Y-100239896D01*
X92836035Y-100239903D01*
X92856230Y-100419149D01*
X92856231Y-100419154D01*
X92915811Y-100589423D01*
X93011784Y-100742162D01*
X93036294Y-100766672D01*
X93069779Y-100827995D01*
X93064795Y-100897687D01*
X93053607Y-100920325D01*
X92966611Y-101058776D01*
X92907031Y-101229045D01*
X92907030Y-101229050D01*
X92886835Y-101408296D01*
X92886835Y-101408303D01*
X92907030Y-101587549D01*
X92907031Y-101587554D01*
X92966611Y-101757823D01*
X93038130Y-101871644D01*
X93062584Y-101910562D01*
X93190138Y-102038116D01*
X93342878Y-102134089D01*
X93513145Y-102193668D01*
X93513150Y-102193669D01*
X93692396Y-102213865D01*
X93692400Y-102213865D01*
X93692404Y-102213865D01*
X93871649Y-102193669D01*
X93871652Y-102193668D01*
X93871655Y-102193668D01*
X94041922Y-102134089D01*
X94194662Y-102038116D01*
X94322216Y-101910562D01*
X94418189Y-101757822D01*
X94477768Y-101587555D01*
X94477769Y-101587549D01*
X94497965Y-101408303D01*
X94497965Y-101408296D01*
X94477769Y-101229050D01*
X94477768Y-101229045D01*
X94418188Y-101058776D01*
X94331193Y-100920325D01*
X94322216Y-100906038D01*
X94297705Y-100881527D01*
X94264220Y-100820204D01*
X94269204Y-100750512D01*
X94280387Y-100727883D01*
X94329264Y-100650096D01*
X98318635Y-100650096D01*
X98318635Y-100650103D01*
X98338830Y-100829349D01*
X98338831Y-100829354D01*
X98398411Y-100999623D01*
X98452638Y-101085924D01*
X98494384Y-101152362D01*
X98621938Y-101279916D01*
X98648276Y-101296465D01*
X98751257Y-101361173D01*
X98774678Y-101375889D01*
X98867312Y-101408303D01*
X98944945Y-101435468D01*
X98944950Y-101435469D01*
X99124196Y-101455665D01*
X99124200Y-101455665D01*
X99124204Y-101455665D01*
X99303449Y-101435469D01*
X99303452Y-101435468D01*
X99303455Y-101435468D01*
X99473722Y-101375889D01*
X99626462Y-101279916D01*
X99754016Y-101152362D01*
X99849989Y-100999622D01*
X99909568Y-100829355D01*
X99909569Y-100829349D01*
X99920042Y-100736396D01*
X123502035Y-100736396D01*
X123502035Y-100736403D01*
X123522230Y-100915649D01*
X123522231Y-100915654D01*
X123581811Y-101085923D01*
X123671856Y-101229228D01*
X123690856Y-101296465D01*
X123671856Y-101361172D01*
X123581811Y-101504476D01*
X123522231Y-101674745D01*
X123522230Y-101674750D01*
X123502035Y-101853996D01*
X123502035Y-101854003D01*
X123522230Y-102033249D01*
X123522231Y-102033254D01*
X123581811Y-102203523D01*
X123639936Y-102296028D01*
X123658936Y-102363265D01*
X123639936Y-102427972D01*
X123581811Y-102520476D01*
X123522231Y-102690745D01*
X123522230Y-102690750D01*
X123502035Y-102869996D01*
X123502035Y-102870003D01*
X123522230Y-103049249D01*
X123522231Y-103049254D01*
X123581811Y-103219523D01*
X123637230Y-103307721D01*
X123677784Y-103372262D01*
X123805338Y-103499816D01*
X123958078Y-103595789D01*
X124097418Y-103644546D01*
X124128345Y-103655368D01*
X124128350Y-103655369D01*
X124307596Y-103675565D01*
X124307600Y-103675565D01*
X124307604Y-103675565D01*
X124486849Y-103655369D01*
X124486852Y-103655368D01*
X124486855Y-103655368D01*
X124657122Y-103595789D01*
X124809862Y-103499816D01*
X124937416Y-103372262D01*
X125033389Y-103219522D01*
X125092968Y-103049255D01*
X125113165Y-102870000D01*
X125092968Y-102690745D01*
X125033389Y-102520478D01*
X125033388Y-102520476D01*
X125033388Y-102520475D01*
X124975264Y-102427973D01*
X124956263Y-102360736D01*
X124975264Y-102296027D01*
X125033388Y-102203524D01*
X125033389Y-102203522D01*
X125092968Y-102033255D01*
X125101459Y-101957896D01*
X125113165Y-101854003D01*
X125113165Y-101853996D01*
X125092969Y-101674750D01*
X125092968Y-101674745D01*
X125033388Y-101504475D01*
X124943344Y-101361173D01*
X124924343Y-101293936D01*
X124943344Y-101229227D01*
X124943456Y-101229050D01*
X125033389Y-101085922D01*
X125092968Y-100915655D01*
X125094052Y-100906037D01*
X125113165Y-100736403D01*
X125113165Y-100736396D01*
X125092969Y-100557150D01*
X125092968Y-100557145D01*
X125033388Y-100386876D01*
X124941038Y-100239903D01*
X124937416Y-100234138D01*
X124809862Y-100106584D01*
X124736751Y-100060645D01*
X124657123Y-100010611D01*
X124486854Y-99951031D01*
X124486849Y-99951030D01*
X124307604Y-99930835D01*
X124307596Y-99930835D01*
X124128350Y-99951030D01*
X124128345Y-99951031D01*
X123958076Y-100010611D01*
X123805337Y-100106584D01*
X123677784Y-100234137D01*
X123581811Y-100386876D01*
X123522231Y-100557145D01*
X123522230Y-100557150D01*
X123502035Y-100736396D01*
X99920042Y-100736396D01*
X99929765Y-100650103D01*
X99929765Y-100650096D01*
X99909569Y-100470850D01*
X99909568Y-100470845D01*
X99891481Y-100419155D01*
X99849989Y-100300578D01*
X99754016Y-100147838D01*
X99626462Y-100020284D01*
X99611068Y-100010611D01*
X99473723Y-99924311D01*
X99303454Y-99864731D01*
X99303449Y-99864730D01*
X99124204Y-99844535D01*
X99124196Y-99844535D01*
X98944950Y-99864730D01*
X98944945Y-99864731D01*
X98774676Y-99924311D01*
X98621937Y-100020284D01*
X98494384Y-100147837D01*
X98398411Y-100300576D01*
X98338831Y-100470845D01*
X98338830Y-100470850D01*
X98318635Y-100650096D01*
X94329264Y-100650096D01*
X94367389Y-100589422D01*
X94426968Y-100419155D01*
X94430605Y-100386876D01*
X94447165Y-100239903D01*
X94447165Y-100239896D01*
X94426969Y-100060650D01*
X94426968Y-100060645D01*
X94388612Y-99951030D01*
X94367389Y-99890378D01*
X94271416Y-99737638D01*
X94143862Y-99610084D01*
X93991123Y-99514111D01*
X93820854Y-99454531D01*
X93820849Y-99454530D01*
X93641604Y-99434335D01*
X93641596Y-99434335D01*
X93462350Y-99454530D01*
X93462345Y-99454531D01*
X93292076Y-99514111D01*
X93139337Y-99610084D01*
X93011784Y-99737637D01*
X92915811Y-99890376D01*
X92856231Y-100060645D01*
X92856230Y-100060650D01*
X92836035Y-100239896D01*
X82042000Y-100239896D01*
X82042000Y-99434235D01*
X127003200Y-99434235D01*
X127003200Y-101561970D01*
X127003201Y-101561976D01*
X127009608Y-101621583D01*
X127059902Y-101756428D01*
X127059906Y-101756435D01*
X127146152Y-101871644D01*
X127146155Y-101871647D01*
X127261364Y-101957893D01*
X127261371Y-101957897D01*
X127396217Y-102008191D01*
X127396216Y-102008191D01*
X127403144Y-102008935D01*
X127455827Y-102014600D01*
X129583572Y-102014599D01*
X129643183Y-102008191D01*
X129778031Y-101957896D01*
X129893246Y-101871646D01*
X129979496Y-101756431D01*
X130029791Y-101621583D01*
X130036200Y-101561973D01*
X130036199Y-99434228D01*
X130029791Y-99374617D01*
X129979496Y-99239769D01*
X129979495Y-99239768D01*
X129979493Y-99239764D01*
X129893247Y-99124555D01*
X129893244Y-99124552D01*
X129778035Y-99038306D01*
X129778028Y-99038302D01*
X129643182Y-98988008D01*
X129643183Y-98988008D01*
X129583583Y-98981601D01*
X129583581Y-98981600D01*
X129583573Y-98981600D01*
X129583564Y-98981600D01*
X127455829Y-98981600D01*
X127455823Y-98981601D01*
X127396216Y-98988008D01*
X127261371Y-99038302D01*
X127261364Y-99038306D01*
X127146155Y-99124552D01*
X127146152Y-99124555D01*
X127059906Y-99239764D01*
X127059902Y-99239771D01*
X127009608Y-99374617D01*
X127003201Y-99434216D01*
X127003201Y-99434223D01*
X127003200Y-99434235D01*
X82042000Y-99434235D01*
X82042000Y-97739196D01*
X102674035Y-97739196D01*
X102674035Y-97739203D01*
X102694230Y-97918449D01*
X102694231Y-97918454D01*
X102753811Y-98088723D01*
X102849784Y-98241462D01*
X102977338Y-98369016D01*
X102999845Y-98383158D01*
X103126417Y-98462689D01*
X103130078Y-98464989D01*
X103130087Y-98464992D01*
X103300345Y-98524568D01*
X103300350Y-98524569D01*
X103479596Y-98544765D01*
X103479600Y-98544765D01*
X103479604Y-98544765D01*
X103658849Y-98524569D01*
X103658851Y-98524568D01*
X103658855Y-98524568D01*
X103658858Y-98524566D01*
X103658862Y-98524566D01*
X103717785Y-98503947D01*
X103829122Y-98464989D01*
X103829137Y-98464979D01*
X103831264Y-98463956D01*
X103832794Y-98463703D01*
X103835695Y-98462689D01*
X103835872Y-98463196D01*
X103900204Y-98452600D01*
X103964341Y-98480318D01*
X104002115Y-98534719D01*
X104023810Y-98596721D01*
X104119784Y-98749462D01*
X104247338Y-98877016D01*
X104400078Y-98972989D01*
X104424690Y-98981601D01*
X104570345Y-99032568D01*
X104570350Y-99032569D01*
X104749596Y-99052765D01*
X104749600Y-99052765D01*
X104749604Y-99052765D01*
X104928849Y-99032569D01*
X104928852Y-99032568D01*
X104928855Y-99032568D01*
X105099122Y-98972989D01*
X105251862Y-98877016D01*
X105379416Y-98749462D01*
X105475389Y-98596722D01*
X105534968Y-98426455D01*
X105534969Y-98426449D01*
X105555165Y-98247203D01*
X105555165Y-98247196D01*
X105534969Y-98067950D01*
X105534968Y-98067945D01*
X105475388Y-97897676D01*
X105436182Y-97835280D01*
X105379416Y-97744938D01*
X105251862Y-97617384D01*
X105170903Y-97566514D01*
X105099123Y-97521411D01*
X104928854Y-97461831D01*
X104928849Y-97461830D01*
X104749604Y-97441635D01*
X104749596Y-97441635D01*
X104570350Y-97461830D01*
X104570337Y-97461833D01*
X104400076Y-97521410D01*
X104397914Y-97522452D01*
X104396379Y-97522704D01*
X104393506Y-97523710D01*
X104393329Y-97523206D01*
X104328971Y-97533795D01*
X104264840Y-97506065D01*
X104227084Y-97451679D01*
X104223569Y-97441635D01*
X104205389Y-97389678D01*
X104109416Y-97236938D01*
X103981862Y-97109384D01*
X103973155Y-97103913D01*
X103829123Y-97013411D01*
X103658854Y-96953831D01*
X103658849Y-96953830D01*
X103479604Y-96933635D01*
X103479596Y-96933635D01*
X103300350Y-96953830D01*
X103300345Y-96953831D01*
X103130076Y-97013411D01*
X102977337Y-97109384D01*
X102849784Y-97236937D01*
X102753811Y-97389676D01*
X102694231Y-97559945D01*
X102694230Y-97559950D01*
X102674035Y-97739196D01*
X82042000Y-97739196D01*
X82042000Y-96367597D01*
X123603151Y-96367597D01*
X123603151Y-96367602D01*
X123622085Y-96535656D01*
X123677945Y-96695294D01*
X123677947Y-96695297D01*
X123767918Y-96838484D01*
X123767923Y-96838490D01*
X123887509Y-96958076D01*
X123887515Y-96958081D01*
X124030702Y-97048052D01*
X124030705Y-97048054D01*
X124030709Y-97048055D01*
X124030710Y-97048056D01*
X124103313Y-97073460D01*
X124190343Y-97103914D01*
X124358397Y-97122849D01*
X124358400Y-97122849D01*
X124358403Y-97122849D01*
X124526456Y-97103914D01*
X124526459Y-97103913D01*
X124686090Y-97048056D01*
X124686092Y-97048054D01*
X124686094Y-97048054D01*
X124686097Y-97048052D01*
X124829284Y-96958081D01*
X124829285Y-96958080D01*
X124829290Y-96958077D01*
X124948877Y-96838490D01*
X124976141Y-96795100D01*
X125038852Y-96695297D01*
X125038854Y-96695294D01*
X125038854Y-96695292D01*
X125038856Y-96695290D01*
X125094713Y-96535659D01*
X125094713Y-96535658D01*
X125094714Y-96535656D01*
X125113649Y-96367602D01*
X125113649Y-96367597D01*
X125094714Y-96199543D01*
X125038854Y-96039905D01*
X125038852Y-96039902D01*
X124948881Y-95896715D01*
X124948876Y-95896709D01*
X124829290Y-95777123D01*
X124829284Y-95777118D01*
X124686097Y-95687147D01*
X124686094Y-95687145D01*
X124526456Y-95631285D01*
X124358403Y-95612351D01*
X124358397Y-95612351D01*
X124190343Y-95631285D01*
X124030705Y-95687145D01*
X124030702Y-95687147D01*
X123887515Y-95777118D01*
X123887509Y-95777123D01*
X123767923Y-95896709D01*
X123767918Y-95896715D01*
X123677947Y-96039902D01*
X123677945Y-96039905D01*
X123622085Y-96199543D01*
X123603151Y-96367597D01*
X82042000Y-96367597D01*
X82042000Y-92670696D01*
X101421235Y-92670696D01*
X101421235Y-92670703D01*
X101441430Y-92849949D01*
X101441431Y-92849954D01*
X101501011Y-93020223D01*
X101539209Y-93081014D01*
X101596984Y-93172962D01*
X101724538Y-93300516D01*
X101877278Y-93396489D01*
X101995387Y-93437817D01*
X102047545Y-93456068D01*
X102047550Y-93456069D01*
X102226796Y-93476265D01*
X102226800Y-93476265D01*
X102226804Y-93476265D01*
X102406049Y-93456069D01*
X102406052Y-93456068D01*
X102406055Y-93456068D01*
X102576322Y-93396489D01*
X102729062Y-93300516D01*
X102856616Y-93172962D01*
X102952589Y-93020222D01*
X103012168Y-92849955D01*
X103029616Y-92695104D01*
X103032365Y-92670702D01*
X103032365Y-92670700D01*
X103027941Y-92631442D01*
X103039995Y-92562620D01*
X103087343Y-92511239D01*
X103137279Y-92494336D01*
X103168049Y-92490869D01*
X103168052Y-92490868D01*
X103168055Y-92490868D01*
X103338322Y-92431289D01*
X103491062Y-92335316D01*
X103618616Y-92207762D01*
X103714589Y-92055022D01*
X103774168Y-91884755D01*
X103775401Y-91873815D01*
X103794365Y-91705503D01*
X103794365Y-91705496D01*
X103774169Y-91526250D01*
X103774168Y-91526245D01*
X103714866Y-91356771D01*
X103714589Y-91355978D01*
X103618616Y-91203238D01*
X103491062Y-91075684D01*
X103440233Y-91043746D01*
X103343233Y-90982796D01*
X123502035Y-90982796D01*
X123502035Y-90982803D01*
X123522230Y-91162049D01*
X123522231Y-91162054D01*
X123581811Y-91332323D01*
X123677784Y-91485062D01*
X123810262Y-91617540D01*
X123809266Y-91618535D01*
X123844965Y-91669386D01*
X123847821Y-91739197D01*
X123815197Y-91796836D01*
X123738218Y-91873815D01*
X123648247Y-92017002D01*
X123648245Y-92017005D01*
X123592385Y-92176643D01*
X123573451Y-92344697D01*
X123573451Y-92344702D01*
X123592385Y-92512756D01*
X123648245Y-92672394D01*
X123648247Y-92672397D01*
X123738218Y-92815584D01*
X123738223Y-92815590D01*
X123857809Y-92935176D01*
X123857815Y-92935181D01*
X124001002Y-93025152D01*
X124001005Y-93025154D01*
X124001009Y-93025155D01*
X124001010Y-93025156D01*
X124073613Y-93050560D01*
X124160643Y-93081014D01*
X124328697Y-93099949D01*
X124328700Y-93099949D01*
X124328703Y-93099949D01*
X124496756Y-93081014D01*
X124496759Y-93081013D01*
X124656390Y-93025156D01*
X124656392Y-93025154D01*
X124656394Y-93025154D01*
X124656397Y-93025152D01*
X124799584Y-92935181D01*
X124799585Y-92935180D01*
X124799590Y-92935177D01*
X124919177Y-92815590D01*
X124994884Y-92695104D01*
X124994890Y-92695095D01*
X126807913Y-92695095D01*
X126807913Y-92695104D01*
X126827030Y-92950219D01*
X126827031Y-92950224D01*
X126883959Y-93199644D01*
X126883961Y-93199653D01*
X126883963Y-93199658D01*
X126977433Y-93437817D01*
X127105355Y-93659384D01*
X127234195Y-93820944D01*
X127264874Y-93859415D01*
X127374969Y-93961567D01*
X127452418Y-94033429D01*
X127663807Y-94177551D01*
X127894314Y-94288558D01*
X128018522Y-94326871D01*
X128076780Y-94365440D01*
X128104938Y-94429384D01*
X128094056Y-94498401D01*
X128047587Y-94550578D01*
X128018523Y-94563852D01*
X127894493Y-94602111D01*
X127664061Y-94713082D01*
X127664057Y-94713084D01*
X127501836Y-94823684D01*
X128308641Y-95630487D01*
X128288109Y-95635989D01*
X128151292Y-95714981D01*
X128039581Y-95826692D01*
X127960589Y-95963509D01*
X127955087Y-95984040D01*
X127148528Y-95177481D01*
X127148527Y-95177481D01*
X127105769Y-95231099D01*
X126977885Y-95452600D01*
X126884442Y-95690687D01*
X126827528Y-95940050D01*
X126827527Y-95940055D01*
X126808415Y-96195095D01*
X126808415Y-96195104D01*
X126827527Y-96450144D01*
X126827528Y-96450149D01*
X126884442Y-96699512D01*
X126977885Y-96937599D01*
X126977884Y-96937599D01*
X127105772Y-97159104D01*
X127148527Y-97212718D01*
X127955087Y-96406158D01*
X127960589Y-96426691D01*
X128039581Y-96563508D01*
X128151292Y-96675219D01*
X128288109Y-96754211D01*
X128308640Y-96759712D01*
X127501836Y-97566514D01*
X127664062Y-97677118D01*
X127894495Y-97788089D01*
X128138901Y-97863479D01*
X128138907Y-97863481D01*
X128391808Y-97901599D01*
X128391817Y-97901600D01*
X128647583Y-97901600D01*
X128647591Y-97901599D01*
X128900492Y-97863481D01*
X128900498Y-97863479D01*
X129144906Y-97788088D01*
X129375335Y-97677120D01*
X129375345Y-97677113D01*
X129537562Y-97566515D01*
X128730760Y-96759712D01*
X128751291Y-96754211D01*
X128888108Y-96675219D01*
X128999819Y-96563508D01*
X129078811Y-96426691D01*
X129084312Y-96406159D01*
X129890870Y-97212718D01*
X129933632Y-97159097D01*
X130061514Y-96937599D01*
X130154957Y-96699512D01*
X130211871Y-96450149D01*
X130211872Y-96450144D01*
X130230985Y-96195104D01*
X130230985Y-96195095D01*
X130211872Y-95940055D01*
X130211871Y-95940050D01*
X130154957Y-95690687D01*
X130061514Y-95452600D01*
X130061515Y-95452600D01*
X129933629Y-95231099D01*
X129890870Y-95177480D01*
X129084312Y-95984039D01*
X129078811Y-95963509D01*
X128999819Y-95826692D01*
X128888108Y-95714981D01*
X128751291Y-95635989D01*
X128730759Y-95630487D01*
X129537562Y-94823683D01*
X129375343Y-94713084D01*
X129375335Y-94713079D01*
X129144908Y-94602112D01*
X129020876Y-94563852D01*
X128962617Y-94525281D01*
X128934460Y-94461336D01*
X128945344Y-94392319D01*
X128991814Y-94340143D01*
X129020872Y-94326872D01*
X129145086Y-94288558D01*
X129375594Y-94177551D01*
X129586982Y-94033429D01*
X129774529Y-93859411D01*
X129934045Y-93659384D01*
X130061967Y-93437817D01*
X130155437Y-93199658D01*
X130212368Y-92950229D01*
X130213496Y-92935176D01*
X130231487Y-92695104D01*
X130231487Y-92695095D01*
X130212369Y-92439980D01*
X130212368Y-92439975D01*
X130212368Y-92439971D01*
X130155437Y-92190542D01*
X130061967Y-91952383D01*
X129934045Y-91730816D01*
X129774529Y-91530789D01*
X129774528Y-91530788D01*
X129774525Y-91530784D01*
X129586982Y-91356771D01*
X129551122Y-91332322D01*
X129375594Y-91212649D01*
X129375590Y-91212647D01*
X129375587Y-91212645D01*
X129375586Y-91212644D01*
X129220208Y-91137819D01*
X129168348Y-91090997D01*
X129150035Y-91023570D01*
X129171083Y-90956946D01*
X129224809Y-90912277D01*
X129274008Y-90902099D01*
X129774072Y-90902099D01*
X129833683Y-90895691D01*
X129968531Y-90845396D01*
X130083746Y-90759146D01*
X130169996Y-90643931D01*
X130220291Y-90509083D01*
X130226700Y-90449473D01*
X130226699Y-87940728D01*
X130220291Y-87881117D01*
X130213826Y-87863784D01*
X130169997Y-87746271D01*
X130169993Y-87746264D01*
X130083748Y-87631056D01*
X130083746Y-87631055D01*
X130083746Y-87631054D01*
X130075036Y-87624534D01*
X130033167Y-87568602D01*
X130028183Y-87498911D01*
X130061668Y-87437588D01*
X130106012Y-87409089D01*
X130333161Y-87324367D01*
X130584315Y-87187226D01*
X130813395Y-87015739D01*
X131015739Y-86813395D01*
X131187226Y-86584315D01*
X131324367Y-86333161D01*
X131424369Y-86065046D01*
X131485196Y-85785428D01*
X131505610Y-85500000D01*
X131485196Y-85214572D01*
X131424369Y-84934954D01*
X131324367Y-84666839D01*
X131244025Y-84519705D01*
X131187229Y-84415690D01*
X131187224Y-84415682D01*
X131015745Y-84186612D01*
X131015729Y-84186594D01*
X130813405Y-83984270D01*
X130813387Y-83984254D01*
X130584317Y-83812775D01*
X130584309Y-83812770D01*
X130333166Y-83675635D01*
X130333167Y-83675635D01*
X130225915Y-83635632D01*
X130065046Y-83575631D01*
X130065043Y-83575630D01*
X130065037Y-83575628D01*
X129785433Y-83514804D01*
X129500001Y-83494390D01*
X129499999Y-83494390D01*
X129214566Y-83514804D01*
X128934962Y-83575628D01*
X128666833Y-83675635D01*
X128415690Y-83812770D01*
X128415682Y-83812775D01*
X128186612Y-83984254D01*
X128186594Y-83984270D01*
X127984270Y-84186594D01*
X127984254Y-84186612D01*
X127812775Y-84415682D01*
X127812770Y-84415690D01*
X127675635Y-84666833D01*
X127575628Y-84934962D01*
X127514804Y-85214566D01*
X127494390Y-85499998D01*
X127494390Y-85500001D01*
X127514804Y-85785433D01*
X127575628Y-86065037D01*
X127675635Y-86333166D01*
X127812770Y-86584309D01*
X127812775Y-86584317D01*
X127984254Y-86813387D01*
X127984270Y-86813405D01*
X128186594Y-87015729D01*
X128186612Y-87015745D01*
X128415682Y-87187224D01*
X128415690Y-87187229D01*
X128540293Y-87255268D01*
X128589698Y-87304673D01*
X128604550Y-87372946D01*
X128580133Y-87438411D01*
X128524199Y-87480282D01*
X128480866Y-87488100D01*
X127265329Y-87488100D01*
X127265323Y-87488101D01*
X127205716Y-87494508D01*
X127070871Y-87544802D01*
X127070864Y-87544806D01*
X126955655Y-87631052D01*
X126955652Y-87631055D01*
X126869406Y-87746264D01*
X126869402Y-87746271D01*
X126819108Y-87881117D01*
X126812701Y-87940716D01*
X126812701Y-87940723D01*
X126812700Y-87940735D01*
X126812700Y-90449470D01*
X126812701Y-90449476D01*
X126819108Y-90509083D01*
X126869402Y-90643928D01*
X126869406Y-90643935D01*
X126955652Y-90759144D01*
X126955655Y-90759147D01*
X127070864Y-90845393D01*
X127070871Y-90845397D01*
X127205717Y-90895691D01*
X127205716Y-90895691D01*
X127212644Y-90896435D01*
X127265327Y-90902100D01*
X127765391Y-90902099D01*
X127832428Y-90921783D01*
X127878183Y-90974587D01*
X127888127Y-91043746D01*
X127859102Y-91107302D01*
X127819191Y-91137819D01*
X127663810Y-91212647D01*
X127663806Y-91212649D01*
X127452420Y-91356769D01*
X127264874Y-91530784D01*
X127105355Y-91730816D01*
X126977433Y-91952382D01*
X126883965Y-92190536D01*
X126883959Y-92190555D01*
X126827031Y-92439975D01*
X126827030Y-92439980D01*
X126807913Y-92695095D01*
X124994890Y-92695095D01*
X125009152Y-92672397D01*
X125009154Y-92672394D01*
X125009154Y-92672392D01*
X125009156Y-92672390D01*
X125065013Y-92512759D01*
X125065013Y-92512758D01*
X125065014Y-92512756D01*
X125083949Y-92344702D01*
X125083949Y-92344697D01*
X125065014Y-92176643D01*
X125009154Y-92017005D01*
X125009152Y-92017002D01*
X124919181Y-91873815D01*
X124919176Y-91873809D01*
X124821603Y-91776236D01*
X124788118Y-91714913D01*
X124793102Y-91645221D01*
X124821599Y-91600878D01*
X124937416Y-91485062D01*
X125033389Y-91332322D01*
X125092968Y-91162055D01*
X125099775Y-91101642D01*
X125113165Y-90982803D01*
X125113165Y-90982796D01*
X125092969Y-90803550D01*
X125092968Y-90803545D01*
X125037118Y-90643935D01*
X125033389Y-90633278D01*
X124937416Y-90480538D01*
X124809862Y-90352984D01*
X124808851Y-90352349D01*
X124657123Y-90257011D01*
X124486854Y-90197431D01*
X124486849Y-90197430D01*
X124307604Y-90177235D01*
X124307596Y-90177235D01*
X124128350Y-90197430D01*
X124128345Y-90197431D01*
X123958076Y-90257011D01*
X123805337Y-90352984D01*
X123677784Y-90480537D01*
X123581811Y-90633276D01*
X123522231Y-90803545D01*
X123522230Y-90803550D01*
X123502035Y-90982796D01*
X103343233Y-90982796D01*
X103338323Y-90979711D01*
X103168054Y-90920131D01*
X103168049Y-90920130D01*
X102988804Y-90899935D01*
X102988796Y-90899935D01*
X102809550Y-90920130D01*
X102809545Y-90920131D01*
X102639276Y-90979711D01*
X102486537Y-91075684D01*
X102358984Y-91203237D01*
X102263011Y-91355976D01*
X102203431Y-91526245D01*
X102203430Y-91526250D01*
X102183235Y-91705496D01*
X102183235Y-91705503D01*
X102187658Y-91744760D01*
X102175603Y-91813582D01*
X102128254Y-91864961D01*
X102078323Y-91881863D01*
X102047550Y-91885330D01*
X101877278Y-91944910D01*
X101724537Y-92040884D01*
X101596984Y-92168437D01*
X101501011Y-92321176D01*
X101441431Y-92491445D01*
X101441430Y-92491450D01*
X101421235Y-92670696D01*
X82042000Y-92670696D01*
X82042000Y-90173096D01*
X89923135Y-90173096D01*
X89923135Y-90173103D01*
X89943330Y-90352349D01*
X89943331Y-90352354D01*
X90002911Y-90522623D01*
X90079137Y-90643935D01*
X90098884Y-90675362D01*
X90226438Y-90802916D01*
X90379178Y-90898889D01*
X90545095Y-90956946D01*
X90549445Y-90958468D01*
X90549450Y-90958469D01*
X90728696Y-90978665D01*
X90728700Y-90978665D01*
X90728704Y-90978665D01*
X90907949Y-90958469D01*
X90907952Y-90958468D01*
X90907955Y-90958468D01*
X91078222Y-90898889D01*
X91230962Y-90802916D01*
X91358516Y-90675362D01*
X91454489Y-90522622D01*
X91514068Y-90352355D01*
X91524811Y-90257011D01*
X91534265Y-90173103D01*
X91534265Y-90173096D01*
X91514069Y-89993850D01*
X91514068Y-89993845D01*
X91454488Y-89823576D01*
X91358515Y-89670837D01*
X91230962Y-89543284D01*
X91078223Y-89447311D01*
X90907954Y-89387731D01*
X90907949Y-89387730D01*
X90728704Y-89367535D01*
X90728696Y-89367535D01*
X90549450Y-89387730D01*
X90549445Y-89387731D01*
X90379176Y-89447311D01*
X90226437Y-89543284D01*
X90098884Y-89670837D01*
X90002911Y-89823576D01*
X89943331Y-89993845D01*
X89943330Y-89993850D01*
X89923135Y-90173096D01*
X82042000Y-90173096D01*
X82042000Y-88493596D01*
X97102135Y-88493596D01*
X97102135Y-88493603D01*
X97122330Y-88672849D01*
X97122331Y-88672854D01*
X97181911Y-88843123D01*
X97277884Y-88995862D01*
X97405438Y-89123416D01*
X97558178Y-89219389D01*
X97728445Y-89278968D01*
X97728450Y-89278969D01*
X97907696Y-89299165D01*
X97907700Y-89299165D01*
X97907704Y-89299165D01*
X98086949Y-89278969D01*
X98086952Y-89278968D01*
X98086955Y-89278968D01*
X98257222Y-89219389D01*
X98409962Y-89123416D01*
X98537516Y-88995862D01*
X98633489Y-88843122D01*
X98693068Y-88672855D01*
X98713265Y-88493600D01*
X98693068Y-88314345D01*
X98633489Y-88144078D01*
X98537516Y-87991338D01*
X98409962Y-87863784D01*
X98257223Y-87767811D01*
X98086954Y-87708231D01*
X98086949Y-87708230D01*
X97907704Y-87688035D01*
X97907696Y-87688035D01*
X97728450Y-87708230D01*
X97728445Y-87708231D01*
X97558176Y-87767811D01*
X97405437Y-87863784D01*
X97277884Y-87991337D01*
X97181911Y-88144076D01*
X97122331Y-88314345D01*
X97122330Y-88314350D01*
X97102135Y-88493596D01*
X82042000Y-88493596D01*
X82042000Y-85499998D01*
X83494390Y-85499998D01*
X83494390Y-85500001D01*
X83514804Y-85785433D01*
X83575628Y-86065037D01*
X83675635Y-86333166D01*
X83812770Y-86584309D01*
X83812775Y-86584317D01*
X83984254Y-86813387D01*
X83984270Y-86813405D01*
X84186594Y-87015729D01*
X84186612Y-87015745D01*
X84415682Y-87187224D01*
X84415690Y-87187229D01*
X84666833Y-87324364D01*
X84666832Y-87324364D01*
X84666836Y-87324365D01*
X84666839Y-87324367D01*
X84934954Y-87424369D01*
X84934960Y-87424370D01*
X84934962Y-87424371D01*
X85214566Y-87485195D01*
X85214568Y-87485195D01*
X85214572Y-87485196D01*
X85468220Y-87503337D01*
X85499999Y-87505610D01*
X85500000Y-87505610D01*
X85500001Y-87505610D01*
X85528595Y-87503564D01*
X85785428Y-87485196D01*
X85808018Y-87480282D01*
X86065037Y-87424371D01*
X86065037Y-87424370D01*
X86065046Y-87424369D01*
X86333161Y-87324367D01*
X86584315Y-87187226D01*
X86813395Y-87015739D01*
X87015739Y-86813395D01*
X87187226Y-86584315D01*
X87324367Y-86333161D01*
X87424369Y-86065046D01*
X87485196Y-85785428D01*
X87505610Y-85500000D01*
X87485196Y-85214572D01*
X87424369Y-84934954D01*
X87324367Y-84666839D01*
X87244025Y-84519705D01*
X87187229Y-84415690D01*
X87187224Y-84415682D01*
X87015745Y-84186612D01*
X87015729Y-84186594D01*
X86813405Y-83984270D01*
X86813387Y-83984254D01*
X86584317Y-83812775D01*
X86584309Y-83812770D01*
X86333166Y-83675635D01*
X86333167Y-83675635D01*
X86225915Y-83635632D01*
X86065046Y-83575631D01*
X86065043Y-83575630D01*
X86065037Y-83575628D01*
X85785433Y-83514804D01*
X85500001Y-83494390D01*
X85499999Y-83494390D01*
X85214566Y-83514804D01*
X84934962Y-83575628D01*
X84666833Y-83675635D01*
X84415690Y-83812770D01*
X84415682Y-83812775D01*
X84186612Y-83984254D01*
X84186594Y-83984270D01*
X83984270Y-84186594D01*
X83984254Y-84186612D01*
X83812775Y-84415682D01*
X83812770Y-84415690D01*
X83675635Y-84666833D01*
X83575628Y-84934962D01*
X83514804Y-85214566D01*
X83494390Y-85499998D01*
X82042000Y-85499998D01*
X82042000Y-82166000D01*
X82061685Y-82098961D01*
X82114489Y-82053206D01*
X82166000Y-82042000D01*
X132819600Y-82042000D01*
X132886639Y-82061685D01*
G37*
G04 #@! TD.AperFunction*
M02*
