G04 #@! TF.GenerationSoftware,KiCad,Pcbnew,8.0.7*
G04 #@! TF.CreationDate,2025-07-06T21:45:57+02:00*
G04 #@! TF.ProjectId,modbus-to-x,6d6f6462-7573-42d7-946f-2d782e6b6963,rev?*
G04 #@! TF.SameCoordinates,Original*
G04 #@! TF.FileFunction,Copper,L1,Top*
G04 #@! TF.FilePolarity,Positive*
%FSLAX46Y46*%
G04 Gerber Fmt 4.6, Leading zero omitted, Abs format (unit mm)*
G04 Created by KiCad (PCBNEW 8.0.7) date 2025-07-06 21:45:57*
%MOMM*%
%LPD*%
G01*
G04 APERTURE LIST*
G04 Aperture macros list*
%AMRoundRect*
0 Rectangle with rounded corners*
0 $1 Rounding radius*
0 $2 $3 $4 $5 $6 $7 $8 $9 X,Y pos of 4 corners*
0 Add a 4 corners polygon primitive as box body*
4,1,4,$2,$3,$4,$5,$6,$7,$8,$9,$2,$3,0*
0 Add four circle primitives for the rounded corners*
1,1,$1+$1,$2,$3*
1,1,$1+$1,$4,$5*
1,1,$1+$1,$6,$7*
1,1,$1+$1,$8,$9*
0 Add four rect primitives between the rounded corners*
20,1,$1+$1,$2,$3,$4,$5,0*
20,1,$1+$1,$4,$5,$6,$7,0*
20,1,$1+$1,$6,$7,$8,$9,0*
20,1,$1+$1,$8,$9,$2,$3,0*%
%AMOutline4P*
0 Free polygon, 4 corners , with rotation*
0 The origin of the aperture is its center*
0 number of corners: always 4*
0 $1 to $8 corner X, Y*
0 $9 Rotation angle, in degrees counterclockwise*
0 create outline with 4 corners*
4,1,4,$1,$2,$3,$4,$5,$6,$7,$8,$1,$2,$9*%
G04 Aperture macros list end*
G04 #@! TA.AperFunction,SMDPad,CuDef*
%ADD10RoundRect,0.155000X-0.212500X-0.155000X0.212500X-0.155000X0.212500X0.155000X-0.212500X0.155000X0*%
G04 #@! TD*
G04 #@! TA.AperFunction,SMDPad,CuDef*
%ADD11RoundRect,0.250000X-0.475000X0.337500X-0.475000X-0.337500X0.475000X-0.337500X0.475000X0.337500X0*%
G04 #@! TD*
G04 #@! TA.AperFunction,SMDPad,CuDef*
%ADD12RoundRect,0.237500X0.237500X-0.250000X0.237500X0.250000X-0.237500X0.250000X-0.237500X-0.250000X0*%
G04 #@! TD*
G04 #@! TA.AperFunction,SMDPad,CuDef*
%ADD13RoundRect,0.100000X-0.100000X0.637500X-0.100000X-0.637500X0.100000X-0.637500X0.100000X0.637500X0*%
G04 #@! TD*
G04 #@! TA.AperFunction,SMDPad,CuDef*
%ADD14RoundRect,0.250000X-0.450000X0.350000X-0.450000X-0.350000X0.450000X-0.350000X0.450000X0.350000X0*%
G04 #@! TD*
G04 #@! TA.AperFunction,SMDPad,CuDef*
%ADD15RoundRect,0.250000X0.337500X0.475000X-0.337500X0.475000X-0.337500X-0.475000X0.337500X-0.475000X0*%
G04 #@! TD*
G04 #@! TA.AperFunction,SMDPad,CuDef*
%ADD16RoundRect,0.237500X-0.250000X-0.237500X0.250000X-0.237500X0.250000X0.237500X-0.250000X0.237500X0*%
G04 #@! TD*
G04 #@! TA.AperFunction,SMDPad,CuDef*
%ADD17RoundRect,0.250000X-1.050000X-0.550000X1.050000X-0.550000X1.050000X0.550000X-1.050000X0.550000X0*%
G04 #@! TD*
G04 #@! TA.AperFunction,SMDPad,CuDef*
%ADD18RoundRect,0.250000X-1.500000X-0.550000X1.500000X-0.550000X1.500000X0.550000X-1.500000X0.550000X0*%
G04 #@! TD*
G04 #@! TA.AperFunction,SMDPad,CuDef*
%ADD19RoundRect,0.160000X-0.222500X-0.160000X0.222500X-0.160000X0.222500X0.160000X-0.222500X0.160000X0*%
G04 #@! TD*
G04 #@! TA.AperFunction,SMDPad,CuDef*
%ADD20RoundRect,0.250000X0.475000X-0.337500X0.475000X0.337500X-0.475000X0.337500X-0.475000X-0.337500X0*%
G04 #@! TD*
G04 #@! TA.AperFunction,SMDPad,CuDef*
%ADD21RoundRect,0.160000X0.160000X-0.222500X0.160000X0.222500X-0.160000X0.222500X-0.160000X-0.222500X0*%
G04 #@! TD*
G04 #@! TA.AperFunction,SMDPad,CuDef*
%ADD22RoundRect,0.160000X0.222500X0.160000X-0.222500X0.160000X-0.222500X-0.160000X0.222500X-0.160000X0*%
G04 #@! TD*
G04 #@! TA.AperFunction,SMDPad,CuDef*
%ADD23RoundRect,0.375000X0.375000X-0.625000X0.375000X0.625000X-0.375000X0.625000X-0.375000X-0.625000X0*%
G04 #@! TD*
G04 #@! TA.AperFunction,SMDPad,CuDef*
%ADD24RoundRect,0.500000X1.400000X-0.500000X1.400000X0.500000X-1.400000X0.500000X-1.400000X-0.500000X0*%
G04 #@! TD*
G04 #@! TA.AperFunction,SMDPad,CuDef*
%ADD25R,0.838200X0.889000*%
G04 #@! TD*
G04 #@! TA.AperFunction,SMDPad,CuDef*
%ADD26R,0.889000X0.838200*%
G04 #@! TD*
G04 #@! TA.AperFunction,SMDPad,CuDef*
%ADD27R,15.798800X17.602200*%
G04 #@! TD*
G04 #@! TA.AperFunction,ComponentPad*
%ADD28C,0.600000*%
G04 #@! TD*
G04 #@! TA.AperFunction,SMDPad,CuDef*
%ADD29RoundRect,0.250000X0.350000X0.450000X-0.350000X0.450000X-0.350000X-0.450000X0.350000X-0.450000X0*%
G04 #@! TD*
G04 #@! TA.AperFunction,SMDPad,CuDef*
%ADD30RoundRect,0.160000X0.160000X-0.197500X0.160000X0.197500X-0.160000X0.197500X-0.160000X-0.197500X0*%
G04 #@! TD*
G04 #@! TA.AperFunction,SMDPad,CuDef*
%ADD31RoundRect,0.250000X-0.350000X-0.450000X0.350000X-0.450000X0.350000X0.450000X-0.350000X0.450000X0*%
G04 #@! TD*
G04 #@! TA.AperFunction,SMDPad,CuDef*
%ADD32RoundRect,0.250000X-0.650000X0.412500X-0.650000X-0.412500X0.650000X-0.412500X0.650000X0.412500X0*%
G04 #@! TD*
G04 #@! TA.AperFunction,SMDPad,CuDef*
%ADD33RoundRect,0.250000X-0.412500X-0.650000X0.412500X-0.650000X0.412500X0.650000X-0.412500X0.650000X0*%
G04 #@! TD*
G04 #@! TA.AperFunction,ComponentPad*
%ADD34R,2.032000X2.032000*%
G04 #@! TD*
G04 #@! TA.AperFunction,ComponentPad*
%ADD35C,2.032000*%
G04 #@! TD*
G04 #@! TA.AperFunction,SMDPad,CuDef*
%ADD36R,1.300000X1.550000*%
G04 #@! TD*
G04 #@! TA.AperFunction,SMDPad,CuDef*
%ADD37RoundRect,0.250000X0.412500X0.650000X-0.412500X0.650000X-0.412500X-0.650000X0.412500X-0.650000X0*%
G04 #@! TD*
G04 #@! TA.AperFunction,SMDPad,CuDef*
%ADD38Outline4P,-2.150000X-1.800000X2.150000X-0.800000X2.150000X0.800000X-2.150000X1.800000X180.000000*%
G04 #@! TD*
G04 #@! TA.AperFunction,SMDPad,CuDef*
%ADD39Outline4P,-2.150000X-1.800000X2.150000X-0.800000X2.150000X0.800000X-2.150000X1.800000X0.000000*%
G04 #@! TD*
G04 #@! TA.AperFunction,SMDPad,CuDef*
%ADD40RoundRect,0.155000X0.155000X-0.212500X0.155000X0.212500X-0.155000X0.212500X-0.155000X-0.212500X0*%
G04 #@! TD*
G04 #@! TA.AperFunction,SMDPad,CuDef*
%ADD41O,0.599999X0.299999*%
G04 #@! TD*
G04 #@! TA.AperFunction,SMDPad,CuDef*
%ADD42R,2.600000X2.999999*%
G04 #@! TD*
G04 #@! TA.AperFunction,ComponentPad*
%ADD43C,0.499999*%
G04 #@! TD*
G04 #@! TA.AperFunction,SMDPad,CuDef*
%ADD44RoundRect,0.250000X-0.650000X1.500000X-0.650000X-1.500000X0.650000X-1.500000X0.650000X1.500000X0*%
G04 #@! TD*
G04 #@! TA.AperFunction,SMDPad,CuDef*
%ADD45RoundRect,0.250000X-0.625000X0.400000X-0.625000X-0.400000X0.625000X-0.400000X0.625000X0.400000X0*%
G04 #@! TD*
G04 #@! TA.AperFunction,SMDPad,CuDef*
%ADD46RoundRect,0.150000X0.825000X0.150000X-0.825000X0.150000X-0.825000X-0.150000X0.825000X-0.150000X0*%
G04 #@! TD*
G04 #@! TA.AperFunction,SMDPad,CuDef*
%ADD47RoundRect,0.250000X0.450000X-0.350000X0.450000X0.350000X-0.450000X0.350000X-0.450000X-0.350000X0*%
G04 #@! TD*
G04 #@! TA.AperFunction,SMDPad,CuDef*
%ADD48R,1.500000X3.600000*%
G04 #@! TD*
G04 #@! TA.AperFunction,SMDPad,CuDef*
%ADD49RoundRect,0.250000X0.650000X-0.412500X0.650000X0.412500X-0.650000X0.412500X-0.650000X-0.412500X0*%
G04 #@! TD*
G04 #@! TA.AperFunction,SMDPad,CuDef*
%ADD50RoundRect,0.237500X-0.237500X0.250000X-0.237500X-0.250000X0.237500X-0.250000X0.237500X0.250000X0*%
G04 #@! TD*
G04 #@! TA.AperFunction,ComponentPad*
%ADD51R,2.413000X2.413000*%
G04 #@! TD*
G04 #@! TA.AperFunction,ComponentPad*
%ADD52C,2.413000*%
G04 #@! TD*
G04 #@! TA.AperFunction,ViaPad*
%ADD53C,0.600000*%
G04 #@! TD*
G04 #@! TA.AperFunction,ViaPad*
%ADD54C,0.500000*%
G04 #@! TD*
G04 #@! TA.AperFunction,Conductor*
%ADD55C,0.200000*%
G04 #@! TD*
G04 #@! TA.AperFunction,Conductor*
%ADD56C,0.635000*%
G04 #@! TD*
G04 #@! TA.AperFunction,Conductor*
%ADD57C,0.800000*%
G04 #@! TD*
G04 #@! TA.AperFunction,Conductor*
%ADD58C,0.500000*%
G04 #@! TD*
G04 #@! TA.AperFunction,Conductor*
%ADD59C,0.550000*%
G04 #@! TD*
G04 #@! TA.AperFunction,Conductor*
%ADD60C,0.400000*%
G04 #@! TD*
G04 APERTURE END LIST*
D10*
X89327000Y-115618800D03*
X90462000Y-115618800D03*
D11*
X85064600Y-99902100D03*
X85064600Y-101977100D03*
X96498500Y-111787300D03*
X96498500Y-113862300D03*
D12*
X91750000Y-83575000D03*
X91750000Y-81750000D03*
D13*
X116802900Y-108825500D03*
X116152900Y-108825500D03*
X115502900Y-108825500D03*
X114852900Y-108825500D03*
X114852900Y-114550500D03*
X115502900Y-114550500D03*
X116152900Y-114550500D03*
X116802900Y-114550500D03*
D14*
X123799600Y-104765600D03*
X123799600Y-106765600D03*
D11*
X98530500Y-111787300D03*
X98530500Y-113862300D03*
D15*
X83925500Y-108563800D03*
X81850500Y-108563800D03*
D16*
X80427250Y-99510150D03*
X82252250Y-99510150D03*
D17*
X118291200Y-128219200D03*
X121891200Y-128219200D03*
D18*
X101801100Y-114329600D03*
X107401100Y-114329600D03*
D13*
X112484900Y-108825500D03*
X111834900Y-108825500D03*
X111184900Y-108825500D03*
X110534900Y-108825500D03*
X110534900Y-114550500D03*
X111184900Y-114550500D03*
X111834900Y-114550500D03*
X112484900Y-114550500D03*
D19*
X90677500Y-80162500D03*
X91822500Y-80162500D03*
D12*
X101299100Y-121287300D03*
X101299100Y-119462300D03*
D20*
X90402500Y-109474300D03*
X90402500Y-107399300D03*
D21*
X99825900Y-121215000D03*
X99825900Y-120070000D03*
D22*
X88862900Y-80162400D03*
X87717900Y-80162400D03*
D23*
X90007500Y-104855800D03*
X92307500Y-104855800D03*
D24*
X92307500Y-98555800D03*
D23*
X94607500Y-104855800D03*
D25*
X101887600Y-88482100D03*
X101887600Y-89752100D03*
X101887600Y-91022100D03*
X101887600Y-92292100D03*
X101887600Y-93562100D03*
X101887600Y-94832100D03*
X101887600Y-96102100D03*
X101887600Y-97372100D03*
X101887600Y-98642100D03*
X101887600Y-99912100D03*
X101887600Y-101182100D03*
X101887600Y-102452100D03*
X101887600Y-103722100D03*
X101887600Y-104992100D03*
D26*
X104753500Y-106416700D03*
X106023500Y-106416700D03*
X107293500Y-106416700D03*
X108563500Y-106416700D03*
X109833500Y-106416700D03*
X111103500Y-106416700D03*
X112373500Y-106416700D03*
X113643500Y-106416700D03*
X114913500Y-106416700D03*
X116183500Y-106416700D03*
D25*
X119049400Y-104992100D03*
X119049400Y-103722100D03*
X119049400Y-102452100D03*
X119049400Y-101182100D03*
X119049400Y-99912100D03*
X119049400Y-98642100D03*
X119049400Y-97372100D03*
X119049400Y-96102100D03*
X119049400Y-94832100D03*
X119049400Y-93562100D03*
X119049400Y-92292100D03*
X119049400Y-91022100D03*
X119049400Y-89752100D03*
X119049400Y-88482100D03*
D27*
X110468500Y-96985500D03*
D28*
X104468500Y-88585800D03*
X104468500Y-92585800D03*
X104468500Y-96585800D03*
X104468500Y-101085800D03*
X108468500Y-88585800D03*
X108468500Y-92585800D03*
X108468500Y-96585800D03*
X108468500Y-101085800D03*
X112468500Y-88585800D03*
X112468500Y-92585800D03*
X112468500Y-96585800D03*
X112468500Y-101085800D03*
X116468500Y-88585800D03*
X116468500Y-92585800D03*
X116468500Y-96585800D03*
X116468500Y-101085800D03*
D29*
X86632800Y-104952800D03*
X84632800Y-104952800D03*
D30*
X79908400Y-105194700D03*
X79908400Y-103999700D03*
D12*
X94500000Y-83575000D03*
X94500000Y-81750000D03*
D31*
X114214400Y-118973600D03*
X116214400Y-118973600D03*
D20*
X94466500Y-109474300D03*
X94466500Y-107399300D03*
D32*
X99800500Y-90999300D03*
X99800500Y-94124300D03*
D12*
X88849200Y-83542500D03*
X88849200Y-81717500D03*
D33*
X104562600Y-109503600D03*
X107687600Y-109503600D03*
D34*
X104015600Y-126798400D03*
D35*
X107515600Y-126798400D03*
D34*
X124438500Y-98403800D03*
D35*
X124438500Y-101903800D03*
D11*
X97028000Y-98124100D03*
X97028000Y-100199100D03*
D14*
X118723500Y-108097200D03*
X118723500Y-110097200D03*
D36*
X89676500Y-96028800D03*
X89676500Y-88078800D03*
X94176500Y-96028800D03*
X94176500Y-88078800D03*
D37*
X99966000Y-88116800D03*
X96841000Y-88116800D03*
D36*
X82147500Y-96028800D03*
X82147500Y-88078800D03*
X86647500Y-96028800D03*
X86647500Y-88078800D03*
D32*
X79502000Y-92976300D03*
X79502000Y-96101300D03*
D31*
X103241600Y-120142000D03*
X105241600Y-120142000D03*
D38*
X87070800Y-120446800D03*
D39*
X80670800Y-120446800D03*
D40*
X92917100Y-114156300D03*
X92917100Y-113021300D03*
D41*
X91794499Y-114862799D03*
X91794499Y-114062801D03*
X91794499Y-113262800D03*
X91794499Y-112462799D03*
X91794499Y-111662801D03*
X87994501Y-111662801D03*
X87994501Y-112462799D03*
X87994501Y-113262800D03*
X87994501Y-114062801D03*
X87994501Y-114862799D03*
D42*
X89894500Y-113262800D03*
D43*
X90894501Y-113262800D03*
X89894500Y-114462800D03*
X89894500Y-113262800D03*
X89894500Y-112062800D03*
X88894502Y-113262800D03*
D20*
X97028000Y-105228300D03*
X97028000Y-103153300D03*
D44*
X126699100Y-106277800D03*
X126699100Y-111277800D03*
D45*
X111099600Y-118947600D03*
X111099600Y-122047600D03*
D33*
X118528700Y-124612400D03*
X121653700Y-124612400D03*
D46*
X123789300Y-122584600D03*
X123789300Y-121314600D03*
X123789300Y-120044600D03*
X123789300Y-118774600D03*
X118839300Y-118774600D03*
X118839300Y-120044600D03*
X118839300Y-121314600D03*
X118839300Y-122584600D03*
D47*
X99673500Y-109690800D03*
X99673500Y-107690800D03*
D14*
X96879500Y-90291800D03*
X96879500Y-92291800D03*
D20*
X92434500Y-109474300D03*
X92434500Y-107399300D03*
D31*
X114214400Y-122174000D03*
X116214400Y-122174000D03*
D19*
X93177500Y-80162500D03*
X94322500Y-80162500D03*
D48*
X84942500Y-114094800D03*
X81892500Y-114094800D03*
D47*
X97641500Y-109690800D03*
X97641500Y-107690800D03*
D15*
X100076000Y-85830800D03*
X98001000Y-85830800D03*
D20*
X88370500Y-109474300D03*
X88370500Y-107399300D03*
D11*
X94466500Y-111787300D03*
X94466500Y-113862300D03*
D49*
X120247500Y-115231700D03*
X120247500Y-112106700D03*
D50*
X101451500Y-108032300D03*
X101451500Y-109857300D03*
D11*
X87249000Y-99902100D03*
X87249000Y-101977100D03*
D51*
X124438500Y-87100800D03*
D52*
X124438500Y-90600800D03*
X124438500Y-94100800D03*
D15*
X83925500Y-110595800D03*
X81850500Y-110595800D03*
D49*
X79502000Y-91033600D03*
X79502000Y-87908600D03*
D29*
X82542950Y-101338950D03*
X80542950Y-101338950D03*
D53*
X86664800Y-107696000D03*
X80264000Y-112420400D03*
X96117500Y-107420800D03*
D54*
X87024300Y-106862000D03*
X81892500Y-116819800D03*
X80010000Y-107188000D03*
D53*
X101887600Y-87172700D03*
X112979200Y-122580400D03*
D54*
X81432400Y-118262400D03*
D53*
X99825900Y-122406800D03*
X93250000Y-81250000D03*
D54*
X113694300Y-108843200D03*
D53*
X88188800Y-86664800D03*
X80721200Y-86652500D03*
D54*
X120095100Y-118774600D03*
X102772300Y-109605200D03*
D53*
X96117500Y-109452800D03*
D54*
X121615200Y-112106700D03*
D53*
X90525600Y-81330800D03*
X125835500Y-114024800D03*
X120374500Y-88497800D03*
X87172800Y-114062801D03*
X104753500Y-107547800D03*
X90017600Y-103073200D03*
X97750000Y-94250000D03*
D54*
X102721500Y-108436800D03*
D53*
X79146400Y-98704400D03*
D54*
X109376300Y-108792400D03*
X84277200Y-98196400D03*
D53*
X118785339Y-106061820D03*
X86647500Y-88078800D03*
X91287600Y-104140000D03*
X122580400Y-102971600D03*
X101299100Y-122406800D03*
X89560400Y-98145600D03*
D54*
X109376300Y-110011600D03*
X117195600Y-107391200D03*
X120145900Y-122559200D03*
X117910700Y-115091600D03*
D53*
X95043000Y-98555800D03*
X116941600Y-117847400D03*
X98907600Y-89611200D03*
X102565200Y-118516400D03*
X98145600Y-90576400D03*
D54*
X116802900Y-110011600D03*
D53*
X89611200Y-99314000D03*
D54*
X120247500Y-90250400D03*
D53*
X118723500Y-110097200D03*
D54*
X121970800Y-105765600D03*
X120294400Y-94843600D03*
X122275600Y-114249200D03*
X87202400Y-113262800D03*
D53*
X85039200Y-106934000D03*
X88036400Y-104952800D03*
D54*
X105918000Y-111099600D03*
D53*
X92811600Y-111912400D03*
X96113600Y-110439200D03*
X106172000Y-118516400D03*
D54*
X122428000Y-120751600D03*
X114604800Y-107391200D03*
D53*
X123088400Y-110540800D03*
X123748800Y-117144800D03*
X123794900Y-113233200D03*
X124714000Y-115824000D03*
D55*
X88392000Y-91033600D02*
X79502000Y-91033600D01*
X93387200Y-96028800D02*
X88392000Y-91033600D01*
X94176500Y-96028800D02*
X93387200Y-96028800D01*
X82075000Y-96101300D02*
X79502000Y-96101300D01*
X82147500Y-96028800D02*
X82075000Y-96101300D01*
X79146400Y-98704400D02*
X79621500Y-98704400D01*
X79621500Y-98704400D02*
X80427250Y-99510150D01*
X79908400Y-101973500D02*
X79908400Y-103999700D01*
X80542950Y-101338950D02*
X79908400Y-101973500D01*
X116214400Y-120990200D02*
X116128800Y-120904600D01*
X116214400Y-122174000D02*
X116214400Y-120990200D01*
X118164300Y-121314600D02*
X118839300Y-121314600D01*
X117754300Y-120904600D02*
X118164300Y-121314600D01*
X116128800Y-120904600D02*
X117754300Y-120904600D01*
X115997600Y-113415200D02*
X115982244Y-113415200D01*
X118723500Y-110689300D02*
X115997600Y-113415200D01*
X118723500Y-110097200D02*
X118723500Y-110689300D01*
X111566444Y-115588000D02*
X111184900Y-115206456D01*
X113502700Y-115588000D02*
X111566444Y-115588000D01*
X114352900Y-113744544D02*
X114352900Y-114737800D01*
X111184900Y-115206456D02*
X111184900Y-114550500D01*
X114661044Y-113436400D02*
X114352900Y-113744544D01*
X115961044Y-113436400D02*
X114661044Y-113436400D01*
X114352900Y-114737800D02*
X113502700Y-115588000D01*
X115982244Y-113415200D02*
X115961044Y-113436400D01*
X90423400Y-79908400D02*
X90677500Y-80162500D01*
X89116900Y-79908400D02*
X90423400Y-79908400D01*
X88862900Y-80162400D02*
X89116900Y-79908400D01*
X88188800Y-86664800D02*
X88262500Y-86664800D01*
D56*
X88262500Y-86664800D02*
X89676500Y-88078800D01*
X80721200Y-86652500D02*
X82147500Y-88078800D01*
D55*
X91350000Y-86642500D02*
X91350000Y-90838100D01*
X88849200Y-84141700D02*
X91350000Y-86642500D01*
X101694000Y-101182100D02*
X101887600Y-101182100D01*
X88849200Y-83542500D02*
X88849200Y-84141700D01*
X91350000Y-90838100D02*
X101694000Y-101182100D01*
X88177500Y-81045800D02*
X88849200Y-81717500D01*
X88177500Y-80162500D02*
X88177500Y-81045800D01*
X90677500Y-81178900D02*
X90677500Y-80162500D01*
X90525600Y-81330800D02*
X90677500Y-81178900D01*
X101486900Y-99912100D02*
X101887600Y-99912100D01*
X92303600Y-90728800D02*
X101486900Y-99912100D01*
X92303600Y-84128600D02*
X92303600Y-90728800D01*
X91750000Y-83575000D02*
X92303600Y-84128600D01*
X93226500Y-90627972D02*
X100049264Y-97450736D01*
X94500000Y-83575000D02*
X93226500Y-84848500D01*
X93226500Y-84848500D02*
X93226500Y-90627972D01*
D56*
X80010000Y-105296300D02*
X79908400Y-105194700D01*
X95010000Y-105258300D02*
X94607500Y-104855800D01*
X80010000Y-107188000D02*
X80474700Y-107188000D01*
X81892500Y-114094800D02*
X81892500Y-110637800D01*
X92434500Y-107399300D02*
X94466500Y-107399300D01*
X86961500Y-107399300D02*
X86664800Y-107696000D01*
X96117500Y-106328300D02*
X94645000Y-104855800D01*
X80474700Y-107188000D02*
X81850500Y-108563800D01*
X94607500Y-104855800D02*
X94607500Y-107258300D01*
X94607500Y-107258300D02*
X94466500Y-107399300D01*
X94645000Y-104855800D02*
X94607500Y-104855800D01*
X88370500Y-107399300D02*
X90402500Y-107399300D01*
X88370500Y-107399300D02*
X86961500Y-107399300D01*
X96117500Y-107420800D02*
X96117500Y-106328300D01*
X94466500Y-107399300D02*
X96096000Y-107399300D01*
X81892500Y-116819800D02*
X81892500Y-114094800D01*
X96655500Y-104855800D02*
X97028000Y-105228300D01*
X81892500Y-110637800D02*
X81850500Y-110595800D01*
X96096000Y-107399300D02*
X96117500Y-107420800D01*
X94607500Y-104855800D02*
X96655500Y-104855800D01*
X87024300Y-106862000D02*
X87561600Y-107399300D01*
X80010000Y-107188000D02*
X80010000Y-105296300D01*
X87561600Y-107399300D02*
X88370500Y-107399300D01*
X81850500Y-114052800D02*
X81892500Y-114094800D01*
X90402500Y-107399300D02*
X92434500Y-107399300D01*
X81850500Y-110595800D02*
X81850500Y-108563800D01*
X121153300Y-120074220D02*
X121153300Y-119578500D01*
D57*
X94466500Y-111787300D02*
X96498500Y-111787300D01*
D55*
X97750000Y-94250000D02*
X99674800Y-94250000D01*
D57*
X94466500Y-111787300D02*
X93474000Y-110794800D01*
D56*
X102873900Y-109503600D02*
X102772300Y-109605200D01*
D58*
X90402500Y-109474300D02*
X88370500Y-109474300D01*
X120358800Y-88482100D02*
X120374500Y-88497800D01*
X121615200Y-112106700D02*
X120247500Y-112106700D01*
D56*
X90017600Y-104845700D02*
X90017600Y-103073200D01*
X121653700Y-120553100D02*
X121632180Y-120553100D01*
X121153300Y-119578500D02*
X120349400Y-118774600D01*
X92891700Y-100199100D02*
X97028000Y-100199100D01*
X94466500Y-111787300D02*
X93249800Y-113004000D01*
X90097700Y-103153300D02*
X97028000Y-103153300D01*
D55*
X91297500Y-79542500D02*
X90677500Y-80162500D01*
D58*
X121653700Y-127981700D02*
X121891200Y-128219200D01*
D55*
X87249000Y-99902100D02*
X85064600Y-99902100D01*
D56*
X104562600Y-109503600D02*
X102873900Y-109503600D01*
X102721500Y-108436800D02*
X102317000Y-108032300D01*
D55*
X113712000Y-108825500D02*
X113694300Y-108843200D01*
X93250000Y-80552528D02*
X92239972Y-79542500D01*
X114214400Y-122174000D02*
X113385600Y-122174000D01*
X110534900Y-108825500D02*
X109409400Y-108825500D01*
D57*
X104858800Y-111787300D02*
X107401100Y-114329600D01*
D59*
X87172800Y-114062801D02*
X87994501Y-114062801D01*
D56*
X121632180Y-120553100D02*
X121153300Y-120074220D01*
X81432400Y-119735600D02*
X80670800Y-120497200D01*
X125835500Y-114024800D02*
X126699100Y-113161200D01*
D58*
X121653700Y-124612400D02*
X121653700Y-120553100D01*
D55*
X99674800Y-94250000D02*
X99800500Y-94124300D01*
D57*
X89894500Y-111127801D02*
X89894500Y-112062800D01*
D58*
X96096000Y-109474300D02*
X92434500Y-109474300D01*
D56*
X90017600Y-103073200D02*
X92891700Y-100199100D01*
D58*
X100076000Y-88006800D02*
X99966000Y-88116800D01*
D57*
X98530500Y-111787300D02*
X104858800Y-111787300D01*
D56*
X93249800Y-113004000D02*
X92917100Y-113004000D01*
X101887600Y-86546000D02*
X101172400Y-85830800D01*
D55*
X93250000Y-81250000D02*
X93250000Y-80552528D01*
D57*
X93474000Y-110794800D02*
X90227501Y-110794800D01*
D56*
X120349400Y-118774600D02*
X120095100Y-118774600D01*
D55*
X113385600Y-122174000D02*
X112979200Y-122580400D01*
D57*
X90227501Y-110794800D02*
X89894500Y-111127801D01*
D58*
X104753500Y-106416700D02*
X104753500Y-107547800D01*
X121653700Y-124612400D02*
X121653700Y-127981700D01*
X96117500Y-109452800D02*
X96096000Y-109474300D01*
D56*
X90017600Y-103073200D02*
X90097700Y-103153300D01*
X101887600Y-87172700D02*
X101887600Y-88482100D01*
D55*
X80670800Y-120497200D02*
X80670800Y-120446800D01*
X84277200Y-98196400D02*
X84277200Y-99114700D01*
X84277200Y-99114700D02*
X85064600Y-99902100D01*
D58*
X92434500Y-109474300D02*
X90402500Y-109474300D01*
D55*
X109409400Y-108825500D02*
X109376300Y-108792400D01*
D57*
X96498500Y-111787300D02*
X98530500Y-111787300D01*
D56*
X102317000Y-108032300D02*
X101451500Y-108032300D01*
X120095100Y-118774600D02*
X118839300Y-118774600D01*
D58*
X90007500Y-104855800D02*
X90017600Y-104845700D01*
D56*
X119049400Y-88482100D02*
X120358800Y-88482100D01*
D55*
X92239972Y-79542500D02*
X91297500Y-79542500D01*
D56*
X100076000Y-85830800D02*
X100076000Y-88006800D01*
D55*
X99825900Y-122406800D02*
X99825900Y-121215000D01*
D56*
X126699100Y-113161200D02*
X126699100Y-111277800D01*
D55*
X114852900Y-108825500D02*
X113712000Y-108825500D01*
D56*
X101887600Y-87172700D02*
X101887600Y-86546000D01*
X101172400Y-85830800D02*
X100076000Y-85830800D01*
X81432400Y-118262400D02*
X81432400Y-119735600D01*
D55*
X94176500Y-88078800D02*
X94176500Y-89588800D01*
X94176500Y-89588800D02*
X96879500Y-92291800D01*
X101864800Y-90999300D02*
X101887600Y-91022100D01*
X98508000Y-92291800D02*
X99800500Y-90999300D01*
X99800500Y-90999300D02*
X101864800Y-90999300D01*
X96879500Y-92291800D02*
X98508000Y-92291800D01*
X119049400Y-105797759D02*
X119049400Y-104992100D01*
X118785339Y-106061820D02*
X119049400Y-105797759D01*
X116214400Y-118973600D02*
X116214400Y-118574600D01*
D58*
X101299100Y-122406800D02*
X101299100Y-121287300D01*
X99048500Y-89752100D02*
X101887600Y-89752100D01*
X108195600Y-110011600D02*
X109376300Y-110011600D01*
D56*
X91287600Y-104140000D02*
X91591700Y-104140000D01*
D58*
X117901600Y-108097200D02*
X118723500Y-108097200D01*
D56*
X97870400Y-88116800D02*
X98786000Y-89032400D01*
D60*
X111560700Y-110011600D02*
X111834900Y-109737400D01*
D58*
X120145900Y-122559200D02*
X120120500Y-122584600D01*
D60*
X109376300Y-110011600D02*
X111560700Y-110011600D01*
D56*
X89970600Y-98555800D02*
X89560400Y-98145600D01*
D58*
X120120500Y-122584600D02*
X118839300Y-122584600D01*
D56*
X98001000Y-85830800D02*
X97811200Y-85830800D01*
X91591700Y-104140000D02*
X92307500Y-104855800D01*
X92307500Y-98555800D02*
X89970600Y-98555800D01*
D58*
X118839300Y-124301800D02*
X118528700Y-124612400D01*
D56*
X95043000Y-98555800D02*
X96596300Y-98555800D01*
X89611200Y-99314000D02*
X89611200Y-98196400D01*
D58*
X98907600Y-89611200D02*
X99048500Y-89752100D01*
D56*
X97811200Y-85830800D02*
X96841000Y-86801000D01*
D58*
X118839300Y-122584600D02*
X118839300Y-124301800D01*
D55*
X103241600Y-119192800D02*
X102565200Y-118516400D01*
D56*
X95043000Y-98555800D02*
X92307500Y-98555800D01*
X89611200Y-98196400D02*
X89560400Y-98145600D01*
X98145600Y-90576400D02*
X97861000Y-90291800D01*
D58*
X118528700Y-124612400D02*
X118528700Y-127981700D01*
D56*
X96841000Y-86801000D02*
X96841000Y-88116800D01*
D58*
X112484900Y-113120200D02*
X109376300Y-110011600D01*
X118528700Y-127981700D02*
X118291200Y-128219200D01*
X107687600Y-109503600D02*
X108195600Y-110011600D01*
X116802900Y-114550500D02*
X117369600Y-114550500D01*
X122580400Y-102971600D02*
X123799600Y-104190800D01*
X123799600Y-104190800D02*
X123799600Y-104765600D01*
X116802900Y-110011600D02*
X116802900Y-108825500D01*
D56*
X92307500Y-98555800D02*
X90369400Y-98555800D01*
D55*
X103241600Y-120142000D02*
X103241600Y-119192800D01*
D58*
X120247500Y-115231700D02*
X118050800Y-115231700D01*
D56*
X90369400Y-98555800D02*
X89611200Y-99314000D01*
X98786000Y-89489600D02*
X98907600Y-89611200D01*
X96841000Y-88116800D02*
X97870400Y-88116800D01*
D55*
X116214400Y-118574600D02*
X116941600Y-117847400D01*
D56*
X98786000Y-89032400D02*
X98786000Y-89489600D01*
D58*
X117195600Y-107391200D02*
X117901600Y-108097200D01*
X117369600Y-114550500D02*
X117910700Y-115091600D01*
D56*
X96596300Y-98555800D02*
X97028000Y-98124100D01*
X97861000Y-90291800D02*
X96879500Y-90291800D01*
D58*
X118050800Y-115231700D02*
X117910700Y-115091600D01*
X112484900Y-114550500D02*
X112484900Y-113120200D01*
D60*
X111834900Y-109737400D02*
X111834900Y-108825500D01*
D56*
X89327000Y-118190600D02*
X87070800Y-120446800D01*
X89327000Y-115618800D02*
X89327000Y-118190600D01*
X87994501Y-115613799D02*
X87989500Y-115618800D01*
X87994501Y-114862799D02*
X87994501Y-115613799D01*
X86466500Y-115618800D02*
X87989500Y-115618800D01*
X84942500Y-114094800D02*
X86466500Y-115618800D01*
X87989500Y-115618800D02*
X89327000Y-115618800D01*
D58*
X91272300Y-115618800D02*
X91794499Y-115096601D01*
X91794499Y-115096601D02*
X91794499Y-114928302D01*
X91104001Y-115618800D02*
X91272300Y-115618800D01*
X90462000Y-115618800D02*
X91104001Y-115618800D01*
D55*
X101299100Y-119462300D02*
X100433600Y-119462300D01*
X100433600Y-119462300D02*
X99825900Y-120070000D01*
X119247200Y-92292100D02*
X119049400Y-92292100D01*
X124438500Y-87100800D02*
X119247200Y-92292100D01*
X124438500Y-90600800D02*
X121477200Y-93562100D01*
X121477200Y-93562100D02*
X119049400Y-93562100D01*
D57*
X91794499Y-112462799D02*
X91794499Y-113262800D01*
D56*
X101801100Y-114329600D02*
X101333800Y-113862300D01*
X94466500Y-113862300D02*
X94172500Y-114156300D01*
X126699100Y-100664400D02*
X126699100Y-106277800D01*
X104501400Y-117029900D02*
X121763600Y-117029900D01*
X94172500Y-114156300D02*
X92917100Y-114156300D01*
X101333800Y-113862300D02*
X96498500Y-113862300D01*
X92917100Y-114156300D02*
X91887998Y-114156300D01*
X121763600Y-117029900D02*
X124612400Y-114181100D01*
X124612400Y-108364500D02*
X126699100Y-106277800D01*
X96498500Y-113862300D02*
X94466500Y-113862300D01*
X124612400Y-114181100D02*
X124612400Y-108364500D01*
D57*
X91794499Y-113262800D02*
X91794499Y-114062801D01*
D56*
X124438500Y-98403800D02*
X126699100Y-100664400D01*
X91887998Y-114156300D02*
X91794499Y-114062801D01*
X101801100Y-114329600D02*
X104501400Y-117029900D01*
D55*
X119049400Y-91022100D02*
X119475800Y-91022100D01*
X119475800Y-91022100D02*
X120247500Y-90250400D01*
X114852900Y-115285000D02*
X115827900Y-116260000D01*
X122970800Y-106765600D02*
X121970800Y-105765600D01*
X123799600Y-106765600D02*
X122970800Y-106765600D01*
X114852900Y-114550500D02*
X114852900Y-115285000D01*
X122275600Y-114249200D02*
X122275600Y-115451100D01*
X121466700Y-116260000D02*
X110798700Y-116260000D01*
X120282900Y-94832100D02*
X119049400Y-94832100D01*
X120294400Y-94843600D02*
X120282900Y-94832100D01*
X110534900Y-115996200D02*
X110534900Y-114550500D01*
X122275600Y-115451100D02*
X121466700Y-116260000D01*
X110798700Y-116260000D02*
X110534900Y-115996200D01*
X85039200Y-106934000D02*
X84632800Y-106527600D01*
X84632800Y-106527600D02*
X84632800Y-104952800D01*
X87202400Y-113262800D02*
X87994501Y-113262800D01*
X106023500Y-110994100D02*
X106023500Y-106416700D01*
X88036400Y-104952800D02*
X86632800Y-104952800D01*
X105918000Y-111099600D02*
X106023500Y-110994100D01*
X99673500Y-109690800D02*
X101285000Y-109690800D01*
X101285000Y-109690800D02*
X101451500Y-109857300D01*
X97641500Y-107690800D02*
X99673500Y-107690800D01*
X83925500Y-108411100D02*
X82092800Y-106578400D01*
X82092800Y-105613200D02*
X80479300Y-103999700D01*
X83925500Y-108563800D02*
X83925500Y-108512700D01*
X82092800Y-106578400D02*
X82092800Y-105613200D01*
X83925500Y-108563800D02*
X83925500Y-108411100D01*
X87994501Y-112462799D02*
X86653488Y-112462799D01*
X84786489Y-110595800D02*
X83925500Y-110595800D01*
X80479300Y-103999700D02*
X79908400Y-103999700D01*
X86653488Y-112462799D02*
X84786489Y-110595800D01*
X83925500Y-108563800D02*
X83925500Y-110595800D01*
X82252250Y-99510150D02*
X82252250Y-101048250D01*
X82252250Y-101048250D02*
X82542950Y-101338950D01*
X97641500Y-109690800D02*
X97319200Y-109690800D01*
X96570800Y-110439200D02*
X96113600Y-110439200D01*
X97319200Y-109690800D02*
X96570800Y-110439200D01*
X92562001Y-111662801D02*
X91794499Y-111662801D01*
X92811600Y-111912400D02*
X92562001Y-111662801D01*
X107515600Y-126798400D02*
X107078311Y-126798400D01*
X106162311Y-123670289D02*
X106162311Y-125882400D01*
X111099600Y-122047600D02*
X111099600Y-120904600D01*
X108928000Y-120904600D02*
X106162311Y-123670289D01*
X111099600Y-120904600D02*
X108928000Y-120904600D01*
X107078311Y-126798400D02*
X106162311Y-125882400D01*
X116128800Y-120904600D02*
X111099600Y-120904600D01*
X114913500Y-106416700D02*
X114913500Y-107082500D01*
X105241600Y-119446800D02*
X106172000Y-118516400D01*
X123135000Y-120044600D02*
X123789300Y-120044600D01*
X105241600Y-120142000D02*
X105241600Y-119446800D01*
X123789300Y-121314600D02*
X122991000Y-121314600D01*
X114913500Y-107082500D02*
X114604800Y-107391200D01*
X122991000Y-121314600D02*
X122428000Y-120751600D01*
X122428000Y-120751600D02*
X123135000Y-120044600D01*
X87274400Y-102565200D02*
X87274400Y-102002500D01*
X87994501Y-111662801D02*
X85648800Y-109317100D01*
X87249000Y-101977100D02*
X85064600Y-101977100D01*
X85648800Y-104190800D02*
X87274400Y-102565200D01*
X87274400Y-102002500D02*
X87249000Y-101977100D01*
X85648800Y-109317100D02*
X85648800Y-104190800D01*
X94500000Y-81750000D02*
X94500000Y-80340000D01*
X94500000Y-80340000D02*
X94322500Y-80162500D01*
X91750000Y-80235000D02*
X91822500Y-80162500D01*
X91750000Y-81750000D02*
X91750000Y-80235000D01*
X84172500Y-96028800D02*
X86647500Y-96028800D01*
X79502000Y-92976300D02*
X81120000Y-92976300D01*
X81120000Y-92976300D02*
X84172500Y-96028800D01*
X88601500Y-97103800D02*
X78657256Y-97103800D01*
X78657256Y-97103800D02*
X78302000Y-96748544D01*
X89676500Y-96028800D02*
X88601500Y-97103800D01*
X78302000Y-96748544D02*
X78302000Y-89108600D01*
X78302000Y-89108600D02*
X79502000Y-87908600D01*
X114214400Y-120438600D02*
X114198400Y-120454600D01*
X104015600Y-126798400D02*
X104796311Y-126798400D01*
X108741600Y-120454600D02*
X105712311Y-123483889D01*
X111099600Y-120454600D02*
X114198400Y-120454600D01*
X114198400Y-120454600D02*
X117754300Y-120454600D01*
X114214400Y-118973600D02*
X114214400Y-120438600D01*
X111099600Y-118947600D02*
X111099600Y-120454600D01*
X117754300Y-120454600D02*
X118164300Y-120044600D01*
X104796311Y-126798400D02*
X105712311Y-125882400D01*
X105712311Y-123483889D02*
X105712311Y-125882400D01*
X111099600Y-120454600D02*
X108741600Y-120454600D01*
X118164300Y-120044600D02*
X118839300Y-120044600D01*
X119049400Y-101182100D02*
X119673300Y-101182100D01*
X120548400Y-102057200D02*
X120548400Y-108610400D01*
X120548400Y-108610400D02*
X122478800Y-110540800D01*
X123748800Y-118734100D02*
X123789300Y-118774600D01*
X123748800Y-117144800D02*
X123748800Y-118734100D01*
X122478800Y-110540800D02*
X123088400Y-110540800D01*
X119673300Y-101182100D02*
X120548400Y-102057200D01*
X125272800Y-121446652D02*
X124134852Y-122584600D01*
X123794900Y-112669700D02*
X120091200Y-108966000D01*
X124714000Y-115824000D02*
X125272800Y-116382800D01*
X123794900Y-113233200D02*
X123794900Y-112669700D01*
X119470100Y-102452100D02*
X119049400Y-102452100D01*
X124134852Y-122584600D02*
X123789300Y-122584600D01*
X120091200Y-108966000D02*
X120091200Y-103073200D01*
X125272800Y-116382800D02*
X125272800Y-121446652D01*
X120091200Y-103073200D02*
X119470100Y-102452100D01*
X100049264Y-97450736D02*
X100049265Y-97450736D01*
X101240629Y-98642100D02*
X101887600Y-98642100D01*
X100049265Y-97450736D02*
X101240629Y-98642100D01*
X115502900Y-113894544D02*
X115502900Y-114550500D01*
X115982244Y-113415200D02*
X115502900Y-113894544D01*
G04 #@! TA.AperFunction,Conductor*
G36*
X80101439Y-105214385D02*
G01*
X80147194Y-105267189D01*
X80158400Y-105318700D01*
X80158400Y-106048868D01*
X80188238Y-106046158D01*
X80188244Y-106046156D01*
X80341261Y-105998474D01*
X80341263Y-105998473D01*
X80478418Y-105915561D01*
X80563117Y-105830862D01*
X80624440Y-105797377D01*
X80694132Y-105802361D01*
X80737415Y-105829810D01*
X81454918Y-106530229D01*
X81489139Y-106591144D01*
X81492299Y-106618960D01*
X81492299Y-106657454D01*
X81492298Y-106657454D01*
X81533223Y-106810185D01*
X81562158Y-106860300D01*
X81562159Y-106860304D01*
X81562160Y-106860304D01*
X81612279Y-106947114D01*
X81612281Y-106947117D01*
X81731149Y-107065985D01*
X81731155Y-107065990D01*
X81792284Y-107127119D01*
X81825769Y-107188442D01*
X81820785Y-107258134D01*
X81778913Y-107314067D01*
X81713449Y-107338484D01*
X81704604Y-107338800D01*
X81463029Y-107338800D01*
X81463012Y-107338801D01*
X81360302Y-107349294D01*
X81193880Y-107404441D01*
X81193875Y-107404443D01*
X81044654Y-107496484D01*
X80920684Y-107620454D01*
X80828643Y-107769675D01*
X80828641Y-107769680D01*
X80773494Y-107936102D01*
X80773493Y-107936109D01*
X80763000Y-108038813D01*
X80763000Y-108313800D01*
X81726500Y-108313800D01*
X81793539Y-108333485D01*
X81839294Y-108386289D01*
X81850500Y-108437800D01*
X81850500Y-108563800D01*
X81976500Y-108563800D01*
X82043539Y-108583485D01*
X82089294Y-108636289D01*
X82100500Y-108687800D01*
X82100500Y-111664800D01*
X82106181Y-111670481D01*
X82139666Y-111731804D01*
X82142500Y-111758162D01*
X82142500Y-116394800D01*
X82629200Y-116394800D01*
X82696239Y-116414485D01*
X82741994Y-116467289D01*
X82753200Y-116518800D01*
X82753200Y-117224000D01*
X82733515Y-117291039D01*
X82680711Y-117336794D01*
X82629200Y-117348000D01*
X79981600Y-117348000D01*
X79914561Y-117328315D01*
X79868806Y-117275511D01*
X79857600Y-117224000D01*
X79857600Y-115942644D01*
X80642500Y-115942644D01*
X80648901Y-116002172D01*
X80648903Y-116002179D01*
X80699145Y-116136886D01*
X80699149Y-116136893D01*
X80785309Y-116251987D01*
X80785312Y-116251990D01*
X80900406Y-116338150D01*
X80900413Y-116338154D01*
X81035120Y-116388396D01*
X81035127Y-116388398D01*
X81094655Y-116394799D01*
X81094672Y-116394800D01*
X81642500Y-116394800D01*
X81642500Y-114344800D01*
X80642500Y-114344800D01*
X80642500Y-115942644D01*
X79857600Y-115942644D01*
X79857600Y-112246955D01*
X80642500Y-112246955D01*
X80642500Y-113844800D01*
X81642500Y-113844800D01*
X81642500Y-111950800D01*
X81636819Y-111945119D01*
X81603334Y-111883796D01*
X81600500Y-111857438D01*
X81600500Y-110845800D01*
X80763001Y-110845800D01*
X80763001Y-111120786D01*
X80773494Y-111223497D01*
X80828641Y-111389919D01*
X80828643Y-111389924D01*
X80920684Y-111539145D01*
X81006204Y-111624665D01*
X81039689Y-111685988D01*
X81034705Y-111755680D01*
X80992833Y-111811613D01*
X80961858Y-111828527D01*
X80900415Y-111851444D01*
X80900406Y-111851449D01*
X80785312Y-111937609D01*
X80785309Y-111937612D01*
X80699149Y-112052706D01*
X80699145Y-112052713D01*
X80648903Y-112187420D01*
X80648901Y-112187427D01*
X80642500Y-112246955D01*
X79857600Y-112246955D01*
X79857600Y-110070813D01*
X80763000Y-110070813D01*
X80763000Y-110345800D01*
X81600500Y-110345800D01*
X81600500Y-108813800D01*
X80763001Y-108813800D01*
X80763001Y-109088786D01*
X80773494Y-109191497D01*
X80828641Y-109357919D01*
X80828643Y-109357924D01*
X80924475Y-109513291D01*
X80922108Y-109514750D01*
X80943461Y-109567712D01*
X80930406Y-109636351D01*
X80924139Y-109646101D01*
X80924475Y-109646309D01*
X80828643Y-109801675D01*
X80828641Y-109801680D01*
X80773494Y-109968102D01*
X80773493Y-109968109D01*
X80763000Y-110070813D01*
X79857600Y-110070813D01*
X79857600Y-108813599D01*
X79261091Y-107620581D01*
X79248000Y-107565127D01*
X79248000Y-106080780D01*
X79267685Y-106013741D01*
X79320489Y-105967986D01*
X79389647Y-105958042D01*
X79436149Y-105974663D01*
X79475536Y-105998473D01*
X79475538Y-105998474D01*
X79628555Y-106046156D01*
X79628561Y-106046158D01*
X79658399Y-106048868D01*
X79658400Y-106048868D01*
X79658400Y-105318700D01*
X79678085Y-105251661D01*
X79730889Y-105205906D01*
X79782400Y-105194700D01*
X80034400Y-105194700D01*
X80101439Y-105214385D01*
G37*
G04 #@! TD.AperFunction*
G04 #@! TA.AperFunction,Conductor*
G36*
X94800539Y-104875485D02*
G01*
X94846294Y-104928289D01*
X94857500Y-104979800D01*
X94857500Y-106361800D01*
X94837815Y-106428839D01*
X94785011Y-106474594D01*
X94733500Y-106485800D01*
X94716500Y-106485800D01*
X94716500Y-107149300D01*
X95691499Y-107149300D01*
X95691499Y-107011828D01*
X95691498Y-107011813D01*
X95681005Y-106909102D01*
X95625858Y-106742680D01*
X95625856Y-106742675D01*
X95533815Y-106593454D01*
X95409844Y-106469483D01*
X95398825Y-106462686D01*
X95352102Y-106410736D01*
X95340882Y-106341773D01*
X95368727Y-106277692D01*
X95408832Y-106246060D01*
X95456525Y-106222407D01*
X95604864Y-106103169D01*
X95720276Y-105959589D01*
X95777619Y-105919670D01*
X95847441Y-105917090D01*
X95907574Y-105952668D01*
X95922463Y-105972179D01*
X95960684Y-106034145D01*
X96084654Y-106158115D01*
X96233875Y-106250156D01*
X96233880Y-106250158D01*
X96400302Y-106305305D01*
X96400309Y-106305306D01*
X96503019Y-106315799D01*
X96568562Y-106315799D01*
X96635602Y-106335483D01*
X96681358Y-106388286D01*
X96691302Y-106457444D01*
X96662278Y-106521000D01*
X96625773Y-106549813D01*
X96570800Y-106578399D01*
X96570800Y-106882354D01*
X96552339Y-106947450D01*
X96506689Y-107021459D01*
X96506686Y-107021466D01*
X96451501Y-107188003D01*
X96451501Y-107188004D01*
X96451500Y-107188004D01*
X96441000Y-107290783D01*
X96441000Y-107290791D01*
X96441000Y-107649300D01*
X96441001Y-107978400D01*
X96421317Y-108045439D01*
X96368513Y-108091194D01*
X96317001Y-108102400D01*
X95782176Y-108102400D01*
X95715137Y-108082715D01*
X95669382Y-108029911D01*
X95659438Y-107960753D01*
X95664470Y-107939395D01*
X95681005Y-107889494D01*
X95681006Y-107889490D01*
X95691499Y-107786786D01*
X95691500Y-107786773D01*
X95691500Y-107649300D01*
X87145501Y-107649300D01*
X87145501Y-107786786D01*
X87155994Y-107889497D01*
X87172529Y-107939396D01*
X87174931Y-108009224D01*
X87139199Y-108069266D01*
X87076679Y-108100459D01*
X87054823Y-108102400D01*
X86373300Y-108102400D01*
X86306261Y-108082715D01*
X86260506Y-108029911D01*
X86249300Y-107978400D01*
X86249300Y-106497395D01*
X86268985Y-106430356D01*
X86321789Y-106384601D01*
X86372454Y-106373399D01*
X87228833Y-106367613D01*
X87296000Y-106386843D01*
X87342111Y-106439337D01*
X87352521Y-106508426D01*
X87323926Y-106572177D01*
X87317351Y-106579288D01*
X87303183Y-106593456D01*
X87211143Y-106742675D01*
X87211141Y-106742680D01*
X87155994Y-106909102D01*
X87155993Y-106909109D01*
X87145500Y-107011813D01*
X87145500Y-107149300D01*
X94216500Y-107149300D01*
X94216500Y-106305800D01*
X94236185Y-106238761D01*
X94288989Y-106193006D01*
X94340500Y-106181800D01*
X94357500Y-106181800D01*
X94357500Y-104979800D01*
X94377185Y-104912761D01*
X94429989Y-104867006D01*
X94481500Y-104855800D01*
X94733500Y-104855800D01*
X94800539Y-104875485D01*
G37*
G04 #@! TD.AperFunction*
G04 #@! TA.AperFunction,Conductor*
G36*
X92091760Y-112316820D02*
G01*
X92146939Y-112359681D01*
X92151358Y-112366239D01*
X92168273Y-112393159D01*
X92187273Y-112460396D01*
X92170012Y-112522251D01*
X92155728Y-112546403D01*
X92155728Y-112546404D01*
X92109524Y-112705437D01*
X92109523Y-112705443D01*
X92106600Y-112742589D01*
X92106600Y-112873513D01*
X92104218Y-112897702D01*
X92099100Y-112923434D01*
X92099100Y-113084564D01*
X92104218Y-113110297D01*
X92106600Y-113134485D01*
X92106600Y-113300002D01*
X92109523Y-113337154D01*
X92155730Y-113496200D01*
X92173454Y-113526169D01*
X92190637Y-113593892D01*
X92173456Y-113652409D01*
X92156193Y-113681600D01*
X92156191Y-113681604D01*
X92110022Y-113840516D01*
X92110021Y-113840522D01*
X92107100Y-113877642D01*
X92107100Y-113906300D01*
X92793100Y-113906300D01*
X92860139Y-113925985D01*
X92905894Y-113978789D01*
X92917100Y-114030300D01*
X92917100Y-114156300D01*
X93043100Y-114156300D01*
X93110139Y-114175985D01*
X93155894Y-114228789D01*
X93167100Y-114280300D01*
X93167100Y-115021528D01*
X93167101Y-115021529D01*
X93175375Y-115020879D01*
X93175382Y-115020877D01*
X93334294Y-114974709D01*
X93334297Y-114974707D01*
X93476740Y-114890468D01*
X93476746Y-114890463D01*
X93485947Y-114881262D01*
X93547269Y-114847775D01*
X93616961Y-114852757D01*
X93638730Y-114863403D01*
X93672371Y-114884154D01*
X93672380Y-114884158D01*
X93838802Y-114939305D01*
X93838809Y-114939306D01*
X93941519Y-114949799D01*
X94216499Y-114949799D01*
X94716500Y-114949799D01*
X94991472Y-114949799D01*
X94991486Y-114949798D01*
X95094197Y-114939305D01*
X95260619Y-114884158D01*
X95260624Y-114884156D01*
X95415991Y-114788325D01*
X95417455Y-114790698D01*
X95470358Y-114769343D01*
X95539003Y-114782368D01*
X95548799Y-114788664D01*
X95549009Y-114788325D01*
X95704375Y-114884156D01*
X95704380Y-114884158D01*
X95870802Y-114939305D01*
X95870809Y-114939306D01*
X95973519Y-114949799D01*
X96248499Y-114949799D01*
X96748500Y-114949799D01*
X97023472Y-114949799D01*
X97023486Y-114949798D01*
X97126197Y-114939305D01*
X97292619Y-114884158D01*
X97292624Y-114884156D01*
X97447991Y-114788325D01*
X97449455Y-114790698D01*
X97502358Y-114769343D01*
X97571003Y-114782368D01*
X97580799Y-114788664D01*
X97581009Y-114788325D01*
X97736375Y-114884156D01*
X97736380Y-114884158D01*
X97902802Y-114939305D01*
X97902809Y-114939306D01*
X98005519Y-114949799D01*
X98280499Y-114949799D01*
X98280500Y-114949798D01*
X98280500Y-114112300D01*
X96748500Y-114112300D01*
X96748500Y-114949799D01*
X96248499Y-114949799D01*
X96248500Y-114949798D01*
X96248500Y-114112300D01*
X94716500Y-114112300D01*
X94716500Y-114949799D01*
X94216499Y-114949799D01*
X94216500Y-114949798D01*
X94216500Y-113986300D01*
X94236185Y-113919261D01*
X94288989Y-113873506D01*
X94340500Y-113862300D01*
X94466500Y-113862300D01*
X94466500Y-113736300D01*
X94486185Y-113669261D01*
X94538989Y-113623506D01*
X94590500Y-113612300D01*
X98406500Y-113612300D01*
X98473539Y-113631985D01*
X98519294Y-113684789D01*
X98530500Y-113736300D01*
X98530500Y-113862300D01*
X98656500Y-113862300D01*
X98723539Y-113881985D01*
X98769294Y-113934789D01*
X98780500Y-113986300D01*
X98780500Y-114949799D01*
X99055472Y-114949799D01*
X99055486Y-114949798D01*
X99158197Y-114939305D01*
X99324619Y-114884158D01*
X99324621Y-114884157D01*
X99364956Y-114859278D01*
X99432349Y-114840837D01*
X99499012Y-114861758D01*
X99543783Y-114915400D01*
X99553413Y-114952214D01*
X99561594Y-115032297D01*
X99616741Y-115198719D01*
X99616744Y-115198726D01*
X99635111Y-115228502D01*
X99653552Y-115295895D01*
X99632630Y-115362558D01*
X99578988Y-115407328D01*
X99529573Y-115417600D01*
X93107455Y-115417600D01*
X93040416Y-115397915D01*
X93032315Y-115392240D01*
X92905862Y-115295895D01*
X92715950Y-115151199D01*
X92674555Y-115094913D01*
X92667100Y-115052566D01*
X92667100Y-114406300D01*
X92459307Y-114406300D01*
X92392268Y-114386615D01*
X92371626Y-114369981D01*
X92359171Y-114357526D01*
X92359167Y-114357523D01*
X92252632Y-114286338D01*
X92252619Y-114286331D01*
X92134244Y-114237299D01*
X92134238Y-114237297D01*
X92056135Y-114221761D01*
X92032877Y-114214706D01*
X92013412Y-114206644D01*
X92013410Y-114206643D01*
X91868419Y-114177802D01*
X91868417Y-114177802D01*
X91818999Y-114177802D01*
X91751960Y-114158117D01*
X91706205Y-114105313D01*
X91694999Y-114053802D01*
X91694999Y-112437300D01*
X91714684Y-112370261D01*
X91767488Y-112324506D01*
X91818999Y-112313300D01*
X92008567Y-112313300D01*
X92008568Y-112313300D01*
X92022170Y-112310594D01*
X92091760Y-112316820D01*
G37*
G04 #@! TD.AperFunction*
G04 #@! TA.AperFunction,Conductor*
G36*
X85135539Y-114114485D02*
G01*
X85181294Y-114167289D01*
X85192500Y-114218800D01*
X85192500Y-116394800D01*
X85740328Y-116394800D01*
X85740344Y-116394799D01*
X85799872Y-116388398D01*
X85799879Y-116388396D01*
X85934586Y-116338154D01*
X85934593Y-116338150D01*
X86049687Y-116251990D01*
X86049690Y-116251987D01*
X86135850Y-116136893D01*
X86135854Y-116136886D01*
X86186096Y-116002179D01*
X86186098Y-116002172D01*
X86192499Y-115942644D01*
X86192500Y-115942627D01*
X86192500Y-115868800D01*
X88461770Y-115868800D01*
X88462421Y-115877081D01*
X88508590Y-116035994D01*
X88508592Y-116035997D01*
X88592833Y-116178442D01*
X88592839Y-116178450D01*
X88709849Y-116295460D01*
X88709857Y-116295466D01*
X88852302Y-116379707D01*
X88852305Y-116379708D01*
X89011216Y-116425877D01*
X89011222Y-116425878D01*
X89048342Y-116428799D01*
X89048358Y-116428800D01*
X89077000Y-116428800D01*
X89077000Y-115868800D01*
X88461770Y-115868800D01*
X86192500Y-115868800D01*
X86192500Y-114414785D01*
X86212185Y-114347746D01*
X86264989Y-114301991D01*
X86334147Y-114292047D01*
X86397703Y-114321072D01*
X86433542Y-114373831D01*
X86447010Y-114412322D01*
X86447011Y-114412323D01*
X86542984Y-114565063D01*
X86670538Y-114692617D01*
X86823278Y-114788590D01*
X86886388Y-114810673D01*
X86993545Y-114848169D01*
X86993550Y-114848170D01*
X87172796Y-114868366D01*
X87172800Y-114868366D01*
X87172804Y-114868366D01*
X87352046Y-114848170D01*
X87352045Y-114848170D01*
X87352055Y-114848169D01*
X87360369Y-114845259D01*
X87401323Y-114838301D01*
X88002385Y-114838301D01*
X88069424Y-114857986D01*
X88115179Y-114910790D01*
X88118567Y-114918968D01*
X88150702Y-115005128D01*
X88150706Y-115005135D01*
X88236952Y-115120344D01*
X88236955Y-115120347D01*
X88352164Y-115206593D01*
X88352171Y-115206597D01*
X88384401Y-115218618D01*
X88440334Y-115260489D01*
X88464752Y-115325953D01*
X88463051Y-115357075D01*
X88462421Y-115360521D01*
X88461770Y-115368800D01*
X89203000Y-115368800D01*
X89270039Y-115388485D01*
X89315794Y-115441289D01*
X89327000Y-115492800D01*
X89327000Y-115618800D01*
X89453000Y-115618800D01*
X89520039Y-115638485D01*
X89565794Y-115691289D01*
X89577000Y-115742800D01*
X89577000Y-116428800D01*
X89605642Y-116428800D01*
X89605657Y-116428799D01*
X89642777Y-116425878D01*
X89642783Y-116425877D01*
X89706605Y-116407335D01*
X89776474Y-116407534D01*
X89835144Y-116445476D01*
X89863988Y-116509114D01*
X89865200Y-116526411D01*
X89865200Y-118302002D01*
X89845515Y-118369041D01*
X89792711Y-118414796D01*
X89723553Y-118424740D01*
X89659997Y-118395715D01*
X89639852Y-118373449D01*
X89588038Y-118299951D01*
X89475451Y-118210542D01*
X89475443Y-118210538D01*
X89342223Y-118156469D01*
X89342224Y-118156469D01*
X89199158Y-118142121D01*
X89161340Y-118147284D01*
X87320800Y-118575316D01*
X87320800Y-122318282D01*
X89161342Y-122746315D01*
X89161348Y-122746316D01*
X89199160Y-122751478D01*
X89342225Y-122737130D01*
X89475444Y-122683061D01*
X89475452Y-122683057D01*
X89588040Y-122593647D01*
X89588041Y-122593646D01*
X89639852Y-122520152D01*
X89694567Y-122476701D01*
X89764088Y-122469729D01*
X89826342Y-122501449D01*
X89861564Y-122561791D01*
X89865200Y-122591598D01*
X89865200Y-123116800D01*
X89845515Y-123183839D01*
X89792711Y-123229594D01*
X89741200Y-123240800D01*
X84095840Y-123240800D01*
X84028801Y-123221115D01*
X83983046Y-123168311D01*
X83971841Y-123117361D01*
X83963568Y-121288947D01*
X84420800Y-121288947D01*
X84430469Y-121368224D01*
X84484536Y-121501441D01*
X84484542Y-121501451D01*
X84573951Y-121614038D01*
X84691468Y-121696883D01*
X84766477Y-121724252D01*
X84766489Y-121724255D01*
X86820800Y-122202003D01*
X86820800Y-120696800D01*
X84420800Y-120696800D01*
X84420800Y-121288947D01*
X83963568Y-121288947D01*
X83955947Y-119604649D01*
X84420800Y-119604649D01*
X84420800Y-120196800D01*
X86820800Y-120196800D01*
X86820800Y-118691595D01*
X84766495Y-119169341D01*
X84766474Y-119169348D01*
X84691467Y-119196716D01*
X84573951Y-119279560D01*
X84484542Y-119392147D01*
X84484536Y-119392157D01*
X84430469Y-119525374D01*
X84420800Y-119604649D01*
X83955947Y-119604649D01*
X83941951Y-116511606D01*
X83961331Y-116444483D01*
X84013928Y-116398490D01*
X84079207Y-116387761D01*
X84144660Y-116394799D01*
X84144672Y-116394800D01*
X84692500Y-116394800D01*
X84692500Y-114218800D01*
X84712185Y-114151761D01*
X84764989Y-114106006D01*
X84816500Y-114094800D01*
X85068500Y-114094800D01*
X85135539Y-114114485D01*
G37*
G04 #@! TD.AperFunction*
M02*
