M48
; DRILL file {KiCad 8.0.7} date 2025-07-10T22:44:45+0200
; FORMAT={-:-/ absolute / metric / decimal}
; #@! TF.CreationDate,2025-07-10T22:44:45+02:00
; #@! TF.GenerationSoftware,Kicad,Pcbnew,8.0.7
; #@! TF.FileFunction,Plated,1,4,PTH
FMAT,2
METRIC
; #@! TA.AperFunction,Plated,PTH,ViaDrill
T1C0.300
; #@! TA.AperFunction,Plated,PTH,ComponentDrill
T2C0.300
; #@! TA.AperFunction,Plated,PTH,ComponentDrill
T3C1.000
; #@! TA.AperFunction,Plated,PTH,ComponentDrill
T4C1.020
; #@! TA.AperFunction,Plated,PTH,ComponentDrill
T5C1.200
%
G90
G05
T1
X82.702Y-102.616
X84.091Y-109.282
X84.345Y-114.515
X85.395Y-126.39
X85.514Y-120.357
X85.75Y-88.697
X85.974Y-118.914
X88.358Y-100.291
X89.12Y-109.028
X90.729Y-90.173
X90.746Y-109.79
X91.105Y-108.956
X91.254Y-116.157
X91.284Y-115.357
X92.118Y-107.047
X92.202Y-91.135
X93.642Y-100.24
X93.692Y-101.408
X94.099Y-105.167
X94.882Y-83.86
X95.369Y-106.234
X96.893Y-114.007
X97.607Y-83.779
X97.908Y-88.494
X98.603Y-126.644
X99.124Y-100.65
X100.195Y-112.533
X100.199Y-109.515
X100.199Y-111.547
X101.831Y-96.344
X102.227Y-92.671
X102.989Y-91.706
X103.48Y-97.739
X103.835Y-103.835
X103.835Y-104.8
X103.835Y-105.816
X103.907Y-124.501
X104.75Y-98.247
X105.38Y-124.501
X105.969Y-89.267
X106.646Y-120.611
X106.803Y-110.531
X106.853Y-111.7
X107.086Y-124.511
X108.835Y-109.642
X109.999Y-113.194
X110.338Y-131.47
X110.795Y-121.514
X113.182Y-114.452
X113.457Y-110.887
X113.457Y-112.106
X113.64Y-118.008
X117.06Y-124.675
X117.754Y-110.49
X118.686Y-109.486
X120.884Y-112.106
X121.023Y-119.942
X121.277Y-109.486
X121.992Y-117.186
X122.805Y-112.191
X123.708Y-109.242
X124.176Y-120.869
X124.227Y-124.653
X124.308Y-88.849
X124.308Y-90.983
X124.308Y-100.736
X124.308Y-101.854
X124.308Y-102.87
X124.329Y-92.345
X124.358Y-96.368
X125.696Y-114.201
X126.238Y-107.848
X126.357Y-116.343
X126.509Y-122.846
X126.662Y-105.066
X127.17Y-112.635
X127.83Y-119.239
X127.876Y-115.328
X129.917Y-116.119
X131.318Y-118.669
T2
X92.976Y-115.357
X93.976Y-114.157
X93.976Y-115.357
X93.976Y-116.557
X94.976Y-115.357
X108.55Y-90.68
X108.55Y-94.68
X108.55Y-98.68
X108.55Y-103.18
X112.55Y-90.68
X112.55Y-94.68
X112.55Y-98.68
X112.55Y-103.18
X116.55Y-90.68
X116.55Y-94.68
X116.55Y-98.68
X116.55Y-103.18
X120.55Y-90.68
X120.55Y-94.68
X120.55Y-98.68
X120.55Y-103.18
T3
X131.623Y-121.255
X131.623Y-123.795
T4
X84.734Y-128.27
X84.734Y-130.81
X87.274Y-128.27
X87.274Y-130.81
X89.814Y-128.27
X89.814Y-130.81
X92.354Y-128.27
X92.354Y-130.81
X94.894Y-128.27
X94.894Y-130.81
X97.434Y-128.27
X97.434Y-130.81
X99.974Y-128.27
X99.974Y-130.81
X102.514Y-128.27
X102.514Y-130.81
X105.054Y-128.27
X105.054Y-130.81
X107.594Y-128.27
X107.594Y-130.81
T5
X114.272Y-130.517
X117.772Y-130.517
X128.52Y-89.195
X128.52Y-92.695
X128.52Y-96.195
X128.52Y-100.498
X128.52Y-103.998
M30
