G04 #@! TF.GenerationSoftware,KiCad,Pcbnew,8.0.7*
G04 #@! TF.CreationDate,2025-07-06T21:45:57+02:00*
G04 #@! TF.ProjectId,modbus-to-x,6d6f6462-7573-42d7-946f-2d782e6b6963,rev?*
G04 #@! TF.SameCoordinates,Original*
G04 #@! TF.FileFunction,Paste,Top*
G04 #@! TF.FilePolarity,Positive*
%FSLAX46Y46*%
G04 Gerber Fmt 4.6, Leading zero omitted, Abs format (unit mm)*
G04 Created by KiCad (PCBNEW 8.0.7) date 2025-07-06 21:45:57*
%MOMM*%
%LPD*%
G01*
G04 APERTURE LIST*
G04 Aperture macros list*
%AMRoundRect*
0 Rectangle with rounded corners*
0 $1 Rounding radius*
0 $2 $3 $4 $5 $6 $7 $8 $9 X,Y pos of 4 corners*
0 Add a 4 corners polygon primitive as box body*
4,1,4,$2,$3,$4,$5,$6,$7,$8,$9,$2,$3,0*
0 Add four circle primitives for the rounded corners*
1,1,$1+$1,$2,$3*
1,1,$1+$1,$4,$5*
1,1,$1+$1,$6,$7*
1,1,$1+$1,$8,$9*
0 Add four rect primitives between the rounded corners*
20,1,$1+$1,$2,$3,$4,$5,0*
20,1,$1+$1,$4,$5,$6,$7,0*
20,1,$1+$1,$6,$7,$8,$9,0*
20,1,$1+$1,$8,$9,$2,$3,0*%
%AMOutline4P*
0 Free polygon, 4 corners , with rotation*
0 The origin of the aperture is its center*
0 number of corners: always 4*
0 $1 to $8 corner X, Y*
0 $9 Rotation angle, in degrees counterclockwise*
0 create outline with 4 corners*
4,1,4,$1,$2,$3,$4,$5,$6,$7,$8,$1,$2,$9*%
G04 Aperture macros list end*
%ADD10C,0.000000*%
%ADD11RoundRect,0.155000X-0.212500X-0.155000X0.212500X-0.155000X0.212500X0.155000X-0.212500X0.155000X0*%
%ADD12RoundRect,0.250000X-0.475000X0.337500X-0.475000X-0.337500X0.475000X-0.337500X0.475000X0.337500X0*%
%ADD13RoundRect,0.237500X0.237500X-0.250000X0.237500X0.250000X-0.237500X0.250000X-0.237500X-0.250000X0*%
%ADD14RoundRect,0.100000X-0.100000X0.637500X-0.100000X-0.637500X0.100000X-0.637500X0.100000X0.637500X0*%
%ADD15RoundRect,0.250000X-0.450000X0.350000X-0.450000X-0.350000X0.450000X-0.350000X0.450000X0.350000X0*%
%ADD16RoundRect,0.250000X0.337500X0.475000X-0.337500X0.475000X-0.337500X-0.475000X0.337500X-0.475000X0*%
%ADD17RoundRect,0.237500X-0.250000X-0.237500X0.250000X-0.237500X0.250000X0.237500X-0.250000X0.237500X0*%
%ADD18RoundRect,0.250000X-1.050000X-0.550000X1.050000X-0.550000X1.050000X0.550000X-1.050000X0.550000X0*%
%ADD19RoundRect,0.250000X-1.500000X-0.550000X1.500000X-0.550000X1.500000X0.550000X-1.500000X0.550000X0*%
%ADD20RoundRect,0.160000X-0.222500X-0.160000X0.222500X-0.160000X0.222500X0.160000X-0.222500X0.160000X0*%
%ADD21RoundRect,0.250000X0.475000X-0.337500X0.475000X0.337500X-0.475000X0.337500X-0.475000X-0.337500X0*%
%ADD22RoundRect,0.160000X0.160000X-0.222500X0.160000X0.222500X-0.160000X0.222500X-0.160000X-0.222500X0*%
%ADD23RoundRect,0.160000X0.222500X0.160000X-0.222500X0.160000X-0.222500X-0.160000X0.222500X-0.160000X0*%
%ADD24RoundRect,0.375000X0.375000X-0.625000X0.375000X0.625000X-0.375000X0.625000X-0.375000X-0.625000X0*%
%ADD25RoundRect,0.500000X1.400000X-0.500000X1.400000X0.500000X-1.400000X0.500000X-1.400000X-0.500000X0*%
%ADD26R,0.838200X0.889000*%
%ADD27R,0.889000X0.838200*%
%ADD28RoundRect,0.250000X0.350000X0.450000X-0.350000X0.450000X-0.350000X-0.450000X0.350000X-0.450000X0*%
%ADD29RoundRect,0.160000X0.160000X-0.197500X0.160000X0.197500X-0.160000X0.197500X-0.160000X-0.197500X0*%
%ADD30RoundRect,0.250000X-0.350000X-0.450000X0.350000X-0.450000X0.350000X0.450000X-0.350000X0.450000X0*%
%ADD31RoundRect,0.250000X-0.650000X0.412500X-0.650000X-0.412500X0.650000X-0.412500X0.650000X0.412500X0*%
%ADD32RoundRect,0.250000X-0.412500X-0.650000X0.412500X-0.650000X0.412500X0.650000X-0.412500X0.650000X0*%
%ADD33R,1.300000X1.550000*%
%ADD34RoundRect,0.250000X0.412500X0.650000X-0.412500X0.650000X-0.412500X-0.650000X0.412500X-0.650000X0*%
%ADD35Outline4P,-2.150000X-1.800000X2.150000X-0.800000X2.150000X0.800000X-2.150000X1.800000X180.000000*%
%ADD36Outline4P,-2.150000X-1.800000X2.150000X-0.800000X2.150000X0.800000X-2.150000X1.800000X0.000000*%
%ADD37RoundRect,0.155000X0.155000X-0.212500X0.155000X0.212500X-0.155000X0.212500X-0.155000X-0.212500X0*%
%ADD38O,0.599999X0.299999*%
%ADD39RoundRect,0.250000X-0.650000X1.500000X-0.650000X-1.500000X0.650000X-1.500000X0.650000X1.500000X0*%
%ADD40RoundRect,0.250000X-0.625000X0.400000X-0.625000X-0.400000X0.625000X-0.400000X0.625000X0.400000X0*%
%ADD41RoundRect,0.150000X0.825000X0.150000X-0.825000X0.150000X-0.825000X-0.150000X0.825000X-0.150000X0*%
%ADD42RoundRect,0.250000X0.450000X-0.350000X0.450000X0.350000X-0.450000X0.350000X-0.450000X-0.350000X0*%
%ADD43R,1.500000X3.600000*%
%ADD44RoundRect,0.250000X0.650000X-0.412500X0.650000X0.412500X-0.650000X0.412500X-0.650000X-0.412500X0*%
%ADD45RoundRect,0.237500X-0.237500X0.250000X-0.237500X-0.250000X0.237500X-0.250000X0.237500X0.250000X0*%
G04 APERTURE END LIST*
D10*
G36*
X103785667Y-86538715D02*
G01*
X102669100Y-86538715D01*
X102669100Y-85384700D01*
X103785667Y-85384700D01*
X103785667Y-86538715D01*
G37*
G36*
X103785667Y-87892731D02*
G01*
X102669100Y-87892731D01*
X102669100Y-86738715D01*
X103785667Y-86738715D01*
X103785667Y-87892731D01*
G37*
G36*
X103785667Y-89246746D02*
G01*
X102669100Y-89246746D01*
X102669100Y-88092730D01*
X103785667Y-88092730D01*
X103785667Y-89246746D01*
G37*
G36*
X103785667Y-90600762D02*
G01*
X102669100Y-90600762D01*
X102669100Y-89446746D01*
X103785667Y-89446746D01*
X103785667Y-90600762D01*
G37*
G36*
X103785667Y-91954777D02*
G01*
X102669100Y-91954777D01*
X102669100Y-90800761D01*
X103785667Y-90800761D01*
X103785667Y-91954777D01*
G37*
G36*
X103785667Y-93308792D02*
G01*
X102669100Y-93308792D01*
X102669100Y-92154777D01*
X103785667Y-92154777D01*
X103785667Y-93308792D01*
G37*
G36*
X103785667Y-94662808D02*
G01*
X102669100Y-94662808D01*
X102669100Y-93508792D01*
X103785667Y-93508792D01*
X103785667Y-94662808D01*
G37*
G36*
X103785667Y-96016823D02*
G01*
X102669100Y-96016823D01*
X102669100Y-94862808D01*
X103785667Y-94862808D01*
X103785667Y-96016823D01*
G37*
G36*
X103785667Y-97370839D02*
G01*
X102669100Y-97370839D01*
X102669100Y-96216823D01*
X103785667Y-96216823D01*
X103785667Y-97370839D01*
G37*
G36*
X103785667Y-98724854D02*
G01*
X102669100Y-98724854D01*
X102669100Y-97570838D01*
X103785667Y-97570838D01*
X103785667Y-98724854D01*
G37*
G36*
X103785667Y-100078870D02*
G01*
X102669100Y-100078870D01*
X102669100Y-98924854D01*
X103785667Y-98924854D01*
X103785667Y-100078870D01*
G37*
G36*
X103785667Y-101432885D02*
G01*
X102669100Y-101432885D01*
X102669100Y-100278869D01*
X103785667Y-100278869D01*
X103785667Y-101432885D01*
G37*
G36*
X103785667Y-102786900D02*
G01*
X102669100Y-102786900D01*
X102669100Y-101632885D01*
X103785667Y-101632885D01*
X103785667Y-102786900D01*
G37*
G36*
X105102234Y-86538715D02*
G01*
X103985667Y-86538715D01*
X103985667Y-85384700D01*
X105102234Y-85384700D01*
X105102234Y-86538715D01*
G37*
G36*
X105102234Y-87892731D02*
G01*
X103985667Y-87892731D01*
X103985667Y-86738715D01*
X105102234Y-86738715D01*
X105102234Y-87892731D01*
G37*
G36*
X105102234Y-89246746D02*
G01*
X103985667Y-89246746D01*
X103985667Y-88092730D01*
X105102234Y-88092730D01*
X105102234Y-89246746D01*
G37*
G36*
X105102234Y-90600762D02*
G01*
X103985667Y-90600762D01*
X103985667Y-89446746D01*
X105102234Y-89446746D01*
X105102234Y-90600762D01*
G37*
G36*
X105102234Y-91954777D02*
G01*
X103985667Y-91954777D01*
X103985667Y-90800761D01*
X105102234Y-90800761D01*
X105102234Y-91954777D01*
G37*
G36*
X105102234Y-93308792D02*
G01*
X103985667Y-93308792D01*
X103985667Y-92154777D01*
X105102234Y-92154777D01*
X105102234Y-93308792D01*
G37*
G36*
X105102234Y-94662808D02*
G01*
X103985667Y-94662808D01*
X103985667Y-93508792D01*
X105102234Y-93508792D01*
X105102234Y-94662808D01*
G37*
G36*
X105102234Y-96016823D02*
G01*
X103985667Y-96016823D01*
X103985667Y-94862808D01*
X105102234Y-94862808D01*
X105102234Y-96016823D01*
G37*
G36*
X105102234Y-97370839D02*
G01*
X103985667Y-97370839D01*
X103985667Y-96216823D01*
X105102234Y-96216823D01*
X105102234Y-97370839D01*
G37*
G36*
X105102234Y-98724854D02*
G01*
X103985667Y-98724854D01*
X103985667Y-97570838D01*
X105102234Y-97570838D01*
X105102234Y-98724854D01*
G37*
G36*
X105102234Y-100078870D02*
G01*
X103985667Y-100078870D01*
X103985667Y-98924854D01*
X105102234Y-98924854D01*
X105102234Y-100078870D01*
G37*
G36*
X105102234Y-101432885D02*
G01*
X103985667Y-101432885D01*
X103985667Y-100278869D01*
X105102234Y-100278869D01*
X105102234Y-101432885D01*
G37*
G36*
X105102234Y-102786900D02*
G01*
X103985667Y-102786900D01*
X103985667Y-101632885D01*
X105102234Y-101632885D01*
X105102234Y-102786900D01*
G37*
G36*
X106418800Y-86538715D02*
G01*
X105302233Y-86538715D01*
X105302233Y-85384700D01*
X106418800Y-85384700D01*
X106418800Y-86538715D01*
G37*
G36*
X106418800Y-87892731D02*
G01*
X105302233Y-87892731D01*
X105302233Y-86738715D01*
X106418800Y-86738715D01*
X106418800Y-87892731D01*
G37*
G36*
X106418800Y-89246746D02*
G01*
X105302233Y-89246746D01*
X105302233Y-88092730D01*
X106418800Y-88092730D01*
X106418800Y-89246746D01*
G37*
G36*
X106418800Y-90600762D02*
G01*
X105302233Y-90600762D01*
X105302233Y-89446746D01*
X106418800Y-89446746D01*
X106418800Y-90600762D01*
G37*
G36*
X106418800Y-91954777D02*
G01*
X105302233Y-91954777D01*
X105302233Y-90800761D01*
X106418800Y-90800761D01*
X106418800Y-91954777D01*
G37*
G36*
X106418800Y-93308792D02*
G01*
X105302233Y-93308792D01*
X105302233Y-92154777D01*
X106418800Y-92154777D01*
X106418800Y-93308792D01*
G37*
G36*
X106418800Y-94662808D02*
G01*
X105302233Y-94662808D01*
X105302233Y-93508792D01*
X106418800Y-93508792D01*
X106418800Y-94662808D01*
G37*
G36*
X106418800Y-96016823D02*
G01*
X105302233Y-96016823D01*
X105302233Y-94862808D01*
X106418800Y-94862808D01*
X106418800Y-96016823D01*
G37*
G36*
X106418800Y-97370839D02*
G01*
X105302233Y-97370839D01*
X105302233Y-96216823D01*
X106418800Y-96216823D01*
X106418800Y-97370839D01*
G37*
G36*
X106418800Y-98724854D02*
G01*
X105302233Y-98724854D01*
X105302233Y-97570838D01*
X106418800Y-97570838D01*
X106418800Y-98724854D01*
G37*
G36*
X106418800Y-100078870D02*
G01*
X105302233Y-100078870D01*
X105302233Y-98924854D01*
X106418800Y-98924854D01*
X106418800Y-100078870D01*
G37*
G36*
X106418800Y-101432885D02*
G01*
X105302233Y-101432885D01*
X105302233Y-100278869D01*
X106418800Y-100278869D01*
X106418800Y-101432885D01*
G37*
G36*
X106418800Y-102786900D02*
G01*
X105302233Y-102786900D01*
X105302233Y-101632885D01*
X106418800Y-101632885D01*
X106418800Y-102786900D01*
G37*
G36*
X107735367Y-86538715D02*
G01*
X106618800Y-86538715D01*
X106618800Y-85384700D01*
X107735367Y-85384700D01*
X107735367Y-86538715D01*
G37*
G36*
X107735367Y-87892731D02*
G01*
X106618800Y-87892731D01*
X106618800Y-86738715D01*
X107735367Y-86738715D01*
X107735367Y-87892731D01*
G37*
G36*
X107735367Y-89246746D02*
G01*
X106618800Y-89246746D01*
X106618800Y-88092730D01*
X107735367Y-88092730D01*
X107735367Y-89246746D01*
G37*
G36*
X107735367Y-90600762D02*
G01*
X106618800Y-90600762D01*
X106618800Y-89446746D01*
X107735367Y-89446746D01*
X107735367Y-90600762D01*
G37*
G36*
X107735367Y-91954777D02*
G01*
X106618800Y-91954777D01*
X106618800Y-90800761D01*
X107735367Y-90800761D01*
X107735367Y-91954777D01*
G37*
G36*
X107735367Y-93308792D02*
G01*
X106618800Y-93308792D01*
X106618800Y-92154777D01*
X107735367Y-92154777D01*
X107735367Y-93308792D01*
G37*
G36*
X107735367Y-94662808D02*
G01*
X106618800Y-94662808D01*
X106618800Y-93508792D01*
X107735367Y-93508792D01*
X107735367Y-94662808D01*
G37*
G36*
X107735367Y-96016823D02*
G01*
X106618800Y-96016823D01*
X106618800Y-94862808D01*
X107735367Y-94862808D01*
X107735367Y-96016823D01*
G37*
G36*
X107735367Y-97370839D02*
G01*
X106618800Y-97370839D01*
X106618800Y-96216823D01*
X107735367Y-96216823D01*
X107735367Y-97370839D01*
G37*
G36*
X107735367Y-98724854D02*
G01*
X106618800Y-98724854D01*
X106618800Y-97570838D01*
X107735367Y-97570838D01*
X107735367Y-98724854D01*
G37*
G36*
X107735367Y-100078870D02*
G01*
X106618800Y-100078870D01*
X106618800Y-98924854D01*
X107735367Y-98924854D01*
X107735367Y-100078870D01*
G37*
G36*
X107735367Y-101432885D02*
G01*
X106618800Y-101432885D01*
X106618800Y-100278869D01*
X107735367Y-100278869D01*
X107735367Y-101432885D01*
G37*
G36*
X107735367Y-102786900D02*
G01*
X106618800Y-102786900D01*
X106618800Y-101632885D01*
X107735367Y-101632885D01*
X107735367Y-102786900D01*
G37*
G36*
X109051934Y-86538715D02*
G01*
X107935367Y-86538715D01*
X107935367Y-85384700D01*
X109051934Y-85384700D01*
X109051934Y-86538715D01*
G37*
G36*
X109051934Y-87892731D02*
G01*
X107935367Y-87892731D01*
X107935367Y-86738715D01*
X109051934Y-86738715D01*
X109051934Y-87892731D01*
G37*
G36*
X109051934Y-89246746D02*
G01*
X107935367Y-89246746D01*
X107935367Y-88092730D01*
X109051934Y-88092730D01*
X109051934Y-89246746D01*
G37*
G36*
X109051934Y-90600762D02*
G01*
X107935367Y-90600762D01*
X107935367Y-89446746D01*
X109051934Y-89446746D01*
X109051934Y-90600762D01*
G37*
G36*
X109051934Y-91954777D02*
G01*
X107935367Y-91954777D01*
X107935367Y-90800761D01*
X109051934Y-90800761D01*
X109051934Y-91954777D01*
G37*
G36*
X109051934Y-93308792D02*
G01*
X107935367Y-93308792D01*
X107935367Y-92154777D01*
X109051934Y-92154777D01*
X109051934Y-93308792D01*
G37*
G36*
X109051934Y-94662808D02*
G01*
X107935367Y-94662808D01*
X107935367Y-93508792D01*
X109051934Y-93508792D01*
X109051934Y-94662808D01*
G37*
G36*
X109051934Y-96016823D02*
G01*
X107935367Y-96016823D01*
X107935367Y-94862808D01*
X109051934Y-94862808D01*
X109051934Y-96016823D01*
G37*
G36*
X109051934Y-97370839D02*
G01*
X107935367Y-97370839D01*
X107935367Y-96216823D01*
X109051934Y-96216823D01*
X109051934Y-97370839D01*
G37*
G36*
X109051934Y-98724854D02*
G01*
X107935367Y-98724854D01*
X107935367Y-97570838D01*
X109051934Y-97570838D01*
X109051934Y-98724854D01*
G37*
G36*
X109051934Y-100078870D02*
G01*
X107935367Y-100078870D01*
X107935367Y-98924854D01*
X109051934Y-98924854D01*
X109051934Y-100078870D01*
G37*
G36*
X109051934Y-101432885D02*
G01*
X107935367Y-101432885D01*
X107935367Y-100278869D01*
X109051934Y-100278869D01*
X109051934Y-101432885D01*
G37*
G36*
X109051934Y-102786900D02*
G01*
X107935367Y-102786900D01*
X107935367Y-101632885D01*
X109051934Y-101632885D01*
X109051934Y-102786900D01*
G37*
G36*
X110368500Y-86538715D02*
G01*
X109251933Y-86538715D01*
X109251933Y-85384700D01*
X110368500Y-85384700D01*
X110368500Y-86538715D01*
G37*
G36*
X110368500Y-87892731D02*
G01*
X109251933Y-87892731D01*
X109251933Y-86738715D01*
X110368500Y-86738715D01*
X110368500Y-87892731D01*
G37*
G36*
X110368500Y-89246746D02*
G01*
X109251933Y-89246746D01*
X109251933Y-88092730D01*
X110368500Y-88092730D01*
X110368500Y-89246746D01*
G37*
G36*
X110368500Y-90600762D02*
G01*
X109251933Y-90600762D01*
X109251933Y-89446746D01*
X110368500Y-89446746D01*
X110368500Y-90600762D01*
G37*
G36*
X110368500Y-91954777D02*
G01*
X109251933Y-91954777D01*
X109251933Y-90800761D01*
X110368500Y-90800761D01*
X110368500Y-91954777D01*
G37*
G36*
X110368500Y-93308792D02*
G01*
X109251933Y-93308792D01*
X109251933Y-92154777D01*
X110368500Y-92154777D01*
X110368500Y-93308792D01*
G37*
G36*
X110368500Y-94662808D02*
G01*
X109251933Y-94662808D01*
X109251933Y-93508792D01*
X110368500Y-93508792D01*
X110368500Y-94662808D01*
G37*
G36*
X110368500Y-96016823D02*
G01*
X109251933Y-96016823D01*
X109251933Y-94862808D01*
X110368500Y-94862808D01*
X110368500Y-96016823D01*
G37*
G36*
X110368500Y-97370839D02*
G01*
X109251933Y-97370839D01*
X109251933Y-96216823D01*
X110368500Y-96216823D01*
X110368500Y-97370839D01*
G37*
G36*
X110368500Y-98724854D02*
G01*
X109251933Y-98724854D01*
X109251933Y-97570838D01*
X110368500Y-97570838D01*
X110368500Y-98724854D01*
G37*
G36*
X110368500Y-100078870D02*
G01*
X109251933Y-100078870D01*
X109251933Y-98924854D01*
X110368500Y-98924854D01*
X110368500Y-100078870D01*
G37*
G36*
X110368500Y-101432885D02*
G01*
X109251933Y-101432885D01*
X109251933Y-100278869D01*
X110368500Y-100278869D01*
X110368500Y-101432885D01*
G37*
G36*
X110368500Y-102786900D02*
G01*
X109251933Y-102786900D01*
X109251933Y-101632885D01*
X110368500Y-101632885D01*
X110368500Y-102786900D01*
G37*
G36*
X111685067Y-86538715D02*
G01*
X110568500Y-86538715D01*
X110568500Y-85384700D01*
X111685067Y-85384700D01*
X111685067Y-86538715D01*
G37*
G36*
X111685067Y-87892731D02*
G01*
X110568500Y-87892731D01*
X110568500Y-86738715D01*
X111685067Y-86738715D01*
X111685067Y-87892731D01*
G37*
G36*
X111685067Y-89246746D02*
G01*
X110568500Y-89246746D01*
X110568500Y-88092730D01*
X111685067Y-88092730D01*
X111685067Y-89246746D01*
G37*
G36*
X111685067Y-90600762D02*
G01*
X110568500Y-90600762D01*
X110568500Y-89446746D01*
X111685067Y-89446746D01*
X111685067Y-90600762D01*
G37*
G36*
X111685067Y-91954777D02*
G01*
X110568500Y-91954777D01*
X110568500Y-90800761D01*
X111685067Y-90800761D01*
X111685067Y-91954777D01*
G37*
G36*
X111685067Y-93308792D02*
G01*
X110568500Y-93308792D01*
X110568500Y-92154777D01*
X111685067Y-92154777D01*
X111685067Y-93308792D01*
G37*
G36*
X111685067Y-94662808D02*
G01*
X110568500Y-94662808D01*
X110568500Y-93508792D01*
X111685067Y-93508792D01*
X111685067Y-94662808D01*
G37*
G36*
X111685067Y-96016823D02*
G01*
X110568500Y-96016823D01*
X110568500Y-94862808D01*
X111685067Y-94862808D01*
X111685067Y-96016823D01*
G37*
G36*
X111685067Y-97370839D02*
G01*
X110568500Y-97370839D01*
X110568500Y-96216823D01*
X111685067Y-96216823D01*
X111685067Y-97370839D01*
G37*
G36*
X111685067Y-98724854D02*
G01*
X110568500Y-98724854D01*
X110568500Y-97570838D01*
X111685067Y-97570838D01*
X111685067Y-98724854D01*
G37*
G36*
X111685067Y-100078870D02*
G01*
X110568500Y-100078870D01*
X110568500Y-98924854D01*
X111685067Y-98924854D01*
X111685067Y-100078870D01*
G37*
G36*
X111685067Y-101432885D02*
G01*
X110568500Y-101432885D01*
X110568500Y-100278869D01*
X111685067Y-100278869D01*
X111685067Y-101432885D01*
G37*
G36*
X111685067Y-102786900D02*
G01*
X110568500Y-102786900D01*
X110568500Y-101632885D01*
X111685067Y-101632885D01*
X111685067Y-102786900D01*
G37*
G36*
X113001633Y-86538715D02*
G01*
X111885066Y-86538715D01*
X111885066Y-85384700D01*
X113001633Y-85384700D01*
X113001633Y-86538715D01*
G37*
G36*
X113001633Y-87892731D02*
G01*
X111885066Y-87892731D01*
X111885066Y-86738715D01*
X113001633Y-86738715D01*
X113001633Y-87892731D01*
G37*
G36*
X113001633Y-89246746D02*
G01*
X111885066Y-89246746D01*
X111885066Y-88092730D01*
X113001633Y-88092730D01*
X113001633Y-89246746D01*
G37*
G36*
X113001633Y-90600762D02*
G01*
X111885066Y-90600762D01*
X111885066Y-89446746D01*
X113001633Y-89446746D01*
X113001633Y-90600762D01*
G37*
G36*
X113001633Y-91954777D02*
G01*
X111885066Y-91954777D01*
X111885066Y-90800761D01*
X113001633Y-90800761D01*
X113001633Y-91954777D01*
G37*
G36*
X113001633Y-93308792D02*
G01*
X111885066Y-93308792D01*
X111885066Y-92154777D01*
X113001633Y-92154777D01*
X113001633Y-93308792D01*
G37*
G36*
X113001633Y-94662808D02*
G01*
X111885066Y-94662808D01*
X111885066Y-93508792D01*
X113001633Y-93508792D01*
X113001633Y-94662808D01*
G37*
G36*
X113001633Y-96016823D02*
G01*
X111885066Y-96016823D01*
X111885066Y-94862808D01*
X113001633Y-94862808D01*
X113001633Y-96016823D01*
G37*
G36*
X113001633Y-97370839D02*
G01*
X111885066Y-97370839D01*
X111885066Y-96216823D01*
X113001633Y-96216823D01*
X113001633Y-97370839D01*
G37*
G36*
X113001633Y-98724854D02*
G01*
X111885066Y-98724854D01*
X111885066Y-97570838D01*
X113001633Y-97570838D01*
X113001633Y-98724854D01*
G37*
G36*
X113001633Y-100078870D02*
G01*
X111885066Y-100078870D01*
X111885066Y-98924854D01*
X113001633Y-98924854D01*
X113001633Y-100078870D01*
G37*
G36*
X113001633Y-101432885D02*
G01*
X111885066Y-101432885D01*
X111885066Y-100278869D01*
X113001633Y-100278869D01*
X113001633Y-101432885D01*
G37*
G36*
X113001633Y-102786900D02*
G01*
X111885066Y-102786900D01*
X111885066Y-101632885D01*
X113001633Y-101632885D01*
X113001633Y-102786900D01*
G37*
G36*
X114318200Y-86538715D02*
G01*
X113201633Y-86538715D01*
X113201633Y-85384700D01*
X114318200Y-85384700D01*
X114318200Y-86538715D01*
G37*
G36*
X114318200Y-87892731D02*
G01*
X113201633Y-87892731D01*
X113201633Y-86738715D01*
X114318200Y-86738715D01*
X114318200Y-87892731D01*
G37*
G36*
X114318200Y-89246746D02*
G01*
X113201633Y-89246746D01*
X113201633Y-88092730D01*
X114318200Y-88092730D01*
X114318200Y-89246746D01*
G37*
G36*
X114318200Y-90600762D02*
G01*
X113201633Y-90600762D01*
X113201633Y-89446746D01*
X114318200Y-89446746D01*
X114318200Y-90600762D01*
G37*
G36*
X114318200Y-91954777D02*
G01*
X113201633Y-91954777D01*
X113201633Y-90800761D01*
X114318200Y-90800761D01*
X114318200Y-91954777D01*
G37*
G36*
X114318200Y-93308792D02*
G01*
X113201633Y-93308792D01*
X113201633Y-92154777D01*
X114318200Y-92154777D01*
X114318200Y-93308792D01*
G37*
G36*
X114318200Y-94662808D02*
G01*
X113201633Y-94662808D01*
X113201633Y-93508792D01*
X114318200Y-93508792D01*
X114318200Y-94662808D01*
G37*
G36*
X114318200Y-96016823D02*
G01*
X113201633Y-96016823D01*
X113201633Y-94862808D01*
X114318200Y-94862808D01*
X114318200Y-96016823D01*
G37*
G36*
X114318200Y-97370839D02*
G01*
X113201633Y-97370839D01*
X113201633Y-96216823D01*
X114318200Y-96216823D01*
X114318200Y-97370839D01*
G37*
G36*
X114318200Y-98724854D02*
G01*
X113201633Y-98724854D01*
X113201633Y-97570838D01*
X114318200Y-97570838D01*
X114318200Y-98724854D01*
G37*
G36*
X114318200Y-100078870D02*
G01*
X113201633Y-100078870D01*
X113201633Y-98924854D01*
X114318200Y-98924854D01*
X114318200Y-100078870D01*
G37*
G36*
X114318200Y-101432885D02*
G01*
X113201633Y-101432885D01*
X113201633Y-100278869D01*
X114318200Y-100278869D01*
X114318200Y-101432885D01*
G37*
G36*
X114318200Y-102786900D02*
G01*
X113201633Y-102786900D01*
X113201633Y-101632885D01*
X114318200Y-101632885D01*
X114318200Y-102786900D01*
G37*
G36*
X115634767Y-86538715D02*
G01*
X114518200Y-86538715D01*
X114518200Y-85384700D01*
X115634767Y-85384700D01*
X115634767Y-86538715D01*
G37*
G36*
X115634767Y-87892731D02*
G01*
X114518200Y-87892731D01*
X114518200Y-86738715D01*
X115634767Y-86738715D01*
X115634767Y-87892731D01*
G37*
G36*
X115634767Y-89246746D02*
G01*
X114518200Y-89246746D01*
X114518200Y-88092730D01*
X115634767Y-88092730D01*
X115634767Y-89246746D01*
G37*
G36*
X115634767Y-90600762D02*
G01*
X114518200Y-90600762D01*
X114518200Y-89446746D01*
X115634767Y-89446746D01*
X115634767Y-90600762D01*
G37*
G36*
X115634767Y-91954777D02*
G01*
X114518200Y-91954777D01*
X114518200Y-90800761D01*
X115634767Y-90800761D01*
X115634767Y-91954777D01*
G37*
G36*
X115634767Y-93308792D02*
G01*
X114518200Y-93308792D01*
X114518200Y-92154777D01*
X115634767Y-92154777D01*
X115634767Y-93308792D01*
G37*
G36*
X115634767Y-94662808D02*
G01*
X114518200Y-94662808D01*
X114518200Y-93508792D01*
X115634767Y-93508792D01*
X115634767Y-94662808D01*
G37*
G36*
X115634767Y-96016823D02*
G01*
X114518200Y-96016823D01*
X114518200Y-94862808D01*
X115634767Y-94862808D01*
X115634767Y-96016823D01*
G37*
G36*
X115634767Y-97370839D02*
G01*
X114518200Y-97370839D01*
X114518200Y-96216823D01*
X115634767Y-96216823D01*
X115634767Y-97370839D01*
G37*
G36*
X115634767Y-98724854D02*
G01*
X114518200Y-98724854D01*
X114518200Y-97570838D01*
X115634767Y-97570838D01*
X115634767Y-98724854D01*
G37*
G36*
X115634767Y-100078870D02*
G01*
X114518200Y-100078870D01*
X114518200Y-98924854D01*
X115634767Y-98924854D01*
X115634767Y-100078870D01*
G37*
G36*
X115634767Y-101432885D02*
G01*
X114518200Y-101432885D01*
X114518200Y-100278869D01*
X115634767Y-100278869D01*
X115634767Y-101432885D01*
G37*
G36*
X115634767Y-102786900D02*
G01*
X114518200Y-102786900D01*
X114518200Y-101632885D01*
X115634767Y-101632885D01*
X115634767Y-102786900D01*
G37*
G36*
X116951333Y-86538715D02*
G01*
X115834766Y-86538715D01*
X115834766Y-85384700D01*
X116951333Y-85384700D01*
X116951333Y-86538715D01*
G37*
G36*
X116951333Y-87892731D02*
G01*
X115834766Y-87892731D01*
X115834766Y-86738715D01*
X116951333Y-86738715D01*
X116951333Y-87892731D01*
G37*
G36*
X116951333Y-89246746D02*
G01*
X115834766Y-89246746D01*
X115834766Y-88092730D01*
X116951333Y-88092730D01*
X116951333Y-89246746D01*
G37*
G36*
X116951333Y-90600762D02*
G01*
X115834766Y-90600762D01*
X115834766Y-89446746D01*
X116951333Y-89446746D01*
X116951333Y-90600762D01*
G37*
G36*
X116951333Y-91954777D02*
G01*
X115834766Y-91954777D01*
X115834766Y-90800761D01*
X116951333Y-90800761D01*
X116951333Y-91954777D01*
G37*
G36*
X116951333Y-93308792D02*
G01*
X115834766Y-93308792D01*
X115834766Y-92154777D01*
X116951333Y-92154777D01*
X116951333Y-93308792D01*
G37*
G36*
X116951333Y-94662808D02*
G01*
X115834766Y-94662808D01*
X115834766Y-93508792D01*
X116951333Y-93508792D01*
X116951333Y-94662808D01*
G37*
G36*
X116951333Y-96016823D02*
G01*
X115834766Y-96016823D01*
X115834766Y-94862808D01*
X116951333Y-94862808D01*
X116951333Y-96016823D01*
G37*
G36*
X116951333Y-97370839D02*
G01*
X115834766Y-97370839D01*
X115834766Y-96216823D01*
X116951333Y-96216823D01*
X116951333Y-97370839D01*
G37*
G36*
X116951333Y-98724854D02*
G01*
X115834766Y-98724854D01*
X115834766Y-97570838D01*
X116951333Y-97570838D01*
X116951333Y-98724854D01*
G37*
G36*
X116951333Y-100078870D02*
G01*
X115834766Y-100078870D01*
X115834766Y-98924854D01*
X116951333Y-98924854D01*
X116951333Y-100078870D01*
G37*
G36*
X116951333Y-101432885D02*
G01*
X115834766Y-101432885D01*
X115834766Y-100278869D01*
X116951333Y-100278869D01*
X116951333Y-101432885D01*
G37*
G36*
X116951333Y-102786900D02*
G01*
X115834766Y-102786900D01*
X115834766Y-101632885D01*
X116951333Y-101632885D01*
X116951333Y-102786900D01*
G37*
G36*
X118267900Y-86538715D02*
G01*
X117151333Y-86538715D01*
X117151333Y-85384700D01*
X118267900Y-85384700D01*
X118267900Y-86538715D01*
G37*
G36*
X118267900Y-87892731D02*
G01*
X117151333Y-87892731D01*
X117151333Y-86738715D01*
X118267900Y-86738715D01*
X118267900Y-87892731D01*
G37*
G36*
X118267900Y-89246746D02*
G01*
X117151333Y-89246746D01*
X117151333Y-88092730D01*
X118267900Y-88092730D01*
X118267900Y-89246746D01*
G37*
G36*
X118267900Y-90600762D02*
G01*
X117151333Y-90600762D01*
X117151333Y-89446746D01*
X118267900Y-89446746D01*
X118267900Y-90600762D01*
G37*
G36*
X118267900Y-91954777D02*
G01*
X117151333Y-91954777D01*
X117151333Y-90800761D01*
X118267900Y-90800761D01*
X118267900Y-91954777D01*
G37*
G36*
X118267900Y-93308792D02*
G01*
X117151333Y-93308792D01*
X117151333Y-92154777D01*
X118267900Y-92154777D01*
X118267900Y-93308792D01*
G37*
G36*
X118267900Y-94662808D02*
G01*
X117151333Y-94662808D01*
X117151333Y-93508792D01*
X118267900Y-93508792D01*
X118267900Y-94662808D01*
G37*
G36*
X118267900Y-96016823D02*
G01*
X117151333Y-96016823D01*
X117151333Y-94862808D01*
X118267900Y-94862808D01*
X118267900Y-96016823D01*
G37*
G36*
X118267900Y-97370839D02*
G01*
X117151333Y-97370839D01*
X117151333Y-96216823D01*
X118267900Y-96216823D01*
X118267900Y-97370839D01*
G37*
G36*
X118267900Y-98724854D02*
G01*
X117151333Y-98724854D01*
X117151333Y-97570838D01*
X118267900Y-97570838D01*
X118267900Y-98724854D01*
G37*
G36*
X118267900Y-100078870D02*
G01*
X117151333Y-100078870D01*
X117151333Y-98924854D01*
X118267900Y-98924854D01*
X118267900Y-100078870D01*
G37*
G36*
X118267900Y-101432885D02*
G01*
X117151333Y-101432885D01*
X117151333Y-100278869D01*
X118267900Y-100278869D01*
X118267900Y-101432885D01*
G37*
G36*
X118267900Y-102786900D02*
G01*
X117151333Y-102786900D01*
X117151333Y-101632885D01*
X118267900Y-101632885D01*
X118267900Y-102786900D01*
G37*
G36*
X89794500Y-113162800D02*
G01*
X88646499Y-113162800D01*
X88646499Y-111852800D01*
X89794500Y-111852800D01*
X89794500Y-113162800D01*
G37*
G36*
X89794500Y-114672800D02*
G01*
X88646499Y-114672800D01*
X88646499Y-113362800D01*
X89794500Y-113362800D01*
X89794500Y-114672800D01*
G37*
G36*
X91142499Y-113162800D02*
G01*
X89994497Y-113162800D01*
X89994497Y-111852800D01*
X91142499Y-111852800D01*
X91142499Y-113162800D01*
G37*
G36*
X91142499Y-114672800D02*
G01*
X89994497Y-114672800D01*
X89994497Y-113362800D01*
X91142499Y-113362800D01*
X91142499Y-114672800D01*
G37*
D11*
X89327000Y-115618800D03*
X90462000Y-115618800D03*
D12*
X85064600Y-99902100D03*
X85064600Y-101977100D03*
X96498500Y-111787300D03*
X96498500Y-113862300D03*
D13*
X91750000Y-83575000D03*
X91750000Y-81750000D03*
D14*
X116802900Y-108825500D03*
X116152900Y-108825500D03*
X115502900Y-108825500D03*
X114852900Y-108825500D03*
X114852900Y-114550500D03*
X115502900Y-114550500D03*
X116152900Y-114550500D03*
X116802900Y-114550500D03*
D15*
X123799600Y-104765600D03*
X123799600Y-106765600D03*
D12*
X98530500Y-111787300D03*
X98530500Y-113862300D03*
D16*
X83925500Y-108563800D03*
X81850500Y-108563800D03*
D17*
X80427250Y-99510150D03*
X82252250Y-99510150D03*
D18*
X118291200Y-128219200D03*
X121891200Y-128219200D03*
D19*
X101801100Y-114329600D03*
X107401100Y-114329600D03*
D14*
X112484900Y-108825500D03*
X111834900Y-108825500D03*
X111184900Y-108825500D03*
X110534900Y-108825500D03*
X110534900Y-114550500D03*
X111184900Y-114550500D03*
X111834900Y-114550500D03*
X112484900Y-114550500D03*
D20*
X90677500Y-80162500D03*
X91822500Y-80162500D03*
D13*
X101299100Y-121287300D03*
X101299100Y-119462300D03*
D21*
X90402500Y-109474300D03*
X90402500Y-107399300D03*
D22*
X99825900Y-121215000D03*
X99825900Y-120070000D03*
D23*
X88862900Y-80162400D03*
X87717900Y-80162400D03*
D24*
X90007500Y-104855800D03*
X92307500Y-104855800D03*
D25*
X92307500Y-98555800D03*
D24*
X94607500Y-104855800D03*
D26*
X101887600Y-88482100D03*
X101887600Y-89752100D03*
X101887600Y-91022100D03*
X101887600Y-92292100D03*
X101887600Y-93562100D03*
X101887600Y-94832100D03*
X101887600Y-96102100D03*
X101887600Y-97372100D03*
X101887600Y-98642100D03*
X101887600Y-99912100D03*
X101887600Y-101182100D03*
X101887600Y-102452100D03*
X101887600Y-103722100D03*
X101887600Y-104992100D03*
D27*
X104753500Y-106416700D03*
X106023500Y-106416700D03*
X107293500Y-106416700D03*
X108563500Y-106416700D03*
X109833500Y-106416700D03*
X111103500Y-106416700D03*
X112373500Y-106416700D03*
X113643500Y-106416700D03*
X114913500Y-106416700D03*
X116183500Y-106416700D03*
D26*
X119049400Y-104992100D03*
X119049400Y-103722100D03*
X119049400Y-102452100D03*
X119049400Y-101182100D03*
X119049400Y-99912100D03*
X119049400Y-98642100D03*
X119049400Y-97372100D03*
X119049400Y-96102100D03*
X119049400Y-94832100D03*
X119049400Y-93562100D03*
X119049400Y-92292100D03*
X119049400Y-91022100D03*
X119049400Y-89752100D03*
X119049400Y-88482100D03*
D28*
X86632800Y-104952800D03*
X84632800Y-104952800D03*
D29*
X79908400Y-105194700D03*
X79908400Y-103999700D03*
D13*
X94500000Y-83575000D03*
X94500000Y-81750000D03*
D30*
X114214400Y-118973600D03*
X116214400Y-118973600D03*
D21*
X94466500Y-109474300D03*
X94466500Y-107399300D03*
D31*
X99800500Y-90999300D03*
X99800500Y-94124300D03*
D13*
X88849200Y-83542500D03*
X88849200Y-81717500D03*
D32*
X104562600Y-109503600D03*
X107687600Y-109503600D03*
D12*
X97028000Y-98124100D03*
X97028000Y-100199100D03*
D15*
X118723500Y-108097200D03*
X118723500Y-110097200D03*
D33*
X89676500Y-96028800D03*
X89676500Y-88078800D03*
X94176500Y-96028800D03*
X94176500Y-88078800D03*
D34*
X99966000Y-88116800D03*
X96841000Y-88116800D03*
D33*
X82147500Y-96028800D03*
X82147500Y-88078800D03*
X86647500Y-96028800D03*
X86647500Y-88078800D03*
D31*
X79502000Y-92976300D03*
X79502000Y-96101300D03*
D30*
X103241600Y-120142000D03*
X105241600Y-120142000D03*
D35*
X87070800Y-120446800D03*
D36*
X80670800Y-120446800D03*
D37*
X92917100Y-114156300D03*
X92917100Y-113021300D03*
D38*
X91794499Y-114862799D03*
X91794499Y-114062801D03*
X91794499Y-113262800D03*
X91794499Y-112462799D03*
X91794499Y-111662801D03*
X87994501Y-111662801D03*
X87994501Y-112462799D03*
X87994501Y-113262800D03*
X87994501Y-114062801D03*
X87994501Y-114862799D03*
D21*
X97028000Y-105228300D03*
X97028000Y-103153300D03*
D39*
X126699100Y-106277800D03*
X126699100Y-111277800D03*
D40*
X111099600Y-118947600D03*
X111099600Y-122047600D03*
D32*
X118528700Y-124612400D03*
X121653700Y-124612400D03*
D41*
X123789300Y-122584600D03*
X123789300Y-121314600D03*
X123789300Y-120044600D03*
X123789300Y-118774600D03*
X118839300Y-118774600D03*
X118839300Y-120044600D03*
X118839300Y-121314600D03*
X118839300Y-122584600D03*
D42*
X99673500Y-109690800D03*
X99673500Y-107690800D03*
D15*
X96879500Y-90291800D03*
X96879500Y-92291800D03*
D21*
X92434500Y-109474300D03*
X92434500Y-107399300D03*
D30*
X114214400Y-122174000D03*
X116214400Y-122174000D03*
D20*
X93177500Y-80162500D03*
X94322500Y-80162500D03*
D43*
X84942500Y-114094800D03*
X81892500Y-114094800D03*
D42*
X97641500Y-109690800D03*
X97641500Y-107690800D03*
D16*
X100076000Y-85830800D03*
X98001000Y-85830800D03*
D21*
X88370500Y-109474300D03*
X88370500Y-107399300D03*
D12*
X94466500Y-111787300D03*
X94466500Y-113862300D03*
D44*
X120247500Y-115231700D03*
X120247500Y-112106700D03*
D45*
X101451500Y-108032300D03*
X101451500Y-109857300D03*
D12*
X87249000Y-99902100D03*
X87249000Y-101977100D03*
D16*
X83925500Y-110595800D03*
X81850500Y-110595800D03*
D44*
X79502000Y-91033600D03*
X79502000Y-87908600D03*
D28*
X82542950Y-101338950D03*
X80542950Y-101338950D03*
M02*
