G04 #@! TF.GenerationSoftware,KiCad,Pcbnew,8.0.7*
G04 #@! TF.CreationDate,2025-07-10T22:44:40+02:00*
G04 #@! TF.ProjectId,modbus-to-x,6d6f6462-7573-42d7-946f-2d782e6b6963,rev?*
G04 #@! TF.SameCoordinates,Original*
G04 #@! TF.FileFunction,Copper,L1,Top*
G04 #@! TF.FilePolarity,Positive*
%FSLAX46Y46*%
G04 Gerber Fmt 4.6, Leading zero omitted, Abs format (unit mm)*
G04 Created by KiCad (PCBNEW 8.0.7) date 2025-07-10 22:44:40*
%MOMM*%
%LPD*%
G01*
G04 APERTURE LIST*
G04 Aperture macros list*
%AMRoundRect*
0 Rectangle with rounded corners*
0 $1 Rounding radius*
0 $2 $3 $4 $5 $6 $7 $8 $9 X,Y pos of 4 corners*
0 Add a 4 corners polygon primitive as box body*
4,1,4,$2,$3,$4,$5,$6,$7,$8,$9,$2,$3,0*
0 Add four circle primitives for the rounded corners*
1,1,$1+$1,$2,$3*
1,1,$1+$1,$4,$5*
1,1,$1+$1,$6,$7*
1,1,$1+$1,$8,$9*
0 Add four rect primitives between the rounded corners*
20,1,$1+$1,$2,$3,$4,$5,0*
20,1,$1+$1,$4,$5,$6,$7,0*
20,1,$1+$1,$6,$7,$8,$9,0*
20,1,$1+$1,$8,$9,$2,$3,0*%
%AMOutline4P*
0 Free polygon, 4 corners , with rotation*
0 The origin of the aperture is its center*
0 number of corners: always 4*
0 $1 to $8 corner X, Y*
0 $9 Rotation angle, in degrees counterclockwise*
0 create outline with 4 corners*
4,1,4,$1,$2,$3,$4,$5,$6,$7,$8,$1,$2,$9*%
G04 Aperture macros list end*
G04 #@! TA.AperFunction,SMDPad,CuDef*
%ADD10R,1.300000X1.550000*%
G04 #@! TD*
G04 #@! TA.AperFunction,SMDPad,CuDef*
%ADD11RoundRect,0.160000X0.160000X-0.197500X0.160000X0.197500X-0.160000X0.197500X-0.160000X-0.197500X0*%
G04 #@! TD*
G04 #@! TA.AperFunction,SMDPad,CuDef*
%ADD12R,0.838200X0.889000*%
G04 #@! TD*
G04 #@! TA.AperFunction,SMDPad,CuDef*
%ADD13R,0.889000X0.838200*%
G04 #@! TD*
G04 #@! TA.AperFunction,ComponentPad*
%ADD14C,0.600000*%
G04 #@! TD*
G04 #@! TA.AperFunction,SMDPad,CuDef*
%ADD15R,15.798800X17.602200*%
G04 #@! TD*
G04 #@! TA.AperFunction,SMDPad,CuDef*
%ADD16RoundRect,0.155000X0.155000X-0.212500X0.155000X0.212500X-0.155000X0.212500X-0.155000X-0.212500X0*%
G04 #@! TD*
G04 #@! TA.AperFunction,SMDPad,CuDef*
%ADD17RoundRect,0.155000X-0.212500X-0.155000X0.212500X-0.155000X0.212500X0.155000X-0.212500X0.155000X0*%
G04 #@! TD*
G04 #@! TA.AperFunction,SMDPad,CuDef*
%ADD18RoundRect,0.250000X-0.475000X0.337500X-0.475000X-0.337500X0.475000X-0.337500X0.475000X0.337500X0*%
G04 #@! TD*
G04 #@! TA.AperFunction,SMDPad,CuDef*
%ADD19RoundRect,0.237500X0.237500X-0.250000X0.237500X0.250000X-0.237500X0.250000X-0.237500X-0.250000X0*%
G04 #@! TD*
G04 #@! TA.AperFunction,SMDPad,CuDef*
%ADD20RoundRect,0.100000X-0.100000X0.637500X-0.100000X-0.637500X0.100000X-0.637500X0.100000X0.637500X0*%
G04 #@! TD*
G04 #@! TA.AperFunction,SMDPad,CuDef*
%ADD21RoundRect,0.250000X-0.450000X0.350000X-0.450000X-0.350000X0.450000X-0.350000X0.450000X0.350000X0*%
G04 #@! TD*
G04 #@! TA.AperFunction,ComponentPad*
%ADD22R,1.700000X1.700000*%
G04 #@! TD*
G04 #@! TA.AperFunction,ComponentPad*
%ADD23O,1.700000X1.700000*%
G04 #@! TD*
G04 #@! TA.AperFunction,SMDPad,CuDef*
%ADD24RoundRect,0.250000X0.337500X0.475000X-0.337500X0.475000X-0.337500X-0.475000X0.337500X-0.475000X0*%
G04 #@! TD*
G04 #@! TA.AperFunction,SMDPad,CuDef*
%ADD25RoundRect,0.237500X-0.250000X-0.237500X0.250000X-0.237500X0.250000X0.237500X-0.250000X0.237500X0*%
G04 #@! TD*
G04 #@! TA.AperFunction,SMDPad,CuDef*
%ADD26RoundRect,0.250000X-1.050000X-0.550000X1.050000X-0.550000X1.050000X0.550000X-1.050000X0.550000X0*%
G04 #@! TD*
G04 #@! TA.AperFunction,SMDPad,CuDef*
%ADD27RoundRect,0.250000X-1.500000X-0.550000X1.500000X-0.550000X1.500000X0.550000X-1.500000X0.550000X0*%
G04 #@! TD*
G04 #@! TA.AperFunction,SMDPad,CuDef*
%ADD28RoundRect,0.160000X-0.222500X-0.160000X0.222500X-0.160000X0.222500X0.160000X-0.222500X0.160000X0*%
G04 #@! TD*
G04 #@! TA.AperFunction,SMDPad,CuDef*
%ADD29RoundRect,0.250000X0.475000X-0.337500X0.475000X0.337500X-0.475000X0.337500X-0.475000X-0.337500X0*%
G04 #@! TD*
G04 #@! TA.AperFunction,SMDPad,CuDef*
%ADD30RoundRect,0.160000X0.160000X-0.222500X0.160000X0.222500X-0.160000X0.222500X-0.160000X-0.222500X0*%
G04 #@! TD*
G04 #@! TA.AperFunction,SMDPad,CuDef*
%ADD31RoundRect,0.160000X0.222500X0.160000X-0.222500X0.160000X-0.222500X-0.160000X0.222500X-0.160000X0*%
G04 #@! TD*
G04 #@! TA.AperFunction,SMDPad,CuDef*
%ADD32RoundRect,0.375000X0.375000X-0.625000X0.375000X0.625000X-0.375000X0.625000X-0.375000X-0.625000X0*%
G04 #@! TD*
G04 #@! TA.AperFunction,SMDPad,CuDef*
%ADD33RoundRect,0.500000X1.400000X-0.500000X1.400000X0.500000X-1.400000X0.500000X-1.400000X-0.500000X0*%
G04 #@! TD*
G04 #@! TA.AperFunction,SMDPad,CuDef*
%ADD34RoundRect,0.250000X0.350000X0.450000X-0.350000X0.450000X-0.350000X-0.450000X0.350000X-0.450000X0*%
G04 #@! TD*
G04 #@! TA.AperFunction,SMDPad,CuDef*
%ADD35RoundRect,0.250000X-0.350000X-0.450000X0.350000X-0.450000X0.350000X0.450000X-0.350000X0.450000X0*%
G04 #@! TD*
G04 #@! TA.AperFunction,SMDPad,CuDef*
%ADD36RoundRect,0.250000X-0.650000X0.412500X-0.650000X-0.412500X0.650000X-0.412500X0.650000X0.412500X0*%
G04 #@! TD*
G04 #@! TA.AperFunction,SMDPad,CuDef*
%ADD37RoundRect,0.250000X-0.412500X-0.650000X0.412500X-0.650000X0.412500X0.650000X-0.412500X0.650000X0*%
G04 #@! TD*
G04 #@! TA.AperFunction,ComponentPad*
%ADD38R,2.032000X2.032000*%
G04 #@! TD*
G04 #@! TA.AperFunction,ComponentPad*
%ADD39C,2.032000*%
G04 #@! TD*
G04 #@! TA.AperFunction,SMDPad,CuDef*
%ADD40RoundRect,0.250000X0.412500X0.650000X-0.412500X0.650000X-0.412500X-0.650000X0.412500X-0.650000X0*%
G04 #@! TD*
G04 #@! TA.AperFunction,SMDPad,CuDef*
%ADD41Outline4P,-2.150000X-1.800000X2.150000X-0.800000X2.150000X0.800000X-2.150000X1.800000X180.000000*%
G04 #@! TD*
G04 #@! TA.AperFunction,SMDPad,CuDef*
%ADD42Outline4P,-2.150000X-1.800000X2.150000X-0.800000X2.150000X0.800000X-2.150000X1.800000X0.000000*%
G04 #@! TD*
G04 #@! TA.AperFunction,SMDPad,CuDef*
%ADD43O,0.599999X0.299999*%
G04 #@! TD*
G04 #@! TA.AperFunction,SMDPad,CuDef*
%ADD44R,2.600000X2.999999*%
G04 #@! TD*
G04 #@! TA.AperFunction,ComponentPad*
%ADD45C,0.499999*%
G04 #@! TD*
G04 #@! TA.AperFunction,SMDPad,CuDef*
%ADD46RoundRect,0.250000X-0.650000X1.500000X-0.650000X-1.500000X0.650000X-1.500000X0.650000X1.500000X0*%
G04 #@! TD*
G04 #@! TA.AperFunction,SMDPad,CuDef*
%ADD47RoundRect,0.250000X-0.625000X0.400000X-0.625000X-0.400000X0.625000X-0.400000X0.625000X0.400000X0*%
G04 #@! TD*
G04 #@! TA.AperFunction,SMDPad,CuDef*
%ADD48RoundRect,0.150000X0.825000X0.150000X-0.825000X0.150000X-0.825000X-0.150000X0.825000X-0.150000X0*%
G04 #@! TD*
G04 #@! TA.AperFunction,SMDPad,CuDef*
%ADD49RoundRect,0.250000X0.450000X-0.350000X0.450000X0.350000X-0.450000X0.350000X-0.450000X-0.350000X0*%
G04 #@! TD*
G04 #@! TA.AperFunction,SMDPad,CuDef*
%ADD50R,1.500000X3.600000*%
G04 #@! TD*
G04 #@! TA.AperFunction,ComponentPad*
%ADD51C,1.530000*%
G04 #@! TD*
G04 #@! TA.AperFunction,ComponentPad*
%ADD52R,1.530000X1.530000*%
G04 #@! TD*
G04 #@! TA.AperFunction,SMDPad,CuDef*
%ADD53RoundRect,0.250000X0.650000X-0.412500X0.650000X0.412500X-0.650000X0.412500X-0.650000X-0.412500X0*%
G04 #@! TD*
G04 #@! TA.AperFunction,SMDPad,CuDef*
%ADD54RoundRect,0.237500X-0.237500X0.250000X-0.237500X-0.250000X0.237500X-0.250000X0.237500X0.250000X0*%
G04 #@! TD*
G04 #@! TA.AperFunction,ComponentPad*
%ADD55R,2.413000X2.413000*%
G04 #@! TD*
G04 #@! TA.AperFunction,ComponentPad*
%ADD56C,2.413000*%
G04 #@! TD*
G04 #@! TA.AperFunction,ViaPad*
%ADD57C,0.600000*%
G04 #@! TD*
G04 #@! TA.AperFunction,ViaPad*
%ADD58C,0.500000*%
G04 #@! TD*
G04 #@! TA.AperFunction,Conductor*
%ADD59C,0.200000*%
G04 #@! TD*
G04 #@! TA.AperFunction,Conductor*
%ADD60C,0.635000*%
G04 #@! TD*
G04 #@! TA.AperFunction,Conductor*
%ADD61C,0.800000*%
G04 #@! TD*
G04 #@! TA.AperFunction,Conductor*
%ADD62C,0.500000*%
G04 #@! TD*
G04 #@! TA.AperFunction,Conductor*
%ADD63C,0.550000*%
G04 #@! TD*
G04 #@! TA.AperFunction,Conductor*
%ADD64C,0.400000*%
G04 #@! TD*
G04 APERTURE END LIST*
D10*
X86228700Y-98123100D03*
X86228700Y-90173100D03*
X90728700Y-98123100D03*
X90728700Y-90173100D03*
X93757700Y-98123100D03*
X93757700Y-90173100D03*
X98257700Y-98123100D03*
X98257700Y-90173100D03*
D11*
X83989600Y-107289000D03*
X83989600Y-106094000D03*
D12*
X105968800Y-90576400D03*
X105968800Y-91846400D03*
X105968800Y-93116400D03*
X105968800Y-94386400D03*
X105968800Y-95656400D03*
X105968800Y-96926400D03*
X105968800Y-98196400D03*
X105968800Y-99466400D03*
X105968800Y-100736400D03*
X105968800Y-102006400D03*
X105968800Y-103276400D03*
X105968800Y-104546400D03*
X105968800Y-105816400D03*
X105968800Y-107086400D03*
D13*
X108834700Y-108511000D03*
X110104700Y-108511000D03*
X111374700Y-108511000D03*
X112644700Y-108511000D03*
X113914700Y-108511000D03*
X115184700Y-108511000D03*
X116454700Y-108511000D03*
X117724700Y-108511000D03*
X118994700Y-108511000D03*
X120264700Y-108511000D03*
D12*
X123130600Y-107086400D03*
X123130600Y-105816400D03*
X123130600Y-104546400D03*
X123130600Y-103276400D03*
X123130600Y-102006400D03*
X123130600Y-100736400D03*
X123130600Y-99466400D03*
X123130600Y-98196400D03*
X123130600Y-96926400D03*
X123130600Y-95656400D03*
X123130600Y-94386400D03*
X123130600Y-93116400D03*
X123130600Y-91846400D03*
X123130600Y-90576400D03*
D14*
X108549700Y-90680100D03*
X108549700Y-94680100D03*
X108549700Y-98680100D03*
X108549700Y-103180100D03*
X112549700Y-90680100D03*
X112549700Y-94680100D03*
X112549700Y-98680100D03*
X112549700Y-103180100D03*
D15*
X114549700Y-99079800D03*
D14*
X116549700Y-90680100D03*
X116549700Y-94680100D03*
X116549700Y-98680100D03*
X116549700Y-103180100D03*
X120549700Y-90680100D03*
X120549700Y-94680100D03*
X120549700Y-98680100D03*
X120549700Y-103180100D03*
D16*
X97078800Y-116250600D03*
X97078800Y-115115600D03*
D17*
X94543200Y-117713100D03*
X93408200Y-117713100D03*
D18*
X89145800Y-101996400D03*
X89145800Y-104071400D03*
X100579700Y-113881600D03*
X100579700Y-115956600D03*
D19*
X96106800Y-86104100D03*
X96106800Y-84279100D03*
D20*
X120884100Y-110919800D03*
X120234100Y-110919800D03*
X119584100Y-110919800D03*
X118934100Y-110919800D03*
X118934100Y-116644800D03*
X119584100Y-116644800D03*
X120234100Y-116644800D03*
X120884100Y-116644800D03*
D21*
X127880800Y-106859900D03*
X127880800Y-108859900D03*
D22*
X131622800Y-121254600D03*
D23*
X131622800Y-123794600D03*
D18*
X102611700Y-113881600D03*
X102611700Y-115956600D03*
D24*
X88006700Y-110658100D03*
X85931700Y-110658100D03*
D25*
X84508450Y-101604450D03*
X86333450Y-101604450D03*
D26*
X122372400Y-130313500D03*
X125972400Y-130313500D03*
D27*
X105882300Y-116423900D03*
X111482300Y-116423900D03*
D20*
X116566100Y-110919800D03*
X115916100Y-110919800D03*
X115266100Y-110919800D03*
X114616100Y-110919800D03*
X114616100Y-116644800D03*
X115266100Y-116644800D03*
X115916100Y-116644800D03*
X116566100Y-116644800D03*
D28*
X95034300Y-82691600D03*
X96179300Y-82691600D03*
D19*
X105380300Y-123381600D03*
X105380300Y-121556600D03*
D29*
X94483700Y-111568600D03*
X94483700Y-109493600D03*
D30*
X103907100Y-123309300D03*
X103907100Y-122164300D03*
D31*
X93219700Y-82691500D03*
X92074700Y-82691500D03*
D32*
X94088700Y-106950100D03*
X96388700Y-106950100D03*
D33*
X96388700Y-100650100D03*
D32*
X98688700Y-106950100D03*
D34*
X90714000Y-107047100D03*
X88714000Y-107047100D03*
D19*
X98856800Y-86104100D03*
X98856800Y-84279100D03*
D35*
X118295600Y-121067900D03*
X120295600Y-121067900D03*
D29*
X98547700Y-111568600D03*
X98547700Y-109493600D03*
D36*
X103881700Y-93093600D03*
X103881700Y-96218600D03*
D19*
X93206000Y-86071600D03*
X93206000Y-84246600D03*
D37*
X108643800Y-111597900D03*
X111768800Y-111597900D03*
D38*
X114271600Y-130516700D03*
D39*
X117771600Y-130516700D03*
D38*
X128519700Y-100498100D03*
D39*
X128519700Y-103998100D03*
D18*
X101109200Y-100218400D03*
X101109200Y-102293400D03*
D21*
X122804700Y-110191500D03*
X122804700Y-112191500D03*
D40*
X104047200Y-90211100D03*
X100922200Y-90211100D03*
D36*
X83583200Y-95070600D03*
X83583200Y-98195600D03*
D35*
X107322800Y-122236300D03*
X109322800Y-122236300D03*
D41*
X91152000Y-122541100D03*
D42*
X84752000Y-122541100D03*
D43*
X95875699Y-116957099D03*
X95875699Y-116157101D03*
X95875699Y-115357100D03*
X95875699Y-114557099D03*
X95875699Y-113757101D03*
X92075701Y-113757101D03*
X92075701Y-114557099D03*
X92075701Y-115357100D03*
X92075701Y-116157101D03*
X92075701Y-116957099D03*
D44*
X93975700Y-115357100D03*
D45*
X94975701Y-115357100D03*
X93975700Y-116557100D03*
X93975700Y-115357100D03*
X93975700Y-114157100D03*
X92975702Y-115357100D03*
D29*
X101109200Y-107322600D03*
X101109200Y-105247600D03*
D46*
X130780300Y-108372100D03*
X130780300Y-113372100D03*
D47*
X115180800Y-121041900D03*
X115180800Y-124141900D03*
D37*
X122609900Y-126706700D03*
X125734900Y-126706700D03*
D48*
X127870500Y-124678900D03*
X127870500Y-123408900D03*
X127870500Y-122138900D03*
X127870500Y-120868900D03*
X122920500Y-120868900D03*
X122920500Y-122138900D03*
X122920500Y-123408900D03*
X122920500Y-124678900D03*
D49*
X103754700Y-111785100D03*
X103754700Y-109785100D03*
D21*
X100960700Y-92386100D03*
X100960700Y-94386100D03*
D29*
X96515700Y-111568600D03*
X96515700Y-109493600D03*
D35*
X118295600Y-124268300D03*
X120295600Y-124268300D03*
D28*
X97899500Y-82691600D03*
X99044500Y-82691600D03*
D50*
X89023700Y-116189100D03*
X85973700Y-116189100D03*
D49*
X101722700Y-111785100D03*
X101722700Y-109785100D03*
D24*
X104157200Y-87925100D03*
X102082200Y-87925100D03*
D29*
X92451700Y-111568600D03*
X92451700Y-109493600D03*
D18*
X98547700Y-113881600D03*
X98547700Y-115956600D03*
D51*
X107594400Y-130810000D03*
X107594400Y-128270000D03*
X105054400Y-130810000D03*
X105054400Y-128270000D03*
X102514400Y-130810000D03*
X102514400Y-128270000D03*
X99974400Y-130810000D03*
X99974400Y-128270000D03*
X97434400Y-130810000D03*
X97434400Y-128270000D03*
X94894400Y-130810000D03*
X94894400Y-128270000D03*
X92354400Y-130810000D03*
X92354400Y-128270000D03*
X89814400Y-130810000D03*
X89814400Y-128270000D03*
X87274400Y-130810000D03*
X87274400Y-128270000D03*
X84734400Y-130810000D03*
D52*
X84734400Y-128270000D03*
D53*
X124328700Y-117326000D03*
X124328700Y-114201000D03*
D54*
X105532700Y-110126600D03*
X105532700Y-111951600D03*
D18*
X91330200Y-101996400D03*
X91330200Y-104071400D03*
D55*
X128519700Y-89195100D03*
D56*
X128519700Y-92695100D03*
X128519700Y-96195100D03*
D24*
X88006700Y-112690100D03*
X85931700Y-112690100D03*
D53*
X83583200Y-93127900D03*
X83583200Y-90002900D03*
D34*
X86624150Y-103433250D03*
X84624150Y-103433250D03*
D57*
X104749600Y-98247200D03*
X103479600Y-97739200D03*
X97907700Y-88493600D03*
X90746000Y-109790300D03*
X84345200Y-114514700D03*
X100198700Y-109515100D03*
D58*
X91105500Y-108956300D03*
X85973700Y-118914100D03*
X84091200Y-109282300D03*
D57*
X105968800Y-89267000D03*
X117060400Y-124674700D03*
D58*
X85513600Y-120356700D03*
D57*
X85394800Y-126390400D03*
X103907100Y-124501100D03*
X97606800Y-83779100D03*
D58*
X117754400Y-110490000D03*
D57*
X92202000Y-91135200D03*
X85750400Y-88696800D03*
D58*
X124176300Y-120868900D03*
X106853500Y-111699500D03*
X110337600Y-131470400D03*
X98602800Y-126644400D03*
D57*
X100198700Y-111547100D03*
D58*
X125696400Y-114201000D03*
D57*
X94882400Y-83859900D03*
X129916700Y-116119100D03*
X124307600Y-88849200D03*
X91254000Y-116157101D03*
X108834700Y-109642100D03*
X94098800Y-105167500D03*
X101831200Y-96344300D03*
D58*
X106802700Y-110531100D03*
D57*
X82702400Y-102616000D03*
D58*
X113457500Y-110886700D03*
X88358400Y-100290700D03*
D57*
X123707601Y-109242100D03*
X90728700Y-90173100D03*
X95368800Y-106234300D03*
X126661600Y-105065900D03*
X105380300Y-124501100D03*
X93641600Y-100239900D03*
D58*
X113457500Y-112105900D03*
X121276800Y-109485500D03*
X124227100Y-124653500D03*
X121991900Y-117185900D03*
D57*
X99124200Y-100650100D03*
X121022800Y-119941700D03*
X102988800Y-91705500D03*
X106646400Y-120610700D03*
X102226800Y-92670700D03*
D58*
X120884100Y-112105900D03*
D57*
X93692400Y-101408300D03*
D58*
X107086400Y-124510800D03*
X113182400Y-114452400D03*
X124328700Y-92344700D03*
D57*
X122804700Y-112191500D03*
D58*
X113639600Y-118008400D03*
X126238000Y-107848400D03*
X124358400Y-96367600D03*
X126356800Y-116343500D03*
X91283600Y-115357100D03*
D57*
X89120400Y-109028300D03*
X92117600Y-107047100D03*
D58*
X109999200Y-113193900D03*
D57*
X96892800Y-114006700D03*
X100194800Y-112533500D03*
X110794800Y-121513600D03*
D58*
X126509200Y-122845900D03*
X118686000Y-109485500D03*
D57*
X127169600Y-112635100D03*
X127830000Y-119239100D03*
X127876100Y-115327500D03*
X131318000Y-118668800D03*
X103835200Y-105816400D03*
X103835200Y-104800400D03*
X103835200Y-103835200D03*
X124307600Y-100736400D03*
X124307600Y-101854000D03*
X124307600Y-102870000D03*
X124307600Y-90982800D03*
D59*
X98257700Y-88843600D02*
X98257700Y-90173100D01*
X97907700Y-88493600D02*
X98257700Y-88843600D01*
D60*
X109677200Y-130810000D02*
X107594400Y-130810000D01*
X110337600Y-131470400D02*
X109677200Y-130810000D01*
D59*
X104749600Y-98247200D02*
X104800400Y-98196400D01*
X104800400Y-98196400D02*
X105968800Y-98196400D01*
X105021144Y-96926400D02*
X105968800Y-96926400D01*
X103479600Y-97739200D02*
X104208344Y-97739200D01*
X104208344Y-97739200D02*
X105021144Y-96926400D01*
D60*
X86228700Y-89175100D02*
X86228700Y-90173100D01*
X85750400Y-88696800D02*
X86228700Y-89175100D01*
X92795600Y-91135200D02*
X93757700Y-90173100D01*
X92202000Y-91135200D02*
X92795600Y-91135200D01*
D59*
X98257700Y-91683100D02*
X100960700Y-94386100D01*
X98257700Y-90173100D02*
X98257700Y-91683100D01*
D60*
X95969198Y-116250600D02*
X95875699Y-116157101D01*
X97078800Y-116250600D02*
X95969198Y-116250600D01*
X98253700Y-116250600D02*
X97078800Y-116250600D01*
X98547700Y-115956600D02*
X98253700Y-116250600D01*
X97313700Y-115115600D02*
X97078800Y-115115600D01*
X98547700Y-113881600D02*
X97313700Y-115115600D01*
D59*
X82702400Y-102616000D02*
X83713950Y-101604450D01*
X83713950Y-101604450D02*
X84508450Y-101604450D01*
X118184200Y-110919800D02*
X118934100Y-110919800D01*
X117754400Y-110490000D02*
X118184200Y-110919800D01*
X126238000Y-107848400D02*
X127249500Y-108859900D01*
X127249500Y-108859900D02*
X127880800Y-108859900D01*
D60*
X84091200Y-107390600D02*
X83989600Y-107289000D01*
X99091200Y-107352600D02*
X98688700Y-106950100D01*
X81381600Y-130098800D02*
X83718400Y-132435600D01*
X84091200Y-109282300D02*
X84555900Y-109282300D01*
X85973700Y-118914100D02*
X82507900Y-118914100D01*
X85973700Y-116189100D02*
X85973700Y-112732100D01*
X81381600Y-120040400D02*
X81381600Y-130098800D01*
X96515700Y-109493600D02*
X98547700Y-109493600D01*
X83718400Y-132435600D02*
X103784400Y-132435600D01*
X91042700Y-109493600D02*
X90746000Y-109790300D01*
X100198700Y-108422600D02*
X98726200Y-106950100D01*
X84555900Y-109282300D02*
X85931700Y-110658100D01*
X98688700Y-106950100D02*
X98688700Y-109352600D01*
X98688700Y-109352600D02*
X98547700Y-109493600D01*
X98726200Y-106950100D02*
X98688700Y-106950100D01*
X92451700Y-109493600D02*
X94483700Y-109493600D01*
X92451700Y-109493600D02*
X91042700Y-109493600D01*
X100198700Y-109515100D02*
X100198700Y-108422600D01*
X98547700Y-109493600D02*
X100177200Y-109493600D01*
X85973700Y-118914100D02*
X85973700Y-116189100D01*
X100736700Y-106950100D02*
X101109200Y-107322600D01*
X85973700Y-112732100D02*
X85931700Y-112690100D01*
X82507900Y-118914100D02*
X81381600Y-120040400D01*
X100177200Y-109493600D02*
X100198700Y-109515100D01*
X98688700Y-106950100D02*
X100736700Y-106950100D01*
X91105500Y-108956300D02*
X91642800Y-109493600D01*
X84091200Y-109282300D02*
X84091200Y-107390600D01*
X103784400Y-132435600D02*
X105054400Y-131165600D01*
X91642800Y-109493600D02*
X92451700Y-109493600D01*
X85931700Y-116147100D02*
X85973700Y-116189100D01*
X94483700Y-109493600D02*
X96515700Y-109493600D01*
X105054400Y-131165600D02*
X105054400Y-130810000D01*
X85931700Y-112690100D02*
X85931700Y-110658100D01*
X125234500Y-122168520D02*
X125234500Y-121672800D01*
D61*
X98547700Y-113881600D02*
X100579700Y-113881600D01*
D59*
X101831200Y-96344300D02*
X103756000Y-96344300D01*
D61*
X98547700Y-113881600D02*
X97555200Y-112889100D01*
D60*
X106955100Y-111597900D02*
X106853500Y-111699500D01*
D62*
X94483700Y-111568600D02*
X92451700Y-111568600D01*
D60*
X123130600Y-90026200D02*
X124307600Y-88849200D01*
D62*
X125696400Y-114201000D02*
X124328700Y-114201000D01*
D60*
X94098800Y-106940000D02*
X94098800Y-105167500D01*
X125734900Y-122647400D02*
X125713380Y-122647400D01*
D59*
X97899500Y-83486400D02*
X97899500Y-82691600D01*
X97899500Y-82691600D02*
X97279500Y-82071600D01*
D60*
X125234500Y-121672800D02*
X124430600Y-120868900D01*
X96972900Y-102293400D02*
X101109200Y-102293400D01*
D59*
X97279500Y-82071600D02*
X95654300Y-82071600D01*
D60*
X94178900Y-105247600D02*
X101109200Y-105247600D01*
D62*
X125734900Y-130076000D02*
X125972400Y-130313500D01*
D59*
X91330200Y-101996400D02*
X89145800Y-101996400D01*
D60*
X108643800Y-111597900D02*
X106955100Y-111597900D01*
D59*
X118295600Y-124268300D02*
X117466800Y-124268300D01*
X94882400Y-83859900D02*
X95034300Y-83708000D01*
X114616100Y-110919800D02*
X113490600Y-110919800D01*
D61*
X108940000Y-113881600D02*
X111482300Y-116423900D01*
D60*
X98602800Y-126644400D02*
X97434400Y-127812800D01*
D59*
X93473700Y-82437500D02*
X94780200Y-82437500D01*
D63*
X91254000Y-116157101D02*
X92075701Y-116157101D01*
D60*
X125713380Y-122647400D02*
X125234500Y-122168520D01*
X84734400Y-130810000D02*
X84734400Y-128270000D01*
X85513600Y-121829900D02*
X84752000Y-122591500D01*
X129916700Y-116119100D02*
X130780300Y-115255500D01*
D62*
X125734900Y-126706700D02*
X125734900Y-122647400D01*
D59*
X103756000Y-96344300D02*
X103881700Y-96218600D01*
D61*
X93975700Y-113222101D02*
X93975700Y-114157100D01*
D60*
X84734400Y-128270000D02*
X84734400Y-127050800D01*
D62*
X100177200Y-111568600D02*
X96515700Y-111568600D01*
D60*
X94098800Y-105167500D02*
X96972900Y-102293400D01*
D59*
X95034300Y-83708000D02*
X95034300Y-82691600D01*
D60*
X123130600Y-90576400D02*
X123130600Y-90026200D01*
X97434400Y-127812800D02*
X97434400Y-128270000D01*
D62*
X104157200Y-90101100D02*
X104047200Y-90211100D01*
D61*
X102611700Y-113881600D02*
X108940000Y-113881600D01*
D59*
X97606800Y-83779100D02*
X97899500Y-83486400D01*
D60*
X105968800Y-88640300D02*
X105253600Y-87925100D01*
D59*
X93219700Y-82691500D02*
X93473700Y-82437500D01*
D61*
X97555200Y-112889100D02*
X94308701Y-112889100D01*
D59*
X95654300Y-82071600D02*
X95034300Y-82691600D01*
D60*
X124430600Y-120868900D02*
X124176300Y-120868900D01*
D59*
X117466800Y-124268300D02*
X117060400Y-124674700D01*
D61*
X94308701Y-112889100D02*
X93975700Y-113222101D01*
D62*
X108834700Y-108511000D02*
X108834700Y-109642100D01*
X125734900Y-126706700D02*
X125734900Y-130076000D01*
X100198700Y-111547100D02*
X100177200Y-111568600D01*
D60*
X94098800Y-105167500D02*
X94178900Y-105247600D01*
X105968800Y-89267000D02*
X105968800Y-90576400D01*
D59*
X84752000Y-122591500D02*
X84752000Y-122541100D01*
X88358400Y-100290700D02*
X88358400Y-101209000D01*
X88358400Y-101209000D02*
X89145800Y-101996400D01*
D62*
X96515700Y-111568600D02*
X94483700Y-111568600D01*
D59*
X113490600Y-110919800D02*
X113457500Y-110886700D01*
D61*
X100579700Y-113881600D02*
X102611700Y-113881600D01*
D60*
X124176300Y-120868900D02*
X122920500Y-120868900D01*
D62*
X94088700Y-106950100D02*
X94098800Y-106940000D01*
D59*
X94780200Y-82437500D02*
X95034300Y-82691600D01*
D60*
X104157200Y-87925100D02*
X104157200Y-90101100D01*
D59*
X103907100Y-124501100D02*
X103907100Y-123309300D01*
D60*
X130780300Y-115255500D02*
X130780300Y-113372100D01*
X105968800Y-89267000D02*
X105968800Y-88640300D01*
X105253600Y-87925100D02*
X104157200Y-87925100D01*
X85513600Y-120356700D02*
X85513600Y-121829900D01*
X84734400Y-127050800D02*
X85394800Y-126390400D01*
D59*
X105946000Y-93093600D02*
X105968800Y-93116400D01*
X102589200Y-94386100D02*
X103881700Y-93093600D01*
X103881700Y-93093600D02*
X105946000Y-93093600D01*
X100960700Y-94386100D02*
X102589200Y-94386100D01*
X123130600Y-108665099D02*
X123130600Y-107086400D01*
X123707601Y-109242100D02*
X123130600Y-108665099D01*
X120295600Y-121067900D02*
X120295600Y-120668900D01*
D62*
X105380300Y-124501100D02*
X105380300Y-123381600D01*
X103129700Y-91846400D02*
X105968800Y-91846400D01*
X112276800Y-112105900D02*
X113457500Y-112105900D01*
D60*
X95368800Y-106234300D02*
X95672900Y-106234300D01*
D62*
X121982800Y-110191500D02*
X122804700Y-110191500D01*
D60*
X101951600Y-90211100D02*
X102867200Y-91126700D01*
X94894400Y-128270000D02*
X94894400Y-127050800D01*
D64*
X115641900Y-112105900D02*
X115916100Y-111831700D01*
D62*
X124227100Y-124653500D02*
X124201700Y-124678900D01*
D64*
X113457500Y-112105900D02*
X115641900Y-112105900D01*
D60*
X94051800Y-100650100D02*
X93641600Y-100239900D01*
D62*
X124201700Y-124678900D02*
X122920500Y-124678900D01*
D60*
X102082200Y-87925100D02*
X101892400Y-87925100D01*
X95672900Y-106234300D02*
X96388700Y-106950100D01*
X96388700Y-100650100D02*
X94051800Y-100650100D01*
D62*
X122920500Y-126396100D02*
X122609900Y-126706700D01*
D60*
X99124200Y-100650100D02*
X100677500Y-100650100D01*
X93692400Y-101408300D02*
X93692400Y-100290700D01*
D62*
X102988800Y-91705500D02*
X103129700Y-91846400D01*
D60*
X101892400Y-87925100D02*
X100922200Y-88895300D01*
D62*
X122920500Y-124678900D02*
X122920500Y-126396100D01*
D59*
X107322800Y-121287100D02*
X106646400Y-120610700D01*
D60*
X99124200Y-100650100D02*
X96388700Y-100650100D01*
X93692400Y-100290700D02*
X93641600Y-100239900D01*
X96367600Y-125577600D02*
X106019600Y-125577600D01*
X102226800Y-92670700D02*
X101942200Y-92386100D01*
D62*
X122609900Y-126706700D02*
X122609900Y-130076000D01*
D60*
X94894400Y-127050800D02*
X96367600Y-125577600D01*
X100922200Y-88895300D02*
X100922200Y-90211100D01*
D62*
X116566100Y-115214500D02*
X113457500Y-112105900D01*
X122609900Y-130076000D02*
X122372400Y-130313500D01*
X111768800Y-111597900D02*
X112276800Y-112105900D01*
X120884100Y-116644800D02*
X121450800Y-116644800D01*
X126661600Y-105065900D02*
X127880800Y-106285100D01*
X127880800Y-106285100D02*
X127880800Y-106859900D01*
X120884100Y-112105900D02*
X120884100Y-110919800D01*
D60*
X96388700Y-100650100D02*
X94450600Y-100650100D01*
D59*
X107322800Y-122236300D02*
X107322800Y-121287100D01*
D62*
X124328700Y-117326000D02*
X122132000Y-117326000D01*
D60*
X94450600Y-100650100D02*
X93692400Y-101408300D01*
X106019600Y-125577600D02*
X107086400Y-124510800D01*
X102867200Y-91583900D02*
X102988800Y-91705500D01*
X100922200Y-90211100D02*
X101951600Y-90211100D01*
D59*
X120295600Y-120668900D02*
X121022800Y-119941700D01*
D60*
X102867200Y-91126700D02*
X102867200Y-91583900D01*
D62*
X121276800Y-109485500D02*
X121982800Y-110191500D01*
X121450800Y-116644800D02*
X121991900Y-117185900D01*
D60*
X100677500Y-100650100D02*
X101109200Y-100218400D01*
X101942200Y-92386100D02*
X100960700Y-92386100D01*
D62*
X122132000Y-117326000D02*
X121991900Y-117185900D01*
X116566100Y-116644800D02*
X116566100Y-115214500D01*
D64*
X115916100Y-111831700D02*
X115916100Y-110919800D01*
D60*
X93408200Y-120284900D02*
X91152000Y-122541100D01*
X93408200Y-117713100D02*
X93408200Y-120284900D01*
X92075701Y-117708099D02*
X92070700Y-117713100D01*
X92075701Y-116957099D02*
X92075701Y-117708099D01*
X90547700Y-117713100D02*
X92070700Y-117713100D01*
X89023700Y-116189100D02*
X90547700Y-117713100D01*
X92070700Y-117713100D02*
X93408200Y-117713100D01*
D62*
X95353500Y-117713100D02*
X95875699Y-117190901D01*
X95875699Y-117190901D02*
X95875699Y-117022602D01*
X95185201Y-117713100D02*
X95353500Y-117713100D01*
X94543200Y-117713100D02*
X95185201Y-117713100D01*
D59*
X105380300Y-121556600D02*
X104514800Y-121556600D01*
X104514800Y-121556600D02*
X103907100Y-122164300D01*
X128519700Y-89195100D02*
X128519700Y-89767900D01*
X123901200Y-94386400D02*
X123130600Y-94386400D01*
X128519700Y-89767900D02*
X123901200Y-94386400D01*
X127101600Y-92710000D02*
X124155200Y-95656400D01*
X124155200Y-95656400D02*
X123130600Y-95656400D01*
X128504800Y-92710000D02*
X127101600Y-92710000D01*
X128519700Y-92695100D02*
X128504800Y-92710000D01*
D61*
X95875699Y-114557099D02*
X95875699Y-115357100D01*
D60*
X105882300Y-116423900D02*
X105415000Y-115956600D01*
X108813600Y-128270000D02*
X107594400Y-128270000D01*
X130780300Y-102758700D02*
X130780300Y-108372100D01*
X105415000Y-115956600D02*
X100579700Y-115956600D01*
X108582600Y-119124200D02*
X125844800Y-119124200D01*
X125844800Y-119124200D02*
X128693600Y-116275400D01*
X128693600Y-110458800D02*
X130780300Y-108372100D01*
X110540800Y-126542800D02*
X108813600Y-128270000D01*
X100579700Y-115956600D02*
X98547700Y-115956600D01*
X128693600Y-116275400D02*
X128693600Y-110458800D01*
D61*
X95875699Y-115357100D02*
X95875699Y-116157101D01*
D60*
X128519700Y-100498100D02*
X130780300Y-102758700D01*
X112826800Y-121564400D02*
X110540800Y-123850400D01*
X112826800Y-119124200D02*
X112826800Y-121564400D01*
X110540800Y-123850400D02*
X110540800Y-126542800D01*
X105882300Y-116423900D02*
X108582600Y-119124200D01*
D59*
X115266100Y-115988844D02*
X115266100Y-116644800D01*
X120063444Y-115509500D02*
X119584100Y-115988844D01*
X120042244Y-115530700D02*
X120063444Y-115509500D01*
X115266100Y-116644800D02*
X115266100Y-117300756D01*
X115266100Y-117300756D02*
X115647644Y-117682300D01*
X123130600Y-93116400D02*
X123557000Y-93116400D01*
X115647644Y-117682300D02*
X117583900Y-117682300D01*
X118434100Y-116832100D02*
X118434100Y-115838844D01*
X118742244Y-115530700D02*
X120042244Y-115530700D01*
X122804700Y-112191500D02*
X122804700Y-112783600D01*
X122804700Y-112783600D02*
X120078800Y-115509500D01*
X120078800Y-115509500D02*
X120063444Y-115509500D01*
X113182400Y-114452400D02*
X113729656Y-114452400D01*
X113729656Y-114452400D02*
X115266100Y-115988844D01*
X117583900Y-117682300D02*
X118434100Y-116832100D01*
X119584100Y-115988844D02*
X119584100Y-116644800D01*
X123557000Y-93116400D02*
X124328700Y-92344700D01*
X118434100Y-115838844D02*
X118742244Y-115530700D01*
X124358400Y-96367600D02*
X123799600Y-96926400D01*
X114616100Y-117714900D02*
X115255500Y-118354300D01*
X118934100Y-117379300D02*
X119909100Y-118354300D01*
X125547900Y-118354300D02*
X126356800Y-117545400D01*
X118934100Y-116644800D02*
X118934100Y-117379300D01*
X115255500Y-118354300D02*
X125547900Y-118354300D01*
X113868200Y-117779800D02*
X114681000Y-117779800D01*
X126356800Y-117545400D02*
X126356800Y-116343500D01*
X113639600Y-118008400D02*
X113868200Y-117779800D01*
X114616100Y-116644800D02*
X114616100Y-117714900D01*
X123799600Y-96926400D02*
X123130600Y-96926400D01*
X89120400Y-109028300D02*
X88714000Y-108621900D01*
X88714000Y-108621900D02*
X88714000Y-107047100D01*
X91283600Y-115357100D02*
X92075701Y-115357100D01*
X110104700Y-113088400D02*
X110104700Y-108511000D01*
X92117600Y-107047100D02*
X90714000Y-107047100D01*
X109999200Y-113193900D02*
X110104700Y-113088400D01*
X103754700Y-111785100D02*
X105366200Y-111785100D01*
X105366200Y-111785100D02*
X105532700Y-111951600D01*
X101722700Y-109785100D02*
X103754700Y-109785100D01*
X88006700Y-110505400D02*
X86174000Y-108672700D01*
X84624150Y-103433250D02*
X83989600Y-104067800D01*
X86174000Y-107707500D02*
X84560500Y-106094000D01*
X83989600Y-104067800D02*
X83989600Y-106094000D01*
X88006700Y-110658100D02*
X88006700Y-110607000D01*
X86174000Y-108672700D02*
X86174000Y-107707500D01*
X88006700Y-110658100D02*
X88006700Y-110505400D01*
X92075701Y-114557099D02*
X90734688Y-114557099D01*
X88867689Y-112690100D02*
X88006700Y-112690100D01*
X84560500Y-106094000D02*
X83989600Y-106094000D01*
X90734688Y-114557099D02*
X88867689Y-112690100D01*
X88006700Y-110658100D02*
X88006700Y-112690100D01*
X86333450Y-101604450D02*
X86333450Y-103142550D01*
X86333450Y-103142550D02*
X86624150Y-103433250D01*
X101722700Y-111785100D02*
X101400400Y-111785100D01*
X100652000Y-112533500D02*
X100194800Y-112533500D01*
X101400400Y-111785100D02*
X100652000Y-112533500D01*
X96643201Y-113757101D02*
X95875699Y-113757101D01*
X96892800Y-114006700D02*
X96643201Y-113757101D01*
X115180800Y-124141900D02*
X115180800Y-122998900D01*
X113058668Y-125516500D02*
X113037069Y-125516500D01*
X120295600Y-123000100D02*
X120294400Y-122998900D01*
X116246601Y-128368701D02*
X113394400Y-125516500D01*
X117771600Y-130516700D02*
X116246601Y-128991701D01*
X112408600Y-124888031D02*
X112408600Y-124107500D01*
X116246601Y-128991701D02*
X116246601Y-128368701D01*
X121047999Y-122998900D02*
X121457999Y-123408900D01*
X115180800Y-122998900D02*
X115180200Y-122998300D01*
X120294400Y-122998900D02*
X121047999Y-122998900D01*
X112408600Y-124888031D02*
X113037069Y-125516500D01*
X121457999Y-123408900D02*
X122920500Y-123408900D01*
X113394400Y-125516500D02*
X113058668Y-125516500D01*
X120295600Y-124268300D02*
X120295600Y-123000100D01*
X113517200Y-122998900D02*
X120294400Y-122998900D01*
X112408600Y-124107500D02*
X113517200Y-122998900D01*
X118994700Y-108511000D02*
X118994700Y-109176800D01*
X127216200Y-122138900D02*
X127870500Y-122138900D01*
X127870500Y-123408900D02*
X127072200Y-123408900D01*
X110794800Y-122529600D02*
X105054400Y-128270000D01*
X118994700Y-109176800D02*
X118686000Y-109485500D01*
X110794800Y-121513600D02*
X110045500Y-121513600D01*
X110794800Y-121513600D02*
X110794800Y-122529600D01*
X127072200Y-123408900D02*
X126509200Y-122845900D01*
X110045500Y-121513600D02*
X109322800Y-122236300D01*
X126509200Y-122845900D02*
X127216200Y-122138900D01*
X91355600Y-104659500D02*
X91355600Y-104096800D01*
X92075701Y-113757101D02*
X89730000Y-111411400D01*
X91330200Y-104071400D02*
X89145800Y-104071400D01*
X89730000Y-106285100D02*
X91355600Y-104659500D01*
X91355600Y-104096800D02*
X91330200Y-104071400D01*
X89730000Y-111411400D02*
X89730000Y-106285100D01*
X99044500Y-84091400D02*
X98856800Y-84279100D01*
X99044500Y-82691600D02*
X99044500Y-84091400D01*
X96106800Y-82764100D02*
X96179300Y-82691600D01*
X96106800Y-84279100D02*
X96106800Y-82764100D01*
X92074700Y-82691500D02*
X92074700Y-83115300D01*
X92074700Y-83115300D02*
X93206000Y-84246600D01*
X88253700Y-98123100D02*
X90728700Y-98123100D01*
X83583200Y-95070600D02*
X85201200Y-95070600D01*
X85201200Y-95070600D02*
X88253700Y-98123100D01*
X86228700Y-98123100D02*
X86156200Y-98195600D01*
X86156200Y-98195600D02*
X83583200Y-98195600D01*
X98257700Y-98123100D02*
X97468400Y-98123100D01*
X92473200Y-93127900D02*
X83583200Y-93127900D01*
X97468400Y-98123100D02*
X92473200Y-93127900D01*
X92682700Y-99198100D02*
X82738456Y-99198100D01*
X82738456Y-99198100D02*
X82383200Y-98842844D01*
X93757700Y-98123100D02*
X92682700Y-99198100D01*
X82383200Y-98842844D02*
X82383200Y-91202900D01*
X82383200Y-91202900D02*
X83583200Y-90002900D01*
X111958600Y-123921100D02*
X113330800Y-122548900D01*
X113330800Y-122548900D02*
X121047999Y-122548900D01*
X115796599Y-128991701D02*
X115796599Y-128555099D01*
X112850669Y-125966500D02*
X113208000Y-125966500D01*
X121047999Y-122548900D02*
X121457999Y-122138900D01*
X118295600Y-121067900D02*
X118295600Y-122548900D01*
X111958600Y-125074431D02*
X112850669Y-125966500D01*
X114271600Y-130516700D02*
X115796599Y-128991701D01*
X115180800Y-121041900D02*
X115180800Y-122548900D01*
X111958600Y-125074431D02*
X111958600Y-123921100D01*
X121457999Y-122138900D02*
X122920500Y-122138900D01*
X115796599Y-128555099D02*
X113208000Y-125966500D01*
X127870500Y-120868900D02*
X131237100Y-120868900D01*
X131237100Y-120868900D02*
X131622800Y-121254600D01*
X123130600Y-103276400D02*
X123754500Y-103276400D01*
X123754500Y-103276400D02*
X124866400Y-104388300D01*
X124866400Y-110941500D02*
X126560000Y-112635100D01*
X126560000Y-112635100D02*
X127169600Y-112635100D01*
X127830000Y-120828400D02*
X127870500Y-120868900D01*
X127830000Y-119239100D02*
X127830000Y-120828400D01*
X124866400Y-104388300D02*
X124866400Y-110941500D01*
X127876100Y-115327500D02*
X127876100Y-114764000D01*
X133197600Y-120548400D02*
X133197600Y-122219800D01*
X131318000Y-118668800D02*
X133197600Y-120548400D01*
X127870500Y-124678900D02*
X130738500Y-124678900D01*
X133197600Y-122219800D02*
X131622800Y-123794600D01*
X124307600Y-111195500D02*
X124307600Y-105302700D01*
X124307600Y-105302700D02*
X123551300Y-104546400D01*
X123551300Y-104546400D02*
X123130600Y-104546400D01*
X130738500Y-124678900D02*
X131622800Y-123794600D01*
X127876100Y-114764000D02*
X124307600Y-111195500D01*
X104130464Y-99545036D02*
X104130465Y-99545036D01*
X104130465Y-99545036D02*
X105321829Y-100736400D01*
X98856800Y-86104100D02*
X97307700Y-87653200D01*
X97307700Y-87653200D02*
X97307700Y-92722272D01*
X97307700Y-92722272D02*
X104130464Y-99545036D01*
X105321829Y-100736400D02*
X105968800Y-100736400D01*
X96106800Y-86104100D02*
X96005200Y-86205700D01*
X96005200Y-86205700D02*
X96005200Y-92443500D01*
X96005200Y-92443500D02*
X105568100Y-102006400D01*
X105568100Y-102006400D02*
X105968800Y-102006400D01*
X95431200Y-89414400D02*
X95431200Y-92932400D01*
X105775200Y-103276400D02*
X105968800Y-103276400D01*
X93206000Y-87189200D02*
X95431200Y-89414400D01*
X93206000Y-86071600D02*
X93206000Y-87189200D01*
X95431200Y-92932400D02*
X105775200Y-103276400D01*
X105105200Y-107086400D02*
X103835200Y-105816400D01*
X105968800Y-107086400D02*
X105105200Y-107086400D01*
X105968800Y-105816400D02*
X104851200Y-105816400D01*
X104851200Y-105816400D02*
X103835200Y-104800400D01*
X105968800Y-104546400D02*
X104546400Y-104546400D01*
X104546400Y-104546400D02*
X103835200Y-103835200D01*
X123130600Y-99466400D02*
X123749700Y-99466400D01*
X124307600Y-100024300D02*
X124307600Y-100736400D01*
X123749700Y-99466400D02*
X124307600Y-100024300D01*
X123190000Y-100736400D02*
X124307600Y-101854000D01*
X123130600Y-100736400D02*
X123190000Y-100736400D01*
X123130600Y-102006400D02*
X123444000Y-102006400D01*
X123444000Y-102006400D02*
X124307600Y-102870000D01*
X123130600Y-91846400D02*
X123444000Y-91846400D01*
X123444000Y-91846400D02*
X124307600Y-90982800D01*
D60*
X106398200Y-110126600D02*
X105532700Y-110126600D01*
X106802700Y-110531100D02*
X106398200Y-110126600D01*
G04 #@! TA.AperFunction,Conductor*
G36*
X84182639Y-107308685D02*
G01*
X84228394Y-107361489D01*
X84239600Y-107413000D01*
X84239600Y-108143168D01*
X84269438Y-108140458D01*
X84269444Y-108140456D01*
X84422461Y-108092774D01*
X84422463Y-108092773D01*
X84559618Y-108009861D01*
X84644317Y-107925162D01*
X84705640Y-107891677D01*
X84775332Y-107896661D01*
X84818615Y-107924110D01*
X85536118Y-108624529D01*
X85570339Y-108685444D01*
X85573499Y-108713260D01*
X85573499Y-108751754D01*
X85573498Y-108751754D01*
X85614423Y-108904485D01*
X85643358Y-108954600D01*
X85643359Y-108954604D01*
X85643360Y-108954604D01*
X85693479Y-109041414D01*
X85693481Y-109041417D01*
X85812349Y-109160285D01*
X85812355Y-109160290D01*
X85873484Y-109221419D01*
X85906969Y-109282742D01*
X85901985Y-109352434D01*
X85860113Y-109408367D01*
X85794649Y-109432784D01*
X85785804Y-109433100D01*
X85544229Y-109433100D01*
X85544212Y-109433101D01*
X85441502Y-109443594D01*
X85275080Y-109498741D01*
X85275075Y-109498743D01*
X85125854Y-109590784D01*
X85001884Y-109714754D01*
X84909843Y-109863975D01*
X84909841Y-109863980D01*
X84854694Y-110030402D01*
X84854693Y-110030409D01*
X84844200Y-110133113D01*
X84844200Y-110408100D01*
X85807700Y-110408100D01*
X85874739Y-110427785D01*
X85920494Y-110480589D01*
X85931700Y-110532100D01*
X85931700Y-110658100D01*
X86057700Y-110658100D01*
X86124739Y-110677785D01*
X86170494Y-110730589D01*
X86181700Y-110782100D01*
X86181700Y-113759100D01*
X86187381Y-113764781D01*
X86220866Y-113826104D01*
X86223700Y-113852462D01*
X86223700Y-118489100D01*
X86710400Y-118489100D01*
X86777439Y-118508785D01*
X86823194Y-118561589D01*
X86834400Y-118613100D01*
X86834400Y-119318300D01*
X86814715Y-119385339D01*
X86761911Y-119431094D01*
X86710400Y-119442300D01*
X84062800Y-119442300D01*
X83995761Y-119422615D01*
X83950006Y-119369811D01*
X83938800Y-119318300D01*
X83938800Y-118036944D01*
X84723700Y-118036944D01*
X84730101Y-118096472D01*
X84730103Y-118096479D01*
X84780345Y-118231186D01*
X84780349Y-118231193D01*
X84866509Y-118346287D01*
X84866512Y-118346290D01*
X84981606Y-118432450D01*
X84981613Y-118432454D01*
X85116320Y-118482696D01*
X85116327Y-118482698D01*
X85175855Y-118489099D01*
X85175872Y-118489100D01*
X85723700Y-118489100D01*
X85723700Y-116439100D01*
X84723700Y-116439100D01*
X84723700Y-118036944D01*
X83938800Y-118036944D01*
X83938800Y-114341255D01*
X84723700Y-114341255D01*
X84723700Y-115939100D01*
X85723700Y-115939100D01*
X85723700Y-114045100D01*
X85718019Y-114039419D01*
X85684534Y-113978096D01*
X85681700Y-113951738D01*
X85681700Y-112940100D01*
X84844201Y-112940100D01*
X84844201Y-113215086D01*
X84854694Y-113317797D01*
X84909841Y-113484219D01*
X84909843Y-113484224D01*
X85001884Y-113633445D01*
X85087404Y-113718965D01*
X85120889Y-113780288D01*
X85115905Y-113849980D01*
X85074033Y-113905913D01*
X85043058Y-113922827D01*
X84981615Y-113945744D01*
X84981606Y-113945749D01*
X84866512Y-114031909D01*
X84866509Y-114031912D01*
X84780349Y-114147006D01*
X84780345Y-114147013D01*
X84730103Y-114281720D01*
X84730101Y-114281727D01*
X84723700Y-114341255D01*
X83938800Y-114341255D01*
X83938800Y-112165113D01*
X84844200Y-112165113D01*
X84844200Y-112440100D01*
X85681700Y-112440100D01*
X85681700Y-110908100D01*
X84844201Y-110908100D01*
X84844201Y-111183086D01*
X84854694Y-111285797D01*
X84909841Y-111452219D01*
X84909843Y-111452224D01*
X85005675Y-111607591D01*
X85003308Y-111609050D01*
X85024661Y-111662012D01*
X85011606Y-111730651D01*
X85005339Y-111740401D01*
X85005675Y-111740609D01*
X84909843Y-111895975D01*
X84909841Y-111895980D01*
X84854694Y-112062402D01*
X84854693Y-112062409D01*
X84844200Y-112165113D01*
X83938800Y-112165113D01*
X83938800Y-110907899D01*
X83342291Y-109714881D01*
X83329200Y-109659427D01*
X83329200Y-108175080D01*
X83348885Y-108108041D01*
X83401689Y-108062286D01*
X83470847Y-108052342D01*
X83517349Y-108068963D01*
X83556736Y-108092773D01*
X83556738Y-108092774D01*
X83709755Y-108140456D01*
X83709761Y-108140458D01*
X83739599Y-108143168D01*
X83739600Y-108143168D01*
X83739600Y-107413000D01*
X83759285Y-107345961D01*
X83812089Y-107300206D01*
X83863600Y-107289000D01*
X84115600Y-107289000D01*
X84182639Y-107308685D01*
G37*
G04 #@! TD.AperFunction*
G04 #@! TA.AperFunction,Conductor*
G36*
X98881739Y-106969785D02*
G01*
X98927494Y-107022589D01*
X98938700Y-107074100D01*
X98938700Y-108456100D01*
X98919015Y-108523139D01*
X98866211Y-108568894D01*
X98814700Y-108580100D01*
X98797700Y-108580100D01*
X98797700Y-109243600D01*
X99772699Y-109243600D01*
X99772699Y-109106128D01*
X99772698Y-109106113D01*
X99762205Y-109003402D01*
X99707058Y-108836980D01*
X99707056Y-108836975D01*
X99615015Y-108687754D01*
X99491044Y-108563783D01*
X99480025Y-108556986D01*
X99433302Y-108505036D01*
X99422082Y-108436073D01*
X99449927Y-108371992D01*
X99490032Y-108340360D01*
X99537725Y-108316707D01*
X99686064Y-108197469D01*
X99801476Y-108053889D01*
X99858819Y-108013970D01*
X99928641Y-108011390D01*
X99988774Y-108046968D01*
X100003663Y-108066479D01*
X100041884Y-108128445D01*
X100165854Y-108252415D01*
X100315075Y-108344456D01*
X100315080Y-108344458D01*
X100481502Y-108399605D01*
X100481509Y-108399606D01*
X100584219Y-108410099D01*
X100649762Y-108410099D01*
X100716802Y-108429783D01*
X100762558Y-108482586D01*
X100772502Y-108551744D01*
X100743478Y-108615300D01*
X100706973Y-108644113D01*
X100652000Y-108672699D01*
X100652000Y-108976654D01*
X100633539Y-109041750D01*
X100587889Y-109115759D01*
X100587886Y-109115766D01*
X100532701Y-109282303D01*
X100532701Y-109282304D01*
X100532700Y-109282304D01*
X100522200Y-109385083D01*
X100522200Y-109385091D01*
X100522200Y-109743600D01*
X100522201Y-110072700D01*
X100502517Y-110139739D01*
X100449713Y-110185494D01*
X100398201Y-110196700D01*
X99863376Y-110196700D01*
X99796337Y-110177015D01*
X99750582Y-110124211D01*
X99740638Y-110055053D01*
X99745670Y-110033695D01*
X99762205Y-109983794D01*
X99762206Y-109983790D01*
X99772699Y-109881086D01*
X99772700Y-109881073D01*
X99772700Y-109743600D01*
X91226701Y-109743600D01*
X91226701Y-109881086D01*
X91237194Y-109983797D01*
X91253729Y-110033696D01*
X91256131Y-110103524D01*
X91220399Y-110163566D01*
X91157879Y-110194759D01*
X91136023Y-110196700D01*
X90454500Y-110196700D01*
X90387461Y-110177015D01*
X90341706Y-110124211D01*
X90330500Y-110072700D01*
X90330500Y-108591695D01*
X90350185Y-108524656D01*
X90402989Y-108478901D01*
X90453654Y-108467699D01*
X91310033Y-108461913D01*
X91377200Y-108481143D01*
X91423311Y-108533637D01*
X91433721Y-108602726D01*
X91405126Y-108666477D01*
X91398551Y-108673588D01*
X91384383Y-108687756D01*
X91292343Y-108836975D01*
X91292341Y-108836980D01*
X91237194Y-109003402D01*
X91237193Y-109003409D01*
X91226700Y-109106113D01*
X91226700Y-109243600D01*
X98297700Y-109243600D01*
X98297700Y-108400100D01*
X98317385Y-108333061D01*
X98370189Y-108287306D01*
X98421700Y-108276100D01*
X98438700Y-108276100D01*
X98438700Y-107074100D01*
X98458385Y-107007061D01*
X98511189Y-106961306D01*
X98562700Y-106950100D01*
X98814700Y-106950100D01*
X98881739Y-106969785D01*
G37*
G04 #@! TD.AperFunction*
G04 #@! TA.AperFunction,Conductor*
G36*
X96172960Y-114411120D02*
G01*
X96228139Y-114453981D01*
X96232558Y-114460539D01*
X96262984Y-114508962D01*
X96282975Y-114528953D01*
X96316460Y-114590276D01*
X96314371Y-114651228D01*
X96271223Y-114799743D01*
X96268300Y-114836889D01*
X96268300Y-114985113D01*
X96265918Y-115009302D01*
X96260800Y-115035034D01*
X96260800Y-115196165D01*
X96265918Y-115221898D01*
X96268300Y-115246086D01*
X96268300Y-115394302D01*
X96271223Y-115431454D01*
X96317430Y-115590500D01*
X96335154Y-115620469D01*
X96352337Y-115688192D01*
X96335156Y-115746709D01*
X96317893Y-115775900D01*
X96317891Y-115775904D01*
X96271722Y-115934816D01*
X96271721Y-115934822D01*
X96268800Y-115971942D01*
X96268800Y-116000600D01*
X96954800Y-116000600D01*
X97021839Y-116020285D01*
X97067594Y-116073089D01*
X97078800Y-116124600D01*
X97078800Y-116250600D01*
X97204800Y-116250600D01*
X97271839Y-116270285D01*
X97317594Y-116323089D01*
X97328800Y-116374600D01*
X97328800Y-117115828D01*
X97328801Y-117115829D01*
X97337075Y-117115179D01*
X97337082Y-117115177D01*
X97495994Y-117069009D01*
X97495997Y-117069007D01*
X97638893Y-116984500D01*
X97706617Y-116967317D01*
X97746475Y-116976932D01*
X97746723Y-116976186D01*
X97920002Y-117033605D01*
X97920009Y-117033606D01*
X98022719Y-117044099D01*
X98297699Y-117044099D01*
X98797700Y-117044099D01*
X99072672Y-117044099D01*
X99072686Y-117044098D01*
X99175397Y-117033605D01*
X99341819Y-116978458D01*
X99341824Y-116978456D01*
X99497191Y-116882625D01*
X99498655Y-116884998D01*
X99551558Y-116863643D01*
X99620203Y-116876668D01*
X99629999Y-116882964D01*
X99630209Y-116882625D01*
X99785575Y-116978456D01*
X99785580Y-116978458D01*
X99952002Y-117033605D01*
X99952009Y-117033606D01*
X100054719Y-117044099D01*
X100329699Y-117044099D01*
X100829700Y-117044099D01*
X101104672Y-117044099D01*
X101104686Y-117044098D01*
X101207397Y-117033605D01*
X101373819Y-116978458D01*
X101373824Y-116978456D01*
X101529191Y-116882625D01*
X101530655Y-116884998D01*
X101583558Y-116863643D01*
X101652203Y-116876668D01*
X101661999Y-116882964D01*
X101662209Y-116882625D01*
X101817575Y-116978456D01*
X101817580Y-116978458D01*
X101984002Y-117033605D01*
X101984009Y-117033606D01*
X102086719Y-117044099D01*
X102361699Y-117044099D01*
X102361700Y-117044098D01*
X102361700Y-116206600D01*
X100829700Y-116206600D01*
X100829700Y-117044099D01*
X100329699Y-117044099D01*
X100329700Y-117044098D01*
X100329700Y-116206600D01*
X98797700Y-116206600D01*
X98797700Y-117044099D01*
X98297699Y-117044099D01*
X98297700Y-117044098D01*
X98297700Y-116080600D01*
X98317385Y-116013561D01*
X98370189Y-115967806D01*
X98421700Y-115956600D01*
X98547700Y-115956600D01*
X98547700Y-115830600D01*
X98567385Y-115763561D01*
X98620189Y-115717806D01*
X98671700Y-115706600D01*
X102487700Y-115706600D01*
X102554739Y-115726285D01*
X102600494Y-115779089D01*
X102611700Y-115830600D01*
X102611700Y-115956600D01*
X102737700Y-115956600D01*
X102804739Y-115976285D01*
X102850494Y-116029089D01*
X102861700Y-116080600D01*
X102861700Y-117044099D01*
X103136672Y-117044099D01*
X103136686Y-117044098D01*
X103239397Y-117033605D01*
X103405819Y-116978458D01*
X103405821Y-116978457D01*
X103446156Y-116953578D01*
X103513549Y-116935137D01*
X103580212Y-116956058D01*
X103624983Y-117009700D01*
X103634613Y-117046514D01*
X103642794Y-117126597D01*
X103697941Y-117293019D01*
X103697944Y-117293026D01*
X103716311Y-117322802D01*
X103734752Y-117390195D01*
X103713830Y-117456858D01*
X103660188Y-117501628D01*
X103610773Y-117511900D01*
X97188656Y-117511900D01*
X97121617Y-117492215D01*
X97113507Y-117486533D01*
X96855037Y-117289603D01*
X96813641Y-117233317D01*
X96809248Y-117163585D01*
X96828800Y-117128488D01*
X96828800Y-116500600D01*
X96540507Y-116500600D01*
X96473468Y-116480915D01*
X96452826Y-116464281D01*
X96440371Y-116451826D01*
X96440367Y-116451823D01*
X96333832Y-116380638D01*
X96333819Y-116380631D01*
X96215444Y-116331599D01*
X96215438Y-116331597D01*
X96137335Y-116316061D01*
X96114077Y-116309006D01*
X96094612Y-116300944D01*
X96094610Y-116300943D01*
X95949619Y-116272102D01*
X95949617Y-116272102D01*
X95900199Y-116272102D01*
X95833160Y-116252417D01*
X95787405Y-116199613D01*
X95776199Y-116148102D01*
X95776199Y-114531600D01*
X95795884Y-114464561D01*
X95848688Y-114418806D01*
X95900199Y-114407600D01*
X96089767Y-114407600D01*
X96089768Y-114407600D01*
X96103370Y-114404894D01*
X96172960Y-114411120D01*
G37*
G04 #@! TD.AperFunction*
G04 #@! TA.AperFunction,Conductor*
G36*
X89216739Y-116208785D02*
G01*
X89262494Y-116261589D01*
X89273700Y-116313100D01*
X89273700Y-118489100D01*
X89821528Y-118489100D01*
X89821544Y-118489099D01*
X89881072Y-118482698D01*
X89881079Y-118482696D01*
X90015786Y-118432454D01*
X90015793Y-118432450D01*
X90130887Y-118346290D01*
X90130890Y-118346287D01*
X90217050Y-118231193D01*
X90217054Y-118231186D01*
X90267296Y-118096479D01*
X90267298Y-118096472D01*
X90273699Y-118036944D01*
X90273700Y-118036927D01*
X90273700Y-117963100D01*
X92542970Y-117963100D01*
X92543621Y-117971381D01*
X92589790Y-118130294D01*
X92589792Y-118130297D01*
X92674033Y-118272742D01*
X92674039Y-118272750D01*
X92791049Y-118389760D01*
X92791057Y-118389766D01*
X92933502Y-118474007D01*
X92933505Y-118474008D01*
X93092416Y-118520177D01*
X93092422Y-118520178D01*
X93129542Y-118523099D01*
X93129558Y-118523100D01*
X93158200Y-118523100D01*
X93158200Y-117963100D01*
X92542970Y-117963100D01*
X90273700Y-117963100D01*
X90273700Y-116509085D01*
X90293385Y-116442046D01*
X90346189Y-116396291D01*
X90415347Y-116386347D01*
X90478903Y-116415372D01*
X90514742Y-116468131D01*
X90528210Y-116506622D01*
X90528211Y-116506623D01*
X90624184Y-116659363D01*
X90751738Y-116786917D01*
X90904478Y-116882890D01*
X90967588Y-116904973D01*
X91074745Y-116942469D01*
X91074750Y-116942470D01*
X91253996Y-116962666D01*
X91254000Y-116962666D01*
X91254004Y-116962666D01*
X91433246Y-116942470D01*
X91433245Y-116942470D01*
X91433255Y-116942469D01*
X91441569Y-116939559D01*
X91482523Y-116932601D01*
X92083585Y-116932601D01*
X92150624Y-116952286D01*
X92196379Y-117005090D01*
X92199767Y-117013268D01*
X92231902Y-117099428D01*
X92231906Y-117099435D01*
X92318152Y-117214644D01*
X92318155Y-117214647D01*
X92433364Y-117300893D01*
X92433371Y-117300897D01*
X92465601Y-117312918D01*
X92521534Y-117354789D01*
X92545952Y-117420253D01*
X92544251Y-117451375D01*
X92543621Y-117454821D01*
X92542970Y-117463100D01*
X93284200Y-117463100D01*
X93351239Y-117482785D01*
X93396994Y-117535589D01*
X93408200Y-117587100D01*
X93408200Y-117713100D01*
X93534200Y-117713100D01*
X93601239Y-117732785D01*
X93646994Y-117785589D01*
X93658200Y-117837100D01*
X93658200Y-118523100D01*
X93686842Y-118523100D01*
X93686857Y-118523099D01*
X93723977Y-118520178D01*
X93723983Y-118520177D01*
X93787805Y-118501635D01*
X93857674Y-118501834D01*
X93916344Y-118539776D01*
X93945188Y-118603414D01*
X93946400Y-118620711D01*
X93946400Y-120396302D01*
X93926715Y-120463341D01*
X93873911Y-120509096D01*
X93804753Y-120519040D01*
X93741197Y-120490015D01*
X93721052Y-120467749D01*
X93669238Y-120394251D01*
X93556651Y-120304842D01*
X93556643Y-120304838D01*
X93423423Y-120250769D01*
X93423424Y-120250769D01*
X93280358Y-120236421D01*
X93242540Y-120241584D01*
X91402000Y-120669616D01*
X91402000Y-124412582D01*
X93242542Y-124840615D01*
X93242548Y-124840616D01*
X93280360Y-124845778D01*
X93423425Y-124831430D01*
X93556644Y-124777361D01*
X93556652Y-124777357D01*
X93669240Y-124687947D01*
X93669241Y-124687946D01*
X93721052Y-124614452D01*
X93775767Y-124571001D01*
X93845288Y-124564029D01*
X93907542Y-124595749D01*
X93942764Y-124656091D01*
X93946400Y-124685898D01*
X93946400Y-125211100D01*
X93926715Y-125278139D01*
X93873911Y-125323894D01*
X93822400Y-125335100D01*
X88177040Y-125335100D01*
X88110001Y-125315415D01*
X88064246Y-125262611D01*
X88053041Y-125211661D01*
X88044768Y-123383247D01*
X88502000Y-123383247D01*
X88511669Y-123462524D01*
X88565736Y-123595741D01*
X88565742Y-123595751D01*
X88655151Y-123708338D01*
X88772668Y-123791183D01*
X88847677Y-123818552D01*
X88847689Y-123818555D01*
X90902000Y-124296303D01*
X90902000Y-122791100D01*
X88502000Y-122791100D01*
X88502000Y-123383247D01*
X88044768Y-123383247D01*
X88037147Y-121698949D01*
X88502000Y-121698949D01*
X88502000Y-122291100D01*
X90902000Y-122291100D01*
X90902000Y-120785895D01*
X88847695Y-121263641D01*
X88847674Y-121263648D01*
X88772667Y-121291016D01*
X88655151Y-121373860D01*
X88565742Y-121486447D01*
X88565736Y-121486457D01*
X88511669Y-121619674D01*
X88502000Y-121698949D01*
X88037147Y-121698949D01*
X88023151Y-118605906D01*
X88042531Y-118538783D01*
X88095128Y-118492790D01*
X88160407Y-118482061D01*
X88225860Y-118489099D01*
X88225872Y-118489100D01*
X88773700Y-118489100D01*
X88773700Y-116313100D01*
X88793385Y-116246061D01*
X88846189Y-116200306D01*
X88897700Y-116189100D01*
X89149700Y-116189100D01*
X89216739Y-116208785D01*
G37*
G04 #@! TD.AperFunction*
M02*
