G04 #@! TF.GenerationSoftware,KiCad,Pcbnew,8.0.7*
G04 #@! TF.CreationDate,2025-07-10T22:44:40+02:00*
G04 #@! TF.ProjectId,modbus-to-x,6d6f6462-7573-42d7-946f-2d782e6b6963,rev?*
G04 #@! TF.SameCoordinates,Original*
G04 #@! TF.FileFunction,Paste,Top*
G04 #@! TF.FilePolarity,Positive*
%FSLAX46Y46*%
G04 Gerber Fmt 4.6, Leading zero omitted, Abs format (unit mm)*
G04 Created by KiCad (PCBNEW 8.0.7) date 2025-07-10 22:44:40*
%MOMM*%
%LPD*%
G01*
G04 APERTURE LIST*
G04 Aperture macros list*
%AMRoundRect*
0 Rectangle with rounded corners*
0 $1 Rounding radius*
0 $2 $3 $4 $5 $6 $7 $8 $9 X,Y pos of 4 corners*
0 Add a 4 corners polygon primitive as box body*
4,1,4,$2,$3,$4,$5,$6,$7,$8,$9,$2,$3,0*
0 Add four circle primitives for the rounded corners*
1,1,$1+$1,$2,$3*
1,1,$1+$1,$4,$5*
1,1,$1+$1,$6,$7*
1,1,$1+$1,$8,$9*
0 Add four rect primitives between the rounded corners*
20,1,$1+$1,$2,$3,$4,$5,0*
20,1,$1+$1,$4,$5,$6,$7,0*
20,1,$1+$1,$6,$7,$8,$9,0*
20,1,$1+$1,$8,$9,$2,$3,0*%
%AMOutline4P*
0 Free polygon, 4 corners , with rotation*
0 The origin of the aperture is its center*
0 number of corners: always 4*
0 $1 to $8 corner X, Y*
0 $9 Rotation angle, in degrees counterclockwise*
0 create outline with 4 corners*
4,1,4,$1,$2,$3,$4,$5,$6,$7,$8,$1,$2,$9*%
G04 Aperture macros list end*
%ADD10C,0.000000*%
%ADD11R,1.300000X1.550000*%
%ADD12RoundRect,0.160000X0.160000X-0.197500X0.160000X0.197500X-0.160000X0.197500X-0.160000X-0.197500X0*%
%ADD13R,0.838200X0.889000*%
%ADD14R,0.889000X0.838200*%
%ADD15RoundRect,0.155000X0.155000X-0.212500X0.155000X0.212500X-0.155000X0.212500X-0.155000X-0.212500X0*%
%ADD16RoundRect,0.155000X-0.212500X-0.155000X0.212500X-0.155000X0.212500X0.155000X-0.212500X0.155000X0*%
%ADD17RoundRect,0.250000X-0.475000X0.337500X-0.475000X-0.337500X0.475000X-0.337500X0.475000X0.337500X0*%
%ADD18RoundRect,0.237500X0.237500X-0.250000X0.237500X0.250000X-0.237500X0.250000X-0.237500X-0.250000X0*%
%ADD19RoundRect,0.100000X-0.100000X0.637500X-0.100000X-0.637500X0.100000X-0.637500X0.100000X0.637500X0*%
%ADD20RoundRect,0.250000X-0.450000X0.350000X-0.450000X-0.350000X0.450000X-0.350000X0.450000X0.350000X0*%
%ADD21RoundRect,0.250000X0.337500X0.475000X-0.337500X0.475000X-0.337500X-0.475000X0.337500X-0.475000X0*%
%ADD22RoundRect,0.237500X-0.250000X-0.237500X0.250000X-0.237500X0.250000X0.237500X-0.250000X0.237500X0*%
%ADD23RoundRect,0.250000X-1.050000X-0.550000X1.050000X-0.550000X1.050000X0.550000X-1.050000X0.550000X0*%
%ADD24RoundRect,0.250000X-1.500000X-0.550000X1.500000X-0.550000X1.500000X0.550000X-1.500000X0.550000X0*%
%ADD25RoundRect,0.160000X-0.222500X-0.160000X0.222500X-0.160000X0.222500X0.160000X-0.222500X0.160000X0*%
%ADD26RoundRect,0.250000X0.475000X-0.337500X0.475000X0.337500X-0.475000X0.337500X-0.475000X-0.337500X0*%
%ADD27RoundRect,0.160000X0.160000X-0.222500X0.160000X0.222500X-0.160000X0.222500X-0.160000X-0.222500X0*%
%ADD28RoundRect,0.160000X0.222500X0.160000X-0.222500X0.160000X-0.222500X-0.160000X0.222500X-0.160000X0*%
%ADD29RoundRect,0.375000X0.375000X-0.625000X0.375000X0.625000X-0.375000X0.625000X-0.375000X-0.625000X0*%
%ADD30RoundRect,0.500000X1.400000X-0.500000X1.400000X0.500000X-1.400000X0.500000X-1.400000X-0.500000X0*%
%ADD31RoundRect,0.250000X0.350000X0.450000X-0.350000X0.450000X-0.350000X-0.450000X0.350000X-0.450000X0*%
%ADD32RoundRect,0.250000X-0.350000X-0.450000X0.350000X-0.450000X0.350000X0.450000X-0.350000X0.450000X0*%
%ADD33RoundRect,0.250000X-0.650000X0.412500X-0.650000X-0.412500X0.650000X-0.412500X0.650000X0.412500X0*%
%ADD34RoundRect,0.250000X-0.412500X-0.650000X0.412500X-0.650000X0.412500X0.650000X-0.412500X0.650000X0*%
%ADD35RoundRect,0.250000X0.412500X0.650000X-0.412500X0.650000X-0.412500X-0.650000X0.412500X-0.650000X0*%
%ADD36Outline4P,-2.150000X-1.800000X2.150000X-0.800000X2.150000X0.800000X-2.150000X1.800000X180.000000*%
%ADD37Outline4P,-2.150000X-1.800000X2.150000X-0.800000X2.150000X0.800000X-2.150000X1.800000X0.000000*%
%ADD38O,0.599999X0.299999*%
%ADD39RoundRect,0.250000X-0.650000X1.500000X-0.650000X-1.500000X0.650000X-1.500000X0.650000X1.500000X0*%
%ADD40RoundRect,0.250000X-0.625000X0.400000X-0.625000X-0.400000X0.625000X-0.400000X0.625000X0.400000X0*%
%ADD41RoundRect,0.150000X0.825000X0.150000X-0.825000X0.150000X-0.825000X-0.150000X0.825000X-0.150000X0*%
%ADD42RoundRect,0.250000X0.450000X-0.350000X0.450000X0.350000X-0.450000X0.350000X-0.450000X-0.350000X0*%
%ADD43R,1.500000X3.600000*%
%ADD44RoundRect,0.250000X0.650000X-0.412500X0.650000X0.412500X-0.650000X0.412500X-0.650000X-0.412500X0*%
%ADD45RoundRect,0.237500X-0.237500X0.250000X-0.237500X-0.250000X0.237500X-0.250000X0.237500X0.250000X0*%
G04 APERTURE END LIST*
D10*
G36*
X107866867Y-88633015D02*
G01*
X106750300Y-88633015D01*
X106750300Y-87479000D01*
X107866867Y-87479000D01*
X107866867Y-88633015D01*
G37*
G36*
X107866867Y-89987031D02*
G01*
X106750300Y-89987031D01*
X106750300Y-88833015D01*
X107866867Y-88833015D01*
X107866867Y-89987031D01*
G37*
G36*
X107866867Y-91341046D02*
G01*
X106750300Y-91341046D01*
X106750300Y-90187030D01*
X107866867Y-90187030D01*
X107866867Y-91341046D01*
G37*
G36*
X107866867Y-92695062D02*
G01*
X106750300Y-92695062D01*
X106750300Y-91541046D01*
X107866867Y-91541046D01*
X107866867Y-92695062D01*
G37*
G36*
X107866867Y-94049077D02*
G01*
X106750300Y-94049077D01*
X106750300Y-92895061D01*
X107866867Y-92895061D01*
X107866867Y-94049077D01*
G37*
G36*
X107866867Y-95403092D02*
G01*
X106750300Y-95403092D01*
X106750300Y-94249077D01*
X107866867Y-94249077D01*
X107866867Y-95403092D01*
G37*
G36*
X107866867Y-96757108D02*
G01*
X106750300Y-96757108D01*
X106750300Y-95603092D01*
X107866867Y-95603092D01*
X107866867Y-96757108D01*
G37*
G36*
X107866867Y-98111123D02*
G01*
X106750300Y-98111123D01*
X106750300Y-96957108D01*
X107866867Y-96957108D01*
X107866867Y-98111123D01*
G37*
G36*
X107866867Y-99465139D02*
G01*
X106750300Y-99465139D01*
X106750300Y-98311123D01*
X107866867Y-98311123D01*
X107866867Y-99465139D01*
G37*
G36*
X107866867Y-100819154D02*
G01*
X106750300Y-100819154D01*
X106750300Y-99665138D01*
X107866867Y-99665138D01*
X107866867Y-100819154D01*
G37*
G36*
X107866867Y-102173170D02*
G01*
X106750300Y-102173170D01*
X106750300Y-101019154D01*
X107866867Y-101019154D01*
X107866867Y-102173170D01*
G37*
G36*
X107866867Y-103527185D02*
G01*
X106750300Y-103527185D01*
X106750300Y-102373169D01*
X107866867Y-102373169D01*
X107866867Y-103527185D01*
G37*
G36*
X107866867Y-104881200D02*
G01*
X106750300Y-104881200D01*
X106750300Y-103727185D01*
X107866867Y-103727185D01*
X107866867Y-104881200D01*
G37*
G36*
X109183434Y-88633015D02*
G01*
X108066867Y-88633015D01*
X108066867Y-87479000D01*
X109183434Y-87479000D01*
X109183434Y-88633015D01*
G37*
G36*
X109183434Y-89987031D02*
G01*
X108066867Y-89987031D01*
X108066867Y-88833015D01*
X109183434Y-88833015D01*
X109183434Y-89987031D01*
G37*
G36*
X109183434Y-91341046D02*
G01*
X108066867Y-91341046D01*
X108066867Y-90187030D01*
X109183434Y-90187030D01*
X109183434Y-91341046D01*
G37*
G36*
X109183434Y-92695062D02*
G01*
X108066867Y-92695062D01*
X108066867Y-91541046D01*
X109183434Y-91541046D01*
X109183434Y-92695062D01*
G37*
G36*
X109183434Y-94049077D02*
G01*
X108066867Y-94049077D01*
X108066867Y-92895061D01*
X109183434Y-92895061D01*
X109183434Y-94049077D01*
G37*
G36*
X109183434Y-95403092D02*
G01*
X108066867Y-95403092D01*
X108066867Y-94249077D01*
X109183434Y-94249077D01*
X109183434Y-95403092D01*
G37*
G36*
X109183434Y-96757108D02*
G01*
X108066867Y-96757108D01*
X108066867Y-95603092D01*
X109183434Y-95603092D01*
X109183434Y-96757108D01*
G37*
G36*
X109183434Y-98111123D02*
G01*
X108066867Y-98111123D01*
X108066867Y-96957108D01*
X109183434Y-96957108D01*
X109183434Y-98111123D01*
G37*
G36*
X109183434Y-99465139D02*
G01*
X108066867Y-99465139D01*
X108066867Y-98311123D01*
X109183434Y-98311123D01*
X109183434Y-99465139D01*
G37*
G36*
X109183434Y-100819154D02*
G01*
X108066867Y-100819154D01*
X108066867Y-99665138D01*
X109183434Y-99665138D01*
X109183434Y-100819154D01*
G37*
G36*
X109183434Y-102173170D02*
G01*
X108066867Y-102173170D01*
X108066867Y-101019154D01*
X109183434Y-101019154D01*
X109183434Y-102173170D01*
G37*
G36*
X109183434Y-103527185D02*
G01*
X108066867Y-103527185D01*
X108066867Y-102373169D01*
X109183434Y-102373169D01*
X109183434Y-103527185D01*
G37*
G36*
X109183434Y-104881200D02*
G01*
X108066867Y-104881200D01*
X108066867Y-103727185D01*
X109183434Y-103727185D01*
X109183434Y-104881200D01*
G37*
G36*
X110500000Y-88633015D02*
G01*
X109383433Y-88633015D01*
X109383433Y-87479000D01*
X110500000Y-87479000D01*
X110500000Y-88633015D01*
G37*
G36*
X110500000Y-89987031D02*
G01*
X109383433Y-89987031D01*
X109383433Y-88833015D01*
X110500000Y-88833015D01*
X110500000Y-89987031D01*
G37*
G36*
X110500000Y-91341046D02*
G01*
X109383433Y-91341046D01*
X109383433Y-90187030D01*
X110500000Y-90187030D01*
X110500000Y-91341046D01*
G37*
G36*
X110500000Y-92695062D02*
G01*
X109383433Y-92695062D01*
X109383433Y-91541046D01*
X110500000Y-91541046D01*
X110500000Y-92695062D01*
G37*
G36*
X110500000Y-94049077D02*
G01*
X109383433Y-94049077D01*
X109383433Y-92895061D01*
X110500000Y-92895061D01*
X110500000Y-94049077D01*
G37*
G36*
X110500000Y-95403092D02*
G01*
X109383433Y-95403092D01*
X109383433Y-94249077D01*
X110500000Y-94249077D01*
X110500000Y-95403092D01*
G37*
G36*
X110500000Y-96757108D02*
G01*
X109383433Y-96757108D01*
X109383433Y-95603092D01*
X110500000Y-95603092D01*
X110500000Y-96757108D01*
G37*
G36*
X110500000Y-98111123D02*
G01*
X109383433Y-98111123D01*
X109383433Y-96957108D01*
X110500000Y-96957108D01*
X110500000Y-98111123D01*
G37*
G36*
X110500000Y-99465139D02*
G01*
X109383433Y-99465139D01*
X109383433Y-98311123D01*
X110500000Y-98311123D01*
X110500000Y-99465139D01*
G37*
G36*
X110500000Y-100819154D02*
G01*
X109383433Y-100819154D01*
X109383433Y-99665138D01*
X110500000Y-99665138D01*
X110500000Y-100819154D01*
G37*
G36*
X110500000Y-102173170D02*
G01*
X109383433Y-102173170D01*
X109383433Y-101019154D01*
X110500000Y-101019154D01*
X110500000Y-102173170D01*
G37*
G36*
X110500000Y-103527185D02*
G01*
X109383433Y-103527185D01*
X109383433Y-102373169D01*
X110500000Y-102373169D01*
X110500000Y-103527185D01*
G37*
G36*
X110500000Y-104881200D02*
G01*
X109383433Y-104881200D01*
X109383433Y-103727185D01*
X110500000Y-103727185D01*
X110500000Y-104881200D01*
G37*
G36*
X111816567Y-88633015D02*
G01*
X110700000Y-88633015D01*
X110700000Y-87479000D01*
X111816567Y-87479000D01*
X111816567Y-88633015D01*
G37*
G36*
X111816567Y-89987031D02*
G01*
X110700000Y-89987031D01*
X110700000Y-88833015D01*
X111816567Y-88833015D01*
X111816567Y-89987031D01*
G37*
G36*
X111816567Y-91341046D02*
G01*
X110700000Y-91341046D01*
X110700000Y-90187030D01*
X111816567Y-90187030D01*
X111816567Y-91341046D01*
G37*
G36*
X111816567Y-92695062D02*
G01*
X110700000Y-92695062D01*
X110700000Y-91541046D01*
X111816567Y-91541046D01*
X111816567Y-92695062D01*
G37*
G36*
X111816567Y-94049077D02*
G01*
X110700000Y-94049077D01*
X110700000Y-92895061D01*
X111816567Y-92895061D01*
X111816567Y-94049077D01*
G37*
G36*
X111816567Y-95403092D02*
G01*
X110700000Y-95403092D01*
X110700000Y-94249077D01*
X111816567Y-94249077D01*
X111816567Y-95403092D01*
G37*
G36*
X111816567Y-96757108D02*
G01*
X110700000Y-96757108D01*
X110700000Y-95603092D01*
X111816567Y-95603092D01*
X111816567Y-96757108D01*
G37*
G36*
X111816567Y-98111123D02*
G01*
X110700000Y-98111123D01*
X110700000Y-96957108D01*
X111816567Y-96957108D01*
X111816567Y-98111123D01*
G37*
G36*
X111816567Y-99465139D02*
G01*
X110700000Y-99465139D01*
X110700000Y-98311123D01*
X111816567Y-98311123D01*
X111816567Y-99465139D01*
G37*
G36*
X111816567Y-100819154D02*
G01*
X110700000Y-100819154D01*
X110700000Y-99665138D01*
X111816567Y-99665138D01*
X111816567Y-100819154D01*
G37*
G36*
X111816567Y-102173170D02*
G01*
X110700000Y-102173170D01*
X110700000Y-101019154D01*
X111816567Y-101019154D01*
X111816567Y-102173170D01*
G37*
G36*
X111816567Y-103527185D02*
G01*
X110700000Y-103527185D01*
X110700000Y-102373169D01*
X111816567Y-102373169D01*
X111816567Y-103527185D01*
G37*
G36*
X111816567Y-104881200D02*
G01*
X110700000Y-104881200D01*
X110700000Y-103727185D01*
X111816567Y-103727185D01*
X111816567Y-104881200D01*
G37*
G36*
X113133134Y-88633015D02*
G01*
X112016567Y-88633015D01*
X112016567Y-87479000D01*
X113133134Y-87479000D01*
X113133134Y-88633015D01*
G37*
G36*
X113133134Y-89987031D02*
G01*
X112016567Y-89987031D01*
X112016567Y-88833015D01*
X113133134Y-88833015D01*
X113133134Y-89987031D01*
G37*
G36*
X113133134Y-91341046D02*
G01*
X112016567Y-91341046D01*
X112016567Y-90187030D01*
X113133134Y-90187030D01*
X113133134Y-91341046D01*
G37*
G36*
X113133134Y-92695062D02*
G01*
X112016567Y-92695062D01*
X112016567Y-91541046D01*
X113133134Y-91541046D01*
X113133134Y-92695062D01*
G37*
G36*
X113133134Y-94049077D02*
G01*
X112016567Y-94049077D01*
X112016567Y-92895061D01*
X113133134Y-92895061D01*
X113133134Y-94049077D01*
G37*
G36*
X113133134Y-95403092D02*
G01*
X112016567Y-95403092D01*
X112016567Y-94249077D01*
X113133134Y-94249077D01*
X113133134Y-95403092D01*
G37*
G36*
X113133134Y-96757108D02*
G01*
X112016567Y-96757108D01*
X112016567Y-95603092D01*
X113133134Y-95603092D01*
X113133134Y-96757108D01*
G37*
G36*
X113133134Y-98111123D02*
G01*
X112016567Y-98111123D01*
X112016567Y-96957108D01*
X113133134Y-96957108D01*
X113133134Y-98111123D01*
G37*
G36*
X113133134Y-99465139D02*
G01*
X112016567Y-99465139D01*
X112016567Y-98311123D01*
X113133134Y-98311123D01*
X113133134Y-99465139D01*
G37*
G36*
X113133134Y-100819154D02*
G01*
X112016567Y-100819154D01*
X112016567Y-99665138D01*
X113133134Y-99665138D01*
X113133134Y-100819154D01*
G37*
G36*
X113133134Y-102173170D02*
G01*
X112016567Y-102173170D01*
X112016567Y-101019154D01*
X113133134Y-101019154D01*
X113133134Y-102173170D01*
G37*
G36*
X113133134Y-103527185D02*
G01*
X112016567Y-103527185D01*
X112016567Y-102373169D01*
X113133134Y-102373169D01*
X113133134Y-103527185D01*
G37*
G36*
X113133134Y-104881200D02*
G01*
X112016567Y-104881200D01*
X112016567Y-103727185D01*
X113133134Y-103727185D01*
X113133134Y-104881200D01*
G37*
G36*
X114449700Y-88633015D02*
G01*
X113333133Y-88633015D01*
X113333133Y-87479000D01*
X114449700Y-87479000D01*
X114449700Y-88633015D01*
G37*
G36*
X114449700Y-89987031D02*
G01*
X113333133Y-89987031D01*
X113333133Y-88833015D01*
X114449700Y-88833015D01*
X114449700Y-89987031D01*
G37*
G36*
X114449700Y-91341046D02*
G01*
X113333133Y-91341046D01*
X113333133Y-90187030D01*
X114449700Y-90187030D01*
X114449700Y-91341046D01*
G37*
G36*
X114449700Y-92695062D02*
G01*
X113333133Y-92695062D01*
X113333133Y-91541046D01*
X114449700Y-91541046D01*
X114449700Y-92695062D01*
G37*
G36*
X114449700Y-94049077D02*
G01*
X113333133Y-94049077D01*
X113333133Y-92895061D01*
X114449700Y-92895061D01*
X114449700Y-94049077D01*
G37*
G36*
X114449700Y-95403092D02*
G01*
X113333133Y-95403092D01*
X113333133Y-94249077D01*
X114449700Y-94249077D01*
X114449700Y-95403092D01*
G37*
G36*
X114449700Y-96757108D02*
G01*
X113333133Y-96757108D01*
X113333133Y-95603092D01*
X114449700Y-95603092D01*
X114449700Y-96757108D01*
G37*
G36*
X114449700Y-98111123D02*
G01*
X113333133Y-98111123D01*
X113333133Y-96957108D01*
X114449700Y-96957108D01*
X114449700Y-98111123D01*
G37*
G36*
X114449700Y-99465139D02*
G01*
X113333133Y-99465139D01*
X113333133Y-98311123D01*
X114449700Y-98311123D01*
X114449700Y-99465139D01*
G37*
G36*
X114449700Y-100819154D02*
G01*
X113333133Y-100819154D01*
X113333133Y-99665138D01*
X114449700Y-99665138D01*
X114449700Y-100819154D01*
G37*
G36*
X114449700Y-102173170D02*
G01*
X113333133Y-102173170D01*
X113333133Y-101019154D01*
X114449700Y-101019154D01*
X114449700Y-102173170D01*
G37*
G36*
X114449700Y-103527185D02*
G01*
X113333133Y-103527185D01*
X113333133Y-102373169D01*
X114449700Y-102373169D01*
X114449700Y-103527185D01*
G37*
G36*
X114449700Y-104881200D02*
G01*
X113333133Y-104881200D01*
X113333133Y-103727185D01*
X114449700Y-103727185D01*
X114449700Y-104881200D01*
G37*
G36*
X115766267Y-88633015D02*
G01*
X114649700Y-88633015D01*
X114649700Y-87479000D01*
X115766267Y-87479000D01*
X115766267Y-88633015D01*
G37*
G36*
X115766267Y-89987031D02*
G01*
X114649700Y-89987031D01*
X114649700Y-88833015D01*
X115766267Y-88833015D01*
X115766267Y-89987031D01*
G37*
G36*
X115766267Y-91341046D02*
G01*
X114649700Y-91341046D01*
X114649700Y-90187030D01*
X115766267Y-90187030D01*
X115766267Y-91341046D01*
G37*
G36*
X115766267Y-92695062D02*
G01*
X114649700Y-92695062D01*
X114649700Y-91541046D01*
X115766267Y-91541046D01*
X115766267Y-92695062D01*
G37*
G36*
X115766267Y-94049077D02*
G01*
X114649700Y-94049077D01*
X114649700Y-92895061D01*
X115766267Y-92895061D01*
X115766267Y-94049077D01*
G37*
G36*
X115766267Y-95403092D02*
G01*
X114649700Y-95403092D01*
X114649700Y-94249077D01*
X115766267Y-94249077D01*
X115766267Y-95403092D01*
G37*
G36*
X115766267Y-96757108D02*
G01*
X114649700Y-96757108D01*
X114649700Y-95603092D01*
X115766267Y-95603092D01*
X115766267Y-96757108D01*
G37*
G36*
X115766267Y-98111123D02*
G01*
X114649700Y-98111123D01*
X114649700Y-96957108D01*
X115766267Y-96957108D01*
X115766267Y-98111123D01*
G37*
G36*
X115766267Y-99465139D02*
G01*
X114649700Y-99465139D01*
X114649700Y-98311123D01*
X115766267Y-98311123D01*
X115766267Y-99465139D01*
G37*
G36*
X115766267Y-100819154D02*
G01*
X114649700Y-100819154D01*
X114649700Y-99665138D01*
X115766267Y-99665138D01*
X115766267Y-100819154D01*
G37*
G36*
X115766267Y-102173170D02*
G01*
X114649700Y-102173170D01*
X114649700Y-101019154D01*
X115766267Y-101019154D01*
X115766267Y-102173170D01*
G37*
G36*
X115766267Y-103527185D02*
G01*
X114649700Y-103527185D01*
X114649700Y-102373169D01*
X115766267Y-102373169D01*
X115766267Y-103527185D01*
G37*
G36*
X115766267Y-104881200D02*
G01*
X114649700Y-104881200D01*
X114649700Y-103727185D01*
X115766267Y-103727185D01*
X115766267Y-104881200D01*
G37*
G36*
X117082833Y-88633015D02*
G01*
X115966266Y-88633015D01*
X115966266Y-87479000D01*
X117082833Y-87479000D01*
X117082833Y-88633015D01*
G37*
G36*
X117082833Y-89987031D02*
G01*
X115966266Y-89987031D01*
X115966266Y-88833015D01*
X117082833Y-88833015D01*
X117082833Y-89987031D01*
G37*
G36*
X117082833Y-91341046D02*
G01*
X115966266Y-91341046D01*
X115966266Y-90187030D01*
X117082833Y-90187030D01*
X117082833Y-91341046D01*
G37*
G36*
X117082833Y-92695062D02*
G01*
X115966266Y-92695062D01*
X115966266Y-91541046D01*
X117082833Y-91541046D01*
X117082833Y-92695062D01*
G37*
G36*
X117082833Y-94049077D02*
G01*
X115966266Y-94049077D01*
X115966266Y-92895061D01*
X117082833Y-92895061D01*
X117082833Y-94049077D01*
G37*
G36*
X117082833Y-95403092D02*
G01*
X115966266Y-95403092D01*
X115966266Y-94249077D01*
X117082833Y-94249077D01*
X117082833Y-95403092D01*
G37*
G36*
X117082833Y-96757108D02*
G01*
X115966266Y-96757108D01*
X115966266Y-95603092D01*
X117082833Y-95603092D01*
X117082833Y-96757108D01*
G37*
G36*
X117082833Y-98111123D02*
G01*
X115966266Y-98111123D01*
X115966266Y-96957108D01*
X117082833Y-96957108D01*
X117082833Y-98111123D01*
G37*
G36*
X117082833Y-99465139D02*
G01*
X115966266Y-99465139D01*
X115966266Y-98311123D01*
X117082833Y-98311123D01*
X117082833Y-99465139D01*
G37*
G36*
X117082833Y-100819154D02*
G01*
X115966266Y-100819154D01*
X115966266Y-99665138D01*
X117082833Y-99665138D01*
X117082833Y-100819154D01*
G37*
G36*
X117082833Y-102173170D02*
G01*
X115966266Y-102173170D01*
X115966266Y-101019154D01*
X117082833Y-101019154D01*
X117082833Y-102173170D01*
G37*
G36*
X117082833Y-103527185D02*
G01*
X115966266Y-103527185D01*
X115966266Y-102373169D01*
X117082833Y-102373169D01*
X117082833Y-103527185D01*
G37*
G36*
X117082833Y-104881200D02*
G01*
X115966266Y-104881200D01*
X115966266Y-103727185D01*
X117082833Y-103727185D01*
X117082833Y-104881200D01*
G37*
G36*
X118399400Y-88633015D02*
G01*
X117282833Y-88633015D01*
X117282833Y-87479000D01*
X118399400Y-87479000D01*
X118399400Y-88633015D01*
G37*
G36*
X118399400Y-89987031D02*
G01*
X117282833Y-89987031D01*
X117282833Y-88833015D01*
X118399400Y-88833015D01*
X118399400Y-89987031D01*
G37*
G36*
X118399400Y-91341046D02*
G01*
X117282833Y-91341046D01*
X117282833Y-90187030D01*
X118399400Y-90187030D01*
X118399400Y-91341046D01*
G37*
G36*
X118399400Y-92695062D02*
G01*
X117282833Y-92695062D01*
X117282833Y-91541046D01*
X118399400Y-91541046D01*
X118399400Y-92695062D01*
G37*
G36*
X118399400Y-94049077D02*
G01*
X117282833Y-94049077D01*
X117282833Y-92895061D01*
X118399400Y-92895061D01*
X118399400Y-94049077D01*
G37*
G36*
X118399400Y-95403092D02*
G01*
X117282833Y-95403092D01*
X117282833Y-94249077D01*
X118399400Y-94249077D01*
X118399400Y-95403092D01*
G37*
G36*
X118399400Y-96757108D02*
G01*
X117282833Y-96757108D01*
X117282833Y-95603092D01*
X118399400Y-95603092D01*
X118399400Y-96757108D01*
G37*
G36*
X118399400Y-98111123D02*
G01*
X117282833Y-98111123D01*
X117282833Y-96957108D01*
X118399400Y-96957108D01*
X118399400Y-98111123D01*
G37*
G36*
X118399400Y-99465139D02*
G01*
X117282833Y-99465139D01*
X117282833Y-98311123D01*
X118399400Y-98311123D01*
X118399400Y-99465139D01*
G37*
G36*
X118399400Y-100819154D02*
G01*
X117282833Y-100819154D01*
X117282833Y-99665138D01*
X118399400Y-99665138D01*
X118399400Y-100819154D01*
G37*
G36*
X118399400Y-102173170D02*
G01*
X117282833Y-102173170D01*
X117282833Y-101019154D01*
X118399400Y-101019154D01*
X118399400Y-102173170D01*
G37*
G36*
X118399400Y-103527185D02*
G01*
X117282833Y-103527185D01*
X117282833Y-102373169D01*
X118399400Y-102373169D01*
X118399400Y-103527185D01*
G37*
G36*
X118399400Y-104881200D02*
G01*
X117282833Y-104881200D01*
X117282833Y-103727185D01*
X118399400Y-103727185D01*
X118399400Y-104881200D01*
G37*
G36*
X119715967Y-88633015D02*
G01*
X118599400Y-88633015D01*
X118599400Y-87479000D01*
X119715967Y-87479000D01*
X119715967Y-88633015D01*
G37*
G36*
X119715967Y-89987031D02*
G01*
X118599400Y-89987031D01*
X118599400Y-88833015D01*
X119715967Y-88833015D01*
X119715967Y-89987031D01*
G37*
G36*
X119715967Y-91341046D02*
G01*
X118599400Y-91341046D01*
X118599400Y-90187030D01*
X119715967Y-90187030D01*
X119715967Y-91341046D01*
G37*
G36*
X119715967Y-92695062D02*
G01*
X118599400Y-92695062D01*
X118599400Y-91541046D01*
X119715967Y-91541046D01*
X119715967Y-92695062D01*
G37*
G36*
X119715967Y-94049077D02*
G01*
X118599400Y-94049077D01*
X118599400Y-92895061D01*
X119715967Y-92895061D01*
X119715967Y-94049077D01*
G37*
G36*
X119715967Y-95403092D02*
G01*
X118599400Y-95403092D01*
X118599400Y-94249077D01*
X119715967Y-94249077D01*
X119715967Y-95403092D01*
G37*
G36*
X119715967Y-96757108D02*
G01*
X118599400Y-96757108D01*
X118599400Y-95603092D01*
X119715967Y-95603092D01*
X119715967Y-96757108D01*
G37*
G36*
X119715967Y-98111123D02*
G01*
X118599400Y-98111123D01*
X118599400Y-96957108D01*
X119715967Y-96957108D01*
X119715967Y-98111123D01*
G37*
G36*
X119715967Y-99465139D02*
G01*
X118599400Y-99465139D01*
X118599400Y-98311123D01*
X119715967Y-98311123D01*
X119715967Y-99465139D01*
G37*
G36*
X119715967Y-100819154D02*
G01*
X118599400Y-100819154D01*
X118599400Y-99665138D01*
X119715967Y-99665138D01*
X119715967Y-100819154D01*
G37*
G36*
X119715967Y-102173170D02*
G01*
X118599400Y-102173170D01*
X118599400Y-101019154D01*
X119715967Y-101019154D01*
X119715967Y-102173170D01*
G37*
G36*
X119715967Y-103527185D02*
G01*
X118599400Y-103527185D01*
X118599400Y-102373169D01*
X119715967Y-102373169D01*
X119715967Y-103527185D01*
G37*
G36*
X119715967Y-104881200D02*
G01*
X118599400Y-104881200D01*
X118599400Y-103727185D01*
X119715967Y-103727185D01*
X119715967Y-104881200D01*
G37*
G36*
X121032533Y-88633015D02*
G01*
X119915966Y-88633015D01*
X119915966Y-87479000D01*
X121032533Y-87479000D01*
X121032533Y-88633015D01*
G37*
G36*
X121032533Y-89987031D02*
G01*
X119915966Y-89987031D01*
X119915966Y-88833015D01*
X121032533Y-88833015D01*
X121032533Y-89987031D01*
G37*
G36*
X121032533Y-91341046D02*
G01*
X119915966Y-91341046D01*
X119915966Y-90187030D01*
X121032533Y-90187030D01*
X121032533Y-91341046D01*
G37*
G36*
X121032533Y-92695062D02*
G01*
X119915966Y-92695062D01*
X119915966Y-91541046D01*
X121032533Y-91541046D01*
X121032533Y-92695062D01*
G37*
G36*
X121032533Y-94049077D02*
G01*
X119915966Y-94049077D01*
X119915966Y-92895061D01*
X121032533Y-92895061D01*
X121032533Y-94049077D01*
G37*
G36*
X121032533Y-95403092D02*
G01*
X119915966Y-95403092D01*
X119915966Y-94249077D01*
X121032533Y-94249077D01*
X121032533Y-95403092D01*
G37*
G36*
X121032533Y-96757108D02*
G01*
X119915966Y-96757108D01*
X119915966Y-95603092D01*
X121032533Y-95603092D01*
X121032533Y-96757108D01*
G37*
G36*
X121032533Y-98111123D02*
G01*
X119915966Y-98111123D01*
X119915966Y-96957108D01*
X121032533Y-96957108D01*
X121032533Y-98111123D01*
G37*
G36*
X121032533Y-99465139D02*
G01*
X119915966Y-99465139D01*
X119915966Y-98311123D01*
X121032533Y-98311123D01*
X121032533Y-99465139D01*
G37*
G36*
X121032533Y-100819154D02*
G01*
X119915966Y-100819154D01*
X119915966Y-99665138D01*
X121032533Y-99665138D01*
X121032533Y-100819154D01*
G37*
G36*
X121032533Y-102173170D02*
G01*
X119915966Y-102173170D01*
X119915966Y-101019154D01*
X121032533Y-101019154D01*
X121032533Y-102173170D01*
G37*
G36*
X121032533Y-103527185D02*
G01*
X119915966Y-103527185D01*
X119915966Y-102373169D01*
X121032533Y-102373169D01*
X121032533Y-103527185D01*
G37*
G36*
X121032533Y-104881200D02*
G01*
X119915966Y-104881200D01*
X119915966Y-103727185D01*
X121032533Y-103727185D01*
X121032533Y-104881200D01*
G37*
G36*
X122349100Y-88633015D02*
G01*
X121232533Y-88633015D01*
X121232533Y-87479000D01*
X122349100Y-87479000D01*
X122349100Y-88633015D01*
G37*
G36*
X122349100Y-89987031D02*
G01*
X121232533Y-89987031D01*
X121232533Y-88833015D01*
X122349100Y-88833015D01*
X122349100Y-89987031D01*
G37*
G36*
X122349100Y-91341046D02*
G01*
X121232533Y-91341046D01*
X121232533Y-90187030D01*
X122349100Y-90187030D01*
X122349100Y-91341046D01*
G37*
G36*
X122349100Y-92695062D02*
G01*
X121232533Y-92695062D01*
X121232533Y-91541046D01*
X122349100Y-91541046D01*
X122349100Y-92695062D01*
G37*
G36*
X122349100Y-94049077D02*
G01*
X121232533Y-94049077D01*
X121232533Y-92895061D01*
X122349100Y-92895061D01*
X122349100Y-94049077D01*
G37*
G36*
X122349100Y-95403092D02*
G01*
X121232533Y-95403092D01*
X121232533Y-94249077D01*
X122349100Y-94249077D01*
X122349100Y-95403092D01*
G37*
G36*
X122349100Y-96757108D02*
G01*
X121232533Y-96757108D01*
X121232533Y-95603092D01*
X122349100Y-95603092D01*
X122349100Y-96757108D01*
G37*
G36*
X122349100Y-98111123D02*
G01*
X121232533Y-98111123D01*
X121232533Y-96957108D01*
X122349100Y-96957108D01*
X122349100Y-98111123D01*
G37*
G36*
X122349100Y-99465139D02*
G01*
X121232533Y-99465139D01*
X121232533Y-98311123D01*
X122349100Y-98311123D01*
X122349100Y-99465139D01*
G37*
G36*
X122349100Y-100819154D02*
G01*
X121232533Y-100819154D01*
X121232533Y-99665138D01*
X122349100Y-99665138D01*
X122349100Y-100819154D01*
G37*
G36*
X122349100Y-102173170D02*
G01*
X121232533Y-102173170D01*
X121232533Y-101019154D01*
X122349100Y-101019154D01*
X122349100Y-102173170D01*
G37*
G36*
X122349100Y-103527185D02*
G01*
X121232533Y-103527185D01*
X121232533Y-102373169D01*
X122349100Y-102373169D01*
X122349100Y-103527185D01*
G37*
G36*
X122349100Y-104881200D02*
G01*
X121232533Y-104881200D01*
X121232533Y-103727185D01*
X122349100Y-103727185D01*
X122349100Y-104881200D01*
G37*
G36*
X93875700Y-115257100D02*
G01*
X92727699Y-115257100D01*
X92727699Y-113947100D01*
X93875700Y-113947100D01*
X93875700Y-115257100D01*
G37*
G36*
X93875700Y-116767100D02*
G01*
X92727699Y-116767100D01*
X92727699Y-115457100D01*
X93875700Y-115457100D01*
X93875700Y-116767100D01*
G37*
G36*
X95223699Y-115257100D02*
G01*
X94075697Y-115257100D01*
X94075697Y-113947100D01*
X95223699Y-113947100D01*
X95223699Y-115257100D01*
G37*
G36*
X95223699Y-116767100D02*
G01*
X94075697Y-116767100D01*
X94075697Y-115457100D01*
X95223699Y-115457100D01*
X95223699Y-116767100D01*
G37*
D11*
X86228700Y-98123100D03*
X86228700Y-90173100D03*
X90728700Y-98123100D03*
X90728700Y-90173100D03*
X93757700Y-98123100D03*
X93757700Y-90173100D03*
X98257700Y-98123100D03*
X98257700Y-90173100D03*
D12*
X83989600Y-107289000D03*
X83989600Y-106094000D03*
D13*
X105968800Y-90576400D03*
X105968800Y-91846400D03*
X105968800Y-93116400D03*
X105968800Y-94386400D03*
X105968800Y-95656400D03*
X105968800Y-96926400D03*
X105968800Y-98196400D03*
X105968800Y-99466400D03*
X105968800Y-100736400D03*
X105968800Y-102006400D03*
X105968800Y-103276400D03*
X105968800Y-104546400D03*
X105968800Y-105816400D03*
X105968800Y-107086400D03*
D14*
X108834700Y-108511000D03*
X110104700Y-108511000D03*
X111374700Y-108511000D03*
X112644700Y-108511000D03*
X113914700Y-108511000D03*
X115184700Y-108511000D03*
X116454700Y-108511000D03*
X117724700Y-108511000D03*
X118994700Y-108511000D03*
X120264700Y-108511000D03*
D13*
X123130600Y-107086400D03*
X123130600Y-105816400D03*
X123130600Y-104546400D03*
X123130600Y-103276400D03*
X123130600Y-102006400D03*
X123130600Y-100736400D03*
X123130600Y-99466400D03*
X123130600Y-98196400D03*
X123130600Y-96926400D03*
X123130600Y-95656400D03*
X123130600Y-94386400D03*
X123130600Y-93116400D03*
X123130600Y-91846400D03*
X123130600Y-90576400D03*
D15*
X97078800Y-116250600D03*
X97078800Y-115115600D03*
D16*
X94543200Y-117713100D03*
X93408200Y-117713100D03*
D17*
X89145800Y-101996400D03*
X89145800Y-104071400D03*
X100579700Y-113881600D03*
X100579700Y-115956600D03*
D18*
X96106800Y-86104100D03*
X96106800Y-84279100D03*
D19*
X120884100Y-110919800D03*
X120234100Y-110919800D03*
X119584100Y-110919800D03*
X118934100Y-110919800D03*
X118934100Y-116644800D03*
X119584100Y-116644800D03*
X120234100Y-116644800D03*
X120884100Y-116644800D03*
D20*
X127880800Y-106859900D03*
X127880800Y-108859900D03*
D17*
X102611700Y-113881600D03*
X102611700Y-115956600D03*
D21*
X88006700Y-110658100D03*
X85931700Y-110658100D03*
D22*
X84508450Y-101604450D03*
X86333450Y-101604450D03*
D23*
X122372400Y-130313500D03*
X125972400Y-130313500D03*
D24*
X105882300Y-116423900D03*
X111482300Y-116423900D03*
D19*
X116566100Y-110919800D03*
X115916100Y-110919800D03*
X115266100Y-110919800D03*
X114616100Y-110919800D03*
X114616100Y-116644800D03*
X115266100Y-116644800D03*
X115916100Y-116644800D03*
X116566100Y-116644800D03*
D25*
X95034300Y-82691600D03*
X96179300Y-82691600D03*
D18*
X105380300Y-123381600D03*
X105380300Y-121556600D03*
D26*
X94483700Y-111568600D03*
X94483700Y-109493600D03*
D27*
X103907100Y-123309300D03*
X103907100Y-122164300D03*
D28*
X93219700Y-82691500D03*
X92074700Y-82691500D03*
D29*
X94088700Y-106950100D03*
X96388700Y-106950100D03*
D30*
X96388700Y-100650100D03*
D29*
X98688700Y-106950100D03*
D31*
X90714000Y-107047100D03*
X88714000Y-107047100D03*
D18*
X98856800Y-86104100D03*
X98856800Y-84279100D03*
D32*
X118295600Y-121067900D03*
X120295600Y-121067900D03*
D26*
X98547700Y-111568600D03*
X98547700Y-109493600D03*
D33*
X103881700Y-93093600D03*
X103881700Y-96218600D03*
D18*
X93206000Y-86071600D03*
X93206000Y-84246600D03*
D34*
X108643800Y-111597900D03*
X111768800Y-111597900D03*
D17*
X101109200Y-100218400D03*
X101109200Y-102293400D03*
D20*
X122804700Y-110191500D03*
X122804700Y-112191500D03*
D35*
X104047200Y-90211100D03*
X100922200Y-90211100D03*
D33*
X83583200Y-95070600D03*
X83583200Y-98195600D03*
D32*
X107322800Y-122236300D03*
X109322800Y-122236300D03*
D36*
X91152000Y-122541100D03*
D37*
X84752000Y-122541100D03*
D38*
X95875699Y-116957099D03*
X95875699Y-116157101D03*
X95875699Y-115357100D03*
X95875699Y-114557099D03*
X95875699Y-113757101D03*
X92075701Y-113757101D03*
X92075701Y-114557099D03*
X92075701Y-115357100D03*
X92075701Y-116157101D03*
X92075701Y-116957099D03*
D26*
X101109200Y-107322600D03*
X101109200Y-105247600D03*
D39*
X130780300Y-108372100D03*
X130780300Y-113372100D03*
D40*
X115180800Y-121041900D03*
X115180800Y-124141900D03*
D34*
X122609900Y-126706700D03*
X125734900Y-126706700D03*
D41*
X127870500Y-124678900D03*
X127870500Y-123408900D03*
X127870500Y-122138900D03*
X127870500Y-120868900D03*
X122920500Y-120868900D03*
X122920500Y-122138900D03*
X122920500Y-123408900D03*
X122920500Y-124678900D03*
D42*
X103754700Y-111785100D03*
X103754700Y-109785100D03*
D20*
X100960700Y-92386100D03*
X100960700Y-94386100D03*
D26*
X96515700Y-111568600D03*
X96515700Y-109493600D03*
D32*
X118295600Y-124268300D03*
X120295600Y-124268300D03*
D25*
X97899500Y-82691600D03*
X99044500Y-82691600D03*
D43*
X89023700Y-116189100D03*
X85973700Y-116189100D03*
D42*
X101722700Y-111785100D03*
X101722700Y-109785100D03*
D21*
X104157200Y-87925100D03*
X102082200Y-87925100D03*
D26*
X92451700Y-111568600D03*
X92451700Y-109493600D03*
D17*
X98547700Y-113881600D03*
X98547700Y-115956600D03*
D44*
X124328700Y-117326000D03*
X124328700Y-114201000D03*
D45*
X105532700Y-110126600D03*
X105532700Y-111951600D03*
D17*
X91330200Y-101996400D03*
X91330200Y-104071400D03*
D21*
X88006700Y-112690100D03*
X85931700Y-112690100D03*
D44*
X83583200Y-93127900D03*
X83583200Y-90002900D03*
D31*
X86624150Y-103433250D03*
X84624150Y-103433250D03*
M02*
