G04 #@! TF.GenerationSoftware,KiCad,Pcbnew,8.0.7*
G04 #@! TF.CreationDate,2025-07-10T22:44:40+02:00*
G04 #@! TF.ProjectId,modbus-to-x,6d6f6462-7573-42d7-946f-2d782e6b6963,rev?*
G04 #@! TF.SameCoordinates,Original*
G04 #@! TF.FileFunction,Legend,Bot*
G04 #@! TF.FilePolarity,Positive*
%FSLAX46Y46*%
G04 Gerber Fmt 4.6, Leading zero omitted, Abs format (unit mm)*
G04 Created by KiCad (PCBNEW 8.0.7) date 2025-07-10 22:44:40*
%MOMM*%
%LPD*%
G01*
G04 APERTURE LIST*
G04 Aperture macros list*
%AMRoundRect*
0 Rectangle with rounded corners*
0 $1 Rounding radius*
0 $2 $3 $4 $5 $6 $7 $8 $9 X,Y pos of 4 corners*
0 Add a 4 corners polygon primitive as box body*
4,1,4,$2,$3,$4,$5,$6,$7,$8,$9,$2,$3,0*
0 Add four circle primitives for the rounded corners*
1,1,$1+$1,$2,$3*
1,1,$1+$1,$4,$5*
1,1,$1+$1,$6,$7*
1,1,$1+$1,$8,$9*
0 Add four rect primitives between the rounded corners*
20,1,$1+$1,$2,$3,$4,$5,0*
20,1,$1+$1,$4,$5,$6,$7,0*
20,1,$1+$1,$6,$7,$8,$9,0*
20,1,$1+$1,$8,$9,$2,$3,0*%
G04 Aperture macros list end*
%ADD10C,0.000000*%
%ADD11C,0.600000*%
%ADD12R,1.700000X1.700000*%
%ADD13O,1.700000X1.700000*%
%ADD14R,2.032000X2.032000*%
%ADD15C,2.032000*%
%ADD16C,0.499999*%
%ADD17C,1.734000*%
%ADD18RoundRect,0.102000X0.765000X0.765000X-0.765000X0.765000X-0.765000X-0.765000X0.765000X-0.765000X0*%
%ADD19R,2.413000X2.413000*%
%ADD20C,2.413000*%
G04 APERTURE END LIST*
D10*
G36*
X118443251Y-125159921D02*
G01*
X118582120Y-125162574D01*
X118664680Y-125169361D01*
X118702206Y-125182205D01*
X118705970Y-125203028D01*
X118687243Y-125233753D01*
X118672518Y-125253922D01*
X118612896Y-125334911D01*
X118517976Y-125463466D01*
X118395122Y-125629623D01*
X118251700Y-125823419D01*
X118095074Y-126034889D01*
X118008229Y-126152437D01*
X117861380Y-126352838D01*
X117733851Y-126528949D01*
X117632503Y-126671189D01*
X117564200Y-126769975D01*
X117535804Y-126815727D01*
X117538317Y-126831199D01*
X117576599Y-126904533D01*
X117654725Y-127027054D01*
X117767084Y-127190486D01*
X117908069Y-127386552D01*
X118072068Y-127606976D01*
X118161244Y-127725036D01*
X118319751Y-127934972D01*
X118463315Y-128125229D01*
X118583891Y-128285138D01*
X118673435Y-128404033D01*
X118723900Y-128471246D01*
X118818753Y-128598246D01*
X118354924Y-128598246D01*
X117891095Y-128598246D01*
X117464845Y-128013359D01*
X117038594Y-127428472D01*
X116898266Y-127622011D01*
X116716684Y-127872618D01*
X116572654Y-128071876D01*
X116463571Y-128223508D01*
X116383858Y-128335343D01*
X116327936Y-128415206D01*
X116290226Y-128470924D01*
X116265152Y-128510323D01*
X116249402Y-128534082D01*
X116217623Y-128563930D01*
X116166770Y-128582740D01*
X116082073Y-128593042D01*
X115948765Y-128597367D01*
X115752077Y-128598246D01*
X115575555Y-128595984D01*
X115428577Y-128589698D01*
X115329263Y-128580358D01*
X115292854Y-128568939D01*
X115315214Y-128531291D01*
X115378433Y-128439538D01*
X115476420Y-128302165D01*
X115603084Y-128127628D01*
X115752336Y-127924384D01*
X115918085Y-127700887D01*
X116082913Y-127478462D01*
X116232298Y-127274544D01*
X116359095Y-127099054D01*
X116457210Y-126960504D01*
X116520548Y-126867402D01*
X116543015Y-126828258D01*
X116530237Y-126804218D01*
X116476453Y-126724162D01*
X116386543Y-126597413D01*
X116266910Y-126432848D01*
X116123956Y-126239342D01*
X115964084Y-126025771D01*
X115845298Y-125867852D01*
X115693998Y-125666037D01*
X115562632Y-125490042D01*
X115457996Y-125349002D01*
X115386882Y-125252051D01*
X115356086Y-125208323D01*
X115353125Y-125196767D01*
X115378192Y-125178955D01*
X115452755Y-125167739D01*
X115586342Y-125162074D01*
X115788478Y-125160916D01*
X116249938Y-125162354D01*
X116638582Y-125703313D01*
X117027226Y-126244272D01*
X117375175Y-125750720D01*
X117440450Y-125657766D01*
X117554859Y-125492946D01*
X117648971Y-125354899D01*
X117714446Y-125255924D01*
X117742943Y-125208323D01*
X117743718Y-125206660D01*
X117781651Y-125184869D01*
X117873660Y-125170252D01*
X118027721Y-125162043D01*
X118251809Y-125159477D01*
X118443251Y-125159921D01*
G37*
G36*
X123025414Y-127009068D02*
G01*
X122819246Y-127057876D01*
X122556559Y-127073388D01*
X122220103Y-127074246D01*
X122197450Y-127293734D01*
X122175122Y-127427594D01*
X122078833Y-127701609D01*
X121925453Y-127955519D01*
X121727507Y-128170799D01*
X121497519Y-128328925D01*
X121405633Y-128371533D01*
X121149752Y-128456205D01*
X120887025Y-128502029D01*
X120649976Y-128502352D01*
X120628544Y-128499670D01*
X120336959Y-128423440D01*
X120059812Y-128281855D01*
X119812420Y-128086817D01*
X119610103Y-127850231D01*
X119468179Y-127584001D01*
X119427376Y-127450489D01*
X119386661Y-127189058D01*
X119382276Y-126993248D01*
X120136679Y-126993248D01*
X120162199Y-127212519D01*
X120232751Y-127413568D01*
X120347208Y-127580422D01*
X120504439Y-127697113D01*
X120703278Y-127764486D01*
X120905650Y-127764000D01*
X121116505Y-127689708D01*
X121245581Y-127606531D01*
X121380867Y-127448088D01*
X121459985Y-127239473D01*
X121485070Y-126976554D01*
X121483823Y-126921331D01*
X121443493Y-126658981D01*
X121346836Y-126449291D01*
X121194425Y-126293602D01*
X121189593Y-126290199D01*
X121000022Y-126202263D01*
X120791717Y-126178773D01*
X120586757Y-126218935D01*
X120407220Y-126321954D01*
X120341609Y-126385789D01*
X120225255Y-126563913D01*
X120157322Y-126771722D01*
X120136679Y-126993248D01*
X119382276Y-126993248D01*
X119380328Y-126906281D01*
X119408316Y-126632690D01*
X119470563Y-126398818D01*
X119578718Y-126188436D01*
X119760550Y-125953990D01*
X119982658Y-125752581D01*
X120224764Y-125605540D01*
X120291271Y-125575810D01*
X120407492Y-125532138D01*
X120519703Y-125507492D01*
X120655249Y-125497006D01*
X120841477Y-125495813D01*
X120970426Y-125498434D01*
X121143831Y-125511236D01*
X121278388Y-125537808D01*
X121398673Y-125581948D01*
X121453611Y-125609200D01*
X121629229Y-125724488D01*
X121804605Y-125874011D01*
X121955946Y-126035930D01*
X122059459Y-126188409D01*
X122136812Y-126340034D01*
X122428946Y-126325282D01*
X122578963Y-126313357D01*
X122700602Y-126289065D01*
X122757603Y-126252773D01*
X122760108Y-126246939D01*
X122770971Y-126176331D01*
X122780437Y-126043035D01*
X122787956Y-125859744D01*
X122792975Y-125639149D01*
X122794943Y-125393939D01*
X122795030Y-125354604D01*
X122797804Y-125103989D01*
X122803939Y-124873428D01*
X122812802Y-124677446D01*
X122823760Y-124530565D01*
X122836182Y-124447310D01*
X122855311Y-124388859D01*
X122970012Y-124181247D01*
X123143552Y-123996148D01*
X123360768Y-123850806D01*
X123590703Y-123733169D01*
X125527859Y-123720579D01*
X125567090Y-123720330D01*
X125953504Y-123718457D01*
X126320131Y-123717700D01*
X126658632Y-123718008D01*
X126960670Y-123719328D01*
X127217908Y-123721608D01*
X127422008Y-123724798D01*
X127564633Y-123728844D01*
X127637445Y-123733696D01*
X127767317Y-123769195D01*
X127909667Y-123859776D01*
X128001870Y-123984905D01*
X128037906Y-124129826D01*
X128011758Y-124279783D01*
X127917406Y-124420021D01*
X127803181Y-124534246D01*
X126608329Y-124534246D01*
X125413477Y-124534246D01*
X125413477Y-126412944D01*
X125413477Y-128291643D01*
X125299252Y-128405868D01*
X125286692Y-128418145D01*
X125172586Y-128497312D01*
X125042246Y-128520092D01*
X125026673Y-128519867D01*
X124899763Y-128491915D01*
X124785240Y-128405868D01*
X124671015Y-128291643D01*
X124671015Y-126409672D01*
X124671015Y-124527701D01*
X124203070Y-124540743D01*
X124115436Y-124542949D01*
X123942191Y-124548318D01*
X123809126Y-124561116D01*
X123710682Y-124590169D01*
X123641299Y-124644303D01*
X123595416Y-124732343D01*
X123567472Y-124863115D01*
X123551908Y-125045445D01*
X123543162Y-125288159D01*
X123535676Y-125600082D01*
X123527310Y-125898374D01*
X123517098Y-126144051D01*
X123503372Y-126333140D01*
X123484090Y-126476658D01*
X123457214Y-126585626D01*
X123420701Y-126671060D01*
X123372512Y-126743980D01*
X123310606Y-126815405D01*
X123191656Y-126921288D01*
X123086991Y-126976554D01*
X123025414Y-127009068D01*
G37*
G36*
X116914033Y-122763371D02*
G01*
X116837566Y-123052031D01*
X116703847Y-123315138D01*
X116517088Y-123542356D01*
X116281497Y-123723350D01*
X116001286Y-123847785D01*
X115994424Y-123849835D01*
X115859889Y-123877252D01*
X115685610Y-123897158D01*
X115507477Y-123905366D01*
X115266386Y-123889331D01*
X114956135Y-123809123D01*
X114686454Y-123665254D01*
X114462794Y-123461863D01*
X114290602Y-123203093D01*
X114175329Y-122893083D01*
X114135299Y-122662112D01*
X114137889Y-122504111D01*
X114875277Y-122504111D01*
X114898065Y-122723565D01*
X114973195Y-122924519D01*
X115097834Y-123091572D01*
X115269149Y-123209326D01*
X115387339Y-123252690D01*
X115597830Y-123274233D01*
X115795103Y-123218758D01*
X115978483Y-123086381D01*
X116080842Y-122953045D01*
X116159737Y-122749870D01*
X116184700Y-122521801D01*
X116154097Y-122287813D01*
X116066295Y-122066881D01*
X116060929Y-122057529D01*
X115929198Y-121901947D01*
X115760266Y-121803290D01*
X115570839Y-121762655D01*
X115377623Y-121781142D01*
X115197323Y-121859847D01*
X115046643Y-121999869D01*
X114998057Y-122071295D01*
X114907663Y-122281555D01*
X114875277Y-122504111D01*
X114137889Y-122504111D01*
X114140632Y-122336802D01*
X114216173Y-122025908D01*
X114358659Y-121741149D01*
X114564827Y-121494245D01*
X114675999Y-121396728D01*
X114851239Y-121280105D01*
X115041314Y-121205444D01*
X115266370Y-121165767D01*
X115546554Y-121154092D01*
X115670103Y-121154889D01*
X115824671Y-121161487D01*
X115940323Y-121178362D01*
X116041401Y-121209768D01*
X116152246Y-121259959D01*
X116400162Y-121413896D01*
X116621012Y-121634182D01*
X116789888Y-121911736D01*
X116878374Y-122150737D01*
X116929039Y-122459495D01*
X116925962Y-122521801D01*
X116914033Y-122763371D01*
G37*
G36*
X113864640Y-122560628D02*
G01*
X113838119Y-122851422D01*
X113769511Y-123107650D01*
X113718256Y-123216936D01*
X113586658Y-123415951D01*
X113421285Y-123599418D01*
X113241077Y-123747627D01*
X113064974Y-123840867D01*
X113055670Y-123844099D01*
X112820150Y-123896547D01*
X112575888Y-123902465D01*
X112342643Y-123864950D01*
X112140180Y-123787101D01*
X111988260Y-123672019D01*
X111972784Y-123655425D01*
X111904258Y-123602923D01*
X111865799Y-123621952D01*
X111853784Y-123713631D01*
X111853784Y-123830862D01*
X111502092Y-123830862D01*
X111150400Y-123830862D01*
X111150400Y-122435583D01*
X111865863Y-122435583D01*
X111869515Y-122669837D01*
X111929839Y-122885332D01*
X112041723Y-123060297D01*
X112199158Y-123181292D01*
X112311588Y-123225476D01*
X112519675Y-123253549D01*
X112720786Y-123219383D01*
X112892549Y-123124799D01*
X112931540Y-123087221D01*
X113026915Y-122933980D01*
X113085701Y-122738435D01*
X113105277Y-122522016D01*
X113083024Y-122306153D01*
X113016323Y-122112275D01*
X113000188Y-122081840D01*
X112878363Y-121915866D01*
X112726392Y-121815816D01*
X112530772Y-121772231D01*
X112351351Y-121781589D01*
X112167937Y-121855479D01*
X112022375Y-121992608D01*
X111919929Y-122187727D01*
X111865863Y-122435583D01*
X111150400Y-122435583D01*
X111150400Y-122051395D01*
X111150400Y-120271929D01*
X111511861Y-120283164D01*
X111873323Y-120294400D01*
X111892861Y-120875048D01*
X111897059Y-120997760D01*
X111904453Y-121184896D01*
X111912236Y-121309065D01*
X111922225Y-121380310D01*
X111936234Y-121408669D01*
X111956078Y-121404183D01*
X111983571Y-121376892D01*
X112023528Y-121342098D01*
X112128752Y-121274843D01*
X112255538Y-121211708D01*
X112455149Y-121155251D01*
X112703119Y-121138870D01*
X112951161Y-121168715D01*
X113167260Y-121243662D01*
X113179974Y-121250371D01*
X113351915Y-121373488D01*
X113521629Y-121546557D01*
X113668634Y-121745763D01*
X113772446Y-121947290D01*
X113791104Y-121999775D01*
X113848994Y-122266376D01*
X113862587Y-122522016D01*
X113864640Y-122560628D01*
G37*
G36*
X110642400Y-123830862D02*
G01*
X110290708Y-123830862D01*
X109939015Y-123830862D01*
X109939015Y-123686781D01*
X109939015Y-123542701D01*
X109827894Y-123649162D01*
X109786694Y-123683802D01*
X109661991Y-123764397D01*
X109525048Y-123830491D01*
X109380302Y-123875640D01*
X109098606Y-123908212D01*
X108816211Y-123876676D01*
X108551903Y-123784112D01*
X108324466Y-123633601D01*
X108219726Y-123529689D01*
X108043043Y-123275026D01*
X107927288Y-122976572D01*
X107875701Y-122641484D01*
X107873280Y-122573666D01*
X107881483Y-122458904D01*
X108630219Y-122458904D01*
X108634138Y-122671929D01*
X108679510Y-122871245D01*
X108767148Y-123039867D01*
X108897868Y-123160812D01*
X109074603Y-123237601D01*
X109283092Y-123261309D01*
X109479693Y-123218333D01*
X109651253Y-123114310D01*
X109784621Y-122954874D01*
X109866646Y-122745662D01*
X109885835Y-122610843D01*
X109880908Y-122388928D01*
X109838141Y-122177042D01*
X109761964Y-122006462D01*
X109696761Y-121927646D01*
X109539714Y-121821330D01*
X109350980Y-121767077D01*
X109151316Y-121769392D01*
X108961483Y-121832780D01*
X108859048Y-121907431D01*
X108743488Y-122059671D01*
X108666941Y-122249157D01*
X108630219Y-122458904D01*
X107881483Y-122458904D01*
X107897539Y-122234284D01*
X107980046Y-121928460D01*
X108115457Y-121662875D01*
X108298432Y-121444206D01*
X108523629Y-121279132D01*
X108785706Y-121174333D01*
X109079323Y-121136487D01*
X109329945Y-121154009D01*
X109544883Y-121217764D01*
X109720550Y-121332070D01*
X109758077Y-121364175D01*
X109834349Y-121423602D01*
X109875789Y-121447169D01*
X109880116Y-121437678D01*
X109887954Y-121366838D01*
X109894241Y-121238109D01*
X109898421Y-121064999D01*
X109899938Y-120861016D01*
X109899938Y-120274862D01*
X110271169Y-120274862D01*
X110642400Y-120274862D01*
X110642400Y-122052862D01*
X110642400Y-122610843D01*
X110642400Y-123830862D01*
G37*
G36*
X105797007Y-122043092D02*
G01*
X105797027Y-122092349D01*
X105797845Y-122360044D01*
X105800515Y-122562743D01*
X105805946Y-122711798D01*
X105815046Y-122818558D01*
X105828721Y-122894374D01*
X105847881Y-122950598D01*
X105873433Y-122998580D01*
X105896383Y-123032828D01*
X106033806Y-123160117D01*
X106207266Y-123231082D01*
X106397043Y-123240587D01*
X106583419Y-123183497D01*
X106638867Y-123150758D01*
X106696715Y-123098851D01*
X106740320Y-123027350D01*
X106771629Y-122926502D01*
X106792589Y-122786553D01*
X106805150Y-122597752D01*
X106811258Y-122350345D01*
X106812861Y-122034578D01*
X106812861Y-121212708D01*
X107184092Y-121212708D01*
X107555323Y-121212708D01*
X107555323Y-122143461D01*
X107555107Y-122289421D01*
X107552009Y-122611203D01*
X107543793Y-122868890D01*
X107528629Y-123072548D01*
X107504686Y-123232244D01*
X107470134Y-123358046D01*
X107423142Y-123460019D01*
X107361879Y-123548230D01*
X107284516Y-123632746D01*
X107232383Y-123679861D01*
X107096074Y-123776641D01*
X106964284Y-123842430D01*
X106724277Y-123899490D01*
X106441194Y-123899965D01*
X106171107Y-123830395D01*
X105928572Y-123692883D01*
X105841748Y-123629413D01*
X105785404Y-123603936D01*
X105762265Y-123631420D01*
X105757784Y-123713631D01*
X105757784Y-123830862D01*
X105406092Y-123830862D01*
X105054400Y-123830862D01*
X105054400Y-122521785D01*
X105054400Y-121212708D01*
X105425631Y-121212708D01*
X105796861Y-121212708D01*
X105797007Y-122043092D01*
G37*
G36*
X103811252Y-121167559D02*
G01*
X104079521Y-121245387D01*
X104297621Y-121368270D01*
X104460125Y-121532617D01*
X104561608Y-121734836D01*
X104596642Y-121971337D01*
X104594437Y-122042827D01*
X104560985Y-122226856D01*
X104482195Y-122379255D01*
X104351546Y-122505202D01*
X104162517Y-122609876D01*
X103908586Y-122698455D01*
X103583234Y-122776118D01*
X103455051Y-122802837D01*
X103258637Y-122848582D01*
X103122193Y-122890196D01*
X103034267Y-122932483D01*
X102983407Y-122980245D01*
X102958159Y-123038287D01*
X102952922Y-123107189D01*
X103001396Y-123203210D01*
X103118177Y-123271513D01*
X103299173Y-123308849D01*
X103425240Y-123314820D01*
X103631250Y-123288775D01*
X103786051Y-123215933D01*
X103882092Y-123099015D01*
X103906523Y-123050000D01*
X103949775Y-122998467D01*
X104017349Y-122977810D01*
X104136092Y-122974912D01*
X104184179Y-122976041D01*
X104353767Y-122986408D01*
X104507323Y-123003471D01*
X104570771Y-123013716D01*
X104645919Y-123035675D01*
X104672628Y-123074462D01*
X104670213Y-123147113D01*
X104657562Y-123218895D01*
X104572031Y-123415879D01*
X104419961Y-123592830D01*
X104209569Y-123741689D01*
X103949069Y-123854399D01*
X103843231Y-123878123D01*
X103637977Y-123896594D01*
X103370531Y-123898299D01*
X103198208Y-123892780D01*
X103052449Y-123881534D01*
X102941020Y-123860635D01*
X102840451Y-123825450D01*
X102727276Y-123771348D01*
X102647564Y-123726700D01*
X102447880Y-123566614D01*
X102314242Y-123373663D01*
X102251290Y-123153868D01*
X102250577Y-122905108D01*
X102313158Y-122690896D01*
X102441434Y-122517562D01*
X102636757Y-122382400D01*
X102717533Y-122349636D01*
X102864945Y-122303096D01*
X103047842Y-122253951D01*
X103243895Y-122208594D01*
X103416052Y-122169344D01*
X103585763Y-122124790D01*
X103717057Y-122083945D01*
X103790760Y-122052288D01*
X103846694Y-122004452D01*
X103884927Y-121917021D01*
X103860447Y-121830228D01*
X103781824Y-121754870D01*
X103657630Y-121701740D01*
X103496436Y-121681631D01*
X103333282Y-121695648D01*
X103178568Y-121755468D01*
X103071264Y-121866272D01*
X103038110Y-121914680D01*
X102998352Y-121948062D01*
X102937371Y-121964189D01*
X102836212Y-121967713D01*
X102675923Y-121963285D01*
X102348985Y-121951861D01*
X102373517Y-121829197D01*
X102443296Y-121621905D01*
X102581179Y-121429385D01*
X102778949Y-121284002D01*
X103033973Y-121187623D01*
X103343617Y-121142111D01*
X103498243Y-121138379D01*
X103811252Y-121167559D01*
G37*
G36*
X121154765Y-121046631D02*
G01*
X121154946Y-121243478D01*
X121155288Y-121584070D01*
X121155682Y-121948642D01*
X121156092Y-122304632D01*
X121156483Y-122619477D01*
X121156519Y-122647645D01*
X121156736Y-122904481D01*
X121156764Y-123146553D01*
X121156611Y-123358013D01*
X121156290Y-123523013D01*
X121155811Y-123625708D01*
X121154092Y-123830862D01*
X120802949Y-123830862D01*
X120451805Y-123830862D01*
X120441487Y-122594711D01*
X120431169Y-121358561D01*
X120090171Y-122252788D01*
X120038442Y-122388505D01*
X119934719Y-122660996D01*
X119835224Y-122922821D01*
X119745870Y-123158393D01*
X119672573Y-123352126D01*
X119621247Y-123488436D01*
X119493323Y-123829857D01*
X119255245Y-123830359D01*
X119017166Y-123830862D01*
X118783054Y-123234939D01*
X118762311Y-123182040D01*
X118655125Y-122906462D01*
X118536632Y-122598909D01*
X118419838Y-122293244D01*
X118317748Y-122023331D01*
X118086554Y-121407647D01*
X118076228Y-122619254D01*
X118065902Y-123830862D01*
X117694830Y-123830862D01*
X117323757Y-123830862D01*
X117333925Y-122062631D01*
X117344092Y-120294400D01*
X117852092Y-120294400D01*
X118360092Y-120294400D01*
X118484125Y-120607016D01*
X118493732Y-120631348D01*
X118550791Y-120778258D01*
X118627395Y-120978139D01*
X118717260Y-121214479D01*
X118814101Y-121470763D01*
X118911635Y-121730477D01*
X118953657Y-121842188D01*
X119039204Y-122065984D01*
X119114498Y-122258151D01*
X119175352Y-122408263D01*
X119217578Y-122505891D01*
X119236987Y-122540607D01*
X119240153Y-122536896D01*
X119266708Y-122480169D01*
X119315696Y-122362048D01*
X119383555Y-122191561D01*
X119466721Y-121977741D01*
X119561634Y-121729618D01*
X119664730Y-121456222D01*
X119695111Y-121375253D01*
X119797540Y-121104514D01*
X119891606Y-120859204D01*
X119973554Y-120648897D01*
X120039628Y-120483164D01*
X120086072Y-120371577D01*
X120109130Y-120323708D01*
X120149704Y-120302972D01*
X120249983Y-120286952D01*
X120414806Y-120277784D01*
X120650877Y-120274862D01*
X121154092Y-120274862D01*
X121154765Y-121046631D01*
G37*
G36*
X130259015Y-116406246D02*
G01*
X130874477Y-116406822D01*
X131087158Y-116408100D01*
X131298566Y-116414464D01*
X131453667Y-116429032D01*
X131564693Y-116454926D01*
X131643872Y-116495269D01*
X131703435Y-116553183D01*
X131755613Y-116631792D01*
X131806911Y-116775176D01*
X131784876Y-116916234D01*
X131685510Y-117054381D01*
X131648914Y-117088373D01*
X131608837Y-117113283D01*
X131553239Y-117130180D01*
X131469592Y-117140617D01*
X131345371Y-117146148D01*
X131168048Y-117148327D01*
X130925099Y-117148708D01*
X130259015Y-117148708D01*
X130259015Y-118177154D01*
X130258145Y-118485507D01*
X130253922Y-118788709D01*
X130244693Y-119031782D01*
X130228831Y-119224508D01*
X130204708Y-119376669D01*
X130170695Y-119498046D01*
X130125165Y-119598423D01*
X130066489Y-119687579D01*
X129993041Y-119775298D01*
X129933470Y-119838729D01*
X129831974Y-119928799D01*
X129723902Y-119993346D01*
X129594969Y-120036487D01*
X129430893Y-120062336D01*
X129217387Y-120075008D01*
X128940169Y-120078619D01*
X128344246Y-120079477D01*
X128344246Y-120805406D01*
X128344246Y-121531335D01*
X128230021Y-121645560D01*
X128228266Y-121647309D01*
X128109836Y-121734061D01*
X127979217Y-121759785D01*
X127875442Y-121755686D01*
X127782202Y-121735753D01*
X127712742Y-121691040D01*
X127663625Y-121612663D01*
X127631411Y-121491735D01*
X127612659Y-121319373D01*
X127603930Y-121086690D01*
X127601784Y-120784802D01*
X127601784Y-120079477D01*
X127135230Y-120079477D01*
X126668675Y-120079477D01*
X126656538Y-120825403D01*
X126644400Y-121571329D01*
X126534759Y-121665557D01*
X126469348Y-121711618D01*
X126315499Y-121760551D01*
X126160153Y-121742145D01*
X126024498Y-121656764D01*
X125921477Y-121553743D01*
X125921477Y-120816610D01*
X125921477Y-120079477D01*
X125452554Y-120079477D01*
X124983631Y-120079477D01*
X124983631Y-120816610D01*
X124983631Y-121553743D01*
X124880610Y-121656764D01*
X124770600Y-121733629D01*
X124619141Y-121767346D01*
X124469132Y-121735757D01*
X124342335Y-121639556D01*
X124326602Y-121620717D01*
X124295065Y-121578230D01*
X124272436Y-121531258D01*
X124257238Y-121467525D01*
X124247990Y-121374751D01*
X124243215Y-121240658D01*
X124241434Y-121052968D01*
X124241169Y-120799402D01*
X124241169Y-120079477D01*
X123623611Y-120079477D01*
X123496913Y-120079351D01*
X123295028Y-120077620D01*
X123148046Y-120072305D01*
X123040480Y-120061471D01*
X122956844Y-120043183D01*
X122881652Y-120015506D01*
X122799417Y-119976506D01*
X122622425Y-119860850D01*
X122442691Y-119664262D01*
X122319010Y-119421853D01*
X122305496Y-119367050D01*
X122291454Y-119254683D01*
X122280964Y-119089467D01*
X122273760Y-118865085D01*
X122269578Y-118575222D01*
X122268152Y-118213561D01*
X122267784Y-117148722D01*
X121559959Y-117148715D01*
X120852134Y-117148708D01*
X120749113Y-117045687D01*
X120700903Y-116986094D01*
X120646774Y-116838599D01*
X120659788Y-116681312D01*
X120740311Y-116535425D01*
X120834530Y-116425785D01*
X121551157Y-116406246D01*
X122267784Y-116386708D01*
X122268085Y-116366484D01*
X123772246Y-116366484D01*
X123772273Y-116670497D01*
X123772755Y-117077987D01*
X123774414Y-117418292D01*
X123777981Y-117698058D01*
X123784189Y-117923934D01*
X123793767Y-118102567D01*
X123807448Y-118240605D01*
X123825961Y-118344695D01*
X123850038Y-118421485D01*
X123880410Y-118477623D01*
X123917808Y-118519755D01*
X123962963Y-118554530D01*
X124016606Y-118588596D01*
X124033491Y-118598868D01*
X124065036Y-118615685D01*
X124102324Y-118629734D01*
X124151939Y-118641262D01*
X124220463Y-118650519D01*
X124314479Y-118657754D01*
X124440570Y-118663216D01*
X124605318Y-118667154D01*
X124815306Y-118669818D01*
X125077117Y-118671456D01*
X125397333Y-118672317D01*
X125782538Y-118672652D01*
X126239314Y-118672708D01*
X126588548Y-118672635D01*
X126993697Y-118672203D01*
X127332142Y-118671193D01*
X127610446Y-118669395D01*
X127835168Y-118666597D01*
X128012870Y-118662589D01*
X128150112Y-118657160D01*
X128253457Y-118650098D01*
X128329463Y-118641192D01*
X128384693Y-118630232D01*
X128425708Y-118617006D01*
X128459067Y-118601304D01*
X128466970Y-118596904D01*
X128578022Y-118507783D01*
X128663611Y-118396760D01*
X128664711Y-118394696D01*
X128681058Y-118359240D01*
X128694668Y-118315421D01*
X128705789Y-118256262D01*
X128714670Y-118174784D01*
X128721560Y-118064006D01*
X128726708Y-117916950D01*
X128730362Y-117726636D01*
X128732771Y-117486086D01*
X128734184Y-117188320D01*
X128734849Y-116826359D01*
X128735015Y-116393223D01*
X128734994Y-116083262D01*
X128734526Y-115678578D01*
X128732857Y-115340910D01*
X128729222Y-115063575D01*
X128722859Y-114839886D01*
X128713001Y-114663160D01*
X128698887Y-114526711D01*
X128679751Y-114423854D01*
X128654830Y-114347905D01*
X128623360Y-114292177D01*
X128584576Y-114249987D01*
X128537715Y-114214649D01*
X128482012Y-114179478D01*
X128472498Y-114173696D01*
X128441777Y-114157394D01*
X128404714Y-114143719D01*
X128354779Y-114132441D01*
X128285446Y-114123329D01*
X128190185Y-114116154D01*
X128062469Y-114110686D01*
X127895769Y-114106695D01*
X127683556Y-114103952D01*
X127419304Y-114102226D01*
X127096482Y-114101287D01*
X126708563Y-114100907D01*
X126249018Y-114100854D01*
X126167190Y-114100861D01*
X125719624Y-114101036D01*
X125342606Y-114101591D01*
X125029618Y-114102752D01*
X124774140Y-114104741D01*
X124569654Y-114107782D01*
X124409639Y-114112098D01*
X124287576Y-114117913D01*
X124196947Y-114125449D01*
X124131231Y-114134931D01*
X124083910Y-114146581D01*
X124048464Y-114160622D01*
X124018374Y-114177280D01*
X123977793Y-114202087D01*
X123929791Y-114234754D01*
X123889911Y-114271972D01*
X123857399Y-114320432D01*
X123831503Y-114386824D01*
X123811471Y-114477840D01*
X123796551Y-114600171D01*
X123785990Y-114760509D01*
X123779036Y-114965544D01*
X123774937Y-115221967D01*
X123772940Y-115536471D01*
X123772294Y-115915746D01*
X123772246Y-116366484D01*
X122268085Y-116366484D01*
X122274917Y-115908016D01*
X122282049Y-115429323D01*
X121578296Y-115429323D01*
X120874542Y-115429323D01*
X120760317Y-115315098D01*
X120681526Y-115210015D01*
X120639506Y-115061080D01*
X120667832Y-114915114D01*
X120766321Y-114788028D01*
X120777274Y-114778841D01*
X120821190Y-114744988D01*
X120867519Y-114720662D01*
X120928883Y-114704287D01*
X121017906Y-114694286D01*
X121147212Y-114689084D01*
X121329425Y-114687102D01*
X121577167Y-114686766D01*
X122267784Y-114686670D01*
X122273429Y-114044766D01*
X122274225Y-113961458D01*
X122277686Y-113739890D01*
X122283861Y-113577165D01*
X122294481Y-113458558D01*
X122311275Y-113369342D01*
X122335974Y-113294793D01*
X122370307Y-113220185D01*
X122401714Y-113163153D01*
X122490303Y-113034578D01*
X122579586Y-112937956D01*
X122649737Y-112882027D01*
X122739434Y-112825070D01*
X122838638Y-112784618D01*
X122961069Y-112757929D01*
X123120446Y-112742260D01*
X123330488Y-112734870D01*
X123604914Y-112733016D01*
X124260708Y-112733016D01*
X124260708Y-111971904D01*
X124260708Y-111210792D01*
X124363196Y-111108304D01*
X124375495Y-111096583D01*
X124509440Y-111020910D01*
X124658850Y-111006783D01*
X124802948Y-111048605D01*
X124920961Y-111140779D01*
X124992114Y-111277711D01*
X124999331Y-111326041D01*
X125007518Y-111450451D01*
X125012875Y-111625880D01*
X125014971Y-111836411D01*
X125013377Y-112066127D01*
X125003169Y-112733091D01*
X125462323Y-112733053D01*
X125921477Y-112733016D01*
X125921477Y-111987985D01*
X125922144Y-111831598D01*
X125926802Y-111575735D01*
X125935556Y-111373825D01*
X125947992Y-111233917D01*
X125963699Y-111164061D01*
X126004513Y-111109940D01*
X126122026Y-111033772D01*
X126268259Y-110998885D01*
X126413969Y-111014961D01*
X126453725Y-111029263D01*
X126524813Y-111066640D01*
X126577961Y-111121265D01*
X126615721Y-111203284D01*
X126640645Y-111322838D01*
X126655288Y-111490072D01*
X126662201Y-111715129D01*
X126663938Y-112008152D01*
X126663938Y-112733016D01*
X127132861Y-112733016D01*
X127601784Y-112733016D01*
X127601784Y-111969239D01*
X127601844Y-111802145D01*
X127602751Y-111581609D01*
X127605782Y-111420774D01*
X127612219Y-111308137D01*
X127623347Y-111232197D01*
X127640447Y-111181453D01*
X127664804Y-111144404D01*
X127697701Y-111109547D01*
X127738278Y-111073563D01*
X127835639Y-111026580D01*
X127973015Y-111013631D01*
X128042775Y-111016087D01*
X128157585Y-111043021D01*
X128248330Y-111109547D01*
X128269306Y-111130993D01*
X128296888Y-111165801D01*
X128316705Y-111209753D01*
X128330042Y-111274351D01*
X128338181Y-111371098D01*
X128342406Y-111511493D01*
X128344000Y-111707040D01*
X128344246Y-111969239D01*
X128344246Y-112733016D01*
X128971034Y-112733016D01*
X129151664Y-112733964D01*
X129384825Y-112740953D01*
X129562319Y-112757750D01*
X129697905Y-112787863D01*
X129805339Y-112834803D01*
X129898380Y-112902080D01*
X129990785Y-112993206D01*
X130061822Y-113073883D01*
X130128094Y-113166980D01*
X130175815Y-113268010D01*
X130208510Y-113391017D01*
X130229707Y-113550042D01*
X130242931Y-113759130D01*
X130251709Y-114032323D01*
X130268034Y-114686862D01*
X130912201Y-114686862D01*
X131556369Y-114686862D01*
X131689231Y-114819723D01*
X131728537Y-114862804D01*
X131795580Y-114959874D01*
X131822092Y-115036587D01*
X131819927Y-115067721D01*
X131781966Y-115192862D01*
X131711723Y-115311947D01*
X131628872Y-115389088D01*
X131603039Y-115396919D01*
X131501724Y-115409973D01*
X131342875Y-115420224D01*
X131139936Y-115426924D01*
X130906353Y-115429323D01*
X130259015Y-115429323D01*
X130259015Y-115917785D01*
X130259015Y-116393223D01*
X130259015Y-116406246D01*
G37*
G36*
X111974022Y-111425561D02*
G01*
X112225398Y-111464175D01*
X112576147Y-111547886D01*
X113002797Y-111713401D01*
X113394796Y-111938393D01*
X113737488Y-112215580D01*
X113882269Y-112354675D01*
X114182075Y-112265672D01*
X114347338Y-112221798D01*
X114782821Y-112157543D01*
X115213082Y-112170363D01*
X115641610Y-112260560D01*
X116071897Y-112428433D01*
X116244442Y-112517778D01*
X116396249Y-112616082D01*
X116545334Y-112738540D01*
X116717108Y-112903875D01*
X116742855Y-112930029D01*
X116969450Y-113187391D01*
X117139572Y-113444627D01*
X117267691Y-113727465D01*
X117368277Y-114061631D01*
X117384807Y-114127267D01*
X117421446Y-114266763D01*
X117449900Y-114366855D01*
X117465078Y-114409263D01*
X117486576Y-114417757D01*
X117567592Y-114436366D01*
X117685211Y-114457161D01*
X117690408Y-114457993D01*
X117949991Y-114529536D01*
X118224122Y-114656031D01*
X118489352Y-114824691D01*
X118722230Y-115022725D01*
X118819872Y-115127880D01*
X119031814Y-115431208D01*
X119176701Y-115765138D01*
X119253141Y-116120542D01*
X119259744Y-116488294D01*
X119195116Y-116859267D01*
X119057868Y-117224334D01*
X119034600Y-117268964D01*
X118902150Y-117464734D01*
X118722964Y-117670297D01*
X118516321Y-117866903D01*
X118301495Y-118035802D01*
X118097763Y-118158244D01*
X118091545Y-118161256D01*
X117987940Y-118210160D01*
X117890291Y-118251821D01*
X117791588Y-118286820D01*
X117684824Y-118315740D01*
X117562987Y-118339163D01*
X117419071Y-118357671D01*
X117246064Y-118371845D01*
X117036958Y-118382269D01*
X116784745Y-118389523D01*
X116482415Y-118394191D01*
X116122958Y-118396853D01*
X115699367Y-118398092D01*
X115204631Y-118398491D01*
X114996236Y-118398634D01*
X114611078Y-118399311D01*
X114254121Y-118400471D01*
X113932504Y-118402059D01*
X113653360Y-118404022D01*
X113423826Y-118406304D01*
X113251039Y-118408851D01*
X113142134Y-118411609D01*
X113104246Y-118414523D01*
X113105376Y-118418817D01*
X113125330Y-118477814D01*
X113167669Y-118598339D01*
X113229099Y-118771151D01*
X113306329Y-118987012D01*
X113396066Y-119236683D01*
X113495015Y-119510925D01*
X113521891Y-119585436D01*
X113619164Y-119857876D01*
X113706241Y-120106009D01*
X113779781Y-120320022D01*
X113836445Y-120490098D01*
X113872893Y-120606424D01*
X113885784Y-120659184D01*
X113885689Y-120664029D01*
X113851679Y-120768284D01*
X113773596Y-120871271D01*
X113676449Y-120939498D01*
X113581881Y-120968289D01*
X113463101Y-120965568D01*
X113321657Y-120912947D01*
X113284979Y-120895710D01*
X113251049Y-120877311D01*
X113219565Y-120852783D01*
X113187843Y-120816017D01*
X113153200Y-120760907D01*
X113112950Y-120681345D01*
X113064410Y-120571222D01*
X113004895Y-120424433D01*
X112931723Y-120234868D01*
X112842207Y-119996421D01*
X112733666Y-119702983D01*
X112603414Y-119348448D01*
X112448767Y-118926708D01*
X112262463Y-118418708D01*
X110289893Y-118397273D01*
X110233836Y-118396665D01*
X109780679Y-118391690D01*
X109397292Y-118386832D01*
X109076149Y-118381257D01*
X108809726Y-118374129D01*
X108590496Y-118364611D01*
X108410936Y-118351868D01*
X108263519Y-118335065D01*
X108140721Y-118313366D01*
X108035017Y-118285935D01*
X107938881Y-118251936D01*
X107844789Y-118210534D01*
X107745216Y-118160894D01*
X107632635Y-118102178D01*
X107589217Y-118078841D01*
X107252912Y-117849846D01*
X106959419Y-117562103D01*
X106718649Y-117226926D01*
X106540516Y-116855631D01*
X106492433Y-116693374D01*
X106445945Y-116419806D01*
X106426711Y-116123749D01*
X106436271Y-115835569D01*
X106476163Y-115585631D01*
X106598717Y-115223384D01*
X106800556Y-114843565D01*
X107061973Y-114506505D01*
X107098408Y-114468081D01*
X107420716Y-114187985D01*
X107778409Y-113977519D01*
X108171959Y-113836454D01*
X108601839Y-113764564D01*
X108923029Y-113737778D01*
X108963453Y-113577320D01*
X109027633Y-113361463D01*
X109210904Y-112944749D01*
X109460794Y-112562518D01*
X109771184Y-112225016D01*
X110022675Y-112012892D01*
X110406168Y-111761427D01*
X110812944Y-111579141D01*
X111253080Y-111460836D01*
X111370939Y-111439654D01*
X111576715Y-111413404D01*
X111767769Y-111408672D01*
X111974022Y-111425561D01*
G37*
G36*
X112229836Y-109454226D02*
G01*
X112635218Y-109519079D01*
X113026070Y-109611002D01*
X113371246Y-109723639D01*
X113559643Y-109802397D01*
X113943399Y-109994163D01*
X114322231Y-110221309D01*
X114671940Y-110468721D01*
X114968331Y-110721284D01*
X114970988Y-110723825D01*
X115094223Y-110846824D01*
X115168428Y-110936978D01*
X115204767Y-111010771D01*
X115214400Y-111084686D01*
X115197426Y-111203416D01*
X115116805Y-111379864D01*
X114981409Y-111542027D01*
X114804092Y-111671520D01*
X114788006Y-111680070D01*
X114687920Y-111715223D01*
X114583635Y-111713321D01*
X114462166Y-111670035D01*
X114310530Y-111581033D01*
X114115740Y-111441987D01*
X114006099Y-111362518D01*
X113672336Y-111148023D01*
X113320477Y-110957049D01*
X112973619Y-110801439D01*
X112654861Y-110693034D01*
X112589569Y-110675933D01*
X112457424Y-110647135D01*
X112320464Y-110627615D01*
X112160368Y-110615755D01*
X111958813Y-110609940D01*
X111697477Y-110608552D01*
X111640327Y-110608640D01*
X111405682Y-110610456D01*
X111226897Y-110616028D01*
X111085504Y-110627340D01*
X110963037Y-110646373D01*
X110841030Y-110675111D01*
X110701015Y-110715536D01*
X110238122Y-110884705D01*
X109732158Y-111137312D01*
X109267028Y-111443213D01*
X109253959Y-111453032D01*
X109066045Y-111588163D01*
X108920715Y-111673786D01*
X108803075Y-111712216D01*
X108698233Y-111705768D01*
X108591295Y-111656756D01*
X108467370Y-111567495D01*
X108366958Y-111480152D01*
X108233316Y-111323734D01*
X108160913Y-111173555D01*
X108155831Y-111039913D01*
X108190839Y-110963282D01*
X108297622Y-110830456D01*
X108467956Y-110671309D01*
X108697574Y-110489711D01*
X108982212Y-110289538D01*
X109298015Y-110089747D01*
X109809697Y-109819410D01*
X110317698Y-109620593D01*
X110831296Y-109490561D01*
X111359770Y-109426579D01*
X111912400Y-109425913D01*
X112229836Y-109454226D01*
G37*
G36*
X127993336Y-117324958D02*
G01*
X128061891Y-117370020D01*
X128158291Y-117492544D01*
X128194089Y-117640080D01*
X128166744Y-117793394D01*
X128073713Y-117933252D01*
X128035268Y-117969166D01*
X127930408Y-118031001D01*
X127797169Y-118047477D01*
X127647021Y-118020173D01*
X127517890Y-117937020D01*
X127433695Y-117814574D01*
X127401425Y-117669704D01*
X127428072Y-117519278D01*
X127520625Y-117380163D01*
X127658635Y-117287917D01*
X127817910Y-117268502D01*
X127993336Y-117324958D01*
G37*
G36*
X124763271Y-117275681D02*
G01*
X124836496Y-117313875D01*
X124928923Y-117398800D01*
X124978025Y-117449288D01*
X125037782Y-117527401D01*
X125057464Y-117602467D01*
X125049661Y-117706584D01*
X125017180Y-117831735D01*
X124925252Y-117959493D01*
X124852535Y-118009354D01*
X124705808Y-118051384D01*
X124559596Y-118033478D01*
X124429206Y-117965304D01*
X124329945Y-117856528D01*
X124277120Y-117716817D01*
X124286040Y-117555837D01*
X124339566Y-117433830D01*
X124455149Y-117329413D01*
X124627814Y-117277167D01*
X124677733Y-117271487D01*
X124763271Y-117275681D01*
G37*
G36*
X127845686Y-114688968D02*
G01*
X127965525Y-114738588D01*
X128075801Y-114837629D01*
X128156582Y-114964055D01*
X128187938Y-115095831D01*
X128175812Y-115226112D01*
X128117133Y-115354357D01*
X128001341Y-115446564D01*
X127965933Y-115464066D01*
X127799354Y-115502873D01*
X127646831Y-115473909D01*
X127521731Y-115385738D01*
X127437421Y-115246922D01*
X127407269Y-115066023D01*
X127432379Y-114940046D01*
X127519818Y-114809689D01*
X127653954Y-114720144D01*
X127818046Y-114686862D01*
X127845686Y-114688968D01*
G37*
%LPC*%
D11*
X108549700Y-90680100D03*
X108549700Y-94680100D03*
X108549700Y-98680100D03*
X108549700Y-103180100D03*
X112549700Y-90680100D03*
X112549700Y-94680100D03*
X112549700Y-98680100D03*
X112549700Y-103180100D03*
X116549700Y-90680100D03*
X116549700Y-94680100D03*
X116549700Y-98680100D03*
X116549700Y-103180100D03*
X120549700Y-90680100D03*
X120549700Y-94680100D03*
X120549700Y-98680100D03*
X120549700Y-103180100D03*
D12*
X131622800Y-121254600D03*
D13*
X131622800Y-123794600D03*
D14*
X114271600Y-130516700D03*
D15*
X117771600Y-130516700D03*
D14*
X128519700Y-100498100D03*
D15*
X128519700Y-103998100D03*
D16*
X94975701Y-115357100D03*
X93975700Y-116557100D03*
X93975700Y-115357100D03*
X93975700Y-114157100D03*
X92975702Y-115357100D03*
D17*
X107594400Y-130810000D03*
X107594400Y-128270000D03*
X105054400Y-130810000D03*
X105054400Y-128270000D03*
X102514400Y-130810000D03*
X102514400Y-128270000D03*
X99974400Y-130810000D03*
X99974400Y-128270000D03*
X97434400Y-130810000D03*
X97434400Y-128270000D03*
X94894400Y-130810000D03*
X94894400Y-128270000D03*
X92354400Y-130810000D03*
X92354400Y-128270000D03*
X89814400Y-130810000D03*
X89814400Y-128270000D03*
X87274400Y-130810000D03*
X87274400Y-128270000D03*
X84734400Y-130810000D03*
D18*
X84734400Y-128270000D03*
D19*
X128519700Y-89195100D03*
D20*
X128519700Y-92695100D03*
X128519700Y-96195100D03*
%LPD*%
M02*
