G04 #@! TF.GenerationSoftware,KiCad,Pcbnew,8.0.7*
G04 #@! TF.CreationDate,2025-07-10T22:44:40+02:00*
G04 #@! TF.ProjectId,modbus-to-x,6d6f6462-7573-42d7-946f-2d782e6b6963,rev?*
G04 #@! TF.SameCoordinates,Original*
G04 #@! TF.FileFunction,Copper,L2,Inr*
G04 #@! TF.FilePolarity,Positive*
%FSLAX46Y46*%
G04 Gerber Fmt 4.6, Leading zero omitted, Abs format (unit mm)*
G04 Created by KiCad (PCBNEW 8.0.7) date 2025-07-10 22:44:40*
%MOMM*%
%LPD*%
G01*
G04 APERTURE LIST*
G04 #@! TA.AperFunction,ComponentPad*
%ADD10C,0.600000*%
G04 #@! TD*
G04 #@! TA.AperFunction,ComponentPad*
%ADD11R,1.700000X1.700000*%
G04 #@! TD*
G04 #@! TA.AperFunction,ComponentPad*
%ADD12O,1.700000X1.700000*%
G04 #@! TD*
G04 #@! TA.AperFunction,ComponentPad*
%ADD13R,2.032000X2.032000*%
G04 #@! TD*
G04 #@! TA.AperFunction,ComponentPad*
%ADD14C,2.032000*%
G04 #@! TD*
G04 #@! TA.AperFunction,ComponentPad*
%ADD15C,0.499999*%
G04 #@! TD*
G04 #@! TA.AperFunction,ComponentPad*
%ADD16C,1.530000*%
G04 #@! TD*
G04 #@! TA.AperFunction,ComponentPad*
%ADD17R,1.530000X1.530000*%
G04 #@! TD*
G04 #@! TA.AperFunction,ComponentPad*
%ADD18R,2.413000X2.413000*%
G04 #@! TD*
G04 #@! TA.AperFunction,ComponentPad*
%ADD19C,2.413000*%
G04 #@! TD*
G04 #@! TA.AperFunction,ViaPad*
%ADD20C,0.600000*%
G04 #@! TD*
G04 #@! TA.AperFunction,ViaPad*
%ADD21C,0.500000*%
G04 #@! TD*
G04 APERTURE END LIST*
D10*
X108549700Y-90680100D03*
X108549700Y-94680100D03*
X108549700Y-98680100D03*
X108549700Y-103180100D03*
X112549700Y-90680100D03*
X112549700Y-94680100D03*
X112549700Y-98680100D03*
X112549700Y-103180100D03*
X116549700Y-90680100D03*
X116549700Y-94680100D03*
X116549700Y-98680100D03*
X116549700Y-103180100D03*
X120549700Y-90680100D03*
X120549700Y-94680100D03*
X120549700Y-98680100D03*
X120549700Y-103180100D03*
D11*
X131622800Y-121254600D03*
D12*
X131622800Y-123794600D03*
D13*
X114271600Y-130516700D03*
D14*
X117771600Y-130516700D03*
D13*
X128519700Y-100498100D03*
D14*
X128519700Y-103998100D03*
D15*
X94975701Y-115357100D03*
X93975700Y-116557100D03*
X93975700Y-115357100D03*
X93975700Y-114157100D03*
X92975702Y-115357100D03*
D16*
X107594400Y-130810000D03*
X107594400Y-128270000D03*
X105054400Y-130810000D03*
X105054400Y-128270000D03*
X102514400Y-130810000D03*
X102514400Y-128270000D03*
X99974400Y-130810000D03*
X99974400Y-128270000D03*
X97434400Y-130810000D03*
X97434400Y-128270000D03*
X94894400Y-130810000D03*
X94894400Y-128270000D03*
X92354400Y-130810000D03*
X92354400Y-128270000D03*
X89814400Y-130810000D03*
X89814400Y-128270000D03*
X87274400Y-130810000D03*
X87274400Y-128270000D03*
X84734400Y-130810000D03*
D17*
X84734400Y-128270000D03*
D18*
X128519700Y-89195100D03*
D19*
X128519700Y-92695100D03*
X128519700Y-96195100D03*
D20*
X104749600Y-98247200D03*
X103479600Y-97739200D03*
X97907700Y-88493600D03*
X90746000Y-109790300D03*
X84345200Y-114514700D03*
X100198700Y-109515100D03*
D21*
X91105500Y-108956300D03*
X85973700Y-118914100D03*
X84091200Y-109282300D03*
D20*
X105968800Y-89267000D03*
X117060400Y-124674700D03*
D21*
X85513600Y-120356700D03*
D20*
X85394800Y-126390400D03*
X103907100Y-124501100D03*
X97606800Y-83779100D03*
D21*
X117754400Y-110490000D03*
D20*
X92202000Y-91135200D03*
X85750400Y-88696800D03*
D21*
X124176300Y-120868900D03*
X106853500Y-111699500D03*
X110337600Y-131470400D03*
X98602800Y-126644400D03*
D20*
X100198700Y-111547100D03*
D21*
X125696400Y-114201000D03*
D20*
X94882400Y-83859900D03*
X129916700Y-116119100D03*
X124307600Y-88849200D03*
X91254000Y-116157101D03*
X108834700Y-109642100D03*
X94098800Y-105167500D03*
X101831200Y-96344300D03*
D21*
X106802700Y-110531100D03*
D20*
X82702400Y-102616000D03*
D21*
X113457500Y-110886700D03*
X88358400Y-100290700D03*
D20*
X90728700Y-90173100D03*
X95368800Y-106234300D03*
X126661600Y-105065900D03*
X105380300Y-124501100D03*
X93641600Y-100239900D03*
D21*
X113457500Y-112105900D03*
X121276800Y-109485500D03*
X124227100Y-124653500D03*
X121991900Y-117185900D03*
D20*
X99124200Y-100650100D03*
X121022800Y-119941700D03*
X102988800Y-91705500D03*
X106646400Y-120610700D03*
X102226800Y-92670700D03*
D21*
X120884100Y-112105900D03*
D20*
X93692400Y-101408300D03*
D21*
X107086400Y-124510800D03*
X113182400Y-114452400D03*
X124328700Y-92344700D03*
D20*
X122804700Y-112191500D03*
D21*
X113639600Y-118008400D03*
X126238000Y-107848400D03*
X124358400Y-96367600D03*
X126356800Y-116343500D03*
X91283600Y-115357100D03*
D20*
X89120400Y-109028300D03*
X92117600Y-107047100D03*
X96892800Y-114006700D03*
X100194800Y-112533500D03*
X110794800Y-121513600D03*
D21*
X126509200Y-122845900D03*
X118686000Y-109485500D03*
D20*
X127169600Y-112635100D03*
X127830000Y-119239100D03*
X127876100Y-115327500D03*
X131318000Y-118668800D03*
X103835200Y-105816400D03*
X103835200Y-104800400D03*
X103835200Y-103835200D03*
X124307600Y-100736400D03*
X124307600Y-101854000D03*
X124307600Y-102870000D03*
X124307600Y-90982800D03*
G04 #@! TA.AperFunction,Conductor*
G36*
X99568287Y-105745985D02*
G01*
X99614042Y-105798789D01*
X99616379Y-105804248D01*
X99889999Y-106488299D01*
X99890000Y-106488300D01*
X101798000Y-106488300D01*
X101865039Y-106507985D01*
X101910794Y-106560789D01*
X101922000Y-106612300D01*
X101922000Y-107937016D01*
X101902315Y-108004055D01*
X101855208Y-108047031D01*
X100652000Y-108672700D01*
X100652000Y-110072700D01*
X100632315Y-110139739D01*
X100579511Y-110185494D01*
X100528000Y-110196700D01*
X90187200Y-110196700D01*
X90187200Y-108461524D01*
X90194000Y-108454765D01*
X90255420Y-108421458D01*
X90281426Y-108418700D01*
X97705600Y-108418700D01*
X97705600Y-105850300D01*
X97725285Y-105783261D01*
X97778089Y-105737506D01*
X97829600Y-105726300D01*
X99501248Y-105726300D01*
X99568287Y-105745985D01*
G37*
G04 #@! TD.AperFunction*
G04 #@! TA.AperFunction,Conductor*
G36*
X102714655Y-86978886D02*
G01*
X102781325Y-86999787D01*
X102826112Y-87053414D01*
X102836400Y-87102866D01*
X102836400Y-90892700D01*
X105862000Y-90892700D01*
X105929039Y-90912385D01*
X105974794Y-90965189D01*
X105986000Y-91016700D01*
X105986000Y-97903100D01*
X110964399Y-101814700D01*
X110964400Y-101814700D01*
X123386794Y-101814700D01*
X123453833Y-101834385D01*
X123499588Y-101887189D01*
X123510014Y-101924817D01*
X123522230Y-102033249D01*
X123522231Y-102033254D01*
X123581811Y-102203523D01*
X123639936Y-102296028D01*
X123658936Y-102363265D01*
X123639936Y-102427972D01*
X123581811Y-102520476D01*
X123522231Y-102690745D01*
X123522230Y-102690750D01*
X123502035Y-102869996D01*
X123502035Y-102870003D01*
X123522230Y-103049249D01*
X123522231Y-103049254D01*
X123581811Y-103219523D01*
X123653074Y-103332937D01*
X123677784Y-103372262D01*
X123805338Y-103499816D01*
X123958078Y-103595789D01*
X124128345Y-103655368D01*
X124128350Y-103655369D01*
X124307596Y-103675565D01*
X124307600Y-103675565D01*
X124307604Y-103675565D01*
X124486849Y-103655369D01*
X124486852Y-103655368D01*
X124486855Y-103655368D01*
X124657122Y-103595789D01*
X124809862Y-103499816D01*
X124937416Y-103372262D01*
X125033389Y-103219522D01*
X125092968Y-103049255D01*
X125098422Y-103000850D01*
X125113165Y-102870003D01*
X125113165Y-102869996D01*
X125092969Y-102690750D01*
X125092968Y-102690745D01*
X125033388Y-102520475D01*
X124975264Y-102427973D01*
X124956263Y-102360736D01*
X124975264Y-102296027D01*
X125033388Y-102203524D01*
X125092968Y-102033254D01*
X125092969Y-102033249D01*
X125105186Y-101924817D01*
X125132252Y-101860403D01*
X125189847Y-101820848D01*
X125228406Y-101814700D01*
X127041455Y-101814700D01*
X127108494Y-101834385D01*
X127140724Y-101864392D01*
X127146152Y-101871644D01*
X127146153Y-101871645D01*
X127146154Y-101871646D01*
X127146157Y-101871648D01*
X127261364Y-101957893D01*
X127261371Y-101957897D01*
X127396217Y-102008191D01*
X127396216Y-102008191D01*
X127403144Y-102008935D01*
X127455827Y-102014600D01*
X129027496Y-102014599D01*
X129094535Y-102034284D01*
X129140290Y-102087087D01*
X129151496Y-102138332D01*
X129152132Y-102433178D01*
X129132592Y-102500259D01*
X129079887Y-102546128D01*
X129010750Y-102556221D01*
X128994519Y-102552464D01*
X128994511Y-102552500D01*
X128990217Y-102551469D01*
X128989806Y-102551374D01*
X128989764Y-102551360D01*
X128757662Y-102495638D01*
X128757663Y-102495638D01*
X128519700Y-102476911D01*
X128281736Y-102495638D01*
X128049631Y-102551361D01*
X127829099Y-102642708D01*
X127625567Y-102767432D01*
X127444057Y-102922457D01*
X127289032Y-103103967D01*
X127164308Y-103307499D01*
X127072961Y-103528031D01*
X127017238Y-103760136D01*
X126998511Y-103998100D01*
X127017238Y-104236063D01*
X127072961Y-104468168D01*
X127164308Y-104688700D01*
X127164310Y-104688704D01*
X127164311Y-104688705D01*
X127289032Y-104892232D01*
X127444057Y-105073743D01*
X127625568Y-105228768D01*
X127829095Y-105353489D01*
X127829097Y-105353489D01*
X127829099Y-105353491D01*
X127879508Y-105374371D01*
X128049627Y-105444837D01*
X128281734Y-105500561D01*
X128519700Y-105519289D01*
X128757666Y-105500561D01*
X128989773Y-105444837D01*
X128989780Y-105444833D01*
X128994407Y-105443331D01*
X128994950Y-105445003D01*
X129056883Y-105438342D01*
X129119363Y-105469615D01*
X129155018Y-105529702D01*
X129158871Y-105560106D01*
X129180890Y-115776877D01*
X129173932Y-115818098D01*
X129131331Y-115939847D01*
X129111135Y-116119096D01*
X129111135Y-116119103D01*
X129131331Y-116298352D01*
X129175415Y-116424338D01*
X129182373Y-116465025D01*
X129201332Y-125261633D01*
X129181792Y-125328714D01*
X129129086Y-125374583D01*
X129077332Y-125385900D01*
X117780640Y-125385900D01*
X117713601Y-125366215D01*
X117667846Y-125313411D01*
X117657902Y-125244253D01*
X117686074Y-125182563D01*
X117685875Y-125182405D01*
X117686511Y-125181606D01*
X117686927Y-125180697D01*
X117689087Y-125178376D01*
X117690211Y-125176966D01*
X117690216Y-125176962D01*
X117786189Y-125024222D01*
X117845768Y-124853955D01*
X117845769Y-124853949D01*
X117865965Y-124674703D01*
X117865965Y-124674696D01*
X117845769Y-124495450D01*
X117845768Y-124495445D01*
X117786188Y-124325176D01*
X117690215Y-124172437D01*
X117562662Y-124044884D01*
X117409923Y-123948911D01*
X117239654Y-123889331D01*
X117239649Y-123889330D01*
X117060404Y-123869135D01*
X117060396Y-123869135D01*
X116881150Y-123889330D01*
X116881145Y-123889331D01*
X116710876Y-123948911D01*
X116558137Y-124044884D01*
X116430584Y-124172437D01*
X116334611Y-124325176D01*
X116275031Y-124495445D01*
X116275030Y-124495450D01*
X116254835Y-124674696D01*
X116254835Y-124674703D01*
X116275030Y-124853949D01*
X116275031Y-124853954D01*
X116334611Y-125024223D01*
X116430584Y-125176962D01*
X116434925Y-125182405D01*
X116433103Y-125183857D01*
X116461326Y-125235542D01*
X116456342Y-125305234D01*
X116414470Y-125361167D01*
X116349006Y-125385584D01*
X116340160Y-125385900D01*
X104636535Y-125385900D01*
X104569496Y-125366215D01*
X104523741Y-125313411D01*
X104512535Y-125262166D01*
X104512478Y-125235542D01*
X104512141Y-125078080D01*
X104531681Y-125011004D01*
X104535229Y-125006046D01*
X104536914Y-125003363D01*
X104536916Y-125003362D01*
X104632889Y-124850622D01*
X104692468Y-124680355D01*
X104712665Y-124501100D01*
X104712028Y-124495450D01*
X104692469Y-124321850D01*
X104692468Y-124321845D01*
X104632888Y-124151576D01*
X104608895Y-124113393D01*
X104536916Y-123998838D01*
X104536907Y-123998829D01*
X104536724Y-123998599D01*
X104536646Y-123998410D01*
X104533211Y-123992942D01*
X104534168Y-123992340D01*
X104510311Y-123933914D01*
X104509666Y-123921568D01*
X104507364Y-122845897D01*
X125753951Y-122845897D01*
X125753951Y-122845902D01*
X125772885Y-123013956D01*
X125828745Y-123173594D01*
X125828747Y-123173597D01*
X125918718Y-123316784D01*
X125918723Y-123316790D01*
X126038309Y-123436376D01*
X126038315Y-123436381D01*
X126181502Y-123526352D01*
X126181505Y-123526354D01*
X126181509Y-123526355D01*
X126181510Y-123526356D01*
X126254113Y-123551760D01*
X126341143Y-123582214D01*
X126509197Y-123601149D01*
X126509200Y-123601149D01*
X126509203Y-123601149D01*
X126677256Y-123582214D01*
X126677259Y-123582213D01*
X126836890Y-123526356D01*
X126836892Y-123526354D01*
X126836894Y-123526354D01*
X126836897Y-123526352D01*
X126980084Y-123436381D01*
X126980085Y-123436380D01*
X126980090Y-123436377D01*
X127099677Y-123316790D01*
X127189652Y-123173597D01*
X127189654Y-123173594D01*
X127189654Y-123173592D01*
X127189656Y-123173590D01*
X127245513Y-123013959D01*
X127245513Y-123013958D01*
X127245514Y-123013956D01*
X127264449Y-122845902D01*
X127264449Y-122845897D01*
X127245514Y-122677843D01*
X127215060Y-122590813D01*
X127189656Y-122518210D01*
X127189655Y-122518209D01*
X127189654Y-122518205D01*
X127189652Y-122518202D01*
X127099681Y-122375015D01*
X127099676Y-122375009D01*
X126980090Y-122255423D01*
X126980084Y-122255418D01*
X126836897Y-122165447D01*
X126836894Y-122165445D01*
X126677256Y-122109585D01*
X126509203Y-122090651D01*
X126509197Y-122090651D01*
X126341143Y-122109585D01*
X126181505Y-122165445D01*
X126181502Y-122165447D01*
X126038315Y-122255418D01*
X126038309Y-122255423D01*
X125918723Y-122375009D01*
X125918718Y-122375015D01*
X125828747Y-122518202D01*
X125828745Y-122518205D01*
X125772885Y-122677843D01*
X125753951Y-122845897D01*
X104507364Y-122845897D01*
X104504513Y-121513596D01*
X109989235Y-121513596D01*
X109989235Y-121513603D01*
X110009430Y-121692849D01*
X110009431Y-121692854D01*
X110069011Y-121863123D01*
X110155017Y-122000000D01*
X110164984Y-122015862D01*
X110292538Y-122143416D01*
X110445278Y-122239389D01*
X110491101Y-122255423D01*
X110615545Y-122298968D01*
X110615550Y-122298969D01*
X110794796Y-122319165D01*
X110794800Y-122319165D01*
X110794804Y-122319165D01*
X110974049Y-122298969D01*
X110974052Y-122298968D01*
X110974055Y-122298968D01*
X111144322Y-122239389D01*
X111297062Y-122143416D01*
X111424616Y-122015862D01*
X111520589Y-121863122D01*
X111580168Y-121692855D01*
X111580169Y-121692849D01*
X111600365Y-121513603D01*
X111600365Y-121513596D01*
X111580169Y-121334350D01*
X111580168Y-121334344D01*
X111520588Y-121164076D01*
X111481382Y-121101680D01*
X111424616Y-121011338D01*
X111297062Y-120883784D01*
X111273370Y-120868897D01*
X123421051Y-120868897D01*
X123421051Y-120868902D01*
X123439985Y-121036956D01*
X123495845Y-121196594D01*
X123495847Y-121196597D01*
X123585818Y-121339784D01*
X123585823Y-121339790D01*
X123705409Y-121459376D01*
X123705415Y-121459381D01*
X123848602Y-121549352D01*
X123848605Y-121549354D01*
X123848609Y-121549355D01*
X123848610Y-121549356D01*
X123921213Y-121574760D01*
X124008243Y-121605214D01*
X124176297Y-121624149D01*
X124176300Y-121624149D01*
X124176303Y-121624149D01*
X124344356Y-121605214D01*
X124344359Y-121605213D01*
X124503990Y-121549356D01*
X124503992Y-121549354D01*
X124503994Y-121549354D01*
X124503997Y-121549352D01*
X124647184Y-121459381D01*
X124647185Y-121459380D01*
X124647190Y-121459377D01*
X124766777Y-121339790D01*
X124770195Y-121334350D01*
X124856752Y-121196597D01*
X124856754Y-121196594D01*
X124856754Y-121196592D01*
X124856756Y-121196590D01*
X124912613Y-121036959D01*
X124912613Y-121036958D01*
X124912614Y-121036956D01*
X124931549Y-120868902D01*
X124931549Y-120868897D01*
X124912614Y-120700843D01*
X124856754Y-120541205D01*
X124856752Y-120541202D01*
X124766781Y-120398015D01*
X124766776Y-120398009D01*
X124647190Y-120278423D01*
X124647184Y-120278418D01*
X124503997Y-120188447D01*
X124503994Y-120188445D01*
X124344356Y-120132585D01*
X124176303Y-120113651D01*
X124176297Y-120113651D01*
X124008243Y-120132585D01*
X123848605Y-120188445D01*
X123848602Y-120188447D01*
X123705415Y-120278418D01*
X123705409Y-120278423D01*
X123585823Y-120398009D01*
X123585818Y-120398015D01*
X123495847Y-120541202D01*
X123495845Y-120541205D01*
X123439985Y-120700843D01*
X123421051Y-120868897D01*
X111273370Y-120868897D01*
X111144323Y-120787811D01*
X110974054Y-120728231D01*
X110974049Y-120728230D01*
X110794804Y-120708035D01*
X110794796Y-120708035D01*
X110615550Y-120728230D01*
X110615545Y-120728231D01*
X110445276Y-120787811D01*
X110292537Y-120883784D01*
X110164984Y-121011337D01*
X110069011Y-121164076D01*
X110009432Y-121334344D01*
X110009430Y-121334350D01*
X109989235Y-121513596D01*
X104504513Y-121513596D01*
X104499646Y-119239096D01*
X127024435Y-119239096D01*
X127024435Y-119239103D01*
X127044630Y-119418349D01*
X127044631Y-119418354D01*
X127104211Y-119588623D01*
X127181776Y-119712066D01*
X127200184Y-119741362D01*
X127327738Y-119868916D01*
X127407225Y-119918861D01*
X127452281Y-119947172D01*
X127480478Y-119964889D01*
X127564787Y-119994390D01*
X127650745Y-120024468D01*
X127650750Y-120024469D01*
X127829996Y-120044665D01*
X127830000Y-120044665D01*
X127830004Y-120044665D01*
X128009249Y-120024469D01*
X128009252Y-120024468D01*
X128009255Y-120024468D01*
X128179522Y-119964889D01*
X128332262Y-119868916D01*
X128459816Y-119741362D01*
X128555789Y-119588622D01*
X128615368Y-119418355D01*
X128635565Y-119239100D01*
X128615368Y-119059845D01*
X128555789Y-118889578D01*
X128459816Y-118736838D01*
X128332262Y-118609284D01*
X128315698Y-118598876D01*
X128179523Y-118513311D01*
X128009254Y-118453731D01*
X128009249Y-118453730D01*
X127830004Y-118433535D01*
X127829996Y-118433535D01*
X127650750Y-118453730D01*
X127650745Y-118453731D01*
X127480476Y-118513311D01*
X127327737Y-118609284D01*
X127200184Y-118736837D01*
X127104211Y-118889576D01*
X127044631Y-119059845D01*
X127044630Y-119059850D01*
X127024435Y-119239096D01*
X104499646Y-119239096D01*
X104497012Y-118008397D01*
X112884351Y-118008397D01*
X112884351Y-118008402D01*
X112903285Y-118176456D01*
X112959145Y-118336094D01*
X112959147Y-118336097D01*
X113049118Y-118479284D01*
X113049123Y-118479290D01*
X113168709Y-118598876D01*
X113168715Y-118598881D01*
X113311902Y-118688852D01*
X113311905Y-118688854D01*
X113311909Y-118688855D01*
X113311910Y-118688856D01*
X113384513Y-118714260D01*
X113471543Y-118744714D01*
X113639597Y-118763649D01*
X113639600Y-118763649D01*
X113639603Y-118763649D01*
X113807656Y-118744714D01*
X113807659Y-118744713D01*
X113967290Y-118688856D01*
X113967292Y-118688854D01*
X113967294Y-118688854D01*
X113967297Y-118688852D01*
X114110484Y-118598881D01*
X114110485Y-118598880D01*
X114110490Y-118598877D01*
X114230077Y-118479290D01*
X114230081Y-118479284D01*
X114320052Y-118336097D01*
X114320054Y-118336094D01*
X114320054Y-118336092D01*
X114320056Y-118336090D01*
X114375913Y-118176459D01*
X114375913Y-118176458D01*
X114375914Y-118176456D01*
X114394849Y-118008402D01*
X114394849Y-118008397D01*
X114375914Y-117840343D01*
X114320054Y-117680705D01*
X114320052Y-117680702D01*
X114230081Y-117537515D01*
X114230076Y-117537509D01*
X114110490Y-117417923D01*
X114110484Y-117417918D01*
X113967297Y-117327947D01*
X113967294Y-117327945D01*
X113807656Y-117272085D01*
X113639603Y-117253151D01*
X113639597Y-117253151D01*
X113471543Y-117272085D01*
X113311905Y-117327945D01*
X113311902Y-117327947D01*
X113168715Y-117417918D01*
X113168709Y-117417923D01*
X113049123Y-117537509D01*
X113049118Y-117537515D01*
X112959147Y-117680702D01*
X112959145Y-117680705D01*
X112903285Y-117840343D01*
X112884351Y-118008397D01*
X104497012Y-118008397D01*
X104493449Y-116343497D01*
X125601551Y-116343497D01*
X125601551Y-116343502D01*
X125620485Y-116511556D01*
X125676345Y-116671194D01*
X125676347Y-116671197D01*
X125766318Y-116814384D01*
X125766323Y-116814390D01*
X125885909Y-116933976D01*
X125885915Y-116933981D01*
X126029102Y-117023952D01*
X126029105Y-117023954D01*
X126029109Y-117023955D01*
X126029110Y-117023956D01*
X126040636Y-117027989D01*
X126188743Y-117079814D01*
X126356797Y-117098749D01*
X126356800Y-117098749D01*
X126356803Y-117098749D01*
X126524856Y-117079814D01*
X126524859Y-117079813D01*
X126684490Y-117023956D01*
X126684492Y-117023954D01*
X126684494Y-117023954D01*
X126684497Y-117023952D01*
X126827684Y-116933981D01*
X126827685Y-116933980D01*
X126827690Y-116933977D01*
X126947277Y-116814390D01*
X126947281Y-116814384D01*
X127037252Y-116671197D01*
X127037254Y-116671194D01*
X127037254Y-116671192D01*
X127037256Y-116671190D01*
X127093113Y-116511559D01*
X127093113Y-116511558D01*
X127093114Y-116511556D01*
X127112049Y-116343502D01*
X127112049Y-116343497D01*
X127093114Y-116175443D01*
X127037254Y-116015805D01*
X127037252Y-116015802D01*
X126947281Y-115872615D01*
X126947276Y-115872609D01*
X126827690Y-115753023D01*
X126827684Y-115753018D01*
X126684497Y-115663047D01*
X126684494Y-115663045D01*
X126524856Y-115607185D01*
X126356803Y-115588251D01*
X126356797Y-115588251D01*
X126188743Y-115607185D01*
X126029105Y-115663045D01*
X126029102Y-115663047D01*
X125885915Y-115753018D01*
X125885909Y-115753023D01*
X125766323Y-115872609D01*
X125766318Y-115872615D01*
X125676347Y-116015802D01*
X125676345Y-116015805D01*
X125620485Y-116175443D01*
X125601551Y-116343497D01*
X104493449Y-116343497D01*
X104491275Y-115327496D01*
X127070535Y-115327496D01*
X127070535Y-115327503D01*
X127090730Y-115506749D01*
X127090731Y-115506754D01*
X127150311Y-115677023D01*
X127208468Y-115769578D01*
X127246284Y-115829762D01*
X127373838Y-115957316D01*
X127388650Y-115966623D01*
X127501537Y-116037555D01*
X127526578Y-116053289D01*
X127620664Y-116086211D01*
X127696845Y-116112868D01*
X127696850Y-116112869D01*
X127876096Y-116133065D01*
X127876100Y-116133065D01*
X127876104Y-116133065D01*
X128055349Y-116112869D01*
X128055352Y-116112868D01*
X128055355Y-116112868D01*
X128225622Y-116053289D01*
X128378362Y-115957316D01*
X128505916Y-115829762D01*
X128601889Y-115677022D01*
X128661468Y-115506755D01*
X128661469Y-115506749D01*
X128681665Y-115327503D01*
X128681665Y-115327496D01*
X128661469Y-115148250D01*
X128661468Y-115148245D01*
X128656082Y-115132852D01*
X128601889Y-114977978D01*
X128576337Y-114937313D01*
X128541239Y-114881454D01*
X128505916Y-114825238D01*
X128378362Y-114697684D01*
X128281014Y-114636516D01*
X128225623Y-114601711D01*
X128055354Y-114542131D01*
X128055349Y-114542130D01*
X127876104Y-114521935D01*
X127876096Y-114521935D01*
X127696850Y-114542130D01*
X127696845Y-114542131D01*
X127526576Y-114601711D01*
X127373837Y-114697684D01*
X127246284Y-114825237D01*
X127150311Y-114977976D01*
X127090731Y-115148245D01*
X127090730Y-115148250D01*
X127070535Y-115327496D01*
X104491275Y-115327496D01*
X104489402Y-114452397D01*
X112427151Y-114452397D01*
X112427151Y-114452402D01*
X112446085Y-114620456D01*
X112501945Y-114780094D01*
X112501947Y-114780097D01*
X112591918Y-114923284D01*
X112591923Y-114923290D01*
X112711509Y-115042876D01*
X112711515Y-115042881D01*
X112854702Y-115132852D01*
X112854705Y-115132854D01*
X112854709Y-115132855D01*
X112854710Y-115132856D01*
X112898704Y-115148250D01*
X113014343Y-115188714D01*
X113182397Y-115207649D01*
X113182400Y-115207649D01*
X113182403Y-115207649D01*
X113350456Y-115188714D01*
X113350459Y-115188713D01*
X113510090Y-115132856D01*
X113510092Y-115132854D01*
X113510094Y-115132854D01*
X113510097Y-115132852D01*
X113653284Y-115042881D01*
X113653285Y-115042880D01*
X113653290Y-115042877D01*
X113772877Y-114923290D01*
X113772881Y-114923284D01*
X113862852Y-114780097D01*
X113862854Y-114780094D01*
X113862854Y-114780092D01*
X113862856Y-114780090D01*
X113918713Y-114620459D01*
X113918713Y-114620458D01*
X113918714Y-114620456D01*
X113937649Y-114452402D01*
X113937649Y-114452397D01*
X113918714Y-114284343D01*
X113889550Y-114200997D01*
X124941151Y-114200997D01*
X124941151Y-114201002D01*
X124960085Y-114369056D01*
X125015945Y-114528694D01*
X125015947Y-114528697D01*
X125105918Y-114671884D01*
X125105923Y-114671890D01*
X125225509Y-114791476D01*
X125225515Y-114791481D01*
X125368702Y-114881452D01*
X125368705Y-114881454D01*
X125368709Y-114881455D01*
X125368710Y-114881456D01*
X125441313Y-114906860D01*
X125528343Y-114937314D01*
X125696397Y-114956249D01*
X125696400Y-114956249D01*
X125696403Y-114956249D01*
X125864456Y-114937314D01*
X125864459Y-114937313D01*
X126024090Y-114881456D01*
X126024092Y-114881454D01*
X126024094Y-114881454D01*
X126024097Y-114881452D01*
X126167284Y-114791481D01*
X126167285Y-114791480D01*
X126167290Y-114791477D01*
X126286877Y-114671890D01*
X126318987Y-114620788D01*
X126376852Y-114528697D01*
X126376854Y-114528694D01*
X126376854Y-114528692D01*
X126376856Y-114528690D01*
X126432713Y-114369059D01*
X126432713Y-114369058D01*
X126432714Y-114369056D01*
X126451649Y-114201002D01*
X126451649Y-114200997D01*
X126432714Y-114032943D01*
X126376854Y-113873305D01*
X126376852Y-113873302D01*
X126286881Y-113730115D01*
X126286876Y-113730109D01*
X126167290Y-113610523D01*
X126167284Y-113610518D01*
X126024097Y-113520547D01*
X126024094Y-113520545D01*
X125864456Y-113464685D01*
X125696403Y-113445751D01*
X125696397Y-113445751D01*
X125528343Y-113464685D01*
X125368705Y-113520545D01*
X125368702Y-113520547D01*
X125225515Y-113610518D01*
X125225509Y-113610523D01*
X125105923Y-113730109D01*
X125105918Y-113730115D01*
X125015947Y-113873302D01*
X125015945Y-113873305D01*
X124960085Y-114032943D01*
X124941151Y-114200997D01*
X113889550Y-114200997D01*
X113862854Y-114124705D01*
X113862852Y-114124702D01*
X113772881Y-113981515D01*
X113772876Y-113981509D01*
X113653290Y-113861923D01*
X113653284Y-113861918D01*
X113510097Y-113771947D01*
X113510094Y-113771945D01*
X113350456Y-113716085D01*
X113182403Y-113697151D01*
X113182397Y-113697151D01*
X113014343Y-113716085D01*
X112854705Y-113771945D01*
X112854702Y-113771947D01*
X112711515Y-113861918D01*
X112711509Y-113861923D01*
X112591923Y-113981509D01*
X112591918Y-113981515D01*
X112501947Y-114124702D01*
X112501945Y-114124705D01*
X112446085Y-114284343D01*
X112427151Y-114452397D01*
X104489402Y-114452397D01*
X104486709Y-113193899D01*
X109343922Y-113193899D01*
X109343922Y-113193900D01*
X109362962Y-113350718D01*
X109410721Y-113476645D01*
X109418980Y-113498423D01*
X109508717Y-113628430D01*
X109626960Y-113733183D01*
X109626962Y-113733184D01*
X109766834Y-113806596D01*
X109920214Y-113844400D01*
X109920215Y-113844400D01*
X110078185Y-113844400D01*
X110231565Y-113806596D01*
X110297588Y-113771944D01*
X110371440Y-113733183D01*
X110489683Y-113628430D01*
X110579420Y-113498423D01*
X110635437Y-113350718D01*
X110654478Y-113193900D01*
X110650765Y-113163316D01*
X110635437Y-113037081D01*
X110612601Y-112976868D01*
X110579420Y-112889377D01*
X110489683Y-112759370D01*
X110371440Y-112654617D01*
X110371438Y-112654616D01*
X110371437Y-112654615D01*
X110231565Y-112581203D01*
X110078186Y-112543400D01*
X110078185Y-112543400D01*
X109920215Y-112543400D01*
X109920214Y-112543400D01*
X109766834Y-112581203D01*
X109626962Y-112654615D01*
X109508716Y-112759371D01*
X109418981Y-112889375D01*
X109418980Y-112889376D01*
X109362962Y-113037081D01*
X109343922Y-113193899D01*
X104486709Y-113193899D01*
X104481011Y-110531097D01*
X106047451Y-110531097D01*
X106047451Y-110531102D01*
X106066385Y-110699156D01*
X106122245Y-110858794D01*
X106122247Y-110858797D01*
X106212218Y-111001984D01*
X106212223Y-111001990D01*
X106263251Y-111053018D01*
X106296736Y-111114341D01*
X106291752Y-111184033D01*
X106266865Y-111222761D01*
X106267367Y-111223162D01*
X106263457Y-111228065D01*
X106263260Y-111228372D01*
X106263025Y-111228606D01*
X106263020Y-111228612D01*
X106173047Y-111371802D01*
X106173045Y-111371805D01*
X106117185Y-111531443D01*
X106098251Y-111699497D01*
X106098251Y-111699502D01*
X106117185Y-111867556D01*
X106173045Y-112027194D01*
X106173047Y-112027197D01*
X106263018Y-112170384D01*
X106263023Y-112170390D01*
X106382609Y-112289976D01*
X106382615Y-112289981D01*
X106525802Y-112379952D01*
X106525805Y-112379954D01*
X106525809Y-112379955D01*
X106525810Y-112379956D01*
X106598413Y-112405360D01*
X106685443Y-112435814D01*
X106853497Y-112454749D01*
X106853500Y-112454749D01*
X106853503Y-112454749D01*
X107021556Y-112435814D01*
X107021559Y-112435813D01*
X107181190Y-112379956D01*
X107181192Y-112379954D01*
X107181194Y-112379954D01*
X107181197Y-112379952D01*
X107324384Y-112289981D01*
X107324385Y-112289980D01*
X107324390Y-112289977D01*
X107422871Y-112191496D01*
X121999135Y-112191496D01*
X121999135Y-112191503D01*
X122019330Y-112370749D01*
X122019331Y-112370754D01*
X122078911Y-112541023D01*
X122174884Y-112693762D01*
X122302438Y-112821316D01*
X122455178Y-112917289D01*
X122625445Y-112976868D01*
X122625450Y-112976869D01*
X122804696Y-112997065D01*
X122804700Y-112997065D01*
X122804704Y-112997065D01*
X122983949Y-112976869D01*
X122983952Y-112976868D01*
X122983955Y-112976868D01*
X123154222Y-112917289D01*
X123306962Y-112821316D01*
X123434516Y-112693762D01*
X123471378Y-112635096D01*
X126364035Y-112635096D01*
X126364035Y-112635103D01*
X126384230Y-112814349D01*
X126384231Y-112814354D01*
X126443811Y-112984623D01*
X126539784Y-113137362D01*
X126667338Y-113264916D01*
X126820078Y-113360889D01*
X126937144Y-113401852D01*
X126990345Y-113420468D01*
X126990350Y-113420469D01*
X127169596Y-113440665D01*
X127169600Y-113440665D01*
X127169604Y-113440665D01*
X127348849Y-113420469D01*
X127348852Y-113420468D01*
X127348855Y-113420468D01*
X127519122Y-113360889D01*
X127671862Y-113264916D01*
X127799416Y-113137362D01*
X127895389Y-112984622D01*
X127954968Y-112814355D01*
X127961163Y-112759371D01*
X127975165Y-112635103D01*
X127975165Y-112635096D01*
X127954969Y-112455850D01*
X127954968Y-112455845D01*
X127947959Y-112435814D01*
X127895389Y-112285578D01*
X127799416Y-112132838D01*
X127671862Y-112005284D01*
X127519123Y-111909311D01*
X127348854Y-111849731D01*
X127348849Y-111849730D01*
X127169604Y-111829535D01*
X127169596Y-111829535D01*
X126990350Y-111849730D01*
X126990345Y-111849731D01*
X126820076Y-111909311D01*
X126667337Y-112005284D01*
X126539784Y-112132837D01*
X126443811Y-112285576D01*
X126384231Y-112455845D01*
X126384230Y-112455850D01*
X126364035Y-112635096D01*
X123471378Y-112635096D01*
X123530489Y-112541022D01*
X123590068Y-112370755D01*
X123590069Y-112370749D01*
X123610265Y-112191503D01*
X123610265Y-112191496D01*
X123590069Y-112012250D01*
X123590068Y-112012245D01*
X123533202Y-111849731D01*
X123530489Y-111841978D01*
X123434516Y-111689238D01*
X123306962Y-111561684D01*
X123258831Y-111531441D01*
X123154223Y-111465711D01*
X122983954Y-111406131D01*
X122983949Y-111406130D01*
X122804704Y-111385935D01*
X122804696Y-111385935D01*
X122625450Y-111406130D01*
X122625445Y-111406131D01*
X122455176Y-111465711D01*
X122302437Y-111561684D01*
X122174884Y-111689237D01*
X122078911Y-111841976D01*
X122019331Y-112012245D01*
X122019330Y-112012250D01*
X121999135Y-112191496D01*
X107422871Y-112191496D01*
X107443977Y-112170390D01*
X107467573Y-112132838D01*
X107533952Y-112027197D01*
X107533954Y-112027194D01*
X107533954Y-112027192D01*
X107533956Y-112027190D01*
X107589813Y-111867559D01*
X107589813Y-111867558D01*
X107589814Y-111867556D01*
X107608749Y-111699502D01*
X107608749Y-111699497D01*
X107589814Y-111531443D01*
X107545965Y-111406130D01*
X107533956Y-111371810D01*
X107533955Y-111371809D01*
X107533954Y-111371805D01*
X107533952Y-111371802D01*
X107443981Y-111228615D01*
X107443976Y-111228609D01*
X107392948Y-111177581D01*
X107359463Y-111116258D01*
X107364447Y-111046566D01*
X107389340Y-111007835D01*
X107388836Y-111007434D01*
X107392764Y-111002508D01*
X107392954Y-111002212D01*
X107393177Y-111001990D01*
X107465621Y-110886697D01*
X112702251Y-110886697D01*
X112702251Y-110886702D01*
X112721185Y-111054756D01*
X112777045Y-111214394D01*
X112777047Y-111214397D01*
X112867018Y-111357584D01*
X112867023Y-111357590D01*
X112986609Y-111477176D01*
X112986615Y-111477181D01*
X113129802Y-111567152D01*
X113129805Y-111567154D01*
X113129809Y-111567155D01*
X113129810Y-111567156D01*
X113202413Y-111592560D01*
X113289443Y-111623014D01*
X113457497Y-111641949D01*
X113457500Y-111641949D01*
X113457503Y-111641949D01*
X113625556Y-111623014D01*
X113625559Y-111623013D01*
X113785190Y-111567156D01*
X113785192Y-111567154D01*
X113785194Y-111567154D01*
X113785197Y-111567152D01*
X113928384Y-111477181D01*
X113928385Y-111477180D01*
X113928390Y-111477177D01*
X114047977Y-111357590D01*
X114129022Y-111228609D01*
X114137952Y-111214397D01*
X114137954Y-111214394D01*
X114137954Y-111214392D01*
X114137956Y-111214390D01*
X114193813Y-111054759D01*
X114193813Y-111054758D01*
X114193814Y-111054756D01*
X114212749Y-110886702D01*
X114212749Y-110886697D01*
X114193814Y-110718643D01*
X114163360Y-110631613D01*
X114137956Y-110559010D01*
X114137955Y-110559009D01*
X114137954Y-110559005D01*
X114137952Y-110559002D01*
X114094593Y-110489997D01*
X116999151Y-110489997D01*
X116999151Y-110490002D01*
X117018085Y-110658056D01*
X117073945Y-110817694D01*
X117073947Y-110817697D01*
X117163918Y-110960884D01*
X117163923Y-110960890D01*
X117283509Y-111080476D01*
X117283515Y-111080481D01*
X117426702Y-111170452D01*
X117426705Y-111170454D01*
X117426709Y-111170455D01*
X117426710Y-111170456D01*
X117465511Y-111184033D01*
X117586343Y-111226314D01*
X117754397Y-111245249D01*
X117754400Y-111245249D01*
X117754403Y-111245249D01*
X117922456Y-111226314D01*
X117956513Y-111214397D01*
X118082090Y-111170456D01*
X118082092Y-111170454D01*
X118082094Y-111170454D01*
X118082097Y-111170452D01*
X118225284Y-111080481D01*
X118225285Y-111080480D01*
X118225290Y-111080477D01*
X118344877Y-110960890D01*
X118434852Y-110817697D01*
X118434854Y-110817694D01*
X118434854Y-110817692D01*
X118434856Y-110817690D01*
X118490713Y-110658059D01*
X118490713Y-110658058D01*
X118490714Y-110658056D01*
X118509649Y-110490002D01*
X118509649Y-110489997D01*
X118496346Y-110371932D01*
X118508400Y-110303110D01*
X118555749Y-110251730D01*
X118623360Y-110234106D01*
X118633450Y-110234828D01*
X118685998Y-110240749D01*
X118686000Y-110240749D01*
X118686003Y-110240749D01*
X118854056Y-110221814D01*
X118854059Y-110221813D01*
X119013690Y-110165956D01*
X119013692Y-110165954D01*
X119013694Y-110165954D01*
X119013697Y-110165952D01*
X119156884Y-110075981D01*
X119156885Y-110075980D01*
X119156890Y-110075977D01*
X119276477Y-109956390D01*
X119286384Y-109940623D01*
X119366452Y-109813197D01*
X119366454Y-109813194D01*
X119366454Y-109813192D01*
X119366456Y-109813190D01*
X119422313Y-109653559D01*
X119422313Y-109653558D01*
X119422314Y-109653556D01*
X119441249Y-109485502D01*
X119441249Y-109485497D01*
X119422314Y-109317443D01*
X119395950Y-109242099D01*
X123052323Y-109242099D01*
X123052323Y-109242100D01*
X123071363Y-109398918D01*
X123127381Y-109546623D01*
X123217118Y-109676630D01*
X123335361Y-109781383D01*
X123335363Y-109781384D01*
X123475235Y-109854796D01*
X123628615Y-109892600D01*
X123628616Y-109892600D01*
X123786586Y-109892600D01*
X123939966Y-109854796D01*
X123947877Y-109850644D01*
X124079841Y-109781383D01*
X124198084Y-109676630D01*
X124287821Y-109546623D01*
X124343838Y-109398918D01*
X124362879Y-109242100D01*
X124352645Y-109157810D01*
X124343838Y-109085281D01*
X124322226Y-109028296D01*
X124287821Y-108937577D01*
X124198084Y-108807570D01*
X124079841Y-108702817D01*
X124079839Y-108702816D01*
X124079838Y-108702815D01*
X123939966Y-108629403D01*
X123786587Y-108591600D01*
X123786586Y-108591600D01*
X123628616Y-108591600D01*
X123628615Y-108591600D01*
X123475235Y-108629403D01*
X123335363Y-108702815D01*
X123217117Y-108807571D01*
X123127382Y-108937575D01*
X123127381Y-108937576D01*
X123071363Y-109085281D01*
X123052323Y-109242099D01*
X119395950Y-109242099D01*
X119366454Y-109157805D01*
X119366452Y-109157802D01*
X119276481Y-109014615D01*
X119276476Y-109014609D01*
X119156890Y-108895023D01*
X119156884Y-108895018D01*
X119013697Y-108805047D01*
X119013694Y-108805045D01*
X118854056Y-108749185D01*
X118686003Y-108730251D01*
X118685997Y-108730251D01*
X118517943Y-108749185D01*
X118358305Y-108805045D01*
X118358302Y-108805047D01*
X118215115Y-108895018D01*
X118215109Y-108895023D01*
X118095523Y-109014609D01*
X118095518Y-109014615D01*
X118005547Y-109157802D01*
X118005545Y-109157805D01*
X117949685Y-109317443D01*
X117930751Y-109485497D01*
X117930751Y-109485504D01*
X117944053Y-109603568D01*
X117931998Y-109672390D01*
X117884649Y-109723769D01*
X117817039Y-109741393D01*
X117806951Y-109740671D01*
X117754405Y-109734751D01*
X117754397Y-109734751D01*
X117586343Y-109753685D01*
X117426705Y-109809545D01*
X117426702Y-109809547D01*
X117283515Y-109899518D01*
X117283509Y-109899523D01*
X117163923Y-110019109D01*
X117163918Y-110019115D01*
X117073947Y-110162302D01*
X117073945Y-110162305D01*
X117018085Y-110321943D01*
X116999151Y-110489997D01*
X114094593Y-110489997D01*
X114047981Y-110415815D01*
X114047976Y-110415809D01*
X113928390Y-110296223D01*
X113928384Y-110296218D01*
X113785197Y-110206247D01*
X113785194Y-110206245D01*
X113625556Y-110150385D01*
X113457503Y-110131451D01*
X113457497Y-110131451D01*
X113289443Y-110150385D01*
X113129805Y-110206245D01*
X113129802Y-110206247D01*
X112986615Y-110296218D01*
X112986609Y-110296223D01*
X112867023Y-110415809D01*
X112867018Y-110415815D01*
X112777047Y-110559002D01*
X112777045Y-110559005D01*
X112721185Y-110718643D01*
X112702251Y-110886697D01*
X107465621Y-110886697D01*
X107483156Y-110858790D01*
X107539013Y-110699159D01*
X107539013Y-110699158D01*
X107539014Y-110699156D01*
X107557949Y-110531102D01*
X107557949Y-110531097D01*
X107539014Y-110363043D01*
X107496221Y-110240749D01*
X107483156Y-110203410D01*
X107483155Y-110203409D01*
X107483154Y-110203405D01*
X107483152Y-110203402D01*
X107393181Y-110060215D01*
X107393176Y-110060209D01*
X107273590Y-109940623D01*
X107273584Y-109940618D01*
X107130397Y-109850647D01*
X107130394Y-109850645D01*
X106970756Y-109794785D01*
X106802703Y-109775851D01*
X106802697Y-109775851D01*
X106634643Y-109794785D01*
X106475005Y-109850645D01*
X106475002Y-109850647D01*
X106331815Y-109940618D01*
X106331809Y-109940623D01*
X106212223Y-110060209D01*
X106212218Y-110060215D01*
X106122247Y-110203402D01*
X106122245Y-110203405D01*
X106066385Y-110363043D01*
X106047451Y-110531097D01*
X104481011Y-110531097D01*
X104479108Y-109642096D01*
X108029135Y-109642096D01*
X108029135Y-109642103D01*
X108049330Y-109821349D01*
X108049331Y-109821354D01*
X108108911Y-109991623D01*
X108161914Y-110075976D01*
X108204884Y-110144362D01*
X108332438Y-110271916D01*
X108422780Y-110328682D01*
X108477465Y-110363043D01*
X108485178Y-110367889D01*
X108622143Y-110415815D01*
X108655445Y-110427468D01*
X108655450Y-110427469D01*
X108834696Y-110447665D01*
X108834700Y-110447665D01*
X108834704Y-110447665D01*
X109013949Y-110427469D01*
X109013952Y-110427468D01*
X109013955Y-110427468D01*
X109184222Y-110367889D01*
X109336962Y-110271916D01*
X109464516Y-110144362D01*
X109560489Y-109991622D01*
X109620068Y-109821355D01*
X109620069Y-109821349D01*
X109640265Y-109642103D01*
X109640265Y-109642096D01*
X109620069Y-109462850D01*
X109620068Y-109462845D01*
X109571892Y-109325166D01*
X109560489Y-109292578D01*
X109464516Y-109139838D01*
X109336962Y-109012284D01*
X109184223Y-108916311D01*
X109013954Y-108856731D01*
X109013949Y-108856730D01*
X108834704Y-108836535D01*
X108834696Y-108836535D01*
X108655450Y-108856730D01*
X108655445Y-108856731D01*
X108485176Y-108916311D01*
X108332437Y-109012284D01*
X108204884Y-109139837D01*
X108108911Y-109292576D01*
X108049331Y-109462845D01*
X108049330Y-109462850D01*
X108029135Y-109642096D01*
X104479108Y-109642096D01*
X104475270Y-107848397D01*
X125482751Y-107848397D01*
X125482751Y-107848402D01*
X125501685Y-108016456D01*
X125557545Y-108176094D01*
X125557547Y-108176097D01*
X125647518Y-108319284D01*
X125647523Y-108319290D01*
X125767109Y-108438876D01*
X125767115Y-108438881D01*
X125910302Y-108528852D01*
X125910305Y-108528854D01*
X125910309Y-108528855D01*
X125910310Y-108528856D01*
X125982913Y-108554260D01*
X126069943Y-108584714D01*
X126237997Y-108603649D01*
X126238000Y-108603649D01*
X126238003Y-108603649D01*
X126406056Y-108584714D01*
X126426304Y-108577629D01*
X126565690Y-108528856D01*
X126565692Y-108528854D01*
X126565694Y-108528854D01*
X126565697Y-108528852D01*
X126708884Y-108438881D01*
X126708885Y-108438880D01*
X126708890Y-108438877D01*
X126828477Y-108319290D01*
X126879349Y-108238328D01*
X126918452Y-108176097D01*
X126918454Y-108176094D01*
X126918454Y-108176092D01*
X126918456Y-108176090D01*
X126974313Y-108016459D01*
X126974313Y-108016458D01*
X126974314Y-108016456D01*
X126993249Y-107848402D01*
X126993249Y-107848397D01*
X126974314Y-107680343D01*
X126918454Y-107520705D01*
X126918452Y-107520702D01*
X126828481Y-107377515D01*
X126828476Y-107377509D01*
X126708890Y-107257923D01*
X126708884Y-107257918D01*
X126565697Y-107167947D01*
X126565694Y-107167945D01*
X126406056Y-107112085D01*
X126238003Y-107093151D01*
X126237997Y-107093151D01*
X126069943Y-107112085D01*
X125910305Y-107167945D01*
X125910302Y-107167947D01*
X125767115Y-107257918D01*
X125767109Y-107257923D01*
X125647523Y-107377509D01*
X125647518Y-107377515D01*
X125557547Y-107520702D01*
X125557545Y-107520705D01*
X125501685Y-107680343D01*
X125482751Y-107848397D01*
X104475270Y-107848397D01*
X104472049Y-106343451D01*
X104491053Y-106277223D01*
X104560989Y-106165922D01*
X104620568Y-105995655D01*
X104620569Y-105995649D01*
X104640765Y-105816403D01*
X104640765Y-105816396D01*
X104620569Y-105637150D01*
X104620568Y-105637145D01*
X104560989Y-105466878D01*
X104547140Y-105444838D01*
X104502863Y-105374371D01*
X104483863Y-105307134D01*
X104502863Y-105242428D01*
X104560989Y-105149922D01*
X104620568Y-104979655D01*
X104630418Y-104892232D01*
X104640765Y-104800403D01*
X104640765Y-104800396D01*
X104620569Y-104621150D01*
X104620568Y-104621145D01*
X104560988Y-104450875D01*
X104518824Y-104383773D01*
X104499823Y-104316536D01*
X104518824Y-104251827D01*
X104560988Y-104184724D01*
X104620568Y-104014454D01*
X104620569Y-104014449D01*
X104640765Y-103835203D01*
X104640765Y-103835196D01*
X104620569Y-103655950D01*
X104620568Y-103655945D01*
X104620366Y-103655368D01*
X104560989Y-103485678D01*
X104465016Y-103332938D01*
X104337462Y-103205384D01*
X104297223Y-103180100D01*
X104297217Y-103180096D01*
X107744135Y-103180096D01*
X107744135Y-103180103D01*
X107764330Y-103359349D01*
X107764331Y-103359354D01*
X107823911Y-103529623D01*
X107902923Y-103655369D01*
X107919884Y-103682362D01*
X108047438Y-103809916D01*
X108200178Y-103905889D01*
X108370445Y-103965468D01*
X108370450Y-103965469D01*
X108549696Y-103985665D01*
X108549700Y-103985665D01*
X108549704Y-103985665D01*
X108728949Y-103965469D01*
X108728952Y-103965468D01*
X108728955Y-103965468D01*
X108899222Y-103905889D01*
X109051962Y-103809916D01*
X109179516Y-103682362D01*
X109275489Y-103529622D01*
X109335068Y-103359355D01*
X109335069Y-103359349D01*
X109355265Y-103180103D01*
X109355265Y-103180096D01*
X111744135Y-103180096D01*
X111744135Y-103180103D01*
X111764330Y-103359349D01*
X111764331Y-103359354D01*
X111823911Y-103529623D01*
X111902923Y-103655369D01*
X111919884Y-103682362D01*
X112047438Y-103809916D01*
X112200178Y-103905889D01*
X112370445Y-103965468D01*
X112370450Y-103965469D01*
X112549696Y-103985665D01*
X112549700Y-103985665D01*
X112549704Y-103985665D01*
X112728949Y-103965469D01*
X112728952Y-103965468D01*
X112728955Y-103965468D01*
X112899222Y-103905889D01*
X113051962Y-103809916D01*
X113179516Y-103682362D01*
X113275489Y-103529622D01*
X113335068Y-103359355D01*
X113335069Y-103359349D01*
X113355265Y-103180103D01*
X113355265Y-103180096D01*
X115744135Y-103180096D01*
X115744135Y-103180103D01*
X115764330Y-103359349D01*
X115764331Y-103359354D01*
X115823911Y-103529623D01*
X115902923Y-103655369D01*
X115919884Y-103682362D01*
X116047438Y-103809916D01*
X116200178Y-103905889D01*
X116370445Y-103965468D01*
X116370450Y-103965469D01*
X116549696Y-103985665D01*
X116549700Y-103985665D01*
X116549704Y-103985665D01*
X116728949Y-103965469D01*
X116728952Y-103965468D01*
X116728955Y-103965468D01*
X116899222Y-103905889D01*
X117051962Y-103809916D01*
X117179516Y-103682362D01*
X117275489Y-103529622D01*
X117335068Y-103359355D01*
X117335069Y-103359349D01*
X117355265Y-103180103D01*
X117355265Y-103180096D01*
X119744135Y-103180096D01*
X119744135Y-103180103D01*
X119764330Y-103359349D01*
X119764331Y-103359354D01*
X119823911Y-103529623D01*
X119902923Y-103655369D01*
X119919884Y-103682362D01*
X120047438Y-103809916D01*
X120200178Y-103905889D01*
X120370445Y-103965468D01*
X120370450Y-103965469D01*
X120549696Y-103985665D01*
X120549700Y-103985665D01*
X120549704Y-103985665D01*
X120728949Y-103965469D01*
X120728952Y-103965468D01*
X120728955Y-103965468D01*
X120899222Y-103905889D01*
X121051962Y-103809916D01*
X121179516Y-103682362D01*
X121275489Y-103529622D01*
X121335068Y-103359355D01*
X121335069Y-103359349D01*
X121355265Y-103180103D01*
X121355265Y-103180096D01*
X121335069Y-103000850D01*
X121335068Y-103000845D01*
X121275488Y-102830576D01*
X121179515Y-102677837D01*
X121051962Y-102550284D01*
X120899223Y-102454311D01*
X120728954Y-102394731D01*
X120728949Y-102394730D01*
X120549704Y-102374535D01*
X120549696Y-102374535D01*
X120370450Y-102394730D01*
X120370445Y-102394731D01*
X120200176Y-102454311D01*
X120047437Y-102550284D01*
X119919884Y-102677837D01*
X119823911Y-102830576D01*
X119764331Y-103000845D01*
X119764330Y-103000850D01*
X119744135Y-103180096D01*
X117355265Y-103180096D01*
X117335069Y-103000850D01*
X117335068Y-103000845D01*
X117275488Y-102830576D01*
X117179515Y-102677837D01*
X117051962Y-102550284D01*
X116899223Y-102454311D01*
X116728954Y-102394731D01*
X116728949Y-102394730D01*
X116549704Y-102374535D01*
X116549696Y-102374535D01*
X116370450Y-102394730D01*
X116370445Y-102394731D01*
X116200176Y-102454311D01*
X116047437Y-102550284D01*
X115919884Y-102677837D01*
X115823911Y-102830576D01*
X115764331Y-103000845D01*
X115764330Y-103000850D01*
X115744135Y-103180096D01*
X113355265Y-103180096D01*
X113335069Y-103000850D01*
X113335068Y-103000845D01*
X113275488Y-102830576D01*
X113179515Y-102677837D01*
X113051962Y-102550284D01*
X112899223Y-102454311D01*
X112728954Y-102394731D01*
X112728949Y-102394730D01*
X112549704Y-102374535D01*
X112549696Y-102374535D01*
X112370450Y-102394730D01*
X112370445Y-102394731D01*
X112200176Y-102454311D01*
X112047437Y-102550284D01*
X111919884Y-102677837D01*
X111823911Y-102830576D01*
X111764331Y-103000845D01*
X111764330Y-103000850D01*
X111744135Y-103180096D01*
X109355265Y-103180096D01*
X109335069Y-103000850D01*
X109335068Y-103000845D01*
X109275488Y-102830576D01*
X109179515Y-102677837D01*
X109051962Y-102550284D01*
X108899223Y-102454311D01*
X108728954Y-102394731D01*
X108728949Y-102394730D01*
X108549704Y-102374535D01*
X108549696Y-102374535D01*
X108370450Y-102394730D01*
X108370445Y-102394731D01*
X108200176Y-102454311D01*
X108047437Y-102550284D01*
X107919884Y-102677837D01*
X107823911Y-102830576D01*
X107764331Y-103000845D01*
X107764330Y-103000850D01*
X107744135Y-103180096D01*
X104297217Y-103180096D01*
X104184723Y-103109411D01*
X104014454Y-103049831D01*
X104014450Y-103049830D01*
X103829341Y-103028974D01*
X103774442Y-103008928D01*
X102103700Y-101895100D01*
X99991600Y-101916300D01*
X97350000Y-104354700D01*
X97350000Y-104354701D01*
X97350000Y-105406049D01*
X97330315Y-105473088D01*
X97319715Y-105487249D01*
X97300035Y-105509961D01*
X97300031Y-105509967D01*
X97240263Y-105640837D01*
X97220576Y-105707882D01*
X97200100Y-105850301D01*
X97200100Y-107732705D01*
X97180415Y-107799744D01*
X97127611Y-107845499D01*
X97074658Y-107856697D01*
X93103442Y-107810521D01*
X93036636Y-107790058D01*
X92991498Y-107736726D01*
X92980884Y-107686849D01*
X92980867Y-107680343D01*
X92974379Y-105167496D01*
X93293235Y-105167496D01*
X93293235Y-105167503D01*
X93313430Y-105346749D01*
X93313431Y-105346754D01*
X93373011Y-105517023D01*
X93450809Y-105640837D01*
X93468984Y-105669762D01*
X93596538Y-105797316D01*
X93749278Y-105893289D01*
X93919545Y-105952868D01*
X93919550Y-105952869D01*
X94098796Y-105973065D01*
X94098800Y-105973065D01*
X94098804Y-105973065D01*
X94278049Y-105952869D01*
X94278052Y-105952868D01*
X94278055Y-105952868D01*
X94448322Y-105893289D01*
X94601062Y-105797316D01*
X94728616Y-105669762D01*
X94824589Y-105517022D01*
X94884168Y-105346755D01*
X94888490Y-105308400D01*
X94904365Y-105167503D01*
X94904365Y-105167496D01*
X94884169Y-104988250D01*
X94884168Y-104988245D01*
X94881160Y-104979649D01*
X94824589Y-104817978D01*
X94813541Y-104800396D01*
X94728615Y-104665237D01*
X94601062Y-104537684D01*
X94448323Y-104441711D01*
X94278054Y-104382131D01*
X94278049Y-104382130D01*
X94098804Y-104361935D01*
X94098796Y-104361935D01*
X93919550Y-104382130D01*
X93919545Y-104382131D01*
X93749276Y-104441711D01*
X93596537Y-104537684D01*
X93468984Y-104665237D01*
X93373011Y-104817976D01*
X93313431Y-104988245D01*
X93313430Y-104988250D01*
X93293235Y-105167496D01*
X92974379Y-105167496D01*
X92960021Y-99606420D01*
X92979533Y-99539330D01*
X93032218Y-99493439D01*
X93084021Y-99482100D01*
X99309700Y-99482100D01*
X100042400Y-98715900D01*
X100042400Y-97739196D01*
X102674035Y-97739196D01*
X102674035Y-97739203D01*
X102694230Y-97918449D01*
X102694231Y-97918454D01*
X102753811Y-98088723D01*
X102809806Y-98177838D01*
X102849784Y-98241462D01*
X102977338Y-98369016D01*
X102999845Y-98383158D01*
X103126417Y-98462689D01*
X103130078Y-98464989D01*
X103130087Y-98464992D01*
X103300345Y-98524568D01*
X103300350Y-98524569D01*
X103479596Y-98544765D01*
X103479600Y-98544765D01*
X103479604Y-98544765D01*
X103658849Y-98524569D01*
X103658851Y-98524568D01*
X103658855Y-98524568D01*
X103658858Y-98524566D01*
X103658862Y-98524566D01*
X103726651Y-98500845D01*
X103829122Y-98464989D01*
X103829137Y-98464979D01*
X103831264Y-98463956D01*
X103832794Y-98463703D01*
X103835695Y-98462689D01*
X103835872Y-98463196D01*
X103900204Y-98452600D01*
X103964341Y-98480318D01*
X104002115Y-98534719D01*
X104023810Y-98596721D01*
X104119784Y-98749462D01*
X104247338Y-98877016D01*
X104400078Y-98972989D01*
X104424690Y-98981601D01*
X104570345Y-99032568D01*
X104570350Y-99032569D01*
X104749596Y-99052765D01*
X104749600Y-99052765D01*
X104749604Y-99052765D01*
X104928849Y-99032569D01*
X104928852Y-99032568D01*
X104928855Y-99032568D01*
X105099122Y-98972989D01*
X105251862Y-98877016D01*
X105379416Y-98749462D01*
X105475389Y-98596722D01*
X105534968Y-98426455D01*
X105534969Y-98426449D01*
X105555165Y-98247203D01*
X105555165Y-98247196D01*
X105534969Y-98067950D01*
X105534968Y-98067945D01*
X105475388Y-97897676D01*
X105379415Y-97744937D01*
X105251862Y-97617384D01*
X105099123Y-97521411D01*
X104928854Y-97461831D01*
X104928849Y-97461830D01*
X104749604Y-97441635D01*
X104749596Y-97441635D01*
X104570350Y-97461830D01*
X104570337Y-97461833D01*
X104400076Y-97521410D01*
X104397914Y-97522452D01*
X104396379Y-97522704D01*
X104393506Y-97523710D01*
X104393329Y-97523206D01*
X104328971Y-97533795D01*
X104264840Y-97506065D01*
X104227084Y-97451679D01*
X104223569Y-97441635D01*
X104205389Y-97389678D01*
X104109416Y-97236938D01*
X103981862Y-97109384D01*
X103973155Y-97103913D01*
X103829123Y-97013411D01*
X103658854Y-96953831D01*
X103658849Y-96953830D01*
X103479604Y-96933635D01*
X103479596Y-96933635D01*
X103300350Y-96953830D01*
X103300345Y-96953831D01*
X103130076Y-97013411D01*
X102977337Y-97109384D01*
X102849784Y-97236937D01*
X102753811Y-97389676D01*
X102694231Y-97559945D01*
X102694230Y-97559950D01*
X102674035Y-97739196D01*
X100042400Y-97739196D01*
X100042400Y-96344296D01*
X101025635Y-96344296D01*
X101025635Y-96344303D01*
X101045830Y-96523549D01*
X101045831Y-96523554D01*
X101105411Y-96693823D01*
X101196312Y-96838490D01*
X101201384Y-96846562D01*
X101328938Y-96974116D01*
X101481678Y-97070089D01*
X101651945Y-97129668D01*
X101651950Y-97129669D01*
X101831196Y-97149865D01*
X101831200Y-97149865D01*
X101831204Y-97149865D01*
X102010449Y-97129669D01*
X102010452Y-97129668D01*
X102010455Y-97129668D01*
X102180722Y-97070089D01*
X102333462Y-96974116D01*
X102461016Y-96846562D01*
X102556989Y-96693822D01*
X102616568Y-96523555D01*
X102636765Y-96344300D01*
X102619954Y-96195100D01*
X102616569Y-96165050D01*
X102616568Y-96165045D01*
X102556988Y-95994776D01*
X102461015Y-95842037D01*
X102333462Y-95714484D01*
X102180723Y-95618511D01*
X102010454Y-95558931D01*
X102010449Y-95558930D01*
X101831204Y-95538735D01*
X101831196Y-95538735D01*
X101651950Y-95558930D01*
X101651945Y-95558931D01*
X101481676Y-95618511D01*
X101328937Y-95714484D01*
X101201384Y-95842037D01*
X101105411Y-95994776D01*
X101045831Y-96165045D01*
X101045830Y-96165050D01*
X101025635Y-96344296D01*
X100042400Y-96344296D01*
X100042400Y-87056575D01*
X100062085Y-86989536D01*
X100114889Y-86943781D01*
X100168651Y-86932595D01*
X102714655Y-86978886D01*
G37*
G04 #@! TD.AperFunction*
G04 #@! TA.AperFunction,Conductor*
G36*
X84496052Y-106773208D02*
G01*
X84541807Y-106826012D01*
X84552921Y-106872757D01*
X84599134Y-108074318D01*
X84599134Y-108074320D01*
X84751534Y-108429923D01*
X84774973Y-108430059D01*
X88314324Y-108450636D01*
X88381246Y-108470710D01*
X88426693Y-108523779D01*
X88436234Y-108592994D01*
X88418596Y-108640605D01*
X88394611Y-108678777D01*
X88335031Y-108849045D01*
X88335030Y-108849050D01*
X88314835Y-109028296D01*
X88314835Y-109028303D01*
X88335030Y-109207549D01*
X88335031Y-109207554D01*
X88394611Y-109377823D01*
X88490584Y-109530562D01*
X88618138Y-109658116D01*
X88770878Y-109754089D01*
X88941145Y-109813668D01*
X88941150Y-109813669D01*
X89120396Y-109833865D01*
X89120400Y-109833865D01*
X89120404Y-109833865D01*
X89299649Y-109813669D01*
X89299652Y-109813668D01*
X89299655Y-109813668D01*
X89469922Y-109754089D01*
X89622662Y-109658116D01*
X89750216Y-109530562D01*
X89846189Y-109377822D01*
X89905768Y-109207555D01*
X89925965Y-109028300D01*
X89905768Y-108849045D01*
X89846189Y-108678778D01*
X89828120Y-108650021D01*
X89809120Y-108582784D01*
X89829488Y-108515949D01*
X89882756Y-108470735D01*
X89933827Y-108460052D01*
X90187200Y-108461525D01*
X90187200Y-110196700D01*
X93489135Y-110196700D01*
X93463431Y-110222404D01*
X93402108Y-110255889D01*
X93375750Y-110258723D01*
X86783535Y-110258723D01*
X86833646Y-119328838D01*
X86814332Y-119395985D01*
X86761782Y-119442031D01*
X86709648Y-119453523D01*
X84062735Y-119453523D01*
X83995696Y-119433838D01*
X83949941Y-119381034D01*
X83938735Y-119329523D01*
X83938735Y-110919122D01*
X83342226Y-109726104D01*
X83329135Y-109670650D01*
X83329135Y-106877523D01*
X83348820Y-106810484D01*
X83401624Y-106764729D01*
X83453135Y-106753523D01*
X84429013Y-106753523D01*
X84496052Y-106773208D01*
G37*
G04 #@! TD.AperFunction*
M02*
