G04 #@! TF.GenerationSoftware,KiCad,Pcbnew,8.0.7*
G04 #@! TF.CreationDate,2025-07-06T21:45:57+02:00*
G04 #@! TF.ProjectId,modbus-to-x,6d6f6462-7573-42d7-946f-2d782e6b6963,rev?*
G04 #@! TF.SameCoordinates,Original*
G04 #@! TF.FileFunction,Copper,L2,Inr*
G04 #@! TF.FilePolarity,Positive*
%FSLAX46Y46*%
G04 Gerber Fmt 4.6, Leading zero omitted, Abs format (unit mm)*
G04 Created by KiCad (PCBNEW 8.0.7) date 2025-07-06 21:45:57*
%MOMM*%
%LPD*%
G01*
G04 APERTURE LIST*
G04 #@! TA.AperFunction,ComponentPad*
%ADD10C,0.600000*%
G04 #@! TD*
G04 #@! TA.AperFunction,ComponentPad*
%ADD11R,2.032000X2.032000*%
G04 #@! TD*
G04 #@! TA.AperFunction,ComponentPad*
%ADD12C,2.032000*%
G04 #@! TD*
G04 #@! TA.AperFunction,ComponentPad*
%ADD13C,0.499999*%
G04 #@! TD*
G04 #@! TA.AperFunction,ComponentPad*
%ADD14R,2.413000X2.413000*%
G04 #@! TD*
G04 #@! TA.AperFunction,ComponentPad*
%ADD15C,2.413000*%
G04 #@! TD*
G04 #@! TA.AperFunction,ViaPad*
%ADD16C,0.600000*%
G04 #@! TD*
G04 #@! TA.AperFunction,ViaPad*
%ADD17C,0.500000*%
G04 #@! TD*
G04 APERTURE END LIST*
D10*
X104468500Y-88585800D03*
X104468500Y-92585800D03*
X104468500Y-96585800D03*
X104468500Y-101085800D03*
X108468500Y-88585800D03*
X108468500Y-92585800D03*
X108468500Y-96585800D03*
X108468500Y-101085800D03*
X112468500Y-88585800D03*
X112468500Y-92585800D03*
X112468500Y-96585800D03*
X112468500Y-101085800D03*
X116468500Y-88585800D03*
X116468500Y-92585800D03*
X116468500Y-96585800D03*
X116468500Y-101085800D03*
D11*
X104015600Y-126798400D03*
D12*
X107515600Y-126798400D03*
D11*
X124438500Y-98403800D03*
D12*
X124438500Y-101903800D03*
D13*
X90894501Y-113262800D03*
X89894500Y-114462800D03*
X89894500Y-113262800D03*
X89894500Y-112062800D03*
X88894502Y-113262800D03*
D14*
X124438500Y-87100800D03*
D15*
X124438500Y-90600800D03*
X124438500Y-94100800D03*
D16*
X86664800Y-107696000D03*
X80264000Y-112420400D03*
X96117500Y-107420800D03*
D17*
X87024300Y-106862000D03*
X81892500Y-116819800D03*
X80010000Y-107188000D03*
D16*
X101887600Y-87172700D03*
X112979200Y-122580400D03*
D17*
X81432400Y-118262400D03*
D16*
X99825900Y-122406800D03*
X93250000Y-81250000D03*
D17*
X113694300Y-108843200D03*
D16*
X88188800Y-86664800D03*
X80721200Y-86652500D03*
D17*
X120095100Y-118774600D03*
X102772300Y-109605200D03*
D16*
X96117500Y-109452800D03*
D17*
X121615200Y-112106700D03*
D16*
X90525600Y-81330800D03*
X125835500Y-114024800D03*
X120374500Y-88497800D03*
X87172800Y-114062801D03*
X104753500Y-107547800D03*
X90017600Y-103073200D03*
X97750000Y-94250000D03*
D17*
X102721500Y-108436800D03*
D16*
X79146400Y-98704400D03*
D17*
X109376300Y-108792400D03*
X84277200Y-98196400D03*
D16*
X86647500Y-88078800D03*
X91287600Y-104140000D03*
X122580400Y-102971600D03*
X101299100Y-122406800D03*
X89560400Y-98145600D03*
D17*
X109376300Y-110011600D03*
X117195600Y-107391200D03*
X120145900Y-122559200D03*
X117910700Y-115091600D03*
D16*
X95043000Y-98555800D03*
X116941600Y-117847400D03*
X98907600Y-89611200D03*
X102565200Y-118516400D03*
X98145600Y-90576400D03*
D17*
X116802900Y-110011600D03*
D16*
X89611200Y-99314000D03*
D17*
X120247500Y-90250400D03*
D16*
X118723500Y-110097200D03*
D17*
X121970800Y-105765600D03*
X120294400Y-94843600D03*
X122275600Y-114249200D03*
X87202400Y-113262800D03*
D16*
X85039200Y-106934000D03*
X88036400Y-104952800D03*
X92811600Y-111912400D03*
X96113600Y-110439200D03*
X106172000Y-118516400D03*
D17*
X122428000Y-120751600D03*
X114604800Y-107391200D03*
D16*
X123088400Y-110540800D03*
X123748800Y-117144800D03*
X123794900Y-113233200D03*
X124714000Y-115824000D03*
G04 #@! TA.AperFunction,Conductor*
G36*
X95487087Y-103651685D02*
G01*
X95532842Y-103704489D01*
X95535179Y-103709948D01*
X95808799Y-104393999D01*
X95808800Y-104394000D01*
X97716800Y-104394000D01*
X97783839Y-104413685D01*
X97829594Y-104466489D01*
X97840800Y-104518000D01*
X97840800Y-105842716D01*
X97821115Y-105909755D01*
X97774008Y-105952731D01*
X96570800Y-106578400D01*
X96570800Y-107978400D01*
X96551115Y-108045439D01*
X96498311Y-108091194D01*
X96446800Y-108102400D01*
X86106000Y-108102400D01*
X86106000Y-106367224D01*
X86112800Y-106360465D01*
X86174220Y-106327158D01*
X86200226Y-106324400D01*
X93624400Y-106324400D01*
X93624400Y-103756000D01*
X93644085Y-103688961D01*
X93696889Y-103643206D01*
X93748400Y-103632000D01*
X95420048Y-103632000D01*
X95487087Y-103651685D01*
G37*
G04 #@! TD.AperFunction*
G04 #@! TA.AperFunction,Conductor*
G36*
X98633455Y-84884586D02*
G01*
X98700125Y-84905487D01*
X98744912Y-84959114D01*
X98755200Y-85008566D01*
X98755200Y-88798400D01*
X101780800Y-88798400D01*
X101847839Y-88818085D01*
X101893594Y-88870889D01*
X101904800Y-88922400D01*
X101904800Y-95808800D01*
X106883199Y-99720400D01*
X106883200Y-99720400D01*
X122960255Y-99720400D01*
X123027294Y-99740085D01*
X123059524Y-99770092D01*
X123064952Y-99777344D01*
X123064953Y-99777345D01*
X123064954Y-99777346D01*
X123064957Y-99777348D01*
X123180164Y-99863593D01*
X123180171Y-99863597D01*
X123315017Y-99913891D01*
X123315016Y-99913891D01*
X123321944Y-99914635D01*
X123374627Y-99920300D01*
X124946296Y-99920299D01*
X125013335Y-99939984D01*
X125059090Y-99992787D01*
X125070296Y-100044032D01*
X125070932Y-100338878D01*
X125051392Y-100405959D01*
X124998687Y-100451828D01*
X124929550Y-100461921D01*
X124913319Y-100458164D01*
X124913311Y-100458200D01*
X124909017Y-100457169D01*
X124908606Y-100457074D01*
X124908564Y-100457060D01*
X124676462Y-100401338D01*
X124676463Y-100401338D01*
X124438500Y-100382611D01*
X124200536Y-100401338D01*
X123968431Y-100457061D01*
X123747899Y-100548408D01*
X123544367Y-100673132D01*
X123362857Y-100828157D01*
X123207832Y-101009667D01*
X123083108Y-101213199D01*
X122991761Y-101433731D01*
X122936038Y-101665836D01*
X122917311Y-101903800D01*
X122936038Y-102141763D01*
X122991761Y-102373868D01*
X123083108Y-102594400D01*
X123083110Y-102594404D01*
X123083111Y-102594405D01*
X123207832Y-102797932D01*
X123362857Y-102979443D01*
X123544368Y-103134468D01*
X123747895Y-103259189D01*
X123747897Y-103259189D01*
X123747899Y-103259191D01*
X123823571Y-103290535D01*
X123968427Y-103350537D01*
X124200534Y-103406261D01*
X124438500Y-103424989D01*
X124676466Y-103406261D01*
X124908573Y-103350537D01*
X124908580Y-103350533D01*
X124913207Y-103349031D01*
X124913750Y-103350703D01*
X124975683Y-103344042D01*
X125038163Y-103375315D01*
X125073818Y-103435402D01*
X125077671Y-103465806D01*
X125099690Y-113682577D01*
X125092732Y-113723798D01*
X125050131Y-113845547D01*
X125029935Y-114024796D01*
X125029935Y-114024803D01*
X125050131Y-114204052D01*
X125094215Y-114330038D01*
X125101173Y-114370725D01*
X125102393Y-114936783D01*
X125082853Y-115003864D01*
X125030147Y-115049733D01*
X124961011Y-115059826D01*
X124937439Y-115054092D01*
X124893257Y-115038632D01*
X124893249Y-115038630D01*
X124714004Y-115018435D01*
X124713996Y-115018435D01*
X124534750Y-115038630D01*
X124534745Y-115038631D01*
X124364476Y-115098211D01*
X124211737Y-115194184D01*
X124084184Y-115321737D01*
X123988211Y-115474476D01*
X123928631Y-115644745D01*
X123928630Y-115644750D01*
X123908435Y-115823996D01*
X123908435Y-115824003D01*
X123928630Y-116003249D01*
X123928631Y-116003254D01*
X123988211Y-116173522D01*
X123988981Y-116175121D01*
X123989168Y-116176257D01*
X123990511Y-116180095D01*
X123989838Y-116180330D01*
X124000333Y-116244063D01*
X123972612Y-116308197D01*
X123914617Y-116347163D01*
X123863378Y-116352144D01*
X123748804Y-116339235D01*
X123748796Y-116339235D01*
X123569550Y-116359430D01*
X123569545Y-116359431D01*
X123399276Y-116419011D01*
X123246537Y-116514984D01*
X123118984Y-116642537D01*
X123023011Y-116795276D01*
X122963431Y-116965545D01*
X122963430Y-116965550D01*
X122943235Y-117144796D01*
X122943235Y-117144803D01*
X122963430Y-117324049D01*
X122963431Y-117324054D01*
X123023011Y-117494323D01*
X123100576Y-117617766D01*
X123118984Y-117647062D01*
X123246538Y-117774616D01*
X123326025Y-117824561D01*
X123371081Y-117852872D01*
X123399278Y-117870589D01*
X123569545Y-117930168D01*
X123569550Y-117930169D01*
X123748796Y-117950365D01*
X123748800Y-117950365D01*
X123748804Y-117950365D01*
X123928049Y-117930169D01*
X123928052Y-117930168D01*
X123928055Y-117930168D01*
X124098322Y-117870589D01*
X124251062Y-117774616D01*
X124378616Y-117647062D01*
X124474589Y-117494322D01*
X124534168Y-117324055D01*
X124554365Y-117144800D01*
X124534168Y-116965545D01*
X124474589Y-116795278D01*
X124474588Y-116795276D01*
X124473821Y-116793683D01*
X124473634Y-116792549D01*
X124472289Y-116788705D01*
X124472962Y-116788469D01*
X124462465Y-116724743D01*
X124490183Y-116660607D01*
X124548176Y-116621638D01*
X124599420Y-116616655D01*
X124662266Y-116623736D01*
X124713998Y-116629565D01*
X124714000Y-116629565D01*
X124714004Y-116629565D01*
X124893249Y-116609369D01*
X124893250Y-116609368D01*
X124893255Y-116609368D01*
X124941258Y-116592570D01*
X125011035Y-116589008D01*
X125071663Y-116623736D01*
X125103891Y-116685729D01*
X125106213Y-116709345D01*
X125120132Y-123167333D01*
X125100592Y-123234414D01*
X125047886Y-123280283D01*
X124996132Y-123291600D01*
X113699440Y-123291600D01*
X113632401Y-123271915D01*
X113586646Y-123219111D01*
X113576702Y-123149953D01*
X113604874Y-123088263D01*
X113604675Y-123088105D01*
X113605311Y-123087306D01*
X113605727Y-123086397D01*
X113607887Y-123084076D01*
X113609011Y-123082666D01*
X113609016Y-123082662D01*
X113704989Y-122929922D01*
X113764568Y-122759655D01*
X113764569Y-122759649D01*
X113784765Y-122580403D01*
X113784765Y-122580396D01*
X113764569Y-122401150D01*
X113764568Y-122401145D01*
X113704988Y-122230876D01*
X113609015Y-122078137D01*
X113481462Y-121950584D01*
X113328723Y-121854611D01*
X113158454Y-121795031D01*
X113158449Y-121795030D01*
X112979204Y-121774835D01*
X112979196Y-121774835D01*
X112799950Y-121795030D01*
X112799945Y-121795031D01*
X112629676Y-121854611D01*
X112476937Y-121950584D01*
X112349384Y-122078137D01*
X112253411Y-122230876D01*
X112193831Y-122401145D01*
X112193830Y-122401150D01*
X112173635Y-122580396D01*
X112173635Y-122580403D01*
X112193830Y-122759649D01*
X112193831Y-122759654D01*
X112253411Y-122929923D01*
X112349384Y-123082662D01*
X112353725Y-123088105D01*
X112351903Y-123089557D01*
X112380126Y-123141242D01*
X112375142Y-123210934D01*
X112333270Y-123266867D01*
X112267806Y-123291284D01*
X112258960Y-123291600D01*
X100555335Y-123291600D01*
X100488296Y-123271915D01*
X100442541Y-123219111D01*
X100431335Y-123167866D01*
X100431278Y-123141242D01*
X100430941Y-122983780D01*
X100450481Y-122916704D01*
X100454029Y-122911746D01*
X100455714Y-122909063D01*
X100455716Y-122909062D01*
X100551689Y-122756322D01*
X100611268Y-122586055D01*
X100631465Y-122406800D01*
X100630828Y-122401150D01*
X100611269Y-122227550D01*
X100611268Y-122227545D01*
X100551688Y-122057276D01*
X100527695Y-122019093D01*
X100455716Y-121904538D01*
X100455707Y-121904529D01*
X100455524Y-121904299D01*
X100455446Y-121904110D01*
X100452011Y-121898642D01*
X100452968Y-121898040D01*
X100429111Y-121839614D01*
X100428466Y-121827268D01*
X100426164Y-120751597D01*
X121672751Y-120751597D01*
X121672751Y-120751602D01*
X121691685Y-120919656D01*
X121747545Y-121079294D01*
X121747547Y-121079297D01*
X121837518Y-121222484D01*
X121837523Y-121222490D01*
X121957109Y-121342076D01*
X121957115Y-121342081D01*
X122100302Y-121432052D01*
X122100305Y-121432054D01*
X122100309Y-121432055D01*
X122100310Y-121432056D01*
X122172913Y-121457460D01*
X122259943Y-121487914D01*
X122427997Y-121506849D01*
X122428000Y-121506849D01*
X122428003Y-121506849D01*
X122596056Y-121487914D01*
X122596059Y-121487913D01*
X122755690Y-121432056D01*
X122755692Y-121432054D01*
X122755694Y-121432054D01*
X122755697Y-121432052D01*
X122898884Y-121342081D01*
X122898885Y-121342080D01*
X122898890Y-121342077D01*
X123018477Y-121222490D01*
X123108452Y-121079297D01*
X123108454Y-121079294D01*
X123108454Y-121079292D01*
X123108456Y-121079290D01*
X123164313Y-120919659D01*
X123164313Y-120919658D01*
X123164314Y-120919656D01*
X123183249Y-120751602D01*
X123183249Y-120751597D01*
X123164314Y-120583543D01*
X123108454Y-120423905D01*
X123108452Y-120423902D01*
X123018481Y-120280715D01*
X123018476Y-120280709D01*
X122898890Y-120161123D01*
X122898884Y-120161118D01*
X122755697Y-120071147D01*
X122755694Y-120071145D01*
X122596056Y-120015285D01*
X122428003Y-119996351D01*
X122427997Y-119996351D01*
X122259943Y-120015285D01*
X122100305Y-120071145D01*
X122100302Y-120071147D01*
X121957115Y-120161118D01*
X121957109Y-120161123D01*
X121837523Y-120280709D01*
X121837518Y-120280715D01*
X121747547Y-120423902D01*
X121747545Y-120423905D01*
X121691685Y-120583543D01*
X121672751Y-120751597D01*
X100426164Y-120751597D01*
X100421381Y-118516396D01*
X105366435Y-118516396D01*
X105366435Y-118516403D01*
X105386630Y-118695649D01*
X105386631Y-118695654D01*
X105446211Y-118865923D01*
X105494426Y-118942656D01*
X105542184Y-119018662D01*
X105669738Y-119146216D01*
X105822478Y-119242189D01*
X105992745Y-119301768D01*
X105992750Y-119301769D01*
X106171996Y-119321965D01*
X106172000Y-119321965D01*
X106172004Y-119321965D01*
X106351249Y-119301769D01*
X106351252Y-119301768D01*
X106351255Y-119301768D01*
X106521522Y-119242189D01*
X106674262Y-119146216D01*
X106801816Y-119018662D01*
X106897789Y-118865922D01*
X106929745Y-118774597D01*
X119339851Y-118774597D01*
X119339851Y-118774602D01*
X119358785Y-118942656D01*
X119414645Y-119102294D01*
X119414647Y-119102297D01*
X119504618Y-119245484D01*
X119504623Y-119245490D01*
X119624209Y-119365076D01*
X119624215Y-119365081D01*
X119767402Y-119455052D01*
X119767405Y-119455054D01*
X119767409Y-119455055D01*
X119767410Y-119455056D01*
X119840013Y-119480460D01*
X119927043Y-119510914D01*
X120095097Y-119529849D01*
X120095100Y-119529849D01*
X120095103Y-119529849D01*
X120263156Y-119510914D01*
X120263159Y-119510913D01*
X120422790Y-119455056D01*
X120422792Y-119455054D01*
X120422794Y-119455054D01*
X120422797Y-119455052D01*
X120565984Y-119365081D01*
X120565985Y-119365080D01*
X120565990Y-119365077D01*
X120685577Y-119245490D01*
X120687652Y-119242188D01*
X120775552Y-119102297D01*
X120775554Y-119102294D01*
X120775554Y-119102292D01*
X120775556Y-119102290D01*
X120831413Y-118942659D01*
X120831413Y-118942658D01*
X120831414Y-118942656D01*
X120850349Y-118774602D01*
X120850349Y-118774597D01*
X120831414Y-118606543D01*
X120775554Y-118446905D01*
X120775552Y-118446902D01*
X120685581Y-118303715D01*
X120685576Y-118303709D01*
X120565990Y-118184123D01*
X120565984Y-118184118D01*
X120422797Y-118094147D01*
X120422794Y-118094145D01*
X120263156Y-118038285D01*
X120095103Y-118019351D01*
X120095097Y-118019351D01*
X119927043Y-118038285D01*
X119767405Y-118094145D01*
X119767402Y-118094147D01*
X119624215Y-118184118D01*
X119624209Y-118184123D01*
X119504623Y-118303709D01*
X119504618Y-118303715D01*
X119414647Y-118446902D01*
X119414645Y-118446905D01*
X119358785Y-118606543D01*
X119339851Y-118774597D01*
X106929745Y-118774597D01*
X106957368Y-118695655D01*
X106957369Y-118695649D01*
X106977565Y-118516403D01*
X106977565Y-118516396D01*
X106957369Y-118337150D01*
X106957368Y-118337145D01*
X106903823Y-118184123D01*
X106897789Y-118166878D01*
X106801816Y-118014138D01*
X106674262Y-117886584D01*
X106648805Y-117870588D01*
X106521523Y-117790611D01*
X106351254Y-117731031D01*
X106351249Y-117731030D01*
X106172004Y-117710835D01*
X106171996Y-117710835D01*
X105992750Y-117731030D01*
X105992745Y-117731031D01*
X105822476Y-117790611D01*
X105669737Y-117886584D01*
X105542184Y-118014137D01*
X105446211Y-118166876D01*
X105386631Y-118337145D01*
X105386630Y-118337150D01*
X105366435Y-118516396D01*
X100421381Y-118516396D01*
X100412249Y-114249197D01*
X121520351Y-114249197D01*
X121520351Y-114249202D01*
X121539285Y-114417256D01*
X121595145Y-114576894D01*
X121595147Y-114576897D01*
X121685118Y-114720084D01*
X121685123Y-114720090D01*
X121804709Y-114839676D01*
X121804715Y-114839681D01*
X121947902Y-114929652D01*
X121947905Y-114929654D01*
X121947909Y-114929655D01*
X121947910Y-114929656D01*
X121959436Y-114933689D01*
X122107543Y-114985514D01*
X122275597Y-115004449D01*
X122275600Y-115004449D01*
X122275603Y-115004449D01*
X122443656Y-114985514D01*
X122443659Y-114985513D01*
X122603290Y-114929656D01*
X122603292Y-114929654D01*
X122603294Y-114929654D01*
X122603297Y-114929652D01*
X122746484Y-114839681D01*
X122746485Y-114839680D01*
X122746490Y-114839677D01*
X122866077Y-114720090D01*
X122866081Y-114720084D01*
X122956052Y-114576897D01*
X122956054Y-114576894D01*
X122956054Y-114576892D01*
X122956056Y-114576890D01*
X123011913Y-114417259D01*
X123011913Y-114417258D01*
X123011914Y-114417256D01*
X123030849Y-114249202D01*
X123030849Y-114249197D01*
X123011914Y-114081143D01*
X122956054Y-113921505D01*
X122956052Y-113921502D01*
X122866081Y-113778315D01*
X122866076Y-113778309D01*
X122746490Y-113658723D01*
X122746484Y-113658718D01*
X122603297Y-113568747D01*
X122603294Y-113568745D01*
X122443656Y-113512885D01*
X122275603Y-113493951D01*
X122275597Y-113493951D01*
X122107543Y-113512885D01*
X121947905Y-113568745D01*
X121947902Y-113568747D01*
X121804715Y-113658718D01*
X121804709Y-113658723D01*
X121685123Y-113778309D01*
X121685118Y-113778315D01*
X121595147Y-113921502D01*
X121595145Y-113921505D01*
X121539285Y-114081143D01*
X121520351Y-114249197D01*
X100412249Y-114249197D01*
X100410075Y-113233196D01*
X122989335Y-113233196D01*
X122989335Y-113233203D01*
X123009530Y-113412449D01*
X123009531Y-113412454D01*
X123069111Y-113582723D01*
X123127268Y-113675278D01*
X123165084Y-113735462D01*
X123292638Y-113863016D01*
X123307450Y-113872323D01*
X123420337Y-113943255D01*
X123445378Y-113958989D01*
X123539464Y-113991911D01*
X123615645Y-114018568D01*
X123615650Y-114018569D01*
X123794896Y-114038765D01*
X123794900Y-114038765D01*
X123794904Y-114038765D01*
X123974149Y-114018569D01*
X123974152Y-114018568D01*
X123974155Y-114018568D01*
X124144422Y-113958989D01*
X124297162Y-113863016D01*
X124424716Y-113735462D01*
X124520689Y-113582722D01*
X124580268Y-113412455D01*
X124580269Y-113412449D01*
X124600465Y-113233203D01*
X124600465Y-113233196D01*
X124580269Y-113053950D01*
X124580268Y-113053945D01*
X124520688Y-112883676D01*
X124460039Y-112787154D01*
X124424716Y-112730938D01*
X124297162Y-112603384D01*
X124199814Y-112542216D01*
X124144423Y-112507411D01*
X123974154Y-112447831D01*
X123974149Y-112447830D01*
X123794904Y-112427635D01*
X123794896Y-112427635D01*
X123615650Y-112447830D01*
X123615645Y-112447831D01*
X123445376Y-112507411D01*
X123292637Y-112603384D01*
X123165084Y-112730937D01*
X123069111Y-112883676D01*
X123009531Y-113053945D01*
X123009530Y-113053950D01*
X122989335Y-113233196D01*
X100410075Y-113233196D01*
X100407664Y-112106697D01*
X120859951Y-112106697D01*
X120859951Y-112106702D01*
X120878885Y-112274756D01*
X120934745Y-112434394D01*
X120934747Y-112434397D01*
X121024718Y-112577584D01*
X121024723Y-112577590D01*
X121144309Y-112697176D01*
X121144315Y-112697181D01*
X121287502Y-112787152D01*
X121287505Y-112787154D01*
X121287509Y-112787155D01*
X121287510Y-112787156D01*
X121360113Y-112812560D01*
X121447143Y-112843014D01*
X121615197Y-112861949D01*
X121615200Y-112861949D01*
X121615203Y-112861949D01*
X121783256Y-112843014D01*
X121783259Y-112843013D01*
X121942890Y-112787156D01*
X121942892Y-112787154D01*
X121942894Y-112787154D01*
X121942897Y-112787152D01*
X122086084Y-112697181D01*
X122086085Y-112697180D01*
X122086090Y-112697177D01*
X122205677Y-112577590D01*
X122287210Y-112447832D01*
X122295652Y-112434397D01*
X122295654Y-112434394D01*
X122295654Y-112434392D01*
X122295656Y-112434390D01*
X122351513Y-112274759D01*
X122351513Y-112274758D01*
X122351514Y-112274756D01*
X122370449Y-112106702D01*
X122370449Y-112106697D01*
X122351514Y-111938643D01*
X122295654Y-111779005D01*
X122295652Y-111779002D01*
X122205681Y-111635815D01*
X122205676Y-111635809D01*
X122086090Y-111516223D01*
X122086084Y-111516218D01*
X121942897Y-111426247D01*
X121942894Y-111426245D01*
X121783256Y-111370385D01*
X121615203Y-111351451D01*
X121615197Y-111351451D01*
X121447143Y-111370385D01*
X121287505Y-111426245D01*
X121287502Y-111426247D01*
X121144315Y-111516218D01*
X121144309Y-111516223D01*
X121024723Y-111635809D01*
X121024718Y-111635815D01*
X120934747Y-111779002D01*
X120934745Y-111779005D01*
X120878885Y-111938643D01*
X120859951Y-112106697D01*
X100407664Y-112106697D01*
X100405509Y-111099599D01*
X105262722Y-111099599D01*
X105262722Y-111099600D01*
X105281762Y-111256418D01*
X105329521Y-111382345D01*
X105337780Y-111404123D01*
X105427517Y-111534130D01*
X105545760Y-111638883D01*
X105545762Y-111638884D01*
X105685634Y-111712296D01*
X105839014Y-111750100D01*
X105839015Y-111750100D01*
X105996985Y-111750100D01*
X106150365Y-111712296D01*
X106290240Y-111638883D01*
X106408483Y-111534130D01*
X106498220Y-111404123D01*
X106554237Y-111256418D01*
X106573278Y-111099600D01*
X106569565Y-111069016D01*
X106554237Y-110942781D01*
X106531401Y-110882568D01*
X106498220Y-110795077D01*
X106408483Y-110665070D01*
X106290240Y-110560317D01*
X106290238Y-110560316D01*
X106290237Y-110560315D01*
X106150365Y-110486903D01*
X105996986Y-110449100D01*
X105996985Y-110449100D01*
X105839015Y-110449100D01*
X105839014Y-110449100D01*
X105685634Y-110486903D01*
X105545762Y-110560315D01*
X105427516Y-110665071D01*
X105337781Y-110795075D01*
X105337780Y-110795076D01*
X105281762Y-110942781D01*
X105262722Y-111099599D01*
X100405509Y-111099599D01*
X100399811Y-108436797D01*
X101966251Y-108436797D01*
X101966251Y-108436802D01*
X101985185Y-108604856D01*
X102041045Y-108764494D01*
X102041047Y-108764497D01*
X102131018Y-108907684D01*
X102131023Y-108907690D01*
X102182051Y-108958718D01*
X102215536Y-109020041D01*
X102210552Y-109089733D01*
X102185665Y-109128461D01*
X102186167Y-109128862D01*
X102182257Y-109133765D01*
X102182060Y-109134072D01*
X102181825Y-109134306D01*
X102181820Y-109134312D01*
X102091847Y-109277502D01*
X102091845Y-109277505D01*
X102035985Y-109437143D01*
X102017051Y-109605197D01*
X102017051Y-109605202D01*
X102035985Y-109773256D01*
X102091845Y-109932894D01*
X102091847Y-109932897D01*
X102181818Y-110076084D01*
X102181823Y-110076090D01*
X102301409Y-110195676D01*
X102301415Y-110195681D01*
X102444602Y-110285652D01*
X102444605Y-110285654D01*
X102444609Y-110285655D01*
X102444610Y-110285656D01*
X102517213Y-110311060D01*
X102604243Y-110341514D01*
X102772297Y-110360449D01*
X102772300Y-110360449D01*
X102772303Y-110360449D01*
X102940356Y-110341514D01*
X102940359Y-110341513D01*
X103099990Y-110285656D01*
X103099992Y-110285654D01*
X103099994Y-110285654D01*
X103099997Y-110285652D01*
X103243184Y-110195681D01*
X103243185Y-110195680D01*
X103243190Y-110195677D01*
X103341671Y-110097196D01*
X117917935Y-110097196D01*
X117917935Y-110097203D01*
X117938130Y-110276449D01*
X117938131Y-110276454D01*
X117997711Y-110446723D01*
X118093684Y-110599462D01*
X118221238Y-110727016D01*
X118373978Y-110822989D01*
X118544245Y-110882568D01*
X118544250Y-110882569D01*
X118723496Y-110902765D01*
X118723500Y-110902765D01*
X118723504Y-110902765D01*
X118902749Y-110882569D01*
X118902752Y-110882568D01*
X118902755Y-110882568D01*
X119073022Y-110822989D01*
X119225762Y-110727016D01*
X119353316Y-110599462D01*
X119390178Y-110540796D01*
X122282835Y-110540796D01*
X122282835Y-110540803D01*
X122303030Y-110720049D01*
X122303031Y-110720054D01*
X122362611Y-110890323D01*
X122458584Y-111043062D01*
X122586138Y-111170616D01*
X122738878Y-111266589D01*
X122855944Y-111307552D01*
X122909145Y-111326168D01*
X122909150Y-111326169D01*
X123088396Y-111346365D01*
X123088400Y-111346365D01*
X123088404Y-111346365D01*
X123267649Y-111326169D01*
X123267652Y-111326168D01*
X123267655Y-111326168D01*
X123437922Y-111266589D01*
X123590662Y-111170616D01*
X123718216Y-111043062D01*
X123814189Y-110890322D01*
X123873768Y-110720055D01*
X123879963Y-110665071D01*
X123893965Y-110540803D01*
X123893965Y-110540796D01*
X123873769Y-110361550D01*
X123873768Y-110361545D01*
X123866759Y-110341514D01*
X123814189Y-110191278D01*
X123718216Y-110038538D01*
X123590662Y-109910984D01*
X123437923Y-109815011D01*
X123267654Y-109755431D01*
X123267649Y-109755430D01*
X123088404Y-109735235D01*
X123088396Y-109735235D01*
X122909150Y-109755430D01*
X122909145Y-109755431D01*
X122738876Y-109815011D01*
X122586137Y-109910984D01*
X122458584Y-110038537D01*
X122362611Y-110191276D01*
X122303031Y-110361545D01*
X122303030Y-110361550D01*
X122282835Y-110540796D01*
X119390178Y-110540796D01*
X119449289Y-110446722D01*
X119508868Y-110276455D01*
X119508869Y-110276449D01*
X119529065Y-110097203D01*
X119529065Y-110097196D01*
X119508869Y-109917950D01*
X119508868Y-109917945D01*
X119452002Y-109755431D01*
X119449289Y-109747678D01*
X119353316Y-109594938D01*
X119225762Y-109467384D01*
X119172116Y-109433676D01*
X119073023Y-109371411D01*
X118902754Y-109311831D01*
X118902749Y-109311830D01*
X118723504Y-109291635D01*
X118723496Y-109291635D01*
X118544250Y-109311830D01*
X118544245Y-109311831D01*
X118373976Y-109371411D01*
X118221237Y-109467384D01*
X118093684Y-109594937D01*
X117997711Y-109747676D01*
X117938131Y-109917945D01*
X117938130Y-109917950D01*
X117917935Y-110097196D01*
X103341671Y-110097196D01*
X103362777Y-110076090D01*
X103386373Y-110038538D01*
X103452752Y-109932897D01*
X103452754Y-109932894D01*
X103452754Y-109932892D01*
X103452756Y-109932890D01*
X103508613Y-109773259D01*
X103508613Y-109773258D01*
X103508614Y-109773256D01*
X103527549Y-109605202D01*
X103527549Y-109605197D01*
X103508614Y-109437143D01*
X103464765Y-109311830D01*
X103452756Y-109277510D01*
X103452755Y-109277509D01*
X103452754Y-109277505D01*
X103452752Y-109277502D01*
X103362781Y-109134315D01*
X103362776Y-109134309D01*
X103311748Y-109083281D01*
X103278263Y-109021958D01*
X103283247Y-108952266D01*
X103308140Y-108913535D01*
X103307636Y-108913134D01*
X103311564Y-108908208D01*
X103311754Y-108907912D01*
X103311977Y-108907690D01*
X103384421Y-108792397D01*
X108621051Y-108792397D01*
X108621051Y-108792402D01*
X108639985Y-108960456D01*
X108695845Y-109120094D01*
X108695847Y-109120097D01*
X108785818Y-109263284D01*
X108785823Y-109263290D01*
X108905409Y-109382876D01*
X108905415Y-109382881D01*
X109048602Y-109472852D01*
X109048605Y-109472854D01*
X109048609Y-109472855D01*
X109048610Y-109472856D01*
X109121213Y-109498260D01*
X109208243Y-109528714D01*
X109376297Y-109547649D01*
X109376300Y-109547649D01*
X109376303Y-109547649D01*
X109544356Y-109528714D01*
X109558817Y-109523654D01*
X109703990Y-109472856D01*
X109703992Y-109472854D01*
X109703994Y-109472854D01*
X109703997Y-109472852D01*
X109847184Y-109382881D01*
X109847185Y-109382880D01*
X109847190Y-109382877D01*
X109966777Y-109263290D01*
X110047822Y-109134309D01*
X110056752Y-109120097D01*
X110056754Y-109120094D01*
X110056754Y-109120092D01*
X110056756Y-109120090D01*
X110112613Y-108960459D01*
X110112613Y-108960458D01*
X110112614Y-108960456D01*
X110125826Y-108843197D01*
X112939051Y-108843197D01*
X112939051Y-108843202D01*
X112957985Y-109011256D01*
X113013845Y-109170894D01*
X113013847Y-109170897D01*
X113103818Y-109314084D01*
X113103823Y-109314090D01*
X113223409Y-109433676D01*
X113223415Y-109433681D01*
X113366602Y-109523652D01*
X113366605Y-109523654D01*
X113366609Y-109523655D01*
X113366610Y-109523656D01*
X113435178Y-109547649D01*
X113526243Y-109579514D01*
X113694297Y-109598449D01*
X113694300Y-109598449D01*
X113694303Y-109598449D01*
X113862356Y-109579514D01*
X113862359Y-109579513D01*
X114021990Y-109523656D01*
X114021992Y-109523654D01*
X114021994Y-109523654D01*
X114021997Y-109523652D01*
X114165184Y-109433681D01*
X114165185Y-109433680D01*
X114165190Y-109433677D01*
X114284777Y-109314090D01*
X114286196Y-109311832D01*
X114374752Y-109170897D01*
X114374754Y-109170894D01*
X114374754Y-109170892D01*
X114374756Y-109170890D01*
X114430613Y-109011259D01*
X114430613Y-109011258D01*
X114430614Y-109011256D01*
X114449549Y-108843202D01*
X114449549Y-108843197D01*
X114430614Y-108675143D01*
X114374754Y-108515505D01*
X114374752Y-108515502D01*
X114284781Y-108372315D01*
X114284776Y-108372309D01*
X114210576Y-108298109D01*
X114177091Y-108236786D01*
X114182075Y-108167094D01*
X114223947Y-108111161D01*
X114289411Y-108086744D01*
X114339212Y-108093387D01*
X114436739Y-108127513D01*
X114604797Y-108146449D01*
X114604800Y-108146449D01*
X114604803Y-108146449D01*
X114772856Y-108127514D01*
X114785076Y-108123238D01*
X114932490Y-108071656D01*
X114932492Y-108071654D01*
X114932494Y-108071654D01*
X114932497Y-108071652D01*
X115075684Y-107981681D01*
X115075685Y-107981680D01*
X115075690Y-107981677D01*
X115195277Y-107862090D01*
X115205184Y-107846323D01*
X115285252Y-107718897D01*
X115285254Y-107718894D01*
X115285254Y-107718892D01*
X115285256Y-107718890D01*
X115341113Y-107559259D01*
X115341113Y-107559258D01*
X115341114Y-107559256D01*
X115360049Y-107391202D01*
X115360049Y-107391197D01*
X115341114Y-107223143D01*
X115285254Y-107063505D01*
X115285252Y-107063502D01*
X115195281Y-106920315D01*
X115195276Y-106920309D01*
X115075690Y-106800723D01*
X115075684Y-106800718D01*
X114932497Y-106710747D01*
X114932494Y-106710745D01*
X114772856Y-106654885D01*
X114604803Y-106635951D01*
X114604797Y-106635951D01*
X114436743Y-106654885D01*
X114277105Y-106710745D01*
X114277102Y-106710747D01*
X114133915Y-106800718D01*
X114133909Y-106800723D01*
X114014323Y-106920309D01*
X114014318Y-106920315D01*
X113924347Y-107063502D01*
X113924345Y-107063505D01*
X113868485Y-107223143D01*
X113849551Y-107391197D01*
X113849551Y-107391202D01*
X113868485Y-107559256D01*
X113924345Y-107718894D01*
X113924347Y-107718897D01*
X114014318Y-107862084D01*
X114014323Y-107862090D01*
X114088523Y-107936290D01*
X114122008Y-107997613D01*
X114117024Y-108067305D01*
X114075152Y-108123238D01*
X114009688Y-108147655D01*
X113959888Y-108141013D01*
X113862357Y-108106886D01*
X113694303Y-108087951D01*
X113694297Y-108087951D01*
X113526243Y-108106885D01*
X113366605Y-108162745D01*
X113366602Y-108162747D01*
X113223415Y-108252718D01*
X113223409Y-108252723D01*
X113103823Y-108372309D01*
X113103818Y-108372315D01*
X113013847Y-108515502D01*
X113013845Y-108515505D01*
X112957985Y-108675143D01*
X112939051Y-108843197D01*
X110125826Y-108843197D01*
X110131549Y-108792402D01*
X110131549Y-108792397D01*
X110112614Y-108624343D01*
X110074529Y-108515502D01*
X110056756Y-108464710D01*
X110056755Y-108464709D01*
X110056754Y-108464705D01*
X110056752Y-108464702D01*
X109966781Y-108321515D01*
X109966776Y-108321509D01*
X109847190Y-108201923D01*
X109847184Y-108201918D01*
X109703997Y-108111947D01*
X109703994Y-108111945D01*
X109544356Y-108056085D01*
X109376303Y-108037151D01*
X109376297Y-108037151D01*
X109208243Y-108056085D01*
X109048605Y-108111945D01*
X109048602Y-108111947D01*
X108905415Y-108201918D01*
X108905409Y-108201923D01*
X108785823Y-108321509D01*
X108785818Y-108321515D01*
X108695847Y-108464702D01*
X108695845Y-108464705D01*
X108639985Y-108624343D01*
X108621051Y-108792397D01*
X103384421Y-108792397D01*
X103401956Y-108764490D01*
X103457813Y-108604859D01*
X103457813Y-108604858D01*
X103457814Y-108604856D01*
X103476749Y-108436802D01*
X103476749Y-108436797D01*
X103457814Y-108268743D01*
X103408395Y-108127513D01*
X103401956Y-108109110D01*
X103401955Y-108109109D01*
X103401954Y-108109105D01*
X103401952Y-108109102D01*
X103311981Y-107965915D01*
X103311976Y-107965909D01*
X103192390Y-107846323D01*
X103192384Y-107846318D01*
X103049197Y-107756347D01*
X103049194Y-107756345D01*
X102889556Y-107700485D01*
X102721503Y-107681551D01*
X102721497Y-107681551D01*
X102553443Y-107700485D01*
X102393805Y-107756345D01*
X102393802Y-107756347D01*
X102250615Y-107846318D01*
X102250609Y-107846323D01*
X102131023Y-107965909D01*
X102131018Y-107965915D01*
X102041047Y-108109102D01*
X102041045Y-108109105D01*
X101985185Y-108268743D01*
X101966251Y-108436797D01*
X100399811Y-108436797D01*
X100397909Y-107547796D01*
X103947935Y-107547796D01*
X103947935Y-107547803D01*
X103968130Y-107727049D01*
X103968131Y-107727054D01*
X104027711Y-107897323D01*
X104080714Y-107981676D01*
X104123684Y-108050062D01*
X104251238Y-108177616D01*
X104341580Y-108234382D01*
X104396265Y-108268743D01*
X104403978Y-108273589D01*
X104540943Y-108321515D01*
X104574245Y-108333168D01*
X104574250Y-108333169D01*
X104753496Y-108353365D01*
X104753500Y-108353365D01*
X104753504Y-108353365D01*
X104932749Y-108333169D01*
X104932752Y-108333168D01*
X104932755Y-108333168D01*
X105103022Y-108273589D01*
X105255762Y-108177616D01*
X105383316Y-108050062D01*
X105479289Y-107897322D01*
X105538868Y-107727055D01*
X105538869Y-107727049D01*
X105559065Y-107547803D01*
X105559065Y-107547796D01*
X105538869Y-107368550D01*
X105538868Y-107368545D01*
X105490692Y-107230866D01*
X105479289Y-107198278D01*
X105383316Y-107045538D01*
X105255762Y-106917984D01*
X105103023Y-106822011D01*
X104932754Y-106762431D01*
X104932749Y-106762430D01*
X104753504Y-106742235D01*
X104753496Y-106742235D01*
X104574250Y-106762430D01*
X104574245Y-106762431D01*
X104403976Y-106822011D01*
X104251237Y-106917984D01*
X104123684Y-107045537D01*
X104027711Y-107198276D01*
X103968131Y-107368545D01*
X103968130Y-107368550D01*
X103947935Y-107547796D01*
X100397909Y-107547796D01*
X100394729Y-106061819D01*
X118130061Y-106061819D01*
X118130061Y-106061820D01*
X118149101Y-106218638D01*
X118195555Y-106341124D01*
X118205119Y-106366343D01*
X118294856Y-106496350D01*
X118413099Y-106601103D01*
X118413101Y-106601104D01*
X118552973Y-106674516D01*
X118706353Y-106712320D01*
X118706354Y-106712320D01*
X118864324Y-106712320D01*
X119017704Y-106674516D01*
X119055107Y-106654885D01*
X119157579Y-106601103D01*
X119275822Y-106496350D01*
X119365559Y-106366343D01*
X119421576Y-106218638D01*
X119440617Y-106061820D01*
X119431306Y-105985132D01*
X119421576Y-105905001D01*
X119388922Y-105818900D01*
X119368707Y-105765597D01*
X121215551Y-105765597D01*
X121215551Y-105765602D01*
X121234485Y-105933656D01*
X121290345Y-106093294D01*
X121290347Y-106093297D01*
X121380318Y-106236484D01*
X121380323Y-106236490D01*
X121499909Y-106356076D01*
X121499915Y-106356081D01*
X121643102Y-106446052D01*
X121643105Y-106446054D01*
X121643109Y-106446055D01*
X121643110Y-106446056D01*
X121715713Y-106471460D01*
X121802743Y-106501914D01*
X121970797Y-106520849D01*
X121970800Y-106520849D01*
X121970803Y-106520849D01*
X122138856Y-106501914D01*
X122191969Y-106483329D01*
X122298490Y-106446056D01*
X122298492Y-106446054D01*
X122298494Y-106446054D01*
X122298497Y-106446052D01*
X122441684Y-106356081D01*
X122441685Y-106356080D01*
X122441690Y-106356077D01*
X122561277Y-106236490D01*
X122572494Y-106218638D01*
X122651252Y-106093297D01*
X122651254Y-106093294D01*
X122651254Y-106093292D01*
X122651256Y-106093290D01*
X122707113Y-105933659D01*
X122707113Y-105933658D01*
X122707114Y-105933656D01*
X122726049Y-105765602D01*
X122726049Y-105765597D01*
X122707114Y-105597543D01*
X122655180Y-105449124D01*
X122651256Y-105437910D01*
X122651255Y-105437909D01*
X122651254Y-105437905D01*
X122651252Y-105437902D01*
X122561281Y-105294715D01*
X122561276Y-105294709D01*
X122441690Y-105175123D01*
X122441684Y-105175118D01*
X122298497Y-105085147D01*
X122298494Y-105085145D01*
X122138856Y-105029285D01*
X121970803Y-105010351D01*
X121970797Y-105010351D01*
X121802743Y-105029285D01*
X121643105Y-105085145D01*
X121643102Y-105085147D01*
X121499915Y-105175118D01*
X121499909Y-105175123D01*
X121380323Y-105294709D01*
X121380318Y-105294715D01*
X121290347Y-105437902D01*
X121290345Y-105437905D01*
X121234485Y-105597543D01*
X121215551Y-105765597D01*
X119368707Y-105765597D01*
X119365559Y-105757297D01*
X119275822Y-105627290D01*
X119157579Y-105522537D01*
X119157577Y-105522536D01*
X119157576Y-105522535D01*
X119017704Y-105449123D01*
X118864325Y-105411320D01*
X118864324Y-105411320D01*
X118706354Y-105411320D01*
X118706353Y-105411320D01*
X118552973Y-105449123D01*
X118413101Y-105522535D01*
X118294855Y-105627291D01*
X118205120Y-105757295D01*
X118205119Y-105757296D01*
X118149101Y-105905001D01*
X118130061Y-106061819D01*
X100394729Y-106061819D01*
X100384700Y-101375600D01*
X100384699Y-101375599D01*
X99949994Y-101085796D01*
X103662935Y-101085796D01*
X103662935Y-101085803D01*
X103683130Y-101265049D01*
X103683131Y-101265054D01*
X103742711Y-101435323D01*
X103838684Y-101588062D01*
X103966238Y-101715616D01*
X104118978Y-101811589D01*
X104289245Y-101871168D01*
X104289250Y-101871169D01*
X104468496Y-101891365D01*
X104468500Y-101891365D01*
X104468504Y-101891365D01*
X104647749Y-101871169D01*
X104647752Y-101871168D01*
X104647755Y-101871168D01*
X104818022Y-101811589D01*
X104970762Y-101715616D01*
X105098316Y-101588062D01*
X105194289Y-101435322D01*
X105253868Y-101265055D01*
X105274065Y-101085800D01*
X105274065Y-101085796D01*
X107662935Y-101085796D01*
X107662935Y-101085803D01*
X107683130Y-101265049D01*
X107683131Y-101265054D01*
X107742711Y-101435323D01*
X107838684Y-101588062D01*
X107966238Y-101715616D01*
X108118978Y-101811589D01*
X108289245Y-101871168D01*
X108289250Y-101871169D01*
X108468496Y-101891365D01*
X108468500Y-101891365D01*
X108468504Y-101891365D01*
X108647749Y-101871169D01*
X108647752Y-101871168D01*
X108647755Y-101871168D01*
X108818022Y-101811589D01*
X108970762Y-101715616D01*
X109098316Y-101588062D01*
X109194289Y-101435322D01*
X109253868Y-101265055D01*
X109274065Y-101085800D01*
X109274065Y-101085796D01*
X111662935Y-101085796D01*
X111662935Y-101085803D01*
X111683130Y-101265049D01*
X111683131Y-101265054D01*
X111742711Y-101435323D01*
X111838684Y-101588062D01*
X111966238Y-101715616D01*
X112118978Y-101811589D01*
X112289245Y-101871168D01*
X112289250Y-101871169D01*
X112468496Y-101891365D01*
X112468500Y-101891365D01*
X112468504Y-101891365D01*
X112647749Y-101871169D01*
X112647752Y-101871168D01*
X112647755Y-101871168D01*
X112818022Y-101811589D01*
X112970762Y-101715616D01*
X113098316Y-101588062D01*
X113194289Y-101435322D01*
X113253868Y-101265055D01*
X113274065Y-101085800D01*
X113274065Y-101085796D01*
X115662935Y-101085796D01*
X115662935Y-101085803D01*
X115683130Y-101265049D01*
X115683131Y-101265054D01*
X115742711Y-101435323D01*
X115838684Y-101588062D01*
X115966238Y-101715616D01*
X116118978Y-101811589D01*
X116289245Y-101871168D01*
X116289250Y-101871169D01*
X116468496Y-101891365D01*
X116468500Y-101891365D01*
X116468504Y-101891365D01*
X116647749Y-101871169D01*
X116647752Y-101871168D01*
X116647755Y-101871168D01*
X116818022Y-101811589D01*
X116970762Y-101715616D01*
X117098316Y-101588062D01*
X117194289Y-101435322D01*
X117253868Y-101265055D01*
X117274065Y-101085800D01*
X117265487Y-101009668D01*
X117253869Y-100906550D01*
X117253868Y-100906545D01*
X117194288Y-100736276D01*
X117098315Y-100583537D01*
X116970762Y-100455984D01*
X116818023Y-100360011D01*
X116647754Y-100300431D01*
X116647749Y-100300430D01*
X116468504Y-100280235D01*
X116468496Y-100280235D01*
X116289250Y-100300430D01*
X116289245Y-100300431D01*
X116118976Y-100360011D01*
X115966237Y-100455984D01*
X115838684Y-100583537D01*
X115742711Y-100736276D01*
X115683131Y-100906545D01*
X115683130Y-100906550D01*
X115662935Y-101085796D01*
X113274065Y-101085796D01*
X113265487Y-101009668D01*
X113253869Y-100906550D01*
X113253868Y-100906545D01*
X113194288Y-100736276D01*
X113098315Y-100583537D01*
X112970762Y-100455984D01*
X112818023Y-100360011D01*
X112647754Y-100300431D01*
X112647749Y-100300430D01*
X112468504Y-100280235D01*
X112468496Y-100280235D01*
X112289250Y-100300430D01*
X112289245Y-100300431D01*
X112118976Y-100360011D01*
X111966237Y-100455984D01*
X111838684Y-100583537D01*
X111742711Y-100736276D01*
X111683131Y-100906545D01*
X111683130Y-100906550D01*
X111662935Y-101085796D01*
X109274065Y-101085796D01*
X109265487Y-101009668D01*
X109253869Y-100906550D01*
X109253868Y-100906545D01*
X109194288Y-100736276D01*
X109098315Y-100583537D01*
X108970762Y-100455984D01*
X108818023Y-100360011D01*
X108647754Y-100300431D01*
X108647749Y-100300430D01*
X108468504Y-100280235D01*
X108468496Y-100280235D01*
X108289250Y-100300430D01*
X108289245Y-100300431D01*
X108118976Y-100360011D01*
X107966237Y-100455984D01*
X107838684Y-100583537D01*
X107742711Y-100736276D01*
X107683131Y-100906545D01*
X107683130Y-100906550D01*
X107662935Y-101085796D01*
X105274065Y-101085796D01*
X105265487Y-101009668D01*
X105253869Y-100906550D01*
X105253868Y-100906545D01*
X105194288Y-100736276D01*
X105098315Y-100583537D01*
X104970762Y-100455984D01*
X104818023Y-100360011D01*
X104647754Y-100300431D01*
X104647749Y-100300430D01*
X104468504Y-100280235D01*
X104468496Y-100280235D01*
X104289250Y-100300430D01*
X104289245Y-100300431D01*
X104118976Y-100360011D01*
X103966237Y-100455984D01*
X103838684Y-100583537D01*
X103742711Y-100736276D01*
X103683131Y-100906545D01*
X103683130Y-100906550D01*
X103662935Y-101085796D01*
X99949994Y-101085796D01*
X98022500Y-99800800D01*
X95910400Y-99822000D01*
X93268800Y-102260400D01*
X93268800Y-102260401D01*
X93268800Y-103311749D01*
X93249115Y-103378788D01*
X93238515Y-103392949D01*
X93218835Y-103415661D01*
X93218831Y-103415667D01*
X93159063Y-103546537D01*
X93139376Y-103613582D01*
X93118900Y-103756001D01*
X93118900Y-105638405D01*
X93099215Y-105705444D01*
X93046411Y-105751199D01*
X92993458Y-105762397D01*
X89022242Y-105716221D01*
X88955436Y-105695758D01*
X88910298Y-105642426D01*
X88899684Y-105592549D01*
X88899503Y-105522535D01*
X88893179Y-103073196D01*
X89212035Y-103073196D01*
X89212035Y-103073203D01*
X89232230Y-103252449D01*
X89232231Y-103252454D01*
X89291811Y-103422723D01*
X89369609Y-103546537D01*
X89387784Y-103575462D01*
X89515338Y-103703016D01*
X89668078Y-103798989D01*
X89838345Y-103858568D01*
X89838350Y-103858569D01*
X90017596Y-103878765D01*
X90017600Y-103878765D01*
X90017604Y-103878765D01*
X90196849Y-103858569D01*
X90196852Y-103858568D01*
X90196855Y-103858568D01*
X90367122Y-103798989D01*
X90519862Y-103703016D01*
X90647416Y-103575462D01*
X90743389Y-103422722D01*
X90802968Y-103252455D01*
X90810750Y-103183387D01*
X90823165Y-103073203D01*
X90823165Y-103073196D01*
X90802969Y-102893950D01*
X90802968Y-102893945D01*
X90743389Y-102723678D01*
X90647416Y-102570938D01*
X90519862Y-102443384D01*
X90367123Y-102347411D01*
X90196854Y-102287831D01*
X90196849Y-102287830D01*
X90017604Y-102267635D01*
X90017596Y-102267635D01*
X89838350Y-102287830D01*
X89838345Y-102287831D01*
X89668076Y-102347411D01*
X89515337Y-102443384D01*
X89387784Y-102570937D01*
X89291811Y-102723676D01*
X89232231Y-102893945D01*
X89232230Y-102893950D01*
X89212035Y-103073196D01*
X88893179Y-103073196D01*
X88878821Y-97512120D01*
X88898333Y-97445030D01*
X88951018Y-97399139D01*
X89002821Y-97387800D01*
X95228500Y-97387800D01*
X95961200Y-96621600D01*
X95961200Y-94249996D01*
X96944435Y-94249996D01*
X96944435Y-94250003D01*
X96964630Y-94429249D01*
X96964631Y-94429254D01*
X97024211Y-94599523D01*
X97071977Y-94675541D01*
X97120184Y-94752262D01*
X97247738Y-94879816D01*
X97400478Y-94975789D01*
X97502989Y-95011659D01*
X97570745Y-95035368D01*
X97570750Y-95035369D01*
X97749996Y-95055565D01*
X97750000Y-95055565D01*
X97750004Y-95055565D01*
X97929249Y-95035369D01*
X97929252Y-95035368D01*
X97929255Y-95035368D01*
X98099522Y-94975789D01*
X98252262Y-94879816D01*
X98379816Y-94752262D01*
X98475789Y-94599522D01*
X98535368Y-94429255D01*
X98555565Y-94250000D01*
X98539485Y-94107287D01*
X98535369Y-94070750D01*
X98535368Y-94070745D01*
X98475788Y-93900476D01*
X98379815Y-93747737D01*
X98252262Y-93620184D01*
X98099523Y-93524211D01*
X97929254Y-93464631D01*
X97929249Y-93464630D01*
X97750004Y-93444435D01*
X97749996Y-93444435D01*
X97570750Y-93464630D01*
X97570745Y-93464631D01*
X97400476Y-93524211D01*
X97247737Y-93620184D01*
X97120184Y-93747737D01*
X97024211Y-93900476D01*
X96964631Y-94070745D01*
X96964630Y-94070750D01*
X96944435Y-94249996D01*
X95961200Y-94249996D01*
X95961200Y-84962275D01*
X95980885Y-84895236D01*
X96033689Y-84849481D01*
X96087451Y-84838295D01*
X98633455Y-84884586D01*
G37*
G04 #@! TD.AperFunction*
G04 #@! TA.AperFunction,Conductor*
G36*
X80414852Y-104678908D02*
G01*
X80460607Y-104731712D01*
X80471721Y-104778457D01*
X80517934Y-105980018D01*
X80517934Y-105980020D01*
X80670334Y-106335623D01*
X80693773Y-106335759D01*
X84233124Y-106356336D01*
X84300046Y-106376410D01*
X84345493Y-106429479D01*
X84355034Y-106498694D01*
X84337396Y-106546305D01*
X84313411Y-106584477D01*
X84253831Y-106754745D01*
X84253830Y-106754750D01*
X84233635Y-106933996D01*
X84233635Y-106934003D01*
X84253830Y-107113249D01*
X84253831Y-107113254D01*
X84313411Y-107283523D01*
X84409384Y-107436262D01*
X84536938Y-107563816D01*
X84689678Y-107659789D01*
X84859945Y-107719368D01*
X84859950Y-107719369D01*
X85039196Y-107739565D01*
X85039200Y-107739565D01*
X85039204Y-107739565D01*
X85218449Y-107719369D01*
X85218452Y-107719368D01*
X85218455Y-107719368D01*
X85388722Y-107659789D01*
X85541462Y-107563816D01*
X85669016Y-107436262D01*
X85764989Y-107283522D01*
X85824568Y-107113255D01*
X85844765Y-106934000D01*
X85824568Y-106754745D01*
X85764989Y-106584478D01*
X85746920Y-106555721D01*
X85727920Y-106488484D01*
X85748288Y-106421649D01*
X85801556Y-106376435D01*
X85852627Y-106365752D01*
X86106000Y-106367225D01*
X86106000Y-108102400D01*
X89407935Y-108102400D01*
X89382231Y-108128104D01*
X89320908Y-108161589D01*
X89294550Y-108164423D01*
X82702335Y-108164423D01*
X82752446Y-117234538D01*
X82733132Y-117301685D01*
X82680582Y-117347731D01*
X82628448Y-117359223D01*
X79981535Y-117359223D01*
X79914496Y-117339538D01*
X79868741Y-117286734D01*
X79857535Y-117235223D01*
X79857535Y-108824822D01*
X79261026Y-107631804D01*
X79247935Y-107576350D01*
X79247935Y-104783223D01*
X79267620Y-104716184D01*
X79320424Y-104670429D01*
X79371935Y-104659223D01*
X80347813Y-104659223D01*
X80414852Y-104678908D01*
G37*
G04 #@! TD.AperFunction*
M02*
