M48
; DRILL file {KiCad 8.0.7} date 2025-07-06T21:47:01+0200
; FORMAT={-:-/ absolute / metric / decimal}
; #@! TF.CreationDate,2025-07-06T21:47:01+02:00
; #@! TF.GenerationSoftware,Kicad,Pcbnew,8.0.7
; #@! TF.FileFunction,Plated,1,4,PTH
FMAT,2
METRIC
; #@! TA.AperFunction,Plated,PTH,ViaDrill
T1C0.300
; #@! TA.AperFunction,Plated,PTH,ComponentDrill
T2C0.300
; #@! TA.AperFunction,Plated,PTH,ComponentDrill
T3C1.200
%
G90
G05
T1
X79.146Y-98.704
X80.01Y-107.188
X80.264Y-112.42
X80.721Y-86.652
X81.432Y-118.262
X81.892Y-116.82
X84.277Y-98.196
X85.039Y-106.934
X86.647Y-88.079
X86.665Y-107.696
X87.024Y-106.862
X87.173Y-114.063
X87.202Y-113.263
X88.036Y-104.953
X88.189Y-86.665
X89.56Y-98.146
X89.611Y-99.314
X90.018Y-103.073
X90.526Y-81.331
X91.288Y-104.14
X92.812Y-111.912
X93.25Y-81.25
X95.043Y-98.556
X96.114Y-110.439
X96.117Y-107.421
X96.117Y-109.453
X97.75Y-94.25
X98.146Y-90.576
X98.908Y-89.611
X99.826Y-122.407
X101.299Y-122.407
X101.888Y-87.173
X102.565Y-118.516
X102.721Y-108.437
X102.772Y-109.605
X104.753Y-107.548
X105.918Y-111.1
X106.172Y-118.516
X109.376Y-108.792
X109.376Y-110.012
X112.979Y-122.58
X113.694Y-108.843
X114.605Y-107.391
X116.803Y-110.012
X116.942Y-117.847
X117.196Y-107.391
X117.911Y-115.092
X118.724Y-110.097
X118.785Y-106.062
X120.095Y-118.775
X120.146Y-122.559
X120.247Y-90.25
X120.294Y-94.844
X120.374Y-88.498
X121.615Y-112.107
X121.971Y-105.766
X122.276Y-114.249
X122.428Y-120.752
X122.58Y-102.972
X123.088Y-110.541
X123.749Y-117.145
X123.795Y-113.233
X124.714Y-115.824
X125.835Y-114.025
T2
X88.895Y-113.263
X89.894Y-112.063
X89.894Y-113.263
X89.894Y-114.463
X90.895Y-113.263
X104.468Y-88.586
X104.468Y-92.586
X104.468Y-96.586
X104.468Y-101.086
X108.468Y-88.586
X108.468Y-92.586
X108.468Y-96.586
X108.468Y-101.086
X112.468Y-88.586
X112.468Y-92.586
X112.468Y-96.586
X112.468Y-101.086
X116.468Y-88.586
X116.468Y-92.586
X116.468Y-96.586
X116.468Y-101.086
T3
X104.016Y-126.798
X107.516Y-126.798
X124.438Y-87.101
X124.438Y-90.601
X124.438Y-94.101
X124.438Y-98.404
X124.438Y-101.904
M30
