G04 #@! TF.GenerationSoftware,KiCad,Pcbnew,8.0.7*
G04 #@! TF.CreationDate,2025-07-06T21:45:57+02:00*
G04 #@! TF.ProjectId,modbus-to-x,6d6f6462-7573-42d7-946f-2d782e6b6963,rev?*
G04 #@! TF.SameCoordinates,Original*
G04 #@! TF.FileFunction,Copper,L3,Inr*
G04 #@! TF.FilePolarity,Positive*
%FSLAX46Y46*%
G04 Gerber Fmt 4.6, Leading zero omitted, Abs format (unit mm)*
G04 Created by KiCad (PCBNEW 8.0.7) date 2025-07-06 21:45:57*
%MOMM*%
%LPD*%
G01*
G04 APERTURE LIST*
G04 #@! TA.AperFunction,ComponentPad*
%ADD10C,0.600000*%
G04 #@! TD*
G04 #@! TA.AperFunction,ComponentPad*
%ADD11R,2.032000X2.032000*%
G04 #@! TD*
G04 #@! TA.AperFunction,ComponentPad*
%ADD12C,2.032000*%
G04 #@! TD*
G04 #@! TA.AperFunction,ComponentPad*
%ADD13C,0.499999*%
G04 #@! TD*
G04 #@! TA.AperFunction,ComponentPad*
%ADD14R,2.413000X2.413000*%
G04 #@! TD*
G04 #@! TA.AperFunction,ComponentPad*
%ADD15C,2.413000*%
G04 #@! TD*
G04 #@! TA.AperFunction,ViaPad*
%ADD16C,0.600000*%
G04 #@! TD*
G04 #@! TA.AperFunction,ViaPad*
%ADD17C,0.500000*%
G04 #@! TD*
G04 APERTURE END LIST*
D10*
X104468500Y-88585800D03*
X104468500Y-92585800D03*
X104468500Y-96585800D03*
X104468500Y-101085800D03*
X108468500Y-88585800D03*
X108468500Y-92585800D03*
X108468500Y-96585800D03*
X108468500Y-101085800D03*
X112468500Y-88585800D03*
X112468500Y-92585800D03*
X112468500Y-96585800D03*
X112468500Y-101085800D03*
X116468500Y-88585800D03*
X116468500Y-92585800D03*
X116468500Y-96585800D03*
X116468500Y-101085800D03*
D11*
X104015600Y-126798400D03*
D12*
X107515600Y-126798400D03*
D11*
X124438500Y-98403800D03*
D12*
X124438500Y-101903800D03*
D13*
X90894501Y-113262800D03*
X89894500Y-114462800D03*
X89894500Y-113262800D03*
X89894500Y-112062800D03*
X88894502Y-113262800D03*
D14*
X124438500Y-87100800D03*
D15*
X124438500Y-90600800D03*
X124438500Y-94100800D03*
D16*
X86664800Y-107696000D03*
X80264000Y-112420400D03*
X96117500Y-107420800D03*
D17*
X87024300Y-106862000D03*
X81892500Y-116819800D03*
X80010000Y-107188000D03*
D16*
X101887600Y-87172700D03*
X112979200Y-122580400D03*
D17*
X81432400Y-118262400D03*
D16*
X99825900Y-122406800D03*
X93250000Y-81250000D03*
D17*
X113694300Y-108843200D03*
D16*
X88188800Y-86664800D03*
X80721200Y-86652500D03*
D17*
X120095100Y-118774600D03*
X102772300Y-109605200D03*
D16*
X96117500Y-109452800D03*
D17*
X121615200Y-112106700D03*
D16*
X90525600Y-81330800D03*
X125835500Y-114024800D03*
X120374500Y-88497800D03*
X87172800Y-114062801D03*
X104753500Y-107547800D03*
X90017600Y-103073200D03*
X97750000Y-94250000D03*
D17*
X102721500Y-108436800D03*
D16*
X79146400Y-98704400D03*
D17*
X109376300Y-108792400D03*
X84277200Y-98196400D03*
D16*
X86647500Y-88078800D03*
X91287600Y-104140000D03*
X122580400Y-102971600D03*
X101299100Y-122406800D03*
X89560400Y-98145600D03*
D17*
X109376300Y-110011600D03*
X117195600Y-107391200D03*
X120145900Y-122559200D03*
X117910700Y-115091600D03*
D16*
X95043000Y-98555800D03*
X116941600Y-117847400D03*
X98907600Y-89611200D03*
X102565200Y-118516400D03*
X98145600Y-90576400D03*
D17*
X116802900Y-110011600D03*
D16*
X89611200Y-99314000D03*
D17*
X120247500Y-90250400D03*
D16*
X118723500Y-110097200D03*
D17*
X121970800Y-105765600D03*
X120294400Y-94843600D03*
X122275600Y-114249200D03*
X87202400Y-113262800D03*
D16*
X85039200Y-106934000D03*
X88036400Y-104952800D03*
X92811600Y-111912400D03*
X96113600Y-110439200D03*
X106172000Y-118516400D03*
D17*
X122428000Y-120751600D03*
X114604800Y-107391200D03*
D16*
X123088400Y-110540800D03*
X123748800Y-117144800D03*
X123794900Y-113233200D03*
X124714000Y-115824000D03*
G04 #@! TA.AperFunction,Conductor*
G36*
X96693039Y-79519685D02*
G01*
X96738794Y-79572489D01*
X96750000Y-79624000D01*
X96750000Y-80500000D01*
X127790252Y-80500000D01*
X127857291Y-80519685D01*
X127903046Y-80572489D01*
X127914252Y-80624148D01*
X127863747Y-123066222D01*
X127843983Y-123133238D01*
X127791124Y-123178930D01*
X127739821Y-123190074D01*
X120857695Y-123194199D01*
X120790644Y-123174555D01*
X120744858Y-123121778D01*
X120734873Y-123052626D01*
X120752627Y-123004227D01*
X120826356Y-122886890D01*
X120882213Y-122727259D01*
X120882213Y-122727258D01*
X120882214Y-122727256D01*
X120901149Y-122559202D01*
X120901149Y-122559197D01*
X120882214Y-122391143D01*
X120826354Y-122231505D01*
X120826352Y-122231502D01*
X120736381Y-122088315D01*
X120736376Y-122088309D01*
X120616790Y-121968723D01*
X120616784Y-121968718D01*
X120473597Y-121878747D01*
X120473594Y-121878745D01*
X120313956Y-121822885D01*
X120145903Y-121803951D01*
X120145897Y-121803951D01*
X119977843Y-121822885D01*
X119818205Y-121878745D01*
X119818202Y-121878747D01*
X119675015Y-121968718D01*
X119675009Y-121968723D01*
X119555423Y-122088309D01*
X119555418Y-122088315D01*
X119465447Y-122231502D01*
X119465445Y-122231505D01*
X119409585Y-122391143D01*
X119390651Y-122559197D01*
X119390651Y-122559202D01*
X119409585Y-122727256D01*
X119465445Y-122886892D01*
X119539708Y-123005081D01*
X119558708Y-123072318D01*
X119538340Y-123139153D01*
X119485072Y-123184367D01*
X119434788Y-123195053D01*
X101931867Y-123205546D01*
X101864816Y-123185902D01*
X101819030Y-123133125D01*
X101809045Y-123063973D01*
X101838031Y-123000399D01*
X101844085Y-122993892D01*
X101928916Y-122909062D01*
X102024889Y-122756322D01*
X102084468Y-122586055D01*
X102104665Y-122406800D01*
X102084914Y-122231505D01*
X102084469Y-122227550D01*
X102084468Y-122227545D01*
X102035749Y-122088315D01*
X102024889Y-122057278D01*
X101928916Y-121904538D01*
X101801362Y-121776984D01*
X101648623Y-121681011D01*
X101478354Y-121621431D01*
X101478349Y-121621430D01*
X101299104Y-121601235D01*
X101299096Y-121601235D01*
X101119850Y-121621430D01*
X101119845Y-121621431D01*
X100949576Y-121681011D01*
X100796837Y-121776984D01*
X100669284Y-121904537D01*
X100573311Y-122057276D01*
X100513731Y-122227545D01*
X100513730Y-122227550D01*
X100493535Y-122406796D01*
X100493535Y-122406803D01*
X100513730Y-122586049D01*
X100513731Y-122586054D01*
X100573311Y-122756323D01*
X100669284Y-122909062D01*
X100754844Y-122994622D01*
X100788329Y-123055945D01*
X100783345Y-123125637D01*
X100741473Y-123181570D01*
X100676009Y-123205987D01*
X100667237Y-123206303D01*
X78614006Y-123219525D01*
X78546955Y-123199881D01*
X78501169Y-123147104D01*
X78489932Y-123095495D01*
X78490551Y-120751597D01*
X121672751Y-120751597D01*
X121672751Y-120751602D01*
X121691685Y-120919656D01*
X121747545Y-121079294D01*
X121747547Y-121079297D01*
X121837518Y-121222484D01*
X121837523Y-121222490D01*
X121957109Y-121342076D01*
X121957115Y-121342081D01*
X122100302Y-121432052D01*
X122100305Y-121432054D01*
X122100309Y-121432055D01*
X122100310Y-121432056D01*
X122172913Y-121457460D01*
X122259943Y-121487914D01*
X122427997Y-121506849D01*
X122428000Y-121506849D01*
X122428003Y-121506849D01*
X122596056Y-121487914D01*
X122596059Y-121487913D01*
X122755690Y-121432056D01*
X122755692Y-121432054D01*
X122755694Y-121432054D01*
X122755697Y-121432052D01*
X122898884Y-121342081D01*
X122898885Y-121342080D01*
X122898890Y-121342077D01*
X123018477Y-121222490D01*
X123108452Y-121079297D01*
X123108454Y-121079294D01*
X123108454Y-121079292D01*
X123108456Y-121079290D01*
X123164313Y-120919659D01*
X123164313Y-120919658D01*
X123164314Y-120919656D01*
X123183249Y-120751602D01*
X123183249Y-120751597D01*
X123164314Y-120583543D01*
X123108454Y-120423905D01*
X123108452Y-120423902D01*
X123018481Y-120280715D01*
X123018476Y-120280709D01*
X122898890Y-120161123D01*
X122898884Y-120161118D01*
X122755697Y-120071147D01*
X122755694Y-120071145D01*
X122596056Y-120015285D01*
X122428003Y-119996351D01*
X122427997Y-119996351D01*
X122259943Y-120015285D01*
X122100305Y-120071145D01*
X122100302Y-120071147D01*
X121957115Y-120161118D01*
X121957109Y-120161123D01*
X121837523Y-120280709D01*
X121837518Y-120280715D01*
X121747547Y-120423902D01*
X121747545Y-120423905D01*
X121691685Y-120583543D01*
X121672751Y-120751597D01*
X78490551Y-120751597D01*
X78491142Y-118516396D01*
X101759635Y-118516396D01*
X101759635Y-118516403D01*
X101779830Y-118695649D01*
X101779831Y-118695654D01*
X101839411Y-118865923D01*
X101935384Y-119018662D01*
X102062938Y-119146216D01*
X102215678Y-119242189D01*
X102385945Y-119301768D01*
X102385950Y-119301769D01*
X102565196Y-119321965D01*
X102565200Y-119321965D01*
X102565204Y-119321965D01*
X102744449Y-119301769D01*
X102744452Y-119301768D01*
X102744455Y-119301768D01*
X102914722Y-119242189D01*
X103067462Y-119146216D01*
X103195016Y-119018662D01*
X103290989Y-118865922D01*
X103350568Y-118695655D01*
X103355378Y-118652965D01*
X103370765Y-118516403D01*
X103370765Y-118516396D01*
X105366435Y-118516396D01*
X105366435Y-118516403D01*
X105386630Y-118695649D01*
X105386631Y-118695654D01*
X105446211Y-118865923D01*
X105542184Y-119018662D01*
X105669738Y-119146216D01*
X105822478Y-119242189D01*
X105992745Y-119301768D01*
X105992750Y-119301769D01*
X106171996Y-119321965D01*
X106172000Y-119321965D01*
X106172004Y-119321965D01*
X106351249Y-119301769D01*
X106351252Y-119301768D01*
X106351255Y-119301768D01*
X106521522Y-119242189D01*
X106674262Y-119146216D01*
X106801816Y-119018662D01*
X106897789Y-118865922D01*
X106957368Y-118695655D01*
X106962178Y-118652965D01*
X106977565Y-118516403D01*
X106977565Y-118516396D01*
X106957369Y-118337150D01*
X106957368Y-118337145D01*
X106897788Y-118166876D01*
X106801815Y-118014137D01*
X106674262Y-117886584D01*
X106611895Y-117847396D01*
X116136035Y-117847396D01*
X116136035Y-117847403D01*
X116156230Y-118026649D01*
X116156231Y-118026654D01*
X116215811Y-118196923D01*
X116303919Y-118337145D01*
X116311784Y-118349662D01*
X116439338Y-118477216D01*
X116592078Y-118573189D01*
X116762345Y-118632768D01*
X116762350Y-118632769D01*
X116941596Y-118652965D01*
X116941600Y-118652965D01*
X116941604Y-118652965D01*
X117120849Y-118632769D01*
X117120852Y-118632768D01*
X117120855Y-118632768D01*
X117291122Y-118573189D01*
X117443862Y-118477216D01*
X117571416Y-118349662D01*
X117667389Y-118196922D01*
X117726968Y-118026655D01*
X117726969Y-118026649D01*
X117747165Y-117847403D01*
X117747165Y-117847396D01*
X117726969Y-117668150D01*
X117726968Y-117668145D01*
X117694392Y-117575049D01*
X117667389Y-117497878D01*
X117571416Y-117345138D01*
X117443862Y-117217584D01*
X117328021Y-117144796D01*
X122943235Y-117144796D01*
X122943235Y-117144803D01*
X122963430Y-117324049D01*
X122963431Y-117324054D01*
X123023011Y-117494323D01*
X123073735Y-117575049D01*
X123118984Y-117647062D01*
X123246538Y-117774616D01*
X123271994Y-117790611D01*
X123362366Y-117847396D01*
X123399278Y-117870589D01*
X123569545Y-117930168D01*
X123569550Y-117930169D01*
X123748796Y-117950365D01*
X123748800Y-117950365D01*
X123748804Y-117950365D01*
X123928049Y-117930169D01*
X123928052Y-117930168D01*
X123928055Y-117930168D01*
X124098322Y-117870589D01*
X124251062Y-117774616D01*
X124378616Y-117647062D01*
X124474589Y-117494322D01*
X124534168Y-117324055D01*
X124534169Y-117324049D01*
X124554365Y-117144803D01*
X124554365Y-117144796D01*
X124534169Y-116965550D01*
X124534168Y-116965545D01*
X124483170Y-116819802D01*
X124474589Y-116795278D01*
X124474588Y-116795276D01*
X124473821Y-116793683D01*
X124473634Y-116792549D01*
X124472289Y-116788705D01*
X124472962Y-116788469D01*
X124462465Y-116724743D01*
X124490183Y-116660607D01*
X124548176Y-116621638D01*
X124599420Y-116616655D01*
X124662901Y-116623807D01*
X124713998Y-116629565D01*
X124714000Y-116629565D01*
X124714004Y-116629565D01*
X124893249Y-116609369D01*
X124893252Y-116609368D01*
X124893255Y-116609368D01*
X125063522Y-116549789D01*
X125216262Y-116453816D01*
X125343816Y-116326262D01*
X125439789Y-116173522D01*
X125499368Y-116003255D01*
X125519565Y-115824000D01*
X125513712Y-115772056D01*
X125499369Y-115644750D01*
X125499368Y-115644745D01*
X125470586Y-115562490D01*
X125439789Y-115474478D01*
X125343816Y-115321738D01*
X125216262Y-115194184D01*
X125063523Y-115098211D01*
X124893254Y-115038631D01*
X124893249Y-115038630D01*
X124714004Y-115018435D01*
X124713996Y-115018435D01*
X124534750Y-115038630D01*
X124534745Y-115038631D01*
X124364476Y-115098211D01*
X124211737Y-115194184D01*
X124084184Y-115321737D01*
X123988211Y-115474476D01*
X123928631Y-115644745D01*
X123928630Y-115644750D01*
X123908435Y-115823996D01*
X123908435Y-115824003D01*
X123928630Y-116003249D01*
X123928631Y-116003254D01*
X123988211Y-116173522D01*
X123988981Y-116175121D01*
X123989168Y-116176257D01*
X123990511Y-116180095D01*
X123989838Y-116180330D01*
X124000333Y-116244063D01*
X123972612Y-116308197D01*
X123914617Y-116347163D01*
X123863378Y-116352144D01*
X123748804Y-116339235D01*
X123748796Y-116339235D01*
X123569550Y-116359430D01*
X123569545Y-116359431D01*
X123399276Y-116419011D01*
X123246537Y-116514984D01*
X123118984Y-116642537D01*
X123023011Y-116795276D01*
X122963431Y-116965545D01*
X122963430Y-116965550D01*
X122943235Y-117144796D01*
X117328021Y-117144796D01*
X117291123Y-117121611D01*
X117120854Y-117062031D01*
X117120849Y-117062030D01*
X116941604Y-117041835D01*
X116941596Y-117041835D01*
X116762350Y-117062030D01*
X116762345Y-117062031D01*
X116592076Y-117121611D01*
X116439337Y-117217584D01*
X116311784Y-117345137D01*
X116215811Y-117497876D01*
X116156231Y-117668145D01*
X116156230Y-117668150D01*
X116136035Y-117847396D01*
X106611895Y-117847396D01*
X106521523Y-117790611D01*
X106351254Y-117731031D01*
X106351249Y-117731030D01*
X106172004Y-117710835D01*
X106171996Y-117710835D01*
X105992750Y-117731030D01*
X105992745Y-117731031D01*
X105822476Y-117790611D01*
X105669737Y-117886584D01*
X105542184Y-118014137D01*
X105446211Y-118166876D01*
X105386631Y-118337145D01*
X105386630Y-118337150D01*
X105366435Y-118516396D01*
X103370765Y-118516396D01*
X103350569Y-118337150D01*
X103350568Y-118337145D01*
X103290988Y-118166876D01*
X103195015Y-118014137D01*
X103067462Y-117886584D01*
X102914723Y-117790611D01*
X102744454Y-117731031D01*
X102744449Y-117731030D01*
X102565204Y-117710835D01*
X102565196Y-117710835D01*
X102385950Y-117731030D01*
X102385945Y-117731031D01*
X102215676Y-117790611D01*
X102062937Y-117886584D01*
X101935384Y-118014137D01*
X101839411Y-118166876D01*
X101779831Y-118337145D01*
X101779830Y-118337150D01*
X101759635Y-118516396D01*
X78491142Y-118516396D01*
X78491590Y-116819797D01*
X81137251Y-116819797D01*
X81137251Y-116819802D01*
X81156185Y-116987856D01*
X81212045Y-117147494D01*
X81212047Y-117147497D01*
X81302018Y-117290684D01*
X81302023Y-117290690D01*
X81421609Y-117410276D01*
X81421615Y-117410281D01*
X81564802Y-117500252D01*
X81564805Y-117500254D01*
X81564809Y-117500255D01*
X81564810Y-117500256D01*
X81637413Y-117525660D01*
X81724443Y-117556114D01*
X81892497Y-117575049D01*
X81892500Y-117575049D01*
X81892503Y-117575049D01*
X82060556Y-117556114D01*
X82060559Y-117556113D01*
X82220190Y-117500256D01*
X82220192Y-117500254D01*
X82220194Y-117500254D01*
X82220197Y-117500252D01*
X82363384Y-117410281D01*
X82363385Y-117410280D01*
X82363390Y-117410277D01*
X82482977Y-117290690D01*
X82572952Y-117147497D01*
X82572954Y-117147494D01*
X82572954Y-117147492D01*
X82572956Y-117147490D01*
X82628813Y-116987859D01*
X82628813Y-116987858D01*
X82628814Y-116987856D01*
X82647749Y-116819802D01*
X82647749Y-116819797D01*
X82628814Y-116651743D01*
X82572954Y-116492105D01*
X82572952Y-116492102D01*
X82482981Y-116348915D01*
X82482976Y-116348909D01*
X82363390Y-116229323D01*
X82363384Y-116229318D01*
X82220197Y-116139347D01*
X82220194Y-116139345D01*
X82060556Y-116083485D01*
X81892503Y-116064551D01*
X81892497Y-116064551D01*
X81724443Y-116083485D01*
X81564805Y-116139345D01*
X81564802Y-116139347D01*
X81421615Y-116229318D01*
X81421609Y-116229323D01*
X81302023Y-116348909D01*
X81302018Y-116348915D01*
X81212047Y-116492102D01*
X81212045Y-116492105D01*
X81156185Y-116651743D01*
X81137251Y-116819797D01*
X78491590Y-116819797D01*
X78492047Y-115091597D01*
X117155451Y-115091597D01*
X117155451Y-115091602D01*
X117174385Y-115259656D01*
X117230245Y-115419294D01*
X117230247Y-115419297D01*
X117320218Y-115562484D01*
X117320223Y-115562490D01*
X117439809Y-115682076D01*
X117439815Y-115682081D01*
X117583002Y-115772052D01*
X117583005Y-115772054D01*
X117583009Y-115772055D01*
X117583010Y-115772056D01*
X117655613Y-115797460D01*
X117742643Y-115827914D01*
X117910697Y-115846849D01*
X117910700Y-115846849D01*
X117910703Y-115846849D01*
X118078756Y-115827914D01*
X118089953Y-115823996D01*
X118238390Y-115772056D01*
X118238392Y-115772054D01*
X118238394Y-115772054D01*
X118238397Y-115772052D01*
X118381584Y-115682081D01*
X118381585Y-115682080D01*
X118381590Y-115682077D01*
X118501177Y-115562490D01*
X118591152Y-115419297D01*
X118591154Y-115419294D01*
X118591154Y-115419292D01*
X118591156Y-115419290D01*
X118647013Y-115259659D01*
X118647013Y-115259658D01*
X118647014Y-115259656D01*
X118665949Y-115091602D01*
X118665949Y-115091597D01*
X118647014Y-114923543D01*
X118591154Y-114763905D01*
X118591152Y-114763902D01*
X118501181Y-114620715D01*
X118501176Y-114620709D01*
X118381590Y-114501123D01*
X118381584Y-114501118D01*
X118238397Y-114411147D01*
X118238394Y-114411145D01*
X118078756Y-114355285D01*
X117910703Y-114336351D01*
X117910697Y-114336351D01*
X117742643Y-114355285D01*
X117583005Y-114411145D01*
X117583002Y-114411147D01*
X117439815Y-114501118D01*
X117439809Y-114501123D01*
X117320223Y-114620709D01*
X117320218Y-114620715D01*
X117230247Y-114763902D01*
X117230245Y-114763905D01*
X117174385Y-114923543D01*
X117155451Y-115091597D01*
X78492047Y-115091597D01*
X78492269Y-114249197D01*
X121520351Y-114249197D01*
X121520351Y-114249202D01*
X121539285Y-114417256D01*
X121595145Y-114576894D01*
X121595147Y-114576897D01*
X121685118Y-114720084D01*
X121685123Y-114720090D01*
X121804709Y-114839676D01*
X121804715Y-114839681D01*
X121947902Y-114929652D01*
X121947905Y-114929654D01*
X121947909Y-114929655D01*
X121947910Y-114929656D01*
X122020513Y-114955060D01*
X122107543Y-114985514D01*
X122275597Y-115004449D01*
X122275600Y-115004449D01*
X122275603Y-115004449D01*
X122443656Y-114985514D01*
X122443659Y-114985513D01*
X122603290Y-114929656D01*
X122603292Y-114929654D01*
X122603294Y-114929654D01*
X122603297Y-114929652D01*
X122746484Y-114839681D01*
X122746485Y-114839680D01*
X122746490Y-114839677D01*
X122866077Y-114720090D01*
X122956052Y-114576897D01*
X122956054Y-114576894D01*
X122956054Y-114576892D01*
X122956056Y-114576890D01*
X123011913Y-114417259D01*
X123011913Y-114417258D01*
X123011914Y-114417256D01*
X123030849Y-114249202D01*
X123030849Y-114249197D01*
X123011914Y-114081143D01*
X122963665Y-113943256D01*
X122956056Y-113921510D01*
X122956055Y-113921509D01*
X122956054Y-113921505D01*
X122956052Y-113921502D01*
X122866081Y-113778315D01*
X122866076Y-113778309D01*
X122746490Y-113658723D01*
X122746484Y-113658718D01*
X122603297Y-113568747D01*
X122603294Y-113568745D01*
X122443656Y-113512885D01*
X122275603Y-113493951D01*
X122275597Y-113493951D01*
X122107543Y-113512885D01*
X121947905Y-113568745D01*
X121947902Y-113568747D01*
X121804715Y-113658718D01*
X121804709Y-113658723D01*
X121685123Y-113778309D01*
X121685118Y-113778315D01*
X121595147Y-113921502D01*
X121595145Y-113921505D01*
X121539285Y-114081143D01*
X121520351Y-114249197D01*
X78492269Y-114249197D01*
X78492530Y-113262797D01*
X86447151Y-113262797D01*
X86447151Y-113262802D01*
X86466085Y-113430856D01*
X86521945Y-113590494D01*
X86521947Y-113590497D01*
X86611918Y-113733684D01*
X86611923Y-113733690D01*
X86731509Y-113853276D01*
X86731515Y-113853281D01*
X86874702Y-113943252D01*
X86874705Y-113943254D01*
X86874709Y-113943255D01*
X86874710Y-113943256D01*
X86919670Y-113958988D01*
X87034343Y-113999114D01*
X87202397Y-114018049D01*
X87202400Y-114018049D01*
X87202403Y-114018049D01*
X87370456Y-113999114D01*
X87370459Y-113999113D01*
X87530090Y-113943256D01*
X87530092Y-113943254D01*
X87530094Y-113943254D01*
X87530097Y-113943252D01*
X87673284Y-113853281D01*
X87673285Y-113853280D01*
X87673290Y-113853277D01*
X87792877Y-113733690D01*
X87839982Y-113658723D01*
X87882852Y-113590497D01*
X87882854Y-113590494D01*
X87882854Y-113590492D01*
X87882856Y-113590490D01*
X87938713Y-113430859D01*
X87938713Y-113430858D01*
X87938714Y-113430856D01*
X87957649Y-113262802D01*
X87957649Y-113262797D01*
X87954314Y-113233196D01*
X122989335Y-113233196D01*
X122989335Y-113233203D01*
X123009530Y-113412449D01*
X123009531Y-113412454D01*
X123069111Y-113582723D01*
X123163967Y-113733684D01*
X123165084Y-113735462D01*
X123292638Y-113863016D01*
X123382980Y-113919782D01*
X123420332Y-113943252D01*
X123445378Y-113958989D01*
X123560046Y-113999113D01*
X123615645Y-114018568D01*
X123615650Y-114018569D01*
X123794896Y-114038765D01*
X123794900Y-114038765D01*
X123794904Y-114038765D01*
X123974149Y-114018569D01*
X123974152Y-114018568D01*
X123974155Y-114018568D01*
X124144422Y-113958989D01*
X124297162Y-113863016D01*
X124424716Y-113735462D01*
X124520689Y-113582722D01*
X124580268Y-113412455D01*
X124597130Y-113262800D01*
X124600465Y-113233203D01*
X124600465Y-113233196D01*
X124580269Y-113053950D01*
X124580268Y-113053945D01*
X124520688Y-112883676D01*
X124424715Y-112730937D01*
X124297162Y-112603384D01*
X124144423Y-112507411D01*
X123974154Y-112447831D01*
X123974149Y-112447830D01*
X123794904Y-112427635D01*
X123794896Y-112427635D01*
X123615650Y-112447830D01*
X123615645Y-112447831D01*
X123445376Y-112507411D01*
X123292637Y-112603384D01*
X123165084Y-112730937D01*
X123069111Y-112883676D01*
X123009531Y-113053945D01*
X123009530Y-113053950D01*
X122989335Y-113233196D01*
X87954314Y-113233196D01*
X87938714Y-113094743D01*
X87882854Y-112935105D01*
X87882852Y-112935102D01*
X87792881Y-112791915D01*
X87792876Y-112791909D01*
X87673290Y-112672323D01*
X87673284Y-112672318D01*
X87530097Y-112582347D01*
X87530094Y-112582345D01*
X87370456Y-112526485D01*
X87202403Y-112507551D01*
X87202397Y-112507551D01*
X87034343Y-112526485D01*
X86874705Y-112582345D01*
X86874702Y-112582347D01*
X86731515Y-112672318D01*
X86731509Y-112672323D01*
X86611923Y-112791909D01*
X86611918Y-112791915D01*
X86521947Y-112935102D01*
X86521945Y-112935105D01*
X86466085Y-113094743D01*
X86447151Y-113262797D01*
X78492530Y-113262797D01*
X78492753Y-112420396D01*
X79458435Y-112420396D01*
X79458435Y-112420403D01*
X79478630Y-112599649D01*
X79478631Y-112599654D01*
X79538211Y-112769923D01*
X79552030Y-112791915D01*
X79634184Y-112922662D01*
X79761738Y-113050216D01*
X79914478Y-113146189D01*
X80084745Y-113205768D01*
X80084750Y-113205769D01*
X80263996Y-113225965D01*
X80264000Y-113225965D01*
X80264004Y-113225965D01*
X80443249Y-113205769D01*
X80443252Y-113205768D01*
X80443255Y-113205768D01*
X80613522Y-113146189D01*
X80766262Y-113050216D01*
X80893816Y-112922662D01*
X80989789Y-112769922D01*
X81049368Y-112599655D01*
X81051318Y-112582347D01*
X81069565Y-112420403D01*
X81069565Y-112420396D01*
X81049369Y-112241150D01*
X81049368Y-112241145D01*
X80989788Y-112070876D01*
X80893815Y-111918137D01*
X80888074Y-111912396D01*
X92006035Y-111912396D01*
X92006035Y-111912403D01*
X92026230Y-112091649D01*
X92026231Y-112091654D01*
X92085811Y-112261923D01*
X92181784Y-112414662D01*
X92309338Y-112542216D01*
X92462078Y-112638189D01*
X92632345Y-112697768D01*
X92632350Y-112697769D01*
X92811596Y-112717965D01*
X92811600Y-112717965D01*
X92811604Y-112717965D01*
X92990849Y-112697769D01*
X92990852Y-112697768D01*
X92990855Y-112697768D01*
X93161122Y-112638189D01*
X93313862Y-112542216D01*
X93441416Y-112414662D01*
X93537389Y-112261922D01*
X93596968Y-112091655D01*
X93599309Y-112070878D01*
X93617165Y-111912403D01*
X93617165Y-111912396D01*
X93596969Y-111733150D01*
X93596968Y-111733145D01*
X93583484Y-111694611D01*
X93537389Y-111562878D01*
X93519325Y-111534130D01*
X93441415Y-111410137D01*
X93313862Y-111282584D01*
X93161123Y-111186611D01*
X92990854Y-111127031D01*
X92990849Y-111127030D01*
X92811604Y-111106835D01*
X92811596Y-111106835D01*
X92632350Y-111127030D01*
X92632345Y-111127031D01*
X92462076Y-111186611D01*
X92309337Y-111282584D01*
X92181784Y-111410137D01*
X92085811Y-111562876D01*
X92026231Y-111733145D01*
X92026230Y-111733150D01*
X92006035Y-111912396D01*
X80888074Y-111912396D01*
X80766262Y-111790584D01*
X80613523Y-111694611D01*
X80443254Y-111635031D01*
X80443249Y-111635030D01*
X80264004Y-111614835D01*
X80263996Y-111614835D01*
X80084750Y-111635030D01*
X80084745Y-111635031D01*
X79914476Y-111694611D01*
X79761737Y-111790584D01*
X79634184Y-111918137D01*
X79538211Y-112070876D01*
X79478631Y-112241145D01*
X79478630Y-112241150D01*
X79458435Y-112420396D01*
X78492753Y-112420396D01*
X78493277Y-110439196D01*
X95308035Y-110439196D01*
X95308035Y-110439203D01*
X95328230Y-110618449D01*
X95328231Y-110618454D01*
X95387811Y-110788723D01*
X95451651Y-110890323D01*
X95483784Y-110941462D01*
X95611338Y-111069016D01*
X95764078Y-111164989D01*
X95934345Y-111224568D01*
X95934350Y-111224569D01*
X96113596Y-111244765D01*
X96113600Y-111244765D01*
X96113604Y-111244765D01*
X96292849Y-111224569D01*
X96292852Y-111224568D01*
X96292855Y-111224568D01*
X96463122Y-111164989D01*
X96567189Y-111099599D01*
X105262722Y-111099599D01*
X105262722Y-111099600D01*
X105281762Y-111256418D01*
X105315875Y-111346365D01*
X105337780Y-111404123D01*
X105427517Y-111534130D01*
X105545760Y-111638883D01*
X105545762Y-111638884D01*
X105685634Y-111712296D01*
X105839014Y-111750100D01*
X105839015Y-111750100D01*
X105996985Y-111750100D01*
X106150365Y-111712296D01*
X106290240Y-111638883D01*
X106408483Y-111534130D01*
X106498220Y-111404123D01*
X106554237Y-111256418D01*
X106573278Y-111099600D01*
X106569565Y-111069016D01*
X106554237Y-110942781D01*
X106531401Y-110882568D01*
X106498220Y-110795077D01*
X106408483Y-110665070D01*
X106290240Y-110560317D01*
X106290238Y-110560316D01*
X106290237Y-110560315D01*
X106150365Y-110486903D01*
X105996986Y-110449100D01*
X105996985Y-110449100D01*
X105839015Y-110449100D01*
X105839014Y-110449100D01*
X105685634Y-110486903D01*
X105545762Y-110560315D01*
X105427516Y-110665071D01*
X105337781Y-110795075D01*
X105337780Y-110795076D01*
X105281762Y-110942781D01*
X105262722Y-111099599D01*
X96567189Y-111099599D01*
X96615862Y-111069016D01*
X96743416Y-110941462D01*
X96839389Y-110788722D01*
X96898968Y-110618455D01*
X96900813Y-110602081D01*
X96919165Y-110439203D01*
X96919165Y-110439196D01*
X96898969Y-110259950D01*
X96898968Y-110259945D01*
X96842021Y-110097200D01*
X96839389Y-110089678D01*
X96790327Y-110011597D01*
X108621051Y-110011597D01*
X108621051Y-110011602D01*
X108639985Y-110179656D01*
X108695845Y-110339294D01*
X108695847Y-110339297D01*
X108785818Y-110482484D01*
X108785823Y-110482490D01*
X108905409Y-110602076D01*
X108905415Y-110602081D01*
X109048602Y-110692052D01*
X109048605Y-110692054D01*
X109048609Y-110692055D01*
X109048610Y-110692056D01*
X109121213Y-110717460D01*
X109208243Y-110747914D01*
X109376297Y-110766849D01*
X109376300Y-110766849D01*
X109376303Y-110766849D01*
X109544356Y-110747914D01*
X109544359Y-110747913D01*
X109703990Y-110692056D01*
X109703992Y-110692054D01*
X109703994Y-110692054D01*
X109703997Y-110692052D01*
X109847184Y-110602081D01*
X109847185Y-110602080D01*
X109847190Y-110602077D01*
X109966777Y-110482490D01*
X109966781Y-110482484D01*
X110056752Y-110339297D01*
X110056754Y-110339294D01*
X110056754Y-110339292D01*
X110056756Y-110339290D01*
X110112613Y-110179659D01*
X110112613Y-110179658D01*
X110112614Y-110179656D01*
X110131549Y-110011602D01*
X110131549Y-110011597D01*
X116047651Y-110011597D01*
X116047651Y-110011602D01*
X116066585Y-110179656D01*
X116122445Y-110339294D01*
X116122447Y-110339297D01*
X116212418Y-110482484D01*
X116212423Y-110482490D01*
X116332009Y-110602076D01*
X116332015Y-110602081D01*
X116475202Y-110692052D01*
X116475205Y-110692054D01*
X116475209Y-110692055D01*
X116475210Y-110692056D01*
X116547813Y-110717460D01*
X116634843Y-110747914D01*
X116802897Y-110766849D01*
X116802900Y-110766849D01*
X116802903Y-110766849D01*
X116970956Y-110747914D01*
X116970959Y-110747913D01*
X117130590Y-110692056D01*
X117130592Y-110692054D01*
X117130594Y-110692054D01*
X117130597Y-110692052D01*
X117273784Y-110602081D01*
X117273785Y-110602080D01*
X117273790Y-110602077D01*
X117393377Y-110482490D01*
X117393381Y-110482484D01*
X117483352Y-110339297D01*
X117483354Y-110339294D01*
X117483354Y-110339292D01*
X117483356Y-110339290D01*
X117539213Y-110179659D01*
X117539213Y-110179658D01*
X117539214Y-110179656D01*
X117548505Y-110097196D01*
X117917935Y-110097196D01*
X117917935Y-110097203D01*
X117938130Y-110276449D01*
X117938131Y-110276454D01*
X117997711Y-110446723D01*
X118093684Y-110599462D01*
X118221238Y-110727016D01*
X118373978Y-110822989D01*
X118544245Y-110882568D01*
X118544250Y-110882569D01*
X118723496Y-110902765D01*
X118723500Y-110902765D01*
X118723504Y-110902765D01*
X118902749Y-110882569D01*
X118902752Y-110882568D01*
X118902755Y-110882568D01*
X119073022Y-110822989D01*
X119225762Y-110727016D01*
X119353316Y-110599462D01*
X119390178Y-110540796D01*
X122282835Y-110540796D01*
X122282835Y-110540803D01*
X122303030Y-110720049D01*
X122303031Y-110720054D01*
X122362611Y-110890323D01*
X122458584Y-111043062D01*
X122586138Y-111170616D01*
X122738878Y-111266589D01*
X122909145Y-111326168D01*
X122909150Y-111326169D01*
X123088396Y-111346365D01*
X123088400Y-111346365D01*
X123088404Y-111346365D01*
X123267649Y-111326169D01*
X123267652Y-111326168D01*
X123267655Y-111326168D01*
X123437922Y-111266589D01*
X123590662Y-111170616D01*
X123718216Y-111043062D01*
X123814189Y-110890322D01*
X123873768Y-110720055D01*
X123879963Y-110665071D01*
X123893965Y-110540803D01*
X123893965Y-110540796D01*
X123873769Y-110361550D01*
X123873768Y-110361545D01*
X123843993Y-110276454D01*
X123814189Y-110191278D01*
X123806886Y-110179656D01*
X123718215Y-110038537D01*
X123590662Y-109910984D01*
X123437923Y-109815011D01*
X123267654Y-109755431D01*
X123267649Y-109755430D01*
X123088404Y-109735235D01*
X123088396Y-109735235D01*
X122909150Y-109755430D01*
X122909145Y-109755431D01*
X122738876Y-109815011D01*
X122586137Y-109910984D01*
X122458584Y-110038537D01*
X122362611Y-110191276D01*
X122303031Y-110361545D01*
X122303030Y-110361550D01*
X122282835Y-110540796D01*
X119390178Y-110540796D01*
X119449289Y-110446722D01*
X119508868Y-110276455D01*
X119510728Y-110259950D01*
X119529065Y-110097203D01*
X119529065Y-110097196D01*
X119508869Y-109917950D01*
X119508868Y-109917945D01*
X119506432Y-109910984D01*
X119449289Y-109747678D01*
X119353316Y-109594938D01*
X119225762Y-109467384D01*
X119073023Y-109371411D01*
X118902754Y-109311831D01*
X118902749Y-109311830D01*
X118723504Y-109291635D01*
X118723496Y-109291635D01*
X118544250Y-109311830D01*
X118544245Y-109311831D01*
X118373976Y-109371411D01*
X118221237Y-109467384D01*
X118093684Y-109594937D01*
X117997711Y-109747676D01*
X117938131Y-109917945D01*
X117938130Y-109917950D01*
X117917935Y-110097196D01*
X117548505Y-110097196D01*
X117558149Y-110011602D01*
X117558149Y-110011597D01*
X117539214Y-109843543D01*
X117483354Y-109683905D01*
X117483352Y-109683902D01*
X117393381Y-109540715D01*
X117393376Y-109540709D01*
X117273790Y-109421123D01*
X117273784Y-109421118D01*
X117130597Y-109331147D01*
X117130594Y-109331145D01*
X116970956Y-109275285D01*
X116802903Y-109256351D01*
X116802897Y-109256351D01*
X116634843Y-109275285D01*
X116475205Y-109331145D01*
X116475202Y-109331147D01*
X116332015Y-109421118D01*
X116332009Y-109421123D01*
X116212423Y-109540709D01*
X116212418Y-109540715D01*
X116122447Y-109683902D01*
X116122445Y-109683905D01*
X116066585Y-109843543D01*
X116047651Y-110011597D01*
X110131549Y-110011597D01*
X110112614Y-109843543D01*
X110056754Y-109683905D01*
X110056752Y-109683902D01*
X109966781Y-109540715D01*
X109966776Y-109540709D01*
X109847190Y-109421123D01*
X109847184Y-109421118D01*
X109703997Y-109331147D01*
X109703994Y-109331145D01*
X109544356Y-109275285D01*
X109376303Y-109256351D01*
X109376297Y-109256351D01*
X109208243Y-109275285D01*
X109048605Y-109331145D01*
X109048602Y-109331147D01*
X108905415Y-109421118D01*
X108905409Y-109421123D01*
X108785823Y-109540709D01*
X108785818Y-109540715D01*
X108695847Y-109683902D01*
X108695845Y-109683905D01*
X108639985Y-109843543D01*
X108621051Y-110011597D01*
X96790327Y-110011597D01*
X96743416Y-109936938D01*
X96615862Y-109809384D01*
X96463123Y-109713411D01*
X96292854Y-109653831D01*
X96292849Y-109653830D01*
X96113604Y-109633635D01*
X96113596Y-109633635D01*
X95934350Y-109653830D01*
X95934345Y-109653831D01*
X95764076Y-109713411D01*
X95611337Y-109809384D01*
X95483784Y-109936937D01*
X95387811Y-110089676D01*
X95328231Y-110259945D01*
X95328230Y-110259950D01*
X95308035Y-110439196D01*
X78493277Y-110439196D01*
X78494136Y-107187997D01*
X79254751Y-107187997D01*
X79254751Y-107188002D01*
X79273685Y-107356056D01*
X79329545Y-107515694D01*
X79329547Y-107515697D01*
X79419518Y-107658884D01*
X79419523Y-107658890D01*
X79539109Y-107778476D01*
X79539115Y-107778481D01*
X79682302Y-107868452D01*
X79682305Y-107868454D01*
X79682309Y-107868455D01*
X79682310Y-107868456D01*
X79701738Y-107875254D01*
X79841943Y-107924314D01*
X80009997Y-107943249D01*
X80010000Y-107943249D01*
X80010003Y-107943249D01*
X80178056Y-107924314D01*
X80181634Y-107923062D01*
X80337690Y-107868456D01*
X80337692Y-107868454D01*
X80337694Y-107868454D01*
X80337697Y-107868452D01*
X80480884Y-107778481D01*
X80480885Y-107778480D01*
X80480890Y-107778477D01*
X80600477Y-107658890D01*
X80637446Y-107600055D01*
X80690452Y-107515697D01*
X80690454Y-107515694D01*
X80690454Y-107515692D01*
X80690456Y-107515690D01*
X80746313Y-107356059D01*
X80746313Y-107356058D01*
X80746314Y-107356056D01*
X80765249Y-107188002D01*
X80765249Y-107187997D01*
X80746314Y-107019943D01*
X80716240Y-106933996D01*
X84233635Y-106933996D01*
X84233635Y-106934003D01*
X84253830Y-107113249D01*
X84253831Y-107113254D01*
X84313411Y-107283523D01*
X84381071Y-107391202D01*
X84409384Y-107436262D01*
X84536938Y-107563816D01*
X84594612Y-107600055D01*
X84688237Y-107658884D01*
X84689678Y-107659789D01*
X84793149Y-107695995D01*
X84859945Y-107719368D01*
X84859950Y-107719369D01*
X85039196Y-107739565D01*
X85039200Y-107739565D01*
X85039204Y-107739565D01*
X85218449Y-107719369D01*
X85218452Y-107719368D01*
X85218455Y-107719368D01*
X85388722Y-107659789D01*
X85541462Y-107563816D01*
X85665794Y-107439483D01*
X85727113Y-107406001D01*
X85796805Y-107410985D01*
X85852739Y-107452856D01*
X85877156Y-107518320D01*
X85876692Y-107541050D01*
X85859235Y-107695995D01*
X85859235Y-107696003D01*
X85879430Y-107875249D01*
X85879431Y-107875254D01*
X85939011Y-108045523D01*
X86034984Y-108198262D01*
X86162538Y-108325816D01*
X86315278Y-108421789D01*
X86485545Y-108481368D01*
X86485550Y-108481369D01*
X86664796Y-108501565D01*
X86664800Y-108501565D01*
X86664804Y-108501565D01*
X86844049Y-108481369D01*
X86844052Y-108481368D01*
X86844055Y-108481368D01*
X87014322Y-108421789D01*
X87167062Y-108325816D01*
X87294616Y-108198262D01*
X87390589Y-108045522D01*
X87450168Y-107875255D01*
X87450934Y-107868456D01*
X87470365Y-107696003D01*
X87470365Y-107695997D01*
X87454905Y-107558787D01*
X87466959Y-107489965D01*
X87490444Y-107457221D01*
X87495184Y-107452480D01*
X87495190Y-107452477D01*
X87526871Y-107420796D01*
X95311935Y-107420796D01*
X95311935Y-107420803D01*
X95332130Y-107600049D01*
X95332131Y-107600054D01*
X95391711Y-107770323D01*
X95453370Y-107868452D01*
X95487684Y-107923062D01*
X95615238Y-108050616D01*
X95767978Y-108146589D01*
X95915651Y-108198262D01*
X95938245Y-108206168D01*
X95938250Y-108206169D01*
X96117496Y-108226365D01*
X96117500Y-108226365D01*
X96117504Y-108226365D01*
X96296749Y-108206169D01*
X96296752Y-108206168D01*
X96296755Y-108206168D01*
X96467022Y-108146589D01*
X96619762Y-108050616D01*
X96747316Y-107923062D01*
X96843289Y-107770322D01*
X96902868Y-107600055D01*
X96906951Y-107563816D01*
X96923065Y-107420803D01*
X96923065Y-107420796D01*
X96919730Y-107391197D01*
X113849551Y-107391197D01*
X113849551Y-107391202D01*
X113868485Y-107559256D01*
X113924345Y-107718894D01*
X113924347Y-107718897D01*
X114014318Y-107862084D01*
X114014323Y-107862090D01*
X114133909Y-107981676D01*
X114133915Y-107981681D01*
X114277102Y-108071652D01*
X114277105Y-108071654D01*
X114277109Y-108071655D01*
X114277110Y-108071656D01*
X114349713Y-108097060D01*
X114436743Y-108127514D01*
X114604797Y-108146449D01*
X114604800Y-108146449D01*
X114604803Y-108146449D01*
X114772856Y-108127514D01*
X114772859Y-108127513D01*
X114932490Y-108071656D01*
X114932492Y-108071654D01*
X114932494Y-108071654D01*
X114932497Y-108071652D01*
X115075684Y-107981681D01*
X115075685Y-107981680D01*
X115075690Y-107981677D01*
X115195277Y-107862090D01*
X115195281Y-107862084D01*
X115285252Y-107718897D01*
X115285254Y-107718894D01*
X115285254Y-107718892D01*
X115285256Y-107718890D01*
X115341113Y-107559259D01*
X115341113Y-107559258D01*
X115341114Y-107559256D01*
X115360049Y-107391202D01*
X115360049Y-107391197D01*
X116440351Y-107391197D01*
X116440351Y-107391202D01*
X116459285Y-107559256D01*
X116515145Y-107718894D01*
X116515147Y-107718897D01*
X116605118Y-107862084D01*
X116605123Y-107862090D01*
X116724709Y-107981676D01*
X116724715Y-107981681D01*
X116867902Y-108071652D01*
X116867905Y-108071654D01*
X116867909Y-108071655D01*
X116867910Y-108071656D01*
X116940513Y-108097060D01*
X117027543Y-108127514D01*
X117195597Y-108146449D01*
X117195600Y-108146449D01*
X117195603Y-108146449D01*
X117363656Y-108127514D01*
X117363659Y-108127513D01*
X117523290Y-108071656D01*
X117523292Y-108071654D01*
X117523294Y-108071654D01*
X117523297Y-108071652D01*
X117666484Y-107981681D01*
X117666485Y-107981680D01*
X117666490Y-107981677D01*
X117786077Y-107862090D01*
X117786081Y-107862084D01*
X117876052Y-107718897D01*
X117876054Y-107718894D01*
X117876054Y-107718892D01*
X117876056Y-107718890D01*
X117931913Y-107559259D01*
X117931913Y-107559258D01*
X117931914Y-107559256D01*
X117950849Y-107391202D01*
X117950849Y-107391197D01*
X117931914Y-107223143D01*
X117878773Y-107071276D01*
X117876056Y-107063510D01*
X117876055Y-107063509D01*
X117876054Y-107063505D01*
X117876052Y-107063502D01*
X117786081Y-106920315D01*
X117786076Y-106920309D01*
X117666490Y-106800723D01*
X117666484Y-106800718D01*
X117523297Y-106710747D01*
X117523294Y-106710745D01*
X117363656Y-106654885D01*
X117195603Y-106635951D01*
X117195597Y-106635951D01*
X117027543Y-106654885D01*
X116867905Y-106710745D01*
X116867902Y-106710747D01*
X116724715Y-106800718D01*
X116724709Y-106800723D01*
X116605123Y-106920309D01*
X116605118Y-106920315D01*
X116515147Y-107063502D01*
X116515145Y-107063505D01*
X116459285Y-107223143D01*
X116440351Y-107391197D01*
X115360049Y-107391197D01*
X115341114Y-107223143D01*
X115287973Y-107071276D01*
X115285256Y-107063510D01*
X115285255Y-107063509D01*
X115285254Y-107063505D01*
X115285252Y-107063502D01*
X115195281Y-106920315D01*
X115195276Y-106920309D01*
X115075690Y-106800723D01*
X115075684Y-106800718D01*
X114932497Y-106710747D01*
X114932494Y-106710745D01*
X114772856Y-106654885D01*
X114604803Y-106635951D01*
X114604797Y-106635951D01*
X114436743Y-106654885D01*
X114277105Y-106710745D01*
X114277102Y-106710747D01*
X114133915Y-106800718D01*
X114133909Y-106800723D01*
X114014323Y-106920309D01*
X114014318Y-106920315D01*
X113924347Y-107063502D01*
X113924345Y-107063505D01*
X113868485Y-107223143D01*
X113849551Y-107391197D01*
X96919730Y-107391197D01*
X96902869Y-107241550D01*
X96902868Y-107241545D01*
X96884726Y-107189697D01*
X96843289Y-107071278D01*
X96817387Y-107030056D01*
X96792333Y-106990182D01*
X96747316Y-106918538D01*
X96619762Y-106790984D01*
X96562088Y-106754745D01*
X96467023Y-106695011D01*
X96296754Y-106635431D01*
X96296749Y-106635430D01*
X96117504Y-106615235D01*
X96117496Y-106615235D01*
X95938250Y-106635430D01*
X95938245Y-106635431D01*
X95767976Y-106695011D01*
X95615237Y-106790984D01*
X95487684Y-106918537D01*
X95391711Y-107071276D01*
X95332131Y-107241545D01*
X95332130Y-107241550D01*
X95311935Y-107420796D01*
X87526871Y-107420796D01*
X87614777Y-107332890D01*
X87672170Y-107241550D01*
X87704752Y-107189697D01*
X87704754Y-107189694D01*
X87704754Y-107189692D01*
X87704756Y-107189690D01*
X87760613Y-107030059D01*
X87760613Y-107030058D01*
X87760614Y-107030056D01*
X87779549Y-106862002D01*
X87779549Y-106861997D01*
X87760614Y-106693943D01*
X87704754Y-106534305D01*
X87704752Y-106534302D01*
X87614781Y-106391115D01*
X87614776Y-106391109D01*
X87495190Y-106271523D01*
X87495184Y-106271518D01*
X87351997Y-106181547D01*
X87351994Y-106181545D01*
X87192356Y-106125685D01*
X87024303Y-106106751D01*
X87024297Y-106106751D01*
X86856243Y-106125685D01*
X86696605Y-106181545D01*
X86696602Y-106181547D01*
X86553415Y-106271518D01*
X86553409Y-106271523D01*
X86433823Y-106391109D01*
X86433818Y-106391115D01*
X86343847Y-106534302D01*
X86343845Y-106534305D01*
X86287985Y-106693943D01*
X86269051Y-106861997D01*
X86269051Y-106862004D01*
X86274769Y-106912759D01*
X86262714Y-106981581D01*
X86217522Y-107031634D01*
X86162542Y-107066180D01*
X86038208Y-107190514D01*
X85976885Y-107223998D01*
X85907193Y-107219014D01*
X85851260Y-107177142D01*
X85826843Y-107111678D01*
X85827307Y-107088949D01*
X85844765Y-106934003D01*
X85844765Y-106933996D01*
X85824569Y-106754750D01*
X85824568Y-106754745D01*
X85783000Y-106635951D01*
X85764989Y-106584478D01*
X85669016Y-106431738D01*
X85541462Y-106304184D01*
X85388723Y-106208211D01*
X85218454Y-106148631D01*
X85218449Y-106148630D01*
X85039204Y-106128435D01*
X85039196Y-106128435D01*
X84859950Y-106148630D01*
X84859945Y-106148631D01*
X84689676Y-106208211D01*
X84536937Y-106304184D01*
X84409384Y-106431737D01*
X84313411Y-106584476D01*
X84253831Y-106754745D01*
X84253830Y-106754750D01*
X84233635Y-106933996D01*
X80716240Y-106933996D01*
X80690454Y-106860305D01*
X80690452Y-106860302D01*
X80600481Y-106717115D01*
X80600476Y-106717109D01*
X80480890Y-106597523D01*
X80480884Y-106597518D01*
X80337697Y-106507547D01*
X80337694Y-106507545D01*
X80178056Y-106451685D01*
X80010003Y-106432751D01*
X80009997Y-106432751D01*
X79841943Y-106451685D01*
X79682305Y-106507545D01*
X79682302Y-106507547D01*
X79539115Y-106597518D01*
X79539109Y-106597523D01*
X79419523Y-106717109D01*
X79419518Y-106717115D01*
X79329547Y-106860302D01*
X79329545Y-106860305D01*
X79273685Y-107019943D01*
X79254751Y-107187997D01*
X78494136Y-107187997D01*
X78494434Y-106061819D01*
X118130061Y-106061819D01*
X118130061Y-106061820D01*
X118149101Y-106218638D01*
X118181545Y-106304184D01*
X118205119Y-106366343D01*
X118294856Y-106496350D01*
X118413099Y-106601103D01*
X118413101Y-106601104D01*
X118552973Y-106674516D01*
X118706353Y-106712320D01*
X118706354Y-106712320D01*
X118864324Y-106712320D01*
X119017704Y-106674516D01*
X119055107Y-106654885D01*
X119157579Y-106601103D01*
X119275822Y-106496350D01*
X119365559Y-106366343D01*
X119421576Y-106218638D01*
X119440617Y-106061820D01*
X119421576Y-105905002D01*
X119368707Y-105765597D01*
X121215551Y-105765597D01*
X121215551Y-105765602D01*
X121234485Y-105933656D01*
X121290345Y-106093294D01*
X121290347Y-106093297D01*
X121380318Y-106236484D01*
X121380323Y-106236490D01*
X121499909Y-106356076D01*
X121499915Y-106356081D01*
X121643102Y-106446052D01*
X121643105Y-106446054D01*
X121643109Y-106446055D01*
X121643110Y-106446056D01*
X121659197Y-106451685D01*
X121802743Y-106501914D01*
X121970797Y-106520849D01*
X121970800Y-106520849D01*
X121970803Y-106520849D01*
X122138856Y-106501914D01*
X122154763Y-106496348D01*
X122298490Y-106446056D01*
X122298492Y-106446054D01*
X122298494Y-106446054D01*
X122298497Y-106446052D01*
X122441684Y-106356081D01*
X122441685Y-106356080D01*
X122441690Y-106356077D01*
X122561277Y-106236490D01*
X122595800Y-106181547D01*
X122651252Y-106093297D01*
X122651254Y-106093294D01*
X122651254Y-106093292D01*
X122651256Y-106093290D01*
X122707113Y-105933659D01*
X122707113Y-105933658D01*
X122707114Y-105933656D01*
X122726049Y-105765602D01*
X122726049Y-105765597D01*
X122707114Y-105597543D01*
X122655180Y-105449124D01*
X122651256Y-105437910D01*
X122651255Y-105437909D01*
X122651254Y-105437905D01*
X122651252Y-105437902D01*
X122561281Y-105294715D01*
X122561276Y-105294709D01*
X122441690Y-105175123D01*
X122441684Y-105175118D01*
X122298497Y-105085147D01*
X122298494Y-105085145D01*
X122138856Y-105029285D01*
X121970803Y-105010351D01*
X121970797Y-105010351D01*
X121802743Y-105029285D01*
X121643105Y-105085145D01*
X121643102Y-105085147D01*
X121499915Y-105175118D01*
X121499909Y-105175123D01*
X121380323Y-105294709D01*
X121380318Y-105294715D01*
X121290347Y-105437902D01*
X121290345Y-105437905D01*
X121234485Y-105597543D01*
X121215551Y-105765597D01*
X119368707Y-105765597D01*
X119365559Y-105757297D01*
X119275822Y-105627290D01*
X119157579Y-105522537D01*
X119157577Y-105522536D01*
X119157576Y-105522535D01*
X119017704Y-105449123D01*
X118864325Y-105411320D01*
X118864324Y-105411320D01*
X118706354Y-105411320D01*
X118706353Y-105411320D01*
X118552973Y-105449123D01*
X118413101Y-105522535D01*
X118294855Y-105627291D01*
X118205120Y-105757295D01*
X118205119Y-105757296D01*
X118149101Y-105905001D01*
X118130061Y-106061819D01*
X78494434Y-106061819D01*
X78494727Y-104952796D01*
X87230835Y-104952796D01*
X87230835Y-104952803D01*
X87251030Y-105132049D01*
X87251031Y-105132054D01*
X87310611Y-105302323D01*
X87395807Y-105437910D01*
X87406584Y-105455062D01*
X87534138Y-105582616D01*
X87686878Y-105678589D01*
X87857145Y-105738168D01*
X87857150Y-105738169D01*
X88036396Y-105758365D01*
X88036400Y-105758365D01*
X88036404Y-105758365D01*
X88215649Y-105738169D01*
X88215652Y-105738168D01*
X88215655Y-105738168D01*
X88385922Y-105678589D01*
X88538662Y-105582616D01*
X88666216Y-105455062D01*
X88762189Y-105302322D01*
X88821768Y-105132055D01*
X88821769Y-105132049D01*
X88841965Y-104952803D01*
X88841965Y-104952796D01*
X88821769Y-104773550D01*
X88821768Y-104773545D01*
X88762188Y-104603276D01*
X88666215Y-104450537D01*
X88538662Y-104322984D01*
X88385923Y-104227011D01*
X88215654Y-104167431D01*
X88215649Y-104167430D01*
X88036404Y-104147235D01*
X88036396Y-104147235D01*
X87857150Y-104167430D01*
X87857145Y-104167431D01*
X87686876Y-104227011D01*
X87534137Y-104322984D01*
X87406584Y-104450537D01*
X87310611Y-104603276D01*
X87251031Y-104773545D01*
X87251030Y-104773550D01*
X87230835Y-104952796D01*
X78494727Y-104952796D01*
X78494942Y-104139996D01*
X90482035Y-104139996D01*
X90482035Y-104140003D01*
X90502230Y-104319249D01*
X90502231Y-104319254D01*
X90561811Y-104489523D01*
X90633287Y-104603276D01*
X90657784Y-104642262D01*
X90785338Y-104769816D01*
X90938078Y-104865789D01*
X91108345Y-104925368D01*
X91108350Y-104925369D01*
X91287596Y-104945565D01*
X91287600Y-104945565D01*
X91287604Y-104945565D01*
X91466849Y-104925369D01*
X91466852Y-104925368D01*
X91466855Y-104925368D01*
X91637122Y-104865789D01*
X91789862Y-104769816D01*
X91917416Y-104642262D01*
X92013389Y-104489522D01*
X92072968Y-104319255D01*
X92072969Y-104319249D01*
X92093165Y-104140003D01*
X92093165Y-104139996D01*
X92072969Y-103960750D01*
X92072968Y-103960745D01*
X92013388Y-103790476D01*
X91954897Y-103697389D01*
X91917416Y-103637738D01*
X91789862Y-103510184D01*
X91732056Y-103473862D01*
X91637123Y-103414211D01*
X91466854Y-103354631D01*
X91466849Y-103354630D01*
X91287604Y-103334435D01*
X91287596Y-103334435D01*
X91108350Y-103354630D01*
X91108345Y-103354631D01*
X90938076Y-103414211D01*
X90785337Y-103510184D01*
X90657784Y-103637737D01*
X90561811Y-103790476D01*
X90502231Y-103960745D01*
X90502230Y-103960750D01*
X90482035Y-104139996D01*
X78494942Y-104139996D01*
X78495251Y-102971596D01*
X121774835Y-102971596D01*
X121774835Y-102971603D01*
X121795030Y-103150849D01*
X121795031Y-103150854D01*
X121854611Y-103321123D01*
X121950584Y-103473862D01*
X122078138Y-103601416D01*
X122230878Y-103697389D01*
X122401145Y-103756968D01*
X122401150Y-103756969D01*
X122580396Y-103777165D01*
X122580400Y-103777165D01*
X122580404Y-103777165D01*
X122759649Y-103756969D01*
X122759652Y-103756968D01*
X122759655Y-103756968D01*
X122929922Y-103697389D01*
X123082662Y-103601416D01*
X123210216Y-103473862D01*
X123306189Y-103321122D01*
X123351655Y-103191185D01*
X123392375Y-103134412D01*
X123457328Y-103108664D01*
X123525890Y-103122120D01*
X123541583Y-103131825D01*
X123544666Y-103134065D01*
X123748121Y-103258743D01*
X123968575Y-103350057D01*
X123968572Y-103350057D01*
X124200616Y-103405766D01*
X124438500Y-103424487D01*
X124676383Y-103405766D01*
X124908425Y-103350057D01*
X125128878Y-103258743D01*
X125321717Y-103140570D01*
X125321717Y-103140569D01*
X124649559Y-102468412D01*
X124670091Y-102462911D01*
X124806908Y-102383919D01*
X124918619Y-102272208D01*
X124997611Y-102135391D01*
X125003112Y-102114860D01*
X125675269Y-102787017D01*
X125675270Y-102787017D01*
X125793443Y-102594178D01*
X125884757Y-102373725D01*
X125940466Y-102141683D01*
X125959187Y-101903800D01*
X125940466Y-101665916D01*
X125884757Y-101433874D01*
X125793443Y-101213421D01*
X125675269Y-101020581D01*
X125003112Y-101692739D01*
X124997611Y-101672209D01*
X124918619Y-101535392D01*
X124806908Y-101423681D01*
X124670091Y-101344689D01*
X124649558Y-101339187D01*
X125321717Y-100667029D01*
X125128878Y-100548856D01*
X124908424Y-100457542D01*
X124908427Y-100457542D01*
X124676383Y-100401833D01*
X124438500Y-100383112D01*
X124200616Y-100401833D01*
X123968574Y-100457542D01*
X123748121Y-100548856D01*
X123555281Y-100667029D01*
X124227440Y-101339187D01*
X124206909Y-101344689D01*
X124070092Y-101423681D01*
X123958381Y-101535392D01*
X123879389Y-101672209D01*
X123873887Y-101692740D01*
X123201729Y-101020581D01*
X123083556Y-101213421D01*
X122992242Y-101433874D01*
X122936533Y-101665916D01*
X122917812Y-101903800D01*
X122930227Y-102061561D01*
X122915862Y-102129938D01*
X122866811Y-102179695D01*
X122798645Y-102195033D01*
X122765655Y-102188331D01*
X122759657Y-102186232D01*
X122759649Y-102186230D01*
X122580404Y-102166035D01*
X122580396Y-102166035D01*
X122401150Y-102186230D01*
X122401145Y-102186231D01*
X122230876Y-102245811D01*
X122078137Y-102341784D01*
X121950584Y-102469337D01*
X121854611Y-102622076D01*
X121795031Y-102792345D01*
X121795030Y-102792350D01*
X121774835Y-102971596D01*
X78495251Y-102971596D01*
X78496526Y-98145596D01*
X88754835Y-98145596D01*
X88754835Y-98145603D01*
X88775030Y-98324849D01*
X88775031Y-98324854D01*
X88834611Y-98495123D01*
X88930584Y-98647862D01*
X88955094Y-98672372D01*
X88988579Y-98733695D01*
X88983595Y-98803387D01*
X88972407Y-98826025D01*
X88885411Y-98964476D01*
X88825831Y-99134745D01*
X88825830Y-99134750D01*
X88805635Y-99313996D01*
X88805635Y-99314003D01*
X88825830Y-99493249D01*
X88825831Y-99493254D01*
X88885411Y-99663523D01*
X88956930Y-99777344D01*
X88981384Y-99816262D01*
X89108938Y-99943816D01*
X89261678Y-100039789D01*
X89431945Y-100099368D01*
X89431950Y-100099369D01*
X89611196Y-100119565D01*
X89611200Y-100119565D01*
X89611204Y-100119565D01*
X89790449Y-100099369D01*
X89790452Y-100099368D01*
X89790455Y-100099368D01*
X89960722Y-100039789D01*
X90113462Y-99943816D01*
X90241016Y-99816262D01*
X90336989Y-99663522D01*
X90396568Y-99493255D01*
X90396569Y-99493249D01*
X90416765Y-99314003D01*
X90416765Y-99313996D01*
X90396569Y-99134750D01*
X90396568Y-99134745D01*
X90336988Y-98964476D01*
X90241015Y-98811737D01*
X90216505Y-98787227D01*
X90183020Y-98725904D01*
X90188004Y-98656212D01*
X90199187Y-98633583D01*
X90248064Y-98555796D01*
X94237435Y-98555796D01*
X94237435Y-98555803D01*
X94257630Y-98735049D01*
X94257631Y-98735054D01*
X94317211Y-98905323D01*
X94354380Y-98964476D01*
X94413184Y-99058062D01*
X94540738Y-99185616D01*
X94693478Y-99281589D01*
X94786112Y-99314003D01*
X94863745Y-99341168D01*
X94863750Y-99341169D01*
X95042996Y-99361365D01*
X95043000Y-99361365D01*
X95043004Y-99361365D01*
X95222249Y-99341169D01*
X95222252Y-99341168D01*
X95222255Y-99341168D01*
X95392522Y-99281589D01*
X95545262Y-99185616D01*
X95672816Y-99058062D01*
X95768789Y-98905322D01*
X95828368Y-98735055D01*
X95828369Y-98735049D01*
X95848565Y-98555803D01*
X95848565Y-98555796D01*
X95828369Y-98376550D01*
X95828368Y-98376545D01*
X95810281Y-98324855D01*
X95768789Y-98206278D01*
X95672816Y-98053538D01*
X95545262Y-97925984D01*
X95392523Y-97830011D01*
X95222254Y-97770431D01*
X95222249Y-97770430D01*
X95043004Y-97750235D01*
X95042996Y-97750235D01*
X94863750Y-97770430D01*
X94863745Y-97770431D01*
X94693476Y-97830011D01*
X94540737Y-97925984D01*
X94413184Y-98053537D01*
X94317211Y-98206276D01*
X94257631Y-98376545D01*
X94257630Y-98376550D01*
X94237435Y-98555796D01*
X90248064Y-98555796D01*
X90286189Y-98495122D01*
X90345768Y-98324855D01*
X90345769Y-98324849D01*
X90365965Y-98145603D01*
X90365965Y-98145596D01*
X90345769Y-97966350D01*
X90345768Y-97966345D01*
X90331645Y-97925984D01*
X90286189Y-97796078D01*
X90190216Y-97643338D01*
X90062662Y-97515784D01*
X89909923Y-97419811D01*
X89739654Y-97360231D01*
X89739649Y-97360230D01*
X89560404Y-97340035D01*
X89560396Y-97340035D01*
X89381150Y-97360230D01*
X89381145Y-97360231D01*
X89210876Y-97419811D01*
X89058137Y-97515784D01*
X88930584Y-97643337D01*
X88834611Y-97796076D01*
X88775031Y-97966345D01*
X88775030Y-97966350D01*
X88754835Y-98145596D01*
X78496526Y-98145596D01*
X78496739Y-97339935D01*
X122922000Y-97339935D01*
X122922000Y-99467670D01*
X122922001Y-99467676D01*
X122928408Y-99527283D01*
X122978702Y-99662128D01*
X122978706Y-99662135D01*
X123064952Y-99777344D01*
X123064955Y-99777347D01*
X123180164Y-99863593D01*
X123180171Y-99863597D01*
X123315017Y-99913891D01*
X123315016Y-99913891D01*
X123321944Y-99914635D01*
X123374627Y-99920300D01*
X125502372Y-99920299D01*
X125561983Y-99913891D01*
X125696831Y-99863596D01*
X125812046Y-99777346D01*
X125898296Y-99662131D01*
X125948591Y-99527283D01*
X125955000Y-99467673D01*
X125954999Y-97339928D01*
X125948591Y-97280317D01*
X125898296Y-97145469D01*
X125898295Y-97145468D01*
X125898293Y-97145464D01*
X125812047Y-97030255D01*
X125812044Y-97030252D01*
X125696835Y-96944006D01*
X125696828Y-96944002D01*
X125561982Y-96893708D01*
X125561983Y-96893708D01*
X125502383Y-96887301D01*
X125502381Y-96887300D01*
X125502373Y-96887300D01*
X125502364Y-96887300D01*
X123374629Y-96887300D01*
X123374623Y-96887301D01*
X123315016Y-96893708D01*
X123180171Y-96944002D01*
X123180164Y-96944006D01*
X123064955Y-97030252D01*
X123064952Y-97030255D01*
X122978706Y-97145464D01*
X122978702Y-97145471D01*
X122928408Y-97280317D01*
X122922001Y-97339916D01*
X122922001Y-97339923D01*
X122922000Y-97339935D01*
X78496739Y-97339935D01*
X78497398Y-94843597D01*
X119539151Y-94843597D01*
X119539151Y-94843602D01*
X119558085Y-95011656D01*
X119613945Y-95171294D01*
X119613947Y-95171297D01*
X119703918Y-95314484D01*
X119703923Y-95314490D01*
X119823509Y-95434076D01*
X119823515Y-95434081D01*
X119966702Y-95524052D01*
X119966705Y-95524054D01*
X119966709Y-95524055D01*
X119966710Y-95524056D01*
X120039313Y-95549460D01*
X120126343Y-95579914D01*
X120294397Y-95598849D01*
X120294400Y-95598849D01*
X120294403Y-95598849D01*
X120462456Y-95579914D01*
X120462459Y-95579913D01*
X120622090Y-95524056D01*
X120622092Y-95524054D01*
X120622094Y-95524054D01*
X120622097Y-95524052D01*
X120765284Y-95434081D01*
X120765285Y-95434080D01*
X120765290Y-95434077D01*
X120884877Y-95314490D01*
X120974852Y-95171297D01*
X120974854Y-95171294D01*
X120974854Y-95171292D01*
X120974856Y-95171290D01*
X121030713Y-95011659D01*
X121030713Y-95011658D01*
X121030714Y-95011656D01*
X121049649Y-94843602D01*
X121049649Y-94843597D01*
X121030714Y-94675543D01*
X121000260Y-94588513D01*
X120974856Y-94515910D01*
X120974855Y-94515909D01*
X120974854Y-94515905D01*
X120974852Y-94515902D01*
X120884881Y-94372715D01*
X120884876Y-94372709D01*
X120765290Y-94253123D01*
X120765284Y-94253118D01*
X120622097Y-94163147D01*
X120622094Y-94163145D01*
X120462456Y-94107285D01*
X120294403Y-94088351D01*
X120294397Y-94088351D01*
X120126343Y-94107285D01*
X119966705Y-94163145D01*
X119966702Y-94163147D01*
X119823515Y-94253118D01*
X119823509Y-94253123D01*
X119703923Y-94372709D01*
X119703918Y-94372715D01*
X119613947Y-94515902D01*
X119613945Y-94515905D01*
X119558085Y-94675543D01*
X119539151Y-94843597D01*
X78497398Y-94843597D01*
X78498526Y-90576396D01*
X97340035Y-90576396D01*
X97340035Y-90576403D01*
X97360230Y-90755649D01*
X97360231Y-90755654D01*
X97419811Y-90925923D01*
X97458009Y-90986714D01*
X97515784Y-91078662D01*
X97643338Y-91206216D01*
X97796078Y-91302189D01*
X97914187Y-91343517D01*
X97966345Y-91361768D01*
X97966350Y-91361769D01*
X98145596Y-91381965D01*
X98145600Y-91381965D01*
X98145604Y-91381965D01*
X98324849Y-91361769D01*
X98324852Y-91361768D01*
X98324855Y-91361768D01*
X98495122Y-91302189D01*
X98647862Y-91206216D01*
X98775416Y-91078662D01*
X98871389Y-90925922D01*
X98930968Y-90755655D01*
X98948416Y-90600804D01*
X98951165Y-90576402D01*
X98951165Y-90576400D01*
X98946741Y-90537142D01*
X98958795Y-90468320D01*
X99006143Y-90416939D01*
X99056079Y-90400036D01*
X99086849Y-90396569D01*
X99086852Y-90396568D01*
X99086855Y-90396568D01*
X99257122Y-90336989D01*
X99394932Y-90250397D01*
X119492251Y-90250397D01*
X119492251Y-90250402D01*
X119511185Y-90418456D01*
X119567045Y-90578094D01*
X119567047Y-90578097D01*
X119657018Y-90721284D01*
X119657023Y-90721290D01*
X119776609Y-90840876D01*
X119776615Y-90840881D01*
X119919802Y-90930852D01*
X119919805Y-90930854D01*
X119919809Y-90930855D01*
X119919810Y-90930856D01*
X119992413Y-90956260D01*
X120079443Y-90986714D01*
X120247497Y-91005649D01*
X120247500Y-91005649D01*
X120247503Y-91005649D01*
X120415556Y-90986714D01*
X120415559Y-90986713D01*
X120575190Y-90930856D01*
X120575192Y-90930854D01*
X120575194Y-90930854D01*
X120575197Y-90930852D01*
X120718384Y-90840881D01*
X120718385Y-90840880D01*
X120718390Y-90840877D01*
X120837977Y-90721290D01*
X120913684Y-90600804D01*
X120913690Y-90600795D01*
X122726713Y-90600795D01*
X122726713Y-90600804D01*
X122745830Y-90855919D01*
X122745831Y-90855924D01*
X122802759Y-91105344D01*
X122802761Y-91105353D01*
X122802763Y-91105358D01*
X122896233Y-91343517D01*
X123024155Y-91565084D01*
X123152995Y-91726644D01*
X123183674Y-91765115D01*
X123293769Y-91867267D01*
X123371218Y-91939129D01*
X123582607Y-92083251D01*
X123813114Y-92194258D01*
X123937322Y-92232571D01*
X123995580Y-92271140D01*
X124023738Y-92335084D01*
X124012856Y-92404101D01*
X123966387Y-92456278D01*
X123937323Y-92469552D01*
X123813293Y-92507811D01*
X123582861Y-92618782D01*
X123582857Y-92618784D01*
X123420636Y-92729384D01*
X124227441Y-93536187D01*
X124206909Y-93541689D01*
X124070092Y-93620681D01*
X123958381Y-93732392D01*
X123879389Y-93869209D01*
X123873887Y-93889740D01*
X123067328Y-93083181D01*
X123067327Y-93083181D01*
X123024569Y-93136799D01*
X122896685Y-93358300D01*
X122803242Y-93596387D01*
X122746328Y-93845750D01*
X122746327Y-93845755D01*
X122727215Y-94100795D01*
X122727215Y-94100804D01*
X122746327Y-94355844D01*
X122746328Y-94355849D01*
X122803242Y-94605212D01*
X122896685Y-94843299D01*
X122896684Y-94843299D01*
X123024572Y-95064804D01*
X123067327Y-95118418D01*
X123873887Y-94311858D01*
X123879389Y-94332391D01*
X123958381Y-94469208D01*
X124070092Y-94580919D01*
X124206909Y-94659911D01*
X124227440Y-94665412D01*
X123420636Y-95472214D01*
X123582862Y-95582818D01*
X123813295Y-95693789D01*
X124057701Y-95769179D01*
X124057707Y-95769181D01*
X124310608Y-95807299D01*
X124310617Y-95807300D01*
X124566383Y-95807300D01*
X124566391Y-95807299D01*
X124819292Y-95769181D01*
X124819298Y-95769179D01*
X125063706Y-95693788D01*
X125294135Y-95582820D01*
X125294145Y-95582813D01*
X125456362Y-95472215D01*
X124649560Y-94665412D01*
X124670091Y-94659911D01*
X124806908Y-94580919D01*
X124918619Y-94469208D01*
X124997611Y-94332391D01*
X125003112Y-94311859D01*
X125809670Y-95118418D01*
X125852432Y-95064797D01*
X125980314Y-94843299D01*
X126073757Y-94605212D01*
X126130671Y-94355849D01*
X126130672Y-94355844D01*
X126149785Y-94100804D01*
X126149785Y-94100795D01*
X126130672Y-93845755D01*
X126130671Y-93845750D01*
X126073757Y-93596387D01*
X125980314Y-93358300D01*
X125980315Y-93358300D01*
X125852429Y-93136799D01*
X125809670Y-93083180D01*
X125003112Y-93889739D01*
X124997611Y-93869209D01*
X124918619Y-93732392D01*
X124806908Y-93620681D01*
X124670091Y-93541689D01*
X124649559Y-93536187D01*
X125456362Y-92729383D01*
X125294143Y-92618784D01*
X125294135Y-92618779D01*
X125063708Y-92507812D01*
X124939676Y-92469552D01*
X124881417Y-92430981D01*
X124853260Y-92367036D01*
X124864144Y-92298019D01*
X124910614Y-92245843D01*
X124939672Y-92232572D01*
X125063886Y-92194258D01*
X125294394Y-92083251D01*
X125505782Y-91939129D01*
X125693329Y-91765111D01*
X125852845Y-91565084D01*
X125980767Y-91343517D01*
X126074237Y-91105358D01*
X126131168Y-90855929D01*
X126132296Y-90840876D01*
X126150287Y-90600804D01*
X126150287Y-90600795D01*
X126131169Y-90345680D01*
X126131168Y-90345675D01*
X126131168Y-90345671D01*
X126074237Y-90096242D01*
X125980767Y-89858083D01*
X125852845Y-89636516D01*
X125693329Y-89436489D01*
X125693328Y-89436488D01*
X125693325Y-89436484D01*
X125505782Y-89262471D01*
X125504616Y-89261676D01*
X125294394Y-89118349D01*
X125294390Y-89118347D01*
X125294387Y-89118345D01*
X125294386Y-89118344D01*
X125139008Y-89043519D01*
X125087148Y-88996697D01*
X125068835Y-88929270D01*
X125089883Y-88862646D01*
X125143609Y-88817977D01*
X125192808Y-88807799D01*
X125692872Y-88807799D01*
X125752483Y-88801391D01*
X125887331Y-88751096D01*
X126002546Y-88664846D01*
X126088796Y-88549631D01*
X126139091Y-88414783D01*
X126145500Y-88355173D01*
X126145499Y-85846428D01*
X126139091Y-85786817D01*
X126088796Y-85651969D01*
X126088795Y-85651968D01*
X126088793Y-85651964D01*
X126002547Y-85536755D01*
X126002544Y-85536752D01*
X125887335Y-85450506D01*
X125887328Y-85450502D01*
X125752482Y-85400208D01*
X125752483Y-85400208D01*
X125692883Y-85393801D01*
X125692881Y-85393800D01*
X125692873Y-85393800D01*
X125692864Y-85393800D01*
X123184129Y-85393800D01*
X123184123Y-85393801D01*
X123124516Y-85400208D01*
X122989671Y-85450502D01*
X122989664Y-85450506D01*
X122874455Y-85536752D01*
X122874452Y-85536755D01*
X122788206Y-85651964D01*
X122788202Y-85651971D01*
X122737908Y-85786817D01*
X122731501Y-85846416D01*
X122731501Y-85846423D01*
X122731500Y-85846435D01*
X122731500Y-88355170D01*
X122731501Y-88355176D01*
X122737908Y-88414783D01*
X122788202Y-88549628D01*
X122788206Y-88549635D01*
X122874452Y-88664844D01*
X122874455Y-88664847D01*
X122989664Y-88751093D01*
X122989671Y-88751097D01*
X123124517Y-88801391D01*
X123124516Y-88801391D01*
X123131444Y-88802135D01*
X123184127Y-88807800D01*
X123684191Y-88807799D01*
X123751228Y-88827483D01*
X123796983Y-88880287D01*
X123806927Y-88949446D01*
X123777902Y-89013002D01*
X123737991Y-89043519D01*
X123582610Y-89118347D01*
X123582606Y-89118349D01*
X123371220Y-89262469D01*
X123183674Y-89436484D01*
X123024155Y-89636516D01*
X122896233Y-89858082D01*
X122802765Y-90096236D01*
X122802759Y-90096255D01*
X122745831Y-90345675D01*
X122745830Y-90345680D01*
X122726713Y-90600795D01*
X120913690Y-90600795D01*
X120927952Y-90578097D01*
X120927954Y-90578094D01*
X120927954Y-90578092D01*
X120927956Y-90578090D01*
X120983813Y-90418459D01*
X120983813Y-90418458D01*
X120983814Y-90418456D01*
X121002749Y-90250402D01*
X121002749Y-90250397D01*
X120983814Y-90082343D01*
X120927954Y-89922705D01*
X120927952Y-89922702D01*
X120837981Y-89779515D01*
X120837976Y-89779509D01*
X120718390Y-89659923D01*
X120718384Y-89659918D01*
X120575197Y-89569947D01*
X120575194Y-89569945D01*
X120415556Y-89514085D01*
X120247503Y-89495151D01*
X120247497Y-89495151D01*
X120079443Y-89514085D01*
X119919805Y-89569945D01*
X119919802Y-89569947D01*
X119776615Y-89659918D01*
X119776609Y-89659923D01*
X119657023Y-89779509D01*
X119657018Y-89779515D01*
X119567047Y-89922702D01*
X119567045Y-89922705D01*
X119511185Y-90082343D01*
X119492251Y-90250397D01*
X99394932Y-90250397D01*
X99409862Y-90241016D01*
X99537416Y-90113462D01*
X99633389Y-89960722D01*
X99692968Y-89790455D01*
X99694201Y-89779515D01*
X99713165Y-89611203D01*
X99713165Y-89611196D01*
X99692969Y-89431950D01*
X99692968Y-89431945D01*
X99633666Y-89262471D01*
X99633389Y-89261678D01*
X99537416Y-89108938D01*
X99409862Y-88981384D01*
X99359033Y-88949446D01*
X99257123Y-88885411D01*
X99086854Y-88825831D01*
X99086849Y-88825830D01*
X98907604Y-88805635D01*
X98907596Y-88805635D01*
X98728350Y-88825830D01*
X98728345Y-88825831D01*
X98558076Y-88885411D01*
X98405337Y-88981384D01*
X98277784Y-89108937D01*
X98181811Y-89261676D01*
X98122231Y-89431945D01*
X98122230Y-89431950D01*
X98102035Y-89611196D01*
X98102035Y-89611203D01*
X98106458Y-89650460D01*
X98094403Y-89719282D01*
X98047054Y-89770661D01*
X97997123Y-89787563D01*
X97966350Y-89791030D01*
X97796078Y-89850610D01*
X97643337Y-89946584D01*
X97515784Y-90074137D01*
X97419811Y-90226876D01*
X97360231Y-90397145D01*
X97360230Y-90397150D01*
X97340035Y-90576396D01*
X78498526Y-90576396D01*
X78499186Y-88078796D01*
X85841935Y-88078796D01*
X85841935Y-88078803D01*
X85862130Y-88258049D01*
X85862131Y-88258054D01*
X85921711Y-88428323D01*
X85997937Y-88549635D01*
X86017684Y-88581062D01*
X86145238Y-88708616D01*
X86297978Y-88804589D01*
X86463895Y-88862646D01*
X86468245Y-88864168D01*
X86468250Y-88864169D01*
X86647496Y-88884365D01*
X86647500Y-88884365D01*
X86647504Y-88884365D01*
X86826749Y-88864169D01*
X86826752Y-88864168D01*
X86826755Y-88864168D01*
X86997022Y-88804589D01*
X87149762Y-88708616D01*
X87277316Y-88581062D01*
X87373289Y-88428322D01*
X87432868Y-88258055D01*
X87453065Y-88078800D01*
X87432868Y-87899545D01*
X87373289Y-87729278D01*
X87277316Y-87576538D01*
X87149762Y-87448984D01*
X86997023Y-87353011D01*
X86826754Y-87293431D01*
X86826749Y-87293430D01*
X86647504Y-87273235D01*
X86647496Y-87273235D01*
X86468250Y-87293430D01*
X86468245Y-87293431D01*
X86297976Y-87353011D01*
X86145237Y-87448984D01*
X86017684Y-87576537D01*
X85921711Y-87729276D01*
X85862131Y-87899545D01*
X85862130Y-87899550D01*
X85841935Y-88078796D01*
X78499186Y-88078796D01*
X78499967Y-85123966D01*
X78519669Y-85056933D01*
X78572485Y-85011192D01*
X78623967Y-85000000D01*
X87000000Y-85000000D01*
X87000000Y-82803998D01*
X123470390Y-82803998D01*
X123470390Y-82804001D01*
X123490804Y-83089433D01*
X123551628Y-83369037D01*
X123551630Y-83369043D01*
X123551631Y-83369046D01*
X123650847Y-83635054D01*
X123651635Y-83637166D01*
X123788770Y-83888309D01*
X123788775Y-83888317D01*
X123960254Y-84117387D01*
X123960270Y-84117405D01*
X124162594Y-84319729D01*
X124162612Y-84319745D01*
X124391682Y-84491224D01*
X124391690Y-84491229D01*
X124642833Y-84628364D01*
X124642832Y-84628364D01*
X124642836Y-84628365D01*
X124642839Y-84628367D01*
X124910954Y-84728369D01*
X124910960Y-84728370D01*
X124910962Y-84728371D01*
X125190566Y-84789195D01*
X125190568Y-84789195D01*
X125190572Y-84789196D01*
X125444220Y-84807337D01*
X125475999Y-84809610D01*
X125476000Y-84809610D01*
X125476001Y-84809610D01*
X125504595Y-84807564D01*
X125761428Y-84789196D01*
X126041046Y-84728369D01*
X126309161Y-84628367D01*
X126560315Y-84491226D01*
X126789395Y-84319739D01*
X126991739Y-84117395D01*
X127163226Y-83888315D01*
X127300367Y-83637161D01*
X127400369Y-83369046D01*
X127461196Y-83089428D01*
X127481610Y-82804000D01*
X127461196Y-82518572D01*
X127400369Y-82238954D01*
X127300367Y-81970839D01*
X127288412Y-81948946D01*
X127163229Y-81719690D01*
X127163224Y-81719682D01*
X126991745Y-81490612D01*
X126991729Y-81490594D01*
X126789405Y-81288270D01*
X126789387Y-81288254D01*
X126560317Y-81116775D01*
X126560309Y-81116770D01*
X126309166Y-80979635D01*
X126309167Y-80979635D01*
X126201915Y-80939632D01*
X126041046Y-80879631D01*
X126041043Y-80879630D01*
X126041037Y-80879628D01*
X125761433Y-80818804D01*
X125476001Y-80798390D01*
X125475999Y-80798390D01*
X125190566Y-80818804D01*
X124910962Y-80879628D01*
X124642833Y-80979635D01*
X124391690Y-81116770D01*
X124391682Y-81116775D01*
X124162612Y-81288254D01*
X124162594Y-81288270D01*
X123960270Y-81490594D01*
X123960254Y-81490612D01*
X123788775Y-81719682D01*
X123788770Y-81719690D01*
X123651635Y-81970833D01*
X123551628Y-82238962D01*
X123490804Y-82518566D01*
X123470390Y-82803998D01*
X87000000Y-82803998D01*
X87000000Y-79624000D01*
X87019685Y-79556961D01*
X87072489Y-79511206D01*
X87124000Y-79500000D01*
X96626000Y-79500000D01*
X96693039Y-79519685D01*
G37*
G04 #@! TD.AperFunction*
M02*
