G04 #@! TF.GenerationSoftware,KiCad,Pcbnew,8.0.7*
G04 #@! TF.CreationDate,2025-07-10T22:44:40+02:00*
G04 #@! TF.ProjectId,modbus-to-x,6d6f6462-7573-42d7-946f-2d782e6b6963,rev?*
G04 #@! TF.SameCoordinates,Original*
G04 #@! TF.FileFunction,Legend,Top*
G04 #@! TF.FilePolarity,Positive*
%FSLAX46Y46*%
G04 Gerber Fmt 4.6, Leading zero omitted, Abs format (unit mm)*
G04 Created by KiCad (PCBNEW 8.0.7) date 2025-07-10 22:44:40*
%MOMM*%
%LPD*%
G01*
G04 APERTURE LIST*
G04 Aperture macros list*
%AMRoundRect*
0 Rectangle with rounded corners*
0 $1 Rounding radius*
0 $2 $3 $4 $5 $6 $7 $8 $9 X,Y pos of 4 corners*
0 Add a 4 corners polygon primitive as box body*
4,1,4,$2,$3,$4,$5,$6,$7,$8,$9,$2,$3,0*
0 Add four circle primitives for the rounded corners*
1,1,$1+$1,$2,$3*
1,1,$1+$1,$4,$5*
1,1,$1+$1,$6,$7*
1,1,$1+$1,$8,$9*
0 Add four rect primitives between the rounded corners*
20,1,$1+$1,$2,$3,$4,$5,0*
20,1,$1+$1,$4,$5,$6,$7,0*
20,1,$1+$1,$6,$7,$8,$9,0*
20,1,$1+$1,$8,$9,$2,$3,0*%
%AMOutline4P*
0 Free polygon, 4 corners , with rotation*
0 The origin of the aperture is its center*
0 number of corners: always 4*
0 $1 to $8 corner X, Y*
0 $9 Rotation angle, in degrees counterclockwise*
0 create outline with 4 corners*
4,1,4,$1,$2,$3,$4,$5,$6,$7,$8,$1,$2,$9*%
G04 Aperture macros list end*
%ADD10C,0.150000*%
%ADD11C,0.100000*%
%ADD12C,0.300000*%
%ADD13C,0.120000*%
%ADD14C,0.152400*%
%ADD15C,0.000000*%
%ADD16C,0.203200*%
%ADD17C,0.200000*%
%ADD18R,1.300000X1.550000*%
%ADD19RoundRect,0.160000X0.160000X-0.197500X0.160000X0.197500X-0.160000X0.197500X-0.160000X-0.197500X0*%
%ADD20R,0.838200X0.889000*%
%ADD21R,0.889000X0.838200*%
%ADD22C,0.600000*%
%ADD23R,15.798800X17.602200*%
%ADD24RoundRect,0.155000X0.155000X-0.212500X0.155000X0.212500X-0.155000X0.212500X-0.155000X-0.212500X0*%
%ADD25RoundRect,0.155000X-0.212500X-0.155000X0.212500X-0.155000X0.212500X0.155000X-0.212500X0.155000X0*%
%ADD26RoundRect,0.250000X-0.475000X0.337500X-0.475000X-0.337500X0.475000X-0.337500X0.475000X0.337500X0*%
%ADD27RoundRect,0.237500X0.237500X-0.250000X0.237500X0.250000X-0.237500X0.250000X-0.237500X-0.250000X0*%
%ADD28RoundRect,0.100000X-0.100000X0.637500X-0.100000X-0.637500X0.100000X-0.637500X0.100000X0.637500X0*%
%ADD29RoundRect,0.250000X-0.450000X0.350000X-0.450000X-0.350000X0.450000X-0.350000X0.450000X0.350000X0*%
%ADD30R,1.700000X1.700000*%
%ADD31O,1.700000X1.700000*%
%ADD32RoundRect,0.250000X0.337500X0.475000X-0.337500X0.475000X-0.337500X-0.475000X0.337500X-0.475000X0*%
%ADD33RoundRect,0.237500X-0.250000X-0.237500X0.250000X-0.237500X0.250000X0.237500X-0.250000X0.237500X0*%
%ADD34RoundRect,0.250000X-1.050000X-0.550000X1.050000X-0.550000X1.050000X0.550000X-1.050000X0.550000X0*%
%ADD35RoundRect,0.250000X-1.500000X-0.550000X1.500000X-0.550000X1.500000X0.550000X-1.500000X0.550000X0*%
%ADD36RoundRect,0.160000X-0.222500X-0.160000X0.222500X-0.160000X0.222500X0.160000X-0.222500X0.160000X0*%
%ADD37RoundRect,0.250000X0.475000X-0.337500X0.475000X0.337500X-0.475000X0.337500X-0.475000X-0.337500X0*%
%ADD38RoundRect,0.160000X0.160000X-0.222500X0.160000X0.222500X-0.160000X0.222500X-0.160000X-0.222500X0*%
%ADD39RoundRect,0.160000X0.222500X0.160000X-0.222500X0.160000X-0.222500X-0.160000X0.222500X-0.160000X0*%
%ADD40RoundRect,0.375000X0.375000X-0.625000X0.375000X0.625000X-0.375000X0.625000X-0.375000X-0.625000X0*%
%ADD41RoundRect,0.500000X1.400000X-0.500000X1.400000X0.500000X-1.400000X0.500000X-1.400000X-0.500000X0*%
%ADD42RoundRect,0.250000X0.350000X0.450000X-0.350000X0.450000X-0.350000X-0.450000X0.350000X-0.450000X0*%
%ADD43RoundRect,0.250000X-0.350000X-0.450000X0.350000X-0.450000X0.350000X0.450000X-0.350000X0.450000X0*%
%ADD44RoundRect,0.250000X-0.650000X0.412500X-0.650000X-0.412500X0.650000X-0.412500X0.650000X0.412500X0*%
%ADD45RoundRect,0.250000X-0.412500X-0.650000X0.412500X-0.650000X0.412500X0.650000X-0.412500X0.650000X0*%
%ADD46R,2.032000X2.032000*%
%ADD47C,2.032000*%
%ADD48RoundRect,0.250000X0.412500X0.650000X-0.412500X0.650000X-0.412500X-0.650000X0.412500X-0.650000X0*%
%ADD49Outline4P,-2.150000X-1.800000X2.150000X-0.800000X2.150000X0.800000X-2.150000X1.800000X180.000000*%
%ADD50Outline4P,-2.150000X-1.800000X2.150000X-0.800000X2.150000X0.800000X-2.150000X1.800000X0.000000*%
%ADD51O,0.599999X0.299999*%
%ADD52R,2.600000X2.999999*%
%ADD53C,0.499999*%
%ADD54RoundRect,0.250000X-0.650000X1.500000X-0.650000X-1.500000X0.650000X-1.500000X0.650000X1.500000X0*%
%ADD55RoundRect,0.250000X-0.625000X0.400000X-0.625000X-0.400000X0.625000X-0.400000X0.625000X0.400000X0*%
%ADD56RoundRect,0.150000X0.825000X0.150000X-0.825000X0.150000X-0.825000X-0.150000X0.825000X-0.150000X0*%
%ADD57RoundRect,0.250000X0.450000X-0.350000X0.450000X0.350000X-0.450000X0.350000X-0.450000X-0.350000X0*%
%ADD58R,1.500000X3.600000*%
%ADD59C,1.734000*%
%ADD60RoundRect,0.102000X0.765000X0.765000X-0.765000X0.765000X-0.765000X-0.765000X0.765000X-0.765000X0*%
%ADD61RoundRect,0.250000X0.650000X-0.412500X0.650000X0.412500X-0.650000X0.412500X-0.650000X-0.412500X0*%
%ADD62RoundRect,0.237500X-0.237500X0.250000X-0.237500X-0.250000X0.237500X-0.250000X0.237500X0.250000X0*%
%ADD63R,2.413000X2.413000*%
%ADD64C,2.413000*%
G04 APERTURE END LIST*
D10*
X133439019Y-122335677D02*
X133439019Y-121764249D01*
X134439019Y-122049963D02*
X133439019Y-122049963D01*
X133439019Y-121526153D02*
X134439019Y-120859487D01*
X133439019Y-120859487D02*
X134439019Y-121526153D01*
X133534257Y-120526153D02*
X133486638Y-120478534D01*
X133486638Y-120478534D02*
X133439019Y-120383296D01*
X133439019Y-120383296D02*
X133439019Y-120145201D01*
X133439019Y-120145201D02*
X133486638Y-120049963D01*
X133486638Y-120049963D02*
X133534257Y-120002344D01*
X133534257Y-120002344D02*
X133629495Y-119954725D01*
X133629495Y-119954725D02*
X133724733Y-119954725D01*
X133724733Y-119954725D02*
X133867590Y-120002344D01*
X133867590Y-120002344D02*
X134439019Y-120573772D01*
X134439019Y-120573772D02*
X134439019Y-119954725D01*
X134439019Y-124516992D02*
X133962828Y-124850325D01*
X134439019Y-125088420D02*
X133439019Y-125088420D01*
X133439019Y-125088420D02*
X133439019Y-124707468D01*
X133439019Y-124707468D02*
X133486638Y-124612230D01*
X133486638Y-124612230D02*
X133534257Y-124564611D01*
X133534257Y-124564611D02*
X133629495Y-124516992D01*
X133629495Y-124516992D02*
X133772352Y-124516992D01*
X133772352Y-124516992D02*
X133867590Y-124564611D01*
X133867590Y-124564611D02*
X133915209Y-124612230D01*
X133915209Y-124612230D02*
X133962828Y-124707468D01*
X133962828Y-124707468D02*
X133962828Y-125088420D01*
X133439019Y-124183658D02*
X134439019Y-123516992D01*
X133439019Y-123516992D02*
X134439019Y-124183658D01*
X133534257Y-123183658D02*
X133486638Y-123136039D01*
X133486638Y-123136039D02*
X133439019Y-123040801D01*
X133439019Y-123040801D02*
X133439019Y-122802706D01*
X133439019Y-122802706D02*
X133486638Y-122707468D01*
X133486638Y-122707468D02*
X133534257Y-122659849D01*
X133534257Y-122659849D02*
X133629495Y-122612230D01*
X133629495Y-122612230D02*
X133724733Y-122612230D01*
X133724733Y-122612230D02*
X133867590Y-122659849D01*
X133867590Y-122659849D02*
X134439019Y-123231277D01*
X134439019Y-123231277D02*
X134439019Y-122612230D01*
D11*
X87884000Y-99618800D02*
X88984000Y-99618800D01*
X89384000Y-99618800D02*
X90484000Y-99618800D01*
X90884000Y-99618800D02*
X91984000Y-99618800D01*
X92384000Y-99618800D02*
X92456000Y-99618800D01*
X92456000Y-99618800D02*
X92456000Y-100718800D01*
X92456000Y-101118800D02*
X92456000Y-102218800D01*
X92456000Y-102618800D02*
X92456000Y-103718800D01*
X92456000Y-104118800D02*
X92456000Y-105218800D01*
X92456000Y-105308400D02*
X91356000Y-105308400D01*
X90956000Y-105308400D02*
X89856000Y-105308400D01*
X89456000Y-105308400D02*
X88356000Y-105308400D01*
X87956000Y-105308400D02*
X87884000Y-105308400D01*
X87884000Y-105308400D02*
X87884000Y-104208400D01*
X87884000Y-103808400D02*
X87884000Y-102708400D01*
X87884000Y-102308400D02*
X87884000Y-101208400D01*
X87884000Y-100808400D02*
X87884000Y-99708400D01*
X83159600Y-109575600D02*
X84259600Y-109575600D01*
X84659600Y-109575600D02*
X85759600Y-109575600D01*
X86159600Y-109575600D02*
X87259600Y-109575600D01*
X87659600Y-109575600D02*
X88759600Y-109575600D01*
X89154000Y-109575600D02*
X89154000Y-110675600D01*
X89154000Y-111075600D02*
X89154000Y-112175600D01*
X89154000Y-112575600D02*
X89154000Y-113675600D01*
X89154000Y-113690400D02*
X88054000Y-113690400D01*
X87654000Y-113690400D02*
X86554000Y-113690400D01*
X86154000Y-113690400D02*
X85054000Y-113690400D01*
X84654000Y-113690400D02*
X83554000Y-113690400D01*
X83159600Y-113690400D02*
X83159600Y-112590400D01*
X83159600Y-112190400D02*
X83159600Y-111090400D01*
X83159600Y-110690400D02*
X83159600Y-109590400D01*
X100634800Y-108305600D02*
X100634800Y-109405600D01*
X100634800Y-109805600D02*
X100634800Y-110905600D01*
X100634800Y-111305600D02*
X100634800Y-112405600D01*
X100634800Y-112674400D02*
X101734800Y-112674400D01*
X102134800Y-112674400D02*
X103234800Y-112674400D01*
X103634800Y-112674400D02*
X104734800Y-112674400D01*
X105134800Y-112674400D02*
X106234800Y-112674400D01*
X106375200Y-112674400D02*
X106375200Y-111574400D01*
X106375200Y-111174400D02*
X106375200Y-110074400D01*
X106375200Y-109674400D02*
X106375200Y-109372400D01*
X106375200Y-109372400D02*
X105275200Y-109372400D01*
X105156000Y-109372400D02*
X105156000Y-108272400D01*
X105156000Y-107872400D02*
X105156000Y-107086400D01*
X105156000Y-107086400D02*
X104056000Y-107086400D01*
X103656000Y-107086400D02*
X102556000Y-107086400D01*
X102158800Y-107086400D02*
X102158800Y-108186400D01*
X102158800Y-108305600D02*
X101058800Y-108305600D01*
X100658800Y-108305600D02*
X100634800Y-108305600D01*
X80822800Y-105054400D02*
X81922800Y-105054400D01*
X82322800Y-105054400D02*
X83422800Y-105054400D01*
X83822800Y-105054400D02*
X84734400Y-105054400D01*
X84734400Y-105054400D02*
X84734400Y-106154400D01*
X84734400Y-106554400D02*
X84734400Y-107654400D01*
X84734400Y-108054400D02*
X84734400Y-108915200D01*
X84734400Y-108915200D02*
X83634400Y-108915200D01*
X83234400Y-108915200D02*
X82134400Y-108915200D01*
X81734400Y-108915200D02*
X80822800Y-108915200D01*
X80822800Y-108915200D02*
X80822800Y-107815200D01*
X80822800Y-107415200D02*
X80822800Y-106315200D01*
X80822800Y-105915200D02*
X80822800Y-105054400D01*
X96418400Y-112877600D02*
X97518400Y-112877600D01*
X97918400Y-112877600D02*
X99018400Y-112877600D01*
X99418400Y-112877600D02*
X100518400Y-112877600D01*
X100918400Y-112877600D02*
X102018400Y-112877600D01*
X102418400Y-112877600D02*
X103518400Y-112877600D01*
X103733600Y-112877600D02*
X103733600Y-113977600D01*
X103733600Y-114377600D02*
X103733600Y-115477600D01*
X103733600Y-115877600D02*
X103733600Y-116977600D01*
X103733600Y-117377600D02*
X103733600Y-118160800D01*
X103733600Y-118160800D02*
X102633600Y-118160800D01*
X102233600Y-118160800D02*
X101133600Y-118160800D01*
X100733600Y-118160800D02*
X99633600Y-118160800D01*
X99233600Y-118160800D02*
X98133600Y-118160800D01*
X97733600Y-118160800D02*
X96633600Y-118160800D01*
X96418400Y-118160800D02*
X96418400Y-117060800D01*
X96418400Y-116660800D02*
X96418400Y-115560800D01*
X96418400Y-115160800D02*
X96418400Y-114060800D01*
X96418400Y-113660800D02*
X96418400Y-112877600D01*
X80797400Y-99314000D02*
X81897400Y-99314000D01*
X82297400Y-99314000D02*
X83397400Y-99314000D01*
X83797400Y-99314000D02*
X84897400Y-99314000D01*
X85297400Y-99314000D02*
X86397400Y-99314000D01*
X86797400Y-99314000D02*
X87604600Y-99314000D01*
X87604600Y-99314000D02*
X87604600Y-100414000D01*
X87604600Y-100814000D02*
X87604600Y-101914000D01*
X87604600Y-102314000D02*
X87604600Y-103414000D01*
X87604600Y-103814000D02*
X87604600Y-104800400D01*
X87604600Y-104800400D02*
X86504600Y-104800400D01*
X86104600Y-104800400D02*
X85004600Y-104800400D01*
X84604600Y-104800400D02*
X83504600Y-104800400D01*
X83104600Y-104800400D02*
X82004600Y-104800400D01*
X81604600Y-104800400D02*
X80797400Y-104800400D01*
X80797400Y-104800400D02*
X80797400Y-103700400D01*
X80797400Y-103300400D02*
X80797400Y-102200400D01*
X80797400Y-101800400D02*
X80797400Y-100700400D01*
X80797400Y-100300400D02*
X80797400Y-99314000D01*
X90017600Y-108153200D02*
X91117600Y-108153200D01*
X91517600Y-108153200D02*
X92617600Y-108153200D01*
X93017600Y-108153200D02*
X94117600Y-108153200D01*
X94517600Y-108153200D02*
X95617600Y-108153200D01*
X96017600Y-108153200D02*
X97117600Y-108153200D01*
X97517600Y-108153200D02*
X98617600Y-108153200D01*
X99017600Y-108153200D02*
X99720400Y-108153200D01*
X99720400Y-108153200D02*
X99720400Y-109253200D01*
X99720400Y-109653200D02*
X99720400Y-110753200D01*
X99720400Y-111153200D02*
X99720400Y-112253200D01*
X99720400Y-112572800D02*
X98620400Y-112572800D01*
X98220400Y-112572800D02*
X97120400Y-112572800D01*
X96720400Y-112572800D02*
X95620400Y-112572800D01*
X95220400Y-112572800D02*
X94120400Y-112572800D01*
X93720400Y-112572800D02*
X92620400Y-112572800D01*
X92220400Y-112572800D02*
X91120400Y-112572800D01*
X90720400Y-112572800D02*
X90017600Y-112572800D01*
X90017600Y-112572800D02*
X90017600Y-111472800D01*
X90017600Y-111072800D02*
X90017600Y-109972800D01*
X90017600Y-109572800D02*
X90017600Y-108472800D01*
D10*
X118170512Y-132238809D02*
X118313369Y-132286428D01*
X118313369Y-132286428D02*
X118360988Y-132334047D01*
X118360988Y-132334047D02*
X118408607Y-132429285D01*
X118408607Y-132429285D02*
X118408607Y-132572142D01*
X118408607Y-132572142D02*
X118360988Y-132667380D01*
X118360988Y-132667380D02*
X118313369Y-132715000D01*
X118313369Y-132715000D02*
X118218131Y-132762619D01*
X118218131Y-132762619D02*
X117837179Y-132762619D01*
X117837179Y-132762619D02*
X117837179Y-131762619D01*
X117837179Y-131762619D02*
X118170512Y-131762619D01*
X118170512Y-131762619D02*
X118265750Y-131810238D01*
X118265750Y-131810238D02*
X118313369Y-131857857D01*
X118313369Y-131857857D02*
X118360988Y-131953095D01*
X118360988Y-131953095D02*
X118360988Y-132048333D01*
X118360988Y-132048333D02*
X118313369Y-132143571D01*
X118313369Y-132143571D02*
X118265750Y-132191190D01*
X118265750Y-132191190D02*
X118170512Y-132238809D01*
X118170512Y-132238809D02*
X117837179Y-132238809D01*
X84356580Y-112172592D02*
X84404200Y-112220211D01*
X84404200Y-112220211D02*
X84451819Y-112363068D01*
X84451819Y-112363068D02*
X84451819Y-112458306D01*
X84451819Y-112458306D02*
X84404200Y-112601163D01*
X84404200Y-112601163D02*
X84308961Y-112696401D01*
X84308961Y-112696401D02*
X84213723Y-112744020D01*
X84213723Y-112744020D02*
X84023247Y-112791639D01*
X84023247Y-112791639D02*
X83880390Y-112791639D01*
X83880390Y-112791639D02*
X83689914Y-112744020D01*
X83689914Y-112744020D02*
X83594676Y-112696401D01*
X83594676Y-112696401D02*
X83499438Y-112601163D01*
X83499438Y-112601163D02*
X83451819Y-112458306D01*
X83451819Y-112458306D02*
X83451819Y-112363068D01*
X83451819Y-112363068D02*
X83499438Y-112220211D01*
X83499438Y-112220211D02*
X83547057Y-112172592D01*
X84547057Y-111982116D02*
X84547057Y-111220211D01*
X83785152Y-111124972D02*
X83785152Y-110744020D01*
X84451819Y-110982115D02*
X83594676Y-110982115D01*
X83594676Y-110982115D02*
X83499438Y-110934496D01*
X83499438Y-110934496D02*
X83451819Y-110839258D01*
X83451819Y-110839258D02*
X83451819Y-110744020D01*
X83785152Y-110553543D02*
X83785152Y-110172591D01*
X84451819Y-110410686D02*
X83594676Y-110410686D01*
X83594676Y-110410686D02*
X83499438Y-110363067D01*
X83499438Y-110363067D02*
X83451819Y-110267829D01*
X83451819Y-110267829D02*
X83451819Y-110172591D01*
X99409407Y-117782980D02*
X99361788Y-117830600D01*
X99361788Y-117830600D02*
X99218931Y-117878219D01*
X99218931Y-117878219D02*
X99123693Y-117878219D01*
X99123693Y-117878219D02*
X98980836Y-117830600D01*
X98980836Y-117830600D02*
X98885598Y-117735361D01*
X98885598Y-117735361D02*
X98837979Y-117640123D01*
X98837979Y-117640123D02*
X98790360Y-117449647D01*
X98790360Y-117449647D02*
X98790360Y-117306790D01*
X98790360Y-117306790D02*
X98837979Y-117116314D01*
X98837979Y-117116314D02*
X98885598Y-117021076D01*
X98885598Y-117021076D02*
X98980836Y-116925838D01*
X98980836Y-116925838D02*
X99123693Y-116878219D01*
X99123693Y-116878219D02*
X99218931Y-116878219D01*
X99218931Y-116878219D02*
X99361788Y-116925838D01*
X99361788Y-116925838D02*
X99409407Y-116973457D01*
X99599884Y-117973457D02*
X100361788Y-117973457D01*
X100599884Y-117878219D02*
X100599884Y-117211552D01*
X100599884Y-116878219D02*
X100552265Y-116925838D01*
X100552265Y-116925838D02*
X100599884Y-116973457D01*
X100599884Y-116973457D02*
X100647503Y-116925838D01*
X100647503Y-116925838D02*
X100599884Y-116878219D01*
X100599884Y-116878219D02*
X100599884Y-116973457D01*
X101076074Y-117211552D02*
X101076074Y-117878219D01*
X101076074Y-117306790D02*
X101123693Y-117259171D01*
X101123693Y-117259171D02*
X101218931Y-117211552D01*
X101218931Y-117211552D02*
X101361788Y-117211552D01*
X101361788Y-117211552D02*
X101457026Y-117259171D01*
X101457026Y-117259171D02*
X101504645Y-117354409D01*
X101504645Y-117354409D02*
X101504645Y-117878219D01*
X114497007Y-128444619D02*
X114163674Y-127968428D01*
X113925579Y-128444619D02*
X113925579Y-127444619D01*
X113925579Y-127444619D02*
X114306531Y-127444619D01*
X114306531Y-127444619D02*
X114401769Y-127492238D01*
X114401769Y-127492238D02*
X114449388Y-127539857D01*
X114449388Y-127539857D02*
X114497007Y-127635095D01*
X114497007Y-127635095D02*
X114497007Y-127777952D01*
X114497007Y-127777952D02*
X114449388Y-127873190D01*
X114449388Y-127873190D02*
X114401769Y-127920809D01*
X114401769Y-127920809D02*
X114306531Y-127968428D01*
X114306531Y-127968428D02*
X113925579Y-127968428D01*
X114877960Y-128397000D02*
X115020817Y-128444619D01*
X115020817Y-128444619D02*
X115258912Y-128444619D01*
X115258912Y-128444619D02*
X115354150Y-128397000D01*
X115354150Y-128397000D02*
X115401769Y-128349380D01*
X115401769Y-128349380D02*
X115449388Y-128254142D01*
X115449388Y-128254142D02*
X115449388Y-128158904D01*
X115449388Y-128158904D02*
X115401769Y-128063666D01*
X115401769Y-128063666D02*
X115354150Y-128016047D01*
X115354150Y-128016047D02*
X115258912Y-127968428D01*
X115258912Y-127968428D02*
X115068436Y-127920809D01*
X115068436Y-127920809D02*
X114973198Y-127873190D01*
X114973198Y-127873190D02*
X114925579Y-127825571D01*
X114925579Y-127825571D02*
X114877960Y-127730333D01*
X114877960Y-127730333D02*
X114877960Y-127635095D01*
X114877960Y-127635095D02*
X114925579Y-127539857D01*
X114925579Y-127539857D02*
X114973198Y-127492238D01*
X114973198Y-127492238D02*
X115068436Y-127444619D01*
X115068436Y-127444619D02*
X115306531Y-127444619D01*
X115306531Y-127444619D02*
X115449388Y-127492238D01*
X116306531Y-127777952D02*
X116306531Y-128444619D01*
X116068436Y-127397000D02*
X115830341Y-128111285D01*
X115830341Y-128111285D02*
X116449388Y-128111285D01*
X116973198Y-127873190D02*
X116877960Y-127825571D01*
X116877960Y-127825571D02*
X116830341Y-127777952D01*
X116830341Y-127777952D02*
X116782722Y-127682714D01*
X116782722Y-127682714D02*
X116782722Y-127635095D01*
X116782722Y-127635095D02*
X116830341Y-127539857D01*
X116830341Y-127539857D02*
X116877960Y-127492238D01*
X116877960Y-127492238D02*
X116973198Y-127444619D01*
X116973198Y-127444619D02*
X117163674Y-127444619D01*
X117163674Y-127444619D02*
X117258912Y-127492238D01*
X117258912Y-127492238D02*
X117306531Y-127539857D01*
X117306531Y-127539857D02*
X117354150Y-127635095D01*
X117354150Y-127635095D02*
X117354150Y-127682714D01*
X117354150Y-127682714D02*
X117306531Y-127777952D01*
X117306531Y-127777952D02*
X117258912Y-127825571D01*
X117258912Y-127825571D02*
X117163674Y-127873190D01*
X117163674Y-127873190D02*
X116973198Y-127873190D01*
X116973198Y-127873190D02*
X116877960Y-127920809D01*
X116877960Y-127920809D02*
X116830341Y-127968428D01*
X116830341Y-127968428D02*
X116782722Y-128063666D01*
X116782722Y-128063666D02*
X116782722Y-128254142D01*
X116782722Y-128254142D02*
X116830341Y-128349380D01*
X116830341Y-128349380D02*
X116877960Y-128397000D01*
X116877960Y-128397000D02*
X116973198Y-128444619D01*
X116973198Y-128444619D02*
X117163674Y-128444619D01*
X117163674Y-128444619D02*
X117258912Y-128397000D01*
X117258912Y-128397000D02*
X117306531Y-128349380D01*
X117306531Y-128349380D02*
X117354150Y-128254142D01*
X117354150Y-128254142D02*
X117354150Y-128063666D01*
X117354150Y-128063666D02*
X117306531Y-127968428D01*
X117306531Y-127968428D02*
X117258912Y-127920809D01*
X117258912Y-127920809D02*
X117163674Y-127873190D01*
X118258912Y-127444619D02*
X117782722Y-127444619D01*
X117782722Y-127444619D02*
X117735103Y-127920809D01*
X117735103Y-127920809D02*
X117782722Y-127873190D01*
X117782722Y-127873190D02*
X117877960Y-127825571D01*
X117877960Y-127825571D02*
X118116055Y-127825571D01*
X118116055Y-127825571D02*
X118211293Y-127873190D01*
X118211293Y-127873190D02*
X118258912Y-127920809D01*
X118258912Y-127920809D02*
X118306531Y-128016047D01*
X118306531Y-128016047D02*
X118306531Y-128254142D01*
X118306531Y-128254142D02*
X118258912Y-128349380D01*
X118258912Y-128349380D02*
X118211293Y-128397000D01*
X118211293Y-128397000D02*
X118116055Y-128444619D01*
X118116055Y-128444619D02*
X117877960Y-128444619D01*
X117877960Y-128444619D02*
X117782722Y-128397000D01*
X117782722Y-128397000D02*
X117735103Y-128349380D01*
X91112980Y-111613792D02*
X91160600Y-111661411D01*
X91160600Y-111661411D02*
X91208219Y-111804268D01*
X91208219Y-111804268D02*
X91208219Y-111899506D01*
X91208219Y-111899506D02*
X91160600Y-112042363D01*
X91160600Y-112042363D02*
X91065361Y-112137601D01*
X91065361Y-112137601D02*
X90970123Y-112185220D01*
X90970123Y-112185220D02*
X90779647Y-112232839D01*
X90779647Y-112232839D02*
X90636790Y-112232839D01*
X90636790Y-112232839D02*
X90446314Y-112185220D01*
X90446314Y-112185220D02*
X90351076Y-112137601D01*
X90351076Y-112137601D02*
X90255838Y-112042363D01*
X90255838Y-112042363D02*
X90208219Y-111899506D01*
X90208219Y-111899506D02*
X90208219Y-111804268D01*
X90208219Y-111804268D02*
X90255838Y-111661411D01*
X90255838Y-111661411D02*
X90303457Y-111613792D01*
X91303457Y-111423316D02*
X91303457Y-110661411D01*
X91208219Y-110280458D02*
X91160600Y-110375696D01*
X91160600Y-110375696D02*
X91112980Y-110423315D01*
X91112980Y-110423315D02*
X91017742Y-110470934D01*
X91017742Y-110470934D02*
X90732028Y-110470934D01*
X90732028Y-110470934D02*
X90636790Y-110423315D01*
X90636790Y-110423315D02*
X90589171Y-110375696D01*
X90589171Y-110375696D02*
X90541552Y-110280458D01*
X90541552Y-110280458D02*
X90541552Y-110137601D01*
X90541552Y-110137601D02*
X90589171Y-110042363D01*
X90589171Y-110042363D02*
X90636790Y-109994744D01*
X90636790Y-109994744D02*
X90732028Y-109947125D01*
X90732028Y-109947125D02*
X91017742Y-109947125D01*
X91017742Y-109947125D02*
X91112980Y-109994744D01*
X91112980Y-109994744D02*
X91160600Y-110042363D01*
X91160600Y-110042363D02*
X91208219Y-110137601D01*
X91208219Y-110137601D02*
X91208219Y-110280458D01*
X90541552Y-109089982D02*
X91208219Y-109089982D01*
X90541552Y-109518553D02*
X91065361Y-109518553D01*
X91065361Y-109518553D02*
X91160600Y-109470934D01*
X91160600Y-109470934D02*
X91208219Y-109375696D01*
X91208219Y-109375696D02*
X91208219Y-109232839D01*
X91208219Y-109232839D02*
X91160600Y-109137601D01*
X91160600Y-109137601D02*
X91112980Y-109089982D01*
X90541552Y-108756648D02*
X90541552Y-108375696D01*
X90208219Y-108613791D02*
X91065361Y-108613791D01*
X91065361Y-108613791D02*
X91160600Y-108566172D01*
X91160600Y-108566172D02*
X91208219Y-108470934D01*
X91208219Y-108470934D02*
X91208219Y-108375696D01*
X83305807Y-100555419D02*
X82972474Y-100079228D01*
X82734379Y-100555419D02*
X82734379Y-99555419D01*
X82734379Y-99555419D02*
X83115331Y-99555419D01*
X83115331Y-99555419D02*
X83210569Y-99603038D01*
X83210569Y-99603038D02*
X83258188Y-99650657D01*
X83258188Y-99650657D02*
X83305807Y-99745895D01*
X83305807Y-99745895D02*
X83305807Y-99888752D01*
X83305807Y-99888752D02*
X83258188Y-99983990D01*
X83258188Y-99983990D02*
X83210569Y-100031609D01*
X83210569Y-100031609D02*
X83115331Y-100079228D01*
X83115331Y-100079228D02*
X82734379Y-100079228D01*
X83496284Y-100650657D02*
X84258188Y-100650657D01*
X84353427Y-99888752D02*
X84734379Y-99888752D01*
X84496284Y-100555419D02*
X84496284Y-99698276D01*
X84496284Y-99698276D02*
X84543903Y-99603038D01*
X84543903Y-99603038D02*
X84639141Y-99555419D01*
X84639141Y-99555419D02*
X84734379Y-99555419D01*
X85067713Y-100555419D02*
X85067713Y-99555419D01*
X85067713Y-99936371D02*
X85162951Y-99888752D01*
X85162951Y-99888752D02*
X85353427Y-99888752D01*
X85353427Y-99888752D02*
X85448665Y-99936371D01*
X85448665Y-99936371D02*
X85496284Y-99983990D01*
X85496284Y-99983990D02*
X85543903Y-100079228D01*
X85543903Y-100079228D02*
X85543903Y-100364942D01*
X85543903Y-100364942D02*
X85496284Y-100460180D01*
X85496284Y-100460180D02*
X85448665Y-100507800D01*
X85448665Y-100507800D02*
X85353427Y-100555419D01*
X85353427Y-100555419D02*
X85162951Y-100555419D01*
X85162951Y-100555419D02*
X85067713Y-100507800D01*
X85972475Y-100555419D02*
X85972475Y-99555419D01*
X85972475Y-99936371D02*
X86067713Y-99888752D01*
X86067713Y-99888752D02*
X86258189Y-99888752D01*
X86258189Y-99888752D02*
X86353427Y-99936371D01*
X86353427Y-99936371D02*
X86401046Y-99983990D01*
X86401046Y-99983990D02*
X86448665Y-100079228D01*
X86448665Y-100079228D02*
X86448665Y-100364942D01*
X86448665Y-100364942D02*
X86401046Y-100460180D01*
X86401046Y-100460180D02*
X86353427Y-100507800D01*
X86353427Y-100507800D02*
X86258189Y-100555419D01*
X86258189Y-100555419D02*
X86067713Y-100555419D01*
X86067713Y-100555419D02*
X85972475Y-100507800D01*
X82013419Y-108108592D02*
X81537228Y-108441925D01*
X82013419Y-108680020D02*
X81013419Y-108680020D01*
X81013419Y-108680020D02*
X81013419Y-108299068D01*
X81013419Y-108299068D02*
X81061038Y-108203830D01*
X81061038Y-108203830D02*
X81108657Y-108156211D01*
X81108657Y-108156211D02*
X81203895Y-108108592D01*
X81203895Y-108108592D02*
X81346752Y-108108592D01*
X81346752Y-108108592D02*
X81441990Y-108156211D01*
X81441990Y-108156211D02*
X81489609Y-108203830D01*
X81489609Y-108203830D02*
X81537228Y-108299068D01*
X81537228Y-108299068D02*
X81537228Y-108680020D01*
X82108657Y-107918116D02*
X82108657Y-107156211D01*
X81346752Y-107060972D02*
X81346752Y-106680020D01*
X82013419Y-106918115D02*
X81156276Y-106918115D01*
X81156276Y-106918115D02*
X81061038Y-106870496D01*
X81061038Y-106870496D02*
X81013419Y-106775258D01*
X81013419Y-106775258D02*
X81013419Y-106680020D01*
X82013419Y-106346686D02*
X81013419Y-106346686D01*
X81394371Y-106346686D02*
X81346752Y-106251448D01*
X81346752Y-106251448D02*
X81346752Y-106060972D01*
X81346752Y-106060972D02*
X81394371Y-105965734D01*
X81394371Y-105965734D02*
X81441990Y-105918115D01*
X81441990Y-105918115D02*
X81537228Y-105870496D01*
X81537228Y-105870496D02*
X81822942Y-105870496D01*
X81822942Y-105870496D02*
X81918180Y-105918115D01*
X81918180Y-105918115D02*
X81965800Y-105965734D01*
X81965800Y-105965734D02*
X82013419Y-106060972D01*
X82013419Y-106060972D02*
X82013419Y-106251448D01*
X82013419Y-106251448D02*
X81965800Y-106346686D01*
X81346752Y-105584781D02*
X81346752Y-105203829D01*
X81013419Y-105441924D02*
X81870561Y-105441924D01*
X81870561Y-105441924D02*
X81965800Y-105394305D01*
X81965800Y-105394305D02*
X82013419Y-105299067D01*
X82013419Y-105299067D02*
X82013419Y-105203829D01*
X102965407Y-108327819D02*
X102632074Y-107851628D01*
X102393979Y-108327819D02*
X102393979Y-107327819D01*
X102393979Y-107327819D02*
X102774931Y-107327819D01*
X102774931Y-107327819D02*
X102870169Y-107375438D01*
X102870169Y-107375438D02*
X102917788Y-107423057D01*
X102917788Y-107423057D02*
X102965407Y-107518295D01*
X102965407Y-107518295D02*
X102965407Y-107661152D01*
X102965407Y-107661152D02*
X102917788Y-107756390D01*
X102917788Y-107756390D02*
X102870169Y-107804009D01*
X102870169Y-107804009D02*
X102774931Y-107851628D01*
X102774931Y-107851628D02*
X102393979Y-107851628D01*
X103155884Y-108423057D02*
X103917788Y-108423057D01*
X104155884Y-108327819D02*
X104155884Y-107661152D01*
X104155884Y-107851628D02*
X104203503Y-107756390D01*
X104203503Y-107756390D02*
X104251122Y-107708771D01*
X104251122Y-107708771D02*
X104346360Y-107661152D01*
X104346360Y-107661152D02*
X104441598Y-107661152D01*
X104632075Y-107661152D02*
X105013027Y-107661152D01*
X104774932Y-107327819D02*
X104774932Y-108184961D01*
X104774932Y-108184961D02*
X104822551Y-108280200D01*
X104822551Y-108280200D02*
X104917789Y-108327819D01*
X104917789Y-108327819D02*
X105013027Y-108327819D01*
X132940466Y-102345904D02*
X132940466Y-101584000D01*
X133321419Y-101964952D02*
X132559514Y-101964952D01*
X133321419Y-100584000D02*
X133321419Y-101155428D01*
X133321419Y-100869714D02*
X132321419Y-100869714D01*
X132321419Y-100869714D02*
X132464276Y-100964952D01*
X132464276Y-100964952D02*
X132559514Y-101060190D01*
X132559514Y-101060190D02*
X132607133Y-101155428D01*
X132416657Y-100203047D02*
X132369038Y-100155428D01*
X132369038Y-100155428D02*
X132321419Y-100060190D01*
X132321419Y-100060190D02*
X132321419Y-99822095D01*
X132321419Y-99822095D02*
X132369038Y-99726857D01*
X132369038Y-99726857D02*
X132416657Y-99679238D01*
X132416657Y-99679238D02*
X132511895Y-99631619D01*
X132511895Y-99631619D02*
X132607133Y-99631619D01*
X132607133Y-99631619D02*
X132749990Y-99679238D01*
X132749990Y-99679238D02*
X133321419Y-100250666D01*
X133321419Y-100250666D02*
X133321419Y-99631619D01*
X132321419Y-99345904D02*
X133321419Y-99012571D01*
X133321419Y-99012571D02*
X132321419Y-98679238D01*
X89376407Y-100764980D02*
X89328788Y-100812600D01*
X89328788Y-100812600D02*
X89185931Y-100860219D01*
X89185931Y-100860219D02*
X89090693Y-100860219D01*
X89090693Y-100860219D02*
X88947836Y-100812600D01*
X88947836Y-100812600D02*
X88852598Y-100717361D01*
X88852598Y-100717361D02*
X88804979Y-100622123D01*
X88804979Y-100622123D02*
X88757360Y-100431647D01*
X88757360Y-100431647D02*
X88757360Y-100288790D01*
X88757360Y-100288790D02*
X88804979Y-100098314D01*
X88804979Y-100098314D02*
X88852598Y-100003076D01*
X88852598Y-100003076D02*
X88947836Y-99907838D01*
X88947836Y-99907838D02*
X89090693Y-99860219D01*
X89090693Y-99860219D02*
X89185931Y-99860219D01*
X89185931Y-99860219D02*
X89328788Y-99907838D01*
X89328788Y-99907838D02*
X89376407Y-99955457D01*
X89566884Y-100955457D02*
X90328788Y-100955457D01*
X90519265Y-100812600D02*
X90614503Y-100860219D01*
X90614503Y-100860219D02*
X90804979Y-100860219D01*
X90804979Y-100860219D02*
X90900217Y-100812600D01*
X90900217Y-100812600D02*
X90947836Y-100717361D01*
X90947836Y-100717361D02*
X90947836Y-100669742D01*
X90947836Y-100669742D02*
X90900217Y-100574504D01*
X90900217Y-100574504D02*
X90804979Y-100526885D01*
X90804979Y-100526885D02*
X90662122Y-100526885D01*
X90662122Y-100526885D02*
X90566884Y-100479266D01*
X90566884Y-100479266D02*
X90519265Y-100384028D01*
X90519265Y-100384028D02*
X90519265Y-100336409D01*
X90519265Y-100336409D02*
X90566884Y-100241171D01*
X90566884Y-100241171D02*
X90662122Y-100193552D01*
X90662122Y-100193552D02*
X90804979Y-100193552D01*
X90804979Y-100193552D02*
X90900217Y-100241171D01*
X91328789Y-100812600D02*
X91424027Y-100860219D01*
X91424027Y-100860219D02*
X91614503Y-100860219D01*
X91614503Y-100860219D02*
X91709741Y-100812600D01*
X91709741Y-100812600D02*
X91757360Y-100717361D01*
X91757360Y-100717361D02*
X91757360Y-100669742D01*
X91757360Y-100669742D02*
X91709741Y-100574504D01*
X91709741Y-100574504D02*
X91614503Y-100526885D01*
X91614503Y-100526885D02*
X91471646Y-100526885D01*
X91471646Y-100526885D02*
X91376408Y-100479266D01*
X91376408Y-100479266D02*
X91328789Y-100384028D01*
X91328789Y-100384028D02*
X91328789Y-100336409D01*
X91328789Y-100336409D02*
X91376408Y-100241171D01*
X91376408Y-100241171D02*
X91471646Y-100193552D01*
X91471646Y-100193552D02*
X91614503Y-100193552D01*
X91614503Y-100193552D02*
X91709741Y-100241171D01*
X132470638Y-104955811D02*
X132423019Y-105051049D01*
X132423019Y-105051049D02*
X132423019Y-105193906D01*
X132423019Y-105193906D02*
X132470638Y-105336763D01*
X132470638Y-105336763D02*
X132565876Y-105432001D01*
X132565876Y-105432001D02*
X132661114Y-105479620D01*
X132661114Y-105479620D02*
X132851590Y-105527239D01*
X132851590Y-105527239D02*
X132994447Y-105527239D01*
X132994447Y-105527239D02*
X133184923Y-105479620D01*
X133184923Y-105479620D02*
X133280161Y-105432001D01*
X133280161Y-105432001D02*
X133375400Y-105336763D01*
X133375400Y-105336763D02*
X133423019Y-105193906D01*
X133423019Y-105193906D02*
X133423019Y-105098668D01*
X133423019Y-105098668D02*
X133375400Y-104955811D01*
X133375400Y-104955811D02*
X133327780Y-104908192D01*
X133327780Y-104908192D02*
X132994447Y-104908192D01*
X132994447Y-104908192D02*
X132994447Y-105098668D01*
X133423019Y-104479620D02*
X132423019Y-104479620D01*
X132423019Y-104479620D02*
X133423019Y-103908192D01*
X133423019Y-103908192D02*
X132423019Y-103908192D01*
X133423019Y-103432001D02*
X132423019Y-103432001D01*
X132423019Y-103432001D02*
X132423019Y-103193906D01*
X132423019Y-103193906D02*
X132470638Y-103051049D01*
X132470638Y-103051049D02*
X132565876Y-102955811D01*
X132565876Y-102955811D02*
X132661114Y-102908192D01*
X132661114Y-102908192D02*
X132851590Y-102860573D01*
X132851590Y-102860573D02*
X132994447Y-102860573D01*
X132994447Y-102860573D02*
X133184923Y-102908192D01*
X133184923Y-102908192D02*
X133280161Y-102955811D01*
X133280161Y-102955811D02*
X133375400Y-103051049D01*
X133375400Y-103051049D02*
X133423019Y-103193906D01*
X133423019Y-103193906D02*
X133423019Y-103432001D01*
D12*
X87363710Y-88016714D02*
X87577996Y-88088142D01*
X87577996Y-88088142D02*
X87649425Y-88159571D01*
X87649425Y-88159571D02*
X87720853Y-88302428D01*
X87720853Y-88302428D02*
X87720853Y-88516714D01*
X87720853Y-88516714D02*
X87649425Y-88659571D01*
X87649425Y-88659571D02*
X87577996Y-88731000D01*
X87577996Y-88731000D02*
X87435139Y-88802428D01*
X87435139Y-88802428D02*
X86863710Y-88802428D01*
X86863710Y-88802428D02*
X86863710Y-87302428D01*
X86863710Y-87302428D02*
X87363710Y-87302428D01*
X87363710Y-87302428D02*
X87506568Y-87373857D01*
X87506568Y-87373857D02*
X87577996Y-87445285D01*
X87577996Y-87445285D02*
X87649425Y-87588142D01*
X87649425Y-87588142D02*
X87649425Y-87731000D01*
X87649425Y-87731000D02*
X87577996Y-87873857D01*
X87577996Y-87873857D02*
X87506568Y-87945285D01*
X87506568Y-87945285D02*
X87363710Y-88016714D01*
X87363710Y-88016714D02*
X86863710Y-88016714D01*
X88649425Y-87302428D02*
X88935139Y-87302428D01*
X88935139Y-87302428D02*
X89077996Y-87373857D01*
X89077996Y-87373857D02*
X89220853Y-87516714D01*
X89220853Y-87516714D02*
X89292282Y-87802428D01*
X89292282Y-87802428D02*
X89292282Y-88302428D01*
X89292282Y-88302428D02*
X89220853Y-88588142D01*
X89220853Y-88588142D02*
X89077996Y-88731000D01*
X89077996Y-88731000D02*
X88935139Y-88802428D01*
X88935139Y-88802428D02*
X88649425Y-88802428D01*
X88649425Y-88802428D02*
X88506568Y-88731000D01*
X88506568Y-88731000D02*
X88363710Y-88588142D01*
X88363710Y-88588142D02*
X88292282Y-88302428D01*
X88292282Y-88302428D02*
X88292282Y-87802428D01*
X88292282Y-87802428D02*
X88363710Y-87516714D01*
X88363710Y-87516714D02*
X88506568Y-87373857D01*
X88506568Y-87373857D02*
X88649425Y-87302428D01*
X90220854Y-87302428D02*
X90506568Y-87302428D01*
X90506568Y-87302428D02*
X90649425Y-87373857D01*
X90649425Y-87373857D02*
X90792282Y-87516714D01*
X90792282Y-87516714D02*
X90863711Y-87802428D01*
X90863711Y-87802428D02*
X90863711Y-88302428D01*
X90863711Y-88302428D02*
X90792282Y-88588142D01*
X90792282Y-88588142D02*
X90649425Y-88731000D01*
X90649425Y-88731000D02*
X90506568Y-88802428D01*
X90506568Y-88802428D02*
X90220854Y-88802428D01*
X90220854Y-88802428D02*
X90077997Y-88731000D01*
X90077997Y-88731000D02*
X89935139Y-88588142D01*
X89935139Y-88588142D02*
X89863711Y-88302428D01*
X89863711Y-88302428D02*
X89863711Y-87802428D01*
X89863711Y-87802428D02*
X89935139Y-87516714D01*
X89935139Y-87516714D02*
X90077997Y-87373857D01*
X90077997Y-87373857D02*
X90220854Y-87302428D01*
X91292283Y-87302428D02*
X92149426Y-87302428D01*
X91720854Y-88802428D02*
X91720854Y-87302428D01*
D10*
X114081160Y-132476904D02*
X114557350Y-132476904D01*
X113985922Y-132762619D02*
X114319255Y-131762619D01*
X114319255Y-131762619D02*
X114652588Y-132762619D01*
D12*
X94172453Y-88802428D02*
X93672453Y-88088142D01*
X93315310Y-88802428D02*
X93315310Y-87302428D01*
X93315310Y-87302428D02*
X93886739Y-87302428D01*
X93886739Y-87302428D02*
X94029596Y-87373857D01*
X94029596Y-87373857D02*
X94101025Y-87445285D01*
X94101025Y-87445285D02*
X94172453Y-87588142D01*
X94172453Y-87588142D02*
X94172453Y-87802428D01*
X94172453Y-87802428D02*
X94101025Y-87945285D01*
X94101025Y-87945285D02*
X94029596Y-88016714D01*
X94029596Y-88016714D02*
X93886739Y-88088142D01*
X93886739Y-88088142D02*
X93315310Y-88088142D01*
X94815310Y-88016714D02*
X95315310Y-88016714D01*
X95529596Y-88802428D02*
X94815310Y-88802428D01*
X94815310Y-88802428D02*
X94815310Y-87302428D01*
X94815310Y-87302428D02*
X95529596Y-87302428D01*
X96101025Y-88731000D02*
X96315311Y-88802428D01*
X96315311Y-88802428D02*
X96672453Y-88802428D01*
X96672453Y-88802428D02*
X96815311Y-88731000D01*
X96815311Y-88731000D02*
X96886739Y-88659571D01*
X96886739Y-88659571D02*
X96958168Y-88516714D01*
X96958168Y-88516714D02*
X96958168Y-88373857D01*
X96958168Y-88373857D02*
X96886739Y-88231000D01*
X96886739Y-88231000D02*
X96815311Y-88159571D01*
X96815311Y-88159571D02*
X96672453Y-88088142D01*
X96672453Y-88088142D02*
X96386739Y-88016714D01*
X96386739Y-88016714D02*
X96243882Y-87945285D01*
X96243882Y-87945285D02*
X96172453Y-87873857D01*
X96172453Y-87873857D02*
X96101025Y-87731000D01*
X96101025Y-87731000D02*
X96101025Y-87588142D01*
X96101025Y-87588142D02*
X96172453Y-87445285D01*
X96172453Y-87445285D02*
X96243882Y-87373857D01*
X96243882Y-87373857D02*
X96386739Y-87302428D01*
X96386739Y-87302428D02*
X96743882Y-87302428D01*
X96743882Y-87302428D02*
X96958168Y-87373857D01*
X97601024Y-88016714D02*
X98101024Y-88016714D01*
X98315310Y-88802428D02*
X97601024Y-88802428D01*
X97601024Y-88802428D02*
X97601024Y-87302428D01*
X97601024Y-87302428D02*
X98315310Y-87302428D01*
X98743882Y-87302428D02*
X99601025Y-87302428D01*
X99172453Y-88802428D02*
X99172453Y-87302428D01*
D10*
X132470638Y-96421411D02*
X132423019Y-96516649D01*
X132423019Y-96516649D02*
X132423019Y-96659506D01*
X132423019Y-96659506D02*
X132470638Y-96802363D01*
X132470638Y-96802363D02*
X132565876Y-96897601D01*
X132565876Y-96897601D02*
X132661114Y-96945220D01*
X132661114Y-96945220D02*
X132851590Y-96992839D01*
X132851590Y-96992839D02*
X132994447Y-96992839D01*
X132994447Y-96992839D02*
X133184923Y-96945220D01*
X133184923Y-96945220D02*
X133280161Y-96897601D01*
X133280161Y-96897601D02*
X133375400Y-96802363D01*
X133375400Y-96802363D02*
X133423019Y-96659506D01*
X133423019Y-96659506D02*
X133423019Y-96564268D01*
X133423019Y-96564268D02*
X133375400Y-96421411D01*
X133375400Y-96421411D02*
X133327780Y-96373792D01*
X133327780Y-96373792D02*
X132994447Y-96373792D01*
X132994447Y-96373792D02*
X132994447Y-96564268D01*
X133423019Y-95945220D02*
X132423019Y-95945220D01*
X132423019Y-95945220D02*
X133423019Y-95373792D01*
X133423019Y-95373792D02*
X132423019Y-95373792D01*
X133423019Y-94897601D02*
X132423019Y-94897601D01*
X132423019Y-94897601D02*
X132423019Y-94659506D01*
X132423019Y-94659506D02*
X132470638Y-94516649D01*
X132470638Y-94516649D02*
X132565876Y-94421411D01*
X132565876Y-94421411D02*
X132661114Y-94373792D01*
X132661114Y-94373792D02*
X132851590Y-94326173D01*
X132851590Y-94326173D02*
X132994447Y-94326173D01*
X132994447Y-94326173D02*
X133184923Y-94373792D01*
X133184923Y-94373792D02*
X133280161Y-94421411D01*
X133280161Y-94421411D02*
X133375400Y-94516649D01*
X133375400Y-94516649D02*
X133423019Y-94659506D01*
X133423019Y-94659506D02*
X133423019Y-94897601D01*
X132423019Y-93278553D02*
X132423019Y-92707125D01*
X133423019Y-92992839D02*
X132423019Y-92992839D01*
X132423019Y-92469029D02*
X133423019Y-91802363D01*
X132423019Y-91802363D02*
X133423019Y-92469029D01*
X133423019Y-90088077D02*
X132946828Y-90421410D01*
X133423019Y-90659505D02*
X132423019Y-90659505D01*
X132423019Y-90659505D02*
X132423019Y-90278553D01*
X132423019Y-90278553D02*
X132470638Y-90183315D01*
X132470638Y-90183315D02*
X132518257Y-90135696D01*
X132518257Y-90135696D02*
X132613495Y-90088077D01*
X132613495Y-90088077D02*
X132756352Y-90088077D01*
X132756352Y-90088077D02*
X132851590Y-90135696D01*
X132851590Y-90135696D02*
X132899209Y-90183315D01*
X132899209Y-90183315D02*
X132946828Y-90278553D01*
X132946828Y-90278553D02*
X132946828Y-90659505D01*
X132423019Y-89754743D02*
X133423019Y-89088077D01*
X132423019Y-89088077D02*
X133423019Y-89754743D01*
X87145367Y-94555300D02*
X87288224Y-94602919D01*
X87288224Y-94602919D02*
X87526319Y-94602919D01*
X87526319Y-94602919D02*
X87621557Y-94555300D01*
X87621557Y-94555300D02*
X87669176Y-94507680D01*
X87669176Y-94507680D02*
X87716795Y-94412442D01*
X87716795Y-94412442D02*
X87716795Y-94317204D01*
X87716795Y-94317204D02*
X87669176Y-94221966D01*
X87669176Y-94221966D02*
X87621557Y-94174347D01*
X87621557Y-94174347D02*
X87526319Y-94126728D01*
X87526319Y-94126728D02*
X87335843Y-94079109D01*
X87335843Y-94079109D02*
X87240605Y-94031490D01*
X87240605Y-94031490D02*
X87192986Y-93983871D01*
X87192986Y-93983871D02*
X87145367Y-93888633D01*
X87145367Y-93888633D02*
X87145367Y-93793395D01*
X87145367Y-93793395D02*
X87192986Y-93698157D01*
X87192986Y-93698157D02*
X87240605Y-93650538D01*
X87240605Y-93650538D02*
X87335843Y-93602919D01*
X87335843Y-93602919D02*
X87573938Y-93602919D01*
X87573938Y-93602919D02*
X87716795Y-93650538D01*
X88050129Y-93602919D02*
X88288224Y-94602919D01*
X88288224Y-94602919D02*
X88478700Y-93888633D01*
X88478700Y-93888633D02*
X88669176Y-94602919D01*
X88669176Y-94602919D02*
X88907272Y-93602919D01*
X89812033Y-94602919D02*
X89240605Y-94602919D01*
X89526319Y-94602919D02*
X89526319Y-93602919D01*
X89526319Y-93602919D02*
X89431081Y-93745776D01*
X89431081Y-93745776D02*
X89335843Y-93841014D01*
X89335843Y-93841014D02*
X89240605Y-93888633D01*
X94674367Y-94555300D02*
X94817224Y-94602919D01*
X94817224Y-94602919D02*
X95055319Y-94602919D01*
X95055319Y-94602919D02*
X95150557Y-94555300D01*
X95150557Y-94555300D02*
X95198176Y-94507680D01*
X95198176Y-94507680D02*
X95245795Y-94412442D01*
X95245795Y-94412442D02*
X95245795Y-94317204D01*
X95245795Y-94317204D02*
X95198176Y-94221966D01*
X95198176Y-94221966D02*
X95150557Y-94174347D01*
X95150557Y-94174347D02*
X95055319Y-94126728D01*
X95055319Y-94126728D02*
X94864843Y-94079109D01*
X94864843Y-94079109D02*
X94769605Y-94031490D01*
X94769605Y-94031490D02*
X94721986Y-93983871D01*
X94721986Y-93983871D02*
X94674367Y-93888633D01*
X94674367Y-93888633D02*
X94674367Y-93793395D01*
X94674367Y-93793395D02*
X94721986Y-93698157D01*
X94721986Y-93698157D02*
X94769605Y-93650538D01*
X94769605Y-93650538D02*
X94864843Y-93602919D01*
X94864843Y-93602919D02*
X95102938Y-93602919D01*
X95102938Y-93602919D02*
X95245795Y-93650538D01*
X95579129Y-93602919D02*
X95817224Y-94602919D01*
X95817224Y-94602919D02*
X96007700Y-93888633D01*
X96007700Y-93888633D02*
X96198176Y-94602919D01*
X96198176Y-94602919D02*
X96436272Y-93602919D01*
X96769605Y-93698157D02*
X96817224Y-93650538D01*
X96817224Y-93650538D02*
X96912462Y-93602919D01*
X96912462Y-93602919D02*
X97150557Y-93602919D01*
X97150557Y-93602919D02*
X97245795Y-93650538D01*
X97245795Y-93650538D02*
X97293414Y-93698157D01*
X97293414Y-93698157D02*
X97341033Y-93793395D01*
X97341033Y-93793395D02*
X97341033Y-93888633D01*
X97341033Y-93888633D02*
X97293414Y-94031490D01*
X97293414Y-94031490D02*
X96721986Y-94602919D01*
X96721986Y-94602919D02*
X97341033Y-94602919D01*
X113254395Y-84636719D02*
X113254395Y-85446242D01*
X113254395Y-85446242D02*
X113302014Y-85541480D01*
X113302014Y-85541480D02*
X113349633Y-85589100D01*
X113349633Y-85589100D02*
X113444871Y-85636719D01*
X113444871Y-85636719D02*
X113635347Y-85636719D01*
X113635347Y-85636719D02*
X113730585Y-85589100D01*
X113730585Y-85589100D02*
X113778204Y-85541480D01*
X113778204Y-85541480D02*
X113825823Y-85446242D01*
X113825823Y-85446242D02*
X113825823Y-84636719D01*
X114254395Y-84731957D02*
X114302014Y-84684338D01*
X114302014Y-84684338D02*
X114397252Y-84636719D01*
X114397252Y-84636719D02*
X114635347Y-84636719D01*
X114635347Y-84636719D02*
X114730585Y-84684338D01*
X114730585Y-84684338D02*
X114778204Y-84731957D01*
X114778204Y-84731957D02*
X114825823Y-84827195D01*
X114825823Y-84827195D02*
X114825823Y-84922433D01*
X114825823Y-84922433D02*
X114778204Y-85065290D01*
X114778204Y-85065290D02*
X114206776Y-85636719D01*
X114206776Y-85636719D02*
X114825823Y-85636719D01*
X94353142Y-119282380D02*
X94305523Y-119330000D01*
X94305523Y-119330000D02*
X94162666Y-119377619D01*
X94162666Y-119377619D02*
X94067428Y-119377619D01*
X94067428Y-119377619D02*
X93924571Y-119330000D01*
X93924571Y-119330000D02*
X93829333Y-119234761D01*
X93829333Y-119234761D02*
X93781714Y-119139523D01*
X93781714Y-119139523D02*
X93734095Y-118949047D01*
X93734095Y-118949047D02*
X93734095Y-118806190D01*
X93734095Y-118806190D02*
X93781714Y-118615714D01*
X93781714Y-118615714D02*
X93829333Y-118520476D01*
X93829333Y-118520476D02*
X93924571Y-118425238D01*
X93924571Y-118425238D02*
X94067428Y-118377619D01*
X94067428Y-118377619D02*
X94162666Y-118377619D01*
X94162666Y-118377619D02*
X94305523Y-118425238D01*
X94305523Y-118425238D02*
X94353142Y-118472857D01*
X95305523Y-119377619D02*
X94734095Y-119377619D01*
X95019809Y-119377619D02*
X95019809Y-118377619D01*
X95019809Y-118377619D02*
X94924571Y-118520476D01*
X94924571Y-118520476D02*
X94829333Y-118615714D01*
X94829333Y-118615714D02*
X94734095Y-118663333D01*
X95924571Y-118377619D02*
X96019809Y-118377619D01*
X96019809Y-118377619D02*
X96115047Y-118425238D01*
X96115047Y-118425238D02*
X96162666Y-118472857D01*
X96162666Y-118472857D02*
X96210285Y-118568095D01*
X96210285Y-118568095D02*
X96257904Y-118758571D01*
X96257904Y-118758571D02*
X96257904Y-118996666D01*
X96257904Y-118996666D02*
X96210285Y-119187142D01*
X96210285Y-119187142D02*
X96162666Y-119282380D01*
X96162666Y-119282380D02*
X96115047Y-119330000D01*
X96115047Y-119330000D02*
X96019809Y-119377619D01*
X96019809Y-119377619D02*
X95924571Y-119377619D01*
X95924571Y-119377619D02*
X95829333Y-119330000D01*
X95829333Y-119330000D02*
X95781714Y-119282380D01*
X95781714Y-119282380D02*
X95734095Y-119187142D01*
X95734095Y-119187142D02*
X95686476Y-118996666D01*
X95686476Y-118996666D02*
X95686476Y-118758571D01*
X95686476Y-118758571D02*
X95734095Y-118568095D01*
X95734095Y-118568095D02*
X95781714Y-118472857D01*
X95781714Y-118472857D02*
X95829333Y-118425238D01*
X95829333Y-118425238D02*
X95924571Y-118377619D01*
X95134119Y-86139257D02*
X94657928Y-86472590D01*
X95134119Y-86710685D02*
X94134119Y-86710685D01*
X94134119Y-86710685D02*
X94134119Y-86329733D01*
X94134119Y-86329733D02*
X94181738Y-86234495D01*
X94181738Y-86234495D02*
X94229357Y-86186876D01*
X94229357Y-86186876D02*
X94324595Y-86139257D01*
X94324595Y-86139257D02*
X94467452Y-86139257D01*
X94467452Y-86139257D02*
X94562690Y-86186876D01*
X94562690Y-86186876D02*
X94610309Y-86234495D01*
X94610309Y-86234495D02*
X94657928Y-86329733D01*
X94657928Y-86329733D02*
X94657928Y-86710685D01*
X95134119Y-85186876D02*
X95134119Y-85758304D01*
X95134119Y-85472590D02*
X94134119Y-85472590D01*
X94134119Y-85472590D02*
X94276976Y-85567828D01*
X94276976Y-85567828D02*
X94372214Y-85663066D01*
X94372214Y-85663066D02*
X94419833Y-85758304D01*
X94134119Y-84853542D02*
X94134119Y-84186876D01*
X94134119Y-84186876D02*
X95134119Y-84615447D01*
X119147195Y-113237119D02*
X119147195Y-114046642D01*
X119147195Y-114046642D02*
X119194814Y-114141880D01*
X119194814Y-114141880D02*
X119242433Y-114189500D01*
X119242433Y-114189500D02*
X119337671Y-114237119D01*
X119337671Y-114237119D02*
X119528147Y-114237119D01*
X119528147Y-114237119D02*
X119623385Y-114189500D01*
X119623385Y-114189500D02*
X119671004Y-114141880D01*
X119671004Y-114141880D02*
X119718623Y-114046642D01*
X119718623Y-114046642D02*
X119718623Y-113237119D01*
X120671004Y-113237119D02*
X120194814Y-113237119D01*
X120194814Y-113237119D02*
X120147195Y-113713309D01*
X120147195Y-113713309D02*
X120194814Y-113665690D01*
X120194814Y-113665690D02*
X120290052Y-113618071D01*
X120290052Y-113618071D02*
X120528147Y-113618071D01*
X120528147Y-113618071D02*
X120623385Y-113665690D01*
X120623385Y-113665690D02*
X120671004Y-113713309D01*
X120671004Y-113713309D02*
X120718623Y-113808547D01*
X120718623Y-113808547D02*
X120718623Y-114046642D01*
X120718623Y-114046642D02*
X120671004Y-114141880D01*
X120671004Y-114141880D02*
X120623385Y-114189500D01*
X120623385Y-114189500D02*
X120528147Y-114237119D01*
X120528147Y-114237119D02*
X120290052Y-114237119D01*
X120290052Y-114237119D02*
X120194814Y-114189500D01*
X120194814Y-114189500D02*
X120147195Y-114141880D01*
X128420019Y-111691657D02*
X127943828Y-112024990D01*
X128420019Y-112263085D02*
X127420019Y-112263085D01*
X127420019Y-112263085D02*
X127420019Y-111882133D01*
X127420019Y-111882133D02*
X127467638Y-111786895D01*
X127467638Y-111786895D02*
X127515257Y-111739276D01*
X127515257Y-111739276D02*
X127610495Y-111691657D01*
X127610495Y-111691657D02*
X127753352Y-111691657D01*
X127753352Y-111691657D02*
X127848590Y-111739276D01*
X127848590Y-111739276D02*
X127896209Y-111786895D01*
X127896209Y-111786895D02*
X127943828Y-111882133D01*
X127943828Y-111882133D02*
X127943828Y-112263085D01*
X128420019Y-110739276D02*
X128420019Y-111310704D01*
X128420019Y-111024990D02*
X127420019Y-111024990D01*
X127420019Y-111024990D02*
X127562876Y-111120228D01*
X127562876Y-111120228D02*
X127658114Y-111215466D01*
X127658114Y-111215466D02*
X127705733Y-111310704D01*
X127420019Y-110405942D02*
X127420019Y-109786895D01*
X127420019Y-109786895D02*
X127800971Y-110120228D01*
X127800971Y-110120228D02*
X127800971Y-109977371D01*
X127800971Y-109977371D02*
X127848590Y-109882133D01*
X127848590Y-109882133D02*
X127896209Y-109834514D01*
X127896209Y-109834514D02*
X127991447Y-109786895D01*
X127991447Y-109786895D02*
X128229542Y-109786895D01*
X128229542Y-109786895D02*
X128324780Y-109834514D01*
X128324780Y-109834514D02*
X128372400Y-109882133D01*
X128372400Y-109882133D02*
X128420019Y-109977371D01*
X128420019Y-109977371D02*
X128420019Y-110263085D01*
X128420019Y-110263085D02*
X128372400Y-110358323D01*
X128372400Y-110358323D02*
X128324780Y-110405942D01*
X81976933Y-102004019D02*
X81643600Y-101527828D01*
X81405505Y-102004019D02*
X81405505Y-101004019D01*
X81405505Y-101004019D02*
X81786457Y-101004019D01*
X81786457Y-101004019D02*
X81881695Y-101051638D01*
X81881695Y-101051638D02*
X81929314Y-101099257D01*
X81929314Y-101099257D02*
X81976933Y-101194495D01*
X81976933Y-101194495D02*
X81976933Y-101337352D01*
X81976933Y-101337352D02*
X81929314Y-101432590D01*
X81929314Y-101432590D02*
X81881695Y-101480209D01*
X81881695Y-101480209D02*
X81786457Y-101527828D01*
X81786457Y-101527828D02*
X81405505Y-101527828D01*
X82453124Y-102004019D02*
X82643600Y-102004019D01*
X82643600Y-102004019D02*
X82738838Y-101956400D01*
X82738838Y-101956400D02*
X82786457Y-101908780D01*
X82786457Y-101908780D02*
X82881695Y-101765923D01*
X82881695Y-101765923D02*
X82929314Y-101575447D01*
X82929314Y-101575447D02*
X82929314Y-101194495D01*
X82929314Y-101194495D02*
X82881695Y-101099257D01*
X82881695Y-101099257D02*
X82834076Y-101051638D01*
X82834076Y-101051638D02*
X82738838Y-101004019D01*
X82738838Y-101004019D02*
X82548362Y-101004019D01*
X82548362Y-101004019D02*
X82453124Y-101051638D01*
X82453124Y-101051638D02*
X82405505Y-101099257D01*
X82405505Y-101099257D02*
X82357886Y-101194495D01*
X82357886Y-101194495D02*
X82357886Y-101432590D01*
X82357886Y-101432590D02*
X82405505Y-101527828D01*
X82405505Y-101527828D02*
X82453124Y-101575447D01*
X82453124Y-101575447D02*
X82548362Y-101623066D01*
X82548362Y-101623066D02*
X82738838Y-101623066D01*
X82738838Y-101623066D02*
X82834076Y-101575447D01*
X82834076Y-101575447D02*
X82881695Y-101527828D01*
X82881695Y-101527828D02*
X82929314Y-101432590D01*
X123529542Y-129149080D02*
X123481923Y-129196700D01*
X123481923Y-129196700D02*
X123339066Y-129244319D01*
X123339066Y-129244319D02*
X123243828Y-129244319D01*
X123243828Y-129244319D02*
X123100971Y-129196700D01*
X123100971Y-129196700D02*
X123005733Y-129101461D01*
X123005733Y-129101461D02*
X122958114Y-129006223D01*
X122958114Y-129006223D02*
X122910495Y-128815747D01*
X122910495Y-128815747D02*
X122910495Y-128672890D01*
X122910495Y-128672890D02*
X122958114Y-128482414D01*
X122958114Y-128482414D02*
X123005733Y-128387176D01*
X123005733Y-128387176D02*
X123100971Y-128291938D01*
X123100971Y-128291938D02*
X123243828Y-128244319D01*
X123243828Y-128244319D02*
X123339066Y-128244319D01*
X123339066Y-128244319D02*
X123481923Y-128291938D01*
X123481923Y-128291938D02*
X123529542Y-128339557D01*
X123910495Y-128339557D02*
X123958114Y-128291938D01*
X123958114Y-128291938D02*
X124053352Y-128244319D01*
X124053352Y-128244319D02*
X124291447Y-128244319D01*
X124291447Y-128244319D02*
X124386685Y-128291938D01*
X124386685Y-128291938D02*
X124434304Y-128339557D01*
X124434304Y-128339557D02*
X124481923Y-128434795D01*
X124481923Y-128434795D02*
X124481923Y-128530033D01*
X124481923Y-128530033D02*
X124434304Y-128672890D01*
X124434304Y-128672890D02*
X123862876Y-129244319D01*
X123862876Y-129244319D02*
X124481923Y-129244319D01*
X124862876Y-128339557D02*
X124910495Y-128291938D01*
X124910495Y-128291938D02*
X125005733Y-128244319D01*
X125005733Y-128244319D02*
X125243828Y-128244319D01*
X125243828Y-128244319D02*
X125339066Y-128291938D01*
X125339066Y-128291938D02*
X125386685Y-128339557D01*
X125386685Y-128339557D02*
X125434304Y-128434795D01*
X125434304Y-128434795D02*
X125434304Y-128530033D01*
X125434304Y-128530033D02*
X125386685Y-128672890D01*
X125386685Y-128672890D02*
X124815257Y-129244319D01*
X124815257Y-129244319D02*
X125434304Y-129244319D01*
X108515633Y-116783480D02*
X108468014Y-116831100D01*
X108468014Y-116831100D02*
X108325157Y-116878719D01*
X108325157Y-116878719D02*
X108229919Y-116878719D01*
X108229919Y-116878719D02*
X108087062Y-116831100D01*
X108087062Y-116831100D02*
X107991824Y-116735861D01*
X107991824Y-116735861D02*
X107944205Y-116640623D01*
X107944205Y-116640623D02*
X107896586Y-116450147D01*
X107896586Y-116450147D02*
X107896586Y-116307290D01*
X107896586Y-116307290D02*
X107944205Y-116116814D01*
X107944205Y-116116814D02*
X107991824Y-116021576D01*
X107991824Y-116021576D02*
X108087062Y-115926338D01*
X108087062Y-115926338D02*
X108229919Y-115878719D01*
X108229919Y-115878719D02*
X108325157Y-115878719D01*
X108325157Y-115878719D02*
X108468014Y-115926338D01*
X108468014Y-115926338D02*
X108515633Y-115973957D01*
X109468014Y-116878719D02*
X108896586Y-116878719D01*
X109182300Y-116878719D02*
X109182300Y-115878719D01*
X109182300Y-115878719D02*
X109087062Y-116021576D01*
X109087062Y-116021576D02*
X108991824Y-116116814D01*
X108991824Y-116116814D02*
X108896586Y-116164433D01*
X114829195Y-113237119D02*
X114829195Y-114046642D01*
X114829195Y-114046642D02*
X114876814Y-114141880D01*
X114876814Y-114141880D02*
X114924433Y-114189500D01*
X114924433Y-114189500D02*
X115019671Y-114237119D01*
X115019671Y-114237119D02*
X115210147Y-114237119D01*
X115210147Y-114237119D02*
X115305385Y-114189500D01*
X115305385Y-114189500D02*
X115353004Y-114141880D01*
X115353004Y-114141880D02*
X115400623Y-114046642D01*
X115400623Y-114046642D02*
X115400623Y-113237119D01*
X116305385Y-113237119D02*
X116114909Y-113237119D01*
X116114909Y-113237119D02*
X116019671Y-113284738D01*
X116019671Y-113284738D02*
X115972052Y-113332357D01*
X115972052Y-113332357D02*
X115876814Y-113475214D01*
X115876814Y-113475214D02*
X115829195Y-113665690D01*
X115829195Y-113665690D02*
X115829195Y-114046642D01*
X115829195Y-114046642D02*
X115876814Y-114141880D01*
X115876814Y-114141880D02*
X115924433Y-114189500D01*
X115924433Y-114189500D02*
X116019671Y-114237119D01*
X116019671Y-114237119D02*
X116210147Y-114237119D01*
X116210147Y-114237119D02*
X116305385Y-114189500D01*
X116305385Y-114189500D02*
X116353004Y-114141880D01*
X116353004Y-114141880D02*
X116400623Y-114046642D01*
X116400623Y-114046642D02*
X116400623Y-113808547D01*
X116400623Y-113808547D02*
X116353004Y-113713309D01*
X116353004Y-113713309D02*
X116305385Y-113665690D01*
X116305385Y-113665690D02*
X116210147Y-113618071D01*
X116210147Y-113618071D02*
X116019671Y-113618071D01*
X116019671Y-113618071D02*
X115924433Y-113665690D01*
X115924433Y-113665690D02*
X115876814Y-113713309D01*
X115876814Y-113713309D02*
X115829195Y-113808547D01*
X94867505Y-82090419D02*
X94867505Y-81090419D01*
X94867505Y-81090419D02*
X95105600Y-81090419D01*
X95105600Y-81090419D02*
X95248457Y-81138038D01*
X95248457Y-81138038D02*
X95343695Y-81233276D01*
X95343695Y-81233276D02*
X95391314Y-81328514D01*
X95391314Y-81328514D02*
X95438933Y-81518990D01*
X95438933Y-81518990D02*
X95438933Y-81661847D01*
X95438933Y-81661847D02*
X95391314Y-81852323D01*
X95391314Y-81852323D02*
X95343695Y-81947561D01*
X95343695Y-81947561D02*
X95248457Y-82042800D01*
X95248457Y-82042800D02*
X95105600Y-82090419D01*
X95105600Y-82090419D02*
X94867505Y-82090419D01*
X96343695Y-81090419D02*
X95867505Y-81090419D01*
X95867505Y-81090419D02*
X95819886Y-81566609D01*
X95819886Y-81566609D02*
X95867505Y-81518990D01*
X95867505Y-81518990D02*
X95962743Y-81471371D01*
X95962743Y-81471371D02*
X96200838Y-81471371D01*
X96200838Y-81471371D02*
X96296076Y-81518990D01*
X96296076Y-81518990D02*
X96343695Y-81566609D01*
X96343695Y-81566609D02*
X96391314Y-81661847D01*
X96391314Y-81661847D02*
X96391314Y-81899942D01*
X96391314Y-81899942D02*
X96343695Y-81995180D01*
X96343695Y-81995180D02*
X96296076Y-82042800D01*
X96296076Y-82042800D02*
X96200838Y-82090419D01*
X96200838Y-82090419D02*
X95962743Y-82090419D01*
X95962743Y-82090419D02*
X95867505Y-82042800D01*
X95867505Y-82042800D02*
X95819886Y-81995180D01*
X105204419Y-120054666D02*
X104728228Y-120387999D01*
X105204419Y-120626094D02*
X104204419Y-120626094D01*
X104204419Y-120626094D02*
X104204419Y-120245142D01*
X104204419Y-120245142D02*
X104252038Y-120149904D01*
X104252038Y-120149904D02*
X104299657Y-120102285D01*
X104299657Y-120102285D02*
X104394895Y-120054666D01*
X104394895Y-120054666D02*
X104537752Y-120054666D01*
X104537752Y-120054666D02*
X104632990Y-120102285D01*
X104632990Y-120102285D02*
X104680609Y-120149904D01*
X104680609Y-120149904D02*
X104728228Y-120245142D01*
X104728228Y-120245142D02*
X104728228Y-120626094D01*
X104204419Y-119721332D02*
X104204419Y-119102285D01*
X104204419Y-119102285D02*
X104585371Y-119435618D01*
X104585371Y-119435618D02*
X104585371Y-119292761D01*
X104585371Y-119292761D02*
X104632990Y-119197523D01*
X104632990Y-119197523D02*
X104680609Y-119149904D01*
X104680609Y-119149904D02*
X104775847Y-119102285D01*
X104775847Y-119102285D02*
X105013942Y-119102285D01*
X105013942Y-119102285D02*
X105109180Y-119149904D01*
X105109180Y-119149904D02*
X105156800Y-119197523D01*
X105156800Y-119197523D02*
X105204419Y-119292761D01*
X105204419Y-119292761D02*
X105204419Y-119578475D01*
X105204419Y-119578475D02*
X105156800Y-119673713D01*
X105156800Y-119673713D02*
X105109180Y-119721332D01*
X103680419Y-121438894D02*
X102680419Y-121438894D01*
X102680419Y-121438894D02*
X102680419Y-121200799D01*
X102680419Y-121200799D02*
X102728038Y-121057942D01*
X102728038Y-121057942D02*
X102823276Y-120962704D01*
X102823276Y-120962704D02*
X102918514Y-120915085D01*
X102918514Y-120915085D02*
X103108990Y-120867466D01*
X103108990Y-120867466D02*
X103251847Y-120867466D01*
X103251847Y-120867466D02*
X103442323Y-120915085D01*
X103442323Y-120915085D02*
X103537561Y-120962704D01*
X103537561Y-120962704D02*
X103632800Y-121057942D01*
X103632800Y-121057942D02*
X103680419Y-121200799D01*
X103680419Y-121200799D02*
X103680419Y-121438894D01*
X103680419Y-119915085D02*
X103680419Y-120486513D01*
X103680419Y-120200799D02*
X102680419Y-120200799D01*
X102680419Y-120200799D02*
X102823276Y-120296037D01*
X102823276Y-120296037D02*
X102918514Y-120391275D01*
X102918514Y-120391275D02*
X102966133Y-120486513D01*
X91909105Y-82090419D02*
X91909105Y-81090419D01*
X91909105Y-81090419D02*
X92147200Y-81090419D01*
X92147200Y-81090419D02*
X92290057Y-81138038D01*
X92290057Y-81138038D02*
X92385295Y-81233276D01*
X92385295Y-81233276D02*
X92432914Y-81328514D01*
X92432914Y-81328514D02*
X92480533Y-81518990D01*
X92480533Y-81518990D02*
X92480533Y-81661847D01*
X92480533Y-81661847D02*
X92432914Y-81852323D01*
X92432914Y-81852323D02*
X92385295Y-81947561D01*
X92385295Y-81947561D02*
X92290057Y-82042800D01*
X92290057Y-82042800D02*
X92147200Y-82090419D01*
X92147200Y-82090419D02*
X91909105Y-82090419D01*
X93337676Y-81090419D02*
X93147200Y-81090419D01*
X93147200Y-81090419D02*
X93051962Y-81138038D01*
X93051962Y-81138038D02*
X93004343Y-81185657D01*
X93004343Y-81185657D02*
X92909105Y-81328514D01*
X92909105Y-81328514D02*
X92861486Y-81518990D01*
X92861486Y-81518990D02*
X92861486Y-81899942D01*
X92861486Y-81899942D02*
X92909105Y-81995180D01*
X92909105Y-81995180D02*
X92956724Y-82042800D01*
X92956724Y-82042800D02*
X93051962Y-82090419D01*
X93051962Y-82090419D02*
X93242438Y-82090419D01*
X93242438Y-82090419D02*
X93337676Y-82042800D01*
X93337676Y-82042800D02*
X93385295Y-81995180D01*
X93385295Y-81995180D02*
X93432914Y-81899942D01*
X93432914Y-81899942D02*
X93432914Y-81661847D01*
X93432914Y-81661847D02*
X93385295Y-81566609D01*
X93385295Y-81566609D02*
X93337676Y-81518990D01*
X93337676Y-81518990D02*
X93242438Y-81471371D01*
X93242438Y-81471371D02*
X93051962Y-81471371D01*
X93051962Y-81471371D02*
X92956724Y-81518990D01*
X92956724Y-81518990D02*
X92909105Y-81566609D01*
X92909105Y-81566609D02*
X92861486Y-81661847D01*
X95626795Y-103254919D02*
X95626795Y-104064442D01*
X95626795Y-104064442D02*
X95674414Y-104159680D01*
X95674414Y-104159680D02*
X95722033Y-104207300D01*
X95722033Y-104207300D02*
X95817271Y-104254919D01*
X95817271Y-104254919D02*
X96007747Y-104254919D01*
X96007747Y-104254919D02*
X96102985Y-104207300D01*
X96102985Y-104207300D02*
X96150604Y-104159680D01*
X96150604Y-104159680D02*
X96198223Y-104064442D01*
X96198223Y-104064442D02*
X96198223Y-103254919D01*
X97198223Y-104254919D02*
X96626795Y-104254919D01*
X96912509Y-104254919D02*
X96912509Y-103254919D01*
X96912509Y-103254919D02*
X96817271Y-103397776D01*
X96817271Y-103397776D02*
X96722033Y-103493014D01*
X96722033Y-103493014D02*
X96626795Y-103540633D01*
X86650533Y-107490419D02*
X86317200Y-107014228D01*
X86079105Y-107490419D02*
X86079105Y-106490419D01*
X86079105Y-106490419D02*
X86460057Y-106490419D01*
X86460057Y-106490419D02*
X86555295Y-106538038D01*
X86555295Y-106538038D02*
X86602914Y-106585657D01*
X86602914Y-106585657D02*
X86650533Y-106680895D01*
X86650533Y-106680895D02*
X86650533Y-106823752D01*
X86650533Y-106823752D02*
X86602914Y-106918990D01*
X86602914Y-106918990D02*
X86555295Y-106966609D01*
X86555295Y-106966609D02*
X86460057Y-107014228D01*
X86460057Y-107014228D02*
X86079105Y-107014228D01*
X87507676Y-106490419D02*
X87317200Y-106490419D01*
X87317200Y-106490419D02*
X87221962Y-106538038D01*
X87221962Y-106538038D02*
X87174343Y-106585657D01*
X87174343Y-106585657D02*
X87079105Y-106728514D01*
X87079105Y-106728514D02*
X87031486Y-106918990D01*
X87031486Y-106918990D02*
X87031486Y-107299942D01*
X87031486Y-107299942D02*
X87079105Y-107395180D01*
X87079105Y-107395180D02*
X87126724Y-107442800D01*
X87126724Y-107442800D02*
X87221962Y-107490419D01*
X87221962Y-107490419D02*
X87412438Y-107490419D01*
X87412438Y-107490419D02*
X87507676Y-107442800D01*
X87507676Y-107442800D02*
X87555295Y-107395180D01*
X87555295Y-107395180D02*
X87602914Y-107299942D01*
X87602914Y-107299942D02*
X87602914Y-107061847D01*
X87602914Y-107061847D02*
X87555295Y-106966609D01*
X87555295Y-106966609D02*
X87507676Y-106918990D01*
X87507676Y-106918990D02*
X87412438Y-106871371D01*
X87412438Y-106871371D02*
X87221962Y-106871371D01*
X87221962Y-106871371D02*
X87126724Y-106918990D01*
X87126724Y-106918990D02*
X87079105Y-106966609D01*
X87079105Y-106966609D02*
X87031486Y-107061847D01*
X97990819Y-86139257D02*
X97514628Y-86472590D01*
X97990819Y-86710685D02*
X96990819Y-86710685D01*
X96990819Y-86710685D02*
X96990819Y-86329733D01*
X96990819Y-86329733D02*
X97038438Y-86234495D01*
X97038438Y-86234495D02*
X97086057Y-86186876D01*
X97086057Y-86186876D02*
X97181295Y-86139257D01*
X97181295Y-86139257D02*
X97324152Y-86139257D01*
X97324152Y-86139257D02*
X97419390Y-86186876D01*
X97419390Y-86186876D02*
X97467009Y-86234495D01*
X97467009Y-86234495D02*
X97514628Y-86329733D01*
X97514628Y-86329733D02*
X97514628Y-86710685D01*
X97990819Y-85186876D02*
X97990819Y-85758304D01*
X97990819Y-85472590D02*
X96990819Y-85472590D01*
X96990819Y-85472590D02*
X97133676Y-85567828D01*
X97133676Y-85567828D02*
X97228914Y-85663066D01*
X97228914Y-85663066D02*
X97276533Y-85758304D01*
X96990819Y-84329733D02*
X96990819Y-84520209D01*
X96990819Y-84520209D02*
X97038438Y-84615447D01*
X97038438Y-84615447D02*
X97086057Y-84663066D01*
X97086057Y-84663066D02*
X97228914Y-84758304D01*
X97228914Y-84758304D02*
X97419390Y-84805923D01*
X97419390Y-84805923D02*
X97800342Y-84805923D01*
X97800342Y-84805923D02*
X97895580Y-84758304D01*
X97895580Y-84758304D02*
X97943200Y-84710685D01*
X97943200Y-84710685D02*
X97990819Y-84615447D01*
X97990819Y-84615447D02*
X97990819Y-84424971D01*
X97990819Y-84424971D02*
X97943200Y-84329733D01*
X97943200Y-84329733D02*
X97895580Y-84282114D01*
X97895580Y-84282114D02*
X97800342Y-84234495D01*
X97800342Y-84234495D02*
X97562247Y-84234495D01*
X97562247Y-84234495D02*
X97467009Y-84282114D01*
X97467009Y-84282114D02*
X97419390Y-84329733D01*
X97419390Y-84329733D02*
X97371771Y-84424971D01*
X97371771Y-84424971D02*
X97371771Y-84615447D01*
X97371771Y-84615447D02*
X97419390Y-84710685D01*
X97419390Y-84710685D02*
X97467009Y-84758304D01*
X97467009Y-84758304D02*
X97562247Y-84805923D01*
X119128933Y-120100319D02*
X118795600Y-119624128D01*
X118557505Y-120100319D02*
X118557505Y-119100319D01*
X118557505Y-119100319D02*
X118938457Y-119100319D01*
X118938457Y-119100319D02*
X119033695Y-119147938D01*
X119033695Y-119147938D02*
X119081314Y-119195557D01*
X119081314Y-119195557D02*
X119128933Y-119290795D01*
X119128933Y-119290795D02*
X119128933Y-119433652D01*
X119128933Y-119433652D02*
X119081314Y-119528890D01*
X119081314Y-119528890D02*
X119033695Y-119576509D01*
X119033695Y-119576509D02*
X118938457Y-119624128D01*
X118938457Y-119624128D02*
X118557505Y-119624128D01*
X119509886Y-119195557D02*
X119557505Y-119147938D01*
X119557505Y-119147938D02*
X119652743Y-119100319D01*
X119652743Y-119100319D02*
X119890838Y-119100319D01*
X119890838Y-119100319D02*
X119986076Y-119147938D01*
X119986076Y-119147938D02*
X120033695Y-119195557D01*
X120033695Y-119195557D02*
X120081314Y-119290795D01*
X120081314Y-119290795D02*
X120081314Y-119386033D01*
X120081314Y-119386033D02*
X120033695Y-119528890D01*
X120033695Y-119528890D02*
X119462267Y-120100319D01*
X119462267Y-120100319D02*
X120081314Y-120100319D01*
X103414533Y-98251180D02*
X103366914Y-98298800D01*
X103366914Y-98298800D02*
X103224057Y-98346419D01*
X103224057Y-98346419D02*
X103128819Y-98346419D01*
X103128819Y-98346419D02*
X102985962Y-98298800D01*
X102985962Y-98298800D02*
X102890724Y-98203561D01*
X102890724Y-98203561D02*
X102843105Y-98108323D01*
X102843105Y-98108323D02*
X102795486Y-97917847D01*
X102795486Y-97917847D02*
X102795486Y-97774990D01*
X102795486Y-97774990D02*
X102843105Y-97584514D01*
X102843105Y-97584514D02*
X102890724Y-97489276D01*
X102890724Y-97489276D02*
X102985962Y-97394038D01*
X102985962Y-97394038D02*
X103128819Y-97346419D01*
X103128819Y-97346419D02*
X103224057Y-97346419D01*
X103224057Y-97346419D02*
X103366914Y-97394038D01*
X103366914Y-97394038D02*
X103414533Y-97441657D01*
X104271676Y-97679752D02*
X104271676Y-98346419D01*
X104033581Y-97298800D02*
X103795486Y-98013085D01*
X103795486Y-98013085D02*
X104414533Y-98013085D01*
X92233319Y-86139257D02*
X91757128Y-86472590D01*
X92233319Y-86710685D02*
X91233319Y-86710685D01*
X91233319Y-86710685D02*
X91233319Y-86329733D01*
X91233319Y-86329733D02*
X91280938Y-86234495D01*
X91280938Y-86234495D02*
X91328557Y-86186876D01*
X91328557Y-86186876D02*
X91423795Y-86139257D01*
X91423795Y-86139257D02*
X91566652Y-86139257D01*
X91566652Y-86139257D02*
X91661890Y-86186876D01*
X91661890Y-86186876D02*
X91709509Y-86234495D01*
X91709509Y-86234495D02*
X91757128Y-86329733D01*
X91757128Y-86329733D02*
X91757128Y-86710685D01*
X92233319Y-85186876D02*
X92233319Y-85758304D01*
X92233319Y-85472590D02*
X91233319Y-85472590D01*
X91233319Y-85472590D02*
X91376176Y-85567828D01*
X91376176Y-85567828D02*
X91471414Y-85663066D01*
X91471414Y-85663066D02*
X91519033Y-85758304D01*
X91661890Y-84615447D02*
X91614271Y-84710685D01*
X91614271Y-84710685D02*
X91566652Y-84758304D01*
X91566652Y-84758304D02*
X91471414Y-84805923D01*
X91471414Y-84805923D02*
X91423795Y-84805923D01*
X91423795Y-84805923D02*
X91328557Y-84758304D01*
X91328557Y-84758304D02*
X91280938Y-84710685D01*
X91280938Y-84710685D02*
X91233319Y-84615447D01*
X91233319Y-84615447D02*
X91233319Y-84424971D01*
X91233319Y-84424971D02*
X91280938Y-84329733D01*
X91280938Y-84329733D02*
X91328557Y-84282114D01*
X91328557Y-84282114D02*
X91423795Y-84234495D01*
X91423795Y-84234495D02*
X91471414Y-84234495D01*
X91471414Y-84234495D02*
X91566652Y-84282114D01*
X91566652Y-84282114D02*
X91614271Y-84329733D01*
X91614271Y-84329733D02*
X91661890Y-84424971D01*
X91661890Y-84424971D02*
X91661890Y-84615447D01*
X91661890Y-84615447D02*
X91709509Y-84710685D01*
X91709509Y-84710685D02*
X91757128Y-84758304D01*
X91757128Y-84758304D02*
X91852366Y-84805923D01*
X91852366Y-84805923D02*
X92042842Y-84805923D01*
X92042842Y-84805923D02*
X92138080Y-84758304D01*
X92138080Y-84758304D02*
X92185700Y-84710685D01*
X92185700Y-84710685D02*
X92233319Y-84615447D01*
X92233319Y-84615447D02*
X92233319Y-84424971D01*
X92233319Y-84424971D02*
X92185700Y-84329733D01*
X92185700Y-84329733D02*
X92138080Y-84282114D01*
X92138080Y-84282114D02*
X92042842Y-84234495D01*
X92042842Y-84234495D02*
X91852366Y-84234495D01*
X91852366Y-84234495D02*
X91757128Y-84282114D01*
X91757128Y-84282114D02*
X91709509Y-84329733D01*
X91709509Y-84329733D02*
X91661890Y-84424971D01*
X110304342Y-110239980D02*
X110256723Y-110287600D01*
X110256723Y-110287600D02*
X110113866Y-110335219D01*
X110113866Y-110335219D02*
X110018628Y-110335219D01*
X110018628Y-110335219D02*
X109875771Y-110287600D01*
X109875771Y-110287600D02*
X109780533Y-110192361D01*
X109780533Y-110192361D02*
X109732914Y-110097123D01*
X109732914Y-110097123D02*
X109685295Y-109906647D01*
X109685295Y-109906647D02*
X109685295Y-109763790D01*
X109685295Y-109763790D02*
X109732914Y-109573314D01*
X109732914Y-109573314D02*
X109780533Y-109478076D01*
X109780533Y-109478076D02*
X109875771Y-109382838D01*
X109875771Y-109382838D02*
X110018628Y-109335219D01*
X110018628Y-109335219D02*
X110113866Y-109335219D01*
X110113866Y-109335219D02*
X110256723Y-109382838D01*
X110256723Y-109382838D02*
X110304342Y-109430457D01*
X110685295Y-109430457D02*
X110732914Y-109382838D01*
X110732914Y-109382838D02*
X110828152Y-109335219D01*
X110828152Y-109335219D02*
X111066247Y-109335219D01*
X111066247Y-109335219D02*
X111161485Y-109382838D01*
X111161485Y-109382838D02*
X111209104Y-109430457D01*
X111209104Y-109430457D02*
X111256723Y-109525695D01*
X111256723Y-109525695D02*
X111256723Y-109620933D01*
X111256723Y-109620933D02*
X111209104Y-109763790D01*
X111209104Y-109763790D02*
X110637676Y-110335219D01*
X110637676Y-110335219D02*
X111256723Y-110335219D01*
X111590057Y-109335219D02*
X112209104Y-109335219D01*
X112209104Y-109335219D02*
X111875771Y-109716171D01*
X111875771Y-109716171D02*
X112018628Y-109716171D01*
X112018628Y-109716171D02*
X112113866Y-109763790D01*
X112113866Y-109763790D02*
X112161485Y-109811409D01*
X112161485Y-109811409D02*
X112209104Y-109906647D01*
X112209104Y-109906647D02*
X112209104Y-110144742D01*
X112209104Y-110144742D02*
X112161485Y-110239980D01*
X112161485Y-110239980D02*
X112113866Y-110287600D01*
X112113866Y-110287600D02*
X112018628Y-110335219D01*
X112018628Y-110335219D02*
X111732914Y-110335219D01*
X111732914Y-110335219D02*
X111637676Y-110287600D01*
X111637676Y-110287600D02*
X111590057Y-110239980D01*
X103119780Y-101676566D02*
X103167400Y-101724185D01*
X103167400Y-101724185D02*
X103215019Y-101867042D01*
X103215019Y-101867042D02*
X103215019Y-101962280D01*
X103215019Y-101962280D02*
X103167400Y-102105137D01*
X103167400Y-102105137D02*
X103072161Y-102200375D01*
X103072161Y-102200375D02*
X102976923Y-102247994D01*
X102976923Y-102247994D02*
X102786447Y-102295613D01*
X102786447Y-102295613D02*
X102643590Y-102295613D01*
X102643590Y-102295613D02*
X102453114Y-102247994D01*
X102453114Y-102247994D02*
X102357876Y-102200375D01*
X102357876Y-102200375D02*
X102262638Y-102105137D01*
X102262638Y-102105137D02*
X102215019Y-101962280D01*
X102215019Y-101962280D02*
X102215019Y-101867042D01*
X102215019Y-101867042D02*
X102262638Y-101724185D01*
X102262638Y-101724185D02*
X102310257Y-101676566D01*
X102215019Y-101343232D02*
X102215019Y-100724185D01*
X102215019Y-100724185D02*
X102595971Y-101057518D01*
X102595971Y-101057518D02*
X102595971Y-100914661D01*
X102595971Y-100914661D02*
X102643590Y-100819423D01*
X102643590Y-100819423D02*
X102691209Y-100771804D01*
X102691209Y-100771804D02*
X102786447Y-100724185D01*
X102786447Y-100724185D02*
X103024542Y-100724185D01*
X103024542Y-100724185D02*
X103119780Y-100771804D01*
X103119780Y-100771804D02*
X103167400Y-100819423D01*
X103167400Y-100819423D02*
X103215019Y-100914661D01*
X103215019Y-100914661D02*
X103215019Y-101200375D01*
X103215019Y-101200375D02*
X103167400Y-101295613D01*
X103167400Y-101295613D02*
X103119780Y-101343232D01*
X124885119Y-111307366D02*
X124408928Y-111640699D01*
X124885119Y-111878794D02*
X123885119Y-111878794D01*
X123885119Y-111878794D02*
X123885119Y-111497842D01*
X123885119Y-111497842D02*
X123932738Y-111402604D01*
X123932738Y-111402604D02*
X123980357Y-111354985D01*
X123980357Y-111354985D02*
X124075595Y-111307366D01*
X124075595Y-111307366D02*
X124218452Y-111307366D01*
X124218452Y-111307366D02*
X124313690Y-111354985D01*
X124313690Y-111354985D02*
X124361309Y-111402604D01*
X124361309Y-111402604D02*
X124408928Y-111497842D01*
X124408928Y-111497842D02*
X124408928Y-111878794D01*
X123885119Y-110402604D02*
X123885119Y-110878794D01*
X123885119Y-110878794D02*
X124361309Y-110926413D01*
X124361309Y-110926413D02*
X124313690Y-110878794D01*
X124313690Y-110878794D02*
X124266071Y-110783556D01*
X124266071Y-110783556D02*
X124266071Y-110545461D01*
X124266071Y-110545461D02*
X124313690Y-110450223D01*
X124313690Y-110450223D02*
X124361309Y-110402604D01*
X124361309Y-110402604D02*
X124456547Y-110354985D01*
X124456547Y-110354985D02*
X124694642Y-110354985D01*
X124694642Y-110354985D02*
X124789880Y-110402604D01*
X124789880Y-110402604D02*
X124837500Y-110450223D01*
X124837500Y-110450223D02*
X124885119Y-110545461D01*
X124885119Y-110545461D02*
X124885119Y-110783556D01*
X124885119Y-110783556D02*
X124837500Y-110878794D01*
X124837500Y-110878794D02*
X124789880Y-110926413D01*
X100892780Y-88069657D02*
X100940400Y-88117276D01*
X100940400Y-88117276D02*
X100988019Y-88260133D01*
X100988019Y-88260133D02*
X100988019Y-88355371D01*
X100988019Y-88355371D02*
X100940400Y-88498228D01*
X100940400Y-88498228D02*
X100845161Y-88593466D01*
X100845161Y-88593466D02*
X100749923Y-88641085D01*
X100749923Y-88641085D02*
X100559447Y-88688704D01*
X100559447Y-88688704D02*
X100416590Y-88688704D01*
X100416590Y-88688704D02*
X100226114Y-88641085D01*
X100226114Y-88641085D02*
X100130876Y-88593466D01*
X100130876Y-88593466D02*
X100035638Y-88498228D01*
X100035638Y-88498228D02*
X99988019Y-88355371D01*
X99988019Y-88355371D02*
X99988019Y-88260133D01*
X99988019Y-88260133D02*
X100035638Y-88117276D01*
X100035638Y-88117276D02*
X100083257Y-88069657D01*
X100083257Y-87688704D02*
X100035638Y-87641085D01*
X100035638Y-87641085D02*
X99988019Y-87545847D01*
X99988019Y-87545847D02*
X99988019Y-87307752D01*
X99988019Y-87307752D02*
X100035638Y-87212514D01*
X100035638Y-87212514D02*
X100083257Y-87164895D01*
X100083257Y-87164895D02*
X100178495Y-87117276D01*
X100178495Y-87117276D02*
X100273733Y-87117276D01*
X100273733Y-87117276D02*
X100416590Y-87164895D01*
X100416590Y-87164895D02*
X100988019Y-87736323D01*
X100988019Y-87736323D02*
X100988019Y-87117276D01*
X99988019Y-86212514D02*
X99988019Y-86688704D01*
X99988019Y-86688704D02*
X100464209Y-86736323D01*
X100464209Y-86736323D02*
X100416590Y-86688704D01*
X100416590Y-86688704D02*
X100368971Y-86593466D01*
X100368971Y-86593466D02*
X100368971Y-86355371D01*
X100368971Y-86355371D02*
X100416590Y-86260133D01*
X100416590Y-86260133D02*
X100464209Y-86212514D01*
X100464209Y-86212514D02*
X100559447Y-86164895D01*
X100559447Y-86164895D02*
X100797542Y-86164895D01*
X100797542Y-86164895D02*
X100892780Y-86212514D01*
X100892780Y-86212514D02*
X100940400Y-86260133D01*
X100940400Y-86260133D02*
X100988019Y-86355371D01*
X100988019Y-86355371D02*
X100988019Y-86593466D01*
X100988019Y-86593466D02*
X100940400Y-86688704D01*
X100940400Y-86688704D02*
X100892780Y-86736323D01*
X82045980Y-96737466D02*
X82093600Y-96785085D01*
X82093600Y-96785085D02*
X82141219Y-96927942D01*
X82141219Y-96927942D02*
X82141219Y-97023180D01*
X82141219Y-97023180D02*
X82093600Y-97166037D01*
X82093600Y-97166037D02*
X81998361Y-97261275D01*
X81998361Y-97261275D02*
X81903123Y-97308894D01*
X81903123Y-97308894D02*
X81712647Y-97356513D01*
X81712647Y-97356513D02*
X81569790Y-97356513D01*
X81569790Y-97356513D02*
X81379314Y-97308894D01*
X81379314Y-97308894D02*
X81284076Y-97261275D01*
X81284076Y-97261275D02*
X81188838Y-97166037D01*
X81188838Y-97166037D02*
X81141219Y-97023180D01*
X81141219Y-97023180D02*
X81141219Y-96927942D01*
X81141219Y-96927942D02*
X81188838Y-96785085D01*
X81188838Y-96785085D02*
X81236457Y-96737466D01*
X81141219Y-95832704D02*
X81141219Y-96308894D01*
X81141219Y-96308894D02*
X81617409Y-96356513D01*
X81617409Y-96356513D02*
X81569790Y-96308894D01*
X81569790Y-96308894D02*
X81522171Y-96213656D01*
X81522171Y-96213656D02*
X81522171Y-95975561D01*
X81522171Y-95975561D02*
X81569790Y-95880323D01*
X81569790Y-95880323D02*
X81617409Y-95832704D01*
X81617409Y-95832704D02*
X81712647Y-95785085D01*
X81712647Y-95785085D02*
X81950742Y-95785085D01*
X81950742Y-95785085D02*
X82045980Y-95832704D01*
X82045980Y-95832704D02*
X82093600Y-95880323D01*
X82093600Y-95880323D02*
X82141219Y-95975561D01*
X82141219Y-95975561D02*
X82141219Y-96213656D01*
X82141219Y-96213656D02*
X82093600Y-96308894D01*
X82093600Y-96308894D02*
X82045980Y-96356513D01*
X107730742Y-121167119D02*
X107397409Y-120690928D01*
X107159314Y-121167119D02*
X107159314Y-120167119D01*
X107159314Y-120167119D02*
X107540266Y-120167119D01*
X107540266Y-120167119D02*
X107635504Y-120214738D01*
X107635504Y-120214738D02*
X107683123Y-120262357D01*
X107683123Y-120262357D02*
X107730742Y-120357595D01*
X107730742Y-120357595D02*
X107730742Y-120500452D01*
X107730742Y-120500452D02*
X107683123Y-120595690D01*
X107683123Y-120595690D02*
X107635504Y-120643309D01*
X107635504Y-120643309D02*
X107540266Y-120690928D01*
X107540266Y-120690928D02*
X107159314Y-120690928D01*
X108683123Y-121167119D02*
X108111695Y-121167119D01*
X108397409Y-121167119D02*
X108397409Y-120167119D01*
X108397409Y-120167119D02*
X108302171Y-120309976D01*
X108302171Y-120309976D02*
X108206933Y-120405214D01*
X108206933Y-120405214D02*
X108111695Y-120452833D01*
X109587885Y-120167119D02*
X109111695Y-120167119D01*
X109111695Y-120167119D02*
X109064076Y-120643309D01*
X109064076Y-120643309D02*
X109111695Y-120595690D01*
X109111695Y-120595690D02*
X109206933Y-120548071D01*
X109206933Y-120548071D02*
X109445028Y-120548071D01*
X109445028Y-120548071D02*
X109540266Y-120595690D01*
X109540266Y-120595690D02*
X109587885Y-120643309D01*
X109587885Y-120643309D02*
X109635504Y-120738547D01*
X109635504Y-120738547D02*
X109635504Y-120976642D01*
X109635504Y-120976642D02*
X109587885Y-121071880D01*
X109587885Y-121071880D02*
X109540266Y-121119500D01*
X109540266Y-121119500D02*
X109445028Y-121167119D01*
X109445028Y-121167119D02*
X109206933Y-121167119D01*
X109206933Y-121167119D02*
X109111695Y-121119500D01*
X109111695Y-121119500D02*
X109064076Y-121071880D01*
X87145905Y-123086019D02*
X87145905Y-122086019D01*
X87145905Y-122086019D02*
X87384000Y-122086019D01*
X87384000Y-122086019D02*
X87526857Y-122133638D01*
X87526857Y-122133638D02*
X87622095Y-122228876D01*
X87622095Y-122228876D02*
X87669714Y-122324114D01*
X87669714Y-122324114D02*
X87717333Y-122514590D01*
X87717333Y-122514590D02*
X87717333Y-122657447D01*
X87717333Y-122657447D02*
X87669714Y-122847923D01*
X87669714Y-122847923D02*
X87622095Y-122943161D01*
X87622095Y-122943161D02*
X87526857Y-123038400D01*
X87526857Y-123038400D02*
X87384000Y-123086019D01*
X87384000Y-123086019D02*
X87145905Y-123086019D01*
X88098286Y-122181257D02*
X88145905Y-122133638D01*
X88145905Y-122133638D02*
X88241143Y-122086019D01*
X88241143Y-122086019D02*
X88479238Y-122086019D01*
X88479238Y-122086019D02*
X88574476Y-122133638D01*
X88574476Y-122133638D02*
X88622095Y-122181257D01*
X88622095Y-122181257D02*
X88669714Y-122276495D01*
X88669714Y-122276495D02*
X88669714Y-122371733D01*
X88669714Y-122371733D02*
X88622095Y-122514590D01*
X88622095Y-122514590D02*
X88050667Y-123086019D01*
X88050667Y-123086019D02*
X88669714Y-123086019D01*
X103181980Y-105587766D02*
X103229600Y-105635385D01*
X103229600Y-105635385D02*
X103277219Y-105778242D01*
X103277219Y-105778242D02*
X103277219Y-105873480D01*
X103277219Y-105873480D02*
X103229600Y-106016337D01*
X103229600Y-106016337D02*
X103134361Y-106111575D01*
X103134361Y-106111575D02*
X103039123Y-106159194D01*
X103039123Y-106159194D02*
X102848647Y-106206813D01*
X102848647Y-106206813D02*
X102705790Y-106206813D01*
X102705790Y-106206813D02*
X102515314Y-106159194D01*
X102515314Y-106159194D02*
X102420076Y-106111575D01*
X102420076Y-106111575D02*
X102324838Y-106016337D01*
X102324838Y-106016337D02*
X102277219Y-105873480D01*
X102277219Y-105873480D02*
X102277219Y-105778242D01*
X102277219Y-105778242D02*
X102324838Y-105635385D01*
X102324838Y-105635385D02*
X102372457Y-105587766D01*
X102705790Y-105016337D02*
X102658171Y-105111575D01*
X102658171Y-105111575D02*
X102610552Y-105159194D01*
X102610552Y-105159194D02*
X102515314Y-105206813D01*
X102515314Y-105206813D02*
X102467695Y-105206813D01*
X102467695Y-105206813D02*
X102372457Y-105159194D01*
X102372457Y-105159194D02*
X102324838Y-105111575D01*
X102324838Y-105111575D02*
X102277219Y-105016337D01*
X102277219Y-105016337D02*
X102277219Y-104825861D01*
X102277219Y-104825861D02*
X102324838Y-104730623D01*
X102324838Y-104730623D02*
X102372457Y-104683004D01*
X102372457Y-104683004D02*
X102467695Y-104635385D01*
X102467695Y-104635385D02*
X102515314Y-104635385D01*
X102515314Y-104635385D02*
X102610552Y-104683004D01*
X102610552Y-104683004D02*
X102658171Y-104730623D01*
X102658171Y-104730623D02*
X102705790Y-104825861D01*
X102705790Y-104825861D02*
X102705790Y-105016337D01*
X102705790Y-105016337D02*
X102753409Y-105111575D01*
X102753409Y-105111575D02*
X102801028Y-105159194D01*
X102801028Y-105159194D02*
X102896266Y-105206813D01*
X102896266Y-105206813D02*
X103086742Y-105206813D01*
X103086742Y-105206813D02*
X103181980Y-105159194D01*
X103181980Y-105159194D02*
X103229600Y-105111575D01*
X103229600Y-105111575D02*
X103277219Y-105016337D01*
X103277219Y-105016337D02*
X103277219Y-104825861D01*
X103277219Y-104825861D02*
X103229600Y-104730623D01*
X103229600Y-104730623D02*
X103181980Y-104683004D01*
X103181980Y-104683004D02*
X103086742Y-104635385D01*
X103086742Y-104635385D02*
X102896266Y-104635385D01*
X102896266Y-104635385D02*
X102801028Y-104683004D01*
X102801028Y-104683004D02*
X102753409Y-104730623D01*
X102753409Y-104730623D02*
X102705790Y-104825861D01*
X132382419Y-117273294D02*
X131382419Y-117273294D01*
X131382419Y-117273294D02*
X131382419Y-117035199D01*
X131382419Y-117035199D02*
X131430038Y-116892342D01*
X131430038Y-116892342D02*
X131525276Y-116797104D01*
X131525276Y-116797104D02*
X131620514Y-116749485D01*
X131620514Y-116749485D02*
X131810990Y-116701866D01*
X131810990Y-116701866D02*
X131953847Y-116701866D01*
X131953847Y-116701866D02*
X132144323Y-116749485D01*
X132144323Y-116749485D02*
X132239561Y-116797104D01*
X132239561Y-116797104D02*
X132334800Y-116892342D01*
X132334800Y-116892342D02*
X132382419Y-117035199D01*
X132382419Y-117035199D02*
X132382419Y-117273294D01*
X131382419Y-116368532D02*
X131382419Y-115749485D01*
X131382419Y-115749485D02*
X131763371Y-116082818D01*
X131763371Y-116082818D02*
X131763371Y-115939961D01*
X131763371Y-115939961D02*
X131810990Y-115844723D01*
X131810990Y-115844723D02*
X131858609Y-115797104D01*
X131858609Y-115797104D02*
X131953847Y-115749485D01*
X131953847Y-115749485D02*
X132191942Y-115749485D01*
X132191942Y-115749485D02*
X132287180Y-115797104D01*
X132287180Y-115797104D02*
X132334800Y-115844723D01*
X132334800Y-115844723D02*
X132382419Y-115939961D01*
X132382419Y-115939961D02*
X132382419Y-116225675D01*
X132382419Y-116225675D02*
X132334800Y-116320913D01*
X132334800Y-116320913D02*
X132287180Y-116368532D01*
X114996933Y-123046719D02*
X114663600Y-122570528D01*
X114425505Y-123046719D02*
X114425505Y-122046719D01*
X114425505Y-122046719D02*
X114806457Y-122046719D01*
X114806457Y-122046719D02*
X114901695Y-122094338D01*
X114901695Y-122094338D02*
X114949314Y-122141957D01*
X114949314Y-122141957D02*
X114996933Y-122237195D01*
X114996933Y-122237195D02*
X114996933Y-122380052D01*
X114996933Y-122380052D02*
X114949314Y-122475290D01*
X114949314Y-122475290D02*
X114901695Y-122522909D01*
X114901695Y-122522909D02*
X114806457Y-122570528D01*
X114806457Y-122570528D02*
X114425505Y-122570528D01*
X115949314Y-123046719D02*
X115377886Y-123046719D01*
X115663600Y-123046719D02*
X115663600Y-122046719D01*
X115663600Y-122046719D02*
X115568362Y-122189576D01*
X115568362Y-122189576D02*
X115473124Y-122284814D01*
X115473124Y-122284814D02*
X115377886Y-122332433D01*
X127442933Y-127066280D02*
X127395314Y-127113900D01*
X127395314Y-127113900D02*
X127252457Y-127161519D01*
X127252457Y-127161519D02*
X127157219Y-127161519D01*
X127157219Y-127161519D02*
X127014362Y-127113900D01*
X127014362Y-127113900D02*
X126919124Y-127018661D01*
X126919124Y-127018661D02*
X126871505Y-126923423D01*
X126871505Y-126923423D02*
X126823886Y-126732947D01*
X126823886Y-126732947D02*
X126823886Y-126590090D01*
X126823886Y-126590090D02*
X126871505Y-126399614D01*
X126871505Y-126399614D02*
X126919124Y-126304376D01*
X126919124Y-126304376D02*
X127014362Y-126209138D01*
X127014362Y-126209138D02*
X127157219Y-126161519D01*
X127157219Y-126161519D02*
X127252457Y-126161519D01*
X127252457Y-126161519D02*
X127395314Y-126209138D01*
X127395314Y-126209138D02*
X127442933Y-126256757D01*
X127776267Y-126161519D02*
X128442933Y-126161519D01*
X128442933Y-126161519D02*
X128014362Y-127161519D01*
X124633595Y-122228719D02*
X124633595Y-123038242D01*
X124633595Y-123038242D02*
X124681214Y-123133480D01*
X124681214Y-123133480D02*
X124728833Y-123181100D01*
X124728833Y-123181100D02*
X124824071Y-123228719D01*
X124824071Y-123228719D02*
X125014547Y-123228719D01*
X125014547Y-123228719D02*
X125109785Y-123181100D01*
X125109785Y-123181100D02*
X125157404Y-123133480D01*
X125157404Y-123133480D02*
X125205023Y-123038242D01*
X125205023Y-123038242D02*
X125205023Y-122228719D01*
X125585976Y-122228719D02*
X126205023Y-122228719D01*
X126205023Y-122228719D02*
X125871690Y-122609671D01*
X125871690Y-122609671D02*
X126014547Y-122609671D01*
X126014547Y-122609671D02*
X126109785Y-122657290D01*
X126109785Y-122657290D02*
X126157404Y-122704909D01*
X126157404Y-122704909D02*
X126205023Y-122800147D01*
X126205023Y-122800147D02*
X126205023Y-123038242D01*
X126205023Y-123038242D02*
X126157404Y-123133480D01*
X126157404Y-123133480D02*
X126109785Y-123181100D01*
X126109785Y-123181100D02*
X126014547Y-123228719D01*
X126014547Y-123228719D02*
X125728833Y-123228719D01*
X125728833Y-123228719D02*
X125633595Y-123181100D01*
X125633595Y-123181100D02*
X125585976Y-123133480D01*
X100315733Y-96416019D02*
X99982400Y-95939828D01*
X99744305Y-96416019D02*
X99744305Y-95416019D01*
X99744305Y-95416019D02*
X100125257Y-95416019D01*
X100125257Y-95416019D02*
X100220495Y-95463638D01*
X100220495Y-95463638D02*
X100268114Y-95511257D01*
X100268114Y-95511257D02*
X100315733Y-95606495D01*
X100315733Y-95606495D02*
X100315733Y-95749352D01*
X100315733Y-95749352D02*
X100268114Y-95844590D01*
X100268114Y-95844590D02*
X100220495Y-95892209D01*
X100220495Y-95892209D02*
X100125257Y-95939828D01*
X100125257Y-95939828D02*
X99744305Y-95939828D01*
X101172876Y-95749352D02*
X101172876Y-96416019D01*
X100934781Y-95368400D02*
X100696686Y-96082685D01*
X100696686Y-96082685D02*
X101315733Y-96082685D01*
X118652742Y-123097519D02*
X118319409Y-122621328D01*
X118081314Y-123097519D02*
X118081314Y-122097519D01*
X118081314Y-122097519D02*
X118462266Y-122097519D01*
X118462266Y-122097519D02*
X118557504Y-122145138D01*
X118557504Y-122145138D02*
X118605123Y-122192757D01*
X118605123Y-122192757D02*
X118652742Y-122287995D01*
X118652742Y-122287995D02*
X118652742Y-122430852D01*
X118652742Y-122430852D02*
X118605123Y-122526090D01*
X118605123Y-122526090D02*
X118557504Y-122573709D01*
X118557504Y-122573709D02*
X118462266Y-122621328D01*
X118462266Y-122621328D02*
X118081314Y-122621328D01*
X119605123Y-123097519D02*
X119033695Y-123097519D01*
X119319409Y-123097519D02*
X119319409Y-122097519D01*
X119319409Y-122097519D02*
X119224171Y-122240376D01*
X119224171Y-122240376D02*
X119128933Y-122335614D01*
X119128933Y-122335614D02*
X119033695Y-122383233D01*
X120462266Y-122430852D02*
X120462266Y-123097519D01*
X120224171Y-122049900D02*
X119986076Y-122764185D01*
X119986076Y-122764185D02*
X120605123Y-122764185D01*
X97733905Y-82090419D02*
X97733905Y-81090419D01*
X97733905Y-81090419D02*
X97972000Y-81090419D01*
X97972000Y-81090419D02*
X98114857Y-81138038D01*
X98114857Y-81138038D02*
X98210095Y-81233276D01*
X98210095Y-81233276D02*
X98257714Y-81328514D01*
X98257714Y-81328514D02*
X98305333Y-81518990D01*
X98305333Y-81518990D02*
X98305333Y-81661847D01*
X98305333Y-81661847D02*
X98257714Y-81852323D01*
X98257714Y-81852323D02*
X98210095Y-81947561D01*
X98210095Y-81947561D02*
X98114857Y-82042800D01*
X98114857Y-82042800D02*
X97972000Y-82090419D01*
X97972000Y-82090419D02*
X97733905Y-82090419D01*
X99162476Y-81423752D02*
X99162476Y-82090419D01*
X98924381Y-81042800D02*
X98686286Y-81757085D01*
X98686286Y-81757085D02*
X99305333Y-81757085D01*
X87983219Y-116092266D02*
X87983219Y-116568456D01*
X87983219Y-116568456D02*
X86983219Y-116568456D01*
X87983219Y-115235123D02*
X87983219Y-115806551D01*
X87983219Y-115520837D02*
X86983219Y-115520837D01*
X86983219Y-115520837D02*
X87126076Y-115616075D01*
X87126076Y-115616075D02*
X87221314Y-115711313D01*
X87221314Y-115711313D02*
X87268933Y-115806551D01*
X102447542Y-86578680D02*
X102399923Y-86626300D01*
X102399923Y-86626300D02*
X102257066Y-86673919D01*
X102257066Y-86673919D02*
X102161828Y-86673919D01*
X102161828Y-86673919D02*
X102018971Y-86626300D01*
X102018971Y-86626300D02*
X101923733Y-86531061D01*
X101923733Y-86531061D02*
X101876114Y-86435823D01*
X101876114Y-86435823D02*
X101828495Y-86245347D01*
X101828495Y-86245347D02*
X101828495Y-86102490D01*
X101828495Y-86102490D02*
X101876114Y-85912014D01*
X101876114Y-85912014D02*
X101923733Y-85816776D01*
X101923733Y-85816776D02*
X102018971Y-85721538D01*
X102018971Y-85721538D02*
X102161828Y-85673919D01*
X102161828Y-85673919D02*
X102257066Y-85673919D01*
X102257066Y-85673919D02*
X102399923Y-85721538D01*
X102399923Y-85721538D02*
X102447542Y-85769157D01*
X102828495Y-85769157D02*
X102876114Y-85721538D01*
X102876114Y-85721538D02*
X102971352Y-85673919D01*
X102971352Y-85673919D02*
X103209447Y-85673919D01*
X103209447Y-85673919D02*
X103304685Y-85721538D01*
X103304685Y-85721538D02*
X103352304Y-85769157D01*
X103352304Y-85769157D02*
X103399923Y-85864395D01*
X103399923Y-85864395D02*
X103399923Y-85959633D01*
X103399923Y-85959633D02*
X103352304Y-86102490D01*
X103352304Y-86102490D02*
X102780876Y-86673919D01*
X102780876Y-86673919D02*
X103399923Y-86673919D01*
X104257066Y-86007252D02*
X104257066Y-86673919D01*
X104018971Y-85626300D02*
X103780876Y-86340585D01*
X103780876Y-86340585D02*
X104399923Y-86340585D01*
X95018266Y-133109619D02*
X95018266Y-133823904D01*
X95018266Y-133823904D02*
X94970647Y-133966761D01*
X94970647Y-133966761D02*
X94875409Y-134062000D01*
X94875409Y-134062000D02*
X94732552Y-134109619D01*
X94732552Y-134109619D02*
X94637314Y-134109619D01*
X95923028Y-133442952D02*
X95923028Y-134109619D01*
X95684933Y-133062000D02*
X95446838Y-133776285D01*
X95446838Y-133776285D02*
X96065885Y-133776285D01*
X122939980Y-115482666D02*
X122987600Y-115530285D01*
X122987600Y-115530285D02*
X123035219Y-115673142D01*
X123035219Y-115673142D02*
X123035219Y-115768380D01*
X123035219Y-115768380D02*
X122987600Y-115911237D01*
X122987600Y-115911237D02*
X122892361Y-116006475D01*
X122892361Y-116006475D02*
X122797123Y-116054094D01*
X122797123Y-116054094D02*
X122606647Y-116101713D01*
X122606647Y-116101713D02*
X122463790Y-116101713D01*
X122463790Y-116101713D02*
X122273314Y-116054094D01*
X122273314Y-116054094D02*
X122178076Y-116006475D01*
X122178076Y-116006475D02*
X122082838Y-115911237D01*
X122082838Y-115911237D02*
X122035219Y-115768380D01*
X122035219Y-115768380D02*
X122035219Y-115673142D01*
X122035219Y-115673142D02*
X122082838Y-115530285D01*
X122082838Y-115530285D02*
X122130457Y-115482666D01*
X123035219Y-115006475D02*
X123035219Y-114815999D01*
X123035219Y-114815999D02*
X122987600Y-114720761D01*
X122987600Y-114720761D02*
X122939980Y-114673142D01*
X122939980Y-114673142D02*
X122797123Y-114577904D01*
X122797123Y-114577904D02*
X122606647Y-114530285D01*
X122606647Y-114530285D02*
X122225695Y-114530285D01*
X122225695Y-114530285D02*
X122130457Y-114577904D01*
X122130457Y-114577904D02*
X122082838Y-114625523D01*
X122082838Y-114625523D02*
X122035219Y-114720761D01*
X122035219Y-114720761D02*
X122035219Y-114911237D01*
X122035219Y-114911237D02*
X122082838Y-115006475D01*
X122082838Y-115006475D02*
X122130457Y-115054094D01*
X122130457Y-115054094D02*
X122225695Y-115101713D01*
X122225695Y-115101713D02*
X122463790Y-115101713D01*
X122463790Y-115101713D02*
X122559028Y-115054094D01*
X122559028Y-115054094D02*
X122606647Y-115006475D01*
X122606647Y-115006475D02*
X122654266Y-114911237D01*
X122654266Y-114911237D02*
X122654266Y-114720761D01*
X122654266Y-114720761D02*
X122606647Y-114625523D01*
X122606647Y-114625523D02*
X122559028Y-114577904D01*
X122559028Y-114577904D02*
X122463790Y-114530285D01*
X107541219Y-111742457D02*
X107065028Y-112075790D01*
X107541219Y-112313885D02*
X106541219Y-112313885D01*
X106541219Y-112313885D02*
X106541219Y-111932933D01*
X106541219Y-111932933D02*
X106588838Y-111837695D01*
X106588838Y-111837695D02*
X106636457Y-111790076D01*
X106636457Y-111790076D02*
X106731695Y-111742457D01*
X106731695Y-111742457D02*
X106874552Y-111742457D01*
X106874552Y-111742457D02*
X106969790Y-111790076D01*
X106969790Y-111790076D02*
X107017409Y-111837695D01*
X107017409Y-111837695D02*
X107065028Y-111932933D01*
X107065028Y-111932933D02*
X107065028Y-112313885D01*
X107541219Y-110790076D02*
X107541219Y-111361504D01*
X107541219Y-111075790D02*
X106541219Y-111075790D01*
X106541219Y-111075790D02*
X106684076Y-111171028D01*
X106684076Y-111171028D02*
X106779314Y-111266266D01*
X106779314Y-111266266D02*
X106826933Y-111361504D01*
X107541219Y-109837695D02*
X107541219Y-110409123D01*
X107541219Y-110123409D02*
X106541219Y-110123409D01*
X106541219Y-110123409D02*
X106684076Y-110218647D01*
X106684076Y-110218647D02*
X106779314Y-110313885D01*
X106779314Y-110313885D02*
X106826933Y-110409123D01*
X81995180Y-91809866D02*
X82042800Y-91857485D01*
X82042800Y-91857485D02*
X82090419Y-92000342D01*
X82090419Y-92000342D02*
X82090419Y-92095580D01*
X82090419Y-92095580D02*
X82042800Y-92238437D01*
X82042800Y-92238437D02*
X81947561Y-92333675D01*
X81947561Y-92333675D02*
X81852323Y-92381294D01*
X81852323Y-92381294D02*
X81661847Y-92428913D01*
X81661847Y-92428913D02*
X81518990Y-92428913D01*
X81518990Y-92428913D02*
X81328514Y-92381294D01*
X81328514Y-92381294D02*
X81233276Y-92333675D01*
X81233276Y-92333675D02*
X81138038Y-92238437D01*
X81138038Y-92238437D02*
X81090419Y-92095580D01*
X81090419Y-92095580D02*
X81090419Y-92000342D01*
X81090419Y-92000342D02*
X81138038Y-91857485D01*
X81138038Y-91857485D02*
X81185657Y-91809866D01*
X81090419Y-90952723D02*
X81090419Y-91143199D01*
X81090419Y-91143199D02*
X81138038Y-91238437D01*
X81138038Y-91238437D02*
X81185657Y-91286056D01*
X81185657Y-91286056D02*
X81328514Y-91381294D01*
X81328514Y-91381294D02*
X81518990Y-91428913D01*
X81518990Y-91428913D02*
X81899942Y-91428913D01*
X81899942Y-91428913D02*
X81995180Y-91381294D01*
X81995180Y-91381294D02*
X82042800Y-91333675D01*
X82042800Y-91333675D02*
X82090419Y-91238437D01*
X82090419Y-91238437D02*
X82090419Y-91047961D01*
X82090419Y-91047961D02*
X82042800Y-90952723D01*
X82042800Y-90952723D02*
X81995180Y-90905104D01*
X81995180Y-90905104D02*
X81899942Y-90857485D01*
X81899942Y-90857485D02*
X81661847Y-90857485D01*
X81661847Y-90857485D02*
X81566609Y-90905104D01*
X81566609Y-90905104D02*
X81518990Y-90952723D01*
X81518990Y-90952723D02*
X81471371Y-91047961D01*
X81471371Y-91047961D02*
X81471371Y-91238437D01*
X81471371Y-91238437D02*
X81518990Y-91333675D01*
X81518990Y-91333675D02*
X81566609Y-91381294D01*
X81566609Y-91381294D02*
X81661847Y-91428913D01*
X81703942Y-104086819D02*
X81370609Y-103610628D01*
X81132514Y-104086819D02*
X81132514Y-103086819D01*
X81132514Y-103086819D02*
X81513466Y-103086819D01*
X81513466Y-103086819D02*
X81608704Y-103134438D01*
X81608704Y-103134438D02*
X81656323Y-103182057D01*
X81656323Y-103182057D02*
X81703942Y-103277295D01*
X81703942Y-103277295D02*
X81703942Y-103420152D01*
X81703942Y-103420152D02*
X81656323Y-103515390D01*
X81656323Y-103515390D02*
X81608704Y-103563009D01*
X81608704Y-103563009D02*
X81513466Y-103610628D01*
X81513466Y-103610628D02*
X81132514Y-103610628D01*
X82656323Y-104086819D02*
X82084895Y-104086819D01*
X82370609Y-104086819D02*
X82370609Y-103086819D01*
X82370609Y-103086819D02*
X82275371Y-103229676D01*
X82275371Y-103229676D02*
X82180133Y-103324914D01*
X82180133Y-103324914D02*
X82084895Y-103372533D01*
X83275371Y-103086819D02*
X83370609Y-103086819D01*
X83370609Y-103086819D02*
X83465847Y-103134438D01*
X83465847Y-103134438D02*
X83513466Y-103182057D01*
X83513466Y-103182057D02*
X83561085Y-103277295D01*
X83561085Y-103277295D02*
X83608704Y-103467771D01*
X83608704Y-103467771D02*
X83608704Y-103705866D01*
X83608704Y-103705866D02*
X83561085Y-103896342D01*
X83561085Y-103896342D02*
X83513466Y-103991580D01*
X83513466Y-103991580D02*
X83465847Y-104039200D01*
X83465847Y-104039200D02*
X83370609Y-104086819D01*
X83370609Y-104086819D02*
X83275371Y-104086819D01*
X83275371Y-104086819D02*
X83180133Y-104039200D01*
X83180133Y-104039200D02*
X83132514Y-103991580D01*
X83132514Y-103991580D02*
X83084895Y-103896342D01*
X83084895Y-103896342D02*
X83037276Y-103705866D01*
X83037276Y-103705866D02*
X83037276Y-103467771D01*
X83037276Y-103467771D02*
X83084895Y-103277295D01*
X83084895Y-103277295D02*
X83132514Y-103182057D01*
X83132514Y-103182057D02*
X83180133Y-103134438D01*
X83180133Y-103134438D02*
X83275371Y-103086819D01*
D11*
X85378700Y-94148100D02*
X85378700Y-93648100D01*
X85378700Y-94148100D02*
X85378700Y-94648100D01*
X88478700Y-91048100D02*
X87978700Y-91048100D01*
X88478700Y-91048100D02*
X88978700Y-91048100D01*
X88478700Y-97248100D02*
X87978700Y-97248100D01*
X88478700Y-97248100D02*
X88978700Y-97248100D01*
X91578700Y-94148100D02*
X91578700Y-93648100D01*
X91578700Y-94148100D02*
X91578700Y-94648100D01*
X92907700Y-94148100D02*
X92907700Y-93648100D01*
X92907700Y-94148100D02*
X92907700Y-94648100D01*
X96007700Y-91048100D02*
X95507700Y-91048100D01*
X96007700Y-91048100D02*
X96507700Y-91048100D01*
X96007700Y-97248100D02*
X95507700Y-97248100D01*
X96007700Y-97248100D02*
X96507700Y-97248100D01*
X99107700Y-94148100D02*
X99107700Y-93648100D01*
X99107700Y-94148100D02*
X99107700Y-94648100D01*
D13*
X83489600Y-106859121D02*
X83489600Y-106523879D01*
X84489600Y-106859121D02*
X84489600Y-106523879D01*
D14*
X105418400Y-83302300D02*
X105418400Y-87174861D01*
X105418400Y-108180100D02*
X105418400Y-109057900D01*
X105418400Y-109057900D02*
X108082982Y-109057900D01*
X108082982Y-83302300D02*
X105418400Y-83302300D01*
X121016418Y-109057900D02*
X123681000Y-109057900D01*
X123681000Y-83302300D02*
X121016418Y-83302300D01*
X123681000Y-87174861D02*
X123681000Y-83302300D01*
X123681000Y-109057900D02*
X123681000Y-108180100D01*
D15*
G36*
X105295700Y-99545600D02*
G01*
X105041700Y-99545600D01*
X105041700Y-99164600D01*
X105295700Y-99164600D01*
X105295700Y-99545600D01*
G37*
G36*
X115375200Y-109438100D02*
G01*
X114994200Y-109438100D01*
X114994200Y-109184100D01*
X115375200Y-109184100D01*
X115375200Y-109438100D01*
G37*
G36*
X119185200Y-83176100D02*
G01*
X118804200Y-83176100D01*
X118804200Y-82922100D01*
X119185200Y-82922100D01*
X119185200Y-83176100D01*
G37*
G36*
X124057700Y-98275600D02*
G01*
X123803700Y-98275600D01*
X123803700Y-97894600D01*
X124057700Y-97894600D01*
X124057700Y-98275600D01*
G37*
D13*
X96578800Y-115798935D02*
X96578800Y-115567265D01*
X97578800Y-115798935D02*
X97578800Y-115567265D01*
X93859865Y-118213100D02*
X94091535Y-118213100D01*
X93859865Y-117213100D02*
X94091535Y-117213100D01*
X88410800Y-102772648D02*
X88410800Y-103295152D01*
X89880800Y-102772648D02*
X89880800Y-103295152D01*
X99844700Y-114657848D02*
X99844700Y-115180352D01*
X101314700Y-114657848D02*
X101314700Y-115180352D01*
X95584300Y-85446324D02*
X95584300Y-84936876D01*
X96629300Y-85446324D02*
X96629300Y-84936876D01*
X118299100Y-113782300D02*
X118299100Y-111582300D01*
X118299100Y-113782300D02*
X118299100Y-115982300D01*
X121519100Y-113782300D02*
X121519100Y-111582300D01*
X121519100Y-113782300D02*
X121519100Y-115982300D01*
X121674100Y-111122300D02*
X121344100Y-110882300D01*
X121674100Y-110642300D01*
X121674100Y-111122300D01*
G36*
X121674100Y-111122300D02*
G01*
X121344100Y-110882300D01*
X121674100Y-110642300D01*
X121674100Y-111122300D01*
G37*
X127145800Y-107632836D02*
X127145800Y-108086964D01*
X128615800Y-107632836D02*
X128615800Y-108086964D01*
X130292800Y-119924600D02*
X131622800Y-119924600D01*
X130292800Y-121254600D02*
X130292800Y-119924600D01*
X130292800Y-122524600D02*
X130292800Y-125124600D01*
X130292800Y-122524600D02*
X132952800Y-122524600D01*
X130292800Y-125124600D02*
X132952800Y-125124600D01*
X132952800Y-122524600D02*
X132952800Y-125124600D01*
X101876700Y-114657848D02*
X101876700Y-115180352D01*
X103346700Y-114657848D02*
X103346700Y-115180352D01*
X87230452Y-109923100D02*
X86707948Y-109923100D01*
X87230452Y-111393100D02*
X86707948Y-111393100D01*
X85166226Y-101081950D02*
X85675674Y-101081950D01*
X85166226Y-102126950D02*
X85675674Y-102126950D01*
X121172400Y-128753500D02*
X121672400Y-128753500D01*
X121422400Y-128503500D02*
X121422400Y-129003500D01*
X121912400Y-129117937D02*
X121912400Y-129253500D01*
X121912400Y-129117937D02*
X122976837Y-128053500D01*
X121912400Y-131509063D02*
X121912400Y-131373500D01*
X121912400Y-131509063D02*
X122976837Y-132573500D01*
X122976837Y-128053500D02*
X126432400Y-128053500D01*
X122976837Y-132573500D02*
X126432400Y-132573500D01*
X126432400Y-128053500D02*
X126432400Y-129253500D01*
X126432400Y-132573500D02*
X126432400Y-131373500D01*
X104244800Y-114576400D02*
X105032300Y-114576400D01*
X104638550Y-114182650D02*
X104638550Y-114970150D01*
X105272300Y-114078337D02*
X105272300Y-115363900D01*
X105272300Y-114078337D02*
X106336737Y-113013900D01*
X105272300Y-118769463D02*
X105272300Y-117483900D01*
X105272300Y-118769463D02*
X106336737Y-119833900D01*
X106336737Y-113013900D02*
X112092300Y-113013900D01*
X106336737Y-119833900D02*
X112092300Y-119833900D01*
X112092300Y-113013900D02*
X112092300Y-115363900D01*
X112092300Y-119833900D02*
X112092300Y-117483900D01*
X113981100Y-113782300D02*
X113981100Y-111582300D01*
X113981100Y-113782300D02*
X113981100Y-115982300D01*
X117201100Y-113782300D02*
X117201100Y-111582300D01*
X117201100Y-113782300D02*
X117201100Y-115982300D01*
X117356100Y-111122300D02*
X117026100Y-110882300D01*
X117356100Y-110642300D01*
X117356100Y-111122300D01*
G36*
X117356100Y-111122300D02*
G01*
X117026100Y-110882300D01*
X117356100Y-110642300D01*
X117356100Y-111122300D01*
G37*
D11*
X94391800Y-82691600D02*
G75*
G02*
X94291800Y-82691600I-50000J0D01*
G01*
X94291800Y-82691600D02*
G75*
G02*
X94391800Y-82691600I50000J0D01*
G01*
D13*
X104857800Y-122723824D02*
X104857800Y-122214376D01*
X105902800Y-122723824D02*
X105902800Y-122214376D01*
X93748700Y-110792352D02*
X93748700Y-110269848D01*
X95218700Y-110792352D02*
X95218700Y-110269848D01*
D11*
X103957100Y-124001800D02*
G75*
G02*
X103857100Y-124001800I-50000J0D01*
G01*
X103857100Y-124001800D02*
G75*
G02*
X103957100Y-124001800I50000J0D01*
G01*
X93962200Y-82691500D02*
G75*
G02*
X93862200Y-82691500I-50000J0D01*
G01*
X93862200Y-82691500D02*
G75*
G02*
X93962200Y-82691500I50000J0D01*
G01*
D13*
X92978700Y-101890100D02*
X94238700Y-101890100D01*
X92978700Y-105650100D02*
X92978700Y-101890100D01*
X99798700Y-101890100D02*
X98538700Y-101890100D01*
X99798700Y-105650100D02*
X99798700Y-101890100D01*
X93078700Y-106930100D02*
X92748700Y-107170100D01*
X92748700Y-106690100D01*
X93078700Y-106930100D01*
G36*
X93078700Y-106930100D02*
G01*
X92748700Y-107170100D01*
X92748700Y-106690100D01*
X93078700Y-106930100D01*
G37*
X89941064Y-106312100D02*
X89486936Y-106312100D01*
X89941064Y-107782100D02*
X89486936Y-107782100D01*
X98334300Y-85446324D02*
X98334300Y-84936876D01*
X99379300Y-85446324D02*
X99379300Y-84936876D01*
X119068536Y-120332900D02*
X119522664Y-120332900D01*
X119068536Y-121802900D02*
X119522664Y-121802900D01*
X97812700Y-110792352D02*
X97812700Y-110269848D01*
X99282700Y-110792352D02*
X99282700Y-110269848D01*
X102971700Y-93944848D02*
X102971700Y-95367352D01*
X104791700Y-93944848D02*
X104791700Y-95367352D01*
X92683500Y-85413824D02*
X92683500Y-84904376D01*
X93728500Y-85413824D02*
X93728500Y-84904376D01*
X109495048Y-110687900D02*
X110917552Y-110687900D01*
X109495048Y-112507900D02*
X110917552Y-112507900D01*
D16*
X112521600Y-127116700D02*
X119521600Y-127116700D01*
X112521600Y-133316700D02*
X112521600Y-127116700D01*
X112521600Y-134116700D02*
X112521600Y-133316700D01*
X119521600Y-127116700D02*
X119521600Y-133316700D01*
X119521600Y-133316700D02*
X112521600Y-133316700D01*
X119521600Y-133316700D02*
X119521600Y-134116700D01*
X119521600Y-134116700D02*
X112521600Y-134116700D01*
X124919700Y-98748100D02*
X125719700Y-98748100D01*
X124919700Y-105748100D02*
X124919700Y-98748100D01*
X125719700Y-98748100D02*
X131919700Y-98748100D01*
X125719700Y-105748100D02*
X124919700Y-105748100D01*
X125719700Y-105748100D02*
X125719700Y-98748100D01*
X131919700Y-98748100D02*
X131919700Y-105748100D01*
X131919700Y-105748100D02*
X125719700Y-105748100D01*
D13*
X100374200Y-100994648D02*
X100374200Y-101517152D01*
X101844200Y-100994648D02*
X101844200Y-101517152D01*
X122069700Y-110964436D02*
X122069700Y-111418564D01*
X123539700Y-110964436D02*
X123539700Y-111418564D01*
X103195952Y-89301100D02*
X101773448Y-89301100D01*
X103195952Y-91121100D02*
X101773448Y-91121100D01*
X82673200Y-95921848D02*
X82673200Y-97344352D01*
X84493200Y-95921848D02*
X84493200Y-97344352D01*
X108095736Y-121501300D02*
X108549864Y-121501300D01*
X108095736Y-122971300D02*
X108549864Y-122971300D01*
X93562000Y-119291100D02*
X83552000Y-119291100D01*
X93562000Y-119291100D02*
X93562000Y-125791100D01*
X93562000Y-125791100D02*
X83552000Y-125791100D01*
D17*
X91775699Y-113157099D02*
X91775699Y-113357099D01*
X91775699Y-117357101D02*
X91775699Y-117557101D01*
X92075701Y-113157099D02*
X91775699Y-113157099D01*
X92075701Y-117557101D02*
X91775699Y-117557101D01*
X96175701Y-113157099D02*
X95875699Y-113157099D01*
X96175701Y-113157099D02*
X96175701Y-113357099D01*
X96180699Y-117357101D02*
X96180699Y-117557101D01*
X96180699Y-117557101D02*
X95275700Y-117557101D01*
D13*
X100374200Y-106546352D02*
X100374200Y-106023848D01*
X101844200Y-106546352D02*
X101844200Y-106023848D01*
X129130300Y-106362100D02*
X129130300Y-113372100D01*
X132430300Y-106362100D02*
X129130300Y-106362100D01*
X132430300Y-106362100D02*
X132430300Y-113372100D01*
X114270800Y-121864836D02*
X114270800Y-123318964D01*
X116090800Y-121864836D02*
X116090800Y-123318964D01*
X123461148Y-125796700D02*
X124883652Y-125796700D01*
X123461148Y-127616700D02*
X124883652Y-127616700D01*
X125395500Y-120213900D02*
X123445500Y-120213900D01*
X125395500Y-120213900D02*
X127345500Y-120213900D01*
X125395500Y-125333900D02*
X123445500Y-125333900D01*
X125395500Y-125333900D02*
X127345500Y-125333900D01*
X128335500Y-125568900D02*
X127855500Y-125568900D01*
X128095500Y-125238900D01*
X128335500Y-125568900D01*
G36*
X128335500Y-125568900D02*
G01*
X127855500Y-125568900D01*
X128095500Y-125238900D01*
X128335500Y-125568900D01*
G37*
X103019700Y-111012164D02*
X103019700Y-110558036D01*
X104489700Y-111012164D02*
X104489700Y-110558036D01*
X100225700Y-93159036D02*
X100225700Y-93613164D01*
X101695700Y-93159036D02*
X101695700Y-93613164D01*
X95780700Y-110792352D02*
X95780700Y-110269848D01*
X97250700Y-110792352D02*
X97250700Y-110269848D01*
X119068536Y-123533300D02*
X119522664Y-123533300D01*
X119068536Y-125003300D02*
X119522664Y-125003300D01*
D11*
X97257000Y-82691600D02*
G75*
G02*
X97157000Y-82691600I-50000J0D01*
G01*
X97157000Y-82691600D02*
G75*
G02*
X97257000Y-82691600I50000J0D01*
G01*
D13*
X89498700Y-114079100D02*
X85498700Y-114079100D01*
X89498700Y-118299100D02*
X85498700Y-118299100D01*
X100987700Y-111012164D02*
X100987700Y-110558036D01*
X102457700Y-111012164D02*
X102457700Y-110558036D01*
X103380952Y-87190100D02*
X102858448Y-87190100D01*
X103380952Y-88660100D02*
X102858448Y-88660100D01*
X91716700Y-110792352D02*
X91716700Y-110269848D01*
X93186700Y-110792352D02*
X93186700Y-110269848D01*
X97812700Y-114657848D02*
X97812700Y-115180352D01*
X99282700Y-114657848D02*
X99282700Y-115180352D01*
D17*
X82549400Y-128230000D02*
G75*
G02*
X82349400Y-128230000I-100000J0D01*
G01*
X82349400Y-128230000D02*
G75*
G02*
X82549400Y-128230000I100000J0D01*
G01*
X109119400Y-132015000D02*
X109119400Y-127065000D01*
X109119400Y-127065000D02*
X83209400Y-127065000D01*
X83209400Y-132015000D02*
X109119400Y-132015000D01*
X83209400Y-127065000D02*
X83209400Y-132015000D01*
D13*
X123418700Y-116474752D02*
X123418700Y-115052248D01*
X125238700Y-116474752D02*
X125238700Y-115052248D01*
X105010200Y-110784376D02*
X105010200Y-111293824D01*
X106055200Y-110784376D02*
X106055200Y-111293824D01*
X90595200Y-102772648D02*
X90595200Y-103295152D01*
X92065200Y-102772648D02*
X92065200Y-103295152D01*
D16*
X124919700Y-87445100D02*
X125719700Y-87445100D01*
X124919700Y-97945100D02*
X124919700Y-87445100D01*
X125719700Y-87445100D02*
X131919700Y-87445100D01*
X125719700Y-97945100D02*
X124919700Y-97945100D01*
X125719700Y-97945100D02*
X125719700Y-87445100D01*
X131919700Y-87445100D02*
X131919700Y-97945100D01*
X131919700Y-97945100D02*
X125719700Y-97945100D01*
D13*
X87230452Y-111955100D02*
X86707948Y-111955100D01*
X87230452Y-113425100D02*
X86707948Y-113425100D01*
X82673200Y-92276652D02*
X82673200Y-90854148D01*
X84493200Y-92276652D02*
X84493200Y-90854148D01*
X85851214Y-102698250D02*
X85397086Y-102698250D01*
X85851214Y-104168250D02*
X85397086Y-104168250D01*
%LPC*%
D18*
X86228700Y-98123100D03*
X86228700Y-90173100D03*
X90728700Y-98123100D03*
X90728700Y-90173100D03*
X93757700Y-98123100D03*
X93757700Y-90173100D03*
X98257700Y-98123100D03*
X98257700Y-90173100D03*
D19*
X83989600Y-107289000D03*
X83989600Y-106094000D03*
D20*
X105968800Y-90576400D03*
X105968800Y-91846400D03*
X105968800Y-93116400D03*
X105968800Y-94386400D03*
X105968800Y-95656400D03*
X105968800Y-96926400D03*
X105968800Y-98196400D03*
X105968800Y-99466400D03*
X105968800Y-100736400D03*
X105968800Y-102006400D03*
X105968800Y-103276400D03*
X105968800Y-104546400D03*
X105968800Y-105816400D03*
X105968800Y-107086400D03*
D21*
X108834700Y-108511000D03*
X110104700Y-108511000D03*
X111374700Y-108511000D03*
X112644700Y-108511000D03*
X113914700Y-108511000D03*
X115184700Y-108511000D03*
X116454700Y-108511000D03*
X117724700Y-108511000D03*
X118994700Y-108511000D03*
X120264700Y-108511000D03*
D20*
X123130600Y-107086400D03*
X123130600Y-105816400D03*
X123130600Y-104546400D03*
X123130600Y-103276400D03*
X123130600Y-102006400D03*
X123130600Y-100736400D03*
X123130600Y-99466400D03*
X123130600Y-98196400D03*
X123130600Y-96926400D03*
X123130600Y-95656400D03*
X123130600Y-94386400D03*
X123130600Y-93116400D03*
X123130600Y-91846400D03*
X123130600Y-90576400D03*
D22*
X108549700Y-90680100D03*
X108549700Y-94680100D03*
X108549700Y-98680100D03*
X108549700Y-103180100D03*
X112549700Y-90680100D03*
X112549700Y-94680100D03*
X112549700Y-98680100D03*
X112549700Y-103180100D03*
D23*
X114549700Y-99079800D03*
D22*
X116549700Y-90680100D03*
X116549700Y-94680100D03*
X116549700Y-98680100D03*
X116549700Y-103180100D03*
X120549700Y-90680100D03*
X120549700Y-94680100D03*
X120549700Y-98680100D03*
X120549700Y-103180100D03*
D24*
X97078800Y-116250600D03*
X97078800Y-115115600D03*
D25*
X94543200Y-117713100D03*
X93408200Y-117713100D03*
D26*
X89145800Y-101996400D03*
X89145800Y-104071400D03*
X100579700Y-113881600D03*
X100579700Y-115956600D03*
D27*
X96106800Y-86104100D03*
X96106800Y-84279100D03*
D28*
X120884100Y-110919800D03*
X120234100Y-110919800D03*
X119584100Y-110919800D03*
X118934100Y-110919800D03*
X118934100Y-116644800D03*
X119584100Y-116644800D03*
X120234100Y-116644800D03*
X120884100Y-116644800D03*
D29*
X127880800Y-106859900D03*
X127880800Y-108859900D03*
D30*
X131622800Y-121254600D03*
D31*
X131622800Y-123794600D03*
D26*
X102611700Y-113881600D03*
X102611700Y-115956600D03*
D32*
X88006700Y-110658100D03*
X85931700Y-110658100D03*
D33*
X84508450Y-101604450D03*
X86333450Y-101604450D03*
D34*
X122372400Y-130313500D03*
X125972400Y-130313500D03*
D35*
X105882300Y-116423900D03*
X111482300Y-116423900D03*
D28*
X116566100Y-110919800D03*
X115916100Y-110919800D03*
X115266100Y-110919800D03*
X114616100Y-110919800D03*
X114616100Y-116644800D03*
X115266100Y-116644800D03*
X115916100Y-116644800D03*
X116566100Y-116644800D03*
D36*
X95034300Y-82691600D03*
X96179300Y-82691600D03*
D27*
X105380300Y-123381600D03*
X105380300Y-121556600D03*
D37*
X94483700Y-111568600D03*
X94483700Y-109493600D03*
D38*
X103907100Y-123309300D03*
X103907100Y-122164300D03*
D39*
X93219700Y-82691500D03*
X92074700Y-82691500D03*
D40*
X94088700Y-106950100D03*
X96388700Y-106950100D03*
D41*
X96388700Y-100650100D03*
D40*
X98688700Y-106950100D03*
D42*
X90714000Y-107047100D03*
X88714000Y-107047100D03*
D27*
X98856800Y-86104100D03*
X98856800Y-84279100D03*
D43*
X118295600Y-121067900D03*
X120295600Y-121067900D03*
D37*
X98547700Y-111568600D03*
X98547700Y-109493600D03*
D44*
X103881700Y-93093600D03*
X103881700Y-96218600D03*
D27*
X93206000Y-86071600D03*
X93206000Y-84246600D03*
D45*
X108643800Y-111597900D03*
X111768800Y-111597900D03*
D46*
X114271600Y-130516700D03*
D47*
X117771600Y-130516700D03*
D46*
X128519700Y-100498100D03*
D47*
X128519700Y-103998100D03*
D26*
X101109200Y-100218400D03*
X101109200Y-102293400D03*
D29*
X122804700Y-110191500D03*
X122804700Y-112191500D03*
D48*
X104047200Y-90211100D03*
X100922200Y-90211100D03*
D44*
X83583200Y-95070600D03*
X83583200Y-98195600D03*
D43*
X107322800Y-122236300D03*
X109322800Y-122236300D03*
D49*
X91152000Y-122541100D03*
D50*
X84752000Y-122541100D03*
D51*
X95875699Y-116957099D03*
X95875699Y-116157101D03*
X95875699Y-115357100D03*
X95875699Y-114557099D03*
X95875699Y-113757101D03*
X92075701Y-113757101D03*
X92075701Y-114557099D03*
X92075701Y-115357100D03*
X92075701Y-116157101D03*
X92075701Y-116957099D03*
D52*
X93975700Y-115357100D03*
D53*
X94975701Y-115357100D03*
X93975700Y-116557100D03*
X93975700Y-115357100D03*
X93975700Y-114157100D03*
X92975702Y-115357100D03*
D37*
X101109200Y-107322600D03*
X101109200Y-105247600D03*
D54*
X130780300Y-108372100D03*
X130780300Y-113372100D03*
D55*
X115180800Y-121041900D03*
X115180800Y-124141900D03*
D45*
X122609900Y-126706700D03*
X125734900Y-126706700D03*
D56*
X127870500Y-124678900D03*
X127870500Y-123408900D03*
X127870500Y-122138900D03*
X127870500Y-120868900D03*
X122920500Y-120868900D03*
X122920500Y-122138900D03*
X122920500Y-123408900D03*
X122920500Y-124678900D03*
D57*
X103754700Y-111785100D03*
X103754700Y-109785100D03*
D29*
X100960700Y-92386100D03*
X100960700Y-94386100D03*
D37*
X96515700Y-111568600D03*
X96515700Y-109493600D03*
D43*
X118295600Y-124268300D03*
X120295600Y-124268300D03*
D36*
X97899500Y-82691600D03*
X99044500Y-82691600D03*
D58*
X89023700Y-116189100D03*
X85973700Y-116189100D03*
D57*
X101722700Y-111785100D03*
X101722700Y-109785100D03*
D32*
X104157200Y-87925100D03*
X102082200Y-87925100D03*
D37*
X92451700Y-111568600D03*
X92451700Y-109493600D03*
D26*
X98547700Y-113881600D03*
X98547700Y-115956600D03*
D59*
X107594400Y-130810000D03*
X107594400Y-128270000D03*
X105054400Y-130810000D03*
X105054400Y-128270000D03*
X102514400Y-130810000D03*
X102514400Y-128270000D03*
X99974400Y-130810000D03*
X99974400Y-128270000D03*
X97434400Y-130810000D03*
X97434400Y-128270000D03*
X94894400Y-130810000D03*
X94894400Y-128270000D03*
X92354400Y-130810000D03*
X92354400Y-128270000D03*
X89814400Y-130810000D03*
X89814400Y-128270000D03*
X87274400Y-130810000D03*
X87274400Y-128270000D03*
X84734400Y-130810000D03*
D60*
X84734400Y-128270000D03*
D61*
X124328700Y-117326000D03*
X124328700Y-114201000D03*
D62*
X105532700Y-110126600D03*
X105532700Y-111951600D03*
D26*
X91330200Y-101996400D03*
X91330200Y-104071400D03*
D63*
X128519700Y-89195100D03*
D64*
X128519700Y-92695100D03*
X128519700Y-96195100D03*
D32*
X88006700Y-112690100D03*
X85931700Y-112690100D03*
D61*
X83583200Y-93127900D03*
X83583200Y-90002900D03*
D42*
X86624150Y-103433250D03*
X84624150Y-103433250D03*
%LPD*%
M02*
