G04 #@! TF.GenerationSoftware,KiCad,Pcbnew,8.0.7*
G04 #@! TF.CreationDate,2025-07-10T22:44:40+02:00*
G04 #@! TF.ProjectId,modbus-to-x,6d6f6462-7573-42d7-946f-2d782e6b6963,rev?*
G04 #@! TF.SameCoordinates,Original*
G04 #@! TF.FileFunction,Soldermask,Bot*
G04 #@! TF.FilePolarity,Negative*
%FSLAX46Y46*%
G04 Gerber Fmt 4.6, Leading zero omitted, Abs format (unit mm)*
G04 Created by KiCad (PCBNEW 8.0.7) date 2025-07-10 22:44:40*
%MOMM*%
%LPD*%
G01*
G04 APERTURE LIST*
G04 Aperture macros list*
%AMRoundRect*
0 Rectangle with rounded corners*
0 $1 Rounding radius*
0 $2 $3 $4 $5 $6 $7 $8 $9 X,Y pos of 4 corners*
0 Add a 4 corners polygon primitive as box body*
4,1,4,$2,$3,$4,$5,$6,$7,$8,$9,$2,$3,0*
0 Add four circle primitives for the rounded corners*
1,1,$1+$1,$2,$3*
1,1,$1+$1,$4,$5*
1,1,$1+$1,$6,$7*
1,1,$1+$1,$8,$9*
0 Add four rect primitives between the rounded corners*
20,1,$1+$1,$2,$3,$4,$5,0*
20,1,$1+$1,$4,$5,$6,$7,0*
20,1,$1+$1,$6,$7,$8,$9,0*
20,1,$1+$1,$8,$9,$2,$3,0*%
G04 Aperture macros list end*
%ADD10C,0.600000*%
%ADD11R,1.700000X1.700000*%
%ADD12O,1.700000X1.700000*%
%ADD13R,2.032000X2.032000*%
%ADD14C,2.032000*%
%ADD15C,0.499999*%
%ADD16C,1.734000*%
%ADD17RoundRect,0.102000X0.765000X0.765000X-0.765000X0.765000X-0.765000X-0.765000X0.765000X-0.765000X0*%
%ADD18R,2.413000X2.413000*%
%ADD19C,2.413000*%
G04 APERTURE END LIST*
D10*
X108549700Y-90680100D03*
X108549700Y-94680100D03*
X108549700Y-98680100D03*
X108549700Y-103180100D03*
X112549700Y-90680100D03*
X112549700Y-94680100D03*
X112549700Y-98680100D03*
X112549700Y-103180100D03*
X116549700Y-90680100D03*
X116549700Y-94680100D03*
X116549700Y-98680100D03*
X116549700Y-103180100D03*
X120549700Y-90680100D03*
X120549700Y-94680100D03*
X120549700Y-98680100D03*
X120549700Y-103180100D03*
D11*
X131622800Y-121254600D03*
D12*
X131622800Y-123794600D03*
D13*
X114271600Y-130516700D03*
D14*
X117771600Y-130516700D03*
D13*
X128519700Y-100498100D03*
D14*
X128519700Y-103998100D03*
D15*
X94975701Y-115357100D03*
X93975700Y-116557100D03*
X93975700Y-115357100D03*
X93975700Y-114157100D03*
X92975702Y-115357100D03*
D16*
X107594400Y-130810000D03*
X107594400Y-128270000D03*
X105054400Y-130810000D03*
X105054400Y-128270000D03*
X102514400Y-130810000D03*
X102514400Y-128270000D03*
X99974400Y-130810000D03*
X99974400Y-128270000D03*
X97434400Y-130810000D03*
X97434400Y-128270000D03*
X94894400Y-130810000D03*
X94894400Y-128270000D03*
X92354400Y-130810000D03*
X92354400Y-128270000D03*
X89814400Y-130810000D03*
X89814400Y-128270000D03*
X87274400Y-130810000D03*
X87274400Y-128270000D03*
X84734400Y-130810000D03*
D17*
X84734400Y-128270000D03*
D18*
X128519700Y-89195100D03*
D19*
X128519700Y-92695100D03*
X128519700Y-96195100D03*
M02*
