G04 #@! TF.GenerationSoftware,KiCad,Pcbnew,8.0.7*
G04 #@! TF.CreationDate,2025-07-06T21:45:57+02:00*
G04 #@! TF.ProjectId,modbus-to-x,6d6f6462-7573-42d7-946f-2d782e6b6963,rev?*
G04 #@! TF.SameCoordinates,Original*
G04 #@! TF.FileFunction,Soldermask,Top*
G04 #@! TF.FilePolarity,Negative*
%FSLAX46Y46*%
G04 Gerber Fmt 4.6, Leading zero omitted, Abs format (unit mm)*
G04 Created by KiCad (PCBNEW 8.0.7) date 2025-07-06 21:45:57*
%MOMM*%
%LPD*%
G01*
G04 APERTURE LIST*
G04 Aperture macros list*
%AMRoundRect*
0 Rectangle with rounded corners*
0 $1 Rounding radius*
0 $2 $3 $4 $5 $6 $7 $8 $9 X,Y pos of 4 corners*
0 Add a 4 corners polygon primitive as box body*
4,1,4,$2,$3,$4,$5,$6,$7,$8,$9,$2,$3,0*
0 Add four circle primitives for the rounded corners*
1,1,$1+$1,$2,$3*
1,1,$1+$1,$4,$5*
1,1,$1+$1,$6,$7*
1,1,$1+$1,$8,$9*
0 Add four rect primitives between the rounded corners*
20,1,$1+$1,$2,$3,$4,$5,0*
20,1,$1+$1,$4,$5,$6,$7,0*
20,1,$1+$1,$6,$7,$8,$9,0*
20,1,$1+$1,$8,$9,$2,$3,0*%
%AMOutline4P*
0 Free polygon, 4 corners , with rotation*
0 The origin of the aperture is its center*
0 number of corners: always 4*
0 $1 to $8 corner X, Y*
0 $9 Rotation angle, in degrees counterclockwise*
0 create outline with 4 corners*
4,1,4,$1,$2,$3,$4,$5,$6,$7,$8,$1,$2,$9*%
G04 Aperture macros list end*
%ADD10RoundRect,0.155000X-0.212500X-0.155000X0.212500X-0.155000X0.212500X0.155000X-0.212500X0.155000X0*%
%ADD11RoundRect,0.250000X-0.475000X0.337500X-0.475000X-0.337500X0.475000X-0.337500X0.475000X0.337500X0*%
%ADD12RoundRect,0.237500X0.237500X-0.250000X0.237500X0.250000X-0.237500X0.250000X-0.237500X-0.250000X0*%
%ADD13RoundRect,0.100000X-0.100000X0.637500X-0.100000X-0.637500X0.100000X-0.637500X0.100000X0.637500X0*%
%ADD14RoundRect,0.250000X-0.450000X0.350000X-0.450000X-0.350000X0.450000X-0.350000X0.450000X0.350000X0*%
%ADD15RoundRect,0.250000X0.337500X0.475000X-0.337500X0.475000X-0.337500X-0.475000X0.337500X-0.475000X0*%
%ADD16RoundRect,0.237500X-0.250000X-0.237500X0.250000X-0.237500X0.250000X0.237500X-0.250000X0.237500X0*%
%ADD17RoundRect,0.250000X-1.050000X-0.550000X1.050000X-0.550000X1.050000X0.550000X-1.050000X0.550000X0*%
%ADD18RoundRect,0.250000X-1.500000X-0.550000X1.500000X-0.550000X1.500000X0.550000X-1.500000X0.550000X0*%
%ADD19RoundRect,0.160000X-0.222500X-0.160000X0.222500X-0.160000X0.222500X0.160000X-0.222500X0.160000X0*%
%ADD20RoundRect,0.250000X0.475000X-0.337500X0.475000X0.337500X-0.475000X0.337500X-0.475000X-0.337500X0*%
%ADD21RoundRect,0.160000X0.160000X-0.222500X0.160000X0.222500X-0.160000X0.222500X-0.160000X-0.222500X0*%
%ADD22RoundRect,0.160000X0.222500X0.160000X-0.222500X0.160000X-0.222500X-0.160000X0.222500X-0.160000X0*%
%ADD23RoundRect,0.375000X0.375000X-0.625000X0.375000X0.625000X-0.375000X0.625000X-0.375000X-0.625000X0*%
%ADD24RoundRect,0.500000X1.400000X-0.500000X1.400000X0.500000X-1.400000X0.500000X-1.400000X-0.500000X0*%
%ADD25R,0.838200X0.889000*%
%ADD26R,0.889000X0.838200*%
%ADD27R,15.798800X17.602200*%
%ADD28C,0.600000*%
%ADD29RoundRect,0.250000X0.350000X0.450000X-0.350000X0.450000X-0.350000X-0.450000X0.350000X-0.450000X0*%
%ADD30RoundRect,0.160000X0.160000X-0.197500X0.160000X0.197500X-0.160000X0.197500X-0.160000X-0.197500X0*%
%ADD31RoundRect,0.250000X-0.350000X-0.450000X0.350000X-0.450000X0.350000X0.450000X-0.350000X0.450000X0*%
%ADD32RoundRect,0.250000X-0.650000X0.412500X-0.650000X-0.412500X0.650000X-0.412500X0.650000X0.412500X0*%
%ADD33RoundRect,0.250000X-0.412500X-0.650000X0.412500X-0.650000X0.412500X0.650000X-0.412500X0.650000X0*%
%ADD34R,2.032000X2.032000*%
%ADD35C,2.032000*%
%ADD36R,1.300000X1.550000*%
%ADD37RoundRect,0.250000X0.412500X0.650000X-0.412500X0.650000X-0.412500X-0.650000X0.412500X-0.650000X0*%
%ADD38Outline4P,-2.150000X-1.800000X2.150000X-0.800000X2.150000X0.800000X-2.150000X1.800000X180.000000*%
%ADD39Outline4P,-2.150000X-1.800000X2.150000X-0.800000X2.150000X0.800000X-2.150000X1.800000X0.000000*%
%ADD40RoundRect,0.155000X0.155000X-0.212500X0.155000X0.212500X-0.155000X0.212500X-0.155000X-0.212500X0*%
%ADD41O,0.599999X0.299999*%
%ADD42R,2.600000X2.999999*%
%ADD43C,0.499999*%
%ADD44RoundRect,0.250000X-0.650000X1.500000X-0.650000X-1.500000X0.650000X-1.500000X0.650000X1.500000X0*%
%ADD45RoundRect,0.250000X-0.625000X0.400000X-0.625000X-0.400000X0.625000X-0.400000X0.625000X0.400000X0*%
%ADD46RoundRect,0.150000X0.825000X0.150000X-0.825000X0.150000X-0.825000X-0.150000X0.825000X-0.150000X0*%
%ADD47RoundRect,0.250000X0.450000X-0.350000X0.450000X0.350000X-0.450000X0.350000X-0.450000X-0.350000X0*%
%ADD48R,1.500000X3.600000*%
%ADD49RoundRect,0.250000X0.650000X-0.412500X0.650000X0.412500X-0.650000X0.412500X-0.650000X-0.412500X0*%
%ADD50RoundRect,0.237500X-0.237500X0.250000X-0.237500X-0.250000X0.237500X-0.250000X0.237500X0.250000X0*%
%ADD51R,2.413000X2.413000*%
%ADD52C,2.413000*%
G04 APERTURE END LIST*
D10*
X89327000Y-115618800D03*
X90462000Y-115618800D03*
D11*
X85064600Y-99902100D03*
X85064600Y-101977100D03*
X96498500Y-111787300D03*
X96498500Y-113862300D03*
D12*
X91750000Y-83575000D03*
X91750000Y-81750000D03*
D13*
X116802900Y-108825500D03*
X116152900Y-108825500D03*
X115502900Y-108825500D03*
X114852900Y-108825500D03*
X114852900Y-114550500D03*
X115502900Y-114550500D03*
X116152900Y-114550500D03*
X116802900Y-114550500D03*
D14*
X123799600Y-104765600D03*
X123799600Y-106765600D03*
D11*
X98530500Y-111787300D03*
X98530500Y-113862300D03*
D15*
X83925500Y-108563800D03*
X81850500Y-108563800D03*
D16*
X80427250Y-99510150D03*
X82252250Y-99510150D03*
D17*
X118291200Y-128219200D03*
X121891200Y-128219200D03*
D18*
X101801100Y-114329600D03*
X107401100Y-114329600D03*
D13*
X112484900Y-108825500D03*
X111834900Y-108825500D03*
X111184900Y-108825500D03*
X110534900Y-108825500D03*
X110534900Y-114550500D03*
X111184900Y-114550500D03*
X111834900Y-114550500D03*
X112484900Y-114550500D03*
D19*
X90677500Y-80162500D03*
X91822500Y-80162500D03*
D12*
X101299100Y-121287300D03*
X101299100Y-119462300D03*
D20*
X90402500Y-109474300D03*
X90402500Y-107399300D03*
D21*
X99825900Y-121215000D03*
X99825900Y-120070000D03*
D22*
X88862900Y-80162400D03*
X87717900Y-80162400D03*
D23*
X90007500Y-104855800D03*
X92307500Y-104855800D03*
D24*
X92307500Y-98555800D03*
D23*
X94607500Y-104855800D03*
D25*
X101887600Y-88482100D03*
X101887600Y-89752100D03*
X101887600Y-91022100D03*
X101887600Y-92292100D03*
X101887600Y-93562100D03*
X101887600Y-94832100D03*
X101887600Y-96102100D03*
X101887600Y-97372100D03*
X101887600Y-98642100D03*
X101887600Y-99912100D03*
X101887600Y-101182100D03*
X101887600Y-102452100D03*
X101887600Y-103722100D03*
X101887600Y-104992100D03*
D26*
X104753500Y-106416700D03*
X106023500Y-106416700D03*
X107293500Y-106416700D03*
X108563500Y-106416700D03*
X109833500Y-106416700D03*
X111103500Y-106416700D03*
X112373500Y-106416700D03*
X113643500Y-106416700D03*
X114913500Y-106416700D03*
X116183500Y-106416700D03*
D25*
X119049400Y-104992100D03*
X119049400Y-103722100D03*
X119049400Y-102452100D03*
X119049400Y-101182100D03*
X119049400Y-99912100D03*
X119049400Y-98642100D03*
X119049400Y-97372100D03*
X119049400Y-96102100D03*
X119049400Y-94832100D03*
X119049400Y-93562100D03*
X119049400Y-92292100D03*
X119049400Y-91022100D03*
X119049400Y-89752100D03*
X119049400Y-88482100D03*
D27*
X110468500Y-96985500D03*
D28*
X104468500Y-88585800D03*
X104468500Y-92585800D03*
X104468500Y-96585800D03*
X104468500Y-101085800D03*
X108468500Y-88585800D03*
X108468500Y-92585800D03*
X108468500Y-96585800D03*
X108468500Y-101085800D03*
X112468500Y-88585800D03*
X112468500Y-92585800D03*
X112468500Y-96585800D03*
X112468500Y-101085800D03*
X116468500Y-88585800D03*
X116468500Y-92585800D03*
X116468500Y-96585800D03*
X116468500Y-101085800D03*
D29*
X86632800Y-104952800D03*
X84632800Y-104952800D03*
D30*
X79908400Y-105194700D03*
X79908400Y-103999700D03*
D12*
X94500000Y-83575000D03*
X94500000Y-81750000D03*
D31*
X114214400Y-118973600D03*
X116214400Y-118973600D03*
D20*
X94466500Y-109474300D03*
X94466500Y-107399300D03*
D32*
X99800500Y-90999300D03*
X99800500Y-94124300D03*
D12*
X88849200Y-83542500D03*
X88849200Y-81717500D03*
D33*
X104562600Y-109503600D03*
X107687600Y-109503600D03*
D34*
X104015600Y-126798400D03*
D35*
X107515600Y-126798400D03*
D34*
X124438500Y-98403800D03*
D35*
X124438500Y-101903800D03*
D11*
X97028000Y-98124100D03*
X97028000Y-100199100D03*
D14*
X118723500Y-108097200D03*
X118723500Y-110097200D03*
D36*
X89676500Y-96028800D03*
X89676500Y-88078800D03*
X94176500Y-96028800D03*
X94176500Y-88078800D03*
D37*
X99966000Y-88116800D03*
X96841000Y-88116800D03*
D36*
X82147500Y-96028800D03*
X82147500Y-88078800D03*
X86647500Y-96028800D03*
X86647500Y-88078800D03*
D32*
X79502000Y-92976300D03*
X79502000Y-96101300D03*
D31*
X103241600Y-120142000D03*
X105241600Y-120142000D03*
D38*
X87070800Y-120446800D03*
D39*
X80670800Y-120446800D03*
D40*
X92917100Y-114156300D03*
X92917100Y-113021300D03*
D41*
X91794499Y-114862799D03*
X91794499Y-114062801D03*
X91794499Y-113262800D03*
X91794499Y-112462799D03*
X91794499Y-111662801D03*
X87994501Y-111662801D03*
X87994501Y-112462799D03*
X87994501Y-113262800D03*
X87994501Y-114062801D03*
X87994501Y-114862799D03*
D42*
X89894500Y-113262800D03*
D43*
X90894501Y-113262800D03*
X89894500Y-114462800D03*
X89894500Y-113262800D03*
X89894500Y-112062800D03*
X88894502Y-113262800D03*
D20*
X97028000Y-105228300D03*
X97028000Y-103153300D03*
D44*
X126699100Y-106277800D03*
X126699100Y-111277800D03*
D45*
X111099600Y-118947600D03*
X111099600Y-122047600D03*
D33*
X118528700Y-124612400D03*
X121653700Y-124612400D03*
D46*
X123789300Y-122584600D03*
X123789300Y-121314600D03*
X123789300Y-120044600D03*
X123789300Y-118774600D03*
X118839300Y-118774600D03*
X118839300Y-120044600D03*
X118839300Y-121314600D03*
X118839300Y-122584600D03*
D47*
X99673500Y-109690800D03*
X99673500Y-107690800D03*
D14*
X96879500Y-90291800D03*
X96879500Y-92291800D03*
D20*
X92434500Y-109474300D03*
X92434500Y-107399300D03*
D31*
X114214400Y-122174000D03*
X116214400Y-122174000D03*
D19*
X93177500Y-80162500D03*
X94322500Y-80162500D03*
D48*
X84942500Y-114094800D03*
X81892500Y-114094800D03*
D47*
X97641500Y-109690800D03*
X97641500Y-107690800D03*
D15*
X100076000Y-85830800D03*
X98001000Y-85830800D03*
D20*
X88370500Y-109474300D03*
X88370500Y-107399300D03*
D11*
X94466500Y-111787300D03*
X94466500Y-113862300D03*
D49*
X120247500Y-115231700D03*
X120247500Y-112106700D03*
D50*
X101451500Y-108032300D03*
X101451500Y-109857300D03*
D11*
X87249000Y-99902100D03*
X87249000Y-101977100D03*
D51*
X124438500Y-87100800D03*
D52*
X124438500Y-90600800D03*
X124438500Y-94100800D03*
D15*
X83925500Y-110595800D03*
X81850500Y-110595800D03*
D49*
X79502000Y-91033600D03*
X79502000Y-87908600D03*
D29*
X82542950Y-101338950D03*
X80542950Y-101338950D03*
M02*
