%TF.GenerationSoftware,KiCad,Pcbnew,9.0.4*%
%TF.CreationDate,2025-09-21T22:22:11+02:00*%
%TF.ProjectId,modbus-to-x,6d6f6462-7573-42d7-946f-2d782e6b6963,rev?*%
%TF.SameCoordinates,Original*%
%TF.FileFunction,Drillmap*%
%TF.FilePolarity,Positive*%
%FSLAX45Y45*%
G04 Gerber Fmt 4.5, Leading zero omitted, Abs format (unit mm)*
G04 Created by KiCad (PCBNEW 9.0.4) date 2025-09-21 22:22:11*
%MOMM*%
%LPD*%
G01*
G04 APERTURE LIST*
%ADD10C,0.100000*%
%ADD11C,0.050000*%
%ADD12C,0.200000*%
%ADD13C,0.120000*%
G04 APERTURE END LIST*
D10*
X8000000Y-8800000D02*
G75*
G02*
X8050000Y-8750000I50000J0D01*
G01*
D11*
X10077056Y-9229040D02*
G75*
G02*
X9777056Y-9229040I-150000J0D01*
G01*
X9777056Y-9229040D02*
G75*
G02*
X10077056Y-9229040I150000J0D01*
G01*
D10*
X13200000Y-13050000D02*
X8100000Y-13050000D01*
D11*
X13099405Y-11871681D02*
G75*
G02*
X12799405Y-11871681I-150000J0D01*
G01*
X12799405Y-11871681D02*
G75*
G02*
X13099405Y-11871681I150000J0D01*
G01*
D10*
X8000000Y-12950000D02*
X8000000Y-8800000D01*
X13200000Y-8750000D02*
X8050000Y-8750000D01*
X13250000Y-8800000D02*
X13250000Y-13000000D01*
X8100000Y-13050000D02*
G75*
G02*
X8000000Y-12950000I0J100000D01*
G01*
X13200000Y-8750000D02*
G75*
G02*
X13250000Y-8800000I0J-50000D01*
G01*
X13250000Y-13000000D02*
G75*
G02*
X13200000Y-13050000I-50000J0D01*
G01*
D11*
X9957317Y-11216012D02*
G75*
G02*
X9657317Y-11216012I-150000J0D01*
G01*
X9657317Y-11216012D02*
G75*
G02*
X9957317Y-11216012I150000J0D01*
G01*
D12*
D10*
X11453180Y-9632540D02*
X11473180Y-9652540D01*
X11473180Y-9632540D02*
X11453180Y-9652540D01*
X11453180Y-9772540D02*
X11473180Y-9792540D01*
X11473180Y-9772540D02*
X11453180Y-9792540D01*
X11523180Y-9562540D02*
X11543180Y-9582540D01*
X11543180Y-9562540D02*
X11523180Y-9582540D01*
X11523180Y-9702540D02*
X11543180Y-9722540D01*
X11543180Y-9702540D02*
X11523180Y-9722540D01*
X11523180Y-9842540D02*
X11543180Y-9862540D01*
X11543180Y-9842540D02*
X11523180Y-9862540D01*
X11590680Y-9632540D02*
X11610680Y-9652540D01*
X11610680Y-9632540D02*
X11590680Y-9652540D01*
X11590680Y-9772540D02*
X11610680Y-9792540D01*
X11610680Y-9772540D02*
X11590680Y-9792540D01*
X11663180Y-9562540D02*
X11683180Y-9582540D01*
X11683180Y-9562540D02*
X11663180Y-9582540D01*
X11663180Y-9702540D02*
X11683180Y-9722540D01*
X11683180Y-9702540D02*
X11663180Y-9722540D01*
X11663180Y-9842540D02*
X11683180Y-9862540D01*
X11683180Y-9842540D02*
X11663180Y-9862540D01*
X11733180Y-9632540D02*
X11753180Y-9652540D01*
X11753180Y-9632540D02*
X11733180Y-9652540D01*
X11733180Y-9772540D02*
X11753180Y-9792540D01*
X11753180Y-9772540D02*
X11733180Y-9792540D01*
X8290320Y-11066780D02*
G75*
G02*
X8260320Y-11066780I-15000J0D01*
G01*
X8260320Y-11066780D02*
G75*
G02*
X8290320Y-11066780I15000J0D01*
G01*
X8290320Y-11237807D02*
G75*
G02*
X8260320Y-11237807I-15000J0D01*
G01*
X8260320Y-11237807D02*
G75*
G02*
X8290320Y-11237807I15000J0D01*
G01*
X8295400Y-11408833D02*
G75*
G02*
X8265400Y-11408833I-15000J0D01*
G01*
X8265400Y-11408833D02*
G75*
G02*
X8295400Y-11408833I15000J0D01*
G01*
X8295400Y-11579860D02*
G75*
G02*
X8265400Y-11579860I-15000J0D01*
G01*
X8265400Y-11579860D02*
G75*
G02*
X8295400Y-11579860I15000J0D01*
G01*
X8343660Y-9202420D02*
G75*
G02*
X8313660Y-9202420I-15000J0D01*
G01*
X8313660Y-9202420D02*
G75*
G02*
X8343660Y-9202420I15000J0D01*
G01*
X8356360Y-9857740D02*
G75*
G02*
X8326360Y-9857740I-15000J0D01*
G01*
X8326360Y-9857740D02*
G75*
G02*
X8356360Y-9857740I15000J0D01*
G01*
X8752600Y-11279070D02*
G75*
G02*
X8722600Y-11279070I-15000J0D01*
G01*
X8722600Y-11279070D02*
G75*
G02*
X8752600Y-11279070I15000J0D01*
G01*
X8752600Y-11435080D02*
G75*
G02*
X8722600Y-11435080I-15000J0D01*
G01*
X8722600Y-11435080D02*
G75*
G02*
X8752600Y-11435080I15000J0D01*
G01*
X8752600Y-11591090D02*
G75*
G02*
X8722600Y-11591090I-15000J0D01*
G01*
X8722600Y-11591090D02*
G75*
G02*
X8752600Y-11591090I15000J0D01*
G01*
X8760220Y-11023600D02*
G75*
G02*
X8730220Y-11023600I-15000J0D01*
G01*
X8730220Y-11023600D02*
G75*
G02*
X8760220Y-11023600I15000J0D01*
G01*
X8770380Y-11160760D02*
G75*
G02*
X8740380Y-11160760I-15000J0D01*
G01*
X8740380Y-11160760D02*
G75*
G02*
X8770380Y-11160760I15000J0D01*
G01*
X8877060Y-10914380D02*
G75*
G02*
X8847060Y-10914380I-15000J0D01*
G01*
X8847060Y-10914380D02*
G75*
G02*
X8877060Y-10914380I15000J0D01*
G01*
X8892300Y-10993120D02*
G75*
G02*
X8862300Y-10993120I-15000J0D01*
G01*
X8862300Y-10993120D02*
G75*
G02*
X8892300Y-10993120I15000J0D01*
G01*
X8897380Y-11287760D02*
G75*
G02*
X8867380Y-11287760I-15000J0D01*
G01*
X8867380Y-11287760D02*
G75*
G02*
X8897380Y-11287760I15000J0D01*
G01*
X8899920Y-11617960D02*
G75*
G02*
X8869920Y-11617960I-15000J0D01*
G01*
X8869920Y-11617960D02*
G75*
G02*
X8899920Y-11617960I15000J0D01*
G01*
X9014700Y-11018520D02*
G75*
G02*
X8984700Y-11018520I-15000J0D01*
G01*
X8984700Y-11018520D02*
G75*
G02*
X9014700Y-11018520I15000J0D01*
G01*
X9026920Y-11341100D02*
G75*
G02*
X8996920Y-11341100I-15000J0D01*
G01*
X8996920Y-11341100D02*
G75*
G02*
X9026920Y-11341100I15000J0D01*
G01*
X9026920Y-11574780D02*
G75*
G02*
X8996920Y-11574780I-15000J0D01*
G01*
X8996920Y-11574780D02*
G75*
G02*
X9026920Y-11574780I15000J0D01*
G01*
X9034540Y-11457940D02*
G75*
G02*
X9004540Y-11457940I-15000J0D01*
G01*
X9004540Y-11457940D02*
G75*
G02*
X9034540Y-11457940I15000J0D01*
G01*
X9151380Y-9474200D02*
G75*
G02*
X9121380Y-9474200I-15000J0D01*
G01*
X9121380Y-9474200D02*
G75*
G02*
X9151380Y-9474200I15000J0D01*
G01*
X9151380Y-11196320D02*
G75*
G02*
X9121380Y-11196320I-15000J0D01*
G01*
X9121380Y-11196320D02*
G75*
G02*
X9151380Y-11196320I15000J0D01*
G01*
X9214880Y-9949180D02*
G75*
G02*
X9184880Y-9949180I-15000J0D01*
G01*
X9184880Y-9949180D02*
G75*
G02*
X9214880Y-9949180I15000J0D01*
G01*
X9219960Y-10642600D02*
G75*
G02*
X9189960Y-10642600I-15000J0D01*
G01*
X9189960Y-10642600D02*
G75*
G02*
X9219960Y-10642600I15000J0D01*
G01*
X9219960Y-11149100D02*
G75*
G02*
X9189960Y-11149100I-15000J0D01*
G01*
X9189960Y-11149100D02*
G75*
G02*
X9219960Y-11149100I15000J0D01*
G01*
X9227580Y-11785092D02*
G75*
G02*
X9197580Y-11785092I-15000J0D01*
G01*
X9197580Y-11785092D02*
G75*
G02*
X9227580Y-11785092I15000J0D01*
G01*
X9227580Y-11871452D02*
G75*
G02*
X9197580Y-11871452I-15000J0D01*
G01*
X9197580Y-11871452D02*
G75*
G02*
X9227580Y-11871452I15000J0D01*
G01*
X9235200Y-9853150D02*
G75*
G02*
X9205200Y-9853150I-15000J0D01*
G01*
X9205200Y-9853150D02*
G75*
G02*
X9235200Y-9853150I15000J0D01*
G01*
X9355675Y-12615145D02*
G75*
G02*
X9325675Y-12615145I-15000J0D01*
G01*
X9325675Y-12615145D02*
G75*
G02*
X9355675Y-12615145I15000J0D01*
G01*
X9355675Y-12757385D02*
G75*
G02*
X9325675Y-12757385I-15000J0D01*
G01*
X9325675Y-12757385D02*
G75*
G02*
X9355675Y-12757385I15000J0D01*
G01*
X9386545Y-12485727D02*
G75*
G02*
X9356545Y-12485727I-15000J0D01*
G01*
X9356545Y-12485727D02*
G75*
G02*
X9386545Y-12485727I15000J0D01*
G01*
X9400300Y-9476740D02*
G75*
G02*
X9370300Y-9476740I-15000J0D01*
G01*
X9370300Y-9476740D02*
G75*
G02*
X9400300Y-9476740I15000J0D01*
G01*
X9440940Y-10995660D02*
G75*
G02*
X9410940Y-10995660I-15000J0D01*
G01*
X9410940Y-10995660D02*
G75*
G02*
X9440940Y-10995660I15000J0D01*
G01*
X9549042Y-10088351D02*
G75*
G02*
X9519042Y-10088351I-15000J0D01*
G01*
X9519042Y-10088351D02*
G75*
G02*
X9549042Y-10088351I15000J0D01*
G01*
X9607525Y-12483187D02*
G75*
G02*
X9577525Y-12483187I-15000J0D01*
G01*
X9577525Y-12483187D02*
G75*
G02*
X9607525Y-12483187I15000J0D01*
G01*
X9635075Y-12620225D02*
G75*
G02*
X9605075Y-12620225I-15000J0D01*
G01*
X9605075Y-12620225D02*
G75*
G02*
X9635075Y-12620225I15000J0D01*
G01*
X9637615Y-12757385D02*
G75*
G02*
X9607615Y-12757385I-15000J0D01*
G01*
X9607615Y-12757385D02*
G75*
G02*
X9637615Y-12757385I15000J0D01*
G01*
X9664460Y-9900920D02*
G75*
G02*
X9634460Y-9900920I-15000J0D01*
G01*
X9634460Y-9900920D02*
G75*
G02*
X9664460Y-9900920I15000J0D01*
G01*
X10045460Y-10160000D02*
G75*
G02*
X10015460Y-10160000I-15000J0D01*
G01*
X10015460Y-10160000D02*
G75*
G02*
X10045460Y-10160000I15000J0D01*
G01*
X10045460Y-10246360D02*
G75*
G02*
X10015460Y-10246360I-15000J0D01*
G01*
X10015460Y-10246360D02*
G75*
G02*
X10045460Y-10246360I15000J0D01*
G01*
X10078480Y-11447780D02*
G75*
G02*
X10048480Y-11447780I-15000J0D01*
G01*
X10048480Y-11447780D02*
G75*
G02*
X10078480Y-11447780I15000J0D01*
G01*
X10116580Y-9662160D02*
G75*
G02*
X10086580Y-9662160I-15000J0D01*
G01*
X10086580Y-9662160D02*
G75*
G02*
X10116580Y-9662160I15000J0D01*
G01*
X10163260Y-11630660D02*
G75*
G02*
X10133260Y-11630660I-15000J0D01*
G01*
X10133260Y-11630660D02*
G75*
G02*
X10163260Y-11630660I15000J0D01*
G01*
X10164840Y-11818620D02*
G75*
G02*
X10134840Y-11818620I-15000J0D01*
G01*
X10134840Y-11818620D02*
G75*
G02*
X10164840Y-11818620I15000J0D01*
G01*
X10276600Y-10688320D02*
G75*
G02*
X10246600Y-10688320I-15000J0D01*
G01*
X10246600Y-10688320D02*
G75*
G02*
X10276600Y-10688320I15000J0D01*
G01*
X10295000Y-9230000D02*
G75*
G02*
X10265000Y-9230000I-15000J0D01*
G01*
X10265000Y-9230000D02*
G75*
G02*
X10295000Y-9230000I15000J0D01*
G01*
X10314700Y-8948420D02*
G75*
G02*
X10284700Y-8948420I-15000J0D01*
G01*
X10284700Y-8948420D02*
G75*
G02*
X10314700Y-8948420I15000J0D01*
G01*
X10361990Y-11713630D02*
G75*
G02*
X10331990Y-11713630I-15000J0D01*
G01*
X10331990Y-11713630D02*
G75*
G02*
X10361990Y-11713630I15000J0D01*
G01*
X10361990Y-11877460D02*
G75*
G02*
X10331990Y-11877460I-15000J0D01*
G01*
X10331990Y-11877460D02*
G75*
G02*
X10361990Y-11877460I15000J0D01*
G01*
X10365500Y-11551920D02*
G75*
G02*
X10335500Y-11551920I-15000J0D01*
G01*
X10335500Y-11551920D02*
G75*
G02*
X10365500Y-11551920I15000J0D01*
G01*
X10380170Y-9849916D02*
G75*
G02*
X10350170Y-9849916I-15000J0D01*
G01*
X10350170Y-9849916D02*
G75*
G02*
X10380170Y-9849916I15000J0D01*
G01*
X10380170Y-9947201D02*
G75*
G02*
X10350170Y-9947201I-15000J0D01*
G01*
X10350170Y-9947201D02*
G75*
G02*
X10380170Y-9947201I15000J0D01*
G01*
X10425000Y-9680000D02*
G75*
G02*
X10395000Y-9680000I-15000J0D01*
G01*
X10395000Y-9680000D02*
G75*
G02*
X10425000Y-9680000I15000J0D01*
G01*
X10434080Y-9047480D02*
G75*
G02*
X10404080Y-9047480I-15000J0D01*
G01*
X10404080Y-9047480D02*
G75*
G02*
X10434080Y-9047480I15000J0D01*
G01*
X10435000Y-9360000D02*
G75*
G02*
X10405000Y-9360000I-15000J0D01*
G01*
X10405000Y-9360000D02*
G75*
G02*
X10435000Y-9360000I15000J0D01*
G01*
X10456160Y-11298340D02*
G75*
G02*
X10426160Y-11298340I-15000J0D01*
G01*
X10426160Y-11298340D02*
G75*
G02*
X10456160Y-11298340I15000J0D01*
G01*
X10479800Y-10109200D02*
G75*
G02*
X10449800Y-10109200I-15000J0D01*
G01*
X10449800Y-10109200D02*
G75*
G02*
X10479800Y-10109200I15000J0D01*
G01*
X10557236Y-9204148D02*
G75*
G02*
X10527236Y-9204148I-15000J0D01*
G01*
X10527236Y-9204148D02*
G75*
G02*
X10557236Y-9204148I15000J0D01*
G01*
X10563622Y-8946270D02*
G75*
G02*
X10533622Y-8946270I-15000J0D01*
G01*
X10533622Y-8946270D02*
G75*
G02*
X10563622Y-8946270I15000J0D01*
G01*
X10622040Y-11303000D02*
G75*
G02*
X10592040Y-11303000I-15000J0D01*
G01*
X10592040Y-11303000D02*
G75*
G02*
X10622040Y-11303000I15000J0D01*
G01*
X10726781Y-9758138D02*
G75*
G02*
X10696781Y-9758138I-15000J0D01*
G01*
X10696781Y-9758138D02*
G75*
G02*
X10726781Y-9758138I15000J0D01*
G01*
X10745000Y-10050000D02*
G75*
G02*
X10715000Y-10050000I-15000J0D01*
G01*
X10715000Y-10050000D02*
G75*
G02*
X10745000Y-10050000I15000J0D01*
G01*
X10780919Y-8940540D02*
G75*
G02*
X10750919Y-8940540I-15000J0D01*
G01*
X10750919Y-8940540D02*
G75*
G02*
X10780919Y-8940540I15000J0D01*
G01*
X10955720Y-11729720D02*
G75*
G02*
X10925720Y-11729720I-15000J0D01*
G01*
X10925720Y-11729720D02*
G75*
G02*
X10955720Y-11729720I15000J0D01*
G01*
X11016582Y-10406999D02*
G75*
G02*
X10986582Y-10406999I-15000J0D01*
G01*
X10986582Y-10406999D02*
G75*
G02*
X11016582Y-10406999I15000J0D01*
G01*
X11018280Y-8895080D02*
G75*
G02*
X10988280Y-8895080I-15000J0D01*
G01*
X10988280Y-8895080D02*
G75*
G02*
X11018280Y-8895080I15000J0D01*
G01*
X11018280Y-8980000D02*
G75*
G02*
X10988280Y-8980000I-15000J0D01*
G01*
X10988280Y-8980000D02*
G75*
G02*
X11018280Y-8980000I15000J0D01*
G01*
X11099560Y-10670540D02*
G75*
G02*
X11069560Y-10670540I-15000J0D01*
G01*
X11069560Y-10670540D02*
G75*
G02*
X11099560Y-10670540I15000J0D01*
G01*
X11099560Y-10772140D02*
G75*
G02*
X11069560Y-10772140I-15000J0D01*
G01*
X11069560Y-10772140D02*
G75*
G02*
X11099560Y-10772140I15000J0D01*
G01*
X11115000Y-10300000D02*
G75*
G02*
X11085000Y-10300000I-15000J0D01*
G01*
X11085000Y-10300000D02*
G75*
G02*
X11115000Y-10300000I15000J0D01*
G01*
X11225000Y-10200000D02*
G75*
G02*
X11195000Y-10200000I-15000J0D01*
G01*
X11195000Y-10200000D02*
G75*
G02*
X11225000Y-10200000I15000J0D01*
G01*
X11277395Y-11253780D02*
G75*
G02*
X11247395Y-11253780I-15000J0D01*
G01*
X11247395Y-11253780D02*
G75*
G02*
X11277395Y-11253780I15000J0D01*
G01*
X11447601Y-12451631D02*
G75*
G02*
X11417601Y-12451631I-15000J0D01*
G01*
X11417601Y-12451631D02*
G75*
G02*
X11447601Y-12451631I15000J0D01*
G01*
X11472940Y-11267440D02*
G75*
G02*
X11442940Y-11267440I-15000J0D01*
G01*
X11442940Y-11267440D02*
G75*
G02*
X11472940Y-11267440I15000J0D01*
G01*
X11510670Y-12112068D02*
G75*
G02*
X11480670Y-12112068I-15000J0D01*
G01*
X11480670Y-12112068D02*
G75*
G02*
X11510670Y-12112068I15000J0D01*
G01*
X11584700Y-11269980D02*
G75*
G02*
X11554700Y-11269980I-15000J0D01*
G01*
X11554700Y-11269980D02*
G75*
G02*
X11584700Y-11269980I15000J0D01*
G01*
X11625000Y-11940000D02*
G75*
G02*
X11595000Y-11940000I-15000J0D01*
G01*
X11595000Y-11940000D02*
G75*
G02*
X11625000Y-11940000I15000J0D01*
G01*
X11635500Y-11728570D02*
G75*
G02*
X11605500Y-11728570I-15000J0D01*
G01*
X11605500Y-11728570D02*
G75*
G02*
X11635500Y-11728570I15000J0D01*
G01*
X11643120Y-10873740D02*
G75*
G02*
X11613120Y-10873740I-15000J0D01*
G01*
X11613120Y-10873740D02*
G75*
G02*
X11643120Y-10873740I15000J0D01*
G01*
X11648213Y-12429373D02*
G75*
G02*
X11618213Y-12429373I-15000J0D01*
G01*
X11618213Y-12429373D02*
G75*
G02*
X11648213Y-12429373I15000J0D01*
G01*
X11690600Y-11349140D02*
G75*
G02*
X11660600Y-11349140I-15000J0D01*
G01*
X11660600Y-11349140D02*
G75*
G02*
X11690600Y-11349140I15000J0D01*
G01*
X11812520Y-11707280D02*
G75*
G02*
X11782520Y-11707280I-15000J0D01*
G01*
X11782520Y-11707280D02*
G75*
G02*
X11812520Y-11707280I15000J0D01*
G01*
X11819486Y-12427447D02*
G75*
G02*
X11789486Y-12427447I-15000J0D01*
G01*
X11789486Y-12427447D02*
G75*
G02*
X11819486Y-12427447I15000J0D01*
G01*
X11823170Y-12077311D02*
G75*
G02*
X11793170Y-12077311I-15000J0D01*
G01*
X11793170Y-12077311D02*
G75*
G02*
X11823170Y-12077311I15000J0D01*
G01*
X11823170Y-12157794D02*
G75*
G02*
X11793170Y-12157794I-15000J0D01*
G01*
X11793170Y-12157794D02*
G75*
G02*
X11823170Y-12157794I15000J0D01*
G01*
X11989570Y-12432204D02*
G75*
G02*
X11959570Y-12432204I-15000J0D01*
G01*
X11959570Y-12432204D02*
G75*
G02*
X11989570Y-12432204I15000J0D01*
G01*
X12034823Y-12177617D02*
G75*
G02*
X12004823Y-12177617I-15000J0D01*
G01*
X12004823Y-12177617D02*
G75*
G02*
X12034823Y-12177617I15000J0D01*
G01*
X12176945Y-12471820D02*
G75*
G02*
X12146945Y-12471820I-15000J0D01*
G01*
X12146945Y-12471820D02*
G75*
G02*
X12176945Y-12471820I15000J0D01*
G01*
X12265845Y-12357520D02*
G75*
G02*
X12235845Y-12357520I-15000J0D01*
G01*
X12235845Y-12357520D02*
G75*
G02*
X12265845Y-12357520I15000J0D01*
G01*
X12307365Y-12169560D02*
G75*
G02*
X12277365Y-12169560I-15000J0D01*
G01*
X12277365Y-12169560D02*
G75*
G02*
X12307365Y-12169560I15000J0D01*
G01*
X12463965Y-12357520D02*
G75*
G02*
X12433965Y-12357520I-15000J0D01*
G01*
X12433965Y-12357520D02*
G75*
G02*
X12463965Y-12357520I15000J0D01*
G01*
X12506365Y-12169560D02*
G75*
G02*
X12476365Y-12169560I-15000J0D01*
G01*
X12476365Y-12169560D02*
G75*
G02*
X12506365Y-12169560I15000J0D01*
G01*
X12516880Y-8902700D02*
G75*
G02*
X12486880Y-8902700I-15000J0D01*
G01*
X12486880Y-8902700D02*
G75*
G02*
X12516880Y-8902700I15000J0D01*
G01*
X12516880Y-8983980D02*
G75*
G02*
X12486880Y-8983980I-15000J0D01*
G01*
X12486880Y-8983980D02*
G75*
G02*
X12516880Y-8983980I15000J0D01*
G01*
X12539740Y-9324340D02*
G75*
G02*
X12509740Y-9324340I-15000J0D01*
G01*
X12509740Y-9324340D02*
G75*
G02*
X12539740Y-9324340I15000J0D01*
G01*
X12542280Y-9446260D02*
G75*
G02*
X12512280Y-9446260I-15000J0D01*
G01*
X12512280Y-9446260D02*
G75*
G02*
X12542280Y-9446260I15000J0D01*
G01*
X12595620Y-10713720D02*
G75*
G02*
X12565620Y-10713720I-15000J0D01*
G01*
X12565620Y-10713720D02*
G75*
G02*
X12595620Y-10713720I15000J0D01*
G01*
X12662085Y-12357520D02*
G75*
G02*
X12632085Y-12357520I-15000J0D01*
G01*
X12632085Y-12357520D02*
G75*
G02*
X12662085Y-12357520I15000J0D01*
G01*
X12705365Y-12169560D02*
G75*
G02*
X12675365Y-12169560I-15000J0D01*
G01*
X12675365Y-12169560D02*
G75*
G02*
X12705365Y-12169560I15000J0D01*
G01*
X12803900Y-8905240D02*
G75*
G02*
X12773900Y-8905240I-15000J0D01*
G01*
X12773900Y-8905240D02*
G75*
G02*
X12803900Y-8905240I15000J0D01*
G01*
X12803900Y-9000000D02*
G75*
G02*
X12773900Y-9000000I-15000J0D01*
G01*
X12773900Y-9000000D02*
G75*
G02*
X12803900Y-9000000I15000J0D01*
G01*
X13108700Y-9385300D02*
G75*
G02*
X13078700Y-9385300I-15000J0D01*
G01*
X13078700Y-9385300D02*
G75*
G02*
X13108700Y-9385300I15000J0D01*
G01*
X13042900Y-10021100D02*
X13042900Y-10121100D01*
X12992900Y-10071100D02*
X13092900Y-10071100D01*
X13042900Y-10275100D02*
X13042900Y-10375100D01*
X12992900Y-10325100D02*
X13092900Y-10325100D01*
X13042900Y-10529100D02*
X13042900Y-10629100D01*
X12992900Y-10579100D02*
X13092900Y-10579100D01*
X13042900Y-10783100D02*
X13042900Y-10883100D01*
X12992900Y-10833100D02*
X13092900Y-10833100D01*
D13*
X10033807Y-12427467D02*
X10033807Y-12342613D01*
X9948953Y-12342613D01*
X9948953Y-12427467D01*
X10033807Y-12427467D01*
X10383807Y-12427467D02*
X10383807Y-12342613D01*
X10298953Y-12342613D01*
X10298953Y-12427467D01*
X10383807Y-12427467D01*
X10733807Y-12427467D02*
X10733807Y-12342613D01*
X10648953Y-12342613D01*
X10648953Y-12427467D01*
X10733807Y-12427467D01*
X11083807Y-12427467D02*
X11083807Y-12342613D01*
X10998953Y-12342613D01*
X10998953Y-12427467D01*
X11083807Y-12427467D01*
D12*
X8255777Y-13366484D02*
X8255777Y-13166484D01*
X8255777Y-13166484D02*
X8303396Y-13166484D01*
X8303396Y-13166484D02*
X8331967Y-13176008D01*
X8331967Y-13176008D02*
X8351015Y-13195055D01*
X8351015Y-13195055D02*
X8360539Y-13214103D01*
X8360539Y-13214103D02*
X8370062Y-13252198D01*
X8370062Y-13252198D02*
X8370062Y-13280769D01*
X8370062Y-13280769D02*
X8360539Y-13318865D01*
X8360539Y-13318865D02*
X8351015Y-13337912D01*
X8351015Y-13337912D02*
X8331967Y-13356960D01*
X8331967Y-13356960D02*
X8303396Y-13366484D01*
X8303396Y-13366484D02*
X8255777Y-13366484D01*
X8455777Y-13366484D02*
X8455777Y-13233150D01*
X8455777Y-13271246D02*
X8465301Y-13252198D01*
X8465301Y-13252198D02*
X8474824Y-13242674D01*
X8474824Y-13242674D02*
X8493872Y-13233150D01*
X8493872Y-13233150D02*
X8512920Y-13233150D01*
X8579586Y-13366484D02*
X8579586Y-13233150D01*
X8579586Y-13166484D02*
X8570063Y-13176008D01*
X8570063Y-13176008D02*
X8579586Y-13185531D01*
X8579586Y-13185531D02*
X8589110Y-13176008D01*
X8589110Y-13176008D02*
X8579586Y-13166484D01*
X8579586Y-13166484D02*
X8579586Y-13185531D01*
X8703396Y-13366484D02*
X8684348Y-13356960D01*
X8684348Y-13356960D02*
X8674824Y-13337912D01*
X8674824Y-13337912D02*
X8674824Y-13166484D01*
X8808158Y-13366484D02*
X8789110Y-13356960D01*
X8789110Y-13356960D02*
X8779586Y-13337912D01*
X8779586Y-13337912D02*
X8779586Y-13166484D01*
X9036729Y-13366484D02*
X9036729Y-13166484D01*
X9036729Y-13166484D02*
X9103396Y-13309341D01*
X9103396Y-13309341D02*
X9170063Y-13166484D01*
X9170063Y-13166484D02*
X9170063Y-13366484D01*
X9351015Y-13366484D02*
X9351015Y-13261722D01*
X9351015Y-13261722D02*
X9341491Y-13242674D01*
X9341491Y-13242674D02*
X9322444Y-13233150D01*
X9322444Y-13233150D02*
X9284348Y-13233150D01*
X9284348Y-13233150D02*
X9265301Y-13242674D01*
X9351015Y-13356960D02*
X9331967Y-13366484D01*
X9331967Y-13366484D02*
X9284348Y-13366484D01*
X9284348Y-13366484D02*
X9265301Y-13356960D01*
X9265301Y-13356960D02*
X9255777Y-13337912D01*
X9255777Y-13337912D02*
X9255777Y-13318865D01*
X9255777Y-13318865D02*
X9265301Y-13299817D01*
X9265301Y-13299817D02*
X9284348Y-13290293D01*
X9284348Y-13290293D02*
X9331967Y-13290293D01*
X9331967Y-13290293D02*
X9351015Y-13280769D01*
X9446253Y-13233150D02*
X9446253Y-13433150D01*
X9446253Y-13242674D02*
X9465301Y-13233150D01*
X9465301Y-13233150D02*
X9503396Y-13233150D01*
X9503396Y-13233150D02*
X9522444Y-13242674D01*
X9522444Y-13242674D02*
X9531967Y-13252198D01*
X9531967Y-13252198D02*
X9541491Y-13271246D01*
X9541491Y-13271246D02*
X9541491Y-13328388D01*
X9541491Y-13328388D02*
X9531967Y-13347436D01*
X9531967Y-13347436D02*
X9522444Y-13356960D01*
X9522444Y-13356960D02*
X9503396Y-13366484D01*
X9503396Y-13366484D02*
X9465301Y-13366484D01*
X9465301Y-13366484D02*
X9446253Y-13356960D01*
X9627205Y-13347436D02*
X9636729Y-13356960D01*
X9636729Y-13356960D02*
X9627205Y-13366484D01*
X9627205Y-13366484D02*
X9617682Y-13356960D01*
X9617682Y-13356960D02*
X9627205Y-13347436D01*
X9627205Y-13347436D02*
X9627205Y-13366484D01*
X9627205Y-13242674D02*
X9636729Y-13252198D01*
X9636729Y-13252198D02*
X9627205Y-13261722D01*
X9627205Y-13261722D02*
X9617682Y-13252198D01*
X9617682Y-13252198D02*
X9627205Y-13242674D01*
X9627205Y-13242674D02*
X9627205Y-13261722D01*
D10*
X7975000Y-13685000D02*
X7995000Y-13705000D01*
X7995000Y-13685000D02*
X7975000Y-13705000D01*
D12*
X8293872Y-13586484D02*
X8312920Y-13586484D01*
X8312920Y-13586484D02*
X8331967Y-13596008D01*
X8331967Y-13596008D02*
X8341491Y-13605531D01*
X8341491Y-13605531D02*
X8351015Y-13624579D01*
X8351015Y-13624579D02*
X8360539Y-13662674D01*
X8360539Y-13662674D02*
X8360539Y-13710293D01*
X8360539Y-13710293D02*
X8351015Y-13748388D01*
X8351015Y-13748388D02*
X8341491Y-13767436D01*
X8341491Y-13767436D02*
X8331967Y-13776960D01*
X8331967Y-13776960D02*
X8312920Y-13786484D01*
X8312920Y-13786484D02*
X8293872Y-13786484D01*
X8293872Y-13786484D02*
X8274824Y-13776960D01*
X8274824Y-13776960D02*
X8265301Y-13767436D01*
X8265301Y-13767436D02*
X8255777Y-13748388D01*
X8255777Y-13748388D02*
X8246253Y-13710293D01*
X8246253Y-13710293D02*
X8246253Y-13662674D01*
X8246253Y-13662674D02*
X8255777Y-13624579D01*
X8255777Y-13624579D02*
X8265301Y-13605531D01*
X8265301Y-13605531D02*
X8274824Y-13596008D01*
X8274824Y-13596008D02*
X8293872Y-13586484D01*
X8446253Y-13767436D02*
X8455777Y-13776960D01*
X8455777Y-13776960D02*
X8446253Y-13786484D01*
X8446253Y-13786484D02*
X8436729Y-13776960D01*
X8436729Y-13776960D02*
X8446253Y-13767436D01*
X8446253Y-13767436D02*
X8446253Y-13786484D01*
X8531967Y-13605531D02*
X8541491Y-13596008D01*
X8541491Y-13596008D02*
X8560539Y-13586484D01*
X8560539Y-13586484D02*
X8608158Y-13586484D01*
X8608158Y-13586484D02*
X8627205Y-13596008D01*
X8627205Y-13596008D02*
X8636729Y-13605531D01*
X8636729Y-13605531D02*
X8646253Y-13624579D01*
X8646253Y-13624579D02*
X8646253Y-13643627D01*
X8646253Y-13643627D02*
X8636729Y-13672198D01*
X8636729Y-13672198D02*
X8522444Y-13786484D01*
X8522444Y-13786484D02*
X8646253Y-13786484D01*
X8770063Y-13586484D02*
X8789110Y-13586484D01*
X8789110Y-13586484D02*
X8808158Y-13596008D01*
X8808158Y-13596008D02*
X8817682Y-13605531D01*
X8817682Y-13605531D02*
X8827205Y-13624579D01*
X8827205Y-13624579D02*
X8836729Y-13662674D01*
X8836729Y-13662674D02*
X8836729Y-13710293D01*
X8836729Y-13710293D02*
X8827205Y-13748388D01*
X8827205Y-13748388D02*
X8817682Y-13767436D01*
X8817682Y-13767436D02*
X8808158Y-13776960D01*
X8808158Y-13776960D02*
X8789110Y-13786484D01*
X8789110Y-13786484D02*
X8770063Y-13786484D01*
X8770063Y-13786484D02*
X8751015Y-13776960D01*
X8751015Y-13776960D02*
X8741491Y-13767436D01*
X8741491Y-13767436D02*
X8731967Y-13748388D01*
X8731967Y-13748388D02*
X8722444Y-13710293D01*
X8722444Y-13710293D02*
X8722444Y-13662674D01*
X8722444Y-13662674D02*
X8731967Y-13624579D01*
X8731967Y-13624579D02*
X8741491Y-13605531D01*
X8741491Y-13605531D02*
X8751015Y-13596008D01*
X8751015Y-13596008D02*
X8770063Y-13586484D01*
X8960539Y-13586484D02*
X8979586Y-13586484D01*
X8979586Y-13586484D02*
X8998634Y-13596008D01*
X8998634Y-13596008D02*
X9008158Y-13605531D01*
X9008158Y-13605531D02*
X9017682Y-13624579D01*
X9017682Y-13624579D02*
X9027205Y-13662674D01*
X9027205Y-13662674D02*
X9027205Y-13710293D01*
X9027205Y-13710293D02*
X9017682Y-13748388D01*
X9017682Y-13748388D02*
X9008158Y-13767436D01*
X9008158Y-13767436D02*
X8998634Y-13776960D01*
X8998634Y-13776960D02*
X8979586Y-13786484D01*
X8979586Y-13786484D02*
X8960539Y-13786484D01*
X8960539Y-13786484D02*
X8941491Y-13776960D01*
X8941491Y-13776960D02*
X8931967Y-13767436D01*
X8931967Y-13767436D02*
X8922444Y-13748388D01*
X8922444Y-13748388D02*
X8912920Y-13710293D01*
X8912920Y-13710293D02*
X8912920Y-13662674D01*
X8912920Y-13662674D02*
X8922444Y-13624579D01*
X8922444Y-13624579D02*
X8931967Y-13605531D01*
X8931967Y-13605531D02*
X8941491Y-13596008D01*
X8941491Y-13596008D02*
X8960539Y-13586484D01*
X9112920Y-13786484D02*
X9112920Y-13653150D01*
X9112920Y-13672198D02*
X9122444Y-13662674D01*
X9122444Y-13662674D02*
X9141491Y-13653150D01*
X9141491Y-13653150D02*
X9170063Y-13653150D01*
X9170063Y-13653150D02*
X9189110Y-13662674D01*
X9189110Y-13662674D02*
X9198634Y-13681722D01*
X9198634Y-13681722D02*
X9198634Y-13786484D01*
X9198634Y-13681722D02*
X9208158Y-13662674D01*
X9208158Y-13662674D02*
X9227205Y-13653150D01*
X9227205Y-13653150D02*
X9255777Y-13653150D01*
X9255777Y-13653150D02*
X9274825Y-13662674D01*
X9274825Y-13662674D02*
X9284348Y-13681722D01*
X9284348Y-13681722D02*
X9284348Y-13786484D01*
X9379586Y-13786484D02*
X9379586Y-13653150D01*
X9379586Y-13672198D02*
X9389110Y-13662674D01*
X9389110Y-13662674D02*
X9408158Y-13653150D01*
X9408158Y-13653150D02*
X9436729Y-13653150D01*
X9436729Y-13653150D02*
X9455777Y-13662674D01*
X9455777Y-13662674D02*
X9465301Y-13681722D01*
X9465301Y-13681722D02*
X9465301Y-13786484D01*
X9465301Y-13681722D02*
X9474825Y-13662674D01*
X9474825Y-13662674D02*
X9493872Y-13653150D01*
X9493872Y-13653150D02*
X9522444Y-13653150D01*
X9522444Y-13653150D02*
X9541491Y-13662674D01*
X9541491Y-13662674D02*
X9551015Y-13681722D01*
X9551015Y-13681722D02*
X9551015Y-13786484D01*
X9941491Y-13576960D02*
X9770063Y-13834103D01*
X10198634Y-13586484D02*
X10217682Y-13586484D01*
X10217682Y-13586484D02*
X10236729Y-13596008D01*
X10236729Y-13596008D02*
X10246253Y-13605531D01*
X10246253Y-13605531D02*
X10255777Y-13624579D01*
X10255777Y-13624579D02*
X10265301Y-13662674D01*
X10265301Y-13662674D02*
X10265301Y-13710293D01*
X10265301Y-13710293D02*
X10255777Y-13748388D01*
X10255777Y-13748388D02*
X10246253Y-13767436D01*
X10246253Y-13767436D02*
X10236729Y-13776960D01*
X10236729Y-13776960D02*
X10217682Y-13786484D01*
X10217682Y-13786484D02*
X10198634Y-13786484D01*
X10198634Y-13786484D02*
X10179587Y-13776960D01*
X10179587Y-13776960D02*
X10170063Y-13767436D01*
X10170063Y-13767436D02*
X10160539Y-13748388D01*
X10160539Y-13748388D02*
X10151015Y-13710293D01*
X10151015Y-13710293D02*
X10151015Y-13662674D01*
X10151015Y-13662674D02*
X10160539Y-13624579D01*
X10160539Y-13624579D02*
X10170063Y-13605531D01*
X10170063Y-13605531D02*
X10179587Y-13596008D01*
X10179587Y-13596008D02*
X10198634Y-13586484D01*
X10351015Y-13767436D02*
X10360539Y-13776960D01*
X10360539Y-13776960D02*
X10351015Y-13786484D01*
X10351015Y-13786484D02*
X10341491Y-13776960D01*
X10341491Y-13776960D02*
X10351015Y-13767436D01*
X10351015Y-13767436D02*
X10351015Y-13786484D01*
X10484348Y-13586484D02*
X10503396Y-13586484D01*
X10503396Y-13586484D02*
X10522444Y-13596008D01*
X10522444Y-13596008D02*
X10531968Y-13605531D01*
X10531968Y-13605531D02*
X10541491Y-13624579D01*
X10541491Y-13624579D02*
X10551015Y-13662674D01*
X10551015Y-13662674D02*
X10551015Y-13710293D01*
X10551015Y-13710293D02*
X10541491Y-13748388D01*
X10541491Y-13748388D02*
X10531968Y-13767436D01*
X10531968Y-13767436D02*
X10522444Y-13776960D01*
X10522444Y-13776960D02*
X10503396Y-13786484D01*
X10503396Y-13786484D02*
X10484348Y-13786484D01*
X10484348Y-13786484D02*
X10465301Y-13776960D01*
X10465301Y-13776960D02*
X10455777Y-13767436D01*
X10455777Y-13767436D02*
X10446253Y-13748388D01*
X10446253Y-13748388D02*
X10436729Y-13710293D01*
X10436729Y-13710293D02*
X10436729Y-13662674D01*
X10436729Y-13662674D02*
X10446253Y-13624579D01*
X10446253Y-13624579D02*
X10455777Y-13605531D01*
X10455777Y-13605531D02*
X10465301Y-13596008D01*
X10465301Y-13596008D02*
X10484348Y-13586484D01*
X10674825Y-13586484D02*
X10693872Y-13586484D01*
X10693872Y-13586484D02*
X10712920Y-13596008D01*
X10712920Y-13596008D02*
X10722444Y-13605531D01*
X10722444Y-13605531D02*
X10731968Y-13624579D01*
X10731968Y-13624579D02*
X10741491Y-13662674D01*
X10741491Y-13662674D02*
X10741491Y-13710293D01*
X10741491Y-13710293D02*
X10731968Y-13748388D01*
X10731968Y-13748388D02*
X10722444Y-13767436D01*
X10722444Y-13767436D02*
X10712920Y-13776960D01*
X10712920Y-13776960D02*
X10693872Y-13786484D01*
X10693872Y-13786484D02*
X10674825Y-13786484D01*
X10674825Y-13786484D02*
X10655777Y-13776960D01*
X10655777Y-13776960D02*
X10646253Y-13767436D01*
X10646253Y-13767436D02*
X10636729Y-13748388D01*
X10636729Y-13748388D02*
X10627206Y-13710293D01*
X10627206Y-13710293D02*
X10627206Y-13662674D01*
X10627206Y-13662674D02*
X10636729Y-13624579D01*
X10636729Y-13624579D02*
X10646253Y-13605531D01*
X10646253Y-13605531D02*
X10655777Y-13596008D01*
X10655777Y-13596008D02*
X10674825Y-13586484D01*
X10808158Y-13586484D02*
X10941491Y-13586484D01*
X10941491Y-13586484D02*
X10855777Y-13786484D01*
X11027206Y-13786484D02*
X11065301Y-13786484D01*
X11065301Y-13786484D02*
X11084349Y-13776960D01*
X11084349Y-13776960D02*
X11093872Y-13767436D01*
X11093872Y-13767436D02*
X11112920Y-13738865D01*
X11112920Y-13738865D02*
X11122444Y-13700769D01*
X11122444Y-13700769D02*
X11122444Y-13624579D01*
X11122444Y-13624579D02*
X11112920Y-13605531D01*
X11112920Y-13605531D02*
X11103396Y-13596008D01*
X11103396Y-13596008D02*
X11084349Y-13586484D01*
X11084349Y-13586484D02*
X11046253Y-13586484D01*
X11046253Y-13586484D02*
X11027206Y-13596008D01*
X11027206Y-13596008D02*
X11017682Y-13605531D01*
X11017682Y-13605531D02*
X11008158Y-13624579D01*
X11008158Y-13624579D02*
X11008158Y-13672198D01*
X11008158Y-13672198D02*
X11017682Y-13691246D01*
X11017682Y-13691246D02*
X11027206Y-13700769D01*
X11027206Y-13700769D02*
X11046253Y-13710293D01*
X11046253Y-13710293D02*
X11084349Y-13710293D01*
X11084349Y-13710293D02*
X11103396Y-13700769D01*
X11103396Y-13700769D02*
X11112920Y-13691246D01*
X11112920Y-13691246D02*
X11122444Y-13672198D01*
X11198634Y-13586484D02*
X11198634Y-13624579D01*
X11274825Y-13586484D02*
X11274825Y-13624579D01*
X11570063Y-13862674D02*
X11560539Y-13853150D01*
X11560539Y-13853150D02*
X11541491Y-13824579D01*
X11541491Y-13824579D02*
X11531968Y-13805531D01*
X11531968Y-13805531D02*
X11522444Y-13776960D01*
X11522444Y-13776960D02*
X11512920Y-13729341D01*
X11512920Y-13729341D02*
X11512920Y-13691246D01*
X11512920Y-13691246D02*
X11522444Y-13643627D01*
X11522444Y-13643627D02*
X11531968Y-13615055D01*
X11531968Y-13615055D02*
X11541491Y-13596008D01*
X11541491Y-13596008D02*
X11560539Y-13567436D01*
X11560539Y-13567436D02*
X11570063Y-13557912D01*
X11751015Y-13786484D02*
X11636729Y-13786484D01*
X11693872Y-13786484D02*
X11693872Y-13586484D01*
X11693872Y-13586484D02*
X11674825Y-13615055D01*
X11674825Y-13615055D02*
X11655777Y-13634103D01*
X11655777Y-13634103D02*
X11636729Y-13643627D01*
X11827206Y-13605531D02*
X11836729Y-13596008D01*
X11836729Y-13596008D02*
X11855777Y-13586484D01*
X11855777Y-13586484D02*
X11903396Y-13586484D01*
X11903396Y-13586484D02*
X11922444Y-13596008D01*
X11922444Y-13596008D02*
X11931968Y-13605531D01*
X11931968Y-13605531D02*
X11941491Y-13624579D01*
X11941491Y-13624579D02*
X11941491Y-13643627D01*
X11941491Y-13643627D02*
X11931968Y-13672198D01*
X11931968Y-13672198D02*
X11817682Y-13786484D01*
X11817682Y-13786484D02*
X11941491Y-13786484D01*
X12179587Y-13786484D02*
X12179587Y-13586484D01*
X12265301Y-13786484D02*
X12265301Y-13681722D01*
X12265301Y-13681722D02*
X12255777Y-13662674D01*
X12255777Y-13662674D02*
X12236730Y-13653150D01*
X12236730Y-13653150D02*
X12208158Y-13653150D01*
X12208158Y-13653150D02*
X12189110Y-13662674D01*
X12189110Y-13662674D02*
X12179587Y-13672198D01*
X12389110Y-13786484D02*
X12370063Y-13776960D01*
X12370063Y-13776960D02*
X12360539Y-13767436D01*
X12360539Y-13767436D02*
X12351015Y-13748388D01*
X12351015Y-13748388D02*
X12351015Y-13691246D01*
X12351015Y-13691246D02*
X12360539Y-13672198D01*
X12360539Y-13672198D02*
X12370063Y-13662674D01*
X12370063Y-13662674D02*
X12389110Y-13653150D01*
X12389110Y-13653150D02*
X12417682Y-13653150D01*
X12417682Y-13653150D02*
X12436730Y-13662674D01*
X12436730Y-13662674D02*
X12446253Y-13672198D01*
X12446253Y-13672198D02*
X12455777Y-13691246D01*
X12455777Y-13691246D02*
X12455777Y-13748388D01*
X12455777Y-13748388D02*
X12446253Y-13767436D01*
X12446253Y-13767436D02*
X12436730Y-13776960D01*
X12436730Y-13776960D02*
X12417682Y-13786484D01*
X12417682Y-13786484D02*
X12389110Y-13786484D01*
X12570063Y-13786484D02*
X12551015Y-13776960D01*
X12551015Y-13776960D02*
X12541491Y-13757912D01*
X12541491Y-13757912D02*
X12541491Y-13586484D01*
X12722444Y-13776960D02*
X12703396Y-13786484D01*
X12703396Y-13786484D02*
X12665301Y-13786484D01*
X12665301Y-13786484D02*
X12646253Y-13776960D01*
X12646253Y-13776960D02*
X12636730Y-13757912D01*
X12636730Y-13757912D02*
X12636730Y-13681722D01*
X12636730Y-13681722D02*
X12646253Y-13662674D01*
X12646253Y-13662674D02*
X12665301Y-13653150D01*
X12665301Y-13653150D02*
X12703396Y-13653150D01*
X12703396Y-13653150D02*
X12722444Y-13662674D01*
X12722444Y-13662674D02*
X12731968Y-13681722D01*
X12731968Y-13681722D02*
X12731968Y-13700769D01*
X12731968Y-13700769D02*
X12636730Y-13719817D01*
X12808158Y-13776960D02*
X12827206Y-13786484D01*
X12827206Y-13786484D02*
X12865301Y-13786484D01*
X12865301Y-13786484D02*
X12884349Y-13776960D01*
X12884349Y-13776960D02*
X12893872Y-13757912D01*
X12893872Y-13757912D02*
X12893872Y-13748388D01*
X12893872Y-13748388D02*
X12884349Y-13729341D01*
X12884349Y-13729341D02*
X12865301Y-13719817D01*
X12865301Y-13719817D02*
X12836730Y-13719817D01*
X12836730Y-13719817D02*
X12817682Y-13710293D01*
X12817682Y-13710293D02*
X12808158Y-13691246D01*
X12808158Y-13691246D02*
X12808158Y-13681722D01*
X12808158Y-13681722D02*
X12817682Y-13662674D01*
X12817682Y-13662674D02*
X12836730Y-13653150D01*
X12836730Y-13653150D02*
X12865301Y-13653150D01*
X12865301Y-13653150D02*
X12884349Y-13662674D01*
X12960539Y-13862674D02*
X12970063Y-13853150D01*
X12970063Y-13853150D02*
X12989111Y-13824579D01*
X12989111Y-13824579D02*
X12998634Y-13805531D01*
X12998634Y-13805531D02*
X13008158Y-13776960D01*
X13008158Y-13776960D02*
X13017682Y-13729341D01*
X13017682Y-13729341D02*
X13017682Y-13691246D01*
X13017682Y-13691246D02*
X13008158Y-13643627D01*
X13008158Y-13643627D02*
X12998634Y-13615055D01*
X12998634Y-13615055D02*
X12989111Y-13596008D01*
X12989111Y-13596008D02*
X12970063Y-13567436D01*
X12970063Y-13567436D02*
X12960539Y-13557912D01*
D10*
X7995000Y-13959000D02*
G75*
G02*
X7965000Y-13959000I-15000J0D01*
G01*
X7965000Y-13959000D02*
G75*
G02*
X7995000Y-13959000I15000J0D01*
G01*
D12*
X8293872Y-13850484D02*
X8312920Y-13850484D01*
X8312920Y-13850484D02*
X8331967Y-13860008D01*
X8331967Y-13860008D02*
X8341491Y-13869531D01*
X8341491Y-13869531D02*
X8351015Y-13888579D01*
X8351015Y-13888579D02*
X8360539Y-13926674D01*
X8360539Y-13926674D02*
X8360539Y-13974293D01*
X8360539Y-13974293D02*
X8351015Y-14012388D01*
X8351015Y-14012388D02*
X8341491Y-14031436D01*
X8341491Y-14031436D02*
X8331967Y-14040960D01*
X8331967Y-14040960D02*
X8312920Y-14050484D01*
X8312920Y-14050484D02*
X8293872Y-14050484D01*
X8293872Y-14050484D02*
X8274824Y-14040960D01*
X8274824Y-14040960D02*
X8265301Y-14031436D01*
X8265301Y-14031436D02*
X8255777Y-14012388D01*
X8255777Y-14012388D02*
X8246253Y-13974293D01*
X8246253Y-13974293D02*
X8246253Y-13926674D01*
X8246253Y-13926674D02*
X8255777Y-13888579D01*
X8255777Y-13888579D02*
X8265301Y-13869531D01*
X8265301Y-13869531D02*
X8274824Y-13860008D01*
X8274824Y-13860008D02*
X8293872Y-13850484D01*
X8446253Y-14031436D02*
X8455777Y-14040960D01*
X8455777Y-14040960D02*
X8446253Y-14050484D01*
X8446253Y-14050484D02*
X8436729Y-14040960D01*
X8436729Y-14040960D02*
X8446253Y-14031436D01*
X8446253Y-14031436D02*
X8446253Y-14050484D01*
X8522444Y-13850484D02*
X8646253Y-13850484D01*
X8646253Y-13850484D02*
X8579586Y-13926674D01*
X8579586Y-13926674D02*
X8608158Y-13926674D01*
X8608158Y-13926674D02*
X8627205Y-13936198D01*
X8627205Y-13936198D02*
X8636729Y-13945722D01*
X8636729Y-13945722D02*
X8646253Y-13964769D01*
X8646253Y-13964769D02*
X8646253Y-14012388D01*
X8646253Y-14012388D02*
X8636729Y-14031436D01*
X8636729Y-14031436D02*
X8627205Y-14040960D01*
X8627205Y-14040960D02*
X8608158Y-14050484D01*
X8608158Y-14050484D02*
X8551015Y-14050484D01*
X8551015Y-14050484D02*
X8531967Y-14040960D01*
X8531967Y-14040960D02*
X8522444Y-14031436D01*
X8770063Y-13850484D02*
X8789110Y-13850484D01*
X8789110Y-13850484D02*
X8808158Y-13860008D01*
X8808158Y-13860008D02*
X8817682Y-13869531D01*
X8817682Y-13869531D02*
X8827205Y-13888579D01*
X8827205Y-13888579D02*
X8836729Y-13926674D01*
X8836729Y-13926674D02*
X8836729Y-13974293D01*
X8836729Y-13974293D02*
X8827205Y-14012388D01*
X8827205Y-14012388D02*
X8817682Y-14031436D01*
X8817682Y-14031436D02*
X8808158Y-14040960D01*
X8808158Y-14040960D02*
X8789110Y-14050484D01*
X8789110Y-14050484D02*
X8770063Y-14050484D01*
X8770063Y-14050484D02*
X8751015Y-14040960D01*
X8751015Y-14040960D02*
X8741491Y-14031436D01*
X8741491Y-14031436D02*
X8731967Y-14012388D01*
X8731967Y-14012388D02*
X8722444Y-13974293D01*
X8722444Y-13974293D02*
X8722444Y-13926674D01*
X8722444Y-13926674D02*
X8731967Y-13888579D01*
X8731967Y-13888579D02*
X8741491Y-13869531D01*
X8741491Y-13869531D02*
X8751015Y-13860008D01*
X8751015Y-13860008D02*
X8770063Y-13850484D01*
X8960539Y-13850484D02*
X8979586Y-13850484D01*
X8979586Y-13850484D02*
X8998634Y-13860008D01*
X8998634Y-13860008D02*
X9008158Y-13869531D01*
X9008158Y-13869531D02*
X9017682Y-13888579D01*
X9017682Y-13888579D02*
X9027205Y-13926674D01*
X9027205Y-13926674D02*
X9027205Y-13974293D01*
X9027205Y-13974293D02*
X9017682Y-14012388D01*
X9017682Y-14012388D02*
X9008158Y-14031436D01*
X9008158Y-14031436D02*
X8998634Y-14040960D01*
X8998634Y-14040960D02*
X8979586Y-14050484D01*
X8979586Y-14050484D02*
X8960539Y-14050484D01*
X8960539Y-14050484D02*
X8941491Y-14040960D01*
X8941491Y-14040960D02*
X8931967Y-14031436D01*
X8931967Y-14031436D02*
X8922444Y-14012388D01*
X8922444Y-14012388D02*
X8912920Y-13974293D01*
X8912920Y-13974293D02*
X8912920Y-13926674D01*
X8912920Y-13926674D02*
X8922444Y-13888579D01*
X8922444Y-13888579D02*
X8931967Y-13869531D01*
X8931967Y-13869531D02*
X8941491Y-13860008D01*
X8941491Y-13860008D02*
X8960539Y-13850484D01*
X9112920Y-14050484D02*
X9112920Y-13917150D01*
X9112920Y-13936198D02*
X9122444Y-13926674D01*
X9122444Y-13926674D02*
X9141491Y-13917150D01*
X9141491Y-13917150D02*
X9170063Y-13917150D01*
X9170063Y-13917150D02*
X9189110Y-13926674D01*
X9189110Y-13926674D02*
X9198634Y-13945722D01*
X9198634Y-13945722D02*
X9198634Y-14050484D01*
X9198634Y-13945722D02*
X9208158Y-13926674D01*
X9208158Y-13926674D02*
X9227205Y-13917150D01*
X9227205Y-13917150D02*
X9255777Y-13917150D01*
X9255777Y-13917150D02*
X9274825Y-13926674D01*
X9274825Y-13926674D02*
X9284348Y-13945722D01*
X9284348Y-13945722D02*
X9284348Y-14050484D01*
X9379586Y-14050484D02*
X9379586Y-13917150D01*
X9379586Y-13936198D02*
X9389110Y-13926674D01*
X9389110Y-13926674D02*
X9408158Y-13917150D01*
X9408158Y-13917150D02*
X9436729Y-13917150D01*
X9436729Y-13917150D02*
X9455777Y-13926674D01*
X9455777Y-13926674D02*
X9465301Y-13945722D01*
X9465301Y-13945722D02*
X9465301Y-14050484D01*
X9465301Y-13945722D02*
X9474825Y-13926674D01*
X9474825Y-13926674D02*
X9493872Y-13917150D01*
X9493872Y-13917150D02*
X9522444Y-13917150D01*
X9522444Y-13917150D02*
X9541491Y-13926674D01*
X9541491Y-13926674D02*
X9551015Y-13945722D01*
X9551015Y-13945722D02*
X9551015Y-14050484D01*
X9941491Y-13840960D02*
X9770063Y-14098103D01*
X10198634Y-13850484D02*
X10217682Y-13850484D01*
X10217682Y-13850484D02*
X10236729Y-13860008D01*
X10236729Y-13860008D02*
X10246253Y-13869531D01*
X10246253Y-13869531D02*
X10255777Y-13888579D01*
X10255777Y-13888579D02*
X10265301Y-13926674D01*
X10265301Y-13926674D02*
X10265301Y-13974293D01*
X10265301Y-13974293D02*
X10255777Y-14012388D01*
X10255777Y-14012388D02*
X10246253Y-14031436D01*
X10246253Y-14031436D02*
X10236729Y-14040960D01*
X10236729Y-14040960D02*
X10217682Y-14050484D01*
X10217682Y-14050484D02*
X10198634Y-14050484D01*
X10198634Y-14050484D02*
X10179587Y-14040960D01*
X10179587Y-14040960D02*
X10170063Y-14031436D01*
X10170063Y-14031436D02*
X10160539Y-14012388D01*
X10160539Y-14012388D02*
X10151015Y-13974293D01*
X10151015Y-13974293D02*
X10151015Y-13926674D01*
X10151015Y-13926674D02*
X10160539Y-13888579D01*
X10160539Y-13888579D02*
X10170063Y-13869531D01*
X10170063Y-13869531D02*
X10179587Y-13860008D01*
X10179587Y-13860008D02*
X10198634Y-13850484D01*
X10351015Y-14031436D02*
X10360539Y-14040960D01*
X10360539Y-14040960D02*
X10351015Y-14050484D01*
X10351015Y-14050484D02*
X10341491Y-14040960D01*
X10341491Y-14040960D02*
X10351015Y-14031436D01*
X10351015Y-14031436D02*
X10351015Y-14050484D01*
X10484348Y-13850484D02*
X10503396Y-13850484D01*
X10503396Y-13850484D02*
X10522444Y-13860008D01*
X10522444Y-13860008D02*
X10531968Y-13869531D01*
X10531968Y-13869531D02*
X10541491Y-13888579D01*
X10541491Y-13888579D02*
X10551015Y-13926674D01*
X10551015Y-13926674D02*
X10551015Y-13974293D01*
X10551015Y-13974293D02*
X10541491Y-14012388D01*
X10541491Y-14012388D02*
X10531968Y-14031436D01*
X10531968Y-14031436D02*
X10522444Y-14040960D01*
X10522444Y-14040960D02*
X10503396Y-14050484D01*
X10503396Y-14050484D02*
X10484348Y-14050484D01*
X10484348Y-14050484D02*
X10465301Y-14040960D01*
X10465301Y-14040960D02*
X10455777Y-14031436D01*
X10455777Y-14031436D02*
X10446253Y-14012388D01*
X10446253Y-14012388D02*
X10436729Y-13974293D01*
X10436729Y-13974293D02*
X10436729Y-13926674D01*
X10436729Y-13926674D02*
X10446253Y-13888579D01*
X10446253Y-13888579D02*
X10455777Y-13869531D01*
X10455777Y-13869531D02*
X10465301Y-13860008D01*
X10465301Y-13860008D02*
X10484348Y-13850484D01*
X10741491Y-14050484D02*
X10627206Y-14050484D01*
X10684348Y-14050484D02*
X10684348Y-13850484D01*
X10684348Y-13850484D02*
X10665301Y-13879055D01*
X10665301Y-13879055D02*
X10646253Y-13898103D01*
X10646253Y-13898103D02*
X10627206Y-13907627D01*
X10931968Y-14050484D02*
X10817682Y-14050484D01*
X10874825Y-14050484D02*
X10874825Y-13850484D01*
X10874825Y-13850484D02*
X10855777Y-13879055D01*
X10855777Y-13879055D02*
X10836729Y-13898103D01*
X10836729Y-13898103D02*
X10817682Y-13907627D01*
X11046253Y-13936198D02*
X11027206Y-13926674D01*
X11027206Y-13926674D02*
X11017682Y-13917150D01*
X11017682Y-13917150D02*
X11008158Y-13898103D01*
X11008158Y-13898103D02*
X11008158Y-13888579D01*
X11008158Y-13888579D02*
X11017682Y-13869531D01*
X11017682Y-13869531D02*
X11027206Y-13860008D01*
X11027206Y-13860008D02*
X11046253Y-13850484D01*
X11046253Y-13850484D02*
X11084349Y-13850484D01*
X11084349Y-13850484D02*
X11103396Y-13860008D01*
X11103396Y-13860008D02*
X11112920Y-13869531D01*
X11112920Y-13869531D02*
X11122444Y-13888579D01*
X11122444Y-13888579D02*
X11122444Y-13898103D01*
X11122444Y-13898103D02*
X11112920Y-13917150D01*
X11112920Y-13917150D02*
X11103396Y-13926674D01*
X11103396Y-13926674D02*
X11084349Y-13936198D01*
X11084349Y-13936198D02*
X11046253Y-13936198D01*
X11046253Y-13936198D02*
X11027206Y-13945722D01*
X11027206Y-13945722D02*
X11017682Y-13955246D01*
X11017682Y-13955246D02*
X11008158Y-13974293D01*
X11008158Y-13974293D02*
X11008158Y-14012388D01*
X11008158Y-14012388D02*
X11017682Y-14031436D01*
X11017682Y-14031436D02*
X11027206Y-14040960D01*
X11027206Y-14040960D02*
X11046253Y-14050484D01*
X11046253Y-14050484D02*
X11084349Y-14050484D01*
X11084349Y-14050484D02*
X11103396Y-14040960D01*
X11103396Y-14040960D02*
X11112920Y-14031436D01*
X11112920Y-14031436D02*
X11122444Y-14012388D01*
X11122444Y-14012388D02*
X11122444Y-13974293D01*
X11122444Y-13974293D02*
X11112920Y-13955246D01*
X11112920Y-13955246D02*
X11103396Y-13945722D01*
X11103396Y-13945722D02*
X11084349Y-13936198D01*
X11198634Y-13850484D02*
X11198634Y-13888579D01*
X11274825Y-13850484D02*
X11274825Y-13888579D01*
X11570063Y-14126674D02*
X11560539Y-14117150D01*
X11560539Y-14117150D02*
X11541491Y-14088579D01*
X11541491Y-14088579D02*
X11531968Y-14069531D01*
X11531968Y-14069531D02*
X11522444Y-14040960D01*
X11522444Y-14040960D02*
X11512920Y-13993341D01*
X11512920Y-13993341D02*
X11512920Y-13955246D01*
X11512920Y-13955246D02*
X11522444Y-13907627D01*
X11522444Y-13907627D02*
X11531968Y-13879055D01*
X11531968Y-13879055D02*
X11541491Y-13860008D01*
X11541491Y-13860008D02*
X11560539Y-13831436D01*
X11560539Y-13831436D02*
X11570063Y-13821912D01*
X11751015Y-14050484D02*
X11636729Y-14050484D01*
X11693872Y-14050484D02*
X11693872Y-13850484D01*
X11693872Y-13850484D02*
X11674825Y-13879055D01*
X11674825Y-13879055D02*
X11655777Y-13898103D01*
X11655777Y-13898103D02*
X11636729Y-13907627D01*
X11874825Y-13850484D02*
X11893872Y-13850484D01*
X11893872Y-13850484D02*
X11912920Y-13860008D01*
X11912920Y-13860008D02*
X11922444Y-13869531D01*
X11922444Y-13869531D02*
X11931968Y-13888579D01*
X11931968Y-13888579D02*
X11941491Y-13926674D01*
X11941491Y-13926674D02*
X11941491Y-13974293D01*
X11941491Y-13974293D02*
X11931968Y-14012388D01*
X11931968Y-14012388D02*
X11922444Y-14031436D01*
X11922444Y-14031436D02*
X11912920Y-14040960D01*
X11912920Y-14040960D02*
X11893872Y-14050484D01*
X11893872Y-14050484D02*
X11874825Y-14050484D01*
X11874825Y-14050484D02*
X11855777Y-14040960D01*
X11855777Y-14040960D02*
X11846253Y-14031436D01*
X11846253Y-14031436D02*
X11836729Y-14012388D01*
X11836729Y-14012388D02*
X11827206Y-13974293D01*
X11827206Y-13974293D02*
X11827206Y-13926674D01*
X11827206Y-13926674D02*
X11836729Y-13888579D01*
X11836729Y-13888579D02*
X11846253Y-13869531D01*
X11846253Y-13869531D02*
X11855777Y-13860008D01*
X11855777Y-13860008D02*
X11874825Y-13850484D01*
X12131968Y-14050484D02*
X12017682Y-14050484D01*
X12074825Y-14050484D02*
X12074825Y-13850484D01*
X12074825Y-13850484D02*
X12055777Y-13879055D01*
X12055777Y-13879055D02*
X12036729Y-13898103D01*
X12036729Y-13898103D02*
X12017682Y-13907627D01*
X12370063Y-14050484D02*
X12370063Y-13850484D01*
X12455777Y-14050484D02*
X12455777Y-13945722D01*
X12455777Y-13945722D02*
X12446253Y-13926674D01*
X12446253Y-13926674D02*
X12427206Y-13917150D01*
X12427206Y-13917150D02*
X12398634Y-13917150D01*
X12398634Y-13917150D02*
X12379587Y-13926674D01*
X12379587Y-13926674D02*
X12370063Y-13936198D01*
X12579587Y-14050484D02*
X12560539Y-14040960D01*
X12560539Y-14040960D02*
X12551015Y-14031436D01*
X12551015Y-14031436D02*
X12541491Y-14012388D01*
X12541491Y-14012388D02*
X12541491Y-13955246D01*
X12541491Y-13955246D02*
X12551015Y-13936198D01*
X12551015Y-13936198D02*
X12560539Y-13926674D01*
X12560539Y-13926674D02*
X12579587Y-13917150D01*
X12579587Y-13917150D02*
X12608158Y-13917150D01*
X12608158Y-13917150D02*
X12627206Y-13926674D01*
X12627206Y-13926674D02*
X12636730Y-13936198D01*
X12636730Y-13936198D02*
X12646253Y-13955246D01*
X12646253Y-13955246D02*
X12646253Y-14012388D01*
X12646253Y-14012388D02*
X12636730Y-14031436D01*
X12636730Y-14031436D02*
X12627206Y-14040960D01*
X12627206Y-14040960D02*
X12608158Y-14050484D01*
X12608158Y-14050484D02*
X12579587Y-14050484D01*
X12760539Y-14050484D02*
X12741491Y-14040960D01*
X12741491Y-14040960D02*
X12731968Y-14021912D01*
X12731968Y-14021912D02*
X12731968Y-13850484D01*
X12912920Y-14040960D02*
X12893872Y-14050484D01*
X12893872Y-14050484D02*
X12855777Y-14050484D01*
X12855777Y-14050484D02*
X12836730Y-14040960D01*
X12836730Y-14040960D02*
X12827206Y-14021912D01*
X12827206Y-14021912D02*
X12827206Y-13945722D01*
X12827206Y-13945722D02*
X12836730Y-13926674D01*
X12836730Y-13926674D02*
X12855777Y-13917150D01*
X12855777Y-13917150D02*
X12893872Y-13917150D01*
X12893872Y-13917150D02*
X12912920Y-13926674D01*
X12912920Y-13926674D02*
X12922444Y-13945722D01*
X12922444Y-13945722D02*
X12922444Y-13964769D01*
X12922444Y-13964769D02*
X12827206Y-13983817D01*
X12998634Y-14040960D02*
X13017682Y-14050484D01*
X13017682Y-14050484D02*
X13055777Y-14050484D01*
X13055777Y-14050484D02*
X13074825Y-14040960D01*
X13074825Y-14040960D02*
X13084349Y-14021912D01*
X13084349Y-14021912D02*
X13084349Y-14012388D01*
X13084349Y-14012388D02*
X13074825Y-13993341D01*
X13074825Y-13993341D02*
X13055777Y-13983817D01*
X13055777Y-13983817D02*
X13027206Y-13983817D01*
X13027206Y-13983817D02*
X13008158Y-13974293D01*
X13008158Y-13974293D02*
X12998634Y-13955246D01*
X12998634Y-13955246D02*
X12998634Y-13945722D01*
X12998634Y-13945722D02*
X13008158Y-13926674D01*
X13008158Y-13926674D02*
X13027206Y-13917150D01*
X13027206Y-13917150D02*
X13055777Y-13917150D01*
X13055777Y-13917150D02*
X13074825Y-13926674D01*
X13151015Y-14126674D02*
X13160539Y-14117150D01*
X13160539Y-14117150D02*
X13179587Y-14088579D01*
X13179587Y-14088579D02*
X13189111Y-14069531D01*
X13189111Y-14069531D02*
X13198634Y-14040960D01*
X13198634Y-14040960D02*
X13208158Y-13993341D01*
X13208158Y-13993341D02*
X13208158Y-13955246D01*
X13208158Y-13955246D02*
X13198634Y-13907627D01*
X13198634Y-13907627D02*
X13189111Y-13879055D01*
X13189111Y-13879055D02*
X13179587Y-13860008D01*
X13179587Y-13860008D02*
X13160539Y-13831436D01*
X13160539Y-13831436D02*
X13151015Y-13821912D01*
D10*
X7945000Y-14173000D02*
X7945000Y-14273000D01*
X7895000Y-14223000D02*
X7995000Y-14223000D01*
D12*
X8360539Y-14314484D02*
X8246253Y-14314484D01*
X8303396Y-14314484D02*
X8303396Y-14114484D01*
X8303396Y-14114484D02*
X8284348Y-14143055D01*
X8284348Y-14143055D02*
X8265301Y-14162103D01*
X8265301Y-14162103D02*
X8246253Y-14171627D01*
X8446253Y-14295436D02*
X8455777Y-14304960D01*
X8455777Y-14304960D02*
X8446253Y-14314484D01*
X8446253Y-14314484D02*
X8436729Y-14304960D01*
X8436729Y-14304960D02*
X8446253Y-14295436D01*
X8446253Y-14295436D02*
X8446253Y-14314484D01*
X8579586Y-14114484D02*
X8598634Y-14114484D01*
X8598634Y-14114484D02*
X8617682Y-14124008D01*
X8617682Y-14124008D02*
X8627205Y-14133531D01*
X8627205Y-14133531D02*
X8636729Y-14152579D01*
X8636729Y-14152579D02*
X8646253Y-14190674D01*
X8646253Y-14190674D02*
X8646253Y-14238293D01*
X8646253Y-14238293D02*
X8636729Y-14276388D01*
X8636729Y-14276388D02*
X8627205Y-14295436D01*
X8627205Y-14295436D02*
X8617682Y-14304960D01*
X8617682Y-14304960D02*
X8598634Y-14314484D01*
X8598634Y-14314484D02*
X8579586Y-14314484D01*
X8579586Y-14314484D02*
X8560539Y-14304960D01*
X8560539Y-14304960D02*
X8551015Y-14295436D01*
X8551015Y-14295436D02*
X8541491Y-14276388D01*
X8541491Y-14276388D02*
X8531967Y-14238293D01*
X8531967Y-14238293D02*
X8531967Y-14190674D01*
X8531967Y-14190674D02*
X8541491Y-14152579D01*
X8541491Y-14152579D02*
X8551015Y-14133531D01*
X8551015Y-14133531D02*
X8560539Y-14124008D01*
X8560539Y-14124008D02*
X8579586Y-14114484D01*
X8770063Y-14114484D02*
X8789110Y-14114484D01*
X8789110Y-14114484D02*
X8808158Y-14124008D01*
X8808158Y-14124008D02*
X8817682Y-14133531D01*
X8817682Y-14133531D02*
X8827205Y-14152579D01*
X8827205Y-14152579D02*
X8836729Y-14190674D01*
X8836729Y-14190674D02*
X8836729Y-14238293D01*
X8836729Y-14238293D02*
X8827205Y-14276388D01*
X8827205Y-14276388D02*
X8817682Y-14295436D01*
X8817682Y-14295436D02*
X8808158Y-14304960D01*
X8808158Y-14304960D02*
X8789110Y-14314484D01*
X8789110Y-14314484D02*
X8770063Y-14314484D01*
X8770063Y-14314484D02*
X8751015Y-14304960D01*
X8751015Y-14304960D02*
X8741491Y-14295436D01*
X8741491Y-14295436D02*
X8731967Y-14276388D01*
X8731967Y-14276388D02*
X8722444Y-14238293D01*
X8722444Y-14238293D02*
X8722444Y-14190674D01*
X8722444Y-14190674D02*
X8731967Y-14152579D01*
X8731967Y-14152579D02*
X8741491Y-14133531D01*
X8741491Y-14133531D02*
X8751015Y-14124008D01*
X8751015Y-14124008D02*
X8770063Y-14114484D01*
X8960539Y-14114484D02*
X8979586Y-14114484D01*
X8979586Y-14114484D02*
X8998634Y-14124008D01*
X8998634Y-14124008D02*
X9008158Y-14133531D01*
X9008158Y-14133531D02*
X9017682Y-14152579D01*
X9017682Y-14152579D02*
X9027205Y-14190674D01*
X9027205Y-14190674D02*
X9027205Y-14238293D01*
X9027205Y-14238293D02*
X9017682Y-14276388D01*
X9017682Y-14276388D02*
X9008158Y-14295436D01*
X9008158Y-14295436D02*
X8998634Y-14304960D01*
X8998634Y-14304960D02*
X8979586Y-14314484D01*
X8979586Y-14314484D02*
X8960539Y-14314484D01*
X8960539Y-14314484D02*
X8941491Y-14304960D01*
X8941491Y-14304960D02*
X8931967Y-14295436D01*
X8931967Y-14295436D02*
X8922444Y-14276388D01*
X8922444Y-14276388D02*
X8912920Y-14238293D01*
X8912920Y-14238293D02*
X8912920Y-14190674D01*
X8912920Y-14190674D02*
X8922444Y-14152579D01*
X8922444Y-14152579D02*
X8931967Y-14133531D01*
X8931967Y-14133531D02*
X8941491Y-14124008D01*
X8941491Y-14124008D02*
X8960539Y-14114484D01*
X9112920Y-14314484D02*
X9112920Y-14181150D01*
X9112920Y-14200198D02*
X9122444Y-14190674D01*
X9122444Y-14190674D02*
X9141491Y-14181150D01*
X9141491Y-14181150D02*
X9170063Y-14181150D01*
X9170063Y-14181150D02*
X9189110Y-14190674D01*
X9189110Y-14190674D02*
X9198634Y-14209722D01*
X9198634Y-14209722D02*
X9198634Y-14314484D01*
X9198634Y-14209722D02*
X9208158Y-14190674D01*
X9208158Y-14190674D02*
X9227205Y-14181150D01*
X9227205Y-14181150D02*
X9255777Y-14181150D01*
X9255777Y-14181150D02*
X9274825Y-14190674D01*
X9274825Y-14190674D02*
X9284348Y-14209722D01*
X9284348Y-14209722D02*
X9284348Y-14314484D01*
X9379586Y-14314484D02*
X9379586Y-14181150D01*
X9379586Y-14200198D02*
X9389110Y-14190674D01*
X9389110Y-14190674D02*
X9408158Y-14181150D01*
X9408158Y-14181150D02*
X9436729Y-14181150D01*
X9436729Y-14181150D02*
X9455777Y-14190674D01*
X9455777Y-14190674D02*
X9465301Y-14209722D01*
X9465301Y-14209722D02*
X9465301Y-14314484D01*
X9465301Y-14209722D02*
X9474825Y-14190674D01*
X9474825Y-14190674D02*
X9493872Y-14181150D01*
X9493872Y-14181150D02*
X9522444Y-14181150D01*
X9522444Y-14181150D02*
X9541491Y-14190674D01*
X9541491Y-14190674D02*
X9551015Y-14209722D01*
X9551015Y-14209722D02*
X9551015Y-14314484D01*
X9941491Y-14104960D02*
X9770063Y-14362103D01*
X10198634Y-14114484D02*
X10217682Y-14114484D01*
X10217682Y-14114484D02*
X10236729Y-14124008D01*
X10236729Y-14124008D02*
X10246253Y-14133531D01*
X10246253Y-14133531D02*
X10255777Y-14152579D01*
X10255777Y-14152579D02*
X10265301Y-14190674D01*
X10265301Y-14190674D02*
X10265301Y-14238293D01*
X10265301Y-14238293D02*
X10255777Y-14276388D01*
X10255777Y-14276388D02*
X10246253Y-14295436D01*
X10246253Y-14295436D02*
X10236729Y-14304960D01*
X10236729Y-14304960D02*
X10217682Y-14314484D01*
X10217682Y-14314484D02*
X10198634Y-14314484D01*
X10198634Y-14314484D02*
X10179587Y-14304960D01*
X10179587Y-14304960D02*
X10170063Y-14295436D01*
X10170063Y-14295436D02*
X10160539Y-14276388D01*
X10160539Y-14276388D02*
X10151015Y-14238293D01*
X10151015Y-14238293D02*
X10151015Y-14190674D01*
X10151015Y-14190674D02*
X10160539Y-14152579D01*
X10160539Y-14152579D02*
X10170063Y-14133531D01*
X10170063Y-14133531D02*
X10179587Y-14124008D01*
X10179587Y-14124008D02*
X10198634Y-14114484D01*
X10351015Y-14295436D02*
X10360539Y-14304960D01*
X10360539Y-14304960D02*
X10351015Y-14314484D01*
X10351015Y-14314484D02*
X10341491Y-14304960D01*
X10341491Y-14304960D02*
X10351015Y-14295436D01*
X10351015Y-14295436D02*
X10351015Y-14314484D01*
X10484348Y-14114484D02*
X10503396Y-14114484D01*
X10503396Y-14114484D02*
X10522444Y-14124008D01*
X10522444Y-14124008D02*
X10531968Y-14133531D01*
X10531968Y-14133531D02*
X10541491Y-14152579D01*
X10541491Y-14152579D02*
X10551015Y-14190674D01*
X10551015Y-14190674D02*
X10551015Y-14238293D01*
X10551015Y-14238293D02*
X10541491Y-14276388D01*
X10541491Y-14276388D02*
X10531968Y-14295436D01*
X10531968Y-14295436D02*
X10522444Y-14304960D01*
X10522444Y-14304960D02*
X10503396Y-14314484D01*
X10503396Y-14314484D02*
X10484348Y-14314484D01*
X10484348Y-14314484D02*
X10465301Y-14304960D01*
X10465301Y-14304960D02*
X10455777Y-14295436D01*
X10455777Y-14295436D02*
X10446253Y-14276388D01*
X10446253Y-14276388D02*
X10436729Y-14238293D01*
X10436729Y-14238293D02*
X10436729Y-14190674D01*
X10436729Y-14190674D02*
X10446253Y-14152579D01*
X10446253Y-14152579D02*
X10455777Y-14133531D01*
X10455777Y-14133531D02*
X10465301Y-14124008D01*
X10465301Y-14124008D02*
X10484348Y-14114484D01*
X10617682Y-14114484D02*
X10741491Y-14114484D01*
X10741491Y-14114484D02*
X10674825Y-14190674D01*
X10674825Y-14190674D02*
X10703396Y-14190674D01*
X10703396Y-14190674D02*
X10722444Y-14200198D01*
X10722444Y-14200198D02*
X10731968Y-14209722D01*
X10731968Y-14209722D02*
X10741491Y-14228769D01*
X10741491Y-14228769D02*
X10741491Y-14276388D01*
X10741491Y-14276388D02*
X10731968Y-14295436D01*
X10731968Y-14295436D02*
X10722444Y-14304960D01*
X10722444Y-14304960D02*
X10703396Y-14314484D01*
X10703396Y-14314484D02*
X10646253Y-14314484D01*
X10646253Y-14314484D02*
X10627206Y-14304960D01*
X10627206Y-14304960D02*
X10617682Y-14295436D01*
X10836729Y-14314484D02*
X10874825Y-14314484D01*
X10874825Y-14314484D02*
X10893872Y-14304960D01*
X10893872Y-14304960D02*
X10903396Y-14295436D01*
X10903396Y-14295436D02*
X10922444Y-14266865D01*
X10922444Y-14266865D02*
X10931968Y-14228769D01*
X10931968Y-14228769D02*
X10931968Y-14152579D01*
X10931968Y-14152579D02*
X10922444Y-14133531D01*
X10922444Y-14133531D02*
X10912920Y-14124008D01*
X10912920Y-14124008D02*
X10893872Y-14114484D01*
X10893872Y-14114484D02*
X10855777Y-14114484D01*
X10855777Y-14114484D02*
X10836729Y-14124008D01*
X10836729Y-14124008D02*
X10827206Y-14133531D01*
X10827206Y-14133531D02*
X10817682Y-14152579D01*
X10817682Y-14152579D02*
X10817682Y-14200198D01*
X10817682Y-14200198D02*
X10827206Y-14219246D01*
X10827206Y-14219246D02*
X10836729Y-14228769D01*
X10836729Y-14228769D02*
X10855777Y-14238293D01*
X10855777Y-14238293D02*
X10893872Y-14238293D01*
X10893872Y-14238293D02*
X10912920Y-14228769D01*
X10912920Y-14228769D02*
X10922444Y-14219246D01*
X10922444Y-14219246D02*
X10931968Y-14200198D01*
X11103396Y-14181150D02*
X11103396Y-14314484D01*
X11055777Y-14104960D02*
X11008158Y-14247817D01*
X11008158Y-14247817D02*
X11131968Y-14247817D01*
X11198634Y-14114484D02*
X11198634Y-14152579D01*
X11274825Y-14114484D02*
X11274825Y-14152579D01*
X11570063Y-14390674D02*
X11560539Y-14381150D01*
X11560539Y-14381150D02*
X11541491Y-14352579D01*
X11541491Y-14352579D02*
X11531968Y-14333531D01*
X11531968Y-14333531D02*
X11522444Y-14304960D01*
X11522444Y-14304960D02*
X11512920Y-14257341D01*
X11512920Y-14257341D02*
X11512920Y-14219246D01*
X11512920Y-14219246D02*
X11522444Y-14171627D01*
X11522444Y-14171627D02*
X11531968Y-14143055D01*
X11531968Y-14143055D02*
X11541491Y-14124008D01*
X11541491Y-14124008D02*
X11560539Y-14095436D01*
X11560539Y-14095436D02*
X11570063Y-14085912D01*
X11731968Y-14181150D02*
X11731968Y-14314484D01*
X11684348Y-14104960D02*
X11636729Y-14247817D01*
X11636729Y-14247817D02*
X11760539Y-14247817D01*
X11989110Y-14314484D02*
X11989110Y-14114484D01*
X12074825Y-14314484D02*
X12074825Y-14209722D01*
X12074825Y-14209722D02*
X12065301Y-14190674D01*
X12065301Y-14190674D02*
X12046253Y-14181150D01*
X12046253Y-14181150D02*
X12017682Y-14181150D01*
X12017682Y-14181150D02*
X11998634Y-14190674D01*
X11998634Y-14190674D02*
X11989110Y-14200198D01*
X12198634Y-14314484D02*
X12179587Y-14304960D01*
X12179587Y-14304960D02*
X12170063Y-14295436D01*
X12170063Y-14295436D02*
X12160539Y-14276388D01*
X12160539Y-14276388D02*
X12160539Y-14219246D01*
X12160539Y-14219246D02*
X12170063Y-14200198D01*
X12170063Y-14200198D02*
X12179587Y-14190674D01*
X12179587Y-14190674D02*
X12198634Y-14181150D01*
X12198634Y-14181150D02*
X12227206Y-14181150D01*
X12227206Y-14181150D02*
X12246253Y-14190674D01*
X12246253Y-14190674D02*
X12255777Y-14200198D01*
X12255777Y-14200198D02*
X12265301Y-14219246D01*
X12265301Y-14219246D02*
X12265301Y-14276388D01*
X12265301Y-14276388D02*
X12255777Y-14295436D01*
X12255777Y-14295436D02*
X12246253Y-14304960D01*
X12246253Y-14304960D02*
X12227206Y-14314484D01*
X12227206Y-14314484D02*
X12198634Y-14314484D01*
X12379587Y-14314484D02*
X12360539Y-14304960D01*
X12360539Y-14304960D02*
X12351015Y-14285912D01*
X12351015Y-14285912D02*
X12351015Y-14114484D01*
X12531968Y-14304960D02*
X12512920Y-14314484D01*
X12512920Y-14314484D02*
X12474825Y-14314484D01*
X12474825Y-14314484D02*
X12455777Y-14304960D01*
X12455777Y-14304960D02*
X12446253Y-14285912D01*
X12446253Y-14285912D02*
X12446253Y-14209722D01*
X12446253Y-14209722D02*
X12455777Y-14190674D01*
X12455777Y-14190674D02*
X12474825Y-14181150D01*
X12474825Y-14181150D02*
X12512920Y-14181150D01*
X12512920Y-14181150D02*
X12531968Y-14190674D01*
X12531968Y-14190674D02*
X12541491Y-14209722D01*
X12541491Y-14209722D02*
X12541491Y-14228769D01*
X12541491Y-14228769D02*
X12446253Y-14247817D01*
X12617682Y-14304960D02*
X12636730Y-14314484D01*
X12636730Y-14314484D02*
X12674825Y-14314484D01*
X12674825Y-14314484D02*
X12693872Y-14304960D01*
X12693872Y-14304960D02*
X12703396Y-14285912D01*
X12703396Y-14285912D02*
X12703396Y-14276388D01*
X12703396Y-14276388D02*
X12693872Y-14257341D01*
X12693872Y-14257341D02*
X12674825Y-14247817D01*
X12674825Y-14247817D02*
X12646253Y-14247817D01*
X12646253Y-14247817D02*
X12627206Y-14238293D01*
X12627206Y-14238293D02*
X12617682Y-14219246D01*
X12617682Y-14219246D02*
X12617682Y-14209722D01*
X12617682Y-14209722D02*
X12627206Y-14190674D01*
X12627206Y-14190674D02*
X12646253Y-14181150D01*
X12646253Y-14181150D02*
X12674825Y-14181150D01*
X12674825Y-14181150D02*
X12693872Y-14190674D01*
X12770063Y-14390674D02*
X12779587Y-14381150D01*
X12779587Y-14381150D02*
X12798634Y-14352579D01*
X12798634Y-14352579D02*
X12808158Y-14333531D01*
X12808158Y-14333531D02*
X12817682Y-14304960D01*
X12817682Y-14304960D02*
X12827206Y-14257341D01*
X12827206Y-14257341D02*
X12827206Y-14219246D01*
X12827206Y-14219246D02*
X12817682Y-14171627D01*
X12817682Y-14171627D02*
X12808158Y-14143055D01*
X12808158Y-14143055D02*
X12798634Y-14124008D01*
X12798634Y-14124008D02*
X12779587Y-14095436D01*
X12779587Y-14095436D02*
X12770063Y-14085912D01*
D13*
X7977427Y-14529427D02*
X7977427Y-14444573D01*
X7892573Y-14444573D01*
X7892573Y-14529427D01*
X7977427Y-14529427D01*
D12*
X8360539Y-14578484D02*
X8246253Y-14578484D01*
X8303396Y-14578484D02*
X8303396Y-14378484D01*
X8303396Y-14378484D02*
X8284348Y-14407055D01*
X8284348Y-14407055D02*
X8265301Y-14426103D01*
X8265301Y-14426103D02*
X8246253Y-14435627D01*
X8446253Y-14559436D02*
X8455777Y-14568960D01*
X8455777Y-14568960D02*
X8446253Y-14578484D01*
X8446253Y-14578484D02*
X8436729Y-14568960D01*
X8436729Y-14568960D02*
X8446253Y-14559436D01*
X8446253Y-14559436D02*
X8446253Y-14578484D01*
X8531967Y-14397531D02*
X8541491Y-14388008D01*
X8541491Y-14388008D02*
X8560539Y-14378484D01*
X8560539Y-14378484D02*
X8608158Y-14378484D01*
X8608158Y-14378484D02*
X8627205Y-14388008D01*
X8627205Y-14388008D02*
X8636729Y-14397531D01*
X8636729Y-14397531D02*
X8646253Y-14416579D01*
X8646253Y-14416579D02*
X8646253Y-14435627D01*
X8646253Y-14435627D02*
X8636729Y-14464198D01*
X8636729Y-14464198D02*
X8522444Y-14578484D01*
X8522444Y-14578484D02*
X8646253Y-14578484D01*
X8770063Y-14378484D02*
X8789110Y-14378484D01*
X8789110Y-14378484D02*
X8808158Y-14388008D01*
X8808158Y-14388008D02*
X8817682Y-14397531D01*
X8817682Y-14397531D02*
X8827205Y-14416579D01*
X8827205Y-14416579D02*
X8836729Y-14454674D01*
X8836729Y-14454674D02*
X8836729Y-14502293D01*
X8836729Y-14502293D02*
X8827205Y-14540388D01*
X8827205Y-14540388D02*
X8817682Y-14559436D01*
X8817682Y-14559436D02*
X8808158Y-14568960D01*
X8808158Y-14568960D02*
X8789110Y-14578484D01*
X8789110Y-14578484D02*
X8770063Y-14578484D01*
X8770063Y-14578484D02*
X8751015Y-14568960D01*
X8751015Y-14568960D02*
X8741491Y-14559436D01*
X8741491Y-14559436D02*
X8731967Y-14540388D01*
X8731967Y-14540388D02*
X8722444Y-14502293D01*
X8722444Y-14502293D02*
X8722444Y-14454674D01*
X8722444Y-14454674D02*
X8731967Y-14416579D01*
X8731967Y-14416579D02*
X8741491Y-14397531D01*
X8741491Y-14397531D02*
X8751015Y-14388008D01*
X8751015Y-14388008D02*
X8770063Y-14378484D01*
X8960539Y-14378484D02*
X8979586Y-14378484D01*
X8979586Y-14378484D02*
X8998634Y-14388008D01*
X8998634Y-14388008D02*
X9008158Y-14397531D01*
X9008158Y-14397531D02*
X9017682Y-14416579D01*
X9017682Y-14416579D02*
X9027205Y-14454674D01*
X9027205Y-14454674D02*
X9027205Y-14502293D01*
X9027205Y-14502293D02*
X9017682Y-14540388D01*
X9017682Y-14540388D02*
X9008158Y-14559436D01*
X9008158Y-14559436D02*
X8998634Y-14568960D01*
X8998634Y-14568960D02*
X8979586Y-14578484D01*
X8979586Y-14578484D02*
X8960539Y-14578484D01*
X8960539Y-14578484D02*
X8941491Y-14568960D01*
X8941491Y-14568960D02*
X8931967Y-14559436D01*
X8931967Y-14559436D02*
X8922444Y-14540388D01*
X8922444Y-14540388D02*
X8912920Y-14502293D01*
X8912920Y-14502293D02*
X8912920Y-14454674D01*
X8912920Y-14454674D02*
X8922444Y-14416579D01*
X8922444Y-14416579D02*
X8931967Y-14397531D01*
X8931967Y-14397531D02*
X8941491Y-14388008D01*
X8941491Y-14388008D02*
X8960539Y-14378484D01*
X9112920Y-14578484D02*
X9112920Y-14445150D01*
X9112920Y-14464198D02*
X9122444Y-14454674D01*
X9122444Y-14454674D02*
X9141491Y-14445150D01*
X9141491Y-14445150D02*
X9170063Y-14445150D01*
X9170063Y-14445150D02*
X9189110Y-14454674D01*
X9189110Y-14454674D02*
X9198634Y-14473722D01*
X9198634Y-14473722D02*
X9198634Y-14578484D01*
X9198634Y-14473722D02*
X9208158Y-14454674D01*
X9208158Y-14454674D02*
X9227205Y-14445150D01*
X9227205Y-14445150D02*
X9255777Y-14445150D01*
X9255777Y-14445150D02*
X9274825Y-14454674D01*
X9274825Y-14454674D02*
X9284348Y-14473722D01*
X9284348Y-14473722D02*
X9284348Y-14578484D01*
X9379586Y-14578484D02*
X9379586Y-14445150D01*
X9379586Y-14464198D02*
X9389110Y-14454674D01*
X9389110Y-14454674D02*
X9408158Y-14445150D01*
X9408158Y-14445150D02*
X9436729Y-14445150D01*
X9436729Y-14445150D02*
X9455777Y-14454674D01*
X9455777Y-14454674D02*
X9465301Y-14473722D01*
X9465301Y-14473722D02*
X9465301Y-14578484D01*
X9465301Y-14473722D02*
X9474825Y-14454674D01*
X9474825Y-14454674D02*
X9493872Y-14445150D01*
X9493872Y-14445150D02*
X9522444Y-14445150D01*
X9522444Y-14445150D02*
X9541491Y-14454674D01*
X9541491Y-14454674D02*
X9551015Y-14473722D01*
X9551015Y-14473722D02*
X9551015Y-14578484D01*
X9941491Y-14368960D02*
X9770063Y-14626103D01*
X10198634Y-14378484D02*
X10217682Y-14378484D01*
X10217682Y-14378484D02*
X10236729Y-14388008D01*
X10236729Y-14388008D02*
X10246253Y-14397531D01*
X10246253Y-14397531D02*
X10255777Y-14416579D01*
X10255777Y-14416579D02*
X10265301Y-14454674D01*
X10265301Y-14454674D02*
X10265301Y-14502293D01*
X10265301Y-14502293D02*
X10255777Y-14540388D01*
X10255777Y-14540388D02*
X10246253Y-14559436D01*
X10246253Y-14559436D02*
X10236729Y-14568960D01*
X10236729Y-14568960D02*
X10217682Y-14578484D01*
X10217682Y-14578484D02*
X10198634Y-14578484D01*
X10198634Y-14578484D02*
X10179587Y-14568960D01*
X10179587Y-14568960D02*
X10170063Y-14559436D01*
X10170063Y-14559436D02*
X10160539Y-14540388D01*
X10160539Y-14540388D02*
X10151015Y-14502293D01*
X10151015Y-14502293D02*
X10151015Y-14454674D01*
X10151015Y-14454674D02*
X10160539Y-14416579D01*
X10160539Y-14416579D02*
X10170063Y-14397531D01*
X10170063Y-14397531D02*
X10179587Y-14388008D01*
X10179587Y-14388008D02*
X10198634Y-14378484D01*
X10351015Y-14559436D02*
X10360539Y-14568960D01*
X10360539Y-14568960D02*
X10351015Y-14578484D01*
X10351015Y-14578484D02*
X10341491Y-14568960D01*
X10341491Y-14568960D02*
X10351015Y-14559436D01*
X10351015Y-14559436D02*
X10351015Y-14578484D01*
X10484348Y-14378484D02*
X10503396Y-14378484D01*
X10503396Y-14378484D02*
X10522444Y-14388008D01*
X10522444Y-14388008D02*
X10531968Y-14397531D01*
X10531968Y-14397531D02*
X10541491Y-14416579D01*
X10541491Y-14416579D02*
X10551015Y-14454674D01*
X10551015Y-14454674D02*
X10551015Y-14502293D01*
X10551015Y-14502293D02*
X10541491Y-14540388D01*
X10541491Y-14540388D02*
X10531968Y-14559436D01*
X10531968Y-14559436D02*
X10522444Y-14568960D01*
X10522444Y-14568960D02*
X10503396Y-14578484D01*
X10503396Y-14578484D02*
X10484348Y-14578484D01*
X10484348Y-14578484D02*
X10465301Y-14568960D01*
X10465301Y-14568960D02*
X10455777Y-14559436D01*
X10455777Y-14559436D02*
X10446253Y-14540388D01*
X10446253Y-14540388D02*
X10436729Y-14502293D01*
X10436729Y-14502293D02*
X10436729Y-14454674D01*
X10436729Y-14454674D02*
X10446253Y-14416579D01*
X10446253Y-14416579D02*
X10455777Y-14397531D01*
X10455777Y-14397531D02*
X10465301Y-14388008D01*
X10465301Y-14388008D02*
X10484348Y-14378484D01*
X10722444Y-14445150D02*
X10722444Y-14578484D01*
X10674825Y-14368960D02*
X10627206Y-14511817D01*
X10627206Y-14511817D02*
X10751015Y-14511817D01*
X10808158Y-14378484D02*
X10941491Y-14378484D01*
X10941491Y-14378484D02*
X10855777Y-14578484D01*
X11008158Y-14397531D02*
X11017682Y-14388008D01*
X11017682Y-14388008D02*
X11036729Y-14378484D01*
X11036729Y-14378484D02*
X11084349Y-14378484D01*
X11084349Y-14378484D02*
X11103396Y-14388008D01*
X11103396Y-14388008D02*
X11112920Y-14397531D01*
X11112920Y-14397531D02*
X11122444Y-14416579D01*
X11122444Y-14416579D02*
X11122444Y-14435627D01*
X11122444Y-14435627D02*
X11112920Y-14464198D01*
X11112920Y-14464198D02*
X10998634Y-14578484D01*
X10998634Y-14578484D02*
X11122444Y-14578484D01*
X11198634Y-14378484D02*
X11198634Y-14416579D01*
X11274825Y-14378484D02*
X11274825Y-14416579D01*
X11570063Y-14654674D02*
X11560539Y-14645150D01*
X11560539Y-14645150D02*
X11541491Y-14616579D01*
X11541491Y-14616579D02*
X11531968Y-14597531D01*
X11531968Y-14597531D02*
X11522444Y-14568960D01*
X11522444Y-14568960D02*
X11512920Y-14521341D01*
X11512920Y-14521341D02*
X11512920Y-14483246D01*
X11512920Y-14483246D02*
X11522444Y-14435627D01*
X11522444Y-14435627D02*
X11531968Y-14407055D01*
X11531968Y-14407055D02*
X11541491Y-14388008D01*
X11541491Y-14388008D02*
X11560539Y-14359436D01*
X11560539Y-14359436D02*
X11570063Y-14349912D01*
X11731968Y-14445150D02*
X11731968Y-14578484D01*
X11684348Y-14368960D02*
X11636729Y-14511817D01*
X11636729Y-14511817D02*
X11760539Y-14511817D01*
X11989110Y-14578484D02*
X11989110Y-14378484D01*
X12074825Y-14578484D02*
X12074825Y-14473722D01*
X12074825Y-14473722D02*
X12065301Y-14454674D01*
X12065301Y-14454674D02*
X12046253Y-14445150D01*
X12046253Y-14445150D02*
X12017682Y-14445150D01*
X12017682Y-14445150D02*
X11998634Y-14454674D01*
X11998634Y-14454674D02*
X11989110Y-14464198D01*
X12198634Y-14578484D02*
X12179587Y-14568960D01*
X12179587Y-14568960D02*
X12170063Y-14559436D01*
X12170063Y-14559436D02*
X12160539Y-14540388D01*
X12160539Y-14540388D02*
X12160539Y-14483246D01*
X12160539Y-14483246D02*
X12170063Y-14464198D01*
X12170063Y-14464198D02*
X12179587Y-14454674D01*
X12179587Y-14454674D02*
X12198634Y-14445150D01*
X12198634Y-14445150D02*
X12227206Y-14445150D01*
X12227206Y-14445150D02*
X12246253Y-14454674D01*
X12246253Y-14454674D02*
X12255777Y-14464198D01*
X12255777Y-14464198D02*
X12265301Y-14483246D01*
X12265301Y-14483246D02*
X12265301Y-14540388D01*
X12265301Y-14540388D02*
X12255777Y-14559436D01*
X12255777Y-14559436D02*
X12246253Y-14568960D01*
X12246253Y-14568960D02*
X12227206Y-14578484D01*
X12227206Y-14578484D02*
X12198634Y-14578484D01*
X12379587Y-14578484D02*
X12360539Y-14568960D01*
X12360539Y-14568960D02*
X12351015Y-14549912D01*
X12351015Y-14549912D02*
X12351015Y-14378484D01*
X12531968Y-14568960D02*
X12512920Y-14578484D01*
X12512920Y-14578484D02*
X12474825Y-14578484D01*
X12474825Y-14578484D02*
X12455777Y-14568960D01*
X12455777Y-14568960D02*
X12446253Y-14549912D01*
X12446253Y-14549912D02*
X12446253Y-14473722D01*
X12446253Y-14473722D02*
X12455777Y-14454674D01*
X12455777Y-14454674D02*
X12474825Y-14445150D01*
X12474825Y-14445150D02*
X12512920Y-14445150D01*
X12512920Y-14445150D02*
X12531968Y-14454674D01*
X12531968Y-14454674D02*
X12541491Y-14473722D01*
X12541491Y-14473722D02*
X12541491Y-14492769D01*
X12541491Y-14492769D02*
X12446253Y-14511817D01*
X12617682Y-14568960D02*
X12636730Y-14578484D01*
X12636730Y-14578484D02*
X12674825Y-14578484D01*
X12674825Y-14578484D02*
X12693872Y-14568960D01*
X12693872Y-14568960D02*
X12703396Y-14549912D01*
X12703396Y-14549912D02*
X12703396Y-14540388D01*
X12703396Y-14540388D02*
X12693872Y-14521341D01*
X12693872Y-14521341D02*
X12674825Y-14511817D01*
X12674825Y-14511817D02*
X12646253Y-14511817D01*
X12646253Y-14511817D02*
X12627206Y-14502293D01*
X12627206Y-14502293D02*
X12617682Y-14483246D01*
X12617682Y-14483246D02*
X12617682Y-14473722D01*
X12617682Y-14473722D02*
X12627206Y-14454674D01*
X12627206Y-14454674D02*
X12646253Y-14445150D01*
X12646253Y-14445150D02*
X12674825Y-14445150D01*
X12674825Y-14445150D02*
X12693872Y-14454674D01*
X12770063Y-14654674D02*
X12779587Y-14645150D01*
X12779587Y-14645150D02*
X12798634Y-14616579D01*
X12798634Y-14616579D02*
X12808158Y-14597531D01*
X12808158Y-14597531D02*
X12817682Y-14568960D01*
X12817682Y-14568960D02*
X12827206Y-14521341D01*
X12827206Y-14521341D02*
X12827206Y-14483246D01*
X12827206Y-14483246D02*
X12817682Y-14435627D01*
X12817682Y-14435627D02*
X12808158Y-14407055D01*
X12808158Y-14407055D02*
X12798634Y-14388008D01*
X12798634Y-14388008D02*
X12779587Y-14359436D01*
X12779587Y-14359436D02*
X12770063Y-14349912D01*
M02*
