G04 #@! TF.GenerationSoftware,KiCad,Pcbnew,9.0.3*
G04 #@! TF.CreationDate,2025-11-06T12:11:40+01:00*
G04 #@! TF.ProjectId,modbus-to-x,6d6f6462-7573-42d7-946f-2d782e6b6963,rev?*
G04 #@! TF.SameCoordinates,Original*
G04 #@! TF.FileFunction,Copper,L1,Top*
G04 #@! TF.FilePolarity,Positive*
%FSLAX46Y46*%
G04 Gerber Fmt 4.6, Leading zero omitted, Abs format (unit mm)*
G04 Created by KiCad (PCBNEW 9.0.3) date 2025-11-06 12:11:40*
%MOMM*%
%LPD*%
G01*
G04 APERTURE LIST*
G04 Aperture macros list*
%AMRoundRect*
0 Rectangle with rounded corners*
0 $1 Rounding radius*
0 $2 $3 $4 $5 $6 $7 $8 $9 X,Y pos of 4 corners*
0 Add a 4 corners polygon primitive as box body*
4,1,4,$2,$3,$4,$5,$6,$7,$8,$9,$2,$3,0*
0 Add four circle primitives for the rounded corners*
1,1,$1+$1,$2,$3*
1,1,$1+$1,$4,$5*
1,1,$1+$1,$6,$7*
1,1,$1+$1,$8,$9*
0 Add four rect primitives between the rounded corners*
20,1,$1+$1,$2,$3,$4,$5,0*
20,1,$1+$1,$4,$5,$6,$7,0*
20,1,$1+$1,$6,$7,$8,$9,0*
20,1,$1+$1,$8,$9,$2,$3,0*%
G04 Aperture macros list end*
G04 #@! TA.AperFunction,HeatsinkPad*
%ADD10C,0.600000*%
G04 #@! TD*
G04 #@! TA.AperFunction,SMDPad,CuDef*
%ADD11RoundRect,0.250000X0.412500X0.650000X-0.412500X0.650000X-0.412500X-0.650000X0.412500X-0.650000X0*%
G04 #@! TD*
G04 #@! TA.AperFunction,SMDPad,CuDef*
%ADD12RoundRect,0.250000X-0.450000X0.350000X-0.450000X-0.350000X0.450000X-0.350000X0.450000X0.350000X0*%
G04 #@! TD*
G04 #@! TA.AperFunction,SMDPad,CuDef*
%ADD13RoundRect,0.250000X0.450000X-0.350000X0.450000X0.350000X-0.450000X0.350000X-0.450000X-0.350000X0*%
G04 #@! TD*
G04 #@! TA.AperFunction,SMDPad,CuDef*
%ADD14R,1.700000X0.740000*%
G04 #@! TD*
G04 #@! TA.AperFunction,ComponentPad*
%ADD15R,1.500000X1.500000*%
G04 #@! TD*
G04 #@! TA.AperFunction,ComponentPad*
%ADD16C,1.600000*%
G04 #@! TD*
G04 #@! TA.AperFunction,ComponentPad*
%ADD17C,1.408000*%
G04 #@! TD*
G04 #@! TA.AperFunction,SMDPad,CuDef*
%ADD18RoundRect,0.237500X-0.250000X-0.237500X0.250000X-0.237500X0.250000X0.237500X-0.250000X0.237500X0*%
G04 #@! TD*
G04 #@! TA.AperFunction,SMDPad,CuDef*
%ADD19RoundRect,0.250000X0.300000X-2.050000X0.300000X2.050000X-0.300000X2.050000X-0.300000X-2.050000X0*%
G04 #@! TD*
G04 #@! TA.AperFunction,SMDPad,CuDef*
%ADD20RoundRect,0.250002X5.149998X-4.449998X5.149998X4.449998X-5.149998X4.449998X-5.149998X-4.449998X0*%
G04 #@! TD*
G04 #@! TA.AperFunction,SMDPad,CuDef*
%ADD21R,1.000000X0.500000*%
G04 #@! TD*
G04 #@! TA.AperFunction,SMDPad,CuDef*
%ADD22RoundRect,0.250000X-1.050000X-0.550000X1.050000X-0.550000X1.050000X0.550000X-1.050000X0.550000X0*%
G04 #@! TD*
G04 #@! TA.AperFunction,SMDPad,CuDef*
%ADD23RoundRect,0.155000X-0.212500X-0.155000X0.212500X-0.155000X0.212500X0.155000X-0.212500X0.155000X0*%
G04 #@! TD*
G04 #@! TA.AperFunction,SMDPad,CuDef*
%ADD24RoundRect,0.250000X0.650000X-0.412500X0.650000X0.412500X-0.650000X0.412500X-0.650000X-0.412500X0*%
G04 #@! TD*
G04 #@! TA.AperFunction,SMDPad,CuDef*
%ADD25R,0.500000X1.000000*%
G04 #@! TD*
G04 #@! TA.AperFunction,SMDPad,CuDef*
%ADD26RoundRect,0.160000X0.160000X-0.222500X0.160000X0.222500X-0.160000X0.222500X-0.160000X-0.222500X0*%
G04 #@! TD*
G04 #@! TA.AperFunction,SMDPad,CuDef*
%ADD27RoundRect,0.250000X-0.350000X-0.450000X0.350000X-0.450000X0.350000X0.450000X-0.350000X0.450000X0*%
G04 #@! TD*
G04 #@! TA.AperFunction,SMDPad,CuDef*
%ADD28R,1.219200X3.302000*%
G04 #@! TD*
G04 #@! TA.AperFunction,SMDPad,CuDef*
%ADD29RoundRect,0.250000X-0.337500X-0.475000X0.337500X-0.475000X0.337500X0.475000X-0.337500X0.475000X0*%
G04 #@! TD*
G04 #@! TA.AperFunction,SMDPad,CuDef*
%ADD30RoundRect,0.250000X-0.650000X1.500000X-0.650000X-1.500000X0.650000X-1.500000X0.650000X1.500000X0*%
G04 #@! TD*
G04 #@! TA.AperFunction,SMDPad,CuDef*
%ADD31RoundRect,0.250000X-0.625000X0.400000X-0.625000X-0.400000X0.625000X-0.400000X0.625000X0.400000X0*%
G04 #@! TD*
G04 #@! TA.AperFunction,SMDPad,CuDef*
%ADD32RoundRect,0.250000X-0.412500X-0.650000X0.412500X-0.650000X0.412500X0.650000X-0.412500X0.650000X0*%
G04 #@! TD*
G04 #@! TA.AperFunction,SMDPad,CuDef*
%ADD33RoundRect,0.150000X0.825000X0.150000X-0.825000X0.150000X-0.825000X-0.150000X0.825000X-0.150000X0*%
G04 #@! TD*
G04 #@! TA.AperFunction,SMDPad,CuDef*
%ADD34R,2.900000X5.400000*%
G04 #@! TD*
G04 #@! TA.AperFunction,SMDPad,CuDef*
%ADD35RoundRect,0.250000X1.500000X0.650000X-1.500000X0.650000X-1.500000X-0.650000X1.500000X-0.650000X0*%
G04 #@! TD*
G04 #@! TA.AperFunction,SMDPad,CuDef*
%ADD36R,1.600200X5.105400*%
G04 #@! TD*
G04 #@! TA.AperFunction,SMDPad,CuDef*
%ADD37R,0.660400X1.346200*%
G04 #@! TD*
G04 #@! TA.AperFunction,SMDPad,CuDef*
%ADD38R,1.500000X0.900000*%
G04 #@! TD*
G04 #@! TA.AperFunction,SMDPad,CuDef*
%ADD39R,0.900000X1.500000*%
G04 #@! TD*
G04 #@! TA.AperFunction,SMDPad,CuDef*
%ADD40R,0.900000X0.900000*%
G04 #@! TD*
G04 #@! TA.AperFunction,SMDPad,CuDef*
%ADD41R,3.800000X3.800000*%
G04 #@! TD*
G04 #@! TA.AperFunction,ViaPad*
%ADD42C,0.600000*%
G04 #@! TD*
G04 #@! TA.AperFunction,Conductor*
%ADD43C,0.200000*%
G04 #@! TD*
G04 #@! TA.AperFunction,Conductor*
%ADD44C,0.600000*%
G04 #@! TD*
G04 #@! TA.AperFunction,Conductor*
%ADD45C,0.635000*%
G04 #@! TD*
G04 #@! TA.AperFunction,Conductor*
%ADD46C,0.800000*%
G04 #@! TD*
G04 #@! TA.AperFunction,Conductor*
%ADD47C,1.000000*%
G04 #@! TD*
G04 APERTURE END LIST*
D10*
X65450000Y-94800000D03*
X65450000Y-96033333D03*
X65450000Y-93566666D03*
X58950000Y-90500000D03*
X58950000Y-91733333D03*
X58950000Y-97900000D03*
X58950000Y-94200000D03*
X58950000Y-95433333D03*
X58950000Y-92966667D03*
X58950000Y-96666667D03*
X63100000Y-90550000D03*
X63100000Y-91783333D03*
X63100000Y-97950000D03*
X63100000Y-94250000D03*
X63100000Y-95483333D03*
X63100000Y-93016667D03*
X63100000Y-96716667D03*
X61050000Y-96033333D03*
X61050000Y-94800000D03*
X61050000Y-93566666D03*
X67650000Y-90550000D03*
X67650000Y-91783333D03*
X67650000Y-93016667D03*
X67650000Y-94250000D03*
X67650000Y-95483333D03*
X67650000Y-96716667D03*
X67650000Y-97950000D03*
D11*
X102637500Y-94800000D03*
X105762500Y-94800000D03*
D12*
X100000000Y-96700000D03*
X100000000Y-94700000D03*
D13*
X100800000Y-102600000D03*
X100800000Y-104600000D03*
D14*
X89850000Y-95860000D03*
X92550000Y-97130000D03*
X89850000Y-98400000D03*
X92550000Y-99670000D03*
X89850000Y-100940000D03*
D15*
X89040000Y-122400000D03*
D16*
X91580000Y-122400000D03*
X86500000Y-122400000D03*
D17*
X108950000Y-122260000D03*
X107930000Y-124800000D03*
X106910000Y-122260000D03*
X105890000Y-124800000D03*
X104870000Y-122260000D03*
X103850000Y-124800000D03*
D18*
X100603500Y-117136300D03*
X102428500Y-117136300D03*
D19*
X59900000Y-103475000D03*
X61600000Y-103475000D03*
X63300000Y-103475000D03*
D20*
X63300000Y-94325000D03*
D19*
X65000000Y-103475000D03*
X66700000Y-103475000D03*
D21*
X107000000Y-99470349D03*
X107000000Y-98370349D03*
D22*
X115220555Y-122968067D03*
X118820555Y-122968067D03*
D23*
X104432500Y-99500000D03*
X105567500Y-99500000D03*
X104432500Y-98350000D03*
X105567500Y-98350000D03*
D24*
X96000000Y-113362500D03*
X96000000Y-110237500D03*
D25*
X104551000Y-105359200D03*
X103251000Y-105359200D03*
X103901000Y-107359200D03*
D26*
X125505650Y-123570500D03*
X125505650Y-122425500D03*
D18*
X103499100Y-113847000D03*
X105324100Y-113847000D03*
D26*
X121525650Y-123570500D03*
X121525650Y-122425500D03*
X127495650Y-123570500D03*
X127495650Y-122425500D03*
D18*
X100603500Y-118774600D03*
X102428500Y-118774600D03*
D27*
X110642400Y-113690400D03*
X112642400Y-113690400D03*
D28*
X52200000Y-118754400D03*
X52200000Y-111845600D03*
D18*
X100603500Y-115498000D03*
X102428500Y-115498000D03*
D12*
X106629200Y-107229400D03*
X106629200Y-109229400D03*
D29*
X103762500Y-90000000D03*
X105837500Y-90000000D03*
D27*
X117592600Y-109601000D03*
X119592600Y-109601000D03*
D30*
X96500000Y-122900000D03*
X96500000Y-127900000D03*
D31*
X107527600Y-113664400D03*
X107527600Y-116764400D03*
D32*
X114956700Y-119329200D03*
X118081700Y-119329200D03*
D33*
X119877200Y-117285700D03*
X119877200Y-116015700D03*
X119877200Y-114745700D03*
X119877200Y-113475700D03*
X114927200Y-113475700D03*
X114927200Y-114745700D03*
X114927200Y-116015700D03*
X114927200Y-117285700D03*
D34*
X71550000Y-117200000D03*
X61650000Y-117200000D03*
D27*
X110642400Y-116890800D03*
X112642400Y-116890800D03*
D26*
X123515650Y-123570500D03*
X123515650Y-122425500D03*
D35*
X60900000Y-108800000D03*
X55900000Y-108800000D03*
D32*
X102637500Y-92300000D03*
X105762500Y-92300000D03*
D36*
X76800000Y-104561000D03*
X76800000Y-93639000D03*
D37*
X88000000Y-115800000D03*
X94553200Y-115800000D03*
D25*
X103251000Y-103600000D03*
X104551000Y-103600000D03*
X103901000Y-101600000D03*
D10*
X117431800Y-96425400D03*
D38*
X108781800Y-89405400D03*
X108781800Y-90675400D03*
X108781800Y-91945400D03*
X108781800Y-93215400D03*
X108781800Y-94485400D03*
X108781800Y-95755400D03*
X108781800Y-97025400D03*
X108781800Y-98295400D03*
X108781800Y-99565400D03*
X108781800Y-100835400D03*
X108781800Y-102105400D03*
X108781800Y-103375400D03*
X108781800Y-104645400D03*
X108781800Y-105915400D03*
D39*
X111821800Y-107165400D03*
X113091800Y-107165400D03*
X114361800Y-107165400D03*
X115631800Y-107165400D03*
X116901800Y-107165400D03*
X118171800Y-107165400D03*
X119441800Y-107165400D03*
X120711800Y-107165400D03*
X121981800Y-107165400D03*
X123251800Y-107165400D03*
D38*
X126281800Y-105915400D03*
X126281800Y-104645400D03*
X126281800Y-103375400D03*
X126281800Y-102105400D03*
X126281800Y-100835400D03*
X126281800Y-99565400D03*
X126281800Y-98295400D03*
X126281800Y-97025400D03*
X126281800Y-95755400D03*
X126281800Y-94485400D03*
X126281800Y-93215400D03*
X126281800Y-91945400D03*
X126281800Y-90675400D03*
X126281800Y-89405400D03*
D40*
X114631800Y-95725400D03*
D10*
X114631800Y-96425400D03*
D40*
X114631800Y-97125400D03*
D10*
X114631800Y-97825400D03*
D40*
X114631800Y-98525400D03*
D10*
X115331800Y-95725400D03*
X115331800Y-97125400D03*
X115331800Y-98525400D03*
X116006800Y-96425400D03*
X116006800Y-97825400D03*
D40*
X116031800Y-95725400D03*
X116031800Y-97125400D03*
D41*
X116031800Y-97125400D03*
D40*
X116031800Y-98525400D03*
D10*
X116731800Y-95725400D03*
X116731800Y-97125400D03*
X116731800Y-98525400D03*
D40*
X117431800Y-95725400D03*
X117431800Y-97125400D03*
D10*
X117431800Y-97825400D03*
D40*
X117431800Y-98525400D03*
D42*
X124650000Y-118400000D03*
X100850000Y-112250000D03*
X100100000Y-111500000D03*
X107150000Y-88500000D03*
X100000000Y-96700000D03*
X98600000Y-95700000D03*
X107100000Y-91900000D03*
X107368548Y-100478205D03*
X104268548Y-100478205D03*
X105368548Y-100478205D03*
X106368548Y-100478205D03*
X103268548Y-100478205D03*
X106400000Y-97300000D03*
X105400000Y-97300000D03*
X104300000Y-97300000D03*
X103300000Y-97300000D03*
X105700000Y-117100000D03*
X103000000Y-121200000D03*
X104500000Y-120600000D03*
X104500000Y-119500000D03*
X99200000Y-103600000D03*
X89850000Y-99900000D03*
X91350000Y-100950000D03*
X46600000Y-132200000D03*
X122900000Y-96140000D03*
X119200000Y-102200000D03*
X131400000Y-95300000D03*
X131400000Y-102566667D03*
X84700000Y-100200000D03*
X122508450Y-123575200D03*
X131400000Y-100166667D03*
X97897000Y-127101800D03*
X95400000Y-119400000D03*
X58500000Y-99800000D03*
X95800000Y-107000000D03*
X45900000Y-95833334D03*
X97900000Y-128500000D03*
X73900000Y-121000000D03*
X82233333Y-88500000D03*
X120600000Y-105100000D03*
X45900000Y-115100000D03*
X48233333Y-132800000D03*
X115320000Y-105100000D03*
X122100000Y-91200000D03*
X45900000Y-110400000D03*
X109407200Y-117297200D03*
X110032800Y-88950800D03*
X66700000Y-99800000D03*
X89200000Y-119400000D03*
X114400000Y-109200000D03*
X54700000Y-105100000D03*
X117080000Y-105100000D03*
X57933333Y-132800000D03*
X55800000Y-100680000D03*
X131400000Y-109866667D03*
X110845600Y-107721400D03*
X67666666Y-88500000D03*
X45900000Y-90966667D03*
X123133333Y-132800000D03*
X119800000Y-121100000D03*
X109700000Y-118800000D03*
X112100000Y-124533334D03*
X119500000Y-96140000D03*
X95100000Y-128400000D03*
X112700000Y-97900000D03*
X68600000Y-106000000D03*
X89700000Y-88500000D03*
X85700000Y-114400000D03*
X118300000Y-132800000D03*
X47660000Y-109100000D03*
X116900000Y-91200000D03*
X85600000Y-119400000D03*
X94166666Y-132800000D03*
X131400000Y-97733334D03*
X120320000Y-100000000D03*
X101333333Y-132800000D03*
X94800000Y-106200000D03*
X79700000Y-121100000D03*
X115900000Y-132800000D03*
X65233333Y-88500000D03*
X131400000Y-114933333D03*
X79666666Y-132800000D03*
X120700000Y-132800000D03*
X60300000Y-99800000D03*
X118600000Y-93900000D03*
X112640000Y-109200000D03*
X45900000Y-112600000D03*
X107400000Y-97300000D03*
X65233333Y-132800000D03*
X129400000Y-88500000D03*
X52940000Y-105100000D03*
X108633333Y-132800000D03*
X45900000Y-117400000D03*
X84700000Y-102080000D03*
X50766667Y-88500000D03*
X95103000Y-127051000D03*
X84533333Y-132800000D03*
X76800000Y-90100000D03*
X68600000Y-102480000D03*
X111100000Y-97900000D03*
X84700000Y-91400000D03*
X83000000Y-119400000D03*
X84833333Y-88500000D03*
X116840000Y-93900000D03*
X69966666Y-132800000D03*
X131400000Y-105000000D03*
X118660000Y-91200000D03*
X93200000Y-119400000D03*
X119500000Y-97900000D03*
X96966666Y-88500000D03*
X56900000Y-93780000D03*
X58033333Y-88500000D03*
X55533333Y-132800000D03*
X62800000Y-132800000D03*
X83600000Y-115800000D03*
X92133333Y-88500000D03*
X56900000Y-92020000D03*
X130900000Y-89000000D03*
X111100000Y-96140000D03*
X79800000Y-88500000D03*
X125566667Y-132800000D03*
X90400000Y-106200000D03*
X87500000Y-120300000D03*
X113280000Y-100000000D03*
X124489650Y-123575200D03*
X109120000Y-109200000D03*
X115080000Y-93900000D03*
X131400000Y-122200000D03*
X78900000Y-91200000D03*
X111033333Y-132800000D03*
X77366666Y-88500000D03*
X91220000Y-119400000D03*
X53200000Y-88500000D03*
X103766666Y-132800000D03*
X103300000Y-99400000D03*
X45900000Y-129800000D03*
X82760000Y-91200000D03*
X56900000Y-99060000D03*
X55800000Y-102440000D03*
X104800000Y-88500000D03*
X115140000Y-91200000D03*
X74933333Y-88500000D03*
X87400000Y-113100000D03*
X73900000Y-122100000D03*
X45900000Y-119800000D03*
X98550000Y-109900000D03*
X121100000Y-96140000D03*
X97420000Y-119400000D03*
X79700000Y-118700000D03*
X73900000Y-123200000D03*
X77900000Y-122400000D03*
X124500000Y-97900000D03*
X113380000Y-91200000D03*
X109666666Y-120500000D03*
X118840000Y-105100000D03*
X53100000Y-132800000D03*
X45900000Y-105533334D03*
X121100000Y-97900000D03*
X68600000Y-104240000D03*
X70100000Y-88500000D03*
X91800000Y-132800000D03*
X97650000Y-108950000D03*
X75660000Y-121000000D03*
X131400000Y-112500000D03*
X99400000Y-88500000D03*
X131400000Y-117366667D03*
X125018800Y-89027000D03*
X118800000Y-124400000D03*
X118560000Y-100000000D03*
X50666666Y-132800000D03*
X45900000Y-93400000D03*
X61800000Y-99800000D03*
X84700000Y-103840000D03*
X115040000Y-100000000D03*
X94533333Y-88500000D03*
X111620000Y-91200000D03*
X112100000Y-122500000D03*
X60466667Y-88500000D03*
X123800000Y-93900000D03*
X47200000Y-120700000D03*
X113320000Y-93900000D03*
X63300000Y-99800000D03*
X72533333Y-88500000D03*
X131400000Y-129500000D03*
X48800000Y-120700000D03*
X128800000Y-132800000D03*
X131000000Y-132200000D03*
X117440000Y-102200000D03*
X77900000Y-119900000D03*
X62900000Y-88500000D03*
X56900000Y-90140000D03*
X114140000Y-89000000D03*
X131400000Y-119800000D03*
X115680000Y-102200000D03*
X72400000Y-132800000D03*
X122000000Y-100000000D03*
X70100000Y-91200000D03*
X87266666Y-88500000D03*
X115900000Y-89000000D03*
X116281200Y-108737400D03*
X52940000Y-109100000D03*
X91960000Y-106200000D03*
X84700000Y-98440000D03*
X82100000Y-132800000D03*
X120360000Y-93900000D03*
X123760000Y-100000000D03*
X122900000Y-97900000D03*
X112100000Y-120500000D03*
X72500000Y-91200000D03*
X118800000Y-121600000D03*
X45900000Y-100666667D03*
X112700000Y-96140000D03*
X117660000Y-89000000D03*
X107233333Y-120500000D03*
X122040000Y-93900000D03*
X96600000Y-132800000D03*
X122860000Y-89000000D03*
X113560000Y-105100000D03*
X81000000Y-91200000D03*
X124500000Y-96140000D03*
X126470850Y-123575200D03*
X63600000Y-107100000D03*
X68600000Y-99800000D03*
X99400000Y-119400000D03*
X131400000Y-92866667D03*
X107266667Y-118800000D03*
X102600000Y-90000000D03*
X112380000Y-89000000D03*
X131400000Y-124633333D03*
X48333333Y-88500000D03*
X127889000Y-89052400D03*
X131400000Y-90500000D03*
X96650000Y-107900000D03*
X45900000Y-127066667D03*
X84700000Y-94920000D03*
X81500000Y-117300000D03*
X118081700Y-120773109D03*
X113466666Y-132800000D03*
X121100000Y-89000000D03*
X63300000Y-106200000D03*
X116800000Y-100000000D03*
X131400000Y-127066667D03*
X110845600Y-106705400D03*
X110880000Y-109200000D03*
X45900000Y-122233333D03*
X112133334Y-118800000D03*
X67533333Y-132800000D03*
X127889000Y-90000000D03*
X99033333Y-132800000D03*
X45900000Y-107966667D03*
X49420000Y-109100000D03*
X106200000Y-132800000D03*
X75660000Y-123200000D03*
X93500000Y-106200000D03*
X110032800Y-89800000D03*
X95411699Y-125756820D03*
X120340000Y-91200000D03*
X131400000Y-107433334D03*
X55600000Y-88500000D03*
X119420000Y-89000000D03*
X60366666Y-132800000D03*
X119900000Y-124800000D03*
X113920000Y-102200000D03*
X55800000Y-104200000D03*
X103300000Y-98300000D03*
X89366666Y-132800000D03*
X46600000Y-89300000D03*
X97621499Y-125731420D03*
X64900000Y-99800000D03*
X90400000Y-107600000D03*
X74833333Y-132800000D03*
X84700000Y-96680000D03*
X45900000Y-98266667D03*
X74700000Y-91200000D03*
X51180000Y-109100000D03*
X56900000Y-97300000D03*
X45900000Y-124600000D03*
X56900000Y-95540000D03*
X84700000Y-93160000D03*
X45900000Y-103100000D03*
X86933333Y-132800000D03*
X101500000Y-92300000D03*
X89600000Y-111600000D03*
X125018800Y-89839800D03*
X90400000Y-109000000D03*
X77233333Y-132800000D03*
X101900000Y-88500000D03*
X90400000Y-110200000D03*
X102850000Y-107400000D03*
X104700000Y-101600000D03*
X124968000Y-105918000D03*
X86400000Y-111500000D03*
X88400000Y-107100000D03*
X86400000Y-106500000D03*
X114326007Y-124516311D03*
X107100000Y-90100000D03*
X104411600Y-112983400D03*
X86400000Y-109900000D03*
X88400000Y-108700000D03*
X86400000Y-108200000D03*
X112623947Y-112537800D03*
X116100000Y-119400000D03*
X107100000Y-90900000D03*
X114956700Y-121120678D03*
X116332127Y-124293730D03*
X88400000Y-110400000D03*
X116205000Y-117285700D03*
X106070400Y-113030000D03*
X125247400Y-93243400D03*
X93300000Y-98800000D03*
X125272800Y-94462600D03*
X58300000Y-105400000D03*
X58300000Y-101800000D03*
X57600000Y-124400000D03*
X57400000Y-102900000D03*
X58300000Y-102900000D03*
X57600000Y-125200000D03*
X58500000Y-125200000D03*
X58500000Y-124400000D03*
X58300000Y-104100000D03*
X57400000Y-101800000D03*
X57400000Y-105400000D03*
X57400000Y-104100000D03*
X103469900Y-118774600D03*
X122923650Y-121695600D03*
X103469900Y-117136300D03*
X124913650Y-121695600D03*
X126903650Y-121695600D03*
X103505000Y-115519200D03*
X101498400Y-118186200D03*
X112100000Y-102000000D03*
X100634800Y-114477800D03*
X110015819Y-104069992D03*
X111000000Y-103000000D03*
X101482600Y-116306600D03*
X90900000Y-97500000D03*
X114900000Y-112550000D03*
D43*
X106979651Y-98350000D02*
X107000000Y-98370349D01*
X105567500Y-98350000D02*
X106979651Y-98350000D01*
X106970349Y-99500000D02*
X107000000Y-99470349D01*
X105747151Y-99500000D02*
X106970349Y-99500000D01*
X105667500Y-99420349D02*
X105747151Y-99500000D01*
X124650000Y-118850000D02*
X121525650Y-121974350D01*
X121525650Y-121974350D02*
X121525650Y-122425500D01*
X124650000Y-118400000D02*
X124650000Y-118850000D01*
X122503750Y-123570500D02*
X122508450Y-123575200D01*
X121525650Y-123570500D02*
X122503750Y-123570500D01*
X100250000Y-96450000D02*
X100000000Y-96700000D01*
X104112500Y-96450000D02*
X100250000Y-96450000D01*
X105762500Y-94800000D02*
X104112500Y-96450000D01*
X99650000Y-94700000D02*
X100000000Y-94700000D01*
X98650000Y-95700000D02*
X99650000Y-94700000D01*
X98600000Y-95700000D02*
X98650000Y-95700000D01*
X103092000Y-107359200D02*
X103901000Y-107359200D01*
X96887500Y-113362500D02*
X96000000Y-113362500D01*
X102850000Y-107400000D02*
X96887500Y-113362500D01*
X102850000Y-107400000D02*
X103051200Y-107400000D01*
X103051200Y-107400000D02*
X103092000Y-107359200D01*
D44*
X106368548Y-100478205D02*
X107368548Y-100478205D01*
X105368548Y-100478205D02*
X106368548Y-100478205D01*
X104268548Y-100478205D02*
X105368548Y-100478205D01*
X103268548Y-100478205D02*
X104268548Y-100478205D01*
X103300000Y-100446753D02*
X103268548Y-100478205D01*
X103300000Y-99400000D02*
X103300000Y-100446753D01*
X103300000Y-98300000D02*
X103300000Y-99400000D01*
X103300000Y-97300000D02*
X103300000Y-98300000D01*
X104300000Y-97300000D02*
X103300000Y-97300000D01*
X106400000Y-97300000D02*
X105400000Y-97300000D01*
X107400000Y-97300000D02*
X106400000Y-97300000D01*
X105400000Y-97300000D02*
X104300000Y-97300000D01*
D43*
X101800000Y-103600000D02*
X100800000Y-102600000D01*
X103251000Y-103600000D02*
X101800000Y-103600000D01*
X105024200Y-103600000D02*
X106629200Y-105205000D01*
X104551000Y-103600000D02*
X105024200Y-103600000D01*
X104700000Y-101600000D02*
X103901000Y-101600000D01*
X98081000Y-97130000D02*
X104551000Y-103600000D01*
X92550000Y-97130000D02*
X98081000Y-97130000D01*
X102491800Y-104600000D02*
X103251000Y-105359200D01*
X100800000Y-104600000D02*
X102491800Y-104600000D01*
X92500000Y-99620000D02*
X92550000Y-99670000D01*
X93300000Y-98800000D02*
X92500000Y-99600000D01*
X92500000Y-99600000D02*
X92500000Y-99620000D01*
X90900000Y-97500000D02*
X90000000Y-98400000D01*
X90000000Y-98400000D02*
X89850000Y-98400000D01*
X116281200Y-108737400D02*
X116729000Y-108737400D01*
D45*
X111821800Y-107165400D02*
X111305600Y-107165400D01*
D46*
X126281800Y-89405400D02*
X125453200Y-89405400D01*
X127536000Y-89405400D02*
X127889000Y-89052400D01*
D47*
X63300000Y-103475000D02*
X63300000Y-94325000D01*
D46*
X126281800Y-89405400D02*
X125397200Y-89405400D01*
D45*
X111821800Y-107165400D02*
X111401600Y-107165400D01*
X111305600Y-107165400D02*
X110845600Y-106705400D01*
D43*
X110642400Y-116890800D02*
X109813600Y-116890800D01*
X124494350Y-123570500D02*
X124489650Y-123575200D01*
D46*
X125453200Y-89405400D02*
X125018800Y-89839800D01*
X125397200Y-89405400D02*
X125018800Y-89027000D01*
D43*
X126475550Y-123570500D02*
X126470850Y-123575200D01*
X126466150Y-123570500D02*
X126470850Y-123575200D01*
X127451750Y-123487700D02*
X127524250Y-123415200D01*
D45*
X111401600Y-107165400D02*
X110845600Y-107721400D01*
D43*
X109813600Y-116890800D02*
X109407200Y-117297200D01*
D46*
X127294400Y-89405400D02*
X127889000Y-90000000D01*
X126281800Y-89405400D02*
X127536000Y-89405400D01*
D43*
X124484950Y-123570500D02*
X124489650Y-123575200D01*
D46*
X126281800Y-89405400D02*
X127294400Y-89405400D01*
D43*
X122513150Y-123570500D02*
X122508450Y-123575200D01*
X116729000Y-108737400D02*
X117592600Y-109601000D01*
X96000000Y-113362500D02*
X94553200Y-114809300D01*
X94553200Y-114809300D02*
X94553200Y-115800000D01*
X125732600Y-105915400D02*
X126281800Y-105915400D01*
X125730000Y-105918000D02*
X125732600Y-105915400D01*
X124968000Y-105918000D02*
X125730000Y-105918000D01*
D45*
X116100000Y-119400000D02*
X115027500Y-119400000D01*
X114956700Y-119329200D02*
X114956700Y-117315200D01*
D43*
X104411600Y-112983400D02*
X104362700Y-112983400D01*
D45*
X115220555Y-123621763D02*
X114326007Y-124516311D01*
X115027500Y-119400000D02*
X114956700Y-119329200D01*
X115220555Y-122968067D02*
X115220555Y-123621763D01*
X115220555Y-122968067D02*
X115220555Y-123182158D01*
D43*
X104362700Y-112983400D02*
X103499100Y-113847000D01*
D45*
X115220555Y-123182158D02*
X116332127Y-124293730D01*
X114956700Y-119329200D02*
X114956700Y-122704212D01*
D43*
X112623947Y-112537800D02*
X112623947Y-113272947D01*
X112642400Y-113291400D02*
X112642400Y-113690400D01*
D45*
X114956700Y-122704212D02*
X115220555Y-122968067D01*
D43*
X112623947Y-113272947D02*
X112642400Y-113291400D01*
D45*
X114927200Y-117285700D02*
X116205000Y-117285700D01*
D43*
X106070400Y-113100700D02*
X105324100Y-113847000D01*
X106070400Y-113030000D02*
X106070400Y-113100700D01*
X125275400Y-93215400D02*
X125247400Y-93243400D01*
X126281800Y-93215400D02*
X125275400Y-93215400D01*
X126259000Y-94462600D02*
X126281800Y-94485400D01*
X125272800Y-94462600D02*
X126259000Y-94462600D01*
X59900000Y-103475000D02*
X59625000Y-103475000D01*
D46*
X61600000Y-108100000D02*
X60900000Y-108800000D01*
D47*
X61600000Y-103475000D02*
X61600000Y-108100000D01*
D43*
X113789099Y-116015700D02*
X114927200Y-116015700D01*
X113394799Y-115621400D02*
X113789099Y-116015700D01*
X104755400Y-117510531D02*
X106115001Y-118870132D01*
X107527600Y-116764400D02*
X107527600Y-115621400D01*
X104755400Y-116730000D02*
X104755400Y-117510531D01*
X112642400Y-115622600D02*
X112641200Y-115621400D01*
X105864000Y-115621400D02*
X104755400Y-116730000D01*
X107527600Y-115621400D02*
X107527000Y-115620800D01*
X112641200Y-115621400D02*
X113394799Y-115621400D01*
X112641200Y-115621400D02*
X105864000Y-115621400D01*
X106115001Y-121465001D02*
X106910000Y-122260000D01*
X112642400Y-116890800D02*
X112642400Y-115622600D01*
X106115001Y-118870132D02*
X106115001Y-121465001D01*
X119877200Y-114745700D02*
X118902201Y-114745700D01*
X121981800Y-107695400D02*
X120076200Y-109601000D01*
X119877200Y-115091252D02*
X119877200Y-116015700D01*
X121976800Y-107535400D02*
X121976800Y-106755400D01*
X121976800Y-107651200D02*
X121976800Y-106755400D01*
X118902201Y-114745700D02*
X118602200Y-114445699D01*
X118602200Y-110591400D02*
X119592600Y-109601000D01*
X121981800Y-107165400D02*
X121981800Y-107695400D01*
X120076200Y-109601000D02*
X119592600Y-109601000D01*
X118602200Y-114445699D02*
X118602200Y-110591400D01*
X123515650Y-122287600D02*
X122923650Y-121695600D01*
X102428500Y-118774600D02*
X103469900Y-118774600D01*
X123515650Y-122425500D02*
X123515650Y-122287600D01*
X102428500Y-117136300D02*
X103469900Y-117136300D01*
X125505650Y-122287600D02*
X124913650Y-121695600D01*
X125505650Y-122425500D02*
X125505650Y-122287600D01*
X127495650Y-122287600D02*
X126903650Y-121695600D01*
X102428500Y-115498000D02*
X103483800Y-115498000D01*
X103483800Y-115498000D02*
X103505000Y-115519200D01*
X127495650Y-122425500D02*
X127495650Y-122287600D01*
X113394799Y-115171400D02*
X105677600Y-115171400D01*
X104305400Y-117696931D02*
X105664999Y-119056530D01*
X110642400Y-113690400D02*
X110642400Y-115171400D01*
X105677600Y-115171400D02*
X104305400Y-116543600D01*
X114927200Y-114745700D02*
X113820499Y-114745700D01*
X113820499Y-114745700D02*
X113394799Y-115171400D01*
X105664999Y-121465001D02*
X104870000Y-122260000D01*
X105664999Y-119056530D02*
X105664999Y-121465001D01*
X104305400Y-116543600D02*
X104305400Y-117696931D01*
X107527600Y-113664400D02*
X107527600Y-115171400D01*
X124206000Y-109194600D02*
X124206000Y-103651200D01*
X119877200Y-113475700D02*
X119924900Y-113475700D01*
X119924900Y-113475700D02*
X124206000Y-109194600D01*
X124206000Y-103651200D02*
X125751800Y-102105400D01*
X125751800Y-102105400D02*
X126281800Y-102105400D01*
X126811800Y-103215400D02*
X126031800Y-103215400D01*
X127812800Y-104216400D02*
X126811800Y-103215400D01*
X127812800Y-114207900D02*
X127812800Y-104216400D01*
X119877200Y-117285700D02*
X124735000Y-117285700D01*
X124735000Y-117285700D02*
X127812800Y-114207900D01*
X101138020Y-118240080D02*
X100603500Y-118774600D01*
X101444520Y-118240080D02*
X101138020Y-118240080D01*
X111906000Y-102000000D02*
X110998000Y-101092000D01*
X101498400Y-118186200D02*
X101444520Y-118240080D01*
X109038400Y-101092000D02*
X108781800Y-100835400D01*
X110998000Y-101092000D02*
X109038400Y-101092000D01*
X112100000Y-102000000D02*
X111906000Y-102000000D01*
X100634800Y-115466700D02*
X100603500Y-115498000D01*
X110015819Y-104069992D02*
X109321227Y-103375400D01*
X100634800Y-114477800D02*
X100634800Y-115466700D01*
X109321227Y-103375400D02*
X108781800Y-103375400D01*
X108766400Y-99550000D02*
X108781800Y-99565400D01*
X107000000Y-99550000D02*
X108766400Y-99550000D01*
X101482600Y-116306600D02*
X101433200Y-116306600D01*
X110092200Y-102105400D02*
X108781800Y-102105400D01*
X111000000Y-103000000D02*
X110986800Y-103000000D01*
X101433200Y-116306600D02*
X100603500Y-117136300D01*
X110986800Y-103000000D02*
X110092200Y-102105400D01*
X108627200Y-98450000D02*
X108781800Y-98295400D01*
X107000000Y-98450000D02*
X108627200Y-98450000D01*
X106629200Y-107229400D02*
X106629200Y-105205000D01*
X104551000Y-105359200D02*
X104551000Y-107151200D01*
X104551000Y-107151200D02*
X106629200Y-109229400D01*
X88699000Y-101611000D02*
X91688000Y-104600000D01*
X88699000Y-97011000D02*
X88699000Y-101611000D01*
X89850000Y-95860000D02*
X88699000Y-97011000D01*
X91688000Y-104600000D02*
X100800000Y-104600000D01*
X108354600Y-91945400D02*
X105762500Y-94537500D01*
X108781800Y-91945400D02*
X108354600Y-91945400D01*
X105762500Y-94537500D02*
X105762500Y-94800000D01*
G04 #@! TA.AperFunction,Conductor*
G36*
X78500000Y-91800108D02*
G01*
X70230214Y-91791264D01*
X69200000Y-92826051D01*
X69200000Y-99153005D01*
X67758018Y-100595589D01*
X57200000Y-100600000D01*
X57115672Y-100695395D01*
X57016549Y-100706052D01*
X57016537Y-100706054D01*
X56965027Y-100717260D01*
X56862502Y-100751383D01*
X56862496Y-100751386D01*
X56741462Y-100829171D01*
X56741451Y-100829179D01*
X56688659Y-100874923D01*
X56594433Y-100983664D01*
X56594430Y-100983668D01*
X56534664Y-101114534D01*
X56514976Y-101181582D01*
X56494500Y-101324001D01*
X56494500Y-101398096D01*
X56200000Y-101731250D01*
X56200000Y-109225000D01*
X54328700Y-111096300D01*
X52860400Y-111096300D01*
X52860400Y-111099143D01*
X51539600Y-111098371D01*
X51539600Y-111096300D01*
X47996300Y-111096300D01*
X47996300Y-119503700D01*
X49600000Y-119503700D01*
X49600000Y-124100000D01*
X49600000Y-126699500D01*
X49568872Y-126699500D01*
X49337772Y-126729926D01*
X49308884Y-126733730D01*
X49192093Y-126765024D01*
X49055581Y-126801602D01*
X49055571Y-126801605D01*
X48813309Y-126901953D01*
X48813299Y-126901958D01*
X48586196Y-127033075D01*
X48378148Y-127192718D01*
X48192718Y-127378148D01*
X48033075Y-127586196D01*
X47901958Y-127813299D01*
X47901953Y-127813309D01*
X47801605Y-128055571D01*
X47801602Y-128055581D01*
X47733730Y-128308885D01*
X47699500Y-128568872D01*
X47699500Y-128831127D01*
X47720436Y-128990140D01*
X47733730Y-129091116D01*
X47755178Y-129171161D01*
X47801602Y-129344418D01*
X47801605Y-129344428D01*
X47901953Y-129586690D01*
X47901958Y-129586700D01*
X48033075Y-129813803D01*
X48192718Y-130021851D01*
X48192726Y-130021860D01*
X48378140Y-130207274D01*
X48378148Y-130207281D01*
X48586196Y-130366924D01*
X48813299Y-130498041D01*
X48813309Y-130498046D01*
X49055571Y-130598394D01*
X49055581Y-130598398D01*
X49308884Y-130666270D01*
X49568880Y-130700500D01*
X49568887Y-130700500D01*
X49831113Y-130700500D01*
X49831120Y-130700500D01*
X50091116Y-130666270D01*
X50344419Y-130598398D01*
X50586697Y-130498043D01*
X50813803Y-130366924D01*
X51021851Y-130207282D01*
X51021855Y-130207277D01*
X51021860Y-130207274D01*
X51207274Y-130021860D01*
X51207277Y-130021855D01*
X51207282Y-130021851D01*
X51366924Y-129813803D01*
X51498043Y-129586697D01*
X51598398Y-129344419D01*
X51666270Y-129091116D01*
X51700500Y-128831120D01*
X51700500Y-128568880D01*
X51700499Y-128568872D01*
X125299500Y-128568872D01*
X125299500Y-128831127D01*
X125320436Y-128990140D01*
X125333730Y-129091116D01*
X125355178Y-129171161D01*
X125401602Y-129344418D01*
X125401605Y-129344428D01*
X125501953Y-129586690D01*
X125501958Y-129586700D01*
X125633075Y-129813803D01*
X125792718Y-130021851D01*
X125792726Y-130021860D01*
X125978140Y-130207274D01*
X125978148Y-130207281D01*
X126186196Y-130366924D01*
X126413299Y-130498041D01*
X126413309Y-130498046D01*
X126655571Y-130598394D01*
X126655581Y-130598398D01*
X126908884Y-130666270D01*
X127168880Y-130700500D01*
X127168887Y-130700500D01*
X127431113Y-130700500D01*
X127431120Y-130700500D01*
X127691116Y-130666270D01*
X127944419Y-130598398D01*
X128186697Y-130498043D01*
X128413803Y-130366924D01*
X128621851Y-130207282D01*
X128621855Y-130207277D01*
X128621860Y-130207274D01*
X128807274Y-130021860D01*
X128807277Y-130021855D01*
X128807282Y-130021851D01*
X128966924Y-129813803D01*
X129098043Y-129586697D01*
X129198398Y-129344419D01*
X129266270Y-129091116D01*
X129300500Y-128831120D01*
X129300500Y-128568880D01*
X129266270Y-128308884D01*
X129198398Y-128055581D01*
X129100204Y-127818520D01*
X129098046Y-127813309D01*
X129098041Y-127813299D01*
X128966924Y-127586196D01*
X128807281Y-127378148D01*
X128807274Y-127378140D01*
X128621860Y-127192726D01*
X128621851Y-127192718D01*
X128413803Y-127033075D01*
X128186700Y-126901958D01*
X128186690Y-126901953D01*
X127944428Y-126801605D01*
X127944421Y-126801603D01*
X127944419Y-126801602D01*
X127691116Y-126733730D01*
X127633339Y-126726123D01*
X127431127Y-126699500D01*
X127431120Y-126699500D01*
X127168880Y-126699500D01*
X127168872Y-126699500D01*
X126937772Y-126729926D01*
X126908884Y-126733730D01*
X126792093Y-126765024D01*
X126655581Y-126801602D01*
X126655571Y-126801605D01*
X126413309Y-126901953D01*
X126413299Y-126901958D01*
X126186196Y-127033075D01*
X125978148Y-127192718D01*
X125792718Y-127378148D01*
X125633075Y-127586196D01*
X125501958Y-127813299D01*
X125501953Y-127813309D01*
X125401605Y-128055571D01*
X125401602Y-128055581D01*
X125333730Y-128308885D01*
X125299500Y-128568872D01*
X51700499Y-128568872D01*
X51666270Y-128308884D01*
X51598398Y-128055581D01*
X51500204Y-127818520D01*
X51498046Y-127813309D01*
X51498041Y-127813299D01*
X51366924Y-127586196D01*
X51224049Y-127400000D01*
X82700000Y-127400000D01*
X85300000Y-125700000D01*
X89600000Y-125700000D01*
X100094849Y-125700000D01*
X100065023Y-125704724D01*
X99850874Y-125774305D01*
X99650254Y-125876527D01*
X99468089Y-126008878D01*
X99308878Y-126168089D01*
X99176527Y-126350254D01*
X99074305Y-126550874D01*
X99004723Y-126765023D01*
X98969500Y-126987417D01*
X98969500Y-127212582D01*
X99004723Y-127434976D01*
X99074305Y-127649125D01*
X99157957Y-127813299D01*
X99176527Y-127849745D01*
X99308876Y-128031908D01*
X99468092Y-128191124D01*
X99650255Y-128323473D01*
X99745041Y-128371769D01*
X99850874Y-128425694D01*
X99850876Y-128425694D01*
X99850879Y-128425696D01*
X99965666Y-128462992D01*
X100065023Y-128495276D01*
X100176220Y-128512888D01*
X100287417Y-128530500D01*
X100287418Y-128530500D01*
X100512582Y-128530500D01*
X100512583Y-128530500D01*
X100734976Y-128495276D01*
X100949121Y-128425696D01*
X101149745Y-128323473D01*
X101331908Y-128191124D01*
X101491124Y-128031908D01*
X101623473Y-127849745D01*
X101725696Y-127649121D01*
X101795276Y-127434976D01*
X101830500Y-127212583D01*
X101830500Y-126987417D01*
X101795276Y-126765023D01*
X101725694Y-126550874D01*
X101621261Y-126345914D01*
X101622815Y-126345122D01*
X101606529Y-126284950D01*
X101627635Y-126218344D01*
X101681401Y-126173723D01*
X101750755Y-126165253D01*
X101765433Y-126168610D01*
X101821327Y-126185023D01*
X101821331Y-126185024D01*
X101963747Y-126205500D01*
X101963750Y-126205500D01*
X104204198Y-126205500D01*
X104214344Y-126204955D01*
X104258236Y-126202603D01*
X104258244Y-126202602D01*
X104258246Y-126202602D01*
X104258247Y-126202602D01*
X104265240Y-126201849D01*
X104284594Y-126199769D01*
X104284604Y-126199767D01*
X104284607Y-126199767D01*
X104294206Y-126198211D01*
X104338006Y-126191114D01*
X104472815Y-126140832D01*
X104534138Y-126107347D01*
X104649319Y-126021123D01*
X104941461Y-125728980D01*
X104994535Y-125700000D01*
X105065732Y-125700000D01*
X105072472Y-125700482D01*
X105102025Y-125716346D01*
X105105319Y-125718739D01*
X105105321Y-125718741D01*
X105258704Y-125830181D01*
X105321294Y-125862072D01*
X105427627Y-125916252D01*
X105427629Y-125916252D01*
X105427632Y-125916254D01*
X105607945Y-125974842D01*
X105701574Y-125989671D01*
X105795200Y-126004500D01*
X105795204Y-126004500D01*
X105984800Y-126004500D01*
X106068022Y-125991318D01*
X106172055Y-125974842D01*
X106352368Y-125916254D01*
X106521296Y-125830181D01*
X106674679Y-125718741D01*
X106693420Y-125700000D01*
X107126580Y-125700000D01*
X107145321Y-125718741D01*
X107298704Y-125830181D01*
X107361294Y-125862072D01*
X107467627Y-125916252D01*
X107467629Y-125916252D01*
X107467632Y-125916254D01*
X107647945Y-125974842D01*
X107741574Y-125989671D01*
X107835200Y-126004500D01*
X107835204Y-126004500D01*
X108024800Y-126004500D01*
X108108022Y-125991318D01*
X108212055Y-125974842D01*
X108392368Y-125916254D01*
X108561296Y-125830181D01*
X108700000Y-125729405D01*
X108700000Y-127700000D01*
X111100227Y-127700000D01*
X111157957Y-127813299D01*
X111176527Y-127849745D01*
X111308876Y-128031908D01*
X111468092Y-128191124D01*
X111650255Y-128323473D01*
X111745041Y-128371769D01*
X111850874Y-128425694D01*
X111850876Y-128425694D01*
X111850879Y-128425696D01*
X111965666Y-128462992D01*
X112065023Y-128495276D01*
X112176220Y-128512888D01*
X112287417Y-128530500D01*
X112287418Y-128530500D01*
X112512582Y-128530500D01*
X112512583Y-128530500D01*
X112734976Y-128495276D01*
X112949121Y-128425696D01*
X113149745Y-128323473D01*
X113331908Y-128191124D01*
X113491124Y-128031908D01*
X113623473Y-127849745D01*
X113725696Y-127649121D01*
X113795276Y-127434976D01*
X113830500Y-127212583D01*
X113830500Y-126987417D01*
X113795276Y-126765023D01*
X113725694Y-126550874D01*
X113623472Y-126350254D01*
X113620319Y-126345914D01*
X113491124Y-126168092D01*
X113331908Y-126008876D01*
X113149745Y-125876527D01*
X113100000Y-125851180D01*
X113100000Y-125700000D01*
X131999500Y-125700000D01*
X131999500Y-131196249D01*
X131999274Y-131203736D01*
X131981728Y-131493794D01*
X131979923Y-131508659D01*
X131935107Y-131753211D01*
X131925335Y-131783658D01*
X131499833Y-132687848D01*
X131485247Y-132711521D01*
X131375530Y-132851567D01*
X131365600Y-132862777D01*
X131268004Y-132960372D01*
X131236580Y-132983194D01*
X130051510Y-133586504D01*
X129995253Y-133600000D01*
X50313135Y-133600000D01*
X50287153Y-133597247D01*
X46180046Y-132717152D01*
X46118620Y-132683858D01*
X46084944Y-132622639D01*
X46084334Y-132619704D01*
X45402795Y-129126381D01*
X45400500Y-129102637D01*
X45400500Y-92568872D01*
X47699500Y-92568872D01*
X47699500Y-92831127D01*
X47718974Y-92979036D01*
X47733730Y-93091116D01*
X47795660Y-93322242D01*
X47801602Y-93344418D01*
X47801605Y-93344428D01*
X47901953Y-93586690D01*
X47901958Y-93586700D01*
X48033075Y-93813803D01*
X48192718Y-94021851D01*
X48192726Y-94021860D01*
X48378140Y-94207274D01*
X48378148Y-94207281D01*
X48378149Y-94207282D01*
X48426554Y-94244424D01*
X48586196Y-94366924D01*
X48813299Y-94498041D01*
X48813309Y-94498046D01*
X49055571Y-94598394D01*
X49055581Y-94598398D01*
X49308884Y-94666270D01*
X49568880Y-94700500D01*
X49568887Y-94700500D01*
X49831113Y-94700500D01*
X49831120Y-94700500D01*
X50091116Y-94666270D01*
X50344419Y-94598398D01*
X50586697Y-94498043D01*
X50813803Y-94366924D01*
X51021851Y-94207282D01*
X51021855Y-94207277D01*
X51021860Y-94207274D01*
X51207274Y-94021860D01*
X51207277Y-94021855D01*
X51207282Y-94021851D01*
X51366924Y-93813803D01*
X51498043Y-93586697D01*
X51598398Y-93344419D01*
X51666270Y-93091116D01*
X51700500Y-92831120D01*
X51700500Y-92568880D01*
X51666270Y-92308884D01*
X51598398Y-92055581D01*
X51500204Y-91818520D01*
X51498046Y-91813309D01*
X51498041Y-91813299D01*
X51366924Y-91586196D01*
X51207281Y-91378148D01*
X51207274Y-91378140D01*
X51021860Y-91192726D01*
X51021851Y-91192718D01*
X50813803Y-91033075D01*
X50586700Y-90901958D01*
X50586690Y-90901953D01*
X50344428Y-90801605D01*
X50344421Y-90801603D01*
X50344419Y-90801602D01*
X50091116Y-90733730D01*
X50033339Y-90726123D01*
X49831127Y-90699500D01*
X49831120Y-90699500D01*
X49568880Y-90699500D01*
X49568872Y-90699500D01*
X49341294Y-90729463D01*
X49308884Y-90733730D01*
X49055581Y-90801602D01*
X49055571Y-90801605D01*
X48813309Y-90901953D01*
X48813299Y-90901958D01*
X48586196Y-91033075D01*
X48378148Y-91192718D01*
X48192718Y-91378148D01*
X48033075Y-91586196D01*
X47901958Y-91813299D01*
X47901953Y-91813309D01*
X47801605Y-92055571D01*
X47801602Y-92055581D01*
X47733730Y-92308885D01*
X47699500Y-92568872D01*
X45400500Y-92568872D01*
X45400500Y-90655195D01*
X45411962Y-90603126D01*
X46181338Y-88940330D01*
X46227353Y-88887757D01*
X46240021Y-88880708D01*
X48040587Y-88012798D01*
X48094429Y-88000500D01*
X78500000Y-88000500D01*
X78500000Y-91800108D01*
G37*
G04 #@! TD.AperFunction*
G04 #@! TA.AperFunction,Conductor*
G36*
X62143039Y-101219685D02*
G01*
X62188794Y-101272489D01*
X62200000Y-101324000D01*
X62200000Y-106699998D01*
X64360000Y-109500000D01*
X64874287Y-110166668D01*
X64899649Y-110231772D01*
X64900106Y-110242095D01*
X64902211Y-111075687D01*
X64882695Y-111142776D01*
X64830007Y-111188664D01*
X64778211Y-111200000D01*
X62599985Y-111200000D01*
X62495044Y-111202998D01*
X62495008Y-111202999D01*
X62391012Y-111210999D01*
X62391010Y-111210999D01*
X62391000Y-111211000D01*
X62390978Y-111211002D01*
X62390969Y-111211004D01*
X62287007Y-111224999D01*
X62287000Y-111225000D01*
X62232794Y-111234999D01*
X62184004Y-111243999D01*
X62184001Y-111243999D01*
X62082015Y-111267996D01*
X62082000Y-111268000D01*
X61981994Y-111298001D01*
X61888079Y-111331204D01*
X61883000Y-111333000D01*
X61787000Y-111373000D01*
X61786998Y-111373001D01*
X61692003Y-111417998D01*
X61600010Y-111467994D01*
X61510991Y-111523005D01*
X61424012Y-111581991D01*
X61423978Y-111582016D01*
X61341002Y-111645997D01*
X61262000Y-111713999D01*
X61261989Y-111714009D01*
X61185999Y-111785999D01*
X61114009Y-111861989D01*
X61113999Y-111862000D01*
X61045997Y-111941002D01*
X60982016Y-112023978D01*
X60981991Y-112024012D01*
X60923005Y-112110991D01*
X60867994Y-112200010D01*
X60817998Y-112292003D01*
X60773001Y-112386998D01*
X60732999Y-112483003D01*
X60698001Y-112581994D01*
X60668000Y-112682000D01*
X60667996Y-112682015D01*
X60643999Y-112784001D01*
X60643999Y-112784004D01*
X60624999Y-112887007D01*
X60611004Y-112990969D01*
X60610999Y-112991012D01*
X60602999Y-113095008D01*
X60602998Y-113095044D01*
X60600000Y-113199984D01*
X60600000Y-113200000D01*
X60600000Y-114300000D01*
X63176000Y-114300000D01*
X63243039Y-114319685D01*
X63288794Y-114372489D01*
X63300000Y-114424000D01*
X63300000Y-119976000D01*
X63280315Y-120043039D01*
X63227511Y-120088794D01*
X63176000Y-120100000D01*
X60224000Y-120100000D01*
X60156961Y-120080315D01*
X60111206Y-120027511D01*
X60100000Y-119976000D01*
X60100000Y-108038734D01*
X60119685Y-107971695D01*
X60122031Y-107968176D01*
X61000000Y-106700000D01*
X61000000Y-101324000D01*
X61019685Y-101256961D01*
X61072489Y-101211206D01*
X61124000Y-101200000D01*
X62076000Y-101200000D01*
X62143039Y-101219685D01*
G37*
G04 #@! TD.AperFunction*
G04 #@! TA.AperFunction,Conductor*
G36*
X65443039Y-101419685D02*
G01*
X65488794Y-101472489D01*
X65500000Y-101524000D01*
X65500000Y-105825000D01*
X66774999Y-107100000D01*
X66774999Y-107099999D01*
X66775000Y-107100000D01*
X70096671Y-107073532D01*
X70600654Y-106722270D01*
X70666908Y-106700087D01*
X70671556Y-106700000D01*
X74300000Y-106700000D01*
X75063681Y-105936319D01*
X75125004Y-105902834D01*
X75151362Y-105900000D01*
X87977300Y-105900000D01*
X88044339Y-105919685D01*
X88064981Y-105936319D01*
X89163681Y-107035019D01*
X89197166Y-107096342D01*
X89200000Y-107122700D01*
X89200000Y-110520984D01*
X89180315Y-110588023D01*
X89147358Y-110622394D01*
X75740035Y-120056617D01*
X75673881Y-120079098D01*
X75669124Y-120079206D01*
X70025086Y-120099549D01*
X69957976Y-120080106D01*
X69912031Y-120027468D01*
X69900641Y-119974914D01*
X69929111Y-114423364D01*
X69949139Y-114356426D01*
X70002177Y-114310943D01*
X70053109Y-114300000D01*
X72600000Y-114300000D01*
X72600000Y-113199984D01*
X72597001Y-113095044D01*
X72597000Y-113095008D01*
X72597000Y-113095000D01*
X72589000Y-112991000D01*
X72575000Y-112887000D01*
X72556000Y-112784000D01*
X72532000Y-112682000D01*
X72502000Y-112582000D01*
X72467000Y-112483000D01*
X72427000Y-112387000D01*
X72382000Y-112292000D01*
X72332000Y-112200000D01*
X72277000Y-112111000D01*
X72218000Y-112024000D01*
X72154000Y-111941000D01*
X72086000Y-111862000D01*
X72085990Y-111861989D01*
X72014000Y-111785999D01*
X71938010Y-111714009D01*
X71937999Y-111713999D01*
X71858997Y-111645997D01*
X71776021Y-111582016D01*
X71776015Y-111582012D01*
X71776000Y-111582000D01*
X71775987Y-111581991D01*
X71689008Y-111523005D01*
X71686019Y-111521158D01*
X71600000Y-111468000D01*
X71508000Y-111418000D01*
X71413000Y-111373000D01*
X71317000Y-111333000D01*
X71282306Y-111320734D01*
X71218005Y-111298001D01*
X71155501Y-111279250D01*
X71118000Y-111268000D01*
X71117991Y-111267998D01*
X71117984Y-111267996D01*
X71015996Y-111243999D01*
X70979402Y-111237249D01*
X70913000Y-111225000D01*
X70809000Y-111211000D01*
X70808987Y-111210999D01*
X70704991Y-111202999D01*
X70704955Y-111202998D01*
X70600015Y-111200000D01*
X70600000Y-111200000D01*
X70070278Y-111200000D01*
X70003239Y-111180315D01*
X69957484Y-111127511D01*
X69946280Y-111075364D01*
X69950000Y-110350001D01*
X69949999Y-110350000D01*
X69950000Y-110350000D01*
X69425000Y-109600000D01*
X66251362Y-109600000D01*
X66184323Y-109580315D01*
X66163681Y-109563681D01*
X64536319Y-107936319D01*
X64502834Y-107874996D01*
X64500000Y-107848638D01*
X64500000Y-101524000D01*
X64519685Y-101456961D01*
X64572489Y-101411206D01*
X64624000Y-101400000D01*
X65376000Y-101400000D01*
X65443039Y-101419685D01*
G37*
G04 #@! TD.AperFunction*
G04 #@! TA.AperFunction,Conductor*
G36*
X52817939Y-119503700D02*
G01*
X52860400Y-119503700D01*
X56430818Y-119503700D01*
X56432404Y-119502834D01*
X56458762Y-119500000D01*
X59176000Y-119500000D01*
X59243039Y-119519685D01*
X59288794Y-119572489D01*
X59300000Y-119624000D01*
X59300000Y-124100000D01*
X77200000Y-124200000D01*
X82567896Y-120422592D01*
X82634049Y-120400109D01*
X82639257Y-120400000D01*
X85762503Y-120400000D01*
X85829542Y-120419685D01*
X85831212Y-120420777D01*
X87439213Y-121491182D01*
X87484110Y-121544715D01*
X87494500Y-121594402D01*
X87494500Y-123425947D01*
X87495274Y-123432032D01*
X87484196Y-123501018D01*
X87438705Y-123552358D01*
X85000001Y-125099998D01*
X84999999Y-125099999D01*
X82673721Y-126776596D01*
X82607826Y-126799824D01*
X82601220Y-126800000D01*
X53527216Y-126800000D01*
X53460177Y-126780315D01*
X53436565Y-126760607D01*
X50133349Y-123221447D01*
X50101997Y-123159007D01*
X50100000Y-123136840D01*
X50100000Y-119627700D01*
X50119685Y-119560661D01*
X50172489Y-119514906D01*
X50224000Y-119503700D01*
X51566718Y-119503700D01*
X51568304Y-119502834D01*
X51594662Y-119500000D01*
X52805338Y-119500000D01*
X52817939Y-119503700D01*
G37*
G04 #@! TD.AperFunction*
G04 #@! TA.AperFunction,Conductor*
G36*
X113100000Y-125851180D02*
G01*
X112949125Y-125774305D01*
X112734976Y-125704723D01*
X112542989Y-125674316D01*
X112512583Y-125669500D01*
X112287417Y-125669500D01*
X112260667Y-125673736D01*
X112065023Y-125704723D01*
X111850874Y-125774305D01*
X111650254Y-125876527D01*
X111468089Y-126008878D01*
X111308878Y-126168089D01*
X111176527Y-126350254D01*
X111074305Y-126550874D01*
X111004723Y-126765023D01*
X110969500Y-126987417D01*
X110969500Y-127212582D01*
X111004723Y-127434976D01*
X111074305Y-127649125D01*
X111100228Y-127700000D01*
X108700000Y-127700000D01*
X108700000Y-125275669D01*
X108731557Y-125228441D01*
X108799740Y-125063833D01*
X108834500Y-124889085D01*
X108834500Y-124710915D01*
X108834500Y-124710912D01*
X108799741Y-124536172D01*
X108799740Y-124536171D01*
X108799740Y-124536167D01*
X108731557Y-124371559D01*
X108700000Y-124324330D01*
X108700000Y-123439412D01*
X108855238Y-123464000D01*
X109044762Y-123464000D01*
X109231937Y-123434354D01*
X109412182Y-123375788D01*
X109412184Y-123375787D01*
X109581027Y-123289756D01*
X109581043Y-123289746D01*
X109607192Y-123270746D01*
X109607193Y-123270745D01*
X109038585Y-122702137D01*
X109123694Y-122679333D01*
X109226306Y-122620090D01*
X109310090Y-122536306D01*
X109369333Y-122433694D01*
X109392137Y-122348585D01*
X109960745Y-122917193D01*
X109960746Y-122917192D01*
X109979746Y-122891043D01*
X109979756Y-122891027D01*
X110065787Y-122722184D01*
X110065788Y-122722182D01*
X110124354Y-122541937D01*
X110154000Y-122354762D01*
X110154000Y-122165237D01*
X110124354Y-121978062D01*
X110065789Y-121797821D01*
X109979752Y-121628966D01*
X109960745Y-121602806D01*
X109392137Y-122171414D01*
X109369333Y-122086306D01*
X109310090Y-121983694D01*
X109226306Y-121899910D01*
X109123694Y-121840667D01*
X109038584Y-121817861D01*
X109607193Y-121249253D01*
X109581032Y-121230246D01*
X109521672Y-121200000D01*
X113100000Y-121200000D01*
X113100000Y-125851180D01*
G37*
G04 #@! TD.AperFunction*
G04 #@! TA.AperFunction,Conductor*
G36*
X60443039Y-101219685D02*
G01*
X60488794Y-101272489D01*
X60500000Y-101324000D01*
X60500000Y-105976000D01*
X60480315Y-106043039D01*
X60427511Y-106088794D01*
X60376000Y-106100000D01*
X57124000Y-106100000D01*
X57056961Y-106080315D01*
X57011206Y-106027511D01*
X57000000Y-105976000D01*
X57000000Y-101324000D01*
X57019685Y-101256961D01*
X57072489Y-101211206D01*
X57124000Y-101200000D01*
X60376000Y-101200000D01*
X60443039Y-101219685D01*
G37*
G04 #@! TD.AperFunction*
G04 #@! TA.AperFunction,Conductor*
G36*
X100838770Y-120919685D02*
G01*
X100847858Y-120926118D01*
X101297064Y-121275501D01*
X104652129Y-123884996D01*
X104692961Y-123941693D01*
X104700000Y-123982876D01*
X104700000Y-124603894D01*
X104698473Y-124623292D01*
X104685500Y-124705199D01*
X104685500Y-124894800D01*
X104698473Y-124976706D01*
X104700000Y-124996104D01*
X104700000Y-125204196D01*
X104680315Y-125271235D01*
X104663681Y-125291877D01*
X104291877Y-125663681D01*
X104230554Y-125697166D01*
X104204196Y-125700000D01*
X101963747Y-125700000D01*
X101896708Y-125680315D01*
X101893357Y-125678085D01*
X100764916Y-124900000D01*
X90631261Y-124900000D01*
X90572473Y-124885178D01*
X90238226Y-124705199D01*
X88065212Y-123535114D01*
X88015518Y-123485999D01*
X88000000Y-123425936D01*
X88000000Y-121388295D01*
X88019685Y-121321256D01*
X88072489Y-121275501D01*
X88083426Y-121271121D01*
X89135848Y-120906822D01*
X89176410Y-120900000D01*
X100771731Y-120900000D01*
X100838770Y-120919685D01*
G37*
G04 #@! TD.AperFunction*
G04 #@! TA.AperFunction,Conductor*
G36*
X49604638Y-123249371D02*
G01*
X49650246Y-123385835D01*
X49650247Y-123385838D01*
X49681336Y-123447753D01*
X49681599Y-123448277D01*
X49759230Y-123559793D01*
X49763804Y-123566363D01*
X53067011Y-127105514D01*
X53109276Y-127145499D01*
X53112648Y-127148689D01*
X53136260Y-127168397D01*
X53186880Y-127205567D01*
X53317757Y-127265338D01*
X53384796Y-127285023D01*
X53384800Y-127285024D01*
X53527216Y-127305500D01*
X53527219Y-127305500D01*
X82601222Y-127305500D01*
X82601580Y-127305495D01*
X82614683Y-127305321D01*
X82621289Y-127305145D01*
X82634757Y-127304606D01*
X82775880Y-127276572D01*
X82841775Y-127253344D01*
X82969282Y-127186686D01*
X85280517Y-125520929D01*
X85286535Y-125516856D01*
X87700628Y-123984836D01*
X87767778Y-123965536D01*
X87825857Y-123980356D01*
X90332812Y-125330255D01*
X90332813Y-125330256D01*
X90440816Y-125372202D01*
X90448891Y-125375339D01*
X90507679Y-125390161D01*
X90631261Y-125405500D01*
X95759451Y-125405500D01*
X95826490Y-125425185D01*
X95872245Y-125477989D01*
X95882189Y-125547147D01*
X95853164Y-125610703D01*
X95794386Y-125648477D01*
X95772053Y-125652858D01*
X95697302Y-125660494D01*
X95578081Y-125700000D01*
X89600000Y-125700000D01*
X85300000Y-125700000D01*
X82700000Y-127400000D01*
X51224049Y-127400000D01*
X51207281Y-127378148D01*
X51207274Y-127378140D01*
X51021860Y-127192726D01*
X51021851Y-127192718D01*
X50813803Y-127033075D01*
X50586700Y-126901958D01*
X50586690Y-126901953D01*
X50344428Y-126801605D01*
X50344421Y-126801603D01*
X50344419Y-126801602D01*
X50091116Y-126733730D01*
X50033339Y-126726123D01*
X49831127Y-126699500D01*
X49831120Y-126699500D01*
X49600000Y-126699500D01*
X49600000Y-124100000D01*
X49600000Y-123215167D01*
X49604638Y-123249371D01*
G37*
G04 #@! TD.AperFunction*
G04 #@! TA.AperFunction,Conductor*
G36*
X100635965Y-125425185D02*
G01*
X100639312Y-125427412D01*
X100644944Y-125431296D01*
X100683332Y-125457765D01*
X100727349Y-125512026D01*
X100735042Y-125581471D01*
X100703970Y-125644051D01*
X100643997Y-125679898D01*
X100593544Y-125682323D01*
X100560073Y-125677021D01*
X100512583Y-125669500D01*
X100287417Y-125669500D01*
X100260667Y-125673736D01*
X100094843Y-125700000D01*
X97421918Y-125700000D01*
X97302697Y-125660494D01*
X97302690Y-125660493D01*
X97227955Y-125652858D01*
X97163263Y-125626462D01*
X97123112Y-125569281D01*
X97120249Y-125499470D01*
X97155583Y-125439193D01*
X97217896Y-125407588D01*
X97240558Y-125405500D01*
X100568926Y-125405500D01*
X100635965Y-125425185D01*
G37*
G04 #@! TD.AperFunction*
G04 #@! TA.AperFunction,Conductor*
G36*
X105065732Y-125700000D02*
G01*
X104994535Y-125700000D01*
X105002780Y-125695498D01*
X105065732Y-125700000D01*
G37*
G04 #@! TD.AperFunction*
G04 #@! TA.AperFunction,Conductor*
G36*
X106996413Y-125567337D02*
G01*
X107010319Y-125583385D01*
X107011259Y-125584679D01*
X107126580Y-125700000D01*
X106693420Y-125700000D01*
X106808741Y-125584679D01*
X106809677Y-125583389D01*
X106810158Y-125583018D01*
X106811905Y-125580974D01*
X106812334Y-125581340D01*
X106865003Y-125540720D01*
X106934616Y-125534736D01*
X106996413Y-125567337D01*
G37*
G04 #@! TD.AperFunction*
G04 #@! TA.AperFunction,Conductor*
G36*
X93416485Y-88003050D02*
G01*
X93425447Y-88001762D01*
X93449487Y-88012740D01*
X93474839Y-88020185D01*
X93480766Y-88027025D01*
X93489003Y-88030787D01*
X93503292Y-88053021D01*
X93520594Y-88072989D01*
X93522881Y-88083503D01*
X93526777Y-88089565D01*
X93528592Y-88102192D01*
X93531800Y-88105400D01*
X106750000Y-88105400D01*
X106750000Y-88846451D01*
X106746096Y-88842940D01*
X106746095Y-88842939D01*
X106733528Y-88832803D01*
X106725367Y-88826221D01*
X106725364Y-88826218D01*
X106698930Y-88807148D01*
X106681306Y-88794433D01*
X106681304Y-88794432D01*
X106550432Y-88734663D01*
X106483387Y-88714976D01*
X106435914Y-88708150D01*
X106340970Y-88694500D01*
X105426362Y-88694500D01*
X105426360Y-88694500D01*
X105372311Y-88697397D01*
X105372310Y-88697397D01*
X105345977Y-88700229D01*
X105345950Y-88700232D01*
X105292554Y-88708885D01*
X105292552Y-88708885D01*
X105157747Y-88759166D01*
X105096422Y-88792651D01*
X104981240Y-88878876D01*
X104981228Y-88878886D01*
X104835569Y-89024546D01*
X104774246Y-89058031D01*
X104704554Y-89053047D01*
X104660207Y-89024546D01*
X104568345Y-88932684D01*
X104419124Y-88840643D01*
X104419119Y-88840641D01*
X104252697Y-88785494D01*
X104252690Y-88785493D01*
X104149986Y-88775000D01*
X104012500Y-88775000D01*
X104012500Y-91224999D01*
X104070500Y-91224999D01*
X104137539Y-91244684D01*
X104183294Y-91297488D01*
X104194500Y-91348999D01*
X104194500Y-92898640D01*
X104197397Y-92952688D01*
X104197397Y-92952689D01*
X104200229Y-92979022D01*
X104200232Y-92979049D01*
X104208885Y-93032445D01*
X104208885Y-93032447D01*
X104230768Y-93091116D01*
X104259168Y-93167257D01*
X104292653Y-93228580D01*
X104378877Y-93343761D01*
X104378881Y-93343765D01*
X104378886Y-93343771D01*
X104672383Y-93637267D01*
X104705868Y-93698590D01*
X104700884Y-93768281D01*
X104690241Y-93790044D01*
X104665190Y-93830659D01*
X104665185Y-93830668D01*
X104648393Y-93881344D01*
X104610001Y-93997203D01*
X104610001Y-93997204D01*
X104610000Y-93997204D01*
X104599500Y-94099983D01*
X104599500Y-95062402D01*
X104579815Y-95129441D01*
X104563181Y-95150083D01*
X103998850Y-95714413D01*
X103937527Y-95747898D01*
X103867835Y-95742914D01*
X103811902Y-95701042D01*
X103787485Y-95635578D01*
X103789311Y-95609481D01*
X103788818Y-95609431D01*
X103799999Y-95499986D01*
X103800000Y-95499973D01*
X103800000Y-95050000D01*
X101475001Y-95050000D01*
X101475001Y-95499986D01*
X101485493Y-95602695D01*
X101513263Y-95686495D01*
X101515665Y-95756324D01*
X101479934Y-95816366D01*
X101417413Y-95847559D01*
X101395557Y-95849500D01*
X101062230Y-95849500D01*
X101032789Y-95840855D01*
X101002803Y-95834332D01*
X100997787Y-95830577D01*
X100995191Y-95829815D01*
X100974549Y-95813181D01*
X100949049Y-95787681D01*
X100915564Y-95726358D01*
X100920548Y-95656666D01*
X100949049Y-95612319D01*
X100958673Y-95602695D01*
X101042712Y-95518656D01*
X101134814Y-95369334D01*
X101189999Y-95202797D01*
X101200500Y-95100009D01*
X101200499Y-94299992D01*
X101191028Y-94207281D01*
X101189999Y-94197203D01*
X101189998Y-94197200D01*
X101169675Y-94135868D01*
X101157794Y-94100013D01*
X101475000Y-94100013D01*
X101475000Y-94550000D01*
X102387500Y-94550000D01*
X102887500Y-94550000D01*
X103799999Y-94550000D01*
X103799999Y-94100028D01*
X103799998Y-94100013D01*
X103789505Y-93997302D01*
X103734358Y-93830880D01*
X103734356Y-93830875D01*
X103642315Y-93681654D01*
X103598342Y-93637681D01*
X103564857Y-93576358D01*
X103569841Y-93506666D01*
X103598342Y-93462319D01*
X103642315Y-93418345D01*
X103734356Y-93269124D01*
X103734358Y-93269119D01*
X103789505Y-93102697D01*
X103789506Y-93102690D01*
X103799999Y-92999986D01*
X103800000Y-92999973D01*
X103800000Y-92550000D01*
X102887500Y-92550000D01*
X102887500Y-94550000D01*
X102387500Y-94550000D01*
X102387500Y-92550000D01*
X101475001Y-92550000D01*
X101475001Y-92999986D01*
X101485494Y-93102697D01*
X101540641Y-93269119D01*
X101540643Y-93269124D01*
X101632684Y-93418345D01*
X101676658Y-93462319D01*
X101710143Y-93523642D01*
X101705159Y-93593334D01*
X101676658Y-93637681D01*
X101632684Y-93681654D01*
X101540643Y-93830875D01*
X101540641Y-93830880D01*
X101485494Y-93997302D01*
X101485493Y-93997309D01*
X101475000Y-94100013D01*
X101157794Y-94100013D01*
X101152293Y-94083414D01*
X101134814Y-94030666D01*
X101042712Y-93881344D01*
X100918656Y-93757288D01*
X100769334Y-93665186D01*
X100602797Y-93610001D01*
X100602795Y-93610000D01*
X100500010Y-93599500D01*
X99499998Y-93599500D01*
X99499980Y-93599501D01*
X99397203Y-93610000D01*
X99397200Y-93610001D01*
X99230668Y-93665185D01*
X99230663Y-93665187D01*
X99081342Y-93757289D01*
X98957289Y-93881342D01*
X98865187Y-94030663D01*
X98865186Y-94030666D01*
X98810001Y-94197203D01*
X98810001Y-94197204D01*
X98810000Y-94197204D01*
X98799500Y-94299983D01*
X98799500Y-94649900D01*
X98790856Y-94679336D01*
X98784333Y-94709326D01*
X98780577Y-94714343D01*
X98779815Y-94716939D01*
X98763182Y-94737581D01*
X98658980Y-94841785D01*
X98637584Y-94863181D01*
X98576261Y-94896666D01*
X98549902Y-94899500D01*
X98521155Y-94899500D01*
X98366510Y-94930261D01*
X98366498Y-94930264D01*
X98220827Y-94990602D01*
X98220814Y-94990609D01*
X98089711Y-95078210D01*
X98089707Y-95078213D01*
X97978213Y-95189707D01*
X97978210Y-95189711D01*
X97890609Y-95320814D01*
X97890602Y-95320827D01*
X97830264Y-95466498D01*
X97830261Y-95466510D01*
X97799500Y-95621153D01*
X97799500Y-95778846D01*
X97830261Y-95933489D01*
X97830264Y-95933501D01*
X97890602Y-96079172D01*
X97890609Y-96079185D01*
X97978210Y-96210288D01*
X97978213Y-96210292D01*
X98085739Y-96317818D01*
X98096342Y-96337236D01*
X98110839Y-96353957D01*
X98112762Y-96367306D01*
X98119224Y-96379141D01*
X98117645Y-96401209D01*
X98120801Y-96423113D01*
X98115201Y-96435381D01*
X98114240Y-96448833D01*
X98100980Y-96466545D01*
X98091793Y-96486677D01*
X98080448Y-96493971D01*
X98072368Y-96504766D01*
X98051638Y-96512497D01*
X98033025Y-96524467D01*
X98011081Y-96527624D01*
X98009670Y-96528151D01*
X98009719Y-96528541D01*
X98009711Y-96528542D01*
X98008404Y-96528623D01*
X98006904Y-96529183D01*
X97998091Y-96529499D01*
X97994364Y-96529500D01*
X97994361Y-96529499D01*
X97994347Y-96529499D01*
X97994331Y-96529500D01*
X93914722Y-96529500D01*
X93847683Y-96509815D01*
X93815455Y-96479811D01*
X93812976Y-96476499D01*
X93757546Y-96402454D01*
X93713966Y-96369830D01*
X93642335Y-96316206D01*
X93642328Y-96316202D01*
X93507482Y-96265908D01*
X93507483Y-96265908D01*
X93447883Y-96259501D01*
X93447881Y-96259500D01*
X93447873Y-96259500D01*
X93447864Y-96259500D01*
X91652129Y-96259500D01*
X91652123Y-96259501D01*
X91592516Y-96265908D01*
X91457671Y-96316202D01*
X91457664Y-96316206D01*
X91398809Y-96360265D01*
X91333345Y-96384682D01*
X91265072Y-96369830D01*
X91215667Y-96320425D01*
X91200499Y-96261001D01*
X91200499Y-95442128D01*
X91194091Y-95382517D01*
X91171077Y-95320814D01*
X91143797Y-95247671D01*
X91143793Y-95247664D01*
X91057547Y-95132455D01*
X91057544Y-95132452D01*
X90942335Y-95046206D01*
X90942328Y-95046202D01*
X90807482Y-94995908D01*
X90807483Y-94995908D01*
X90747883Y-94989501D01*
X90747881Y-94989500D01*
X90747873Y-94989500D01*
X90747864Y-94989500D01*
X88952129Y-94989500D01*
X88952123Y-94989501D01*
X88892516Y-94995908D01*
X88757671Y-95046202D01*
X88757664Y-95046206D01*
X88642455Y-95132452D01*
X88642452Y-95132455D01*
X88556206Y-95247664D01*
X88556202Y-95247671D01*
X88505908Y-95382517D01*
X88499501Y-95442116D01*
X88499501Y-95442123D01*
X88499500Y-95442135D01*
X88499500Y-96277870D01*
X88499501Y-96277881D01*
X88501254Y-96294186D01*
X88500846Y-96296442D01*
X88501648Y-96298590D01*
X88494674Y-96330646D01*
X88488846Y-96362945D01*
X88487130Y-96365323D01*
X88486796Y-96366863D01*
X88465646Y-96395118D01*
X88330286Y-96530478D01*
X88330285Y-96530478D01*
X88330284Y-96530479D01*
X88218481Y-96642282D01*
X88218480Y-96642284D01*
X88178156Y-96712128D01*
X88139423Y-96779215D01*
X88098499Y-96931943D01*
X88098499Y-97090057D01*
X88098499Y-97090059D01*
X88098500Y-97100053D01*
X88098500Y-101524330D01*
X88098499Y-101524348D01*
X88098499Y-101690054D01*
X88098498Y-101690054D01*
X88130722Y-101810316D01*
X88139423Y-101842785D01*
X88160241Y-101878842D01*
X88218479Y-101979714D01*
X88218481Y-101979717D01*
X88337349Y-102098585D01*
X88337355Y-102098590D01*
X91203139Y-104964374D01*
X91203149Y-104964385D01*
X91207479Y-104968715D01*
X91207480Y-104968716D01*
X91319284Y-105080520D01*
X91319286Y-105080521D01*
X91319290Y-105080524D01*
X91456209Y-105159573D01*
X91456216Y-105159577D01*
X91568019Y-105189534D01*
X91608942Y-105200500D01*
X91608943Y-105200500D01*
X99554092Y-105200500D01*
X99621131Y-105220185D01*
X99659636Y-105264271D01*
X99661395Y-105263187D01*
X99665185Y-105269332D01*
X99665186Y-105269334D01*
X99757288Y-105418656D01*
X99881344Y-105542712D01*
X100030666Y-105634814D01*
X100197203Y-105689999D01*
X100299991Y-105700500D01*
X101300008Y-105700499D01*
X101300016Y-105700498D01*
X101300019Y-105700498D01*
X101356302Y-105694748D01*
X101402797Y-105689999D01*
X101569334Y-105634814D01*
X101718656Y-105542712D01*
X101842712Y-105418656D01*
X101934814Y-105269334D01*
X101934814Y-105269332D01*
X101938605Y-105263187D01*
X101940399Y-105264293D01*
X101944985Y-105259083D01*
X101952195Y-105243297D01*
X101967593Y-105233401D01*
X101979687Y-105219663D01*
X101996574Y-105214775D01*
X102010973Y-105205523D01*
X102045908Y-105200500D01*
X102191703Y-105200500D01*
X102258742Y-105220185D01*
X102279384Y-105236819D01*
X102464181Y-105421616D01*
X102497666Y-105482939D01*
X102500500Y-105509297D01*
X102500500Y-105907070D01*
X102500501Y-105907076D01*
X102506908Y-105966683D01*
X102557202Y-106101528D01*
X102557206Y-106101535D01*
X102643452Y-106216744D01*
X102643455Y-106216747D01*
X102758664Y-106302993D01*
X102758671Y-106302997D01*
X102893511Y-106353289D01*
X102893512Y-106353289D01*
X102893517Y-106353291D01*
X102893521Y-106353291D01*
X102899999Y-106354822D01*
X102960716Y-106389394D01*
X102993103Y-106451304D01*
X102986879Y-106520896D01*
X102944018Y-106576075D01*
X102878129Y-106599322D01*
X102871487Y-106599500D01*
X102771155Y-106599500D01*
X102616510Y-106630261D01*
X102616498Y-106630264D01*
X102470827Y-106690602D01*
X102470814Y-106690609D01*
X102339711Y-106778210D01*
X102339707Y-106778213D01*
X102228213Y-106889707D01*
X102228210Y-106889711D01*
X102140609Y-107020814D01*
X102140602Y-107020827D01*
X102080264Y-107166498D01*
X102080261Y-107166508D01*
X102049361Y-107321850D01*
X102016976Y-107383761D01*
X102015425Y-107385339D01*
X97141485Y-112259278D01*
X97080162Y-112292763D01*
X97010470Y-112287779D01*
X96988707Y-112277135D01*
X96969342Y-112265190D01*
X96969336Y-112265187D01*
X96969334Y-112265186D01*
X96802797Y-112210001D01*
X96802795Y-112210000D01*
X96700010Y-112199500D01*
X95299998Y-112199500D01*
X95299981Y-112199501D01*
X95197203Y-112210000D01*
X95197200Y-112210001D01*
X95030668Y-112265185D01*
X95030663Y-112265187D01*
X94881342Y-112357289D01*
X94757289Y-112481342D01*
X94665187Y-112630663D01*
X94665185Y-112630668D01*
X94649302Y-112678600D01*
X94610001Y-112797203D01*
X94610001Y-112797204D01*
X94610000Y-112797204D01*
X94599500Y-112899983D01*
X94599500Y-113825001D01*
X94599501Y-113825019D01*
X94601739Y-113846919D01*
X94588969Y-113915612D01*
X94566062Y-113947201D01*
X94184486Y-114328778D01*
X94072681Y-114440582D01*
X94072677Y-114440587D01*
X94034578Y-114506577D01*
X94034574Y-114506586D01*
X94030343Y-114513915D01*
X93993623Y-114577515D01*
X93970575Y-114663526D01*
X93967633Y-114670743D01*
X93950515Y-114692224D01*
X93936221Y-114715675D01*
X93927125Y-114723186D01*
X93865452Y-114769355D01*
X93779206Y-114884564D01*
X93779202Y-114884571D01*
X93728908Y-115019417D01*
X93722501Y-115079016D01*
X93722501Y-115079023D01*
X93722500Y-115079035D01*
X93722500Y-116520970D01*
X93722501Y-116520976D01*
X93728908Y-116580583D01*
X93779202Y-116715428D01*
X93779206Y-116715435D01*
X93865452Y-116830644D01*
X93865455Y-116830647D01*
X93980664Y-116916893D01*
X93980671Y-116916897D01*
X94025618Y-116933661D01*
X94115517Y-116967191D01*
X94175127Y-116973600D01*
X94931272Y-116973599D01*
X94990883Y-116967191D01*
X95125731Y-116916896D01*
X95240946Y-116830646D01*
X95327196Y-116715431D01*
X95377491Y-116580583D01*
X95383900Y-116520973D01*
X95383899Y-115079028D01*
X95377491Y-115019417D01*
X95355035Y-114959211D01*
X95350051Y-114889521D01*
X95383532Y-114828201D01*
X95649916Y-114561818D01*
X95711239Y-114528333D01*
X95737597Y-114525499D01*
X96700002Y-114525499D01*
X96700008Y-114525499D01*
X96802797Y-114514999D01*
X96969334Y-114459814D01*
X97118656Y-114367712D01*
X97242712Y-114243656D01*
X97334814Y-114094334D01*
X97389999Y-113927797D01*
X97400500Y-113825009D01*
X97400499Y-113750096D01*
X97420183Y-113683058D01*
X97436813Y-113662420D01*
X102864662Y-108234572D01*
X102879131Y-108226356D01*
X102889323Y-108215462D01*
X102916770Y-108204982D01*
X102921963Y-108202034D01*
X102928034Y-108200500D01*
X102928842Y-108200500D01*
X103083497Y-108169737D01*
X103136238Y-108147890D01*
X103144979Y-108145682D01*
X103171240Y-108146682D01*
X103197372Y-108143873D01*
X103205602Y-108147992D01*
X103214798Y-108148343D01*
X103236348Y-108163382D01*
X103259852Y-108175147D01*
X103271017Y-108187576D01*
X103272095Y-108188329D01*
X103272434Y-108189154D01*
X103274623Y-108191591D01*
X103293455Y-108216747D01*
X103408664Y-108302993D01*
X103408671Y-108302997D01*
X103446433Y-108317081D01*
X103543517Y-108353291D01*
X103603127Y-108359700D01*
X104198872Y-108359699D01*
X104258483Y-108353291D01*
X104393331Y-108302996D01*
X104508546Y-108216746D01*
X104533569Y-108183319D01*
X104589501Y-108141450D01*
X104659192Y-108136466D01*
X104720515Y-108169951D01*
X105392381Y-108841816D01*
X105425866Y-108903139D01*
X105428700Y-108929497D01*
X105428700Y-109629401D01*
X105428701Y-109629419D01*
X105439200Y-109732196D01*
X105439201Y-109732199D01*
X105494385Y-109898731D01*
X105494387Y-109898736D01*
X105527553Y-109952506D01*
X105586488Y-110048056D01*
X105710544Y-110172112D01*
X105859866Y-110264214D01*
X106026403Y-110319399D01*
X106129191Y-110329900D01*
X107129208Y-110329899D01*
X107129216Y-110329898D01*
X107129219Y-110329898D01*
X107185502Y-110324148D01*
X107231997Y-110319399D01*
X107398534Y-110264214D01*
X107547856Y-110172112D01*
X107618982Y-110100986D01*
X116492601Y-110100986D01*
X116503094Y-110203697D01*
X116558241Y-110370119D01*
X116558243Y-110370124D01*
X116650284Y-110519345D01*
X116774254Y-110643315D01*
X116923475Y-110735356D01*
X116923480Y-110735358D01*
X117089902Y-110790505D01*
X117089909Y-110790506D01*
X117192619Y-110800999D01*
X117342599Y-110800999D01*
X117342600Y-110800998D01*
X117342600Y-109851000D01*
X116492601Y-109851000D01*
X116492601Y-110100986D01*
X107618982Y-110100986D01*
X107671912Y-110048056D01*
X107764014Y-109898734D01*
X107819199Y-109732197D01*
X107829700Y-109629409D01*
X107829699Y-108829392D01*
X107819199Y-108726603D01*
X107764014Y-108560066D01*
X107671912Y-108410744D01*
X107578249Y-108317081D01*
X107544764Y-108255758D01*
X107549748Y-108186066D01*
X107578249Y-108141719D01*
X107619985Y-108099983D01*
X107671912Y-108048056D01*
X107724224Y-107963244D01*
X110871800Y-107963244D01*
X110878201Y-108022772D01*
X110878203Y-108022779D01*
X110928445Y-108157486D01*
X110928449Y-108157493D01*
X111014609Y-108272587D01*
X111014612Y-108272590D01*
X111129706Y-108358750D01*
X111129713Y-108358754D01*
X111264420Y-108408996D01*
X111264427Y-108408998D01*
X111323955Y-108415399D01*
X111323972Y-108415400D01*
X111571800Y-108415400D01*
X111571800Y-107415400D01*
X110871800Y-107415400D01*
X110871800Y-107963244D01*
X107724224Y-107963244D01*
X107764014Y-107898734D01*
X107819199Y-107732197D01*
X107829700Y-107629409D01*
X107829699Y-107179665D01*
X107829699Y-106987364D01*
X107849383Y-106920325D01*
X107902187Y-106874570D01*
X107966954Y-106864075D01*
X107983927Y-106865900D01*
X109579672Y-106865899D01*
X109639283Y-106859491D01*
X109774131Y-106809196D01*
X109889346Y-106722946D01*
X109975596Y-106607731D01*
X110025891Y-106472883D01*
X110032300Y-106413273D01*
X110032300Y-106367555D01*
X110871800Y-106367555D01*
X110871800Y-106915400D01*
X111571800Y-106915400D01*
X111571800Y-105915400D01*
X111323955Y-105915400D01*
X111264427Y-105921801D01*
X111264420Y-105921803D01*
X111129713Y-105972045D01*
X111129706Y-105972049D01*
X111014612Y-106058209D01*
X111014609Y-106058212D01*
X110928449Y-106173306D01*
X110928445Y-106173313D01*
X110878203Y-106308020D01*
X110878201Y-106308027D01*
X110871800Y-106367555D01*
X110032300Y-106367555D01*
X110032299Y-105915400D01*
X110032299Y-105417529D01*
X110032298Y-105417523D01*
X110032297Y-105417516D01*
X110025891Y-105357917D01*
X110013140Y-105323732D01*
X110008157Y-105254042D01*
X110013140Y-105237069D01*
X110025891Y-105202883D01*
X110032300Y-105143273D01*
X110032300Y-104984660D01*
X110051985Y-104917621D01*
X110104789Y-104871866D01*
X110132109Y-104863043D01*
X110249316Y-104839729D01*
X110394998Y-104779386D01*
X110526108Y-104691781D01*
X110637608Y-104580281D01*
X110725213Y-104449171D01*
X110785556Y-104303489D01*
X110816319Y-104148834D01*
X110816319Y-103991150D01*
X110816319Y-103991147D01*
X110816318Y-103991145D01*
X110807874Y-103948691D01*
X110814101Y-103879100D01*
X110856964Y-103823922D01*
X110922854Y-103800678D01*
X110929491Y-103800500D01*
X111078844Y-103800500D01*
X111078845Y-103800499D01*
X111233497Y-103769737D01*
X111379179Y-103709394D01*
X111510289Y-103621789D01*
X111621789Y-103510289D01*
X111709394Y-103379179D01*
X111769737Y-103233497D01*
X111800500Y-103078842D01*
X111800500Y-102921158D01*
X111800498Y-102921152D01*
X111800357Y-102919713D01*
X111800500Y-102918958D01*
X111800500Y-102915066D01*
X111801238Y-102915066D01*
X111813374Y-102851066D01*
X111861438Y-102800355D01*
X111929288Y-102783678D01*
X111947946Y-102785937D01*
X112000952Y-102796480D01*
X112021157Y-102800500D01*
X112021158Y-102800500D01*
X112178844Y-102800500D01*
X112178845Y-102800499D01*
X112333497Y-102769737D01*
X112479179Y-102709394D01*
X112610289Y-102621789D01*
X112721789Y-102510289D01*
X112809394Y-102379179D01*
X112869737Y-102233497D01*
X112900500Y-102078842D01*
X112900500Y-101921158D01*
X112900500Y-101921155D01*
X112900499Y-101921153D01*
X112892082Y-101878840D01*
X112869737Y-101766503D01*
X112864289Y-101753350D01*
X112809397Y-101620827D01*
X112809390Y-101620814D01*
X112721789Y-101489711D01*
X112721786Y-101489707D01*
X112610292Y-101378213D01*
X112610288Y-101378210D01*
X112479185Y-101290609D01*
X112479172Y-101290602D01*
X112333501Y-101230264D01*
X112333489Y-101230261D01*
X112178845Y-101199500D01*
X112178842Y-101199500D01*
X112021158Y-101199500D01*
X112021154Y-101199500D01*
X112019052Y-101199707D01*
X112017961Y-101199500D01*
X112015066Y-101199500D01*
X112015066Y-101198950D01*
X111950407Y-101186687D01*
X111919220Y-101163985D01*
X111485590Y-100730355D01*
X111485588Y-100730352D01*
X111366717Y-100611481D01*
X111366716Y-100611480D01*
X111279904Y-100561360D01*
X111279904Y-100561359D01*
X111279900Y-100561358D01*
X111229785Y-100532423D01*
X111077057Y-100491499D01*
X110918943Y-100491499D01*
X110911347Y-100491499D01*
X110911331Y-100491500D01*
X110156299Y-100491500D01*
X110089260Y-100471815D01*
X110043505Y-100419011D01*
X110033884Y-100387262D01*
X110032299Y-100377443D01*
X110032299Y-100337528D01*
X110025891Y-100277917D01*
X110008860Y-100232255D01*
X110006908Y-100220162D01*
X110009810Y-100197164D01*
X110008157Y-100174042D01*
X110013140Y-100157069D01*
X110025891Y-100122883D01*
X110032300Y-100063273D01*
X110032299Y-99073244D01*
X113631800Y-99073244D01*
X113638201Y-99132772D01*
X113638203Y-99132779D01*
X113688445Y-99267486D01*
X113688449Y-99267493D01*
X113774609Y-99382587D01*
X113774612Y-99382590D01*
X113889706Y-99468750D01*
X113889713Y-99468754D01*
X114024420Y-99518996D01*
X114024427Y-99518998D01*
X114083955Y-99525399D01*
X114083972Y-99525400D01*
X114381800Y-99525400D01*
X114881800Y-99525400D01*
X115781800Y-99525400D01*
X116281800Y-99525400D01*
X117181800Y-99525400D01*
X117681800Y-99525400D01*
X117979628Y-99525400D01*
X117979644Y-99525399D01*
X118039172Y-99518998D01*
X118039179Y-99518996D01*
X118173886Y-99468754D01*
X118173893Y-99468750D01*
X118288987Y-99382590D01*
X118288990Y-99382587D01*
X118375150Y-99267493D01*
X118375154Y-99267486D01*
X118425396Y-99132779D01*
X118425398Y-99132772D01*
X118431799Y-99073244D01*
X118431800Y-99073227D01*
X118431800Y-98775400D01*
X117681800Y-98775400D01*
X117681800Y-99525400D01*
X117181800Y-99525400D01*
X117181800Y-98775400D01*
X116281800Y-98775400D01*
X116281800Y-99525400D01*
X115781800Y-99525400D01*
X115781800Y-98775400D01*
X114881800Y-98775400D01*
X114881800Y-99525400D01*
X114381800Y-99525400D01*
X114381800Y-98775400D01*
X113631800Y-98775400D01*
X113631800Y-99073244D01*
X110032299Y-99073244D01*
X110032299Y-99067528D01*
X110025891Y-99007917D01*
X110013140Y-98973731D01*
X110006369Y-98914327D01*
X110008201Y-98900312D01*
X110025891Y-98852883D01*
X110032300Y-98793273D01*
X110032299Y-98275400D01*
X113631800Y-98275400D01*
X114381800Y-98275400D01*
X114881800Y-98275400D01*
X115781800Y-98275400D01*
X116281800Y-98275400D01*
X117181800Y-98275400D01*
X117681800Y-98275400D01*
X118431800Y-98275400D01*
X118431800Y-97375400D01*
X117681800Y-97375400D01*
X117681800Y-98275400D01*
X117181800Y-98275400D01*
X117181800Y-97375400D01*
X116281800Y-97375400D01*
X116281800Y-98275400D01*
X115781800Y-98275400D01*
X115781800Y-97375400D01*
X114881800Y-97375400D01*
X114881800Y-98275400D01*
X114381800Y-98275400D01*
X114381800Y-97375400D01*
X113631800Y-97375400D01*
X113631800Y-98275400D01*
X110032299Y-98275400D01*
X110032299Y-97797528D01*
X110025891Y-97737917D01*
X110013140Y-97703732D01*
X110008157Y-97634042D01*
X110013140Y-97617069D01*
X110025891Y-97582883D01*
X110032300Y-97523273D01*
X110032299Y-97009577D01*
X110032299Y-96875400D01*
X113631800Y-96875400D01*
X114381800Y-96875400D01*
X114881800Y-96875400D01*
X115781800Y-96875400D01*
X116281800Y-96875400D01*
X117181800Y-96875400D01*
X117681800Y-96875400D01*
X118431800Y-96875400D01*
X118431800Y-95975400D01*
X117681800Y-95975400D01*
X117681800Y-96875400D01*
X117181800Y-96875400D01*
X117181800Y-95975400D01*
X116281800Y-95975400D01*
X116281800Y-96875400D01*
X115781800Y-96875400D01*
X115781800Y-95975400D01*
X114881800Y-95975400D01*
X114881800Y-96875400D01*
X114381800Y-96875400D01*
X114381800Y-95975400D01*
X113631800Y-95975400D01*
X113631800Y-96875400D01*
X110032299Y-96875400D01*
X110032299Y-96527529D01*
X110032298Y-96527523D01*
X110032297Y-96527516D01*
X110025891Y-96467917D01*
X110013140Y-96433732D01*
X110008157Y-96364042D01*
X110013140Y-96347069D01*
X110025891Y-96312883D01*
X110032300Y-96253273D01*
X110032299Y-95747898D01*
X110032299Y-95257529D01*
X110032298Y-95257523D01*
X110032297Y-95257516D01*
X110025891Y-95197917D01*
X110018296Y-95177555D01*
X113631800Y-95177555D01*
X113631800Y-95475400D01*
X114381800Y-95475400D01*
X114881800Y-95475400D01*
X115781800Y-95475400D01*
X116281800Y-95475400D01*
X117181800Y-95475400D01*
X117681800Y-95475400D01*
X118431800Y-95475400D01*
X118431800Y-95177572D01*
X118431799Y-95177555D01*
X118425398Y-95118027D01*
X118425396Y-95118020D01*
X118375154Y-94983313D01*
X118375150Y-94983306D01*
X118288990Y-94868212D01*
X118288987Y-94868209D01*
X118173893Y-94782049D01*
X118173886Y-94782045D01*
X118039179Y-94731803D01*
X118039172Y-94731801D01*
X117979644Y-94725400D01*
X117681800Y-94725400D01*
X117681800Y-95475400D01*
X117181800Y-95475400D01*
X117181800Y-94725400D01*
X116281800Y-94725400D01*
X116281800Y-95475400D01*
X115781800Y-95475400D01*
X115781800Y-94725400D01*
X114881800Y-94725400D01*
X114881800Y-95475400D01*
X114381800Y-95475400D01*
X114381800Y-94725400D01*
X114083955Y-94725400D01*
X114024427Y-94731801D01*
X114024420Y-94731803D01*
X113889713Y-94782045D01*
X113889706Y-94782049D01*
X113774612Y-94868209D01*
X113774609Y-94868212D01*
X113688449Y-94983306D01*
X113688445Y-94983313D01*
X113638203Y-95118020D01*
X113638201Y-95118027D01*
X113631800Y-95177555D01*
X110018296Y-95177555D01*
X110012542Y-95162127D01*
X110011978Y-95160475D01*
X110010530Y-95127236D01*
X110008157Y-95094042D01*
X110008965Y-95091287D01*
X110008939Y-95090672D01*
X110009356Y-95089954D01*
X110013140Y-95077069D01*
X110025891Y-95042883D01*
X110032300Y-94983273D01*
X110032299Y-93987528D01*
X110025891Y-93927917D01*
X110013140Y-93893732D01*
X110008157Y-93824042D01*
X110013138Y-93807072D01*
X110025891Y-93772883D01*
X110032300Y-93713273D01*
X110032299Y-92717528D01*
X110025891Y-92657917D01*
X110013140Y-92623732D01*
X110008157Y-92554042D01*
X110013138Y-92537072D01*
X110025891Y-92502883D01*
X110032300Y-92443273D01*
X110032299Y-91447528D01*
X110025891Y-91387917D01*
X110013140Y-91353732D01*
X110008157Y-91284042D01*
X110013140Y-91267069D01*
X110025891Y-91232883D01*
X110032300Y-91173273D01*
X110032299Y-90177528D01*
X110029340Y-90150000D01*
X110450000Y-90150000D01*
X110450000Y-88907555D01*
X125031800Y-88907555D01*
X125031800Y-89155400D01*
X126031800Y-89155400D01*
X126531800Y-89155400D01*
X127531800Y-89155400D01*
X127531800Y-88907572D01*
X127531799Y-88907555D01*
X127525398Y-88848027D01*
X127525396Y-88848020D01*
X127475154Y-88713313D01*
X127475150Y-88713306D01*
X127388990Y-88598212D01*
X127388987Y-88598209D01*
X127273893Y-88512049D01*
X127273886Y-88512045D01*
X127139179Y-88461803D01*
X127139172Y-88461801D01*
X127079644Y-88455400D01*
X126531800Y-88455400D01*
X126531800Y-89155400D01*
X126031800Y-89155400D01*
X126031800Y-88455400D01*
X125483955Y-88455400D01*
X125424427Y-88461801D01*
X125424420Y-88461803D01*
X125289713Y-88512045D01*
X125289706Y-88512049D01*
X125174612Y-88598209D01*
X125174609Y-88598212D01*
X125088449Y-88713306D01*
X125088445Y-88713313D01*
X125038203Y-88848020D01*
X125038201Y-88848027D01*
X125031800Y-88907555D01*
X110450000Y-88907555D01*
X110450000Y-88105400D01*
X130182851Y-88105400D01*
X130219740Y-88111014D01*
X130236549Y-88116251D01*
X130309391Y-88138950D01*
X130324904Y-88144955D01*
X130766302Y-88350941D01*
X130777994Y-88357180D01*
X130913465Y-88439075D01*
X130925776Y-88447573D01*
X130943940Y-88461803D01*
X131151573Y-88624473D01*
X131162781Y-88634403D01*
X131365596Y-88837218D01*
X131375526Y-88848426D01*
X131466701Y-88964803D01*
X131481457Y-88988838D01*
X131932646Y-89955672D01*
X131942248Y-89985758D01*
X131979923Y-90191340D01*
X131981728Y-90206205D01*
X131999274Y-90496263D01*
X131999500Y-90503750D01*
X131999500Y-125700000D01*
X113100000Y-125700000D01*
X113100000Y-121200000D01*
X109521672Y-121200000D01*
X109412178Y-121144210D01*
X109231937Y-121085645D01*
X109044762Y-121056000D01*
X108855238Y-121056000D01*
X108668062Y-121085645D01*
X108487821Y-121144210D01*
X108318969Y-121230245D01*
X108292806Y-121249253D01*
X108700000Y-121656446D01*
X108700000Y-121884722D01*
X108673694Y-121899910D01*
X108589910Y-121983694D01*
X108530667Y-122086306D01*
X108507861Y-122171414D01*
X107916551Y-121580104D01*
X107915398Y-121579773D01*
X107903996Y-121569067D01*
X107888591Y-121556815D01*
X107884849Y-121552546D01*
X107828741Y-121475321D01*
X107694679Y-121341259D01*
X107541296Y-121229819D01*
X107372372Y-121143747D01*
X107313905Y-121124750D01*
X107192055Y-121085158D01*
X107192051Y-121085157D01*
X107192050Y-121085157D01*
X107004800Y-121055500D01*
X107004796Y-121055500D01*
X106839501Y-121055500D01*
X106772462Y-121035815D01*
X106726707Y-120983011D01*
X106715501Y-120931500D01*
X106715501Y-118791077D01*
X106715501Y-118791075D01*
X106674578Y-118638347D01*
X106638587Y-118576010D01*
X106595521Y-118501416D01*
X106483717Y-118389612D01*
X106483716Y-118389611D01*
X106479386Y-118385281D01*
X106479375Y-118385271D01*
X105392219Y-117298115D01*
X105377515Y-117271187D01*
X105360923Y-117245369D01*
X105360031Y-117239168D01*
X105358734Y-117236792D01*
X105355900Y-117210434D01*
X105355900Y-117030097D01*
X105375585Y-116963058D01*
X105392219Y-116942416D01*
X105652269Y-116682366D01*
X105940421Y-116394213D01*
X106001742Y-116360730D01*
X106071433Y-116365714D01*
X106127367Y-116407585D01*
X106151784Y-116473050D01*
X106152100Y-116481896D01*
X106152100Y-117214401D01*
X106152101Y-117214419D01*
X106162600Y-117317196D01*
X106162601Y-117317199D01*
X106217785Y-117483731D01*
X106217787Y-117483736D01*
X106228679Y-117501394D01*
X106309888Y-117633056D01*
X106433944Y-117757112D01*
X106583266Y-117849214D01*
X106749803Y-117904399D01*
X106852591Y-117914900D01*
X108202608Y-117914899D01*
X108305397Y-117904399D01*
X108471934Y-117849214D01*
X108621256Y-117757112D01*
X108745312Y-117633056D01*
X108837414Y-117483734D01*
X108868214Y-117390786D01*
X109542401Y-117390786D01*
X109552894Y-117493497D01*
X109608041Y-117659919D01*
X109608043Y-117659924D01*
X109700084Y-117809145D01*
X109824054Y-117933115D01*
X109973275Y-118025156D01*
X109973280Y-118025158D01*
X110139702Y-118080305D01*
X110139709Y-118080306D01*
X110242419Y-118090799D01*
X110392399Y-118090799D01*
X110392400Y-118090798D01*
X110392400Y-117140800D01*
X109542401Y-117140800D01*
X109542401Y-117390786D01*
X108868214Y-117390786D01*
X108892599Y-117317197D01*
X108903100Y-117214409D01*
X108903099Y-116764255D01*
X108903099Y-116345900D01*
X108922783Y-116278861D01*
X108975587Y-116233106D01*
X109027099Y-116221900D01*
X109422344Y-116221900D01*
X109489383Y-116241585D01*
X109535138Y-116294389D01*
X109545702Y-116358504D01*
X109542400Y-116390816D01*
X109542400Y-116640800D01*
X110518400Y-116640800D01*
X110585439Y-116660485D01*
X110631194Y-116713289D01*
X110642400Y-116764800D01*
X110642400Y-116890800D01*
X110768400Y-116890800D01*
X110835439Y-116910485D01*
X110881194Y-116963289D01*
X110892400Y-117014800D01*
X110892400Y-118090799D01*
X111042372Y-118090799D01*
X111042386Y-118090798D01*
X111145097Y-118080305D01*
X111311519Y-118025158D01*
X111311524Y-118025156D01*
X111460742Y-117933117D01*
X111554364Y-117839495D01*
X111615687Y-117806010D01*
X111685379Y-117810994D01*
X111729727Y-117839495D01*
X111823744Y-117933512D01*
X111973066Y-118025614D01*
X112139603Y-118080799D01*
X112242391Y-118091300D01*
X113042408Y-118091299D01*
X113042416Y-118091298D01*
X113042419Y-118091298D01*
X113124502Y-118082913D01*
X113145197Y-118080799D01*
X113311734Y-118025614D01*
X113461056Y-117933512D01*
X113482879Y-117911688D01*
X113544201Y-117878203D01*
X113613892Y-117883186D01*
X113658243Y-117911689D01*
X113700329Y-117953776D01*
X113700333Y-117953779D01*
X113700335Y-117953781D01*
X113841802Y-118037444D01*
X113841803Y-118037444D01*
X113841806Y-118037446D01*
X113868864Y-118045307D01*
X113927750Y-118082913D01*
X113956956Y-118146386D01*
X113947210Y-118215573D01*
X113939808Y-118229479D01*
X113859389Y-118359859D01*
X113859385Y-118359868D01*
X113850964Y-118385281D01*
X113804201Y-118526403D01*
X113804201Y-118526404D01*
X113804200Y-118526404D01*
X113793700Y-118629183D01*
X113793700Y-120029201D01*
X113793701Y-120029218D01*
X113804200Y-120131996D01*
X113804201Y-120131999D01*
X113832941Y-120218728D01*
X113859386Y-120298534D01*
X113951488Y-120447856D01*
X114075544Y-120571912D01*
X114079789Y-120574530D01*
X114126517Y-120626473D01*
X114138700Y-120680073D01*
X114138700Y-121553735D01*
X114119015Y-121620774D01*
X114066211Y-121666529D01*
X114027303Y-121677093D01*
X114017757Y-121678068D01*
X114017755Y-121678068D01*
X113851223Y-121733252D01*
X113851218Y-121733254D01*
X113701897Y-121825356D01*
X113577844Y-121949409D01*
X113485742Y-122098730D01*
X113485740Y-122098735D01*
X113482670Y-122108000D01*
X113430556Y-122265270D01*
X113430556Y-122265271D01*
X113430555Y-122265271D01*
X113420055Y-122368050D01*
X113420055Y-123568068D01*
X113420056Y-123568085D01*
X113430555Y-123670863D01*
X113430556Y-123670866D01*
X113481571Y-123824817D01*
X113485741Y-123837401D01*
X113577843Y-123986723D01*
X113577845Y-123986725D01*
X113582321Y-123992386D01*
X113581236Y-123993243D01*
X113610961Y-124047679D01*
X113605977Y-124117371D01*
X113603356Y-124123182D01*
X113603435Y-124123215D01*
X113539443Y-124277707D01*
X113539441Y-124277715D01*
X113508007Y-124435742D01*
X113508007Y-124435745D01*
X113508007Y-124596877D01*
X113508007Y-124596879D01*
X113508006Y-124596879D01*
X113539441Y-124754906D01*
X113539443Y-124754914D01*
X113601104Y-124903779D01*
X113601105Y-124903782D01*
X113690624Y-125037755D01*
X113690627Y-125037759D01*
X113804558Y-125151690D01*
X113804562Y-125151693D01*
X113938535Y-125241212D01*
X113938537Y-125241212D01*
X113938539Y-125241214D01*
X114087405Y-125302875D01*
X114126105Y-125310573D01*
X114245438Y-125334311D01*
X114245441Y-125334311D01*
X114406575Y-125334311D01*
X114486130Y-125318485D01*
X114564609Y-125302875D01*
X114713475Y-125241214D01*
X114847452Y-125151693D01*
X115352676Y-124646467D01*
X115413999Y-124612983D01*
X115483690Y-124617967D01*
X115528038Y-124646468D01*
X115810678Y-124929109D01*
X115810679Y-124929110D01*
X115944662Y-125018634D01*
X116093520Y-125080292D01*
X116093525Y-125080294D01*
X116093529Y-125080294D01*
X116093530Y-125080295D01*
X116251558Y-125111730D01*
X116251561Y-125111730D01*
X116412694Y-125111730D01*
X116519012Y-125090581D01*
X116570729Y-125080294D01*
X116719595Y-125018632D01*
X116853571Y-124929112D01*
X116967509Y-124815174D01*
X117057029Y-124681198D01*
X117118691Y-124532332D01*
X117137904Y-124435742D01*
X117150127Y-124374297D01*
X117150127Y-124238752D01*
X117169812Y-124171713D01*
X117222616Y-124125958D01*
X117291774Y-124116014D01*
X117339224Y-124133214D01*
X117451424Y-124202420D01*
X117451435Y-124202425D01*
X117500000Y-124218517D01*
X117500000Y-124250000D01*
X117595006Y-124250000D01*
X117617857Y-124257572D01*
X117617864Y-124257573D01*
X117720574Y-124268066D01*
X118570554Y-124268066D01*
X118570555Y-124268065D01*
X118570555Y-124250000D01*
X119070555Y-124250000D01*
X119070555Y-124268066D01*
X119920527Y-124268066D01*
X119920541Y-124268065D01*
X120023252Y-124257572D01*
X120046103Y-124250000D01*
X120250000Y-124250000D01*
X120250000Y-124165216D01*
X120338900Y-124110382D01*
X120462872Y-123986410D01*
X120500482Y-123925435D01*
X120552430Y-123878710D01*
X120621392Y-123867487D01*
X120685474Y-123895330D01*
X120724331Y-123953399D01*
X120724406Y-123953641D01*
X120759374Y-124065859D01*
X120759376Y-124065863D01*
X120842289Y-124203019D01*
X120842292Y-124203023D01*
X120955626Y-124316357D01*
X120955630Y-124316360D01*
X121092786Y-124399273D01*
X121092788Y-124399274D01*
X121245805Y-124446956D01*
X121245811Y-124446958D01*
X121275649Y-124449668D01*
X121275650Y-124449668D01*
X121775650Y-124449668D01*
X121805488Y-124446958D01*
X121805494Y-124446956D01*
X121958511Y-124399274D01*
X121958513Y-124399273D01*
X122095669Y-124316360D01*
X122095673Y-124316357D01*
X122209007Y-124203023D01*
X122209010Y-124203019D01*
X122291923Y-124065863D01*
X122291925Y-124065859D01*
X122339606Y-123912843D01*
X122345650Y-123846337D01*
X122695650Y-123846337D01*
X122701693Y-123912843D01*
X122749374Y-124065859D01*
X122749376Y-124065863D01*
X122832289Y-124203019D01*
X122832292Y-124203023D01*
X122945626Y-124316357D01*
X122945630Y-124316360D01*
X123082786Y-124399273D01*
X123082788Y-124399274D01*
X123235805Y-124446956D01*
X123235811Y-124446958D01*
X123265649Y-124449668D01*
X123265650Y-124449668D01*
X123765650Y-124449668D01*
X123795488Y-124446958D01*
X123795494Y-124446956D01*
X123948511Y-124399274D01*
X123948513Y-124399273D01*
X124085669Y-124316360D01*
X124085673Y-124316357D01*
X124199007Y-124203023D01*
X124199010Y-124203019D01*
X124281923Y-124065863D01*
X124281925Y-124065859D01*
X124329606Y-123912843D01*
X124335650Y-123846337D01*
X124685650Y-123846337D01*
X124691693Y-123912843D01*
X124739374Y-124065859D01*
X124739376Y-124065863D01*
X124822289Y-124203019D01*
X124822292Y-124203023D01*
X124935626Y-124316357D01*
X124935630Y-124316360D01*
X125072786Y-124399273D01*
X125072788Y-124399274D01*
X125225805Y-124446956D01*
X125225811Y-124446958D01*
X125255649Y-124449668D01*
X125255650Y-124449668D01*
X125755650Y-124449668D01*
X125785488Y-124446958D01*
X125785494Y-124446956D01*
X125938511Y-124399274D01*
X125938513Y-124399273D01*
X126075669Y-124316360D01*
X126075673Y-124316357D01*
X126189007Y-124203023D01*
X126189010Y-124203019D01*
X126271923Y-124065863D01*
X126271925Y-124065859D01*
X126319606Y-123912843D01*
X126325650Y-123846337D01*
X126675650Y-123846337D01*
X126681693Y-123912843D01*
X126729374Y-124065859D01*
X126729376Y-124065863D01*
X126812289Y-124203019D01*
X126812292Y-124203023D01*
X126925626Y-124316357D01*
X126925630Y-124316360D01*
X127062786Y-124399273D01*
X127062788Y-124399274D01*
X127215805Y-124446956D01*
X127215811Y-124446958D01*
X127245649Y-124449668D01*
X127245650Y-124449668D01*
X127745650Y-124449668D01*
X127775488Y-124446958D01*
X127775494Y-124446956D01*
X127928511Y-124399274D01*
X127928513Y-124399273D01*
X128065669Y-124316360D01*
X128065673Y-124316357D01*
X128179007Y-124203023D01*
X128179010Y-124203019D01*
X128261923Y-124065863D01*
X128261925Y-124065859D01*
X128309606Y-123912843D01*
X128315650Y-123846337D01*
X128315650Y-123820500D01*
X127745650Y-123820500D01*
X127745650Y-124449668D01*
X127245650Y-124449668D01*
X127245650Y-123820500D01*
X126675650Y-123820500D01*
X126675650Y-123846337D01*
X126325650Y-123846337D01*
X126325650Y-123820500D01*
X125755650Y-123820500D01*
X125755650Y-124449668D01*
X125255650Y-124449668D01*
X125255650Y-123820500D01*
X124685650Y-123820500D01*
X124685650Y-123846337D01*
X124335650Y-123846337D01*
X124335650Y-123820500D01*
X123765650Y-123820500D01*
X123765650Y-124449668D01*
X123265650Y-124449668D01*
X123265650Y-123820500D01*
X122695650Y-123820500D01*
X122695650Y-123846337D01*
X122345650Y-123846337D01*
X122345650Y-123820500D01*
X121775650Y-123820500D01*
X121775650Y-124449668D01*
X121275650Y-124449668D01*
X121275650Y-123694500D01*
X121295335Y-123627461D01*
X121348139Y-123581706D01*
X121399650Y-123570500D01*
X121525650Y-123570500D01*
X121525650Y-123444500D01*
X121545335Y-123377461D01*
X121598139Y-123331706D01*
X121649650Y-123320500D01*
X122345650Y-123320500D01*
X122345650Y-123294662D01*
X122339607Y-123228161D01*
X122291923Y-123075138D01*
X122284364Y-123062633D01*
X122266528Y-122995078D01*
X122284365Y-122934332D01*
X122285775Y-122932000D01*
X122292383Y-122921069D01*
X122340102Y-122767933D01*
X122346150Y-122701381D01*
X122346149Y-122504467D01*
X122365833Y-122437429D01*
X122418637Y-122391674D01*
X122487795Y-122381730D01*
X122521353Y-122391534D01*
X122530603Y-122395728D01*
X122544471Y-122404994D01*
X122620489Y-122436481D01*
X122622354Y-122437327D01*
X122647329Y-122458848D01*
X122673006Y-122479540D01*
X122673676Y-122481553D01*
X122675282Y-122482937D01*
X122684656Y-122514545D01*
X122695071Y-122545834D01*
X122695143Y-122549901D01*
X122695150Y-122549923D01*
X122695144Y-122549942D01*
X122695150Y-122550260D01*
X122695150Y-122701388D01*
X122701196Y-122767926D01*
X122701198Y-122767933D01*
X122748915Y-122921066D01*
X122756937Y-122934336D01*
X122774771Y-123001891D01*
X122756937Y-123062629D01*
X122749376Y-123075136D01*
X122749374Y-123075140D01*
X122701693Y-123228156D01*
X122695650Y-123294662D01*
X122695650Y-123320500D01*
X124335650Y-123320500D01*
X124335650Y-123294662D01*
X124329607Y-123228161D01*
X124281923Y-123075138D01*
X124274364Y-123062633D01*
X124256528Y-122995078D01*
X124274365Y-122934332D01*
X124275775Y-122932000D01*
X124282383Y-122921069D01*
X124330102Y-122767933D01*
X124336150Y-122701381D01*
X124336149Y-122504467D01*
X124355833Y-122437429D01*
X124408637Y-122391674D01*
X124477795Y-122381730D01*
X124511353Y-122391534D01*
X124520603Y-122395728D01*
X124534471Y-122404994D01*
X124610489Y-122436481D01*
X124612354Y-122437327D01*
X124637329Y-122458848D01*
X124663006Y-122479540D01*
X124663676Y-122481553D01*
X124665282Y-122482937D01*
X124674656Y-122514545D01*
X124685071Y-122545834D01*
X124685143Y-122549901D01*
X124685150Y-122549923D01*
X124685144Y-122549942D01*
X124685150Y-122550260D01*
X124685150Y-122701388D01*
X124691196Y-122767926D01*
X124691198Y-122767933D01*
X124738915Y-122921066D01*
X124746937Y-122934336D01*
X124764771Y-123001891D01*
X124746937Y-123062629D01*
X124739376Y-123075136D01*
X124739374Y-123075140D01*
X124691693Y-123228156D01*
X124685650Y-123294662D01*
X124685650Y-123320500D01*
X126325650Y-123320500D01*
X126325650Y-123294662D01*
X126319607Y-123228161D01*
X126271923Y-123075138D01*
X126264364Y-123062633D01*
X126246528Y-122995078D01*
X126264365Y-122934332D01*
X126265775Y-122932000D01*
X126272383Y-122921069D01*
X126320102Y-122767933D01*
X126326150Y-122701381D01*
X126326149Y-122504467D01*
X126345833Y-122437429D01*
X126398637Y-122391674D01*
X126467795Y-122381730D01*
X126501353Y-122391534D01*
X126510603Y-122395728D01*
X126524471Y-122404994D01*
X126600489Y-122436481D01*
X126602354Y-122437327D01*
X126627329Y-122458848D01*
X126653006Y-122479540D01*
X126653676Y-122481553D01*
X126655282Y-122482937D01*
X126664656Y-122514545D01*
X126675071Y-122545834D01*
X126675143Y-122549901D01*
X126675150Y-122549923D01*
X126675144Y-122549942D01*
X126675150Y-122550260D01*
X126675150Y-122701388D01*
X126681196Y-122767926D01*
X126681198Y-122767933D01*
X126728915Y-122921066D01*
X126736937Y-122934336D01*
X126754771Y-123001891D01*
X126736937Y-123062629D01*
X126729376Y-123075136D01*
X126729374Y-123075140D01*
X126681693Y-123228156D01*
X126675650Y-123294662D01*
X126675650Y-123320500D01*
X128315650Y-123320500D01*
X128315650Y-123294662D01*
X128309607Y-123228161D01*
X128261923Y-123075138D01*
X128254364Y-123062633D01*
X128236528Y-122995078D01*
X128254365Y-122934332D01*
X128255775Y-122932000D01*
X128262383Y-122921069D01*
X128310102Y-122767933D01*
X128316150Y-122701381D01*
X128316149Y-122149620D01*
X128316149Y-122149619D01*
X128316149Y-122149611D01*
X128310103Y-122083073D01*
X128310102Y-122083070D01*
X128310102Y-122083067D01*
X128277345Y-121977945D01*
X128262384Y-121929933D01*
X128262382Y-121929929D01*
X128179407Y-121792670D01*
X128179403Y-121792665D01*
X128065984Y-121679246D01*
X128065979Y-121679242D01*
X127928720Y-121596267D01*
X127928716Y-121596265D01*
X127775583Y-121548548D01*
X127769148Y-121547268D01*
X127769663Y-121544675D01*
X127715642Y-121523321D01*
X127674866Y-121466583D01*
X127673452Y-121462261D01*
X127673384Y-121462098D01*
X127623333Y-121341260D01*
X127613047Y-121316427D01*
X127613040Y-121316414D01*
X127525439Y-121185311D01*
X127525436Y-121185307D01*
X127413942Y-121073813D01*
X127413938Y-121073810D01*
X127282835Y-120986209D01*
X127282822Y-120986202D01*
X127137151Y-120925864D01*
X127137139Y-120925861D01*
X126982495Y-120895100D01*
X126982492Y-120895100D01*
X126824808Y-120895100D01*
X126824805Y-120895100D01*
X126670160Y-120925861D01*
X126670148Y-120925864D01*
X126524477Y-120986202D01*
X126524464Y-120986209D01*
X126393361Y-121073810D01*
X126393357Y-121073813D01*
X126281863Y-121185307D01*
X126281860Y-121185311D01*
X126194259Y-121316414D01*
X126194252Y-121316427D01*
X126133914Y-121462098D01*
X126133911Y-121462108D01*
X126123625Y-121513821D01*
X126091240Y-121575732D01*
X126030524Y-121610306D01*
X125964180Y-121607718D01*
X125950313Y-121603276D01*
X125938719Y-121596267D01*
X125785583Y-121548548D01*
X125777045Y-121547772D01*
X125764040Y-121543606D01*
X125745958Y-121531351D01*
X125725642Y-121523321D01*
X125717603Y-121512135D01*
X125706201Y-121504408D01*
X125697613Y-121484320D01*
X125684866Y-121466583D01*
X125683452Y-121462261D01*
X125683384Y-121462098D01*
X125633333Y-121341260D01*
X125623047Y-121316427D01*
X125623040Y-121316414D01*
X125535439Y-121185311D01*
X125535436Y-121185307D01*
X125423942Y-121073813D01*
X125423938Y-121073810D01*
X125292835Y-120986209D01*
X125292822Y-120986202D01*
X125147151Y-120925864D01*
X125147139Y-120925861D01*
X124992495Y-120895100D01*
X124992492Y-120895100D01*
X124834808Y-120895100D01*
X124834805Y-120895100D01*
X124680160Y-120925861D01*
X124680148Y-120925864D01*
X124534477Y-120986202D01*
X124534464Y-120986209D01*
X124403361Y-121073810D01*
X124403357Y-121073813D01*
X124291863Y-121185307D01*
X124291860Y-121185311D01*
X124204259Y-121316414D01*
X124204252Y-121316427D01*
X124143914Y-121462098D01*
X124143911Y-121462108D01*
X124133625Y-121513821D01*
X124101240Y-121575732D01*
X124040524Y-121610306D01*
X123974180Y-121607718D01*
X123960313Y-121603276D01*
X123948719Y-121596267D01*
X123795583Y-121548548D01*
X123787045Y-121547772D01*
X123774040Y-121543606D01*
X123755958Y-121531351D01*
X123735642Y-121523321D01*
X123727603Y-121512135D01*
X123716201Y-121504408D01*
X123707613Y-121484320D01*
X123694866Y-121466583D01*
X123693452Y-121462261D01*
X123693384Y-121462098D01*
X123643333Y-121341260D01*
X123633047Y-121316427D01*
X123633040Y-121316414D01*
X123545439Y-121185311D01*
X123545436Y-121185307D01*
X123442362Y-121082233D01*
X123408877Y-121020910D01*
X123413861Y-120951218D01*
X123442360Y-120906873D01*
X125008506Y-119340728D01*
X125008511Y-119340724D01*
X125018714Y-119330520D01*
X125018716Y-119330520D01*
X125130520Y-119218716D01*
X125193637Y-119109394D01*
X125209577Y-119081785D01*
X125240978Y-118964592D01*
X125269071Y-118915941D01*
X125267923Y-118914999D01*
X125271783Y-118910294D01*
X125271789Y-118910289D01*
X125359394Y-118779179D01*
X125419737Y-118633497D01*
X125450500Y-118478842D01*
X125450500Y-118321158D01*
X125450500Y-118321155D01*
X125450499Y-118321153D01*
X125444859Y-118292797D01*
X125419737Y-118166503D01*
X125397978Y-118113971D01*
X125359397Y-118020827D01*
X125359390Y-118020814D01*
X125271789Y-117889711D01*
X125271786Y-117889707D01*
X125213688Y-117831609D01*
X125209352Y-117823669D01*
X125202108Y-117818247D01*
X125192869Y-117793482D01*
X125180203Y-117770286D01*
X125180848Y-117761260D01*
X125177686Y-117752784D01*
X125183301Y-117726959D01*
X125185187Y-117700594D01*
X125191002Y-117691544D01*
X125192532Y-117684510D01*
X125213657Y-117656289D01*
X125213676Y-117656259D01*
X125215520Y-117654416D01*
X125215521Y-117654413D01*
X128293320Y-114576616D01*
X128372377Y-114439684D01*
X128413301Y-114286957D01*
X128413301Y-114128842D01*
X128413301Y-114121247D01*
X128413300Y-114121229D01*
X128413300Y-104305460D01*
X128413301Y-104305447D01*
X128413301Y-104137344D01*
X128400057Y-104087917D01*
X128372377Y-103984616D01*
X128311458Y-103879100D01*
X128293324Y-103847690D01*
X128293318Y-103847682D01*
X127568618Y-103122982D01*
X127535133Y-103061659D01*
X127532299Y-103035301D01*
X127532299Y-102877529D01*
X127532298Y-102877523D01*
X127532297Y-102877516D01*
X127525891Y-102817917D01*
X127513140Y-102783732D01*
X127508157Y-102714042D01*
X127513140Y-102697069D01*
X127525891Y-102662883D01*
X127532300Y-102603273D01*
X127532299Y-101607528D01*
X127525891Y-101547917D01*
X127513140Y-101513732D01*
X127508157Y-101444042D01*
X127513140Y-101427069D01*
X127525891Y-101392883D01*
X127532300Y-101333273D01*
X127532299Y-100337528D01*
X127525891Y-100277917D01*
X127513140Y-100243732D01*
X127508157Y-100174042D01*
X127513140Y-100157069D01*
X127525891Y-100122883D01*
X127532300Y-100063273D01*
X127532299Y-99067528D01*
X127525891Y-99007917D01*
X127513140Y-98973732D01*
X127508157Y-98904042D01*
X127513140Y-98887069D01*
X127525891Y-98852883D01*
X127532300Y-98793273D01*
X127532299Y-97797528D01*
X127525891Y-97737917D01*
X127513140Y-97703732D01*
X127508157Y-97634042D01*
X127513140Y-97617069D01*
X127525891Y-97582883D01*
X127532300Y-97523273D01*
X127532299Y-96527528D01*
X127525891Y-96467917D01*
X127513140Y-96433732D01*
X127508157Y-96364042D01*
X127513140Y-96347069D01*
X127525891Y-96312883D01*
X127532300Y-96253273D01*
X127532299Y-95257528D01*
X127525891Y-95197917D01*
X127513140Y-95163732D01*
X127508157Y-95094042D01*
X127513140Y-95077069D01*
X127525891Y-95042883D01*
X127532300Y-94983273D01*
X127532299Y-93987528D01*
X127525891Y-93927917D01*
X127513140Y-93893732D01*
X127508157Y-93824042D01*
X127513138Y-93807072D01*
X127525891Y-93772883D01*
X127532300Y-93713273D01*
X127532299Y-92717528D01*
X127525891Y-92657917D01*
X127513140Y-92623732D01*
X127508157Y-92554042D01*
X127513138Y-92537072D01*
X127525891Y-92502883D01*
X127532300Y-92443273D01*
X127532299Y-91447528D01*
X127525891Y-91387917D01*
X127513140Y-91353732D01*
X127508157Y-91284042D01*
X127513140Y-91267069D01*
X127525891Y-91232883D01*
X127532300Y-91173273D01*
X127532299Y-90177528D01*
X127525891Y-90117917D01*
X127512873Y-90083016D01*
X127507890Y-90013326D01*
X127512875Y-89996349D01*
X127525397Y-89962775D01*
X127525398Y-89962772D01*
X127531799Y-89903244D01*
X127531800Y-89903227D01*
X127531800Y-89655400D01*
X125031800Y-89655400D01*
X125031800Y-89903244D01*
X125038201Y-89962772D01*
X125038203Y-89962779D01*
X125050725Y-89996352D01*
X125055709Y-90066043D01*
X125050725Y-90083017D01*
X125037709Y-90117914D01*
X125037708Y-90117916D01*
X125031301Y-90177516D01*
X125031301Y-90177523D01*
X125031300Y-90177535D01*
X125031300Y-91173270D01*
X125031301Y-91173276D01*
X125037708Y-91232881D01*
X125050459Y-91267069D01*
X125055442Y-91336761D01*
X125050459Y-91353731D01*
X125037708Y-91387918D01*
X125031301Y-91447516D01*
X125031301Y-91447523D01*
X125031300Y-91447535D01*
X125031300Y-92383602D01*
X125011615Y-92450641D01*
X124958811Y-92496396D01*
X124954753Y-92498163D01*
X124868224Y-92534004D01*
X124868214Y-92534009D01*
X124737111Y-92621610D01*
X124737107Y-92621613D01*
X124625613Y-92733107D01*
X124625610Y-92733111D01*
X124538009Y-92864214D01*
X124538002Y-92864227D01*
X124477664Y-93009898D01*
X124477661Y-93009910D01*
X124446900Y-93164553D01*
X124446900Y-93322246D01*
X124477661Y-93476889D01*
X124477664Y-93476901D01*
X124538002Y-93622572D01*
X124538009Y-93622585D01*
X124625610Y-93753688D01*
X124625613Y-93753692D01*
X124649940Y-93778019D01*
X124683425Y-93839342D01*
X124678441Y-93909034D01*
X124654075Y-93946953D01*
X124654872Y-93947607D01*
X124651008Y-93952314D01*
X124563409Y-94083414D01*
X124563402Y-94083427D01*
X124503064Y-94229098D01*
X124503061Y-94229110D01*
X124472300Y-94383753D01*
X124472300Y-94541446D01*
X124503061Y-94696089D01*
X124503064Y-94696101D01*
X124563402Y-94841772D01*
X124563409Y-94841785D01*
X124651010Y-94972888D01*
X124651013Y-94972892D01*
X124762507Y-95084386D01*
X124762511Y-95084389D01*
X124893617Y-95171992D01*
X124893619Y-95171992D01*
X124893621Y-95171994D01*
X124948766Y-95194835D01*
X124954752Y-95197315D01*
X125009156Y-95241155D01*
X125031221Y-95307449D01*
X125031300Y-95311876D01*
X125031300Y-96253270D01*
X125031301Y-96253276D01*
X125037708Y-96312881D01*
X125050459Y-96347069D01*
X125055442Y-96416761D01*
X125050459Y-96433731D01*
X125037708Y-96467918D01*
X125033747Y-96504766D01*
X125031301Y-96527523D01*
X125031300Y-96527535D01*
X125031300Y-97523270D01*
X125031301Y-97523276D01*
X125037708Y-97582881D01*
X125050459Y-97617069D01*
X125055442Y-97686761D01*
X125050459Y-97703731D01*
X125037708Y-97737918D01*
X125032071Y-97790357D01*
X125031301Y-97797523D01*
X125031300Y-97797535D01*
X125031300Y-98793270D01*
X125031301Y-98793276D01*
X125037708Y-98852881D01*
X125050459Y-98887069D01*
X125055442Y-98956761D01*
X125050459Y-98973731D01*
X125037708Y-99007918D01*
X125034958Y-99033501D01*
X125031301Y-99067523D01*
X125031300Y-99067535D01*
X125031300Y-100063270D01*
X125031301Y-100063276D01*
X125037708Y-100122881D01*
X125050459Y-100157069D01*
X125055442Y-100226761D01*
X125050459Y-100243731D01*
X125037708Y-100277918D01*
X125031301Y-100337516D01*
X125031301Y-100337523D01*
X125031300Y-100337535D01*
X125031300Y-101333270D01*
X125031301Y-101333276D01*
X125037708Y-101392881D01*
X125050459Y-101427069D01*
X125055442Y-101496761D01*
X125050459Y-101513731D01*
X125037708Y-101547918D01*
X125035852Y-101565185D01*
X125031301Y-101607523D01*
X125031300Y-101607535D01*
X125031300Y-101925302D01*
X125011615Y-101992341D01*
X124994981Y-102012983D01*
X123725481Y-103282482D01*
X123725480Y-103282484D01*
X123697895Y-103330263D01*
X123669653Y-103379179D01*
X123646861Y-103418657D01*
X123646423Y-103419415D01*
X123605499Y-103572143D01*
X123605499Y-103572145D01*
X123605499Y-103740246D01*
X123605500Y-103740259D01*
X123605500Y-105790900D01*
X123585815Y-105857939D01*
X123533011Y-105903694D01*
X123481500Y-105914900D01*
X122753929Y-105914900D01*
X122753923Y-105914901D01*
X122694318Y-105921308D01*
X122660131Y-105934059D01*
X122590439Y-105939042D01*
X122573469Y-105934059D01*
X122555940Y-105927521D01*
X122539283Y-105921309D01*
X122539282Y-105921308D01*
X122479683Y-105914901D01*
X122479681Y-105914900D01*
X122479673Y-105914900D01*
X122479664Y-105914900D01*
X121483929Y-105914900D01*
X121483923Y-105914901D01*
X121424318Y-105921308D01*
X121390131Y-105934059D01*
X121320439Y-105939042D01*
X121303469Y-105934059D01*
X121285940Y-105927521D01*
X121269283Y-105921309D01*
X121269282Y-105921308D01*
X121209683Y-105914901D01*
X121209681Y-105914900D01*
X121209673Y-105914900D01*
X121209664Y-105914900D01*
X120213929Y-105914900D01*
X120213923Y-105914901D01*
X120154318Y-105921308D01*
X120120131Y-105934059D01*
X120050439Y-105939042D01*
X120033469Y-105934059D01*
X120015940Y-105927521D01*
X119999283Y-105921309D01*
X119999282Y-105921308D01*
X119939683Y-105914901D01*
X119939681Y-105914900D01*
X119939673Y-105914900D01*
X119939664Y-105914900D01*
X118943929Y-105914900D01*
X118943923Y-105914901D01*
X118884318Y-105921308D01*
X118850131Y-105934059D01*
X118780439Y-105939042D01*
X118763469Y-105934059D01*
X118745940Y-105927521D01*
X118729283Y-105921309D01*
X118729282Y-105921308D01*
X118669683Y-105914901D01*
X118669681Y-105914900D01*
X118669673Y-105914900D01*
X118669664Y-105914900D01*
X117673929Y-105914900D01*
X117673923Y-105914901D01*
X117614318Y-105921308D01*
X117580131Y-105934059D01*
X117510439Y-105939042D01*
X117493469Y-105934059D01*
X117475940Y-105927521D01*
X117459283Y-105921309D01*
X117459282Y-105921308D01*
X117399683Y-105914901D01*
X117399681Y-105914900D01*
X117399673Y-105914900D01*
X117399664Y-105914900D01*
X116403929Y-105914900D01*
X116403923Y-105914901D01*
X116344318Y-105921308D01*
X116310131Y-105934059D01*
X116240439Y-105939042D01*
X116223469Y-105934059D01*
X116205940Y-105927521D01*
X116189283Y-105921309D01*
X116189282Y-105921308D01*
X116129683Y-105914901D01*
X116129681Y-105914900D01*
X116129673Y-105914900D01*
X116129664Y-105914900D01*
X115133929Y-105914900D01*
X115133923Y-105914901D01*
X115074318Y-105921308D01*
X115040131Y-105934059D01*
X114970439Y-105939042D01*
X114953469Y-105934059D01*
X114935940Y-105927521D01*
X114919283Y-105921309D01*
X114919282Y-105921308D01*
X114859683Y-105914901D01*
X114859681Y-105914900D01*
X114859673Y-105914900D01*
X114859664Y-105914900D01*
X113863929Y-105914900D01*
X113863923Y-105914901D01*
X113804318Y-105921308D01*
X113770131Y-105934059D01*
X113700439Y-105939042D01*
X113683469Y-105934059D01*
X113665940Y-105927521D01*
X113649283Y-105921309D01*
X113649282Y-105921308D01*
X113589683Y-105914901D01*
X113589681Y-105914900D01*
X113589673Y-105914900D01*
X113589664Y-105914900D01*
X112593929Y-105914900D01*
X112593923Y-105914901D01*
X112534320Y-105921308D01*
X112534317Y-105921308D01*
X112534317Y-105921309D01*
X112499420Y-105934325D01*
X112499417Y-105934326D01*
X112429725Y-105939309D01*
X112412752Y-105934325D01*
X112379179Y-105921803D01*
X112379172Y-105921801D01*
X112319644Y-105915400D01*
X112071800Y-105915400D01*
X112071800Y-108415400D01*
X112319628Y-108415400D01*
X112319644Y-108415399D01*
X112379172Y-108408998D01*
X112379175Y-108408997D01*
X112412749Y-108396475D01*
X112482440Y-108391489D01*
X112499419Y-108396475D01*
X112534311Y-108409489D01*
X112534312Y-108409489D01*
X112534317Y-108409491D01*
X112593927Y-108415900D01*
X113589672Y-108415899D01*
X113649283Y-108409491D01*
X113683467Y-108396740D01*
X113753158Y-108391757D01*
X113770127Y-108396738D01*
X113804317Y-108409491D01*
X113863927Y-108415900D01*
X114859672Y-108415899D01*
X114919283Y-108409491D01*
X114953467Y-108396740D01*
X115023158Y-108391757D01*
X115040127Y-108396738D01*
X115074317Y-108409491D01*
X115133927Y-108415900D01*
X116129672Y-108415899D01*
X116189283Y-108409491D01*
X116223467Y-108396740D01*
X116293158Y-108391757D01*
X116310127Y-108396738D01*
X116338262Y-108407232D01*
X116344311Y-108409489D01*
X116344317Y-108409491D01*
X116403927Y-108415900D01*
X116617678Y-108415899D01*
X116684716Y-108435583D01*
X116730471Y-108488387D01*
X116740415Y-108557545D01*
X116711390Y-108621101D01*
X116705359Y-108627580D01*
X116650282Y-108682657D01*
X116558243Y-108831875D01*
X116558241Y-108831880D01*
X116503094Y-108998302D01*
X116503093Y-108998309D01*
X116492600Y-109101013D01*
X116492600Y-109351000D01*
X117468600Y-109351000D01*
X117535639Y-109370685D01*
X117581394Y-109423489D01*
X117592600Y-109475000D01*
X117592600Y-109601000D01*
X117718600Y-109601000D01*
X117785639Y-109620685D01*
X117831394Y-109673489D01*
X117842600Y-109725000D01*
X117842600Y-110800999D01*
X117877700Y-110800999D01*
X117944739Y-110820684D01*
X117990494Y-110873488D01*
X118001700Y-110924999D01*
X118001700Y-114359029D01*
X118001699Y-114359047D01*
X118001699Y-114524753D01*
X118001698Y-114524753D01*
X118011630Y-114561818D01*
X118042623Y-114677484D01*
X118050356Y-114690878D01*
X118050357Y-114690881D01*
X118050358Y-114690881D01*
X118121677Y-114814411D01*
X118121681Y-114814416D01*
X118240549Y-114933284D01*
X118240555Y-114933289D01*
X118421679Y-115114413D01*
X118421681Y-115114416D01*
X118423897Y-115116632D01*
X118423918Y-115116670D01*
X118446247Y-115149524D01*
X118446485Y-115149384D01*
X118448717Y-115153159D01*
X118450002Y-115155049D01*
X118450456Y-115156100D01*
X118534116Y-115297561D01*
X118538902Y-115303731D01*
X118536456Y-115305627D01*
X118563057Y-115354342D01*
X118558073Y-115424034D01*
X118537269Y-115456403D01*
X118538902Y-115457669D01*
X118534117Y-115463837D01*
X118450455Y-115605303D01*
X118450454Y-115605306D01*
X118404602Y-115763126D01*
X118404601Y-115763132D01*
X118401700Y-115799998D01*
X118401700Y-116231401D01*
X118404601Y-116268267D01*
X118404602Y-116268273D01*
X118450454Y-116426093D01*
X118450455Y-116426096D01*
X118534117Y-116567562D01*
X118538902Y-116573731D01*
X118536456Y-116575627D01*
X118563057Y-116624342D01*
X118558073Y-116694034D01*
X118537269Y-116726403D01*
X118538902Y-116727669D01*
X118534117Y-116733837D01*
X118450455Y-116875303D01*
X118450454Y-116875306D01*
X118404602Y-117033126D01*
X118404601Y-117033132D01*
X118401700Y-117069998D01*
X118401700Y-117501401D01*
X118404601Y-117538267D01*
X118404602Y-117538273D01*
X118450454Y-117696093D01*
X118450455Y-117696096D01*
X118477649Y-117742079D01*
X118494832Y-117809803D01*
X118472672Y-117876066D01*
X118418206Y-117919829D01*
X118370917Y-117929200D01*
X118331700Y-117929200D01*
X118331700Y-119079200D01*
X119244199Y-119079200D01*
X119244199Y-118629228D01*
X119244198Y-118629213D01*
X119233705Y-118526502D01*
X119178558Y-118360080D01*
X119178556Y-118360075D01*
X119126264Y-118275297D01*
X119107824Y-118207905D01*
X119128746Y-118141241D01*
X119182388Y-118096471D01*
X119231803Y-118086200D01*
X120767886Y-118086200D01*
X120767894Y-118086200D01*
X120804769Y-118083298D01*
X120804771Y-118083297D01*
X120804773Y-118083297D01*
X120893042Y-118057652D01*
X120962598Y-118037444D01*
X121104065Y-117953781D01*
X121135326Y-117922520D01*
X121196648Y-117889034D01*
X121223008Y-117886200D01*
X123810789Y-117886200D01*
X123877828Y-117905885D01*
X123923583Y-117958689D01*
X123933527Y-118027847D01*
X123925350Y-118057652D01*
X123880264Y-118166498D01*
X123880261Y-118166510D01*
X123849500Y-118321153D01*
X123849500Y-118478846D01*
X123880260Y-118633488D01*
X123880263Y-118633497D01*
X123888685Y-118653831D01*
X123896151Y-118723300D01*
X123864874Y-118785778D01*
X123861803Y-118788960D01*
X121158045Y-121492718D01*
X121158025Y-121492738D01*
X121156936Y-121493828D01*
X121156934Y-121493830D01*
X121045130Y-121605634D01*
X121036573Y-121620454D01*
X121026412Y-121631140D01*
X121013807Y-121638439D01*
X121000707Y-121651806D01*
X120955313Y-121679248D01*
X120841893Y-121792669D01*
X120841892Y-121792670D01*
X120758917Y-121929929D01*
X120758915Y-121929933D01*
X120736452Y-122002022D01*
X120697715Y-122060170D01*
X120633689Y-122088144D01*
X120564704Y-122077062D01*
X120512661Y-122030444D01*
X120512528Y-122030229D01*
X120462870Y-121949721D01*
X120338900Y-121825751D01*
X120250000Y-121770916D01*
X120250000Y-121450000D01*
X117500000Y-121450000D01*
X117500000Y-121717615D01*
X117451435Y-121733708D01*
X117451430Y-121733710D01*
X117302209Y-121825751D01*
X117178237Y-121949723D01*
X117126386Y-122033787D01*
X117074438Y-122080511D01*
X117005475Y-122091732D01*
X116941393Y-122063889D01*
X116915309Y-122033785D01*
X116863267Y-121949411D01*
X116739212Y-121825356D01*
X116739211Y-121825355D01*
X116589889Y-121733253D01*
X116423352Y-121678068D01*
X116423350Y-121678067D01*
X116320571Y-121667567D01*
X116320564Y-121667567D01*
X115898700Y-121667567D01*
X115831661Y-121647882D01*
X115785906Y-121595078D01*
X115774700Y-121543567D01*
X115774700Y-120680073D01*
X115794385Y-120613034D01*
X115833610Y-120574530D01*
X115837856Y-120571912D01*
X115961912Y-120447856D01*
X116054014Y-120298534D01*
X116054016Y-120298526D01*
X116057064Y-120291991D01*
X116059400Y-120293080D01*
X116092309Y-120245550D01*
X116156825Y-120218728D01*
X116170241Y-120218000D01*
X116180567Y-120218000D01*
X116180568Y-120217999D01*
X116338602Y-120186565D01*
X116487468Y-120124902D01*
X116621445Y-120035382D01*
X116707746Y-119949080D01*
X116769067Y-119915597D01*
X116838759Y-119920581D01*
X116894693Y-119962452D01*
X116918426Y-120026083D01*
X116918880Y-120026037D01*
X116919057Y-120027775D01*
X116919110Y-120027916D01*
X116919167Y-120028848D01*
X116929694Y-120131897D01*
X116984841Y-120298319D01*
X116984843Y-120298324D01*
X117076884Y-120447545D01*
X117200854Y-120571515D01*
X117350075Y-120663556D01*
X117350080Y-120663558D01*
X117516502Y-120718705D01*
X117516509Y-120718706D01*
X117619219Y-120729199D01*
X117831699Y-120729199D01*
X118331700Y-120729199D01*
X118544172Y-120729199D01*
X118544186Y-120729198D01*
X118646897Y-120718705D01*
X118813319Y-120663558D01*
X118813324Y-120663556D01*
X118962545Y-120571515D01*
X119086515Y-120447545D01*
X119178556Y-120298324D01*
X119178558Y-120298319D01*
X119233705Y-120131897D01*
X119233706Y-120131890D01*
X119244199Y-120029186D01*
X119244200Y-120029173D01*
X119244200Y-119579200D01*
X118331700Y-119579200D01*
X118331700Y-120729199D01*
X117831699Y-120729199D01*
X117831700Y-120729198D01*
X117831700Y-117929200D01*
X117619229Y-117929200D01*
X117619212Y-117929201D01*
X117516502Y-117939694D01*
X117350080Y-117994841D01*
X117350075Y-117994843D01*
X117200854Y-118086884D01*
X117076884Y-118210854D01*
X116984843Y-118360075D01*
X116984841Y-118360080D01*
X116929694Y-118526502D01*
X116929693Y-118526509D01*
X116919200Y-118629213D01*
X116919200Y-118763010D01*
X116899515Y-118830049D01*
X116846711Y-118875804D01*
X116777553Y-118885748D01*
X116713997Y-118856723D01*
X116707519Y-118850691D01*
X116621447Y-118764619D01*
X116487466Y-118675096D01*
X116338602Y-118613435D01*
X116338594Y-118613433D01*
X116194692Y-118584809D01*
X116132781Y-118552424D01*
X116101178Y-118502197D01*
X116054014Y-118359866D01*
X116012644Y-118292794D01*
X115994205Y-118225404D01*
X116015128Y-118158741D01*
X116068770Y-118113971D01*
X116118184Y-118103700D01*
X116285567Y-118103700D01*
X116285568Y-118103699D01*
X116443602Y-118072265D01*
X116592468Y-118010602D01*
X116726445Y-117921082D01*
X116840382Y-117807145D01*
X116929902Y-117673168D01*
X116991565Y-117524302D01*
X117023000Y-117366266D01*
X117023000Y-117205134D01*
X116991565Y-117047098D01*
X116948204Y-116942416D01*
X116929903Y-116898233D01*
X116840380Y-116764252D01*
X116726447Y-116650319D01*
X116592465Y-116560796D01*
X116447244Y-116500643D01*
X116392840Y-116456801D01*
X116370776Y-116390507D01*
X116375621Y-116351487D01*
X116399797Y-116268273D01*
X116399798Y-116268267D01*
X116402699Y-116231401D01*
X116402700Y-116231394D01*
X116402700Y-115800006D01*
X116399798Y-115763131D01*
X116353944Y-115605302D01*
X116270281Y-115463835D01*
X116270278Y-115463832D01*
X116265498Y-115457669D01*
X116267950Y-115455766D01*
X116241355Y-115407121D01*
X116246304Y-115337426D01*
X116267140Y-115305004D01*
X116265498Y-115303731D01*
X116270275Y-115297570D01*
X116270281Y-115297565D01*
X116353944Y-115156098D01*
X116399798Y-114998269D01*
X116402700Y-114961394D01*
X116402700Y-114530006D01*
X116399798Y-114493131D01*
X116398704Y-114489366D01*
X116353945Y-114335306D01*
X116353944Y-114335303D01*
X116353944Y-114335302D01*
X116270281Y-114193835D01*
X116270278Y-114193832D01*
X116265498Y-114187669D01*
X116267835Y-114185855D01*
X116240998Y-114136750D01*
X116245956Y-114067056D01*
X116266754Y-114034698D01*
X116265103Y-114033417D01*
X116269886Y-114027250D01*
X116353481Y-113885898D01*
X116399300Y-113728186D01*
X116399495Y-113725701D01*
X116399495Y-113725700D01*
X115051200Y-113725700D01*
X114984161Y-113706015D01*
X114938406Y-113653211D01*
X114927200Y-113601700D01*
X114927200Y-113475700D01*
X114801200Y-113475700D01*
X114734161Y-113456015D01*
X114688406Y-113403211D01*
X114677200Y-113351700D01*
X114677200Y-113225700D01*
X115177200Y-113225700D01*
X116399495Y-113225700D01*
X116399495Y-113225698D01*
X116399300Y-113223213D01*
X116353481Y-113065501D01*
X116269885Y-112924147D01*
X116269878Y-112924138D01*
X116153761Y-112808021D01*
X116153752Y-112808014D01*
X116012396Y-112724417D01*
X116012393Y-112724416D01*
X115854695Y-112678600D01*
X115854689Y-112678599D01*
X115817849Y-112675700D01*
X115177200Y-112675700D01*
X115177200Y-113225700D01*
X114677200Y-113225700D01*
X114677200Y-112675700D01*
X114036550Y-112675700D01*
X113999710Y-112678599D01*
X113999704Y-112678600D01*
X113842006Y-112724416D01*
X113842005Y-112724416D01*
X113733627Y-112788510D01*
X113706024Y-112795512D01*
X113679353Y-112805461D01*
X113672602Y-112803992D01*
X113665903Y-112805692D01*
X113638899Y-112796660D01*
X113611080Y-112790609D01*
X113603227Y-112784730D01*
X113599641Y-112783531D01*
X113582826Y-112769458D01*
X113460766Y-112647398D01*
X113427281Y-112586075D01*
X113424447Y-112559717D01*
X113424447Y-112458955D01*
X113424446Y-112458953D01*
X113414353Y-112408211D01*
X113393684Y-112304303D01*
X113377482Y-112265187D01*
X113333344Y-112158627D01*
X113333337Y-112158614D01*
X113245736Y-112027511D01*
X113245733Y-112027507D01*
X113134239Y-111916013D01*
X113134235Y-111916010D01*
X113003132Y-111828409D01*
X113003119Y-111828402D01*
X112857448Y-111768064D01*
X112857436Y-111768061D01*
X112702792Y-111737300D01*
X112702789Y-111737300D01*
X112545105Y-111737300D01*
X112545102Y-111737300D01*
X112390457Y-111768061D01*
X112390445Y-111768064D01*
X112244774Y-111828402D01*
X112244761Y-111828409D01*
X112113658Y-111916010D01*
X112113654Y-111916013D01*
X112002160Y-112027507D01*
X112002157Y-112027511D01*
X111914556Y-112158614D01*
X111914549Y-112158627D01*
X111854211Y-112304298D01*
X111854208Y-112304310D01*
X111823447Y-112458953D01*
X111823447Y-112596622D01*
X111814802Y-112626059D01*
X111808279Y-112656050D01*
X111804524Y-112661065D01*
X111803762Y-112663661D01*
X111787127Y-112684304D01*
X111730079Y-112741351D01*
X111668756Y-112774835D01*
X111599064Y-112769850D01*
X111554718Y-112741350D01*
X111461057Y-112647689D01*
X111461056Y-112647688D01*
X111350646Y-112579587D01*
X111311736Y-112555587D01*
X111311731Y-112555585D01*
X111298498Y-112551200D01*
X111145197Y-112500401D01*
X111145195Y-112500400D01*
X111042410Y-112489900D01*
X110242398Y-112489900D01*
X110242380Y-112489901D01*
X110139603Y-112500400D01*
X110139600Y-112500401D01*
X109973068Y-112555585D01*
X109973063Y-112555587D01*
X109823742Y-112647689D01*
X109699689Y-112771742D01*
X109607587Y-112921063D01*
X109607585Y-112921068D01*
X109584758Y-112989956D01*
X109552401Y-113087603D01*
X109552401Y-113087604D01*
X109552400Y-113087604D01*
X109541900Y-113190383D01*
X109541900Y-114190401D01*
X109541901Y-114190419D01*
X109552400Y-114293196D01*
X109569996Y-114346297D01*
X109590409Y-114407897D01*
X109592811Y-114477724D01*
X109557080Y-114537766D01*
X109494559Y-114568959D01*
X109472703Y-114570900D01*
X108944144Y-114570900D01*
X108877105Y-114551215D01*
X108831350Y-114498411D01*
X108821406Y-114429253D01*
X108835360Y-114390748D01*
X108834360Y-114390282D01*
X108837408Y-114383743D01*
X108837414Y-114383734D01*
X108892599Y-114217197D01*
X108903100Y-114114409D01*
X108903099Y-113214392D01*
X108900647Y-113190392D01*
X108892599Y-113111603D01*
X108892598Y-113111600D01*
X108837414Y-112945066D01*
X108745312Y-112795744D01*
X108621256Y-112671688D01*
X108499554Y-112596622D01*
X108471936Y-112579587D01*
X108471931Y-112579585D01*
X108411973Y-112559717D01*
X108305397Y-112524401D01*
X108305395Y-112524400D01*
X108202610Y-112513900D01*
X106852598Y-112513900D01*
X106852580Y-112513901D01*
X106760401Y-112523318D01*
X106691708Y-112510548D01*
X106660121Y-112487643D01*
X106580689Y-112408211D01*
X106580688Y-112408210D01*
X106580687Y-112408209D01*
X106449585Y-112320609D01*
X106449572Y-112320602D01*
X106303901Y-112260264D01*
X106303889Y-112260261D01*
X106149245Y-112229500D01*
X106149242Y-112229500D01*
X105991558Y-112229500D01*
X105991555Y-112229500D01*
X105836910Y-112260261D01*
X105836898Y-112260264D01*
X105691227Y-112320602D01*
X105691214Y-112320609D01*
X105560111Y-112408210D01*
X105560107Y-112408213D01*
X105448613Y-112519707D01*
X105448610Y-112519711D01*
X105361003Y-112650824D01*
X105360242Y-112652248D01*
X105359647Y-112652853D01*
X105357621Y-112655886D01*
X105357045Y-112655501D01*
X105311276Y-112702089D01*
X105243138Y-112717545D01*
X105177460Y-112693708D01*
X105136327Y-112641240D01*
X105120994Y-112604221D01*
X105120990Y-112604214D01*
X105033389Y-112473111D01*
X105033386Y-112473107D01*
X104921892Y-112361613D01*
X104921888Y-112361610D01*
X104790785Y-112274009D01*
X104790772Y-112274002D01*
X104645101Y-112213664D01*
X104645089Y-112213661D01*
X104490445Y-112182900D01*
X104490442Y-112182900D01*
X104332758Y-112182900D01*
X104332755Y-112182900D01*
X104178110Y-112213661D01*
X104178098Y-112213664D01*
X104032427Y-112274002D01*
X104032414Y-112274009D01*
X103901311Y-112361610D01*
X103901307Y-112361613D01*
X103789813Y-112473107D01*
X103789810Y-112473111D01*
X103702209Y-112604214D01*
X103702202Y-112604227D01*
X103641864Y-112749898D01*
X103641862Y-112749905D01*
X103637528Y-112771694D01*
X103605142Y-112833604D01*
X103544425Y-112868177D01*
X103515911Y-112871500D01*
X103199931Y-112871500D01*
X103199912Y-112871501D01*
X103098847Y-112881825D01*
X102935084Y-112936092D01*
X102935081Y-112936093D01*
X102788248Y-113026661D01*
X102666261Y-113148648D01*
X102575693Y-113295481D01*
X102575692Y-113295484D01*
X102521426Y-113459247D01*
X102521426Y-113459248D01*
X102521425Y-113459248D01*
X102511100Y-113560315D01*
X102511100Y-114133669D01*
X102511101Y-114133687D01*
X102521425Y-114234752D01*
X102521426Y-114234755D01*
X102562762Y-114359496D01*
X102565164Y-114429324D01*
X102529432Y-114489366D01*
X102466912Y-114520559D01*
X102445056Y-114522500D01*
X102129331Y-114522500D01*
X102129312Y-114522501D01*
X102028247Y-114532825D01*
X101864484Y-114587092D01*
X101864481Y-114587093D01*
X101717651Y-114677659D01*
X101624188Y-114771122D01*
X101562864Y-114804606D01*
X101493173Y-114799622D01*
X101437240Y-114757750D01*
X101412823Y-114692285D01*
X101414890Y-114659248D01*
X101435300Y-114556644D01*
X101435300Y-114398955D01*
X101435299Y-114398953D01*
X101427361Y-114359047D01*
X101404537Y-114244303D01*
X101400581Y-114234752D01*
X101344197Y-114098627D01*
X101344190Y-114098614D01*
X101256589Y-113967511D01*
X101256586Y-113967507D01*
X101145092Y-113856013D01*
X101145088Y-113856010D01*
X101013985Y-113768409D01*
X101013972Y-113768402D01*
X100868301Y-113708064D01*
X100868289Y-113708061D01*
X100713645Y-113677300D01*
X100713642Y-113677300D01*
X100555958Y-113677300D01*
X100555955Y-113677300D01*
X100401310Y-113708061D01*
X100401298Y-113708064D01*
X100255627Y-113768402D01*
X100255614Y-113768409D01*
X100124511Y-113856010D01*
X100124507Y-113856013D01*
X100013013Y-113967507D01*
X100013010Y-113967511D01*
X99925409Y-114098614D01*
X99925402Y-114098627D01*
X99865064Y-114244298D01*
X99865061Y-114244310D01*
X99834300Y-114398953D01*
X99834300Y-114398958D01*
X99834300Y-114556642D01*
X99834300Y-114556644D01*
X99834299Y-114556644D01*
X99851128Y-114641243D01*
X99844901Y-114710835D01*
X99817194Y-114753115D01*
X99770660Y-114799650D01*
X99680093Y-114946481D01*
X99680091Y-114946486D01*
X99662933Y-114998267D01*
X99625826Y-115110247D01*
X99625826Y-115110248D01*
X99625825Y-115110248D01*
X99615500Y-115211315D01*
X99615500Y-115784669D01*
X99615501Y-115784687D01*
X99625825Y-115885752D01*
X99680092Y-116049515D01*
X99680093Y-116049518D01*
X99770661Y-116196351D01*
X99803779Y-116229469D01*
X99837264Y-116290792D01*
X99832280Y-116360484D01*
X99803779Y-116404831D01*
X99770661Y-116437948D01*
X99680093Y-116584781D01*
X99680092Y-116584784D01*
X99625826Y-116748547D01*
X99625826Y-116748548D01*
X99625825Y-116748548D01*
X99615500Y-116849615D01*
X99615500Y-117422969D01*
X99615501Y-117422987D01*
X99625825Y-117524052D01*
X99661946Y-117633056D01*
X99678996Y-117684510D01*
X99680092Y-117687815D01*
X99680093Y-117687818D01*
X99704236Y-117726959D01*
X99768784Y-117831609D01*
X99770661Y-117834651D01*
X99803779Y-117867769D01*
X99837264Y-117929092D01*
X99832280Y-117998784D01*
X99803779Y-118043131D01*
X99770661Y-118076248D01*
X99680093Y-118223081D01*
X99680092Y-118223084D01*
X99625826Y-118386847D01*
X99625826Y-118386848D01*
X99625825Y-118386848D01*
X99615500Y-118487915D01*
X99615500Y-119061269D01*
X99615501Y-119061287D01*
X99625825Y-119162352D01*
X99680092Y-119326115D01*
X99680093Y-119326118D01*
X99698911Y-119356627D01*
X99770660Y-119472950D01*
X99892650Y-119594940D01*
X100039484Y-119685508D01*
X100203247Y-119739774D01*
X100304323Y-119750100D01*
X100902676Y-119750099D01*
X100902684Y-119750098D01*
X100902687Y-119750098D01*
X100958030Y-119744444D01*
X101003753Y-119739774D01*
X101167516Y-119685508D01*
X101314350Y-119594940D01*
X101428319Y-119480971D01*
X101489642Y-119447486D01*
X101559334Y-119452470D01*
X101603681Y-119480971D01*
X101717650Y-119594940D01*
X101864484Y-119685508D01*
X102028247Y-119739774D01*
X102129323Y-119750100D01*
X102727676Y-119750099D01*
X102727684Y-119750098D01*
X102727687Y-119750098D01*
X102783030Y-119744444D01*
X102828753Y-119739774D01*
X102992516Y-119685508D01*
X103139350Y-119594940D01*
X103150791Y-119583498D01*
X103212112Y-119550013D01*
X103262666Y-119549561D01*
X103391055Y-119575100D01*
X103391058Y-119575100D01*
X103548744Y-119575100D01*
X103548745Y-119575099D01*
X103703397Y-119544337D01*
X103849079Y-119483994D01*
X103980189Y-119396389D01*
X104091689Y-119284889D01*
X104179294Y-119153779D01*
X104239637Y-119008097D01*
X104270400Y-118853442D01*
X104270400Y-118810528D01*
X104290085Y-118743489D01*
X104342889Y-118697734D01*
X104412047Y-118687790D01*
X104475603Y-118716815D01*
X104482081Y-118722847D01*
X105028180Y-119268946D01*
X105061665Y-119330269D01*
X105064499Y-119356627D01*
X105064499Y-120931500D01*
X105044814Y-120998539D01*
X104992010Y-121044294D01*
X104940499Y-121055500D01*
X104775200Y-121055500D01*
X104587949Y-121085157D01*
X104587946Y-121085157D01*
X104587945Y-121085158D01*
X104529482Y-121104153D01*
X104407627Y-121143747D01*
X104238703Y-121229819D01*
X104085319Y-121341260D01*
X103951260Y-121475319D01*
X103839819Y-121628703D01*
X103753747Y-121797627D01*
X103720513Y-121899910D01*
X103704430Y-121949411D01*
X103695157Y-121977949D01*
X103665500Y-122165199D01*
X103665500Y-122223682D01*
X103645815Y-122290721D01*
X103593011Y-122336476D01*
X103523853Y-122346420D01*
X103465371Y-122321562D01*
X103023728Y-121978062D01*
X101158205Y-120527100D01*
X101139915Y-120513525D01*
X101130827Y-120507092D01*
X101130823Y-120507089D01*
X101130800Y-120507073D01*
X101112073Y-120494437D01*
X101112072Y-120494436D01*
X101112067Y-120494433D01*
X101039774Y-120461417D01*
X100981193Y-120434663D01*
X100914148Y-120414976D01*
X100866675Y-120408150D01*
X100771731Y-120394500D01*
X89176410Y-120394500D01*
X89176401Y-120394500D01*
X89092570Y-120401500D01*
X89092555Y-120401502D01*
X89052016Y-120408321D01*
X89052001Y-120408324D01*
X88970490Y-120429132D01*
X87918068Y-120793431D01*
X87895494Y-120801853D01*
X87884575Y-120806226D01*
X87862495Y-120815682D01*
X87862493Y-120815683D01*
X87741462Y-120893466D01*
X87741451Y-120893474D01*
X87687710Y-120940041D01*
X87624155Y-120969066D01*
X87554996Y-120959122D01*
X87537799Y-120949550D01*
X86724744Y-120408321D01*
X86111529Y-120000119D01*
X86111448Y-120000065D01*
X86111324Y-119999983D01*
X86107860Y-119997698D01*
X86107830Y-119997678D01*
X86107320Y-119997344D01*
X86106190Y-119996606D01*
X86102839Y-119994433D01*
X85992352Y-119943974D01*
X85971965Y-119934663D01*
X85904920Y-119914976D01*
X85857447Y-119908150D01*
X85762503Y-119894500D01*
X82639257Y-119894500D01*
X82639246Y-119894500D01*
X82628702Y-119894610D01*
X82625233Y-119894683D01*
X82623472Y-119894720D01*
X82616181Y-119894949D01*
X82612810Y-119895055D01*
X82612807Y-119895056D01*
X82471385Y-119921495D01*
X82471384Y-119921495D01*
X82405240Y-119943974D01*
X82405229Y-119943979D01*
X82276982Y-120009191D01*
X82276981Y-120009192D01*
X77073652Y-123670793D01*
X77007499Y-123693276D01*
X77001598Y-123693383D01*
X59928807Y-123598004D01*
X59861879Y-123577945D01*
X59816420Y-123524887D01*
X59805500Y-123474006D01*
X59805500Y-120662819D01*
X59825185Y-120595780D01*
X59877989Y-120550025D01*
X59947147Y-120540081D01*
X59981010Y-120550024D01*
X60014541Y-120565338D01*
X60081580Y-120585023D01*
X60081584Y-120585024D01*
X60224000Y-120605500D01*
X60476000Y-120605500D01*
X60543039Y-120625185D01*
X60588794Y-120677989D01*
X60600000Y-120729500D01*
X60600000Y-121200015D01*
X60602998Y-121304955D01*
X60602999Y-121304991D01*
X60603879Y-121316427D01*
X60611000Y-121409000D01*
X60625000Y-121513000D01*
X60640141Y-121595078D01*
X60643999Y-121615995D01*
X60643999Y-121615998D01*
X60658882Y-121679248D01*
X60668000Y-121718000D01*
X60672713Y-121733710D01*
X60698001Y-121818005D01*
X60720734Y-121882306D01*
X60733000Y-121917000D01*
X60773000Y-122013000D01*
X60818000Y-122108000D01*
X60868000Y-122200000D01*
X60908336Y-122265271D01*
X60923005Y-122289008D01*
X60976614Y-122368058D01*
X60982000Y-122376000D01*
X60982012Y-122376015D01*
X60982016Y-122376021D01*
X61045997Y-122458997D01*
X61113999Y-122537999D01*
X61114009Y-122538010D01*
X61185999Y-122614000D01*
X61261989Y-122685990D01*
X61262000Y-122686000D01*
X61341002Y-122754002D01*
X61417906Y-122813301D01*
X61424000Y-122818000D01*
X61511000Y-122877000D01*
X61600000Y-122932000D01*
X61692000Y-122982000D01*
X61787000Y-123027000D01*
X61883000Y-123067000D01*
X61982000Y-123102000D01*
X62082000Y-123132000D01*
X62184000Y-123156000D01*
X62287000Y-123175000D01*
X62391000Y-123189000D01*
X62495000Y-123197000D01*
X62534396Y-123198125D01*
X62599985Y-123200000D01*
X62600000Y-123200000D01*
X70600015Y-123200000D01*
X70662979Y-123198200D01*
X70705000Y-123197000D01*
X70809000Y-123189000D01*
X70913000Y-123175000D01*
X71016000Y-123156000D01*
X71118000Y-123132000D01*
X71218000Y-123102000D01*
X71317000Y-123067000D01*
X71413000Y-123027000D01*
X71508000Y-122982000D01*
X71600000Y-122932000D01*
X71689000Y-122877000D01*
X71776000Y-122818000D01*
X71859000Y-122754000D01*
X71938000Y-122686000D01*
X72014000Y-122614000D01*
X72086000Y-122538000D01*
X72154000Y-122459000D01*
X72218000Y-122376000D01*
X72277000Y-122289000D01*
X72332000Y-122200000D01*
X72382000Y-122108000D01*
X72427000Y-122013000D01*
X72467000Y-121917000D01*
X72502000Y-121818000D01*
X72532000Y-121718000D01*
X72556000Y-121616000D01*
X72575000Y-121513000D01*
X72589000Y-121409000D01*
X72597000Y-121305000D01*
X72600000Y-121200000D01*
X72600000Y-120719324D01*
X72619685Y-120652285D01*
X72672489Y-120606530D01*
X72723549Y-120595325D01*
X75670946Y-120584703D01*
X75680598Y-120584576D01*
X75685355Y-120584468D01*
X75695098Y-120584153D01*
X75836529Y-120557717D01*
X75902683Y-120535236D01*
X76030935Y-120470026D01*
X81643121Y-116520944D01*
X87169800Y-116520944D01*
X87176201Y-116580472D01*
X87176203Y-116580479D01*
X87226445Y-116715186D01*
X87226449Y-116715193D01*
X87312609Y-116830287D01*
X87312612Y-116830290D01*
X87427706Y-116916450D01*
X87427713Y-116916454D01*
X87562420Y-116966696D01*
X87562427Y-116966698D01*
X87621955Y-116973099D01*
X87621972Y-116973100D01*
X87750000Y-116973100D01*
X88250000Y-116973100D01*
X88378028Y-116973100D01*
X88378044Y-116973099D01*
X88437572Y-116966698D01*
X88437579Y-116966696D01*
X88572286Y-116916454D01*
X88572293Y-116916450D01*
X88687387Y-116830290D01*
X88687390Y-116830287D01*
X88773550Y-116715193D01*
X88773554Y-116715186D01*
X88823796Y-116580479D01*
X88823798Y-116580472D01*
X88830199Y-116520944D01*
X88830200Y-116520927D01*
X88830200Y-116050000D01*
X88250000Y-116050000D01*
X88250000Y-116973100D01*
X87750000Y-116973100D01*
X87750000Y-116050000D01*
X87169800Y-116050000D01*
X87169800Y-116520944D01*
X81643121Y-116520944D01*
X83692243Y-115079055D01*
X87169800Y-115079055D01*
X87169800Y-115550000D01*
X87750000Y-115550000D01*
X88250000Y-115550000D01*
X88830200Y-115550000D01*
X88830200Y-115079072D01*
X88830199Y-115079055D01*
X88823798Y-115019527D01*
X88823796Y-115019520D01*
X88773554Y-114884813D01*
X88773550Y-114884806D01*
X88687390Y-114769712D01*
X88687387Y-114769709D01*
X88572293Y-114683549D01*
X88572286Y-114683545D01*
X88437579Y-114633303D01*
X88437572Y-114633301D01*
X88378044Y-114626900D01*
X88250000Y-114626900D01*
X88250000Y-115550000D01*
X87750000Y-115550000D01*
X87750000Y-114626900D01*
X87621955Y-114626900D01*
X87562427Y-114633301D01*
X87562420Y-114633303D01*
X87427713Y-114683545D01*
X87427706Y-114683549D01*
X87312612Y-114769709D01*
X87312609Y-114769712D01*
X87226449Y-114884806D01*
X87226445Y-114884813D01*
X87176203Y-115019520D01*
X87176201Y-115019527D01*
X87169800Y-115079055D01*
X83692243Y-115079055D01*
X89438258Y-111035803D01*
X89512227Y-110972252D01*
X89545184Y-110937881D01*
X89605567Y-110861320D01*
X89665338Y-110730443D01*
X89674281Y-110699986D01*
X94600001Y-110699986D01*
X94610494Y-110802697D01*
X94665641Y-110969119D01*
X94665643Y-110969124D01*
X94757684Y-111118345D01*
X94881654Y-111242315D01*
X95030875Y-111334356D01*
X95030880Y-111334358D01*
X95197302Y-111389505D01*
X95197309Y-111389506D01*
X95300019Y-111399999D01*
X95749999Y-111399999D01*
X96250000Y-111399999D01*
X96699972Y-111399999D01*
X96699986Y-111399998D01*
X96802697Y-111389505D01*
X96969119Y-111334358D01*
X96969124Y-111334356D01*
X97118345Y-111242315D01*
X97242315Y-111118345D01*
X97334356Y-110969124D01*
X97334358Y-110969119D01*
X97389505Y-110802697D01*
X97389506Y-110802690D01*
X97399999Y-110699986D01*
X97400000Y-110699973D01*
X97400000Y-110487500D01*
X96250000Y-110487500D01*
X96250000Y-111399999D01*
X95749999Y-111399999D01*
X95750000Y-111399998D01*
X95750000Y-110487500D01*
X94600001Y-110487500D01*
X94600001Y-110699986D01*
X89674281Y-110699986D01*
X89685023Y-110663404D01*
X89685024Y-110663400D01*
X89705500Y-110520984D01*
X89705500Y-109775013D01*
X94600000Y-109775013D01*
X94600000Y-109987500D01*
X95750000Y-109987500D01*
X96250000Y-109987500D01*
X97399999Y-109987500D01*
X97399999Y-109775028D01*
X97399998Y-109775013D01*
X97389505Y-109672302D01*
X97334358Y-109505880D01*
X97334356Y-109505875D01*
X97242315Y-109356654D01*
X97118345Y-109232684D01*
X96969124Y-109140643D01*
X96969119Y-109140641D01*
X96802697Y-109085494D01*
X96802690Y-109085493D01*
X96699986Y-109075000D01*
X96250000Y-109075000D01*
X96250000Y-109987500D01*
X95750000Y-109987500D01*
X95750000Y-109075000D01*
X95300028Y-109075000D01*
X95300012Y-109075001D01*
X95197302Y-109085494D01*
X95030880Y-109140641D01*
X95030875Y-109140643D01*
X94881654Y-109232684D01*
X94757684Y-109356654D01*
X94665643Y-109505875D01*
X94665641Y-109505880D01*
X94610494Y-109672302D01*
X94610493Y-109672309D01*
X94600000Y-109775013D01*
X89705500Y-109775013D01*
X89705500Y-107122700D01*
X89702603Y-107068660D01*
X89699769Y-107042302D01*
X89691114Y-106988890D01*
X89640832Y-106854081D01*
X89607347Y-106792758D01*
X89521123Y-106677577D01*
X89521118Y-106677572D01*
X89521113Y-106677566D01*
X88422438Y-105578892D01*
X88422423Y-105578877D01*
X88418116Y-105575008D01*
X88382181Y-105542728D01*
X88382169Y-105542718D01*
X88382159Y-105542710D01*
X88361520Y-105526078D01*
X88361518Y-105526076D01*
X88317636Y-105494433D01*
X88186762Y-105434663D01*
X88119717Y-105414976D01*
X88072244Y-105408150D01*
X87977300Y-105394500D01*
X87977298Y-105394500D01*
X83718500Y-105394500D01*
X83651461Y-105374815D01*
X83605706Y-105322011D01*
X83594500Y-105270500D01*
X83594500Y-92568872D01*
X86299500Y-92568872D01*
X86299500Y-92831127D01*
X86320436Y-92990140D01*
X86333730Y-93091116D01*
X86401602Y-93344418D01*
X86401605Y-93344428D01*
X86501953Y-93586690D01*
X86501958Y-93586700D01*
X86633075Y-93813803D01*
X86792718Y-94021851D01*
X86792726Y-94021860D01*
X86978140Y-94207274D01*
X86978148Y-94207281D01*
X86978149Y-94207282D01*
X87006596Y-94229110D01*
X87186196Y-94366924D01*
X87413299Y-94498041D01*
X87413309Y-94498046D01*
X87599093Y-94575000D01*
X87655581Y-94598398D01*
X87908884Y-94666270D01*
X88168880Y-94700500D01*
X88168887Y-94700500D01*
X88431113Y-94700500D01*
X88431120Y-94700500D01*
X88691116Y-94666270D01*
X88944419Y-94598398D01*
X89186697Y-94498043D01*
X89413803Y-94366924D01*
X89621851Y-94207282D01*
X89621855Y-94207277D01*
X89621860Y-94207274D01*
X89807274Y-94021860D01*
X89807277Y-94021855D01*
X89807282Y-94021851D01*
X89966924Y-93813803D01*
X90098043Y-93586697D01*
X90099973Y-93582039D01*
X90198394Y-93344428D01*
X90198398Y-93344419D01*
X90266270Y-93091116D01*
X90300500Y-92831120D01*
X90300500Y-92568880D01*
X90266270Y-92308884D01*
X90198398Y-92055581D01*
X90100204Y-91818520D01*
X90098046Y-91813309D01*
X90098041Y-91813299D01*
X90008878Y-91658864D01*
X89974901Y-91600013D01*
X101475000Y-91600013D01*
X101475000Y-92050000D01*
X102387500Y-92050000D01*
X102387500Y-90900000D01*
X102175029Y-90900000D01*
X102175012Y-90900001D01*
X102072302Y-90910494D01*
X101905880Y-90965641D01*
X101905875Y-90965643D01*
X101756654Y-91057684D01*
X101632684Y-91181654D01*
X101540643Y-91330875D01*
X101540641Y-91330880D01*
X101485494Y-91497302D01*
X101485493Y-91497309D01*
X101475000Y-91600013D01*
X89974901Y-91600013D01*
X89966924Y-91586197D01*
X89807282Y-91378149D01*
X89807281Y-91378148D01*
X89807274Y-91378140D01*
X89621860Y-91192726D01*
X89621851Y-91192718D01*
X89413803Y-91033075D01*
X89186700Y-90901958D01*
X89186690Y-90901953D01*
X88944428Y-90801605D01*
X88944421Y-90801603D01*
X88944419Y-90801602D01*
X88691116Y-90733730D01*
X88633339Y-90726123D01*
X88431127Y-90699500D01*
X88431120Y-90699500D01*
X88168880Y-90699500D01*
X88168872Y-90699500D01*
X87943983Y-90729109D01*
X87908884Y-90733730D01*
X87773522Y-90770000D01*
X87655581Y-90801602D01*
X87655571Y-90801605D01*
X87413309Y-90901953D01*
X87413299Y-90901958D01*
X87186196Y-91033075D01*
X86978148Y-91192718D01*
X86792718Y-91378148D01*
X86633075Y-91586196D01*
X86501958Y-91813299D01*
X86501953Y-91813309D01*
X86401605Y-92055571D01*
X86401602Y-92055581D01*
X86337640Y-92294294D01*
X86333730Y-92308885D01*
X86299500Y-92568872D01*
X83594500Y-92568872D01*
X83594500Y-92305500D01*
X78224100Y-92305500D01*
X78157061Y-92285815D01*
X78111306Y-92233011D01*
X78100100Y-92181500D01*
X78100100Y-91799680D01*
X78500000Y-91800108D01*
X78500000Y-90524986D01*
X102675001Y-90524986D01*
X102685494Y-90627697D01*
X102732649Y-90770000D01*
X102763500Y-90770000D01*
X102830539Y-90789685D01*
X102876294Y-90842489D01*
X102887500Y-90894000D01*
X102887500Y-92050000D01*
X103799999Y-92050000D01*
X103799999Y-91600028D01*
X103799998Y-91600013D01*
X103789505Y-91497302D01*
X103742351Y-91355000D01*
X103636500Y-91355000D01*
X103569461Y-91335315D01*
X103523706Y-91282511D01*
X103512500Y-91231000D01*
X103512500Y-90250000D01*
X102675001Y-90250000D01*
X102675001Y-90524986D01*
X78500000Y-90524986D01*
X78500000Y-89475013D01*
X102675000Y-89475013D01*
X102675000Y-89750000D01*
X103512500Y-89750000D01*
X103512500Y-88775000D01*
X103375027Y-88775000D01*
X103375012Y-88775001D01*
X103272302Y-88785494D01*
X103105880Y-88840641D01*
X103105875Y-88840643D01*
X102956654Y-88932684D01*
X102832684Y-89056654D01*
X102740643Y-89205875D01*
X102740641Y-89205880D01*
X102685494Y-89372302D01*
X102685493Y-89372309D01*
X102675000Y-89475013D01*
X78500000Y-89475013D01*
X78500000Y-88000500D01*
X93407800Y-88000500D01*
X93416485Y-88003050D01*
G37*
G04 #@! TD.AperFunction*
G04 #@! TA.AperFunction,Conductor*
G36*
X108530667Y-122433694D02*
G01*
X108589910Y-122536306D01*
X108673694Y-122620090D01*
X108700000Y-122635277D01*
X108700000Y-122863551D01*
X108292806Y-123270745D01*
X108292806Y-123270746D01*
X108318966Y-123289752D01*
X108487821Y-123375789D01*
X108668062Y-123434354D01*
X108700000Y-123439412D01*
X108700000Y-123870594D01*
X108561296Y-123769819D01*
X108549118Y-123763614D01*
X108392372Y-123683747D01*
X108333905Y-123664750D01*
X108212055Y-123625158D01*
X108212051Y-123625157D01*
X108212050Y-123625157D01*
X108024800Y-123595500D01*
X108024796Y-123595500D01*
X107835204Y-123595500D01*
X107835200Y-123595500D01*
X107647949Y-123625157D01*
X107647946Y-123625157D01*
X107647945Y-123625158D01*
X107589482Y-123644153D01*
X107467627Y-123683747D01*
X107298703Y-123769819D01*
X107145319Y-123881260D01*
X107011258Y-124015321D01*
X107010317Y-124016618D01*
X107009832Y-124016991D01*
X107008095Y-124019026D01*
X107007667Y-124018660D01*
X106954987Y-124059283D01*
X106885373Y-124065261D01*
X106823579Y-124032654D01*
X106809683Y-124016618D01*
X106808741Y-124015321D01*
X106674680Y-123881260D01*
X106671170Y-123878710D01*
X106521296Y-123769819D01*
X106509118Y-123763614D01*
X106352372Y-123683747D01*
X106293905Y-123664750D01*
X106172055Y-123625158D01*
X106172051Y-123625157D01*
X106172050Y-123625157D01*
X105984800Y-123595500D01*
X105984796Y-123595500D01*
X105795204Y-123595500D01*
X105795200Y-123595500D01*
X105607949Y-123625157D01*
X105607946Y-123625157D01*
X105607945Y-123625158D01*
X105547840Y-123644687D01*
X105427624Y-123683748D01*
X105296189Y-123750718D01*
X105290894Y-123751712D01*
X105286680Y-123755068D01*
X105256919Y-123758092D01*
X105227520Y-123763614D01*
X105222528Y-123761588D01*
X105217169Y-123762133D01*
X105190494Y-123748585D01*
X105162780Y-123737337D01*
X105158395Y-123732284D01*
X105154873Y-123730495D01*
X105141320Y-123712604D01*
X105132887Y-123702885D01*
X105131371Y-123700295D01*
X105103157Y-123646279D01*
X105084912Y-123620946D01*
X105081949Y-123615884D01*
X105074865Y-123587439D01*
X105065131Y-123559793D01*
X105066519Y-123553931D01*
X105065064Y-123548085D01*
X105074483Y-123520324D01*
X105081241Y-123491806D01*
X105085578Y-123487626D01*
X105087514Y-123481921D01*
X105110443Y-123463662D01*
X105131550Y-123443321D01*
X105140945Y-123439373D01*
X105142172Y-123438397D01*
X105143620Y-123438249D01*
X105150639Y-123435301D01*
X105152048Y-123434843D01*
X105152055Y-123434842D01*
X105332368Y-123376254D01*
X105501296Y-123290181D01*
X105654679Y-123178741D01*
X105788741Y-123044679D01*
X105789677Y-123043389D01*
X105790158Y-123043018D01*
X105791905Y-123040974D01*
X105792334Y-123041340D01*
X105845003Y-123000720D01*
X105914616Y-122994736D01*
X105976413Y-123027337D01*
X105990319Y-123043385D01*
X105991259Y-123044679D01*
X106125321Y-123178741D01*
X106278704Y-123290181D01*
X106358515Y-123330846D01*
X106447627Y-123376252D01*
X106447629Y-123376252D01*
X106447632Y-123376254D01*
X106627945Y-123434842D01*
X106712773Y-123448277D01*
X106815200Y-123464500D01*
X106815204Y-123464500D01*
X107004800Y-123464500D01*
X107088022Y-123451318D01*
X107192055Y-123434842D01*
X107372368Y-123376254D01*
X107541296Y-123290181D01*
X107694679Y-123178741D01*
X107828741Y-123044679D01*
X107884858Y-122967440D01*
X107888590Y-122963184D01*
X107901373Y-122955072D01*
X108507861Y-122348584D01*
X108530667Y-122433694D01*
G37*
G04 #@! TD.AperFunction*
G04 #@! TA.AperFunction,Conductor*
G36*
X56494500Y-105976000D02*
G01*
X56494501Y-105976009D01*
X56506052Y-106083450D01*
X56506054Y-106083462D01*
X56517260Y-106134972D01*
X56551383Y-106237497D01*
X56551386Y-106237503D01*
X56629171Y-106358537D01*
X56629179Y-106358548D01*
X56674923Y-106411340D01*
X56674926Y-106411343D01*
X56674930Y-106411347D01*
X56783664Y-106505567D01*
X56783667Y-106505568D01*
X56783668Y-106505569D01*
X56903001Y-106560068D01*
X56914541Y-106565338D01*
X56981580Y-106585023D01*
X56981584Y-106585024D01*
X57124000Y-106605500D01*
X57124003Y-106605500D01*
X60213940Y-106605500D01*
X60280979Y-106625185D01*
X60326734Y-106677989D01*
X60336678Y-106747147D01*
X60315892Y-106800080D01*
X60245012Y-106902464D01*
X59937890Y-107346082D01*
X59883546Y-107389997D01*
X59835938Y-107399500D01*
X59349998Y-107399500D01*
X59349980Y-107399501D01*
X59247203Y-107410000D01*
X59247200Y-107410001D01*
X59080668Y-107465185D01*
X59080663Y-107465187D01*
X58931342Y-107557289D01*
X58807289Y-107681342D01*
X58715187Y-107830663D01*
X58715185Y-107830668D01*
X58688701Y-107910591D01*
X58660001Y-107997203D01*
X58660001Y-107997204D01*
X58660000Y-107997204D01*
X58649500Y-108099983D01*
X58649500Y-109500001D01*
X58649501Y-109500018D01*
X58660000Y-109602796D01*
X58660001Y-109602799D01*
X58692543Y-109701003D01*
X58715186Y-109769334D01*
X58807288Y-109918656D01*
X58931344Y-110042712D01*
X59080666Y-110134814D01*
X59247203Y-110189999D01*
X59349991Y-110200500D01*
X59470500Y-110200499D01*
X59537539Y-110220183D01*
X59583294Y-110272987D01*
X59594500Y-110324499D01*
X59594500Y-118937180D01*
X59574815Y-119004219D01*
X59522011Y-119049974D01*
X59452853Y-119059918D01*
X59418988Y-119049974D01*
X59385465Y-119034664D01*
X59385460Y-119034662D01*
X59385459Y-119034662D01*
X59318420Y-119014977D01*
X59318422Y-119014977D01*
X59318417Y-119014976D01*
X59243598Y-119004219D01*
X59176000Y-118994500D01*
X56527700Y-118994500D01*
X56460661Y-118974815D01*
X56414906Y-118922011D01*
X56403700Y-118870500D01*
X56403700Y-111096300D01*
X54328700Y-111096300D01*
X55225001Y-110199999D01*
X55649999Y-110199999D01*
X55650000Y-110199998D01*
X55650000Y-109775000D01*
X56150000Y-109275000D01*
X56150000Y-110199999D01*
X57449972Y-110199999D01*
X57449986Y-110199998D01*
X57552697Y-110189505D01*
X57719119Y-110134358D01*
X57719124Y-110134356D01*
X57868345Y-110042315D01*
X57992315Y-109918345D01*
X58084356Y-109769124D01*
X58084358Y-109769119D01*
X58139505Y-109602697D01*
X58139506Y-109602690D01*
X58149999Y-109499986D01*
X58150000Y-109499973D01*
X58150000Y-109050000D01*
X56200000Y-109050000D01*
X56200000Y-108550000D01*
X58149999Y-108550000D01*
X58149999Y-108100028D01*
X58149998Y-108100013D01*
X58139505Y-107997302D01*
X58084358Y-107830880D01*
X58084356Y-107830875D01*
X57992315Y-107681654D01*
X57868345Y-107557684D01*
X57719124Y-107465643D01*
X57719119Y-107465641D01*
X57552697Y-107410494D01*
X57552690Y-107410493D01*
X57449986Y-107400000D01*
X56200000Y-107400000D01*
X56200000Y-101731250D01*
X56494500Y-101398096D01*
X56494500Y-105976000D01*
G37*
G04 #@! TD.AperFunction*
G04 #@! TA.AperFunction,Conductor*
G36*
X52450000Y-111098903D02*
G01*
X52450000Y-111721600D01*
X52430315Y-111788639D01*
X52377511Y-111834394D01*
X52326000Y-111845600D01*
X52074000Y-111845600D01*
X52006961Y-111825915D01*
X51961206Y-111773111D01*
X51950000Y-111721600D01*
X51950000Y-111098611D01*
X52450000Y-111098903D01*
G37*
G04 #@! TD.AperFunction*
G04 #@! TA.AperFunction,Conductor*
G36*
X75499900Y-91796899D02*
G01*
X75499900Y-92181500D01*
X75480215Y-92248539D01*
X75427411Y-92294294D01*
X75375900Y-92305500D01*
X70005500Y-92305500D01*
X70005500Y-105743138D01*
X70000000Y-105761868D01*
X70000000Y-106445769D01*
X69980315Y-106512808D01*
X69927511Y-106558563D01*
X69876988Y-106569765D01*
X67034652Y-106592414D01*
X67004686Y-106583873D01*
X66974237Y-106577250D01*
X66969806Y-106573933D01*
X66967458Y-106573264D01*
X66945983Y-106556099D01*
X66877064Y-106487180D01*
X66843579Y-106425857D01*
X66848563Y-106356165D01*
X66890435Y-106300232D01*
X66955899Y-106275815D01*
X66964745Y-106275499D01*
X67050002Y-106275499D01*
X67050008Y-106275499D01*
X67152797Y-106264999D01*
X67319334Y-106209814D01*
X67468656Y-106117712D01*
X67592712Y-105993656D01*
X67684814Y-105844334D01*
X67739999Y-105677797D01*
X67750500Y-105575009D01*
X67750499Y-101374992D01*
X67746236Y-101333264D01*
X67739999Y-101272203D01*
X67739998Y-101272200D01*
X67726101Y-101230261D01*
X67684814Y-101105666D01*
X67592712Y-100956344D01*
X67468656Y-100832288D01*
X67337492Y-100751386D01*
X67319336Y-100740187D01*
X67319331Y-100740185D01*
X67268327Y-100723284D01*
X67152797Y-100685001D01*
X67152795Y-100685000D01*
X67050010Y-100674500D01*
X66349998Y-100674500D01*
X66349980Y-100674501D01*
X66247203Y-100685000D01*
X66247200Y-100685001D01*
X66080668Y-100740185D01*
X66080663Y-100740187D01*
X65931342Y-100832289D01*
X65926909Y-100835795D01*
X65862113Y-100861934D01*
X65793471Y-100848892D01*
X65773091Y-100835795D01*
X65768657Y-100832289D01*
X65768656Y-100832288D01*
X65637492Y-100751386D01*
X65619336Y-100740187D01*
X65619331Y-100740185D01*
X65568327Y-100723284D01*
X65452797Y-100685001D01*
X65452795Y-100685000D01*
X65350010Y-100674500D01*
X64649998Y-100674500D01*
X64649980Y-100674501D01*
X64547203Y-100685000D01*
X64547200Y-100685001D01*
X64380668Y-100740185D01*
X64380663Y-100740187D01*
X64292717Y-100794433D01*
X64231344Y-100832288D01*
X64231343Y-100832288D01*
X64231330Y-100832297D01*
X64226487Y-100836126D01*
X64161687Y-100862256D01*
X64093047Y-100849204D01*
X64072683Y-100836114D01*
X64068346Y-100832684D01*
X63919124Y-100740643D01*
X63919119Y-100740641D01*
X63752697Y-100685494D01*
X63752690Y-100685493D01*
X63649986Y-100675000D01*
X63550000Y-100675000D01*
X63550000Y-106274999D01*
X63649972Y-106274999D01*
X63649986Y-106274998D01*
X63752695Y-106264506D01*
X63831495Y-106238394D01*
X63901324Y-106235992D01*
X63961366Y-106271723D01*
X63992559Y-106334244D01*
X63994500Y-106356100D01*
X63994500Y-107834851D01*
X63974815Y-107901890D01*
X63922011Y-107947645D01*
X63852853Y-107957589D01*
X63789297Y-107928564D01*
X63772319Y-107910591D01*
X62731319Y-106561146D01*
X62722964Y-106539701D01*
X62710523Y-106520341D01*
X62707656Y-106500404D01*
X62705957Y-106496042D01*
X62705500Y-106485406D01*
X62705500Y-106387332D01*
X62725185Y-106320293D01*
X62777989Y-106274538D01*
X62842104Y-106263974D01*
X62950020Y-106274999D01*
X63050000Y-106274998D01*
X63050000Y-100674999D01*
X62950028Y-100675000D01*
X62950012Y-100675001D01*
X62847302Y-100685494D01*
X62680880Y-100740641D01*
X62680875Y-100740643D01*
X62567568Y-100810533D01*
X62500176Y-100828973D01*
X62433512Y-100808051D01*
X62421268Y-100798707D01*
X62416335Y-100794432D01*
X62416331Y-100794430D01*
X62285465Y-100734664D01*
X62285460Y-100734662D01*
X62285459Y-100734662D01*
X62218420Y-100714977D01*
X62218422Y-100714977D01*
X62218417Y-100714976D01*
X62096549Y-100697454D01*
X62075195Y-100692422D01*
X62052797Y-100685001D01*
X62052787Y-100685000D01*
X61950010Y-100674500D01*
X61249998Y-100674500D01*
X61249980Y-100674501D01*
X61147203Y-100685000D01*
X61128481Y-100691204D01*
X61102739Y-100696785D01*
X61016542Y-100706053D01*
X60965027Y-100717260D01*
X60862502Y-100751383D01*
X60862494Y-100751387D01*
X60819582Y-100778965D01*
X60752542Y-100798649D01*
X60701032Y-100787443D01*
X60585465Y-100734664D01*
X60585460Y-100734662D01*
X60585459Y-100734662D01*
X60518420Y-100714977D01*
X60518422Y-100714977D01*
X60518417Y-100714976D01*
X60396549Y-100697454D01*
X60375195Y-100692422D01*
X60352797Y-100685001D01*
X60352787Y-100685000D01*
X60250010Y-100674500D01*
X59549998Y-100674500D01*
X59549980Y-100674501D01*
X59447203Y-100685000D01*
X59447200Y-100685001D01*
X59437530Y-100688206D01*
X59398526Y-100694500D01*
X57124000Y-100694500D01*
X57123991Y-100694500D01*
X57123990Y-100694501D01*
X57115672Y-100695395D01*
X57200000Y-100600000D01*
X67758018Y-100595589D01*
X69200000Y-99153005D01*
X69200000Y-92826051D01*
X70230214Y-91791264D01*
X75499900Y-91796899D01*
G37*
G04 #@! TD.AperFunction*
G04 #@! TA.AperFunction,Conductor*
G36*
X107417089Y-93790506D02*
G01*
X107445626Y-93789487D01*
X107451490Y-93792966D01*
X107458294Y-93793453D01*
X107481155Y-93810567D01*
X107505715Y-93825139D01*
X107508768Y-93831238D01*
X107514227Y-93835325D01*
X107524205Y-93862077D01*
X107536990Y-93887618D01*
X107537335Y-93897279D01*
X107538644Y-93900789D01*
X107538250Y-93922890D01*
X107537709Y-93927914D01*
X107537709Y-93927917D01*
X107531300Y-93987527D01*
X107531300Y-93987534D01*
X107531300Y-93987535D01*
X107531300Y-94983270D01*
X107531301Y-94983276D01*
X107537708Y-95042881D01*
X107550459Y-95077069D01*
X107555442Y-95146761D01*
X107550459Y-95163731D01*
X107537708Y-95197918D01*
X107531301Y-95257516D01*
X107531301Y-95257523D01*
X107531300Y-95257535D01*
X107531300Y-96253270D01*
X107531301Y-96253276D01*
X107537708Y-96312881D01*
X107550459Y-96347069D01*
X107555442Y-96416761D01*
X107550459Y-96433731D01*
X107537708Y-96467918D01*
X107533747Y-96504766D01*
X107531301Y-96527523D01*
X107531300Y-96527535D01*
X107531300Y-97495849D01*
X107511615Y-97562888D01*
X107458811Y-97608643D01*
X107407300Y-97619849D01*
X106452129Y-97619849D01*
X106452123Y-97619850D01*
X106392514Y-97626258D01*
X106272308Y-97671091D01*
X106202616Y-97676075D01*
X106165855Y-97661641D01*
X106043181Y-97589092D01*
X106042400Y-97588630D01*
X106042399Y-97588629D01*
X106042398Y-97588629D01*
X106042395Y-97588628D01*
X105883362Y-97542424D01*
X105883356Y-97542423D01*
X105846203Y-97539500D01*
X105288809Y-97539500D01*
X105288784Y-97539501D01*
X105251641Y-97542424D01*
X105092604Y-97588628D01*
X105092596Y-97588631D01*
X105062627Y-97606355D01*
X104994903Y-97623536D01*
X104936389Y-97606355D01*
X104907199Y-97589093D01*
X104907194Y-97589091D01*
X104748283Y-97542922D01*
X104748277Y-97542921D01*
X104711157Y-97540000D01*
X104682500Y-97540000D01*
X104682500Y-100310000D01*
X104711142Y-100310000D01*
X104711157Y-100309999D01*
X104748277Y-100307078D01*
X104748283Y-100307077D01*
X104907194Y-100260908D01*
X104907202Y-100260905D01*
X104936386Y-100243646D01*
X105004109Y-100226462D01*
X105062628Y-100243644D01*
X105092600Y-100261370D01*
X105134541Y-100273555D01*
X105251637Y-100307575D01*
X105251640Y-100307575D01*
X105251642Y-100307576D01*
X105288797Y-100310500D01*
X105846202Y-100310499D01*
X105883358Y-100307576D01*
X106042400Y-100261370D01*
X106175503Y-100182652D01*
X106243224Y-100165470D01*
X106281954Y-100173202D01*
X106291240Y-100176666D01*
X106392517Y-100214440D01*
X106392516Y-100214440D01*
X106399444Y-100215184D01*
X106452127Y-100220849D01*
X107407300Y-100220848D01*
X107474339Y-100240532D01*
X107520094Y-100293336D01*
X107531300Y-100344848D01*
X107531300Y-101333270D01*
X107531301Y-101333276D01*
X107537708Y-101392881D01*
X107550459Y-101427069D01*
X107555442Y-101496761D01*
X107550459Y-101513731D01*
X107537708Y-101547918D01*
X107535852Y-101565185D01*
X107531301Y-101607523D01*
X107531300Y-101607535D01*
X107531300Y-102603270D01*
X107531301Y-102603276D01*
X107537708Y-102662881D01*
X107550459Y-102697069D01*
X107555442Y-102766761D01*
X107550459Y-102783731D01*
X107537708Y-102817918D01*
X107531518Y-102875500D01*
X107531301Y-102877523D01*
X107531300Y-102877535D01*
X107531300Y-103873270D01*
X107531301Y-103873276D01*
X107537708Y-103932881D01*
X107550459Y-103967069D01*
X107555442Y-104036761D01*
X107550459Y-104053731D01*
X107537708Y-104087918D01*
X107531301Y-104147516D01*
X107531300Y-104147535D01*
X107531300Y-105143270D01*
X107531301Y-105143276D01*
X107537708Y-105202881D01*
X107550459Y-105237069D01*
X107551930Y-105257644D01*
X107558237Y-105277284D01*
X107554801Y-105297800D01*
X107555442Y-105306761D01*
X107552353Y-105312416D01*
X107550459Y-105323731D01*
X107537708Y-105357918D01*
X107531574Y-105414976D01*
X107531301Y-105417523D01*
X107531300Y-105417535D01*
X107531300Y-106066860D01*
X107511615Y-106133899D01*
X107458811Y-106179654D01*
X107389653Y-106189598D01*
X107368297Y-106184566D01*
X107314697Y-106166805D01*
X107257252Y-106127033D01*
X107230428Y-106062517D01*
X107229700Y-106049099D01*
X107229700Y-105294060D01*
X107229701Y-105294047D01*
X107229701Y-105125944D01*
X107229701Y-105125943D01*
X107188777Y-104973216D01*
X107186177Y-104968713D01*
X107109724Y-104836290D01*
X107109718Y-104836282D01*
X106327167Y-104053731D01*
X105504721Y-103231286D01*
X105504720Y-103231284D01*
X105392916Y-103119480D01*
X105346935Y-103092933D01*
X105337598Y-103084679D01*
X105325367Y-103065226D01*
X105309511Y-103048597D01*
X105304579Y-103032163D01*
X105300408Y-103025529D01*
X105300477Y-103018496D01*
X105296436Y-103005029D01*
X105295091Y-102992516D01*
X105244797Y-102857671D01*
X105244793Y-102857664D01*
X105158547Y-102742455D01*
X105158544Y-102742452D01*
X105043335Y-102656206D01*
X105043328Y-102656202D01*
X104913371Y-102607732D01*
X104857437Y-102565861D01*
X104833020Y-102500397D01*
X104847871Y-102432124D01*
X104897276Y-102382718D01*
X104927715Y-102371673D01*
X104927665Y-102371506D01*
X104930800Y-102370554D01*
X104932517Y-102369932D01*
X104932590Y-102369917D01*
X104933497Y-102369737D01*
X105079179Y-102309394D01*
X105210289Y-102221789D01*
X105321789Y-102110289D01*
X105409394Y-101979179D01*
X105469737Y-101833497D01*
X105500500Y-101678842D01*
X105500500Y-101521158D01*
X105500500Y-101521155D01*
X105500499Y-101521153D01*
X105498281Y-101510001D01*
X105469737Y-101366503D01*
X105455973Y-101333273D01*
X105409397Y-101220827D01*
X105409390Y-101220814D01*
X105321789Y-101089711D01*
X105321786Y-101089707D01*
X105210292Y-100978213D01*
X105210288Y-100978210D01*
X105079185Y-100890609D01*
X105079172Y-100890602D01*
X104933501Y-100830264D01*
X104933489Y-100830261D01*
X104778845Y-100799500D01*
X104778842Y-100799500D01*
X104621158Y-100799500D01*
X104615066Y-100799500D01*
X104615066Y-100797070D01*
X104556931Y-100786036D01*
X104514172Y-100749970D01*
X104508546Y-100742454D01*
X104508544Y-100742453D01*
X104508544Y-100742452D01*
X104393335Y-100656206D01*
X104393328Y-100656202D01*
X104258486Y-100605910D01*
X104258485Y-100605909D01*
X104258483Y-100605909D01*
X104198873Y-100599500D01*
X104198863Y-100599500D01*
X103603129Y-100599500D01*
X103603123Y-100599501D01*
X103543516Y-100605908D01*
X103408671Y-100656202D01*
X103408664Y-100656206D01*
X103293455Y-100742452D01*
X103293452Y-100742455D01*
X103207206Y-100857664D01*
X103207202Y-100857671D01*
X103156908Y-100992517D01*
X103150501Y-101052116D01*
X103150322Y-101055452D01*
X103149181Y-101055390D01*
X103130815Y-101117941D01*
X103078011Y-101163696D01*
X103008853Y-101173640D01*
X102945297Y-101144615D01*
X102938819Y-101138583D01*
X101550236Y-99750000D01*
X103567270Y-99750000D01*
X103567921Y-99758281D01*
X103614090Y-99917194D01*
X103614092Y-99917197D01*
X103698333Y-100059642D01*
X103698339Y-100059650D01*
X103815349Y-100176660D01*
X103815357Y-100176666D01*
X103957802Y-100260907D01*
X103957805Y-100260908D01*
X104116716Y-100307077D01*
X104116722Y-100307078D01*
X104153842Y-100309999D01*
X104153858Y-100310000D01*
X104182500Y-100310000D01*
X104182500Y-99750000D01*
X103567270Y-99750000D01*
X101550236Y-99750000D01*
X101050236Y-99250000D01*
X103567270Y-99250000D01*
X104182500Y-99250000D01*
X104182500Y-98600000D01*
X103567270Y-98600000D01*
X103567921Y-98608281D01*
X103614090Y-98767194D01*
X103614094Y-98767201D01*
X103670086Y-98861880D01*
X103687269Y-98929604D01*
X103670086Y-98988120D01*
X103614094Y-99082798D01*
X103614090Y-99082805D01*
X103567921Y-99241718D01*
X103567270Y-99250000D01*
X101050236Y-99250000D01*
X99900236Y-98100000D01*
X103567270Y-98100000D01*
X104182500Y-98100000D01*
X104182500Y-97540000D01*
X104153842Y-97540000D01*
X104116722Y-97542921D01*
X104116716Y-97542922D01*
X103957805Y-97589091D01*
X103957802Y-97589092D01*
X103815357Y-97673333D01*
X103815349Y-97673339D01*
X103698339Y-97790349D01*
X103698333Y-97790357D01*
X103614092Y-97932802D01*
X103614090Y-97932805D01*
X103567921Y-98091718D01*
X103567270Y-98100000D01*
X99900236Y-98100000D01*
X99812416Y-98012180D01*
X99778931Y-97950857D01*
X99783915Y-97881165D01*
X99825787Y-97825232D01*
X99891251Y-97800815D01*
X99900097Y-97800499D01*
X100500002Y-97800499D01*
X100500008Y-97800499D01*
X100602797Y-97789999D01*
X100769334Y-97734814D01*
X100918656Y-97642712D01*
X101042712Y-97518656D01*
X101134814Y-97369334D01*
X101189999Y-97202797D01*
X101194177Y-97161896D01*
X101220573Y-97097207D01*
X101277753Y-97057055D01*
X101317535Y-97050500D01*
X104025831Y-97050500D01*
X104025847Y-97050501D01*
X104033443Y-97050501D01*
X104191554Y-97050501D01*
X104191557Y-97050501D01*
X104344285Y-97009577D01*
X104394404Y-96980639D01*
X104481216Y-96930520D01*
X104593020Y-96818716D01*
X104593020Y-96818714D01*
X104603228Y-96808507D01*
X104603230Y-96808504D01*
X105177797Y-96233936D01*
X105239118Y-96200453D01*
X105278076Y-96198261D01*
X105299991Y-96200500D01*
X106225008Y-96200499D01*
X106225016Y-96200498D01*
X106225019Y-96200498D01*
X106281302Y-96194748D01*
X106327797Y-96189999D01*
X106494334Y-96134814D01*
X106643656Y-96042712D01*
X106767712Y-95918656D01*
X106859814Y-95769334D01*
X106914999Y-95602797D01*
X106925500Y-95500009D01*
X106925499Y-94275095D01*
X106945184Y-94208057D01*
X106961813Y-94187420D01*
X107327281Y-93821952D01*
X107352342Y-93808268D01*
X107375801Y-93791981D01*
X107382616Y-93791737D01*
X107388602Y-93788469D01*
X107417089Y-93790506D01*
G37*
G04 #@! TD.AperFunction*
G04 #@! TA.AperFunction,Conductor*
G36*
X97847942Y-97750185D02*
G01*
X97868584Y-97766819D01*
X101389583Y-101287819D01*
X101423068Y-101349142D01*
X101418084Y-101418834D01*
X101376212Y-101474767D01*
X101310748Y-101499184D01*
X101301902Y-101499500D01*
X100299998Y-101499500D01*
X100299980Y-101499501D01*
X100197203Y-101510000D01*
X100197200Y-101510001D01*
X100030668Y-101565185D01*
X100030663Y-101565187D01*
X99881342Y-101657289D01*
X99757289Y-101781342D01*
X99665187Y-101930663D01*
X99665186Y-101930666D01*
X99610001Y-102097203D01*
X99610001Y-102097204D01*
X99610000Y-102097204D01*
X99599500Y-102199983D01*
X99599500Y-103000001D01*
X99599501Y-103000019D01*
X99610000Y-103102796D01*
X99610001Y-103102799D01*
X99665185Y-103269331D01*
X99665187Y-103269336D01*
X99757289Y-103418657D01*
X99850951Y-103512319D01*
X99884436Y-103573642D01*
X99879452Y-103643334D01*
X99850951Y-103687681D01*
X99757289Y-103781342D01*
X99661395Y-103936813D01*
X99659600Y-103935706D01*
X99620313Y-103980337D01*
X99554092Y-103999500D01*
X91988097Y-103999500D01*
X91921058Y-103979815D01*
X91900416Y-103963181D01*
X89958916Y-102021681D01*
X89925431Y-101960358D01*
X89930415Y-101890666D01*
X89972287Y-101834733D01*
X90037751Y-101810316D01*
X90046597Y-101810000D01*
X90747828Y-101810000D01*
X90747844Y-101809999D01*
X90807372Y-101803598D01*
X90807379Y-101803596D01*
X90942086Y-101753354D01*
X90942093Y-101753350D01*
X91057187Y-101667190D01*
X91057190Y-101667187D01*
X91143350Y-101552093D01*
X91143354Y-101552086D01*
X91193596Y-101417379D01*
X91193598Y-101417372D01*
X91199999Y-101357844D01*
X91200000Y-101357827D01*
X91200000Y-101190000D01*
X89974000Y-101190000D01*
X89906961Y-101170315D01*
X89861206Y-101117511D01*
X89850000Y-101066000D01*
X89850000Y-100940000D01*
X89724000Y-100940000D01*
X89656961Y-100920315D01*
X89611206Y-100867511D01*
X89600000Y-100816000D01*
X89600000Y-100070000D01*
X89423500Y-100070000D01*
X89356461Y-100050315D01*
X89310706Y-99997511D01*
X89299500Y-99946000D01*
X89299500Y-99394499D01*
X89319185Y-99327460D01*
X89371989Y-99281705D01*
X89423500Y-99270499D01*
X90747871Y-99270499D01*
X90747872Y-99270499D01*
X90807483Y-99264091D01*
X90942331Y-99213796D01*
X91001189Y-99169734D01*
X91066652Y-99145317D01*
X91134925Y-99160168D01*
X91184331Y-99209573D01*
X91199500Y-99269001D01*
X91199500Y-100071623D01*
X91179815Y-100138662D01*
X91127011Y-100184417D01*
X91057853Y-100194361D01*
X91001188Y-100170889D01*
X90942089Y-100126647D01*
X90942086Y-100126645D01*
X90807379Y-100076403D01*
X90807372Y-100076401D01*
X90747844Y-100070000D01*
X90100000Y-100070000D01*
X90100000Y-100690000D01*
X91200000Y-100690000D01*
X91200000Y-100538627D01*
X91219685Y-100471588D01*
X91272489Y-100425833D01*
X91341647Y-100415889D01*
X91398311Y-100439360D01*
X91457665Y-100483793D01*
X91457668Y-100483795D01*
X91457671Y-100483797D01*
X91592517Y-100534091D01*
X91592516Y-100534091D01*
X91599444Y-100534835D01*
X91652127Y-100540500D01*
X93447872Y-100540499D01*
X93507483Y-100534091D01*
X93642331Y-100483796D01*
X93757546Y-100397546D01*
X93843796Y-100282331D01*
X93894091Y-100147483D01*
X93900500Y-100087873D01*
X93900499Y-99379764D01*
X93920183Y-99312726D01*
X93921397Y-99310873D01*
X93921783Y-99310294D01*
X93921789Y-99310289D01*
X94009394Y-99179179D01*
X94069737Y-99033497D01*
X94100500Y-98878842D01*
X94100500Y-98721158D01*
X94100500Y-98721155D01*
X94100499Y-98721153D01*
X94096230Y-98699692D01*
X94069737Y-98566503D01*
X94069735Y-98566498D01*
X94009397Y-98420827D01*
X94009390Y-98420814D01*
X93921789Y-98289711D01*
X93921786Y-98289707D01*
X93810292Y-98178213D01*
X93810288Y-98178210D01*
X93701788Y-98105712D01*
X93656983Y-98052100D01*
X93648276Y-97982775D01*
X93678431Y-97919747D01*
X93681786Y-97916158D01*
X93688573Y-97909178D01*
X93757546Y-97857546D01*
X93820249Y-97773785D01*
X93825829Y-97768048D01*
X93849566Y-97754653D01*
X93871389Y-97738318D01*
X93881867Y-97736427D01*
X93886680Y-97733712D01*
X93894442Y-97734158D01*
X93914722Y-97730500D01*
X97780903Y-97730500D01*
X97847942Y-97750185D01*
G37*
G04 #@! TD.AperFunction*
G04 #@! TA.AperFunction,Conductor*
G36*
X77050000Y-91798557D02*
G01*
X77050000Y-93515000D01*
X77030315Y-93582039D01*
X76977511Y-93627794D01*
X76926000Y-93639000D01*
X76674000Y-93639000D01*
X76606961Y-93619315D01*
X76561206Y-93566511D01*
X76550000Y-93515000D01*
X76550000Y-91798022D01*
X77050000Y-91798557D01*
G37*
G04 #@! TD.AperFunction*
G04 #@! TA.AperFunction,Conductor*
G36*
X46597995Y-88708156D02*
G01*
X48040587Y-88012798D01*
X48040591Y-88012797D01*
X46597995Y-88708156D01*
G37*
G04 #@! TD.AperFunction*
G04 #@! TA.AperFunction,Conductor*
G36*
X106408009Y-89219685D02*
G01*
X106428730Y-89236398D01*
X106446699Y-89254399D01*
X106446700Y-89254400D01*
X107157178Y-89787259D01*
X107157182Y-89787261D01*
X107157183Y-89787262D01*
X107192570Y-89807434D01*
X107200054Y-89812059D01*
X107277897Y-89864072D01*
X107296689Y-89879495D01*
X107320507Y-89903314D01*
X107335926Y-89922102D01*
X107363113Y-89962790D01*
X107383001Y-89989610D01*
X107392621Y-90002582D01*
X107392651Y-90002621D01*
X107408007Y-90021336D01*
X107408012Y-90021341D01*
X107408026Y-90021358D01*
X107441283Y-90058066D01*
X107556442Y-90144321D01*
X107617756Y-90177822D01*
X107617761Y-90177824D01*
X107626599Y-90181123D01*
X107670921Y-90209614D01*
X107674250Y-90212943D01*
X107674253Y-90212945D01*
X107674254Y-90212946D01*
X107789469Y-90299196D01*
X107789470Y-90299196D01*
X107789471Y-90299197D01*
X107924317Y-90349491D01*
X107924316Y-90349491D01*
X107931244Y-90350235D01*
X107983927Y-90355900D01*
X108782528Y-90355899D01*
X108795115Y-90358870D01*
X108804488Y-90357859D01*
X108837980Y-90368990D01*
X108931454Y-90415727D01*
X108982613Y-90463314D01*
X109000000Y-90526636D01*
X109000000Y-90848636D01*
X108980315Y-90915675D01*
X108963681Y-90936317D01*
X108941417Y-90958581D01*
X108880094Y-90992066D01*
X108853736Y-90994900D01*
X107983929Y-90994900D01*
X107983923Y-90994901D01*
X107924316Y-91001308D01*
X107789471Y-91051602D01*
X107789464Y-91051606D01*
X107674255Y-91137852D01*
X107674252Y-91137855D01*
X107588006Y-91253064D01*
X107588002Y-91253071D01*
X107537708Y-91387917D01*
X107531301Y-91447516D01*
X107531300Y-91447535D01*
X107531300Y-91567338D01*
X107511615Y-91634377D01*
X107501031Y-91647510D01*
X107500000Y-91650000D01*
X107500000Y-91899402D01*
X107480315Y-91966441D01*
X107463681Y-91987083D01*
X106087582Y-93363181D01*
X106026259Y-93396666D01*
X105999901Y-93399500D01*
X105299998Y-93399500D01*
X105299980Y-93399501D01*
X105222066Y-93407461D01*
X105153373Y-93394691D01*
X105121784Y-93371784D01*
X104736319Y-92986319D01*
X104702834Y-92924996D01*
X104700000Y-92898638D01*
X104700000Y-91266362D01*
X104719685Y-91199323D01*
X104755215Y-91163189D01*
X105000000Y-91000000D01*
X105000000Y-89626362D01*
X105019685Y-89559323D01*
X105036319Y-89538681D01*
X105338681Y-89236319D01*
X105400004Y-89202834D01*
X105426362Y-89200000D01*
X106340970Y-89200000D01*
X106408009Y-89219685D01*
G37*
G04 #@! TD.AperFunction*
G04 #@! TA.AperFunction,Conductor*
G36*
X110450000Y-90150000D02*
G01*
X110029340Y-90150000D01*
X110025891Y-90117916D01*
X109975597Y-89983071D01*
X109975593Y-89983064D01*
X109889347Y-89867855D01*
X109889344Y-89867852D01*
X109774135Y-89781606D01*
X109774128Y-89781602D01*
X109639282Y-89731308D01*
X109639283Y-89731308D01*
X109579683Y-89724901D01*
X109579681Y-89724900D01*
X109579673Y-89724900D01*
X109579664Y-89724900D01*
X107983929Y-89724900D01*
X107983923Y-89724901D01*
X107924312Y-89731309D01*
X107916769Y-89733092D01*
X107916093Y-89730231D01*
X107860134Y-89734219D01*
X107798820Y-89700718D01*
X107783422Y-89681951D01*
X107750000Y-89631931D01*
X107750000Y-89600000D01*
X107678316Y-89546237D01*
X107610292Y-89478213D01*
X107610288Y-89478210D01*
X107479185Y-89390609D01*
X107479172Y-89390602D01*
X107460478Y-89382859D01*
X106750000Y-88850000D01*
X106750000Y-88105400D01*
X110450000Y-88105400D01*
X110450000Y-90150000D01*
G37*
G04 #@! TD.AperFunction*
G04 #@! TA.AperFunction,Conductor*
G36*
X120250000Y-124250000D02*
G01*
X117500000Y-124250000D01*
X117500000Y-121450000D01*
X120250000Y-121450000D01*
X120250000Y-124250000D01*
G37*
G04 #@! TD.AperFunction*
M02*
