G04 #@! TF.GenerationSoftware,KiCad,Pcbnew,9.0.3*
G04 #@! TF.CreationDate,2025-11-06T12:11:40+01:00*
G04 #@! TF.ProjectId,modbus-to-x,6d6f6462-7573-42d7-946f-2d782e6b6963,rev?*
G04 #@! TF.SameCoordinates,Original*
G04 #@! TF.FileFunction,Paste,Top*
G04 #@! TF.FilePolarity,Positive*
%FSLAX46Y46*%
G04 Gerber Fmt 4.6, Leading zero omitted, Abs format (unit mm)*
G04 Created by KiCad (PCBNEW 9.0.3) date 2025-11-06 12:11:40*
%MOMM*%
%LPD*%
G01*
G04 APERTURE LIST*
G04 Aperture macros list*
%AMRoundRect*
0 Rectangle with rounded corners*
0 $1 Rounding radius*
0 $2 $3 $4 $5 $6 $7 $8 $9 X,Y pos of 4 corners*
0 Add a 4 corners polygon primitive as box body*
4,1,4,$2,$3,$4,$5,$6,$7,$8,$9,$2,$3,0*
0 Add four circle primitives for the rounded corners*
1,1,$1+$1,$2,$3*
1,1,$1+$1,$4,$5*
1,1,$1+$1,$6,$7*
1,1,$1+$1,$8,$9*
0 Add four rect primitives between the rounded corners*
20,1,$1+$1,$2,$3,$4,$5,0*
20,1,$1+$1,$4,$5,$6,$7,0*
20,1,$1+$1,$6,$7,$8,$9,0*
20,1,$1+$1,$8,$9,$2,$3,0*%
G04 Aperture macros list end*
%ADD10RoundRect,0.250000X0.412500X0.650000X-0.412500X0.650000X-0.412500X-0.650000X0.412500X-0.650000X0*%
%ADD11RoundRect,0.250000X-0.450000X0.350000X-0.450000X-0.350000X0.450000X-0.350000X0.450000X0.350000X0*%
%ADD12RoundRect,0.250000X0.450000X-0.350000X0.450000X0.350000X-0.450000X0.350000X-0.450000X-0.350000X0*%
%ADD13R,1.700000X0.740000*%
%ADD14RoundRect,0.237500X-0.250000X-0.237500X0.250000X-0.237500X0.250000X0.237500X-0.250000X0.237500X0*%
%ADD15RoundRect,0.250000X2.375000X-2.025000X2.375000X2.025000X-2.375000X2.025000X-2.375000X-2.025000X0*%
%ADD16RoundRect,0.250000X0.300000X-2.050000X0.300000X2.050000X-0.300000X2.050000X-0.300000X-2.050000X0*%
%ADD17R,1.000000X0.500000*%
%ADD18RoundRect,0.250000X-1.050000X-0.550000X1.050000X-0.550000X1.050000X0.550000X-1.050000X0.550000X0*%
%ADD19RoundRect,0.155000X-0.212500X-0.155000X0.212500X-0.155000X0.212500X0.155000X-0.212500X0.155000X0*%
%ADD20RoundRect,0.250000X0.650000X-0.412500X0.650000X0.412500X-0.650000X0.412500X-0.650000X-0.412500X0*%
%ADD21R,0.500000X1.000000*%
%ADD22RoundRect,0.160000X0.160000X-0.222500X0.160000X0.222500X-0.160000X0.222500X-0.160000X-0.222500X0*%
%ADD23RoundRect,0.250000X-0.350000X-0.450000X0.350000X-0.450000X0.350000X0.450000X-0.350000X0.450000X0*%
%ADD24R,1.219200X3.302000*%
%ADD25RoundRect,0.250000X-0.337500X-0.475000X0.337500X-0.475000X0.337500X0.475000X-0.337500X0.475000X0*%
%ADD26RoundRect,0.250000X-0.650000X1.500000X-0.650000X-1.500000X0.650000X-1.500000X0.650000X1.500000X0*%
%ADD27RoundRect,0.250000X-0.625000X0.400000X-0.625000X-0.400000X0.625000X-0.400000X0.625000X0.400000X0*%
%ADD28RoundRect,0.250000X-0.412500X-0.650000X0.412500X-0.650000X0.412500X0.650000X-0.412500X0.650000X0*%
%ADD29RoundRect,0.150000X0.825000X0.150000X-0.825000X0.150000X-0.825000X-0.150000X0.825000X-0.150000X0*%
%ADD30R,2.900000X5.400000*%
%ADD31RoundRect,0.250000X1.500000X0.650000X-1.500000X0.650000X-1.500000X-0.650000X1.500000X-0.650000X0*%
%ADD32R,1.600200X5.105400*%
%ADD33R,0.660400X1.346200*%
%ADD34R,1.500000X0.900000*%
%ADD35R,0.900000X1.500000*%
%ADD36R,0.900000X0.900000*%
G04 APERTURE END LIST*
D10*
X102637500Y-94800000D03*
X105762500Y-94800000D03*
D11*
X100000000Y-96700000D03*
X100000000Y-94700000D03*
D12*
X100800000Y-102600000D03*
X100800000Y-104600000D03*
D13*
X89850000Y-95860000D03*
X92550000Y-97130000D03*
X89850000Y-98400000D03*
X92550000Y-99670000D03*
X89850000Y-100940000D03*
D14*
X100603500Y-117136300D03*
X102428500Y-117136300D03*
D15*
X60525000Y-96750000D03*
X66075000Y-96750000D03*
X60525000Y-91900000D03*
X66075000Y-91900000D03*
D16*
X59900000Y-103475000D03*
X61600000Y-103475000D03*
X63300000Y-103475000D03*
X65000000Y-103475000D03*
X66700000Y-103475000D03*
D17*
X107000000Y-99470349D03*
X107000000Y-98370349D03*
D18*
X115220555Y-122968067D03*
X118820555Y-122968067D03*
D19*
X104432500Y-99500000D03*
X105567500Y-99500000D03*
X104432500Y-98350000D03*
X105567500Y-98350000D03*
D20*
X96000000Y-113362500D03*
X96000000Y-110237500D03*
D21*
X104551000Y-105359200D03*
X103251000Y-105359200D03*
X103901000Y-107359200D03*
D22*
X125505650Y-123570500D03*
X125505650Y-122425500D03*
D14*
X103499100Y-113847000D03*
X105324100Y-113847000D03*
D22*
X121525650Y-123570500D03*
X121525650Y-122425500D03*
X127495650Y-123570500D03*
X127495650Y-122425500D03*
D14*
X100603500Y-118774600D03*
X102428500Y-118774600D03*
D23*
X110642400Y-113690400D03*
X112642400Y-113690400D03*
D24*
X52200000Y-118754400D03*
X52200000Y-111845600D03*
D14*
X100603500Y-115498000D03*
X102428500Y-115498000D03*
D11*
X106629200Y-107229400D03*
X106629200Y-109229400D03*
D25*
X103762500Y-90000000D03*
X105837500Y-90000000D03*
D23*
X117592600Y-109601000D03*
X119592600Y-109601000D03*
D26*
X96500000Y-122900000D03*
X96500000Y-127900000D03*
D27*
X107527600Y-113664400D03*
X107527600Y-116764400D03*
D28*
X114956700Y-119329200D03*
X118081700Y-119329200D03*
D29*
X119877200Y-117285700D03*
X119877200Y-116015700D03*
X119877200Y-114745700D03*
X119877200Y-113475700D03*
X114927200Y-113475700D03*
X114927200Y-114745700D03*
X114927200Y-116015700D03*
X114927200Y-117285700D03*
D30*
X71550000Y-117200000D03*
X61650000Y-117200000D03*
D23*
X110642400Y-116890800D03*
X112642400Y-116890800D03*
D22*
X123515650Y-123570500D03*
X123515650Y-122425500D03*
D31*
X60900000Y-108800000D03*
X55900000Y-108800000D03*
D28*
X102637500Y-92300000D03*
X105762500Y-92300000D03*
D32*
X76800000Y-104561000D03*
X76800000Y-93639000D03*
D33*
X88000000Y-115800000D03*
X94553200Y-115800000D03*
D21*
X103251000Y-103600000D03*
X104551000Y-103600000D03*
X103901000Y-101600000D03*
D34*
X108781800Y-89405400D03*
X108781800Y-90675400D03*
X108781800Y-91945400D03*
X108781800Y-93215400D03*
X108781800Y-94485400D03*
X108781800Y-95755400D03*
X108781800Y-97025400D03*
X108781800Y-98295400D03*
X108781800Y-99565400D03*
X108781800Y-100835400D03*
X108781800Y-102105400D03*
X108781800Y-103375400D03*
X108781800Y-104645400D03*
X108781800Y-105915400D03*
D35*
X111821800Y-107165400D03*
X113091800Y-107165400D03*
X114361800Y-107165400D03*
X115631800Y-107165400D03*
X116901800Y-107165400D03*
X118171800Y-107165400D03*
X119441800Y-107165400D03*
X120711800Y-107165400D03*
X121981800Y-107165400D03*
X123251800Y-107165400D03*
D34*
X126281800Y-105915400D03*
X126281800Y-104645400D03*
X126281800Y-103375400D03*
X126281800Y-102105400D03*
X126281800Y-100835400D03*
X126281800Y-99565400D03*
X126281800Y-98295400D03*
X126281800Y-97025400D03*
X126281800Y-95755400D03*
X126281800Y-94485400D03*
X126281800Y-93215400D03*
X126281800Y-91945400D03*
X126281800Y-90675400D03*
X126281800Y-89405400D03*
D36*
X114631800Y-95725400D03*
X114631800Y-97125400D03*
X114631800Y-98525400D03*
X116031800Y-95725400D03*
X116031800Y-97125400D03*
X116031800Y-98525400D03*
X117431800Y-95725400D03*
X117431800Y-97125400D03*
X117431800Y-98525400D03*
M02*
