G04 #@! TF.GenerationSoftware,KiCad,Pcbnew,9.0.4*
G04 #@! TF.CreationDate,2025-10-05T21:49:41+02:00*
G04 #@! TF.ProjectId,modbus-to-x,6d6f6462-7573-42d7-946f-2d782e6b6963,rev?*
G04 #@! TF.SameCoordinates,Original*
G04 #@! TF.FileFunction,Copper,L4,Bot*
G04 #@! TF.FilePolarity,Positive*
%FSLAX46Y46*%
G04 Gerber Fmt 4.6, Leading zero omitted, Abs format (unit mm)*
G04 Created by KiCad (PCBNEW 9.0.4) date 2025-10-05 21:49:41*
%MOMM*%
%LPD*%
G01*
G04 APERTURE LIST*
G04 Aperture macros list*
%AMRoundRect*
0 Rectangle with rounded corners*
0 $1 Rounding radius*
0 $2 $3 $4 $5 $6 $7 $8 $9 X,Y pos of 4 corners*
0 Add a 4 corners polygon primitive as box body*
4,1,4,$2,$3,$4,$5,$6,$7,$8,$9,$2,$3,0*
0 Add four circle primitives for the rounded corners*
1,1,$1+$1,$2,$3*
1,1,$1+$1,$4,$5*
1,1,$1+$1,$6,$7*
1,1,$1+$1,$8,$9*
0 Add four rect primitives between the rounded corners*
20,1,$1+$1,$2,$3,$4,$5,0*
20,1,$1+$1,$4,$5,$6,$7,0*
20,1,$1+$1,$6,$7,$8,$9,0*
20,1,$1+$1,$8,$9,$2,$3,0*%
G04 Aperture macros list end*
G04 #@! TA.AperFunction,ComponentPad*
%ADD10C,1.700000*%
G04 #@! TD*
G04 #@! TA.AperFunction,ComponentPad*
%ADD11R,1.700000X1.700000*%
G04 #@! TD*
G04 #@! TA.AperFunction,ComponentPad*
%ADD12RoundRect,0.250001X-0.949999X-0.949999X0.949999X-0.949999X0.949999X0.949999X-0.949999X0.949999X0*%
G04 #@! TD*
G04 #@! TA.AperFunction,ComponentPad*
%ADD13C,2.400000*%
G04 #@! TD*
G04 #@! TA.AperFunction,HeatsinkPad*
%ADD14C,0.600000*%
G04 #@! TD*
G04 #@! TA.AperFunction,ViaPad*
%ADD15C,0.600000*%
G04 #@! TD*
G04 #@! TA.AperFunction,Conductor*
%ADD16C,0.200000*%
G04 #@! TD*
G04 APERTURE END LIST*
D10*
X130429000Y-101473000D03*
X130429000Y-104013000D03*
X130429000Y-106553000D03*
D11*
X130429000Y-109093000D03*
D12*
X99913800Y-123850400D03*
D13*
X103413800Y-123850400D03*
X106913800Y-123850400D03*
X110413800Y-123850400D03*
D14*
X114631800Y-96425400D03*
X114631800Y-97825400D03*
X115331800Y-95725400D03*
X115331800Y-97125400D03*
X115331800Y-98525400D03*
X116006800Y-96425400D03*
X116006800Y-97825400D03*
X116731800Y-95725400D03*
X116731800Y-97125400D03*
X116731800Y-98525400D03*
X117431800Y-96425400D03*
X117431800Y-97825400D03*
D15*
X87376000Y-114350800D03*
X122508450Y-123575200D03*
X96200749Y-126202252D03*
X114579400Y-112674400D03*
X96226149Y-127573852D03*
X92202000Y-98531497D03*
X87376000Y-115910900D03*
X109407200Y-117297200D03*
X83286600Y-92024200D03*
X110032800Y-88950800D03*
X110845600Y-107721400D03*
X120198233Y-121776169D03*
X93406749Y-127573852D03*
X117975200Y-117072800D03*
X107117813Y-97581376D03*
X115697000Y-112699800D03*
X93406749Y-126151452D03*
X90119200Y-115747800D03*
X124489650Y-123575200D03*
X103651698Y-99472011D03*
X116756000Y-113491400D03*
X93853000Y-94767400D03*
X107659185Y-89405400D03*
X125018800Y-89027000D03*
X118044861Y-124274466D03*
X101015800Y-96621600D03*
X88823800Y-112877600D03*
X116281200Y-108737400D03*
X118081700Y-121577936D03*
X126470850Y-123575200D03*
X102997000Y-89484200D03*
X104190800Y-90474800D03*
X127889000Y-89052400D03*
X87452200Y-110236000D03*
X118081700Y-120773109D03*
X89997000Y-110185200D03*
X110845600Y-106705400D03*
X90195400Y-114579400D03*
X127889000Y-90000000D03*
X110032800Y-89800000D03*
X83413600Y-98577400D03*
X93715448Y-124857272D03*
X90119200Y-113411000D03*
X87553800Y-111607600D03*
X119745702Y-124322042D03*
X103651698Y-98499155D03*
X107300000Y-100500000D03*
X95925248Y-124831872D03*
X88849200Y-116179600D03*
X91998800Y-99491800D03*
X105486224Y-89462700D03*
X125018800Y-89839800D03*
X87376000Y-112790700D03*
X91363800Y-94742000D03*
X104100000Y-96800000D03*
X102616000Y-106883200D03*
X104648000Y-101092000D03*
X124968000Y-105918000D03*
X105422359Y-92041480D03*
X114326007Y-124516311D03*
X102800000Y-92300000D03*
X100304600Y-101600000D03*
X104411600Y-112983400D03*
X112623947Y-112537800D03*
X116100000Y-119400000D03*
X104200000Y-93600000D03*
X114956700Y-121120678D03*
X82804000Y-114088333D03*
X116332127Y-124293730D03*
X82804000Y-115798600D03*
X82753200Y-112378067D03*
X82753200Y-110667800D03*
X130937000Y-93853000D03*
X100304600Y-102463600D03*
X116205000Y-117285700D03*
X121619450Y-124718200D03*
X106070400Y-113030000D03*
X125247400Y-93243400D03*
X96494600Y-99009200D03*
X95340418Y-100883509D03*
X125272800Y-94462600D03*
X94259400Y-109956600D03*
X92049600Y-106426000D03*
X92125800Y-117850920D03*
X92125800Y-118714520D03*
X92049600Y-111490997D03*
X88620600Y-109143800D03*
X88773000Y-109931200D03*
X91363800Y-111963200D03*
X103469900Y-118774600D03*
X122923650Y-121695600D03*
X103469900Y-117136300D03*
X124913650Y-121695600D03*
X126903650Y-121695600D03*
X103505000Y-115519200D03*
X101498400Y-118186200D03*
X112100000Y-102000000D03*
X100634800Y-114477800D03*
X110015819Y-104069992D03*
X111000000Y-103000000D03*
X101482600Y-116306600D03*
D16*
X119601000Y-101101000D02*
X104657000Y-101101000D01*
X124418000Y-105918000D02*
X119601000Y-101101000D01*
X124968000Y-105918000D02*
X124418000Y-105918000D01*
X104657000Y-101101000D02*
X104648000Y-101092000D01*
X104100000Y-96800000D02*
X103800000Y-96800000D01*
X102300000Y-106567200D02*
X102616000Y-106883200D01*
X102300000Y-98300000D02*
X102300000Y-106567200D01*
X103800000Y-96800000D02*
X102300000Y-98300000D01*
X106375200Y-112725200D02*
X109169200Y-112725200D01*
X109956600Y-111937800D02*
X118301200Y-111937800D01*
X127715450Y-124718200D02*
X128502850Y-123930800D01*
X109169200Y-112725200D02*
X109956600Y-111937800D01*
X106070400Y-113030000D02*
X106375200Y-112725200D01*
X121619450Y-124718200D02*
X127715450Y-124718200D01*
X118301200Y-111937800D02*
X128313000Y-121949600D01*
X128502850Y-123930800D02*
X128502850Y-121949600D01*
X102476800Y-92900000D02*
X113016800Y-92900000D01*
X113360200Y-93243400D02*
X125247400Y-93243400D01*
X96494600Y-98882200D02*
X102476800Y-92900000D01*
X113016800Y-92900000D02*
X113360200Y-93243400D01*
X96494600Y-99009200D02*
X96494600Y-98882200D01*
X95716491Y-100883509D02*
X102035800Y-94564200D01*
X95340418Y-100883509D02*
X95716491Y-100883509D01*
X125171200Y-94564200D02*
X125272800Y-94462600D01*
X102035800Y-94564200D02*
X125171200Y-94564200D01*
X94259400Y-106680000D02*
X94259400Y-109956600D01*
X92278200Y-106197400D02*
X93776800Y-106197400D01*
X92049600Y-106426000D02*
X92278200Y-106197400D01*
X93776800Y-106197400D02*
X94259400Y-106680000D01*
X118974600Y-117936400D02*
X122733800Y-121695600D01*
X104308100Y-117936400D02*
X118974600Y-117936400D01*
X103469900Y-118774600D02*
X103622300Y-118622200D01*
X103469900Y-118774600D02*
X104308100Y-117936400D01*
X119501000Y-116472800D02*
X104133400Y-116472800D01*
X124723800Y-121695600D02*
X119501000Y-116472800D01*
X104133400Y-116472800D02*
X103469900Y-117136300D01*
X103492200Y-117158600D02*
X103469900Y-117136300D01*
X103526200Y-115498000D02*
X120516200Y-115498000D01*
X120516200Y-115498000D02*
X126713800Y-121695600D01*
X103505000Y-115519200D02*
X103526200Y-115498000D01*
X101498400Y-117644195D02*
X101498400Y-118186200D01*
X102082600Y-114340471D02*
X102082600Y-117059995D01*
X112100000Y-102000000D02*
X112100000Y-104323071D01*
X112100000Y-104323071D02*
X102082600Y-114340471D01*
X102082600Y-117059995D02*
X101498400Y-117644195D01*
X110015819Y-104410981D02*
X100634800Y-113792000D01*
X110015819Y-104069992D02*
X110015819Y-104410981D01*
X100634800Y-113792000D02*
X100634800Y-114477800D01*
X111200000Y-104217400D02*
X101396800Y-114020600D01*
X101396800Y-114020600D02*
X101396800Y-116123949D01*
X111200000Y-103200000D02*
X111200000Y-104217400D01*
X101396800Y-116123949D02*
X101482600Y-116209749D01*
X101482600Y-116209749D02*
X101482600Y-116306600D01*
X111000000Y-103000000D02*
X111200000Y-103200000D01*
M02*
