G04 #@! TF.GenerationSoftware,KiCad,Pcbnew,9.0.4*
G04 #@! TF.CreationDate,2025-09-21T22:22:09+02:00*
G04 #@! TF.ProjectId,modbus-to-x,6d6f6462-7573-42d7-946f-2d782e6b6963,rev?*
G04 #@! TF.SameCoordinates,Original*
G04 #@! TF.FileFunction,Legend,Top*
G04 #@! TF.FilePolarity,Positive*
%FSLAX46Y46*%
G04 Gerber Fmt 4.6, Leading zero omitted, Abs format (unit mm)*
G04 Created by KiCad (PCBNEW 9.0.4) date 2025-09-21 22:22:09*
%MOMM*%
%LPD*%
G01*
G04 APERTURE LIST*
G04 Aperture macros list*
%AMRoundRect*
0 Rectangle with rounded corners*
0 $1 Rounding radius*
0 $2 $3 $4 $5 $6 $7 $8 $9 X,Y pos of 4 corners*
0 Add a 4 corners polygon primitive as box body*
4,1,4,$2,$3,$4,$5,$6,$7,$8,$9,$2,$3,0*
0 Add four circle primitives for the rounded corners*
1,1,$1+$1,$2,$3*
1,1,$1+$1,$4,$5*
1,1,$1+$1,$6,$7*
1,1,$1+$1,$8,$9*
0 Add four rect primitives between the rounded corners*
20,1,$1+$1,$2,$3,$4,$5,0*
20,1,$1+$1,$4,$5,$6,$7,0*
20,1,$1+$1,$6,$7,$8,$9,0*
20,1,$1+$1,$8,$9,$2,$3,0*%
G04 Aperture macros list end*
%ADD10C,0.150000*%
%ADD11C,0.300000*%
%ADD12C,0.120000*%
%ADD13C,0.152400*%
%ADD14C,0.200000*%
%ADD15C,0.100000*%
%ADD16C,0.127000*%
%ADD17C,0.600000*%
%ADD18R,3.800000X3.800000*%
%ADD19R,1.500000X0.900000*%
%ADD20R,0.900000X1.500000*%
%ADD21C,1.700000*%
%ADD22R,1.700000X1.700000*%
%ADD23RoundRect,0.102000X1.900000X1.015000X-1.900000X1.015000X-1.900000X-1.015000X1.900000X-1.015000X0*%
%ADD24RoundRect,0.155000X-0.212500X-0.155000X0.212500X-0.155000X0.212500X0.155000X-0.212500X0.155000X0*%
%ADD25RoundRect,0.250000X0.650000X-0.412500X0.650000X0.412500X-0.650000X0.412500X-0.650000X-0.412500X0*%
%ADD26RoundRect,0.237500X-0.250000X-0.237500X0.250000X-0.237500X0.250000X0.237500X-0.250000X0.237500X0*%
%ADD27RoundRect,0.250000X0.337500X0.475000X-0.337500X0.475000X-0.337500X-0.475000X0.337500X-0.475000X0*%
%ADD28RoundRect,0.102000X0.500000X-0.250000X0.500000X0.250000X-0.500000X0.250000X-0.500000X-0.250000X0*%
%ADD29RoundRect,0.250000X0.350000X0.450000X-0.350000X0.450000X-0.350000X-0.450000X0.350000X-0.450000X0*%
%ADD30RoundRect,0.250000X-1.050000X-0.550000X1.050000X-0.550000X1.050000X0.550000X-1.050000X0.550000X0*%
%ADD31R,0.660400X1.346200*%
%ADD32RoundRect,0.237500X0.300000X0.237500X-0.300000X0.237500X-0.300000X-0.237500X0.300000X-0.237500X0*%
%ADD33RoundRect,0.250000X-0.650000X0.412500X-0.650000X-0.412500X0.650000X-0.412500X0.650000X0.412500X0*%
%ADD34R,0.500000X1.000000*%
%ADD35RoundRect,0.160000X0.160000X-0.222500X0.160000X0.222500X-0.160000X0.222500X-0.160000X-0.222500X0*%
%ADD36RoundRect,0.250000X-0.350000X-0.450000X0.350000X-0.450000X0.350000X0.450000X-0.350000X0.450000X0*%
%ADD37RoundRect,0.250000X-0.337500X-0.475000X0.337500X-0.475000X0.337500X0.475000X-0.337500X0.475000X0*%
%ADD38RoundRect,0.250000X0.412500X0.650000X-0.412500X0.650000X-0.412500X-0.650000X0.412500X-0.650000X0*%
%ADD39C,2.400000*%
%ADD40RoundRect,0.250001X-0.949999X-0.949999X0.949999X-0.949999X0.949999X0.949999X-0.949999X0.949999X0*%
%ADD41RoundRect,0.250000X-0.450000X0.350000X-0.450000X-0.350000X0.450000X-0.350000X0.450000X0.350000X0*%
%ADD42RoundRect,0.250000X-0.475000X0.337500X-0.475000X-0.337500X0.475000X-0.337500X0.475000X0.337500X0*%
%ADD43RoundRect,0.250000X-0.650000X1.500000X-0.650000X-1.500000X0.650000X-1.500000X0.650000X1.500000X0*%
%ADD44RoundRect,0.250000X-0.625000X0.400000X-0.625000X-0.400000X0.625000X-0.400000X0.625000X0.400000X0*%
%ADD45RoundRect,0.250000X-0.412500X-0.650000X0.412500X-0.650000X0.412500X0.650000X-0.412500X0.650000X0*%
%ADD46RoundRect,0.150000X0.825000X0.150000X-0.825000X0.150000X-0.825000X-0.150000X0.825000X-0.150000X0*%
%ADD47RoundRect,0.250000X0.450000X-0.350000X0.450000X0.350000X-0.450000X0.350000X-0.450000X-0.350000X0*%
%ADD48RoundRect,0.099250X0.297750X-0.627750X0.297750X0.627750X-0.297750X0.627750X-0.297750X-0.627750X0*%
%ADD49R,2.209800X8.001000*%
%ADD50RoundRect,0.102000X0.370000X0.850000X-0.370000X0.850000X-0.370000X-0.850000X0.370000X-0.850000X0*%
G04 APERTURE END LIST*
D10*
X130375819Y-110331285D02*
X130375819Y-110902713D01*
X130375819Y-110616999D02*
X129375819Y-110616999D01*
X129375819Y-110616999D02*
X129518676Y-110712237D01*
X129518676Y-110712237D02*
X129613914Y-110807475D01*
X129613914Y-110807475D02*
X129661533Y-110902713D01*
X98569819Y-97391792D02*
X98093628Y-97725125D01*
X98569819Y-97963220D02*
X97569819Y-97963220D01*
X97569819Y-97963220D02*
X97569819Y-97582268D01*
X97569819Y-97582268D02*
X97617438Y-97487030D01*
X97617438Y-97487030D02*
X97665057Y-97439411D01*
X97665057Y-97439411D02*
X97760295Y-97391792D01*
X97760295Y-97391792D02*
X97903152Y-97391792D01*
X97903152Y-97391792D02*
X97998390Y-97439411D01*
X97998390Y-97439411D02*
X98046009Y-97487030D01*
X98046009Y-97487030D02*
X98093628Y-97582268D01*
X98093628Y-97582268D02*
X98093628Y-97963220D01*
X97569819Y-97106077D02*
X97569819Y-96534649D01*
X98569819Y-96820363D02*
X97569819Y-96820363D01*
X98522200Y-96248934D02*
X98569819Y-96106077D01*
X98569819Y-96106077D02*
X98569819Y-95867982D01*
X98569819Y-95867982D02*
X98522200Y-95772744D01*
X98522200Y-95772744D02*
X98474580Y-95725125D01*
X98474580Y-95725125D02*
X98379342Y-95677506D01*
X98379342Y-95677506D02*
X98284104Y-95677506D01*
X98284104Y-95677506D02*
X98188866Y-95725125D01*
X98188866Y-95725125D02*
X98141247Y-95772744D01*
X98141247Y-95772744D02*
X98093628Y-95867982D01*
X98093628Y-95867982D02*
X98046009Y-96058458D01*
X98046009Y-96058458D02*
X97998390Y-96153696D01*
X97998390Y-96153696D02*
X97950771Y-96201315D01*
X97950771Y-96201315D02*
X97855533Y-96248934D01*
X97855533Y-96248934D02*
X97760295Y-96248934D01*
X97760295Y-96248934D02*
X97665057Y-96201315D01*
X97665057Y-96201315D02*
X97617438Y-96153696D01*
X97617438Y-96153696D02*
X97569819Y-96058458D01*
X97569819Y-96058458D02*
X97569819Y-95820363D01*
X97569819Y-95820363D02*
X97617438Y-95677506D01*
X98869819Y-105706077D02*
X99869819Y-105372744D01*
X99869819Y-105372744D02*
X98869819Y-105039411D01*
X99869819Y-104706077D02*
X98869819Y-104706077D01*
X98869819Y-104706077D02*
X98869819Y-104467982D01*
X98869819Y-104467982D02*
X98917438Y-104325125D01*
X98917438Y-104325125D02*
X99012676Y-104229887D01*
X99012676Y-104229887D02*
X99107914Y-104182268D01*
X99107914Y-104182268D02*
X99298390Y-104134649D01*
X99298390Y-104134649D02*
X99441247Y-104134649D01*
X99441247Y-104134649D02*
X99631723Y-104182268D01*
X99631723Y-104182268D02*
X99726961Y-104229887D01*
X99726961Y-104229887D02*
X99822200Y-104325125D01*
X99822200Y-104325125D02*
X99869819Y-104467982D01*
X99869819Y-104467982D02*
X99869819Y-104706077D01*
X99869819Y-103706077D02*
X98869819Y-103706077D01*
X98869819Y-103706077D02*
X98869819Y-103467982D01*
X98869819Y-103467982D02*
X98917438Y-103325125D01*
X98917438Y-103325125D02*
X99012676Y-103229887D01*
X99012676Y-103229887D02*
X99107914Y-103182268D01*
X99107914Y-103182268D02*
X99298390Y-103134649D01*
X99298390Y-103134649D02*
X99441247Y-103134649D01*
X99441247Y-103134649D02*
X99631723Y-103182268D01*
X99631723Y-103182268D02*
X99726961Y-103229887D01*
X99726961Y-103229887D02*
X99822200Y-103325125D01*
X99822200Y-103325125D02*
X99869819Y-103467982D01*
X99869819Y-103467982D02*
X99869819Y-103706077D01*
X97269819Y-105563220D02*
X96269819Y-105563220D01*
X96269819Y-105563220D02*
X96269819Y-105325125D01*
X96269819Y-105325125D02*
X96317438Y-105182268D01*
X96317438Y-105182268D02*
X96412676Y-105087030D01*
X96412676Y-105087030D02*
X96507914Y-105039411D01*
X96507914Y-105039411D02*
X96698390Y-104991792D01*
X96698390Y-104991792D02*
X96841247Y-104991792D01*
X96841247Y-104991792D02*
X97031723Y-105039411D01*
X97031723Y-105039411D02*
X97126961Y-105087030D01*
X97126961Y-105087030D02*
X97222200Y-105182268D01*
X97222200Y-105182268D02*
X97269819Y-105325125D01*
X97269819Y-105325125D02*
X97269819Y-105563220D01*
X96269819Y-104706077D02*
X96269819Y-104134649D01*
X97269819Y-104420363D02*
X96269819Y-104420363D01*
X97269819Y-103229887D02*
X96793628Y-103563220D01*
X97269819Y-103801315D02*
X96269819Y-103801315D01*
X96269819Y-103801315D02*
X96269819Y-103420363D01*
X96269819Y-103420363D02*
X96317438Y-103325125D01*
X96317438Y-103325125D02*
X96365057Y-103277506D01*
X96365057Y-103277506D02*
X96460295Y-103229887D01*
X96460295Y-103229887D02*
X96603152Y-103229887D01*
X96603152Y-103229887D02*
X96698390Y-103277506D01*
X96698390Y-103277506D02*
X96746009Y-103325125D01*
X96746009Y-103325125D02*
X96793628Y-103420363D01*
X96793628Y-103420363D02*
X96793628Y-103801315D01*
X94969819Y-98006077D02*
X94969819Y-97434649D01*
X95969819Y-97720363D02*
X94969819Y-97720363D01*
X94969819Y-97196553D02*
X95969819Y-96529887D01*
X94969819Y-96529887D02*
X95969819Y-97196553D01*
X94669819Y-104291792D02*
X94193628Y-104625125D01*
X94669819Y-104863220D02*
X93669819Y-104863220D01*
X93669819Y-104863220D02*
X93669819Y-104482268D01*
X93669819Y-104482268D02*
X93717438Y-104387030D01*
X93717438Y-104387030D02*
X93765057Y-104339411D01*
X93765057Y-104339411D02*
X93860295Y-104291792D01*
X93860295Y-104291792D02*
X94003152Y-104291792D01*
X94003152Y-104291792D02*
X94098390Y-104339411D01*
X94098390Y-104339411D02*
X94146009Y-104387030D01*
X94146009Y-104387030D02*
X94193628Y-104482268D01*
X94193628Y-104482268D02*
X94193628Y-104863220D01*
X93669819Y-103958458D02*
X94669819Y-103291792D01*
X93669819Y-103291792D02*
X94669819Y-103958458D01*
X98792246Y-120669819D02*
X99125579Y-121669819D01*
X99125579Y-121669819D02*
X99458912Y-120669819D01*
X99792246Y-121669819D02*
X99792246Y-120669819D01*
X100268436Y-121669819D02*
X100268436Y-120669819D01*
X100268436Y-120669819D02*
X100839864Y-121669819D01*
X100839864Y-121669819D02*
X100839864Y-120669819D01*
X106339865Y-121146009D02*
X106482722Y-121193628D01*
X106482722Y-121193628D02*
X106530341Y-121241247D01*
X106530341Y-121241247D02*
X106577960Y-121336485D01*
X106577960Y-121336485D02*
X106577960Y-121479342D01*
X106577960Y-121479342D02*
X106530341Y-121574580D01*
X106530341Y-121574580D02*
X106482722Y-121622200D01*
X106482722Y-121622200D02*
X106387484Y-121669819D01*
X106387484Y-121669819D02*
X106006532Y-121669819D01*
X106006532Y-121669819D02*
X106006532Y-120669819D01*
X106006532Y-120669819D02*
X106339865Y-120669819D01*
X106339865Y-120669819D02*
X106435103Y-120717438D01*
X106435103Y-120717438D02*
X106482722Y-120765057D01*
X106482722Y-120765057D02*
X106530341Y-120860295D01*
X106530341Y-120860295D02*
X106530341Y-120955533D01*
X106530341Y-120955533D02*
X106482722Y-121050771D01*
X106482722Y-121050771D02*
X106435103Y-121098390D01*
X106435103Y-121098390D02*
X106339865Y-121146009D01*
X106339865Y-121146009D02*
X106006532Y-121146009D01*
X107006532Y-121288866D02*
X107768437Y-121288866D01*
X127908857Y-126489254D02*
X127861238Y-126536874D01*
X127861238Y-126536874D02*
X127718381Y-126584493D01*
X127718381Y-126584493D02*
X127623143Y-126584493D01*
X127623143Y-126584493D02*
X127480286Y-126536874D01*
X127480286Y-126536874D02*
X127385048Y-126441635D01*
X127385048Y-126441635D02*
X127337429Y-126346397D01*
X127337429Y-126346397D02*
X127289810Y-126155921D01*
X127289810Y-126155921D02*
X127289810Y-126013064D01*
X127289810Y-126013064D02*
X127337429Y-125822588D01*
X127337429Y-125822588D02*
X127385048Y-125727350D01*
X127385048Y-125727350D02*
X127480286Y-125632112D01*
X127480286Y-125632112D02*
X127623143Y-125584493D01*
X127623143Y-125584493D02*
X127718381Y-125584493D01*
X127718381Y-125584493D02*
X127861238Y-125632112D01*
X127861238Y-125632112D02*
X127908857Y-125679731D01*
X123309810Y-126298778D02*
X123786000Y-126298778D01*
X123214572Y-126584493D02*
X123547905Y-125584493D01*
X123547905Y-125584493D02*
X123881238Y-126584493D01*
X102530341Y-121384104D02*
X103006531Y-121384104D01*
X102435103Y-121669819D02*
X102768436Y-120669819D01*
X102768436Y-120669819D02*
X103101769Y-121669819D01*
X103435103Y-121288866D02*
X104197008Y-121288866D01*
X103816055Y-121669819D02*
X103816055Y-120907914D01*
X125680762Y-126060683D02*
X125823619Y-126108302D01*
X125823619Y-126108302D02*
X125871238Y-126155921D01*
X125871238Y-126155921D02*
X125918857Y-126251159D01*
X125918857Y-126251159D02*
X125918857Y-126394016D01*
X125918857Y-126394016D02*
X125871238Y-126489254D01*
X125871238Y-126489254D02*
X125823619Y-126536874D01*
X125823619Y-126536874D02*
X125728381Y-126584493D01*
X125728381Y-126584493D02*
X125347429Y-126584493D01*
X125347429Y-126584493D02*
X125347429Y-125584493D01*
X125347429Y-125584493D02*
X125680762Y-125584493D01*
X125680762Y-125584493D02*
X125776000Y-125632112D01*
X125776000Y-125632112D02*
X125823619Y-125679731D01*
X125823619Y-125679731D02*
X125871238Y-125774969D01*
X125871238Y-125774969D02*
X125871238Y-125870207D01*
X125871238Y-125870207D02*
X125823619Y-125965445D01*
X125823619Y-125965445D02*
X125776000Y-126013064D01*
X125776000Y-126013064D02*
X125680762Y-126060683D01*
X125680762Y-126060683D02*
X125347429Y-126060683D01*
D11*
X81771823Y-94574127D02*
X81176585Y-94990793D01*
X81771823Y-95288412D02*
X80521823Y-95288412D01*
X80521823Y-95288412D02*
X80521823Y-94812222D01*
X80521823Y-94812222D02*
X80581347Y-94693174D01*
X80581347Y-94693174D02*
X80640871Y-94633651D01*
X80640871Y-94633651D02*
X80759919Y-94574127D01*
X80759919Y-94574127D02*
X80938490Y-94574127D01*
X80938490Y-94574127D02*
X81057538Y-94633651D01*
X81057538Y-94633651D02*
X81117061Y-94693174D01*
X81117061Y-94693174D02*
X81176585Y-94812222D01*
X81176585Y-94812222D02*
X81176585Y-95288412D01*
X81117061Y-94038412D02*
X81117061Y-93621746D01*
X81771823Y-93443174D02*
X81771823Y-94038412D01*
X81771823Y-94038412D02*
X80521823Y-94038412D01*
X80521823Y-94038412D02*
X80521823Y-93443174D01*
X81712300Y-92966984D02*
X81771823Y-92788413D01*
X81771823Y-92788413D02*
X81771823Y-92490794D01*
X81771823Y-92490794D02*
X81712300Y-92371746D01*
X81712300Y-92371746D02*
X81652776Y-92312222D01*
X81652776Y-92312222D02*
X81533728Y-92252699D01*
X81533728Y-92252699D02*
X81414680Y-92252699D01*
X81414680Y-92252699D02*
X81295633Y-92312222D01*
X81295633Y-92312222D02*
X81236109Y-92371746D01*
X81236109Y-92371746D02*
X81176585Y-92490794D01*
X81176585Y-92490794D02*
X81117061Y-92728889D01*
X81117061Y-92728889D02*
X81057538Y-92847937D01*
X81057538Y-92847937D02*
X80998014Y-92907460D01*
X80998014Y-92907460D02*
X80878966Y-92966984D01*
X80878966Y-92966984D02*
X80759919Y-92966984D01*
X80759919Y-92966984D02*
X80640871Y-92907460D01*
X80640871Y-92907460D02*
X80581347Y-92847937D01*
X80581347Y-92847937D02*
X80521823Y-92728889D01*
X80521823Y-92728889D02*
X80521823Y-92431270D01*
X80521823Y-92431270D02*
X80581347Y-92252699D01*
X81117061Y-91716984D02*
X81117061Y-91300318D01*
X81771823Y-91121746D02*
X81771823Y-91716984D01*
X81771823Y-91716984D02*
X80521823Y-91716984D01*
X80521823Y-91716984D02*
X80521823Y-91121746D01*
X80521823Y-90764604D02*
X80521823Y-90050318D01*
X81771823Y-90407461D02*
X80521823Y-90407461D01*
X81117061Y-101120146D02*
X81176585Y-100941574D01*
X81176585Y-100941574D02*
X81236109Y-100882051D01*
X81236109Y-100882051D02*
X81355157Y-100822527D01*
X81355157Y-100822527D02*
X81533728Y-100822527D01*
X81533728Y-100822527D02*
X81652776Y-100882051D01*
X81652776Y-100882051D02*
X81712300Y-100941574D01*
X81712300Y-100941574D02*
X81771823Y-101060622D01*
X81771823Y-101060622D02*
X81771823Y-101536812D01*
X81771823Y-101536812D02*
X80521823Y-101536812D01*
X80521823Y-101536812D02*
X80521823Y-101120146D01*
X80521823Y-101120146D02*
X80581347Y-101001098D01*
X80581347Y-101001098D02*
X80640871Y-100941574D01*
X80640871Y-100941574D02*
X80759919Y-100882051D01*
X80759919Y-100882051D02*
X80878966Y-100882051D01*
X80878966Y-100882051D02*
X80998014Y-100941574D01*
X80998014Y-100941574D02*
X81057538Y-101001098D01*
X81057538Y-101001098D02*
X81117061Y-101120146D01*
X81117061Y-101120146D02*
X81117061Y-101536812D01*
X80521823Y-100048717D02*
X80521823Y-99810622D01*
X80521823Y-99810622D02*
X80581347Y-99691574D01*
X80581347Y-99691574D02*
X80700395Y-99572527D01*
X80700395Y-99572527D02*
X80938490Y-99513003D01*
X80938490Y-99513003D02*
X81355157Y-99513003D01*
X81355157Y-99513003D02*
X81593252Y-99572527D01*
X81593252Y-99572527D02*
X81712300Y-99691574D01*
X81712300Y-99691574D02*
X81771823Y-99810622D01*
X81771823Y-99810622D02*
X81771823Y-100048717D01*
X81771823Y-100048717D02*
X81712300Y-100167765D01*
X81712300Y-100167765D02*
X81593252Y-100286812D01*
X81593252Y-100286812D02*
X81355157Y-100346336D01*
X81355157Y-100346336D02*
X80938490Y-100346336D01*
X80938490Y-100346336D02*
X80700395Y-100286812D01*
X80700395Y-100286812D02*
X80581347Y-100167765D01*
X80581347Y-100167765D02*
X80521823Y-100048717D01*
X80521823Y-98739193D02*
X80521823Y-98501098D01*
X80521823Y-98501098D02*
X80581347Y-98382050D01*
X80581347Y-98382050D02*
X80700395Y-98263003D01*
X80700395Y-98263003D02*
X80938490Y-98203479D01*
X80938490Y-98203479D02*
X81355157Y-98203479D01*
X81355157Y-98203479D02*
X81593252Y-98263003D01*
X81593252Y-98263003D02*
X81712300Y-98382050D01*
X81712300Y-98382050D02*
X81771823Y-98501098D01*
X81771823Y-98501098D02*
X81771823Y-98739193D01*
X81771823Y-98739193D02*
X81712300Y-98858241D01*
X81712300Y-98858241D02*
X81593252Y-98977288D01*
X81593252Y-98977288D02*
X81355157Y-99036812D01*
X81355157Y-99036812D02*
X80938490Y-99036812D01*
X80938490Y-99036812D02*
X80700395Y-98977288D01*
X80700395Y-98977288D02*
X80581347Y-98858241D01*
X80581347Y-98858241D02*
X80521823Y-98739193D01*
X80521823Y-97846336D02*
X80521823Y-97132050D01*
X81771823Y-97489193D02*
X80521823Y-97489193D01*
D10*
X101501750Y-100139619D02*
X101311274Y-100139619D01*
X101311274Y-100139619D02*
X101216036Y-100187238D01*
X101216036Y-100187238D02*
X101168417Y-100234857D01*
X101168417Y-100234857D02*
X101073179Y-100377714D01*
X101073179Y-100377714D02*
X101025560Y-100568190D01*
X101025560Y-100568190D02*
X101025560Y-100949142D01*
X101025560Y-100949142D02*
X101073179Y-101044380D01*
X101073179Y-101044380D02*
X101120798Y-101092000D01*
X101120798Y-101092000D02*
X101216036Y-101139619D01*
X101216036Y-101139619D02*
X101406512Y-101139619D01*
X101406512Y-101139619D02*
X101501750Y-101092000D01*
X101501750Y-101092000D02*
X101549369Y-101044380D01*
X101549369Y-101044380D02*
X101596988Y-100949142D01*
X101596988Y-100949142D02*
X101596988Y-100711047D01*
X101596988Y-100711047D02*
X101549369Y-100615809D01*
X101549369Y-100615809D02*
X101501750Y-100568190D01*
X101501750Y-100568190D02*
X101406512Y-100520571D01*
X101406512Y-100520571D02*
X101216036Y-100520571D01*
X101216036Y-100520571D02*
X101120798Y-100568190D01*
X101120798Y-100568190D02*
X101073179Y-100615809D01*
X101073179Y-100615809D02*
X101025560Y-100711047D01*
X91665588Y-101139619D02*
X91094160Y-101139619D01*
X91379874Y-101139619D02*
X91379874Y-100139619D01*
X91379874Y-100139619D02*
X91284636Y-100282476D01*
X91284636Y-100282476D02*
X91189398Y-100377714D01*
X91189398Y-100377714D02*
X91094160Y-100425333D01*
X118964572Y-126584493D02*
X118964572Y-125584493D01*
X118964572Y-125584493D02*
X119345524Y-125584493D01*
X119345524Y-125584493D02*
X119440762Y-125632112D01*
X119440762Y-125632112D02*
X119488381Y-125679731D01*
X119488381Y-125679731D02*
X119536000Y-125774969D01*
X119536000Y-125774969D02*
X119536000Y-125917826D01*
X119536000Y-125917826D02*
X119488381Y-126013064D01*
X119488381Y-126013064D02*
X119440762Y-126060683D01*
X119440762Y-126060683D02*
X119345524Y-126108302D01*
X119345524Y-126108302D02*
X118964572Y-126108302D01*
X119869334Y-125584493D02*
X120107429Y-126584493D01*
X120107429Y-126584493D02*
X120297905Y-125870207D01*
X120297905Y-125870207D02*
X120488381Y-126584493D01*
X120488381Y-126584493D02*
X120726477Y-125584493D01*
X121678857Y-126584493D02*
X121345524Y-126108302D01*
X121107429Y-126584493D02*
X121107429Y-125584493D01*
X121107429Y-125584493D02*
X121488381Y-125584493D01*
X121488381Y-125584493D02*
X121583619Y-125632112D01*
X121583619Y-125632112D02*
X121631238Y-125679731D01*
X121631238Y-125679731D02*
X121678857Y-125774969D01*
X121678857Y-125774969D02*
X121678857Y-125917826D01*
X121678857Y-125917826D02*
X121631238Y-126013064D01*
X121631238Y-126013064D02*
X121583619Y-126060683D01*
X121583619Y-126060683D02*
X121488381Y-126108302D01*
X121488381Y-126108302D02*
X121107429Y-126108302D01*
X109860588Y-120717438D02*
X109765350Y-120669819D01*
X109765350Y-120669819D02*
X109622493Y-120669819D01*
X109622493Y-120669819D02*
X109479636Y-120717438D01*
X109479636Y-120717438D02*
X109384398Y-120812676D01*
X109384398Y-120812676D02*
X109336779Y-120907914D01*
X109336779Y-120907914D02*
X109289160Y-121098390D01*
X109289160Y-121098390D02*
X109289160Y-121241247D01*
X109289160Y-121241247D02*
X109336779Y-121431723D01*
X109336779Y-121431723D02*
X109384398Y-121526961D01*
X109384398Y-121526961D02*
X109479636Y-121622200D01*
X109479636Y-121622200D02*
X109622493Y-121669819D01*
X109622493Y-121669819D02*
X109717731Y-121669819D01*
X109717731Y-121669819D02*
X109860588Y-121622200D01*
X109860588Y-121622200D02*
X109908207Y-121574580D01*
X109908207Y-121574580D02*
X109908207Y-121241247D01*
X109908207Y-121241247D02*
X109717731Y-121241247D01*
X110336779Y-121669819D02*
X110336779Y-120669819D01*
X110336779Y-120669819D02*
X110908207Y-121669819D01*
X110908207Y-121669819D02*
X110908207Y-120669819D01*
X111384398Y-121669819D02*
X111384398Y-120669819D01*
X111384398Y-120669819D02*
X111622493Y-120669819D01*
X111622493Y-120669819D02*
X111765350Y-120717438D01*
X111765350Y-120717438D02*
X111860588Y-120812676D01*
X111860588Y-120812676D02*
X111908207Y-120907914D01*
X111908207Y-120907914D02*
X111955826Y-121098390D01*
X111955826Y-121098390D02*
X111955826Y-121241247D01*
X111955826Y-121241247D02*
X111908207Y-121431723D01*
X111908207Y-121431723D02*
X111860588Y-121526961D01*
X111860588Y-121526961D02*
X111765350Y-121622200D01*
X111765350Y-121622200D02*
X111622493Y-121669819D01*
X111622493Y-121669819D02*
X111384398Y-121669819D01*
X116473410Y-103096219D02*
X116473410Y-102096219D01*
X117521028Y-103000980D02*
X117473409Y-103048600D01*
X117473409Y-103048600D02*
X117330552Y-103096219D01*
X117330552Y-103096219D02*
X117235314Y-103096219D01*
X117235314Y-103096219D02*
X117092457Y-103048600D01*
X117092457Y-103048600D02*
X116997219Y-102953361D01*
X116997219Y-102953361D02*
X116949600Y-102858123D01*
X116949600Y-102858123D02*
X116901981Y-102667647D01*
X116901981Y-102667647D02*
X116901981Y-102524790D01*
X116901981Y-102524790D02*
X116949600Y-102334314D01*
X116949600Y-102334314D02*
X116997219Y-102239076D01*
X116997219Y-102239076D02*
X117092457Y-102143838D01*
X117092457Y-102143838D02*
X117235314Y-102096219D01*
X117235314Y-102096219D02*
X117330552Y-102096219D01*
X117330552Y-102096219D02*
X117473409Y-102143838D01*
X117473409Y-102143838D02*
X117521028Y-102191457D01*
X118473409Y-103096219D02*
X117901981Y-103096219D01*
X118187695Y-103096219D02*
X118187695Y-102096219D01*
X118187695Y-102096219D02*
X118092457Y-102239076D01*
X118092457Y-102239076D02*
X117997219Y-102334314D01*
X117997219Y-102334314D02*
X117901981Y-102381933D01*
X127391819Y-109320333D02*
X128106104Y-109320333D01*
X128106104Y-109320333D02*
X128248961Y-109367952D01*
X128248961Y-109367952D02*
X128344200Y-109463190D01*
X128344200Y-109463190D02*
X128391819Y-109606047D01*
X128391819Y-109606047D02*
X128391819Y-109701285D01*
X128391819Y-108320333D02*
X128391819Y-108891761D01*
X128391819Y-108606047D02*
X127391819Y-108606047D01*
X127391819Y-108606047D02*
X127534676Y-108701285D01*
X127534676Y-108701285D02*
X127629914Y-108796523D01*
X127629914Y-108796523D02*
X127677533Y-108891761D01*
X123519047Y-116654819D02*
X123185714Y-116178628D01*
X122947619Y-116654819D02*
X122947619Y-115654819D01*
X122947619Y-115654819D02*
X123328571Y-115654819D01*
X123328571Y-115654819D02*
X123423809Y-115702438D01*
X123423809Y-115702438D02*
X123471428Y-115750057D01*
X123471428Y-115750057D02*
X123519047Y-115845295D01*
X123519047Y-115845295D02*
X123519047Y-115988152D01*
X123519047Y-115988152D02*
X123471428Y-116083390D01*
X123471428Y-116083390D02*
X123423809Y-116131009D01*
X123423809Y-116131009D02*
X123328571Y-116178628D01*
X123328571Y-116178628D02*
X122947619Y-116178628D01*
X123852381Y-115654819D02*
X124519047Y-116654819D01*
X124519047Y-115654819D02*
X123852381Y-116654819D01*
X124852381Y-115750057D02*
X124900000Y-115702438D01*
X124900000Y-115702438D02*
X124995238Y-115654819D01*
X124995238Y-115654819D02*
X125233333Y-115654819D01*
X125233333Y-115654819D02*
X125328571Y-115702438D01*
X125328571Y-115702438D02*
X125376190Y-115750057D01*
X125376190Y-115750057D02*
X125423809Y-115845295D01*
X125423809Y-115845295D02*
X125423809Y-115940533D01*
X125423809Y-115940533D02*
X125376190Y-116083390D01*
X125376190Y-116083390D02*
X124804762Y-116654819D01*
X124804762Y-116654819D02*
X125423809Y-116654819D01*
X125614286Y-116750057D02*
X126376190Y-116750057D01*
X126471429Y-115654819D02*
X127042857Y-115654819D01*
X126757143Y-116654819D02*
X126757143Y-115654819D01*
X127376191Y-116654819D02*
X127376191Y-115654819D01*
X127376191Y-115654819D02*
X127757143Y-115654819D01*
X127757143Y-115654819D02*
X127852381Y-115702438D01*
X127852381Y-115702438D02*
X127900000Y-115750057D01*
X127900000Y-115750057D02*
X127947619Y-115845295D01*
X127947619Y-115845295D02*
X127947619Y-115988152D01*
X127947619Y-115988152D02*
X127900000Y-116083390D01*
X127900000Y-116083390D02*
X127852381Y-116131009D01*
X127852381Y-116131009D02*
X127757143Y-116178628D01*
X127757143Y-116178628D02*
X127376191Y-116178628D01*
X128900000Y-116654819D02*
X128328572Y-116654819D01*
X128614286Y-116654819D02*
X128614286Y-115654819D01*
X128614286Y-115654819D02*
X128519048Y-115797676D01*
X128519048Y-115797676D02*
X128423810Y-115892914D01*
X128423810Y-115892914D02*
X128328572Y-115940533D01*
X102326556Y-98912986D02*
X102278937Y-98960606D01*
X102278937Y-98960606D02*
X102136080Y-99008225D01*
X102136080Y-99008225D02*
X102040842Y-99008225D01*
X102040842Y-99008225D02*
X101897985Y-98960606D01*
X101897985Y-98960606D02*
X101802747Y-98865367D01*
X101802747Y-98865367D02*
X101755128Y-98770129D01*
X101755128Y-98770129D02*
X101707509Y-98579653D01*
X101707509Y-98579653D02*
X101707509Y-98436796D01*
X101707509Y-98436796D02*
X101755128Y-98246320D01*
X101755128Y-98246320D02*
X101802747Y-98151082D01*
X101802747Y-98151082D02*
X101897985Y-98055844D01*
X101897985Y-98055844D02*
X102040842Y-98008225D01*
X102040842Y-98008225D02*
X102136080Y-98008225D01*
X102136080Y-98008225D02*
X102278937Y-98055844D01*
X102278937Y-98055844D02*
X102326556Y-98103463D01*
X103231318Y-98008225D02*
X102755128Y-98008225D01*
X102755128Y-98008225D02*
X102707509Y-98484415D01*
X102707509Y-98484415D02*
X102755128Y-98436796D01*
X102755128Y-98436796D02*
X102850366Y-98389177D01*
X102850366Y-98389177D02*
X103088461Y-98389177D01*
X103088461Y-98389177D02*
X103183699Y-98436796D01*
X103183699Y-98436796D02*
X103231318Y-98484415D01*
X103231318Y-98484415D02*
X103278937Y-98579653D01*
X103278937Y-98579653D02*
X103278937Y-98817748D01*
X103278937Y-98817748D02*
X103231318Y-98912986D01*
X103231318Y-98912986D02*
X103183699Y-98960606D01*
X103183699Y-98960606D02*
X103088461Y-99008225D01*
X103088461Y-99008225D02*
X102850366Y-99008225D01*
X102850366Y-99008225D02*
X102755128Y-98960606D01*
X102755128Y-98960606D02*
X102707509Y-98912986D01*
X102314691Y-100139231D02*
X102267072Y-100186851D01*
X102267072Y-100186851D02*
X102124215Y-100234470D01*
X102124215Y-100234470D02*
X102028977Y-100234470D01*
X102028977Y-100234470D02*
X101886120Y-100186851D01*
X101886120Y-100186851D02*
X101790882Y-100091612D01*
X101790882Y-100091612D02*
X101743263Y-99996374D01*
X101743263Y-99996374D02*
X101695644Y-99805898D01*
X101695644Y-99805898D02*
X101695644Y-99663041D01*
X101695644Y-99663041D02*
X101743263Y-99472565D01*
X101743263Y-99472565D02*
X101790882Y-99377327D01*
X101790882Y-99377327D02*
X101886120Y-99282089D01*
X101886120Y-99282089D02*
X102028977Y-99234470D01*
X102028977Y-99234470D02*
X102124215Y-99234470D01*
X102124215Y-99234470D02*
X102267072Y-99282089D01*
X102267072Y-99282089D02*
X102314691Y-99329708D01*
X102648025Y-99234470D02*
X103267072Y-99234470D01*
X103267072Y-99234470D02*
X102933739Y-99615422D01*
X102933739Y-99615422D02*
X103076596Y-99615422D01*
X103076596Y-99615422D02*
X103171834Y-99663041D01*
X103171834Y-99663041D02*
X103219453Y-99710660D01*
X103219453Y-99710660D02*
X103267072Y-99805898D01*
X103267072Y-99805898D02*
X103267072Y-100043993D01*
X103267072Y-100043993D02*
X103219453Y-100139231D01*
X103219453Y-100139231D02*
X103171834Y-100186851D01*
X103171834Y-100186851D02*
X103076596Y-100234470D01*
X103076596Y-100234470D02*
X102790882Y-100234470D01*
X102790882Y-100234470D02*
X102695644Y-100186851D01*
X102695644Y-100186851D02*
X102648025Y-100139231D01*
X91748780Y-91809866D02*
X91796400Y-91857485D01*
X91796400Y-91857485D02*
X91844019Y-92000342D01*
X91844019Y-92000342D02*
X91844019Y-92095580D01*
X91844019Y-92095580D02*
X91796400Y-92238437D01*
X91796400Y-92238437D02*
X91701161Y-92333675D01*
X91701161Y-92333675D02*
X91605923Y-92381294D01*
X91605923Y-92381294D02*
X91415447Y-92428913D01*
X91415447Y-92428913D02*
X91272590Y-92428913D01*
X91272590Y-92428913D02*
X91082114Y-92381294D01*
X91082114Y-92381294D02*
X90986876Y-92333675D01*
X90986876Y-92333675D02*
X90891638Y-92238437D01*
X90891638Y-92238437D02*
X90844019Y-92095580D01*
X90844019Y-92095580D02*
X90844019Y-92000342D01*
X90844019Y-92000342D02*
X90891638Y-91857485D01*
X90891638Y-91857485D02*
X90939257Y-91809866D01*
X91844019Y-90857485D02*
X91844019Y-91428913D01*
X91844019Y-91143199D02*
X90844019Y-91143199D01*
X90844019Y-91143199D02*
X90986876Y-91238437D01*
X90986876Y-91238437D02*
X91082114Y-91333675D01*
X91082114Y-91333675D02*
X91129733Y-91428913D01*
X97857142Y-117650419D02*
X97523809Y-117174228D01*
X97285714Y-117650419D02*
X97285714Y-116650419D01*
X97285714Y-116650419D02*
X97666666Y-116650419D01*
X97666666Y-116650419D02*
X97761904Y-116698038D01*
X97761904Y-116698038D02*
X97809523Y-116745657D01*
X97809523Y-116745657D02*
X97857142Y-116840895D01*
X97857142Y-116840895D02*
X97857142Y-116983752D01*
X97857142Y-116983752D02*
X97809523Y-117078990D01*
X97809523Y-117078990D02*
X97761904Y-117126609D01*
X97761904Y-117126609D02*
X97666666Y-117174228D01*
X97666666Y-117174228D02*
X97285714Y-117174228D01*
X98809523Y-117650419D02*
X98238095Y-117650419D01*
X98523809Y-117650419D02*
X98523809Y-116650419D01*
X98523809Y-116650419D02*
X98428571Y-116793276D01*
X98428571Y-116793276D02*
X98333333Y-116888514D01*
X98333333Y-116888514D02*
X98238095Y-116936133D01*
X99142857Y-116650419D02*
X99809523Y-116650419D01*
X99809523Y-116650419D02*
X99380952Y-117650419D01*
X88057142Y-113559580D02*
X88009523Y-113607200D01*
X88009523Y-113607200D02*
X87866666Y-113654819D01*
X87866666Y-113654819D02*
X87771428Y-113654819D01*
X87771428Y-113654819D02*
X87628571Y-113607200D01*
X87628571Y-113607200D02*
X87533333Y-113511961D01*
X87533333Y-113511961D02*
X87485714Y-113416723D01*
X87485714Y-113416723D02*
X87438095Y-113226247D01*
X87438095Y-113226247D02*
X87438095Y-113083390D01*
X87438095Y-113083390D02*
X87485714Y-112892914D01*
X87485714Y-112892914D02*
X87533333Y-112797676D01*
X87533333Y-112797676D02*
X87628571Y-112702438D01*
X87628571Y-112702438D02*
X87771428Y-112654819D01*
X87771428Y-112654819D02*
X87866666Y-112654819D01*
X87866666Y-112654819D02*
X88009523Y-112702438D01*
X88009523Y-112702438D02*
X88057142Y-112750057D01*
X88438095Y-112750057D02*
X88485714Y-112702438D01*
X88485714Y-112702438D02*
X88580952Y-112654819D01*
X88580952Y-112654819D02*
X88819047Y-112654819D01*
X88819047Y-112654819D02*
X88914285Y-112702438D01*
X88914285Y-112702438D02*
X88961904Y-112750057D01*
X88961904Y-112750057D02*
X89009523Y-112845295D01*
X89009523Y-112845295D02*
X89009523Y-112940533D01*
X89009523Y-112940533D02*
X88961904Y-113083390D01*
X88961904Y-113083390D02*
X88390476Y-113654819D01*
X88390476Y-113654819D02*
X89009523Y-113654819D01*
X89342857Y-112654819D02*
X89961904Y-112654819D01*
X89961904Y-112654819D02*
X89628571Y-113035771D01*
X89628571Y-113035771D02*
X89771428Y-113035771D01*
X89771428Y-113035771D02*
X89866666Y-113083390D01*
X89866666Y-113083390D02*
X89914285Y-113131009D01*
X89914285Y-113131009D02*
X89961904Y-113226247D01*
X89961904Y-113226247D02*
X89961904Y-113464342D01*
X89961904Y-113464342D02*
X89914285Y-113559580D01*
X89914285Y-113559580D02*
X89866666Y-113607200D01*
X89866666Y-113607200D02*
X89771428Y-113654819D01*
X89771428Y-113654819D02*
X89485714Y-113654819D01*
X89485714Y-113654819D02*
X89390476Y-113607200D01*
X89390476Y-113607200D02*
X89342857Y-113559580D01*
X106423809Y-100778628D02*
X106423809Y-101254819D01*
X106090476Y-100254819D02*
X106423809Y-100778628D01*
X106423809Y-100778628D02*
X106757142Y-100254819D01*
X107614285Y-101254819D02*
X107042857Y-101254819D01*
X107328571Y-101254819D02*
X107328571Y-100254819D01*
X107328571Y-100254819D02*
X107233333Y-100397676D01*
X107233333Y-100397676D02*
X107138095Y-100492914D01*
X107138095Y-100492914D02*
X107042857Y-100540533D01*
X130770333Y-91640819D02*
X130437000Y-91164628D01*
X130198905Y-91640819D02*
X130198905Y-90640819D01*
X130198905Y-90640819D02*
X130579857Y-90640819D01*
X130579857Y-90640819D02*
X130675095Y-90688438D01*
X130675095Y-90688438D02*
X130722714Y-90736057D01*
X130722714Y-90736057D02*
X130770333Y-90831295D01*
X130770333Y-90831295D02*
X130770333Y-90974152D01*
X130770333Y-90974152D02*
X130722714Y-91069390D01*
X130722714Y-91069390D02*
X130675095Y-91117009D01*
X130675095Y-91117009D02*
X130579857Y-91164628D01*
X130579857Y-91164628D02*
X130198905Y-91164628D01*
X131675095Y-90640819D02*
X131198905Y-90640819D01*
X131198905Y-90640819D02*
X131151286Y-91117009D01*
X131151286Y-91117009D02*
X131198905Y-91069390D01*
X131198905Y-91069390D02*
X131294143Y-91021771D01*
X131294143Y-91021771D02*
X131532238Y-91021771D01*
X131532238Y-91021771D02*
X131627476Y-91069390D01*
X131627476Y-91069390D02*
X131675095Y-91117009D01*
X131675095Y-91117009D02*
X131722714Y-91212247D01*
X131722714Y-91212247D02*
X131722714Y-91450342D01*
X131722714Y-91450342D02*
X131675095Y-91545580D01*
X131675095Y-91545580D02*
X131627476Y-91593200D01*
X131627476Y-91593200D02*
X131532238Y-91640819D01*
X131532238Y-91640819D02*
X131294143Y-91640819D01*
X131294143Y-91640819D02*
X131198905Y-91593200D01*
X131198905Y-91593200D02*
X131151286Y-91545580D01*
X116377697Y-121803647D02*
X116330078Y-121851267D01*
X116330078Y-121851267D02*
X116187221Y-121898886D01*
X116187221Y-121898886D02*
X116091983Y-121898886D01*
X116091983Y-121898886D02*
X115949126Y-121851267D01*
X115949126Y-121851267D02*
X115853888Y-121756028D01*
X115853888Y-121756028D02*
X115806269Y-121660790D01*
X115806269Y-121660790D02*
X115758650Y-121470314D01*
X115758650Y-121470314D02*
X115758650Y-121327457D01*
X115758650Y-121327457D02*
X115806269Y-121136981D01*
X115806269Y-121136981D02*
X115853888Y-121041743D01*
X115853888Y-121041743D02*
X115949126Y-120946505D01*
X115949126Y-120946505D02*
X116091983Y-120898886D01*
X116091983Y-120898886D02*
X116187221Y-120898886D01*
X116187221Y-120898886D02*
X116330078Y-120946505D01*
X116330078Y-120946505D02*
X116377697Y-120994124D01*
X116758650Y-120994124D02*
X116806269Y-120946505D01*
X116806269Y-120946505D02*
X116901507Y-120898886D01*
X116901507Y-120898886D02*
X117139602Y-120898886D01*
X117139602Y-120898886D02*
X117234840Y-120946505D01*
X117234840Y-120946505D02*
X117282459Y-120994124D01*
X117282459Y-120994124D02*
X117330078Y-121089362D01*
X117330078Y-121089362D02*
X117330078Y-121184600D01*
X117330078Y-121184600D02*
X117282459Y-121327457D01*
X117282459Y-121327457D02*
X116711031Y-121898886D01*
X116711031Y-121898886D02*
X117330078Y-121898886D01*
X117711031Y-120994124D02*
X117758650Y-120946505D01*
X117758650Y-120946505D02*
X117853888Y-120898886D01*
X117853888Y-120898886D02*
X118091983Y-120898886D01*
X118091983Y-120898886D02*
X118187221Y-120946505D01*
X118187221Y-120946505D02*
X118234840Y-120994124D01*
X118234840Y-120994124D02*
X118282459Y-121089362D01*
X118282459Y-121089362D02*
X118282459Y-121184600D01*
X118282459Y-121184600D02*
X118234840Y-121327457D01*
X118234840Y-121327457D02*
X117663412Y-121898886D01*
X117663412Y-121898886D02*
X118282459Y-121898886D01*
X84620267Y-98984600D02*
X84763124Y-99032219D01*
X84763124Y-99032219D02*
X85001219Y-99032219D01*
X85001219Y-99032219D02*
X85096457Y-98984600D01*
X85096457Y-98984600D02*
X85144076Y-98936980D01*
X85144076Y-98936980D02*
X85191695Y-98841742D01*
X85191695Y-98841742D02*
X85191695Y-98746504D01*
X85191695Y-98746504D02*
X85144076Y-98651266D01*
X85144076Y-98651266D02*
X85096457Y-98603647D01*
X85096457Y-98603647D02*
X85001219Y-98556028D01*
X85001219Y-98556028D02*
X84810743Y-98508409D01*
X84810743Y-98508409D02*
X84715505Y-98460790D01*
X84715505Y-98460790D02*
X84667886Y-98413171D01*
X84667886Y-98413171D02*
X84620267Y-98317933D01*
X84620267Y-98317933D02*
X84620267Y-98222695D01*
X84620267Y-98222695D02*
X84667886Y-98127457D01*
X84667886Y-98127457D02*
X84715505Y-98079838D01*
X84715505Y-98079838D02*
X84810743Y-98032219D01*
X84810743Y-98032219D02*
X85048838Y-98032219D01*
X85048838Y-98032219D02*
X85191695Y-98079838D01*
X85525029Y-98032219D02*
X85763124Y-99032219D01*
X85763124Y-99032219D02*
X85953600Y-98317933D01*
X85953600Y-98317933D02*
X86144076Y-99032219D01*
X86144076Y-99032219D02*
X86382172Y-98032219D01*
X86667886Y-98032219D02*
X87286933Y-98032219D01*
X87286933Y-98032219D02*
X86953600Y-98413171D01*
X86953600Y-98413171D02*
X87096457Y-98413171D01*
X87096457Y-98413171D02*
X87191695Y-98460790D01*
X87191695Y-98460790D02*
X87239314Y-98508409D01*
X87239314Y-98508409D02*
X87286933Y-98603647D01*
X87286933Y-98603647D02*
X87286933Y-98841742D01*
X87286933Y-98841742D02*
X87239314Y-98936980D01*
X87239314Y-98936980D02*
X87191695Y-98984600D01*
X87191695Y-98984600D02*
X87096457Y-99032219D01*
X87096457Y-99032219D02*
X86810743Y-99032219D01*
X86810743Y-99032219D02*
X86715505Y-98984600D01*
X86715505Y-98984600D02*
X86667886Y-98936980D01*
X81551542Y-113186380D02*
X81503923Y-113234000D01*
X81503923Y-113234000D02*
X81361066Y-113281619D01*
X81361066Y-113281619D02*
X81265828Y-113281619D01*
X81265828Y-113281619D02*
X81122971Y-113234000D01*
X81122971Y-113234000D02*
X81027733Y-113138761D01*
X81027733Y-113138761D02*
X80980114Y-113043523D01*
X80980114Y-113043523D02*
X80932495Y-112853047D01*
X80932495Y-112853047D02*
X80932495Y-112710190D01*
X80932495Y-112710190D02*
X80980114Y-112519714D01*
X80980114Y-112519714D02*
X81027733Y-112424476D01*
X81027733Y-112424476D02*
X81122971Y-112329238D01*
X81122971Y-112329238D02*
X81265828Y-112281619D01*
X81265828Y-112281619D02*
X81361066Y-112281619D01*
X81361066Y-112281619D02*
X81503923Y-112329238D01*
X81503923Y-112329238D02*
X81551542Y-112376857D01*
X81932495Y-112376857D02*
X81980114Y-112329238D01*
X81980114Y-112329238D02*
X82075352Y-112281619D01*
X82075352Y-112281619D02*
X82313447Y-112281619D01*
X82313447Y-112281619D02*
X82408685Y-112329238D01*
X82408685Y-112329238D02*
X82456304Y-112376857D01*
X82456304Y-112376857D02*
X82503923Y-112472095D01*
X82503923Y-112472095D02*
X82503923Y-112567333D01*
X82503923Y-112567333D02*
X82456304Y-112710190D01*
X82456304Y-112710190D02*
X81884876Y-113281619D01*
X81884876Y-113281619D02*
X82503923Y-113281619D01*
X82980114Y-113281619D02*
X83170590Y-113281619D01*
X83170590Y-113281619D02*
X83265828Y-113234000D01*
X83265828Y-113234000D02*
X83313447Y-113186380D01*
X83313447Y-113186380D02*
X83408685Y-113043523D01*
X83408685Y-113043523D02*
X83456304Y-112853047D01*
X83456304Y-112853047D02*
X83456304Y-112472095D01*
X83456304Y-112472095D02*
X83408685Y-112376857D01*
X83408685Y-112376857D02*
X83361066Y-112329238D01*
X83361066Y-112329238D02*
X83265828Y-112281619D01*
X83265828Y-112281619D02*
X83075352Y-112281619D01*
X83075352Y-112281619D02*
X82980114Y-112329238D01*
X82980114Y-112329238D02*
X82932495Y-112376857D01*
X82932495Y-112376857D02*
X82884876Y-112472095D01*
X82884876Y-112472095D02*
X82884876Y-112710190D01*
X82884876Y-112710190D02*
X82932495Y-112805428D01*
X82932495Y-112805428D02*
X82980114Y-112853047D01*
X82980114Y-112853047D02*
X83075352Y-112900666D01*
X83075352Y-112900666D02*
X83265828Y-112900666D01*
X83265828Y-112900666D02*
X83361066Y-112853047D01*
X83361066Y-112853047D02*
X83408685Y-112805428D01*
X83408685Y-112805428D02*
X83456304Y-112710190D01*
X94314180Y-88787266D02*
X94361800Y-88834885D01*
X94361800Y-88834885D02*
X94409419Y-88977742D01*
X94409419Y-88977742D02*
X94409419Y-89072980D01*
X94409419Y-89072980D02*
X94361800Y-89215837D01*
X94361800Y-89215837D02*
X94266561Y-89311075D01*
X94266561Y-89311075D02*
X94171323Y-89358694D01*
X94171323Y-89358694D02*
X93980847Y-89406313D01*
X93980847Y-89406313D02*
X93837990Y-89406313D01*
X93837990Y-89406313D02*
X93647514Y-89358694D01*
X93647514Y-89358694D02*
X93552276Y-89311075D01*
X93552276Y-89311075D02*
X93457038Y-89215837D01*
X93457038Y-89215837D02*
X93409419Y-89072980D01*
X93409419Y-89072980D02*
X93409419Y-88977742D01*
X93409419Y-88977742D02*
X93457038Y-88834885D01*
X93457038Y-88834885D02*
X93504657Y-88787266D01*
X93504657Y-88406313D02*
X93457038Y-88358694D01*
X93457038Y-88358694D02*
X93409419Y-88263456D01*
X93409419Y-88263456D02*
X93409419Y-88025361D01*
X93409419Y-88025361D02*
X93457038Y-87930123D01*
X93457038Y-87930123D02*
X93504657Y-87882504D01*
X93504657Y-87882504D02*
X93599895Y-87834885D01*
X93599895Y-87834885D02*
X93695133Y-87834885D01*
X93695133Y-87834885D02*
X93837990Y-87882504D01*
X93837990Y-87882504D02*
X94409419Y-88453932D01*
X94409419Y-88453932D02*
X94409419Y-87834885D01*
X100910161Y-106893257D02*
X100814923Y-106845638D01*
X100814923Y-106845638D02*
X100719685Y-106750400D01*
X100719685Y-106750400D02*
X100576828Y-106607542D01*
X100576828Y-106607542D02*
X100481590Y-106559923D01*
X100481590Y-106559923D02*
X100386352Y-106559923D01*
X100433971Y-106798019D02*
X100338733Y-106750400D01*
X100338733Y-106750400D02*
X100243495Y-106655161D01*
X100243495Y-106655161D02*
X100195876Y-106464685D01*
X100195876Y-106464685D02*
X100195876Y-106131352D01*
X100195876Y-106131352D02*
X100243495Y-105940876D01*
X100243495Y-105940876D02*
X100338733Y-105845638D01*
X100338733Y-105845638D02*
X100433971Y-105798019D01*
X100433971Y-105798019D02*
X100624447Y-105798019D01*
X100624447Y-105798019D02*
X100719685Y-105845638D01*
X100719685Y-105845638D02*
X100814923Y-105940876D01*
X100814923Y-105940876D02*
X100862542Y-106131352D01*
X100862542Y-106131352D02*
X100862542Y-106464685D01*
X100862542Y-106464685D02*
X100814923Y-106655161D01*
X100814923Y-106655161D02*
X100719685Y-106750400D01*
X100719685Y-106750400D02*
X100624447Y-106798019D01*
X100624447Y-106798019D02*
X100433971Y-106798019D01*
X101243495Y-105893257D02*
X101291114Y-105845638D01*
X101291114Y-105845638D02*
X101386352Y-105798019D01*
X101386352Y-105798019D02*
X101624447Y-105798019D01*
X101624447Y-105798019D02*
X101719685Y-105845638D01*
X101719685Y-105845638D02*
X101767304Y-105893257D01*
X101767304Y-105893257D02*
X101814923Y-105988495D01*
X101814923Y-105988495D02*
X101814923Y-106083733D01*
X101814923Y-106083733D02*
X101767304Y-106226590D01*
X101767304Y-106226590D02*
X101195876Y-106798019D01*
X101195876Y-106798019D02*
X101814923Y-106798019D01*
X91130980Y-105073066D02*
X91178600Y-105120685D01*
X91178600Y-105120685D02*
X91226219Y-105263542D01*
X91226219Y-105263542D02*
X91226219Y-105358780D01*
X91226219Y-105358780D02*
X91178600Y-105501637D01*
X91178600Y-105501637D02*
X91083361Y-105596875D01*
X91083361Y-105596875D02*
X90988123Y-105644494D01*
X90988123Y-105644494D02*
X90797647Y-105692113D01*
X90797647Y-105692113D02*
X90654790Y-105692113D01*
X90654790Y-105692113D02*
X90464314Y-105644494D01*
X90464314Y-105644494D02*
X90369076Y-105596875D01*
X90369076Y-105596875D02*
X90273838Y-105501637D01*
X90273838Y-105501637D02*
X90226219Y-105358780D01*
X90226219Y-105358780D02*
X90226219Y-105263542D01*
X90226219Y-105263542D02*
X90273838Y-105120685D01*
X90273838Y-105120685D02*
X90321457Y-105073066D01*
X91226219Y-104596875D02*
X91226219Y-104406399D01*
X91226219Y-104406399D02*
X91178600Y-104311161D01*
X91178600Y-104311161D02*
X91130980Y-104263542D01*
X91130980Y-104263542D02*
X90988123Y-104168304D01*
X90988123Y-104168304D02*
X90797647Y-104120685D01*
X90797647Y-104120685D02*
X90416695Y-104120685D01*
X90416695Y-104120685D02*
X90321457Y-104168304D01*
X90321457Y-104168304D02*
X90273838Y-104215923D01*
X90273838Y-104215923D02*
X90226219Y-104311161D01*
X90226219Y-104311161D02*
X90226219Y-104501637D01*
X90226219Y-104501637D02*
X90273838Y-104596875D01*
X90273838Y-104596875D02*
X90321457Y-104644494D01*
X90321457Y-104644494D02*
X90416695Y-104692113D01*
X90416695Y-104692113D02*
X90654790Y-104692113D01*
X90654790Y-104692113D02*
X90750028Y-104644494D01*
X90750028Y-104644494D02*
X90797647Y-104596875D01*
X90797647Y-104596875D02*
X90845266Y-104501637D01*
X90845266Y-104501637D02*
X90845266Y-104311161D01*
X90845266Y-104311161D02*
X90797647Y-104215923D01*
X90797647Y-104215923D02*
X90750028Y-104168304D01*
X90750028Y-104168304D02*
X90654790Y-104120685D01*
X126036669Y-121666994D02*
X125036669Y-121666994D01*
X125036669Y-121666994D02*
X125036669Y-121428899D01*
X125036669Y-121428899D02*
X125084288Y-121286042D01*
X125084288Y-121286042D02*
X125179526Y-121190804D01*
X125179526Y-121190804D02*
X125274764Y-121143185D01*
X125274764Y-121143185D02*
X125465240Y-121095566D01*
X125465240Y-121095566D02*
X125608097Y-121095566D01*
X125608097Y-121095566D02*
X125798573Y-121143185D01*
X125798573Y-121143185D02*
X125893811Y-121190804D01*
X125893811Y-121190804D02*
X125989050Y-121286042D01*
X125989050Y-121286042D02*
X126036669Y-121428899D01*
X126036669Y-121428899D02*
X126036669Y-121666994D01*
X125036669Y-120190804D02*
X125036669Y-120666994D01*
X125036669Y-120666994D02*
X125512859Y-120714613D01*
X125512859Y-120714613D02*
X125465240Y-120666994D01*
X125465240Y-120666994D02*
X125417621Y-120571756D01*
X125417621Y-120571756D02*
X125417621Y-120333661D01*
X125417621Y-120333661D02*
X125465240Y-120238423D01*
X125465240Y-120238423D02*
X125512859Y-120190804D01*
X125512859Y-120190804D02*
X125608097Y-120143185D01*
X125608097Y-120143185D02*
X125846192Y-120143185D01*
X125846192Y-120143185D02*
X125941430Y-120190804D01*
X125941430Y-120190804D02*
X125989050Y-120238423D01*
X125989050Y-120238423D02*
X126036669Y-120333661D01*
X126036669Y-120333661D02*
X126036669Y-120571756D01*
X126036669Y-120571756D02*
X125989050Y-120666994D01*
X125989050Y-120666994D02*
X125941430Y-120714613D01*
X101628733Y-114225619D02*
X101295400Y-113749428D01*
X101057305Y-114225619D02*
X101057305Y-113225619D01*
X101057305Y-113225619D02*
X101438257Y-113225619D01*
X101438257Y-113225619D02*
X101533495Y-113273238D01*
X101533495Y-113273238D02*
X101581114Y-113320857D01*
X101581114Y-113320857D02*
X101628733Y-113416095D01*
X101628733Y-113416095D02*
X101628733Y-113558952D01*
X101628733Y-113558952D02*
X101581114Y-113654190D01*
X101581114Y-113654190D02*
X101533495Y-113701809D01*
X101533495Y-113701809D02*
X101438257Y-113749428D01*
X101438257Y-113749428D02*
X101057305Y-113749428D01*
X101962067Y-113225619D02*
X102581114Y-113225619D01*
X102581114Y-113225619D02*
X102247781Y-113606571D01*
X102247781Y-113606571D02*
X102390638Y-113606571D01*
X102390638Y-113606571D02*
X102485876Y-113654190D01*
X102485876Y-113654190D02*
X102533495Y-113701809D01*
X102533495Y-113701809D02*
X102581114Y-113797047D01*
X102581114Y-113797047D02*
X102581114Y-114035142D01*
X102581114Y-114035142D02*
X102533495Y-114130380D01*
X102533495Y-114130380D02*
X102485876Y-114178000D01*
X102485876Y-114178000D02*
X102390638Y-114225619D01*
X102390638Y-114225619D02*
X102104924Y-114225619D01*
X102104924Y-114225619D02*
X102009686Y-114178000D01*
X102009686Y-114178000D02*
X101962067Y-114130380D01*
X84828142Y-105129219D02*
X84494809Y-104653028D01*
X84256714Y-105129219D02*
X84256714Y-104129219D01*
X84256714Y-104129219D02*
X84637666Y-104129219D01*
X84637666Y-104129219D02*
X84732904Y-104176838D01*
X84732904Y-104176838D02*
X84780523Y-104224457D01*
X84780523Y-104224457D02*
X84828142Y-104319695D01*
X84828142Y-104319695D02*
X84828142Y-104462552D01*
X84828142Y-104462552D02*
X84780523Y-104557790D01*
X84780523Y-104557790D02*
X84732904Y-104605409D01*
X84732904Y-104605409D02*
X84637666Y-104653028D01*
X84637666Y-104653028D02*
X84256714Y-104653028D01*
X85209095Y-104224457D02*
X85256714Y-104176838D01*
X85256714Y-104176838D02*
X85351952Y-104129219D01*
X85351952Y-104129219D02*
X85590047Y-104129219D01*
X85590047Y-104129219D02*
X85685285Y-104176838D01*
X85685285Y-104176838D02*
X85732904Y-104224457D01*
X85732904Y-104224457D02*
X85780523Y-104319695D01*
X85780523Y-104319695D02*
X85780523Y-104414933D01*
X85780523Y-104414933D02*
X85732904Y-104557790D01*
X85732904Y-104557790D02*
X85161476Y-105129219D01*
X85161476Y-105129219D02*
X85780523Y-105129219D01*
X86732904Y-105129219D02*
X86161476Y-105129219D01*
X86447190Y-105129219D02*
X86447190Y-104129219D01*
X86447190Y-104129219D02*
X86351952Y-104272076D01*
X86351952Y-104272076D02*
X86256714Y-104367314D01*
X86256714Y-104367314D02*
X86161476Y-104414933D01*
X121980469Y-121666994D02*
X120980469Y-121666994D01*
X120980469Y-121666994D02*
X120980469Y-121428899D01*
X120980469Y-121428899D02*
X121028088Y-121286042D01*
X121028088Y-121286042D02*
X121123326Y-121190804D01*
X121123326Y-121190804D02*
X121218564Y-121143185D01*
X121218564Y-121143185D02*
X121409040Y-121095566D01*
X121409040Y-121095566D02*
X121551897Y-121095566D01*
X121551897Y-121095566D02*
X121742373Y-121143185D01*
X121742373Y-121143185D02*
X121837611Y-121190804D01*
X121837611Y-121190804D02*
X121932850Y-121286042D01*
X121932850Y-121286042D02*
X121980469Y-121428899D01*
X121980469Y-121428899D02*
X121980469Y-121666994D01*
X121980469Y-120143185D02*
X121980469Y-120714613D01*
X121980469Y-120428899D02*
X120980469Y-120428899D01*
X120980469Y-120428899D02*
X121123326Y-120524137D01*
X121123326Y-120524137D02*
X121218564Y-120619375D01*
X121218564Y-120619375D02*
X121266183Y-120714613D01*
X127975869Y-121666994D02*
X126975869Y-121666994D01*
X126975869Y-121666994D02*
X126975869Y-121428899D01*
X126975869Y-121428899D02*
X127023488Y-121286042D01*
X127023488Y-121286042D02*
X127118726Y-121190804D01*
X127118726Y-121190804D02*
X127213964Y-121143185D01*
X127213964Y-121143185D02*
X127404440Y-121095566D01*
X127404440Y-121095566D02*
X127547297Y-121095566D01*
X127547297Y-121095566D02*
X127737773Y-121143185D01*
X127737773Y-121143185D02*
X127833011Y-121190804D01*
X127833011Y-121190804D02*
X127928250Y-121286042D01*
X127928250Y-121286042D02*
X127975869Y-121428899D01*
X127975869Y-121428899D02*
X127975869Y-121666994D01*
X126975869Y-120238423D02*
X126975869Y-120428899D01*
X126975869Y-120428899D02*
X127023488Y-120524137D01*
X127023488Y-120524137D02*
X127071107Y-120571756D01*
X127071107Y-120571756D02*
X127213964Y-120666994D01*
X127213964Y-120666994D02*
X127404440Y-120714613D01*
X127404440Y-120714613D02*
X127785392Y-120714613D01*
X127785392Y-120714613D02*
X127880630Y-120666994D01*
X127880630Y-120666994D02*
X127928250Y-120619375D01*
X127928250Y-120619375D02*
X127975869Y-120524137D01*
X127975869Y-120524137D02*
X127975869Y-120333661D01*
X127975869Y-120333661D02*
X127928250Y-120238423D01*
X127928250Y-120238423D02*
X127880630Y-120190804D01*
X127880630Y-120190804D02*
X127785392Y-120143185D01*
X127785392Y-120143185D02*
X127547297Y-120143185D01*
X127547297Y-120143185D02*
X127452059Y-120190804D01*
X127452059Y-120190804D02*
X127404440Y-120238423D01*
X127404440Y-120238423D02*
X127356821Y-120333661D01*
X127356821Y-120333661D02*
X127356821Y-120524137D01*
X127356821Y-120524137D02*
X127404440Y-120619375D01*
X127404440Y-120619375D02*
X127452059Y-120666994D01*
X127452059Y-120666994D02*
X127547297Y-120714613D01*
X88057142Y-116056580D02*
X88009523Y-116104200D01*
X88009523Y-116104200D02*
X87866666Y-116151819D01*
X87866666Y-116151819D02*
X87771428Y-116151819D01*
X87771428Y-116151819D02*
X87628571Y-116104200D01*
X87628571Y-116104200D02*
X87533333Y-116008961D01*
X87533333Y-116008961D02*
X87485714Y-115913723D01*
X87485714Y-115913723D02*
X87438095Y-115723247D01*
X87438095Y-115723247D02*
X87438095Y-115580390D01*
X87438095Y-115580390D02*
X87485714Y-115389914D01*
X87485714Y-115389914D02*
X87533333Y-115294676D01*
X87533333Y-115294676D02*
X87628571Y-115199438D01*
X87628571Y-115199438D02*
X87771428Y-115151819D01*
X87771428Y-115151819D02*
X87866666Y-115151819D01*
X87866666Y-115151819D02*
X88009523Y-115199438D01*
X88009523Y-115199438D02*
X88057142Y-115247057D01*
X88438095Y-115247057D02*
X88485714Y-115199438D01*
X88485714Y-115199438D02*
X88580952Y-115151819D01*
X88580952Y-115151819D02*
X88819047Y-115151819D01*
X88819047Y-115151819D02*
X88914285Y-115199438D01*
X88914285Y-115199438D02*
X88961904Y-115247057D01*
X88961904Y-115247057D02*
X89009523Y-115342295D01*
X89009523Y-115342295D02*
X89009523Y-115437533D01*
X89009523Y-115437533D02*
X88961904Y-115580390D01*
X88961904Y-115580390D02*
X88390476Y-116151819D01*
X88390476Y-116151819D02*
X89009523Y-116151819D01*
X89866666Y-115151819D02*
X89676190Y-115151819D01*
X89676190Y-115151819D02*
X89580952Y-115199438D01*
X89580952Y-115199438D02*
X89533333Y-115247057D01*
X89533333Y-115247057D02*
X89438095Y-115389914D01*
X89438095Y-115389914D02*
X89390476Y-115580390D01*
X89390476Y-115580390D02*
X89390476Y-115961342D01*
X89390476Y-115961342D02*
X89438095Y-116056580D01*
X89438095Y-116056580D02*
X89485714Y-116104200D01*
X89485714Y-116104200D02*
X89580952Y-116151819D01*
X89580952Y-116151819D02*
X89771428Y-116151819D01*
X89771428Y-116151819D02*
X89866666Y-116104200D01*
X89866666Y-116104200D02*
X89914285Y-116056580D01*
X89914285Y-116056580D02*
X89961904Y-115961342D01*
X89961904Y-115961342D02*
X89961904Y-115723247D01*
X89961904Y-115723247D02*
X89914285Y-115628009D01*
X89914285Y-115628009D02*
X89866666Y-115580390D01*
X89866666Y-115580390D02*
X89771428Y-115532771D01*
X89771428Y-115532771D02*
X89580952Y-115532771D01*
X89580952Y-115532771D02*
X89485714Y-115580390D01*
X89485714Y-115580390D02*
X89438095Y-115628009D01*
X89438095Y-115628009D02*
X89390476Y-115723247D01*
X97857142Y-119276019D02*
X97523809Y-118799828D01*
X97285714Y-119276019D02*
X97285714Y-118276019D01*
X97285714Y-118276019D02*
X97666666Y-118276019D01*
X97666666Y-118276019D02*
X97761904Y-118323638D01*
X97761904Y-118323638D02*
X97809523Y-118371257D01*
X97809523Y-118371257D02*
X97857142Y-118466495D01*
X97857142Y-118466495D02*
X97857142Y-118609352D01*
X97857142Y-118609352D02*
X97809523Y-118704590D01*
X97809523Y-118704590D02*
X97761904Y-118752209D01*
X97761904Y-118752209D02*
X97666666Y-118799828D01*
X97666666Y-118799828D02*
X97285714Y-118799828D01*
X98809523Y-119276019D02*
X98238095Y-119276019D01*
X98523809Y-119276019D02*
X98523809Y-118276019D01*
X98523809Y-118276019D02*
X98428571Y-118418876D01*
X98428571Y-118418876D02*
X98333333Y-118514114D01*
X98333333Y-118514114D02*
X98238095Y-118561733D01*
X99666666Y-118276019D02*
X99476190Y-118276019D01*
X99476190Y-118276019D02*
X99380952Y-118323638D01*
X99380952Y-118323638D02*
X99333333Y-118371257D01*
X99333333Y-118371257D02*
X99238095Y-118514114D01*
X99238095Y-118514114D02*
X99190476Y-118704590D01*
X99190476Y-118704590D02*
X99190476Y-119085542D01*
X99190476Y-119085542D02*
X99238095Y-119180780D01*
X99238095Y-119180780D02*
X99285714Y-119228400D01*
X99285714Y-119228400D02*
X99380952Y-119276019D01*
X99380952Y-119276019D02*
X99571428Y-119276019D01*
X99571428Y-119276019D02*
X99666666Y-119228400D01*
X99666666Y-119228400D02*
X99714285Y-119180780D01*
X99714285Y-119180780D02*
X99761904Y-119085542D01*
X99761904Y-119085542D02*
X99761904Y-118847447D01*
X99761904Y-118847447D02*
X99714285Y-118752209D01*
X99714285Y-118752209D02*
X99666666Y-118704590D01*
X99666666Y-118704590D02*
X99571428Y-118656971D01*
X99571428Y-118656971D02*
X99380952Y-118656971D01*
X99380952Y-118656971D02*
X99285714Y-118704590D01*
X99285714Y-118704590D02*
X99238095Y-118752209D01*
X99238095Y-118752209D02*
X99190476Y-118847447D01*
X111475733Y-112722819D02*
X111142400Y-112246628D01*
X110904305Y-112722819D02*
X110904305Y-111722819D01*
X110904305Y-111722819D02*
X111285257Y-111722819D01*
X111285257Y-111722819D02*
X111380495Y-111770438D01*
X111380495Y-111770438D02*
X111428114Y-111818057D01*
X111428114Y-111818057D02*
X111475733Y-111913295D01*
X111475733Y-111913295D02*
X111475733Y-112056152D01*
X111475733Y-112056152D02*
X111428114Y-112151390D01*
X111428114Y-112151390D02*
X111380495Y-112199009D01*
X111380495Y-112199009D02*
X111285257Y-112246628D01*
X111285257Y-112246628D02*
X110904305Y-112246628D01*
X111856686Y-111818057D02*
X111904305Y-111770438D01*
X111904305Y-111770438D02*
X111999543Y-111722819D01*
X111999543Y-111722819D02*
X112237638Y-111722819D01*
X112237638Y-111722819D02*
X112332876Y-111770438D01*
X112332876Y-111770438D02*
X112380495Y-111818057D01*
X112380495Y-111818057D02*
X112428114Y-111913295D01*
X112428114Y-111913295D02*
X112428114Y-112008533D01*
X112428114Y-112008533D02*
X112380495Y-112151390D01*
X112380495Y-112151390D02*
X111809067Y-112722819D01*
X111809067Y-112722819D02*
X112428114Y-112722819D01*
X81576942Y-116437580D02*
X81529323Y-116485200D01*
X81529323Y-116485200D02*
X81386466Y-116532819D01*
X81386466Y-116532819D02*
X81291228Y-116532819D01*
X81291228Y-116532819D02*
X81148371Y-116485200D01*
X81148371Y-116485200D02*
X81053133Y-116389961D01*
X81053133Y-116389961D02*
X81005514Y-116294723D01*
X81005514Y-116294723D02*
X80957895Y-116104247D01*
X80957895Y-116104247D02*
X80957895Y-115961390D01*
X80957895Y-115961390D02*
X81005514Y-115770914D01*
X81005514Y-115770914D02*
X81053133Y-115675676D01*
X81053133Y-115675676D02*
X81148371Y-115580438D01*
X81148371Y-115580438D02*
X81291228Y-115532819D01*
X81291228Y-115532819D02*
X81386466Y-115532819D01*
X81386466Y-115532819D02*
X81529323Y-115580438D01*
X81529323Y-115580438D02*
X81576942Y-115628057D01*
X81957895Y-115628057D02*
X82005514Y-115580438D01*
X82005514Y-115580438D02*
X82100752Y-115532819D01*
X82100752Y-115532819D02*
X82338847Y-115532819D01*
X82338847Y-115532819D02*
X82434085Y-115580438D01*
X82434085Y-115580438D02*
X82481704Y-115628057D01*
X82481704Y-115628057D02*
X82529323Y-115723295D01*
X82529323Y-115723295D02*
X82529323Y-115818533D01*
X82529323Y-115818533D02*
X82481704Y-115961390D01*
X82481704Y-115961390D02*
X81910276Y-116532819D01*
X81910276Y-116532819D02*
X82529323Y-116532819D01*
X82862657Y-115532819D02*
X83529323Y-115532819D01*
X83529323Y-115532819D02*
X83100752Y-116532819D01*
X100355133Y-96932580D02*
X100307514Y-96980200D01*
X100307514Y-96980200D02*
X100164657Y-97027819D01*
X100164657Y-97027819D02*
X100069419Y-97027819D01*
X100069419Y-97027819D02*
X99926562Y-96980200D01*
X99926562Y-96980200D02*
X99831324Y-96884961D01*
X99831324Y-96884961D02*
X99783705Y-96789723D01*
X99783705Y-96789723D02*
X99736086Y-96599247D01*
X99736086Y-96599247D02*
X99736086Y-96456390D01*
X99736086Y-96456390D02*
X99783705Y-96265914D01*
X99783705Y-96265914D02*
X99831324Y-96170676D01*
X99831324Y-96170676D02*
X99926562Y-96075438D01*
X99926562Y-96075438D02*
X100069419Y-96027819D01*
X100069419Y-96027819D02*
X100164657Y-96027819D01*
X100164657Y-96027819D02*
X100307514Y-96075438D01*
X100307514Y-96075438D02*
X100355133Y-96123057D01*
X101212276Y-96361152D02*
X101212276Y-97027819D01*
X100974181Y-95980200D02*
X100736086Y-96694485D01*
X100736086Y-96694485D02*
X101355133Y-96694485D01*
X101607142Y-111454819D02*
X101273809Y-110978628D01*
X101035714Y-111454819D02*
X101035714Y-110454819D01*
X101035714Y-110454819D02*
X101416666Y-110454819D01*
X101416666Y-110454819D02*
X101511904Y-110502438D01*
X101511904Y-110502438D02*
X101559523Y-110550057D01*
X101559523Y-110550057D02*
X101607142Y-110645295D01*
X101607142Y-110645295D02*
X101607142Y-110788152D01*
X101607142Y-110788152D02*
X101559523Y-110883390D01*
X101559523Y-110883390D02*
X101511904Y-110931009D01*
X101511904Y-110931009D02*
X101416666Y-110978628D01*
X101416666Y-110978628D02*
X101035714Y-110978628D01*
X102559523Y-111454819D02*
X101988095Y-111454819D01*
X102273809Y-111454819D02*
X102273809Y-110454819D01*
X102273809Y-110454819D02*
X102178571Y-110597676D01*
X102178571Y-110597676D02*
X102083333Y-110692914D01*
X102083333Y-110692914D02*
X101988095Y-110740533D01*
X103035714Y-111454819D02*
X103226190Y-111454819D01*
X103226190Y-111454819D02*
X103321428Y-111407200D01*
X103321428Y-111407200D02*
X103369047Y-111359580D01*
X103369047Y-111359580D02*
X103464285Y-111216723D01*
X103464285Y-111216723D02*
X103511904Y-111026247D01*
X103511904Y-111026247D02*
X103511904Y-110645295D01*
X103511904Y-110645295D02*
X103464285Y-110550057D01*
X103464285Y-110550057D02*
X103416666Y-110502438D01*
X103416666Y-110502438D02*
X103321428Y-110454819D01*
X103321428Y-110454819D02*
X103130952Y-110454819D01*
X103130952Y-110454819D02*
X103035714Y-110502438D01*
X103035714Y-110502438D02*
X102988095Y-110550057D01*
X102988095Y-110550057D02*
X102940476Y-110645295D01*
X102940476Y-110645295D02*
X102940476Y-110883390D01*
X102940476Y-110883390D02*
X102988095Y-110978628D01*
X102988095Y-110978628D02*
X103035714Y-111026247D01*
X103035714Y-111026247D02*
X103130952Y-111073866D01*
X103130952Y-111073866D02*
X103321428Y-111073866D01*
X103321428Y-111073866D02*
X103416666Y-111026247D01*
X103416666Y-111026247D02*
X103464285Y-110978628D01*
X103464285Y-110978628D02*
X103511904Y-110883390D01*
X97857142Y-115999419D02*
X97523809Y-115523228D01*
X97285714Y-115999419D02*
X97285714Y-114999419D01*
X97285714Y-114999419D02*
X97666666Y-114999419D01*
X97666666Y-114999419D02*
X97761904Y-115047038D01*
X97761904Y-115047038D02*
X97809523Y-115094657D01*
X97809523Y-115094657D02*
X97857142Y-115189895D01*
X97857142Y-115189895D02*
X97857142Y-115332752D01*
X97857142Y-115332752D02*
X97809523Y-115427990D01*
X97809523Y-115427990D02*
X97761904Y-115475609D01*
X97761904Y-115475609D02*
X97666666Y-115523228D01*
X97666666Y-115523228D02*
X97285714Y-115523228D01*
X98809523Y-115999419D02*
X98238095Y-115999419D01*
X98523809Y-115999419D02*
X98523809Y-114999419D01*
X98523809Y-114999419D02*
X98428571Y-115142276D01*
X98428571Y-115142276D02*
X98333333Y-115237514D01*
X98333333Y-115237514D02*
X98238095Y-115285133D01*
X99380952Y-115427990D02*
X99285714Y-115380371D01*
X99285714Y-115380371D02*
X99238095Y-115332752D01*
X99238095Y-115332752D02*
X99190476Y-115237514D01*
X99190476Y-115237514D02*
X99190476Y-115189895D01*
X99190476Y-115189895D02*
X99238095Y-115094657D01*
X99238095Y-115094657D02*
X99285714Y-115047038D01*
X99285714Y-115047038D02*
X99380952Y-114999419D01*
X99380952Y-114999419D02*
X99571428Y-114999419D01*
X99571428Y-114999419D02*
X99666666Y-115047038D01*
X99666666Y-115047038D02*
X99714285Y-115094657D01*
X99714285Y-115094657D02*
X99761904Y-115189895D01*
X99761904Y-115189895D02*
X99761904Y-115237514D01*
X99761904Y-115237514D02*
X99714285Y-115332752D01*
X99714285Y-115332752D02*
X99666666Y-115380371D01*
X99666666Y-115380371D02*
X99571428Y-115427990D01*
X99571428Y-115427990D02*
X99380952Y-115427990D01*
X99380952Y-115427990D02*
X99285714Y-115475609D01*
X99285714Y-115475609D02*
X99238095Y-115523228D01*
X99238095Y-115523228D02*
X99190476Y-115618466D01*
X99190476Y-115618466D02*
X99190476Y-115808942D01*
X99190476Y-115808942D02*
X99238095Y-115904180D01*
X99238095Y-115904180D02*
X99285714Y-115951800D01*
X99285714Y-115951800D02*
X99380952Y-115999419D01*
X99380952Y-115999419D02*
X99571428Y-115999419D01*
X99571428Y-115999419D02*
X99666666Y-115951800D01*
X99666666Y-115951800D02*
X99714285Y-115904180D01*
X99714285Y-115904180D02*
X99761904Y-115808942D01*
X99761904Y-115808942D02*
X99761904Y-115618466D01*
X99761904Y-115618466D02*
X99714285Y-115523228D01*
X99714285Y-115523228D02*
X99666666Y-115475609D01*
X99666666Y-115475609D02*
X99571428Y-115427990D01*
X113866666Y-126654819D02*
X113866666Y-127369104D01*
X113866666Y-127369104D02*
X113819047Y-127511961D01*
X113819047Y-127511961D02*
X113723809Y-127607200D01*
X113723809Y-127607200D02*
X113580952Y-127654819D01*
X113580952Y-127654819D02*
X113485714Y-127654819D01*
X114247619Y-126654819D02*
X114866666Y-126654819D01*
X114866666Y-126654819D02*
X114533333Y-127035771D01*
X114533333Y-127035771D02*
X114676190Y-127035771D01*
X114676190Y-127035771D02*
X114771428Y-127083390D01*
X114771428Y-127083390D02*
X114819047Y-127131009D01*
X114819047Y-127131009D02*
X114866666Y-127226247D01*
X114866666Y-127226247D02*
X114866666Y-127464342D01*
X114866666Y-127464342D02*
X114819047Y-127559580D01*
X114819047Y-127559580D02*
X114771428Y-127607200D01*
X114771428Y-127607200D02*
X114676190Y-127654819D01*
X114676190Y-127654819D02*
X114390476Y-127654819D01*
X114390476Y-127654819D02*
X114295238Y-127607200D01*
X114295238Y-127607200D02*
X114247619Y-127559580D01*
X107204819Y-105392857D02*
X106728628Y-105726190D01*
X107204819Y-105964285D02*
X106204819Y-105964285D01*
X106204819Y-105964285D02*
X106204819Y-105583333D01*
X106204819Y-105583333D02*
X106252438Y-105488095D01*
X106252438Y-105488095D02*
X106300057Y-105440476D01*
X106300057Y-105440476D02*
X106395295Y-105392857D01*
X106395295Y-105392857D02*
X106538152Y-105392857D01*
X106538152Y-105392857D02*
X106633390Y-105440476D01*
X106633390Y-105440476D02*
X106681009Y-105488095D01*
X106681009Y-105488095D02*
X106728628Y-105583333D01*
X106728628Y-105583333D02*
X106728628Y-105964285D01*
X106300057Y-105011904D02*
X106252438Y-104964285D01*
X106252438Y-104964285D02*
X106204819Y-104869047D01*
X106204819Y-104869047D02*
X106204819Y-104630952D01*
X106204819Y-104630952D02*
X106252438Y-104535714D01*
X106252438Y-104535714D02*
X106300057Y-104488095D01*
X106300057Y-104488095D02*
X106395295Y-104440476D01*
X106395295Y-104440476D02*
X106490533Y-104440476D01*
X106490533Y-104440476D02*
X106633390Y-104488095D01*
X106633390Y-104488095D02*
X107204819Y-105059523D01*
X107204819Y-105059523D02*
X107204819Y-104440476D01*
X106204819Y-103821428D02*
X106204819Y-103726190D01*
X106204819Y-103726190D02*
X106252438Y-103630952D01*
X106252438Y-103630952D02*
X106300057Y-103583333D01*
X106300057Y-103583333D02*
X106395295Y-103535714D01*
X106395295Y-103535714D02*
X106585771Y-103488095D01*
X106585771Y-103488095D02*
X106823866Y-103488095D01*
X106823866Y-103488095D02*
X107014342Y-103535714D01*
X107014342Y-103535714D02*
X107109580Y-103583333D01*
X107109580Y-103583333D02*
X107157200Y-103630952D01*
X107157200Y-103630952D02*
X107204819Y-103726190D01*
X107204819Y-103726190D02*
X107204819Y-103821428D01*
X107204819Y-103821428D02*
X107157200Y-103916666D01*
X107157200Y-103916666D02*
X107109580Y-103964285D01*
X107109580Y-103964285D02*
X107014342Y-104011904D01*
X107014342Y-104011904D02*
X106823866Y-104059523D01*
X106823866Y-104059523D02*
X106585771Y-104059523D01*
X106585771Y-104059523D02*
X106395295Y-104011904D01*
X106395295Y-104011904D02*
X106300057Y-103964285D01*
X106300057Y-103964285D02*
X106252438Y-103916666D01*
X106252438Y-103916666D02*
X106204819Y-103821428D01*
X106582380Y-87612457D02*
X106630000Y-87660076D01*
X106630000Y-87660076D02*
X106677619Y-87802933D01*
X106677619Y-87802933D02*
X106677619Y-87898171D01*
X106677619Y-87898171D02*
X106630000Y-88041028D01*
X106630000Y-88041028D02*
X106534761Y-88136266D01*
X106534761Y-88136266D02*
X106439523Y-88183885D01*
X106439523Y-88183885D02*
X106249047Y-88231504D01*
X106249047Y-88231504D02*
X106106190Y-88231504D01*
X106106190Y-88231504D02*
X105915714Y-88183885D01*
X105915714Y-88183885D02*
X105820476Y-88136266D01*
X105820476Y-88136266D02*
X105725238Y-88041028D01*
X105725238Y-88041028D02*
X105677619Y-87898171D01*
X105677619Y-87898171D02*
X105677619Y-87802933D01*
X105677619Y-87802933D02*
X105725238Y-87660076D01*
X105725238Y-87660076D02*
X105772857Y-87612457D01*
X105772857Y-87231504D02*
X105725238Y-87183885D01*
X105725238Y-87183885D02*
X105677619Y-87088647D01*
X105677619Y-87088647D02*
X105677619Y-86850552D01*
X105677619Y-86850552D02*
X105725238Y-86755314D01*
X105725238Y-86755314D02*
X105772857Y-86707695D01*
X105772857Y-86707695D02*
X105868095Y-86660076D01*
X105868095Y-86660076D02*
X105963333Y-86660076D01*
X105963333Y-86660076D02*
X106106190Y-86707695D01*
X106106190Y-86707695D02*
X106677619Y-87279123D01*
X106677619Y-87279123D02*
X106677619Y-86660076D01*
X105677619Y-85755314D02*
X105677619Y-86231504D01*
X105677619Y-86231504D02*
X106153809Y-86279123D01*
X106153809Y-86279123D02*
X106106190Y-86231504D01*
X106106190Y-86231504D02*
X106058571Y-86136266D01*
X106058571Y-86136266D02*
X106058571Y-85898171D01*
X106058571Y-85898171D02*
X106106190Y-85802933D01*
X106106190Y-85802933D02*
X106153809Y-85755314D01*
X106153809Y-85755314D02*
X106249047Y-85707695D01*
X106249047Y-85707695D02*
X106487142Y-85707695D01*
X106487142Y-85707695D02*
X106582380Y-85755314D01*
X106582380Y-85755314D02*
X106630000Y-85802933D01*
X106630000Y-85802933D02*
X106677619Y-85898171D01*
X106677619Y-85898171D02*
X106677619Y-86136266D01*
X106677619Y-86136266D02*
X106630000Y-86231504D01*
X106630000Y-86231504D02*
X106582380Y-86279123D01*
X114571542Y-110030419D02*
X114238209Y-109554228D01*
X114000114Y-110030419D02*
X114000114Y-109030419D01*
X114000114Y-109030419D02*
X114381066Y-109030419D01*
X114381066Y-109030419D02*
X114476304Y-109078038D01*
X114476304Y-109078038D02*
X114523923Y-109125657D01*
X114523923Y-109125657D02*
X114571542Y-109220895D01*
X114571542Y-109220895D02*
X114571542Y-109363752D01*
X114571542Y-109363752D02*
X114523923Y-109458990D01*
X114523923Y-109458990D02*
X114476304Y-109506609D01*
X114476304Y-109506609D02*
X114381066Y-109554228D01*
X114381066Y-109554228D02*
X114000114Y-109554228D01*
X115523923Y-110030419D02*
X114952495Y-110030419D01*
X115238209Y-110030419D02*
X115238209Y-109030419D01*
X115238209Y-109030419D02*
X115142971Y-109173276D01*
X115142971Y-109173276D02*
X115047733Y-109268514D01*
X115047733Y-109268514D02*
X114952495Y-109316133D01*
X116428685Y-109030419D02*
X115952495Y-109030419D01*
X115952495Y-109030419D02*
X115904876Y-109506609D01*
X115904876Y-109506609D02*
X115952495Y-109458990D01*
X115952495Y-109458990D02*
X116047733Y-109411371D01*
X116047733Y-109411371D02*
X116285828Y-109411371D01*
X116285828Y-109411371D02*
X116381066Y-109458990D01*
X116381066Y-109458990D02*
X116428685Y-109506609D01*
X116428685Y-109506609D02*
X116476304Y-109601847D01*
X116476304Y-109601847D02*
X116476304Y-109839942D01*
X116476304Y-109839942D02*
X116428685Y-109935180D01*
X116428685Y-109935180D02*
X116381066Y-109982800D01*
X116381066Y-109982800D02*
X116285828Y-110030419D01*
X116285828Y-110030419D02*
X116047733Y-110030419D01*
X116047733Y-110030419D02*
X115952495Y-109982800D01*
X115952495Y-109982800D02*
X115904876Y-109935180D01*
X94141854Y-125006071D02*
X94141854Y-124006071D01*
X94141854Y-124006071D02*
X94379949Y-124006071D01*
X94379949Y-124006071D02*
X94522806Y-124053690D01*
X94522806Y-124053690D02*
X94618044Y-124148928D01*
X94618044Y-124148928D02*
X94665663Y-124244166D01*
X94665663Y-124244166D02*
X94713282Y-124434642D01*
X94713282Y-124434642D02*
X94713282Y-124577499D01*
X94713282Y-124577499D02*
X94665663Y-124767975D01*
X94665663Y-124767975D02*
X94618044Y-124863213D01*
X94618044Y-124863213D02*
X94522806Y-124958452D01*
X94522806Y-124958452D02*
X94379949Y-125006071D01*
X94379949Y-125006071D02*
X94141854Y-125006071D01*
X95046616Y-124006071D02*
X95665663Y-124006071D01*
X95665663Y-124006071D02*
X95332330Y-124387023D01*
X95332330Y-124387023D02*
X95475187Y-124387023D01*
X95475187Y-124387023D02*
X95570425Y-124434642D01*
X95570425Y-124434642D02*
X95618044Y-124482261D01*
X95618044Y-124482261D02*
X95665663Y-124577499D01*
X95665663Y-124577499D02*
X95665663Y-124815594D01*
X95665663Y-124815594D02*
X95618044Y-124910832D01*
X95618044Y-124910832D02*
X95570425Y-124958452D01*
X95570425Y-124958452D02*
X95475187Y-125006071D01*
X95475187Y-125006071D02*
X95189473Y-125006071D01*
X95189473Y-125006071D02*
X95094235Y-124958452D01*
X95094235Y-124958452D02*
X95046616Y-124910832D01*
X107343733Y-115669219D02*
X107010400Y-115193028D01*
X106772305Y-115669219D02*
X106772305Y-114669219D01*
X106772305Y-114669219D02*
X107153257Y-114669219D01*
X107153257Y-114669219D02*
X107248495Y-114716838D01*
X107248495Y-114716838D02*
X107296114Y-114764457D01*
X107296114Y-114764457D02*
X107343733Y-114859695D01*
X107343733Y-114859695D02*
X107343733Y-115002552D01*
X107343733Y-115002552D02*
X107296114Y-115097790D01*
X107296114Y-115097790D02*
X107248495Y-115145409D01*
X107248495Y-115145409D02*
X107153257Y-115193028D01*
X107153257Y-115193028D02*
X106772305Y-115193028D01*
X108296114Y-115669219D02*
X107724686Y-115669219D01*
X108010400Y-115669219D02*
X108010400Y-114669219D01*
X108010400Y-114669219D02*
X107915162Y-114812076D01*
X107915162Y-114812076D02*
X107819924Y-114907314D01*
X107819924Y-114907314D02*
X107724686Y-114954933D01*
X119789733Y-119688780D02*
X119742114Y-119736400D01*
X119742114Y-119736400D02*
X119599257Y-119784019D01*
X119599257Y-119784019D02*
X119504019Y-119784019D01*
X119504019Y-119784019D02*
X119361162Y-119736400D01*
X119361162Y-119736400D02*
X119265924Y-119641161D01*
X119265924Y-119641161D02*
X119218305Y-119545923D01*
X119218305Y-119545923D02*
X119170686Y-119355447D01*
X119170686Y-119355447D02*
X119170686Y-119212590D01*
X119170686Y-119212590D02*
X119218305Y-119022114D01*
X119218305Y-119022114D02*
X119265924Y-118926876D01*
X119265924Y-118926876D02*
X119361162Y-118831638D01*
X119361162Y-118831638D02*
X119504019Y-118784019D01*
X119504019Y-118784019D02*
X119599257Y-118784019D01*
X119599257Y-118784019D02*
X119742114Y-118831638D01*
X119742114Y-118831638D02*
X119789733Y-118879257D01*
X120123067Y-118784019D02*
X120789733Y-118784019D01*
X120789733Y-118784019D02*
X120361162Y-119784019D01*
X116640295Y-114835519D02*
X116640295Y-115645042D01*
X116640295Y-115645042D02*
X116687914Y-115740280D01*
X116687914Y-115740280D02*
X116735533Y-115787900D01*
X116735533Y-115787900D02*
X116830771Y-115835519D01*
X116830771Y-115835519D02*
X117021247Y-115835519D01*
X117021247Y-115835519D02*
X117116485Y-115787900D01*
X117116485Y-115787900D02*
X117164104Y-115740280D01*
X117164104Y-115740280D02*
X117211723Y-115645042D01*
X117211723Y-115645042D02*
X117211723Y-114835519D01*
X117592676Y-114835519D02*
X118211723Y-114835519D01*
X118211723Y-114835519D02*
X117878390Y-115216471D01*
X117878390Y-115216471D02*
X118021247Y-115216471D01*
X118021247Y-115216471D02*
X118116485Y-115264090D01*
X118116485Y-115264090D02*
X118164104Y-115311709D01*
X118164104Y-115311709D02*
X118211723Y-115406947D01*
X118211723Y-115406947D02*
X118211723Y-115645042D01*
X118211723Y-115645042D02*
X118164104Y-115740280D01*
X118164104Y-115740280D02*
X118116485Y-115787900D01*
X118116485Y-115787900D02*
X118021247Y-115835519D01*
X118021247Y-115835519D02*
X117735533Y-115835519D01*
X117735533Y-115835519D02*
X117640295Y-115787900D01*
X117640295Y-115787900D02*
X117592676Y-115740280D01*
X85139419Y-109888257D02*
X84663228Y-110221590D01*
X85139419Y-110459685D02*
X84139419Y-110459685D01*
X84139419Y-110459685D02*
X84139419Y-110078733D01*
X84139419Y-110078733D02*
X84187038Y-109983495D01*
X84187038Y-109983495D02*
X84234657Y-109935876D01*
X84234657Y-109935876D02*
X84329895Y-109888257D01*
X84329895Y-109888257D02*
X84472752Y-109888257D01*
X84472752Y-109888257D02*
X84567990Y-109935876D01*
X84567990Y-109935876D02*
X84615609Y-109983495D01*
X84615609Y-109983495D02*
X84663228Y-110078733D01*
X84663228Y-110078733D02*
X84663228Y-110459685D01*
X84234657Y-109507304D02*
X84187038Y-109459685D01*
X84187038Y-109459685D02*
X84139419Y-109364447D01*
X84139419Y-109364447D02*
X84139419Y-109126352D01*
X84139419Y-109126352D02*
X84187038Y-109031114D01*
X84187038Y-109031114D02*
X84234657Y-108983495D01*
X84234657Y-108983495D02*
X84329895Y-108935876D01*
X84329895Y-108935876D02*
X84425133Y-108935876D01*
X84425133Y-108935876D02*
X84567990Y-108983495D01*
X84567990Y-108983495D02*
X85139419Y-109554923D01*
X85139419Y-109554923D02*
X85139419Y-108935876D01*
X84234657Y-108554923D02*
X84187038Y-108507304D01*
X84187038Y-108507304D02*
X84139419Y-108412066D01*
X84139419Y-108412066D02*
X84139419Y-108173971D01*
X84139419Y-108173971D02*
X84187038Y-108078733D01*
X84187038Y-108078733D02*
X84234657Y-108031114D01*
X84234657Y-108031114D02*
X84329895Y-107983495D01*
X84329895Y-107983495D02*
X84425133Y-107983495D01*
X84425133Y-107983495D02*
X84567990Y-108031114D01*
X84567990Y-108031114D02*
X85139419Y-108602542D01*
X85139419Y-108602542D02*
X85139419Y-107983495D01*
X102205933Y-94953219D02*
X101872600Y-94477028D01*
X101634505Y-94953219D02*
X101634505Y-93953219D01*
X101634505Y-93953219D02*
X102015457Y-93953219D01*
X102015457Y-93953219D02*
X102110695Y-94000838D01*
X102110695Y-94000838D02*
X102158314Y-94048457D01*
X102158314Y-94048457D02*
X102205933Y-94143695D01*
X102205933Y-94143695D02*
X102205933Y-94286552D01*
X102205933Y-94286552D02*
X102158314Y-94381790D01*
X102158314Y-94381790D02*
X102110695Y-94429409D01*
X102110695Y-94429409D02*
X102015457Y-94477028D01*
X102015457Y-94477028D02*
X101634505Y-94477028D01*
X103063076Y-94286552D02*
X103063076Y-94953219D01*
X102824981Y-93905600D02*
X102586886Y-94619885D01*
X102586886Y-94619885D02*
X103205933Y-94619885D01*
X110999542Y-115720019D02*
X110666209Y-115243828D01*
X110428114Y-115720019D02*
X110428114Y-114720019D01*
X110428114Y-114720019D02*
X110809066Y-114720019D01*
X110809066Y-114720019D02*
X110904304Y-114767638D01*
X110904304Y-114767638D02*
X110951923Y-114815257D01*
X110951923Y-114815257D02*
X110999542Y-114910495D01*
X110999542Y-114910495D02*
X110999542Y-115053352D01*
X110999542Y-115053352D02*
X110951923Y-115148590D01*
X110951923Y-115148590D02*
X110904304Y-115196209D01*
X110904304Y-115196209D02*
X110809066Y-115243828D01*
X110809066Y-115243828D02*
X110428114Y-115243828D01*
X111951923Y-115720019D02*
X111380495Y-115720019D01*
X111666209Y-115720019D02*
X111666209Y-114720019D01*
X111666209Y-114720019D02*
X111570971Y-114862876D01*
X111570971Y-114862876D02*
X111475733Y-114958114D01*
X111475733Y-114958114D02*
X111380495Y-115005733D01*
X112809066Y-115053352D02*
X112809066Y-115720019D01*
X112570971Y-114672400D02*
X112332876Y-115386685D01*
X112332876Y-115386685D02*
X112951923Y-115386685D01*
X124046669Y-121666994D02*
X123046669Y-121666994D01*
X123046669Y-121666994D02*
X123046669Y-121428899D01*
X123046669Y-121428899D02*
X123094288Y-121286042D01*
X123094288Y-121286042D02*
X123189526Y-121190804D01*
X123189526Y-121190804D02*
X123284764Y-121143185D01*
X123284764Y-121143185D02*
X123475240Y-121095566D01*
X123475240Y-121095566D02*
X123618097Y-121095566D01*
X123618097Y-121095566D02*
X123808573Y-121143185D01*
X123808573Y-121143185D02*
X123903811Y-121190804D01*
X123903811Y-121190804D02*
X123999050Y-121286042D01*
X123999050Y-121286042D02*
X124046669Y-121428899D01*
X124046669Y-121428899D02*
X124046669Y-121666994D01*
X123380002Y-120238423D02*
X124046669Y-120238423D01*
X122999050Y-120476518D02*
X123713335Y-120714613D01*
X123713335Y-120714613D02*
X123713335Y-120095566D01*
X93954819Y-109261904D02*
X94764342Y-109261904D01*
X94764342Y-109261904D02*
X94859580Y-109214285D01*
X94859580Y-109214285D02*
X94907200Y-109166666D01*
X94907200Y-109166666D02*
X94954819Y-109071428D01*
X94954819Y-109071428D02*
X94954819Y-108880952D01*
X94954819Y-108880952D02*
X94907200Y-108785714D01*
X94907200Y-108785714D02*
X94859580Y-108738095D01*
X94859580Y-108738095D02*
X94764342Y-108690476D01*
X94764342Y-108690476D02*
X93954819Y-108690476D01*
X94288152Y-107785714D02*
X94954819Y-107785714D01*
X93907200Y-108023809D02*
X94621485Y-108261904D01*
X94621485Y-108261904D02*
X94621485Y-107642857D01*
X104677380Y-87688657D02*
X104725000Y-87736276D01*
X104725000Y-87736276D02*
X104772619Y-87879133D01*
X104772619Y-87879133D02*
X104772619Y-87974371D01*
X104772619Y-87974371D02*
X104725000Y-88117228D01*
X104725000Y-88117228D02*
X104629761Y-88212466D01*
X104629761Y-88212466D02*
X104534523Y-88260085D01*
X104534523Y-88260085D02*
X104344047Y-88307704D01*
X104344047Y-88307704D02*
X104201190Y-88307704D01*
X104201190Y-88307704D02*
X104010714Y-88260085D01*
X104010714Y-88260085D02*
X103915476Y-88212466D01*
X103915476Y-88212466D02*
X103820238Y-88117228D01*
X103820238Y-88117228D02*
X103772619Y-87974371D01*
X103772619Y-87974371D02*
X103772619Y-87879133D01*
X103772619Y-87879133D02*
X103820238Y-87736276D01*
X103820238Y-87736276D02*
X103867857Y-87688657D01*
X103867857Y-87307704D02*
X103820238Y-87260085D01*
X103820238Y-87260085D02*
X103772619Y-87164847D01*
X103772619Y-87164847D02*
X103772619Y-86926752D01*
X103772619Y-86926752D02*
X103820238Y-86831514D01*
X103820238Y-86831514D02*
X103867857Y-86783895D01*
X103867857Y-86783895D02*
X103963095Y-86736276D01*
X103963095Y-86736276D02*
X104058333Y-86736276D01*
X104058333Y-86736276D02*
X104201190Y-86783895D01*
X104201190Y-86783895D02*
X104772619Y-87355323D01*
X104772619Y-87355323D02*
X104772619Y-86736276D01*
X104105952Y-85879133D02*
X104772619Y-85879133D01*
X103725000Y-86117228D02*
X104439285Y-86355323D01*
X104439285Y-86355323D02*
X104439285Y-85736276D01*
X81627742Y-114761180D02*
X81580123Y-114808800D01*
X81580123Y-114808800D02*
X81437266Y-114856419D01*
X81437266Y-114856419D02*
X81342028Y-114856419D01*
X81342028Y-114856419D02*
X81199171Y-114808800D01*
X81199171Y-114808800D02*
X81103933Y-114713561D01*
X81103933Y-114713561D02*
X81056314Y-114618323D01*
X81056314Y-114618323D02*
X81008695Y-114427847D01*
X81008695Y-114427847D02*
X81008695Y-114284990D01*
X81008695Y-114284990D02*
X81056314Y-114094514D01*
X81056314Y-114094514D02*
X81103933Y-113999276D01*
X81103933Y-113999276D02*
X81199171Y-113904038D01*
X81199171Y-113904038D02*
X81342028Y-113856419D01*
X81342028Y-113856419D02*
X81437266Y-113856419D01*
X81437266Y-113856419D02*
X81580123Y-113904038D01*
X81580123Y-113904038D02*
X81627742Y-113951657D01*
X82008695Y-113951657D02*
X82056314Y-113904038D01*
X82056314Y-113904038D02*
X82151552Y-113856419D01*
X82151552Y-113856419D02*
X82389647Y-113856419D01*
X82389647Y-113856419D02*
X82484885Y-113904038D01*
X82484885Y-113904038D02*
X82532504Y-113951657D01*
X82532504Y-113951657D02*
X82580123Y-114046895D01*
X82580123Y-114046895D02*
X82580123Y-114142133D01*
X82580123Y-114142133D02*
X82532504Y-114284990D01*
X82532504Y-114284990D02*
X81961076Y-114856419D01*
X81961076Y-114856419D02*
X82580123Y-114856419D01*
X83151552Y-114284990D02*
X83056314Y-114237371D01*
X83056314Y-114237371D02*
X83008695Y-114189752D01*
X83008695Y-114189752D02*
X82961076Y-114094514D01*
X82961076Y-114094514D02*
X82961076Y-114046895D01*
X82961076Y-114046895D02*
X83008695Y-113951657D01*
X83008695Y-113951657D02*
X83056314Y-113904038D01*
X83056314Y-113904038D02*
X83151552Y-113856419D01*
X83151552Y-113856419D02*
X83342028Y-113856419D01*
X83342028Y-113856419D02*
X83437266Y-113904038D01*
X83437266Y-113904038D02*
X83484885Y-113951657D01*
X83484885Y-113951657D02*
X83532504Y-114046895D01*
X83532504Y-114046895D02*
X83532504Y-114094514D01*
X83532504Y-114094514D02*
X83484885Y-114189752D01*
X83484885Y-114189752D02*
X83437266Y-114237371D01*
X83437266Y-114237371D02*
X83342028Y-114284990D01*
X83342028Y-114284990D02*
X83151552Y-114284990D01*
X83151552Y-114284990D02*
X83056314Y-114332609D01*
X83056314Y-114332609D02*
X83008695Y-114380228D01*
X83008695Y-114380228D02*
X82961076Y-114475466D01*
X82961076Y-114475466D02*
X82961076Y-114665942D01*
X82961076Y-114665942D02*
X83008695Y-114761180D01*
X83008695Y-114761180D02*
X83056314Y-114808800D01*
X83056314Y-114808800D02*
X83151552Y-114856419D01*
X83151552Y-114856419D02*
X83342028Y-114856419D01*
X83342028Y-114856419D02*
X83437266Y-114808800D01*
X83437266Y-114808800D02*
X83484885Y-114761180D01*
X83484885Y-114761180D02*
X83532504Y-114665942D01*
X83532504Y-114665942D02*
X83532504Y-114475466D01*
X83532504Y-114475466D02*
X83484885Y-114380228D01*
X83484885Y-114380228D02*
X83437266Y-114332609D01*
X83437266Y-114332609D02*
X83342028Y-114284990D01*
X87475219Y-121578666D02*
X87475219Y-122054856D01*
X87475219Y-122054856D02*
X86475219Y-122054856D01*
X86570457Y-121292951D02*
X86522838Y-121245332D01*
X86522838Y-121245332D02*
X86475219Y-121150094D01*
X86475219Y-121150094D02*
X86475219Y-120911999D01*
X86475219Y-120911999D02*
X86522838Y-120816761D01*
X86522838Y-120816761D02*
X86570457Y-120769142D01*
X86570457Y-120769142D02*
X86665695Y-120721523D01*
X86665695Y-120721523D02*
X86760933Y-120721523D01*
X86760933Y-120721523D02*
X86903790Y-120769142D01*
X86903790Y-120769142D02*
X87475219Y-121340570D01*
X87475219Y-121340570D02*
X87475219Y-120721523D01*
X101113361Y-102626057D02*
X101018123Y-102578438D01*
X101018123Y-102578438D02*
X100922885Y-102483200D01*
X100922885Y-102483200D02*
X100780028Y-102340342D01*
X100780028Y-102340342D02*
X100684790Y-102292723D01*
X100684790Y-102292723D02*
X100589552Y-102292723D01*
X100637171Y-102530819D02*
X100541933Y-102483200D01*
X100541933Y-102483200D02*
X100446695Y-102387961D01*
X100446695Y-102387961D02*
X100399076Y-102197485D01*
X100399076Y-102197485D02*
X100399076Y-101864152D01*
X100399076Y-101864152D02*
X100446695Y-101673676D01*
X100446695Y-101673676D02*
X100541933Y-101578438D01*
X100541933Y-101578438D02*
X100637171Y-101530819D01*
X100637171Y-101530819D02*
X100827647Y-101530819D01*
X100827647Y-101530819D02*
X100922885Y-101578438D01*
X100922885Y-101578438D02*
X101018123Y-101673676D01*
X101018123Y-101673676D02*
X101065742Y-101864152D01*
X101065742Y-101864152D02*
X101065742Y-102197485D01*
X101065742Y-102197485D02*
X101018123Y-102387961D01*
X101018123Y-102387961D02*
X100922885Y-102483200D01*
X100922885Y-102483200D02*
X100827647Y-102530819D01*
X100827647Y-102530819D02*
X100637171Y-102530819D01*
X102018123Y-102530819D02*
X101446695Y-102530819D01*
X101732409Y-102530819D02*
X101732409Y-101530819D01*
X101732409Y-101530819D02*
X101637171Y-101673676D01*
X101637171Y-101673676D02*
X101541933Y-101768914D01*
X101541933Y-101768914D02*
X101446695Y-101816533D01*
X99266666Y-98354819D02*
X99266666Y-99069104D01*
X99266666Y-99069104D02*
X99219047Y-99211961D01*
X99219047Y-99211961D02*
X99123809Y-99307200D01*
X99123809Y-99307200D02*
X98980952Y-99354819D01*
X98980952Y-99354819D02*
X98885714Y-99354819D01*
X100171428Y-98688152D02*
X100171428Y-99354819D01*
X99933333Y-98307200D02*
X99695238Y-99021485D01*
X99695238Y-99021485D02*
X100314285Y-99021485D01*
X84620267Y-92355200D02*
X84763124Y-92402819D01*
X84763124Y-92402819D02*
X85001219Y-92402819D01*
X85001219Y-92402819D02*
X85096457Y-92355200D01*
X85096457Y-92355200D02*
X85144076Y-92307580D01*
X85144076Y-92307580D02*
X85191695Y-92212342D01*
X85191695Y-92212342D02*
X85191695Y-92117104D01*
X85191695Y-92117104D02*
X85144076Y-92021866D01*
X85144076Y-92021866D02*
X85096457Y-91974247D01*
X85096457Y-91974247D02*
X85001219Y-91926628D01*
X85001219Y-91926628D02*
X84810743Y-91879009D01*
X84810743Y-91879009D02*
X84715505Y-91831390D01*
X84715505Y-91831390D02*
X84667886Y-91783771D01*
X84667886Y-91783771D02*
X84620267Y-91688533D01*
X84620267Y-91688533D02*
X84620267Y-91593295D01*
X84620267Y-91593295D02*
X84667886Y-91498057D01*
X84667886Y-91498057D02*
X84715505Y-91450438D01*
X84715505Y-91450438D02*
X84810743Y-91402819D01*
X84810743Y-91402819D02*
X85048838Y-91402819D01*
X85048838Y-91402819D02*
X85191695Y-91450438D01*
X85525029Y-91402819D02*
X85763124Y-92402819D01*
X85763124Y-92402819D02*
X85953600Y-91688533D01*
X85953600Y-91688533D02*
X86144076Y-92402819D01*
X86144076Y-92402819D02*
X86382172Y-91402819D01*
X87191695Y-91736152D02*
X87191695Y-92402819D01*
X86953600Y-91355200D02*
X86715505Y-92069485D01*
X86715505Y-92069485D02*
X87334552Y-92069485D01*
X121823809Y-110754819D02*
X122395237Y-110754819D01*
X122109523Y-111754819D02*
X122109523Y-110754819D01*
X122633333Y-110754819D02*
X123299999Y-111754819D01*
X123299999Y-110754819D02*
X122633333Y-111754819D01*
X123633333Y-110850057D02*
X123680952Y-110802438D01*
X123680952Y-110802438D02*
X123776190Y-110754819D01*
X123776190Y-110754819D02*
X124014285Y-110754819D01*
X124014285Y-110754819D02*
X124109523Y-110802438D01*
X124109523Y-110802438D02*
X124157142Y-110850057D01*
X124157142Y-110850057D02*
X124204761Y-110945295D01*
X124204761Y-110945295D02*
X124204761Y-111040533D01*
X124204761Y-111040533D02*
X124157142Y-111183390D01*
X124157142Y-111183390D02*
X123585714Y-111754819D01*
X123585714Y-111754819D02*
X124204761Y-111754819D01*
X124395238Y-111850057D02*
X125157142Y-111850057D01*
X125252381Y-110754819D02*
X125823809Y-110754819D01*
X125538095Y-111754819D02*
X125538095Y-110754819D01*
X126157143Y-111754819D02*
X126157143Y-110754819D01*
X126157143Y-110754819D02*
X126538095Y-110754819D01*
X126538095Y-110754819D02*
X126633333Y-110802438D01*
X126633333Y-110802438D02*
X126680952Y-110850057D01*
X126680952Y-110850057D02*
X126728571Y-110945295D01*
X126728571Y-110945295D02*
X126728571Y-111088152D01*
X126728571Y-111088152D02*
X126680952Y-111183390D01*
X126680952Y-111183390D02*
X126633333Y-111231009D01*
X126633333Y-111231009D02*
X126538095Y-111278628D01*
X126538095Y-111278628D02*
X126157143Y-111278628D01*
X127109524Y-110850057D02*
X127157143Y-110802438D01*
X127157143Y-110802438D02*
X127252381Y-110754819D01*
X127252381Y-110754819D02*
X127490476Y-110754819D01*
X127490476Y-110754819D02*
X127585714Y-110802438D01*
X127585714Y-110802438D02*
X127633333Y-110850057D01*
X127633333Y-110850057D02*
X127680952Y-110945295D01*
X127680952Y-110945295D02*
X127680952Y-111040533D01*
X127680952Y-111040533D02*
X127633333Y-111183390D01*
X127633333Y-111183390D02*
X127061905Y-111754819D01*
X127061905Y-111754819D02*
X127680952Y-111754819D01*
X129786142Y-93545819D02*
X129452809Y-93069628D01*
X129214714Y-93545819D02*
X129214714Y-92545819D01*
X129214714Y-92545819D02*
X129595666Y-92545819D01*
X129595666Y-92545819D02*
X129690904Y-92593438D01*
X129690904Y-92593438D02*
X129738523Y-92641057D01*
X129738523Y-92641057D02*
X129786142Y-92736295D01*
X129786142Y-92736295D02*
X129786142Y-92879152D01*
X129786142Y-92879152D02*
X129738523Y-92974390D01*
X129738523Y-92974390D02*
X129690904Y-93022009D01*
X129690904Y-93022009D02*
X129595666Y-93069628D01*
X129595666Y-93069628D02*
X129214714Y-93069628D01*
X130738523Y-93545819D02*
X130167095Y-93545819D01*
X130452809Y-93545819D02*
X130452809Y-92545819D01*
X130452809Y-92545819D02*
X130357571Y-92688676D01*
X130357571Y-92688676D02*
X130262333Y-92783914D01*
X130262333Y-92783914D02*
X130167095Y-92831533D01*
X131071857Y-92545819D02*
X131690904Y-92545819D01*
X131690904Y-92545819D02*
X131357571Y-92926771D01*
X131357571Y-92926771D02*
X131500428Y-92926771D01*
X131500428Y-92926771D02*
X131595666Y-92974390D01*
X131595666Y-92974390D02*
X131643285Y-93022009D01*
X131643285Y-93022009D02*
X131690904Y-93117247D01*
X131690904Y-93117247D02*
X131690904Y-93355342D01*
X131690904Y-93355342D02*
X131643285Y-93450580D01*
X131643285Y-93450580D02*
X131595666Y-93498200D01*
X131595666Y-93498200D02*
X131500428Y-93545819D01*
X131500428Y-93545819D02*
X131214714Y-93545819D01*
X131214714Y-93545819D02*
X131119476Y-93498200D01*
X131119476Y-93498200D02*
X131071857Y-93450580D01*
D12*
X108406800Y-88680400D02*
X107906800Y-88680400D01*
X108406800Y-88180400D01*
X108406800Y-88680400D01*
G36*
X108406800Y-88680400D02*
G01*
X107906800Y-88680400D01*
X108406800Y-88180400D01*
X108406800Y-88680400D01*
G37*
X126651800Y-107535400D02*
X125651800Y-107535400D01*
X126651800Y-106755400D02*
X126651800Y-107535400D01*
X108411800Y-107535400D02*
X109411800Y-107535400D01*
X108411800Y-106755400D02*
X108411800Y-107535400D01*
X129049000Y-107061000D02*
X129049000Y-99331000D01*
X131809000Y-99331000D02*
X129049000Y-99331000D01*
X131809000Y-107061000D02*
X129049000Y-107061000D01*
X131809000Y-107061000D02*
X131809000Y-99331000D01*
X131809000Y-108331000D02*
X131809000Y-109711000D01*
X131809000Y-109711000D02*
X130429000Y-109711000D01*
X90453800Y-95986652D02*
X90453800Y-94564148D01*
X92273800Y-95986652D02*
X92273800Y-94564148D01*
X101261276Y-116613800D02*
X101770724Y-116613800D01*
X101261276Y-117658800D02*
X101770724Y-117658800D01*
X92361652Y-112676000D02*
X91839148Y-112676000D01*
X92361652Y-114146000D02*
X91839148Y-114146000D01*
X130148064Y-95858000D02*
X129693936Y-95858000D01*
X130148064Y-94388000D02*
X129693936Y-94388000D01*
X114020555Y-121408067D02*
X114520555Y-121408067D01*
X114270555Y-121158067D02*
X114270555Y-121658067D01*
X114760555Y-121772504D02*
X114760555Y-121908067D01*
X114760555Y-121772504D02*
X115824992Y-120708067D01*
X114760555Y-124163630D02*
X114760555Y-124028067D01*
X114760555Y-124163630D02*
X115824992Y-125228067D01*
X115824992Y-120708067D02*
X119280555Y-120708067D01*
X115824992Y-125228067D02*
X119280555Y-125228067D01*
X119280555Y-120708067D02*
X119280555Y-121908067D01*
X119280555Y-125228067D02*
X119280555Y-124028067D01*
D13*
X82880200Y-95504000D02*
X82880200Y-97571560D01*
X82880200Y-99583240D02*
X82880200Y-101650800D01*
X82880200Y-101650800D02*
X89027000Y-101650800D01*
X89027000Y-95504000D02*
X82880200Y-95504000D01*
X89027000Y-97571560D02*
X89027000Y-95504000D01*
X89027000Y-101650800D02*
X89027000Y-99583240D01*
D12*
X85565367Y-112280700D02*
X85272833Y-112280700D01*
X85565367Y-113300700D02*
X85272833Y-113300700D01*
X92943000Y-91389148D02*
X92943000Y-92811652D01*
X94763000Y-91389148D02*
X94763000Y-92811652D01*
D14*
X102901000Y-106209200D02*
X104901000Y-106209200D01*
X102901000Y-106509200D02*
X102901000Y-106209200D01*
X104901000Y-106209200D02*
X104901000Y-106509200D01*
X104901000Y-106509200D02*
X102901000Y-106509200D01*
X105051000Y-104859200D02*
X105051000Y-105859200D01*
D12*
X87812200Y-107137252D02*
X87812200Y-105714748D01*
X89632200Y-107137252D02*
X89632200Y-105714748D01*
D15*
X125555650Y-124263000D02*
G75*
G02*
X125455650Y-124263000I-50000J0D01*
G01*
X125455650Y-124263000D02*
G75*
G02*
X125555650Y-124263000I50000J0D01*
G01*
D12*
X104156876Y-113324500D02*
X104666324Y-113324500D01*
X104156876Y-114369500D02*
X104666324Y-114369500D01*
X85243936Y-105589400D02*
X85698064Y-105589400D01*
X85243936Y-107059400D02*
X85698064Y-107059400D01*
D15*
X121575650Y-124263000D02*
G75*
G02*
X121475650Y-124263000I-50000J0D01*
G01*
X121475650Y-124263000D02*
G75*
G02*
X121575650Y-124263000I50000J0D01*
G01*
X127545650Y-124263000D02*
G75*
G02*
X127445650Y-124263000I-50000J0D01*
G01*
X127445650Y-124263000D02*
G75*
G02*
X127545650Y-124263000I50000J0D01*
G01*
D12*
X91839148Y-115012800D02*
X92361652Y-115012800D01*
X91839148Y-116482800D02*
X92361652Y-116482800D01*
X101261276Y-118252100D02*
X101770724Y-118252100D01*
X101261276Y-119297100D02*
X101770724Y-119297100D01*
X111415336Y-112955400D02*
X111869464Y-112955400D01*
X111415336Y-114425400D02*
X111869464Y-114425400D01*
X85565367Y-115400900D02*
X85272833Y-115400900D01*
X85565367Y-116420900D02*
X85272833Y-116420900D01*
X104611252Y-95790000D02*
X103188748Y-95790000D01*
X104611252Y-97610000D02*
X103188748Y-97610000D01*
X101689664Y-108402200D02*
X101235536Y-108402200D01*
X101689664Y-109872200D02*
X101235536Y-109872200D01*
X101261276Y-114975500D02*
X101770724Y-114975500D01*
X101261276Y-116020500D02*
X101770724Y-116020500D01*
X97693800Y-120330400D02*
X112633800Y-120330400D01*
X97693800Y-125950400D02*
X112633800Y-125950400D01*
X97693800Y-127570400D02*
X97693800Y-120330400D01*
X99613800Y-127570400D02*
X97693800Y-127570400D01*
X112633800Y-120330400D02*
X112633800Y-127570400D01*
X112633800Y-127570400D02*
X100213800Y-127570400D01*
X100353800Y-128180400D02*
X99473800Y-128180400D01*
X99913800Y-127570400D01*
X100353800Y-128180400D01*
G36*
X100353800Y-128180400D02*
G01*
X99473800Y-128180400D01*
X99913800Y-127570400D01*
X100353800Y-128180400D01*
G37*
X105894200Y-108002336D02*
X105894200Y-108456464D01*
X107364200Y-108002336D02*
X107364200Y-108456464D01*
X105818000Y-90238948D02*
X105818000Y-90761452D01*
X107288000Y-90238948D02*
X107288000Y-90761452D01*
X118365536Y-108866000D02*
X118819664Y-108866000D01*
X118365536Y-110336000D02*
X118819664Y-110336000D01*
X93153749Y-119990452D02*
X93153749Y-127000452D01*
X96453749Y-119990452D02*
X93153749Y-119990452D01*
X96453749Y-119990452D02*
X96453749Y-127000452D01*
X106617600Y-114487336D02*
X106617600Y-115941464D01*
X108437600Y-114487336D02*
X108437600Y-115941464D01*
X115807948Y-118419200D02*
X117230452Y-118419200D01*
X115807948Y-120239200D02*
X117230452Y-120239200D01*
X117402200Y-112820700D02*
X115452200Y-112820700D01*
X117402200Y-112820700D02*
X119352200Y-112820700D01*
X117402200Y-117940700D02*
X115452200Y-117940700D01*
X117402200Y-117940700D02*
X119352200Y-117940700D01*
X120342200Y-118175700D02*
X119862200Y-118175700D01*
X120102200Y-117845700D01*
X120342200Y-118175700D01*
G36*
X120342200Y-118175700D02*
G01*
X119862200Y-118175700D01*
X120102200Y-117845700D01*
X120342200Y-118175700D01*
G37*
X85599600Y-109472464D02*
X85599600Y-109018336D01*
X87069600Y-109472464D02*
X87069600Y-109018336D01*
X105472936Y-93865000D02*
X105927064Y-93865000D01*
X105472936Y-95335000D02*
X105927064Y-95335000D01*
X111415336Y-116155800D02*
X111869464Y-116155800D01*
X111415336Y-117625800D02*
X111869464Y-117625800D01*
D15*
X123565650Y-124263000D02*
G75*
G02*
X123465650Y-124263000I-50000J0D01*
G01*
X123465650Y-124263000D02*
G75*
G02*
X123565650Y-124263000I50000J0D01*
G01*
D16*
X90459200Y-109737906D02*
X90459200Y-108137906D01*
X93589200Y-109737906D02*
X93589200Y-108137906D01*
D14*
X91178200Y-111337906D02*
G75*
G02*
X90978200Y-111337906I-100000J0D01*
G01*
X90978200Y-111337906D02*
G75*
G02*
X91178200Y-111337906I100000J0D01*
G01*
D12*
X103280800Y-90373148D02*
X103280800Y-91795652D01*
X105100800Y-90373148D02*
X105100800Y-91795652D01*
X85565367Y-113840800D02*
X85272833Y-113840800D01*
X85565367Y-114860800D02*
X85272833Y-114860800D01*
D13*
X85448497Y-125691900D02*
X88592303Y-125691900D01*
X88592303Y-117132100D02*
X85448497Y-117132100D01*
D14*
X102751000Y-103626800D02*
X102751000Y-102626800D01*
X102901000Y-101976800D02*
X104901000Y-101976800D01*
X102901000Y-102276800D02*
X102901000Y-101976800D01*
X104901000Y-101976800D02*
X104901000Y-102276800D01*
X104901000Y-102276800D02*
X102901000Y-102276800D01*
D16*
X92256000Y-99713200D02*
X92256000Y-101513200D01*
X92256000Y-101513200D02*
X93671000Y-101513200D01*
X92401000Y-99713200D02*
X92256000Y-99713200D01*
X100131000Y-101513200D02*
X100276000Y-101513200D01*
X100276000Y-99713200D02*
X98861000Y-99713200D01*
X100276000Y-101513200D02*
X100276000Y-99713200D01*
D14*
X93191000Y-97913200D02*
G75*
G02*
X92991000Y-97913200I-100000J0D01*
G01*
X92991000Y-97913200D02*
G75*
G02*
X93191000Y-97913200I100000J0D01*
G01*
D13*
X82880200Y-88874600D02*
X82880200Y-90942160D01*
X82880200Y-92953840D02*
X82880200Y-95021400D01*
X82880200Y-95021400D02*
X89027000Y-95021400D01*
X89027000Y-88874600D02*
X82880200Y-88874600D01*
X89027000Y-90942160D02*
X89027000Y-88874600D01*
X89027000Y-95021400D02*
X89027000Y-92953840D01*
D12*
X130148064Y-98144000D02*
X129693936Y-98144000D01*
X130148064Y-96674000D02*
X129693936Y-96674000D01*
%LPC*%
D17*
X117431800Y-97825400D03*
X117431800Y-96425400D03*
X116731800Y-98525400D03*
X116731800Y-97125400D03*
X116731800Y-95725400D03*
D18*
X116031800Y-97125400D03*
D17*
X116006800Y-97825400D03*
X116006800Y-96425400D03*
X115331800Y-98525400D03*
X115331800Y-97125400D03*
X115331800Y-95725400D03*
X114631800Y-97825400D03*
X114631800Y-96425400D03*
D19*
X126281800Y-89405400D03*
X126281800Y-90675400D03*
X126281800Y-91945400D03*
X126281800Y-93215400D03*
X126281800Y-94485400D03*
X126281800Y-95755400D03*
X126281800Y-97025400D03*
X126281800Y-98295400D03*
X126281800Y-99565400D03*
X126281800Y-100835400D03*
X126281800Y-102105400D03*
X126281800Y-103375400D03*
X126281800Y-104645400D03*
X126281800Y-105915400D03*
D20*
X123251800Y-107165400D03*
X121981800Y-107165400D03*
X120711800Y-107165400D03*
X119441800Y-107165400D03*
X118171800Y-107165400D03*
X116901800Y-107165400D03*
X115631800Y-107165400D03*
X114361800Y-107165400D03*
X113091800Y-107165400D03*
X111821800Y-107165400D03*
D19*
X108781800Y-105915400D03*
X108781800Y-104645400D03*
X108781800Y-103375400D03*
X108781800Y-102105400D03*
X108781800Y-100835400D03*
X108781800Y-99565400D03*
X108781800Y-98295400D03*
X108781800Y-97025400D03*
X108781800Y-95755400D03*
X108781800Y-94485400D03*
X108781800Y-93215400D03*
X108781800Y-91945400D03*
X108781800Y-90675400D03*
X108781800Y-89405400D03*
D21*
X130429000Y-100711000D03*
X130429000Y-103251000D03*
X130429000Y-105791000D03*
D22*
X130429000Y-108331000D03*
D23*
X125087200Y-118368200D03*
D24*
X104525723Y-98553406D03*
X105660723Y-98553406D03*
X104513858Y-99579651D03*
X105648858Y-99579651D03*
D25*
X91363800Y-96837900D03*
X91363800Y-93712900D03*
D26*
X100603500Y-117136300D03*
X102428500Y-117136300D03*
D27*
X93137900Y-113411000D03*
X91062900Y-113411000D03*
D28*
X107000000Y-99550000D03*
X107000000Y-98450000D03*
D29*
X130921000Y-95123000D03*
X128921000Y-95123000D03*
D30*
X115220555Y-122968067D03*
X118820555Y-122968067D03*
D31*
X82677000Y-98577400D03*
X89230200Y-98577400D03*
D32*
X86281600Y-112790700D03*
X84556600Y-112790700D03*
D33*
X93853000Y-90537900D03*
X93853000Y-93662900D03*
D34*
X104551000Y-105359200D03*
X103251000Y-105359200D03*
X103901000Y-107359200D03*
D25*
X88722200Y-107988500D03*
X88722200Y-104863500D03*
D35*
X125505650Y-123570500D03*
X125505650Y-122425500D03*
D26*
X103499100Y-113847000D03*
X105324100Y-113847000D03*
D36*
X84471000Y-106324400D03*
X86471000Y-106324400D03*
D35*
X121525650Y-123570500D03*
X121525650Y-122425500D03*
X127495650Y-123570500D03*
X127495650Y-122425500D03*
D37*
X91062900Y-115747800D03*
X93137900Y-115747800D03*
D26*
X100603500Y-118774600D03*
X102428500Y-118774600D03*
D36*
X110642400Y-113690400D03*
X112642400Y-113690400D03*
D32*
X86281600Y-115910900D03*
X84556600Y-115910900D03*
D38*
X105462500Y-96700000D03*
X102337500Y-96700000D03*
D29*
X102462600Y-109137200D03*
X100462600Y-109137200D03*
D26*
X100603500Y-115498000D03*
X102428500Y-115498000D03*
D39*
X110413800Y-123850400D03*
D40*
X99913800Y-123850400D03*
D39*
X103413800Y-123850400D03*
X106913800Y-123850400D03*
D41*
X106629200Y-107229400D03*
X106629200Y-109229400D03*
D42*
X106553000Y-89462700D03*
X106553000Y-91537700D03*
D36*
X117592600Y-109601000D03*
X119592600Y-109601000D03*
D43*
X94803749Y-122000452D03*
X94803749Y-127000452D03*
D44*
X107527600Y-113664400D03*
X107527600Y-116764400D03*
D45*
X114956700Y-119329200D03*
X118081700Y-119329200D03*
D46*
X119877200Y-117285700D03*
X119877200Y-116015700D03*
X119877200Y-114745700D03*
X119877200Y-113475700D03*
X114927200Y-113475700D03*
X114927200Y-114745700D03*
X114927200Y-116015700D03*
X114927200Y-117285700D03*
D47*
X86334600Y-110245400D03*
X86334600Y-108245400D03*
D36*
X104700000Y-94600000D03*
X106700000Y-94600000D03*
X110642400Y-116890800D03*
X112642400Y-116890800D03*
D35*
X123515650Y-123570500D03*
X123515650Y-122425500D03*
D48*
X91074200Y-110192906D03*
X92024200Y-110192906D03*
X92974200Y-110192906D03*
X92974200Y-107682906D03*
X92024200Y-107682906D03*
X91074200Y-107682906D03*
D33*
X104190800Y-89521900D03*
X104190800Y-92646900D03*
D32*
X86281600Y-114350800D03*
X84556600Y-114350800D03*
D49*
X84162900Y-121412000D03*
X89877900Y-121412000D03*
D34*
X103251000Y-103126800D03*
X104551000Y-103126800D03*
X103901000Y-101126800D03*
D50*
X93091000Y-99263200D03*
X94361000Y-101963200D03*
X95631000Y-99263200D03*
X96901000Y-101963200D03*
X98171000Y-99263200D03*
X99441000Y-101963200D03*
D31*
X82677000Y-91948000D03*
X89230200Y-91948000D03*
D23*
X124079000Y-113588800D03*
D29*
X130921000Y-97409000D03*
X128921000Y-97409000D03*
%LPD*%
M02*
