%TF.GenerationSoftware,KiCad,Pcbnew,9.0.4*%
%TF.CreationDate,2025-10-05T21:49:45+02:00*%
%TF.ProjectId,modbus-to-x,6d6f6462-7573-42d7-946f-2d782e6b6963,rev?*%
%TF.SameCoordinates,Original*%
%TF.FileFunction,Drillmap*%
%TF.FilePolarity,Positive*%
%FSLAX45Y45*%
G04 Gerber Fmt 4.5, Leading zero omitted, Abs format (unit mm)*
G04 Created by KiCad (PCBNEW 9.0.4) date 2025-10-05 21:49:45*
%MOMM*%
%LPD*%
G01*
G04 APERTURE LIST*
%ADD10C,0.100000*%
%ADD11C,0.050000*%
%ADD12C,0.200000*%
G04 APERTURE END LIST*
D10*
X8000000Y-8800000D02*
G75*
G02*
X8050000Y-8750000I50000J0D01*
G01*
D11*
X10077056Y-9229040D02*
G75*
G02*
X9777056Y-9229040I-150000J0D01*
G01*
X9777056Y-9229040D02*
G75*
G02*
X10077056Y-9229040I150000J0D01*
G01*
D10*
X13200000Y-13050000D02*
X8100000Y-13050000D01*
D11*
X13099405Y-11871681D02*
G75*
G02*
X12799405Y-11871681I-150000J0D01*
G01*
X12799405Y-11871681D02*
G75*
G02*
X13099405Y-11871681I150000J0D01*
G01*
D10*
X8000000Y-12950000D02*
X8000000Y-8800000D01*
X13200000Y-8750000D02*
X8050000Y-8750000D01*
X13250000Y-8800000D02*
X13250000Y-13000000D01*
X8100000Y-13050000D02*
G75*
G02*
X8000000Y-12950000I0J100000D01*
G01*
X13200000Y-8750000D02*
G75*
G02*
X13250000Y-8800000I0J-50000D01*
G01*
X13250000Y-13000000D02*
G75*
G02*
X13200000Y-13050000I-50000J0D01*
G01*
D11*
X9957317Y-11216012D02*
G75*
G02*
X9657317Y-11216012I-150000J0D01*
G01*
X9657317Y-11216012D02*
G75*
G02*
X9957317Y-11216012I150000J0D01*
G01*
D12*
X8255777Y-13366484D02*
X8255777Y-13166484D01*
X8255777Y-13166484D02*
X8303396Y-13166484D01*
X8303396Y-13166484D02*
X8331967Y-13176008D01*
X8331967Y-13176008D02*
X8351015Y-13195055D01*
X8351015Y-13195055D02*
X8360539Y-13214103D01*
X8360539Y-13214103D02*
X8370062Y-13252198D01*
X8370062Y-13252198D02*
X8370062Y-13280769D01*
X8370062Y-13280769D02*
X8360539Y-13318865D01*
X8360539Y-13318865D02*
X8351015Y-13337912D01*
X8351015Y-13337912D02*
X8331967Y-13356960D01*
X8331967Y-13356960D02*
X8303396Y-13366484D01*
X8303396Y-13366484D02*
X8255777Y-13366484D01*
X8455777Y-13366484D02*
X8455777Y-13233150D01*
X8455777Y-13271246D02*
X8465301Y-13252198D01*
X8465301Y-13252198D02*
X8474824Y-13242674D01*
X8474824Y-13242674D02*
X8493872Y-13233150D01*
X8493872Y-13233150D02*
X8512920Y-13233150D01*
X8579586Y-13366484D02*
X8579586Y-13233150D01*
X8579586Y-13166484D02*
X8570063Y-13176008D01*
X8570063Y-13176008D02*
X8579586Y-13185531D01*
X8579586Y-13185531D02*
X8589110Y-13176008D01*
X8589110Y-13176008D02*
X8579586Y-13166484D01*
X8579586Y-13166484D02*
X8579586Y-13185531D01*
X8703396Y-13366484D02*
X8684348Y-13356960D01*
X8684348Y-13356960D02*
X8674824Y-13337912D01*
X8674824Y-13337912D02*
X8674824Y-13166484D01*
X8808158Y-13366484D02*
X8789110Y-13356960D01*
X8789110Y-13356960D02*
X8779586Y-13337912D01*
X8779586Y-13337912D02*
X8779586Y-13166484D01*
X9036729Y-13366484D02*
X9036729Y-13166484D01*
X9036729Y-13166484D02*
X9103396Y-13309341D01*
X9103396Y-13309341D02*
X9170063Y-13166484D01*
X9170063Y-13166484D02*
X9170063Y-13366484D01*
X9351015Y-13366484D02*
X9351015Y-13261722D01*
X9351015Y-13261722D02*
X9341491Y-13242674D01*
X9341491Y-13242674D02*
X9322444Y-13233150D01*
X9322444Y-13233150D02*
X9284348Y-13233150D01*
X9284348Y-13233150D02*
X9265301Y-13242674D01*
X9351015Y-13356960D02*
X9331967Y-13366484D01*
X9331967Y-13366484D02*
X9284348Y-13366484D01*
X9284348Y-13366484D02*
X9265301Y-13356960D01*
X9265301Y-13356960D02*
X9255777Y-13337912D01*
X9255777Y-13337912D02*
X9255777Y-13318865D01*
X9255777Y-13318865D02*
X9265301Y-13299817D01*
X9265301Y-13299817D02*
X9284348Y-13290293D01*
X9284348Y-13290293D02*
X9331967Y-13290293D01*
X9331967Y-13290293D02*
X9351015Y-13280769D01*
X9446253Y-13233150D02*
X9446253Y-13433150D01*
X9446253Y-13242674D02*
X9465301Y-13233150D01*
X9465301Y-13233150D02*
X9503396Y-13233150D01*
X9503396Y-13233150D02*
X9522444Y-13242674D01*
X9522444Y-13242674D02*
X9531967Y-13252198D01*
X9531967Y-13252198D02*
X9541491Y-13271246D01*
X9541491Y-13271246D02*
X9541491Y-13328388D01*
X9541491Y-13328388D02*
X9531967Y-13347436D01*
X9531967Y-13347436D02*
X9522444Y-13356960D01*
X9522444Y-13356960D02*
X9503396Y-13366484D01*
X9503396Y-13366484D02*
X9465301Y-13366484D01*
X9465301Y-13366484D02*
X9446253Y-13356960D01*
X9627205Y-13347436D02*
X9636729Y-13356960D01*
X9636729Y-13356960D02*
X9627205Y-13366484D01*
X9627205Y-13366484D02*
X9617682Y-13356960D01*
X9617682Y-13356960D02*
X9627205Y-13347436D01*
X9627205Y-13347436D02*
X9627205Y-13366484D01*
X9627205Y-13242674D02*
X9636729Y-13252198D01*
X9636729Y-13252198D02*
X9627205Y-13261722D01*
X9627205Y-13261722D02*
X9617682Y-13252198D01*
X9617682Y-13252198D02*
X9627205Y-13242674D01*
X9627205Y-13242674D02*
X9627205Y-13261722D01*
M02*
