M48
; DRILL file {KiCad 9.0.3} date 2025-11-06T12:11:46+0100
; FORMAT={-:-/ absolute / metric / decimal}
; #@! TF.CreationDate,2025-11-06T12:11:46+01:00
; #@! TF.GenerationSoftware,Kicad,Pcbnew,9.0.3
; #@! TF.FileFunction,Plated,1,4,PTH
FMAT,2
METRIC
; #@! TA.AperFunction,Plated,PTH,ComponentDrill
T1C0.200
; #@! TA.AperFunction,Plated,PTH,ViaDrill
T2C0.300
; #@! TA.AperFunction,Plated,PTH,ComponentDrill
T3C0.800
; #@! TA.AperFunction,Plated,PTH,ComponentDrill
T4C0.900
%
G90
G05
T1
X58.95Y-90.5
X58.95Y-91.733
X58.95Y-92.967
X58.95Y-94.2
X58.95Y-95.433
X58.95Y-96.667
X58.95Y-97.9
X61.05Y-93.567
X61.05Y-94.8
X61.05Y-96.033
X63.1Y-90.55
X63.1Y-91.783
X63.1Y-93.017
X63.1Y-94.25
X63.1Y-95.483
X63.1Y-96.717
X63.1Y-97.95
X65.45Y-93.567
X65.45Y-94.8
X65.45Y-96.033
X67.65Y-90.55
X67.65Y-91.783
X67.65Y-93.017
X67.65Y-94.25
X67.65Y-95.483
X67.65Y-96.717
X67.65Y-97.95
X114.632Y-96.425
X114.632Y-97.825
X115.332Y-95.725
X115.332Y-97.125
X115.332Y-98.525
X116.007Y-96.425
X116.007Y-97.825
X116.732Y-95.725
X116.732Y-97.125
X116.732Y-98.525
X117.432Y-96.425
X117.432Y-97.825
T2
X45.9Y-90.967
X45.9Y-93.4
X45.9Y-95.833
X45.9Y-98.267
X45.9Y-100.667
X45.9Y-103.1
X45.9Y-105.533
X45.9Y-107.967
X45.9Y-110.4
X45.9Y-112.6
X45.9Y-115.1
X45.9Y-117.4
X45.9Y-119.8
X45.9Y-122.233
X45.9Y-124.6
X45.9Y-127.067
X45.9Y-129.8
X46.6Y-89.3
X46.6Y-132.2
X47.2Y-120.7
X47.66Y-109.1
X48.233Y-132.8
X48.333Y-88.5
X48.8Y-120.7
X49.42Y-109.1
X50.667Y-132.8
X50.767Y-88.5
X51.18Y-109.1
X52.94Y-105.1
X52.94Y-109.1
X53.1Y-132.8
X53.2Y-88.5
X54.7Y-105.1
X55.533Y-132.8
X55.6Y-88.5
X55.8Y-100.68
X55.8Y-102.44
X55.8Y-104.2
X56.9Y-90.14
X56.9Y-92.02
X56.9Y-93.78
X56.9Y-95.54
X56.9Y-97.3
X56.9Y-99.06
X57.4Y-101.8
X57.4Y-102.9
X57.4Y-104.1
X57.4Y-105.4
X57.6Y-124.4
X57.6Y-125.2
X57.933Y-132.8
X58.033Y-88.5
X58.3Y-101.8
X58.3Y-102.9
X58.3Y-104.1
X58.3Y-105.4
X58.5Y-99.8
X58.5Y-124.4
X58.5Y-125.2
X60.3Y-99.8
X60.367Y-132.8
X60.467Y-88.5
X61.8Y-99.8
X62.8Y-132.8
X62.9Y-88.5
X63.3Y-99.8
X63.3Y-106.2
X63.6Y-107.1
X64.9Y-99.8
X65.233Y-88.5
X65.233Y-132.8
X66.7Y-99.8
X67.533Y-132.8
X67.667Y-88.5
X68.6Y-99.8
X68.6Y-102.48
X68.6Y-104.24
X68.6Y-106.0
X69.967Y-132.8
X70.1Y-88.5
X70.1Y-91.2
X72.4Y-132.8
X72.5Y-91.2
X72.533Y-88.5
X73.9Y-121.0
X73.9Y-122.1
X73.9Y-123.2
X74.7Y-91.2
X74.833Y-132.8
X74.933Y-88.5
X75.66Y-121.0
X75.66Y-123.2
X76.8Y-90.1
X77.233Y-132.8
X77.367Y-88.5
X77.9Y-119.9
X77.9Y-122.4
X78.9Y-91.2
X79.667Y-132.8
X79.7Y-118.7
X79.7Y-121.1
X79.8Y-88.5
X81.0Y-91.2
X81.5Y-117.3
X82.1Y-132.8
X82.233Y-88.5
X82.76Y-91.2
X83.0Y-119.4
X83.6Y-115.8
X84.533Y-132.8
X84.7Y-91.4
X84.7Y-93.16
X84.7Y-94.92
X84.7Y-96.68
X84.7Y-98.44
X84.7Y-100.2
X84.7Y-102.08
X84.7Y-103.84
X84.833Y-88.5
X85.6Y-119.4
X85.7Y-114.4
X86.4Y-106.5
X86.4Y-108.2
X86.4Y-109.9
X86.4Y-111.5
X86.933Y-132.8
X87.267Y-88.5
X87.4Y-113.1
X87.5Y-120.3
X88.4Y-107.1
X88.4Y-108.7
X88.4Y-110.4
X89.2Y-119.4
X89.367Y-132.8
X89.6Y-111.6
X89.7Y-88.5
X89.85Y-99.9
X90.4Y-106.2
X90.4Y-107.6
X90.4Y-109.0
X90.4Y-110.2
X90.9Y-97.5
X91.22Y-119.4
X91.35Y-100.95
X91.8Y-132.8
X91.96Y-106.2
X92.133Y-88.5
X93.2Y-119.4
X93.3Y-98.8
X93.5Y-106.2
X94.167Y-132.8
X94.533Y-88.5
X94.8Y-106.2
X95.1Y-128.4
X95.103Y-127.051
X95.4Y-119.4
X95.412Y-125.757
X95.8Y-107.0
X96.6Y-132.8
X96.65Y-107.9
X96.967Y-88.5
X97.42Y-119.4
X97.621Y-125.731
X97.65Y-108.95
X97.897Y-127.102
X97.9Y-128.5
X98.55Y-109.9
X98.6Y-95.7
X99.033Y-132.8
X99.2Y-103.6
X99.4Y-88.5
X99.4Y-119.4
X100.0Y-96.7
X100.1Y-111.5
X100.635Y-114.478
X100.85Y-112.25
X101.333Y-132.8
X101.483Y-116.307
X101.498Y-118.186
X101.5Y-92.3
X101.9Y-88.5
X102.6Y-90.0
X102.85Y-107.4
X103.0Y-121.2
X103.269Y-100.478
X103.3Y-97.3
X103.3Y-98.3
X103.3Y-99.4
X103.47Y-117.136
X103.47Y-118.775
X103.505Y-115.519
X103.767Y-132.8
X104.269Y-100.478
X104.3Y-97.3
X104.412Y-112.983
X104.5Y-119.5
X104.5Y-120.6
X104.7Y-101.6
X104.8Y-88.5
X105.369Y-100.478
X105.4Y-97.3
X105.7Y-117.1
X106.07Y-113.03
X106.2Y-132.8
X106.369Y-100.478
X106.4Y-97.3
X107.1Y-90.1
X107.1Y-90.9
X107.1Y-91.9
X107.15Y-88.5
X107.233Y-120.5
X107.267Y-118.8
X107.369Y-100.478
X107.4Y-97.3
X108.633Y-132.8
X109.12Y-109.2
X109.407Y-117.297
X109.667Y-120.5
X109.7Y-118.8
X110.016Y-104.07
X110.033Y-88.951
X110.033Y-89.8
X110.846Y-106.705
X110.846Y-107.721
X110.88Y-109.2
X111.0Y-103.0
X111.033Y-132.8
X111.1Y-96.14
X111.1Y-97.9
X111.62Y-91.2
X112.1Y-102.0
X112.1Y-120.5
X112.1Y-122.5
X112.1Y-124.533
X112.133Y-118.8
X112.38Y-89.0
X112.624Y-112.538
X112.64Y-109.2
X112.7Y-96.14
X112.7Y-97.9
X113.28Y-100.0
X113.32Y-93.9
X113.38Y-91.2
X113.467Y-132.8
X113.56Y-105.1
X113.92Y-102.2
X114.14Y-89.0
X114.326Y-124.516
X114.4Y-109.2
X114.9Y-112.55
X114.957Y-121.121
X115.04Y-100.0
X115.08Y-93.9
X115.14Y-91.2
X115.32Y-105.1
X115.68Y-102.2
X115.9Y-89.0
X115.9Y-132.8
X116.1Y-119.4
X116.205Y-117.286
X116.281Y-108.737
X116.332Y-124.294
X116.8Y-100.0
X116.84Y-93.9
X116.9Y-91.2
X117.08Y-105.1
X117.44Y-102.2
X117.66Y-89.0
X118.082Y-120.773
X118.3Y-132.8
X118.56Y-100.0
X118.6Y-93.9
X118.66Y-91.2
X118.8Y-121.6
X118.8Y-124.4
X118.84Y-105.1
X119.2Y-102.2
X119.42Y-89.0
X119.5Y-96.14
X119.5Y-97.9
X119.8Y-121.1
X119.9Y-124.8
X120.32Y-100.0
X120.34Y-91.2
X120.36Y-93.9
X120.6Y-105.1
X120.7Y-132.8
X121.1Y-89.0
X121.1Y-96.14
X121.1Y-97.9
X122.0Y-100.0
X122.04Y-93.9
X122.1Y-91.2
X122.508Y-123.575
X122.86Y-89.0
X122.9Y-96.14
X122.9Y-97.9
X122.924Y-121.696
X123.133Y-132.8
X123.76Y-100.0
X123.8Y-93.9
X124.49Y-123.575
X124.5Y-96.14
X124.5Y-97.9
X124.65Y-118.4
X124.914Y-121.696
X124.968Y-105.918
X125.019Y-89.027
X125.019Y-89.84
X125.247Y-93.243
X125.273Y-94.463
X125.567Y-132.8
X126.471Y-123.575
X126.904Y-121.696
X127.889Y-89.052
X127.889Y-90.0
X128.8Y-132.8
X129.4Y-88.5
X130.9Y-89.0
X131.0Y-132.2
X131.4Y-90.5
X131.4Y-92.867
X131.4Y-95.3
X131.4Y-97.733
X131.4Y-100.167
X131.4Y-102.567
X131.4Y-105.0
X131.4Y-107.433
X131.4Y-109.867
X131.4Y-112.5
X131.4Y-114.933
X131.4Y-117.367
X131.4Y-119.8
X131.4Y-122.2
X131.4Y-124.633
X131.4Y-127.067
X131.4Y-129.5
T3
X86.5Y-122.4
X89.04Y-122.4
X91.58Y-122.4
T4
X103.85Y-124.8
X104.87Y-122.26
X105.89Y-124.8
X106.91Y-122.26
X107.93Y-124.8
X108.95Y-122.26
M30
