G04 #@! TF.GenerationSoftware,KiCad,Pcbnew,9.0.4*
G04 #@! TF.CreationDate,2025-10-05T21:49:41+02:00*
G04 #@! TF.ProjectId,modbus-to-x,6d6f6462-7573-42d7-946f-2d782e6b6963,rev?*
G04 #@! TF.SameCoordinates,Original*
G04 #@! TF.FileFunction,Copper,L1,Top*
G04 #@! TF.FilePolarity,Positive*
%FSLAX46Y46*%
G04 Gerber Fmt 4.6, Leading zero omitted, Abs format (unit mm)*
G04 Created by KiCad (PCBNEW 9.0.4) date 2025-10-05 21:49:41*
%MOMM*%
%LPD*%
G01*
G04 APERTURE LIST*
G04 Aperture macros list*
%AMRoundRect*
0 Rectangle with rounded corners*
0 $1 Rounding radius*
0 $2 $3 $4 $5 $6 $7 $8 $9 X,Y pos of 4 corners*
0 Add a 4 corners polygon primitive as box body*
4,1,4,$2,$3,$4,$5,$6,$7,$8,$9,$2,$3,0*
0 Add four circle primitives for the rounded corners*
1,1,$1+$1,$2,$3*
1,1,$1+$1,$4,$5*
1,1,$1+$1,$6,$7*
1,1,$1+$1,$8,$9*
0 Add four rect primitives between the rounded corners*
20,1,$1+$1,$2,$3,$4,$5,0*
20,1,$1+$1,$4,$5,$6,$7,0*
20,1,$1+$1,$6,$7,$8,$9,0*
20,1,$1+$1,$8,$9,$2,$3,0*%
G04 Aperture macros list end*
G04 #@! TA.AperFunction,ComponentPad*
%ADD10C,1.700000*%
G04 #@! TD*
G04 #@! TA.AperFunction,ComponentPad*
%ADD11R,1.700000X1.700000*%
G04 #@! TD*
G04 #@! TA.AperFunction,SMDPad,CuDef*
%ADD12RoundRect,0.250000X0.650000X-0.412500X0.650000X0.412500X-0.650000X0.412500X-0.650000X-0.412500X0*%
G04 #@! TD*
G04 #@! TA.AperFunction,SMDPad,CuDef*
%ADD13RoundRect,0.237500X-0.250000X-0.237500X0.250000X-0.237500X0.250000X0.237500X-0.250000X0.237500X0*%
G04 #@! TD*
G04 #@! TA.AperFunction,SMDPad,CuDef*
%ADD14RoundRect,0.250000X0.337500X0.475000X-0.337500X0.475000X-0.337500X-0.475000X0.337500X-0.475000X0*%
G04 #@! TD*
G04 #@! TA.AperFunction,SMDPad,CuDef*
%ADD15R,1.000000X0.500000*%
G04 #@! TD*
G04 #@! TA.AperFunction,SMDPad,CuDef*
%ADD16RoundRect,0.250000X0.350000X0.450000X-0.350000X0.450000X-0.350000X-0.450000X0.350000X-0.450000X0*%
G04 #@! TD*
G04 #@! TA.AperFunction,SMDPad,CuDef*
%ADD17RoundRect,0.250000X-1.050000X-0.550000X1.050000X-0.550000X1.050000X0.550000X-1.050000X0.550000X0*%
G04 #@! TD*
G04 #@! TA.AperFunction,SMDPad,CuDef*
%ADD18RoundRect,0.155000X-0.212500X-0.155000X0.212500X-0.155000X0.212500X0.155000X-0.212500X0.155000X0*%
G04 #@! TD*
G04 #@! TA.AperFunction,SMDPad,CuDef*
%ADD19R,0.660400X1.346200*%
G04 #@! TD*
G04 #@! TA.AperFunction,SMDPad,CuDef*
%ADD20RoundRect,0.237500X0.300000X0.237500X-0.300000X0.237500X-0.300000X-0.237500X0.300000X-0.237500X0*%
G04 #@! TD*
G04 #@! TA.AperFunction,SMDPad,CuDef*
%ADD21RoundRect,0.250000X-0.650000X0.412500X-0.650000X-0.412500X0.650000X-0.412500X0.650000X0.412500X0*%
G04 #@! TD*
G04 #@! TA.AperFunction,SMDPad,CuDef*
%ADD22R,0.500000X1.000000*%
G04 #@! TD*
G04 #@! TA.AperFunction,SMDPad,CuDef*
%ADD23RoundRect,0.160000X0.160000X-0.222500X0.160000X0.222500X-0.160000X0.222500X-0.160000X-0.222500X0*%
G04 #@! TD*
G04 #@! TA.AperFunction,SMDPad,CuDef*
%ADD24RoundRect,0.250000X-0.350000X-0.450000X0.350000X-0.450000X0.350000X0.450000X-0.350000X0.450000X0*%
G04 #@! TD*
G04 #@! TA.AperFunction,SMDPad,CuDef*
%ADD25RoundRect,0.250000X-0.337500X-0.475000X0.337500X-0.475000X0.337500X0.475000X-0.337500X0.475000X0*%
G04 #@! TD*
G04 #@! TA.AperFunction,SMDPad,CuDef*
%ADD26RoundRect,0.250000X0.412500X0.650000X-0.412500X0.650000X-0.412500X-0.650000X0.412500X-0.650000X0*%
G04 #@! TD*
G04 #@! TA.AperFunction,ComponentPad*
%ADD27RoundRect,0.250001X-0.949999X-0.949999X0.949999X-0.949999X0.949999X0.949999X-0.949999X0.949999X0*%
G04 #@! TD*
G04 #@! TA.AperFunction,ComponentPad*
%ADD28C,2.400000*%
G04 #@! TD*
G04 #@! TA.AperFunction,SMDPad,CuDef*
%ADD29R,3.800000X2.030000*%
G04 #@! TD*
G04 #@! TA.AperFunction,SMDPad,CuDef*
%ADD30RoundRect,0.250000X-0.450000X0.350000X-0.450000X-0.350000X0.450000X-0.350000X0.450000X0.350000X0*%
G04 #@! TD*
G04 #@! TA.AperFunction,SMDPad,CuDef*
%ADD31RoundRect,0.250000X-0.475000X0.337500X-0.475000X-0.337500X0.475000X-0.337500X0.475000X0.337500X0*%
G04 #@! TD*
G04 #@! TA.AperFunction,SMDPad,CuDef*
%ADD32RoundRect,0.250000X-0.650000X1.500000X-0.650000X-1.500000X0.650000X-1.500000X0.650000X1.500000X0*%
G04 #@! TD*
G04 #@! TA.AperFunction,SMDPad,CuDef*
%ADD33RoundRect,0.250000X-0.625000X0.400000X-0.625000X-0.400000X0.625000X-0.400000X0.625000X0.400000X0*%
G04 #@! TD*
G04 #@! TA.AperFunction,SMDPad,CuDef*
%ADD34RoundRect,0.250000X-0.412500X-0.650000X0.412500X-0.650000X0.412500X0.650000X-0.412500X0.650000X0*%
G04 #@! TD*
G04 #@! TA.AperFunction,SMDPad,CuDef*
%ADD35RoundRect,0.150000X0.825000X0.150000X-0.825000X0.150000X-0.825000X-0.150000X0.825000X-0.150000X0*%
G04 #@! TD*
G04 #@! TA.AperFunction,SMDPad,CuDef*
%ADD36RoundRect,0.250000X0.450000X-0.350000X0.450000X0.350000X-0.450000X0.350000X-0.450000X-0.350000X0*%
G04 #@! TD*
G04 #@! TA.AperFunction,SMDPad,CuDef*
%ADD37RoundRect,0.073750X0.221250X-0.551250X0.221250X0.551250X-0.221250X0.551250X-0.221250X-0.551250X0*%
G04 #@! TD*
G04 #@! TA.AperFunction,SMDPad,CuDef*
%ADD38R,2.209800X8.001000*%
G04 #@! TD*
G04 #@! TA.AperFunction,SMDPad,CuDef*
%ADD39R,1.500000X0.900000*%
G04 #@! TD*
G04 #@! TA.AperFunction,SMDPad,CuDef*
%ADD40R,0.900000X1.500000*%
G04 #@! TD*
G04 #@! TA.AperFunction,SMDPad,CuDef*
%ADD41R,0.900000X0.900000*%
G04 #@! TD*
G04 #@! TA.AperFunction,HeatsinkPad*
%ADD42C,0.600000*%
G04 #@! TD*
G04 #@! TA.AperFunction,SMDPad,CuDef*
%ADD43R,3.800000X3.800000*%
G04 #@! TD*
G04 #@! TA.AperFunction,SMDPad,CuDef*
%ADD44R,0.740000X1.700000*%
G04 #@! TD*
G04 #@! TA.AperFunction,ViaPad*
%ADD45C,0.600000*%
G04 #@! TD*
G04 #@! TA.AperFunction,Conductor*
%ADD46C,0.200000*%
G04 #@! TD*
G04 #@! TA.AperFunction,Conductor*
%ADD47C,0.635000*%
G04 #@! TD*
G04 #@! TA.AperFunction,Conductor*
%ADD48C,0.500000*%
G04 #@! TD*
G04 #@! TA.AperFunction,Conductor*
%ADD49C,1.000000*%
G04 #@! TD*
G04 #@! TA.AperFunction,Conductor*
%ADD50C,0.800000*%
G04 #@! TD*
G04 #@! TA.AperFunction,Conductor*
%ADD51C,0.150000*%
G04 #@! TD*
G04 #@! TA.AperFunction,Conductor*
%ADD52C,0.950000*%
G04 #@! TD*
G04 APERTURE END LIST*
D10*
X130429000Y-101473000D03*
X130429000Y-104013000D03*
X130429000Y-106553000D03*
D11*
X130429000Y-109093000D03*
D12*
X91363800Y-96837900D03*
X91363800Y-93712900D03*
D13*
X100603500Y-117136300D03*
X102428500Y-117136300D03*
D14*
X93137900Y-113411000D03*
X91062900Y-113411000D03*
D15*
X107000000Y-99550000D03*
X107000000Y-98450000D03*
D16*
X130921000Y-97409000D03*
X128921000Y-97409000D03*
X130921000Y-95123000D03*
X128921000Y-95123000D03*
D17*
X115220555Y-122968067D03*
X118820555Y-122968067D03*
D18*
X104513858Y-99579651D03*
X105648858Y-99579651D03*
X104525723Y-98553406D03*
X105660723Y-98553406D03*
D19*
X82677000Y-98577400D03*
X89230200Y-98577400D03*
D20*
X86281600Y-112790700D03*
X84556600Y-112790700D03*
D21*
X93853000Y-90537900D03*
X93853000Y-93662900D03*
D22*
X104551000Y-105359200D03*
X103251000Y-105359200D03*
X103901000Y-107359200D03*
D12*
X88722200Y-107988500D03*
X88722200Y-104863500D03*
D23*
X125505650Y-123570500D03*
X125505650Y-122425500D03*
D13*
X103499100Y-113847000D03*
X105324100Y-113847000D03*
D24*
X84471000Y-106324400D03*
X86471000Y-106324400D03*
D23*
X121525650Y-123570500D03*
X121525650Y-122425500D03*
X127495650Y-123570500D03*
X127495650Y-122425500D03*
D25*
X91062900Y-115747800D03*
X93137900Y-115747800D03*
D13*
X100603500Y-118774600D03*
X102428500Y-118774600D03*
D24*
X110642400Y-113690400D03*
X112642400Y-113690400D03*
D20*
X86281600Y-115910900D03*
X84556600Y-115910900D03*
D26*
X105462500Y-96700000D03*
X102337500Y-96700000D03*
D16*
X102462600Y-109137200D03*
X100462600Y-109137200D03*
D13*
X100603500Y-115498000D03*
X102428500Y-115498000D03*
D27*
X99913800Y-123850400D03*
D28*
X103413800Y-123850400D03*
X106913800Y-123850400D03*
X110413800Y-123850400D03*
D29*
X125087200Y-118368200D03*
D30*
X106629200Y-107229400D03*
X106629200Y-109229400D03*
D31*
X106553000Y-89462700D03*
X106553000Y-91537700D03*
D24*
X117592600Y-109601000D03*
X119592600Y-109601000D03*
D32*
X94803749Y-122000452D03*
X94803749Y-127000452D03*
D33*
X107527600Y-113664400D03*
X107527600Y-116764400D03*
D34*
X114956700Y-119329200D03*
X118081700Y-119329200D03*
D35*
X119877200Y-117285700D03*
X119877200Y-116015700D03*
X119877200Y-114745700D03*
X119877200Y-113475700D03*
X114927200Y-113475700D03*
X114927200Y-114745700D03*
X114927200Y-116015700D03*
X114927200Y-117285700D03*
D36*
X86334600Y-110245400D03*
X86334600Y-108245400D03*
D24*
X104700000Y-94600000D03*
X106700000Y-94600000D03*
X110642400Y-116890800D03*
X112642400Y-116890800D03*
D23*
X123515650Y-123570500D03*
X123515650Y-122425500D03*
D37*
X91074200Y-110192906D03*
X92024200Y-110192906D03*
X92974200Y-110192906D03*
X92974200Y-107682906D03*
X92024200Y-107682906D03*
X91074200Y-107682906D03*
D21*
X104190800Y-89521900D03*
X104190800Y-92646900D03*
D20*
X86281600Y-114350800D03*
X84556600Y-114350800D03*
D38*
X84162900Y-121412000D03*
X89877900Y-121412000D03*
D22*
X103251000Y-103126800D03*
X104551000Y-103126800D03*
X103901000Y-101126800D03*
D39*
X108781800Y-89405400D03*
X108781800Y-90675400D03*
X108781800Y-91945400D03*
X108781800Y-93215400D03*
X108781800Y-94485400D03*
X108781800Y-95755400D03*
X108781800Y-97025400D03*
X108781800Y-98295400D03*
X108781800Y-99565400D03*
X108781800Y-100835400D03*
X108781800Y-102105400D03*
X108781800Y-103375400D03*
X108781800Y-104645400D03*
X108781800Y-105915400D03*
D40*
X111821800Y-107165400D03*
X113091800Y-107165400D03*
X114361800Y-107165400D03*
X115631800Y-107165400D03*
X116901800Y-107165400D03*
X118171800Y-107165400D03*
X119441800Y-107165400D03*
X120711800Y-107165400D03*
X121981800Y-107165400D03*
X123251800Y-107165400D03*
D39*
X126281800Y-105915400D03*
X126281800Y-104645400D03*
X126281800Y-103375400D03*
X126281800Y-102105400D03*
X126281800Y-100835400D03*
X126281800Y-99565400D03*
X126281800Y-98295400D03*
X126281800Y-97025400D03*
X126281800Y-95755400D03*
X126281800Y-94485400D03*
X126281800Y-93215400D03*
X126281800Y-91945400D03*
X126281800Y-90675400D03*
X126281800Y-89405400D03*
D41*
X114631800Y-95725400D03*
D42*
X114631800Y-96425400D03*
D41*
X114631800Y-97125400D03*
D42*
X114631800Y-97825400D03*
D41*
X114631800Y-98525400D03*
D42*
X115331800Y-95725400D03*
X115331800Y-97125400D03*
X115331800Y-98525400D03*
X116006800Y-96425400D03*
X116006800Y-97825400D03*
D41*
X116031800Y-95725400D03*
X116031800Y-97125400D03*
D43*
X116031800Y-97125400D03*
D41*
X116031800Y-98525400D03*
D42*
X116731800Y-95725400D03*
X116731800Y-97125400D03*
X116731800Y-98525400D03*
D41*
X117431800Y-95725400D03*
D42*
X117431800Y-96425400D03*
D41*
X117431800Y-97125400D03*
D42*
X117431800Y-97825400D03*
D41*
X117431800Y-98525400D03*
D44*
X93091000Y-99263200D03*
X94361000Y-101963200D03*
X95631000Y-99263200D03*
X96901000Y-101963200D03*
X98171000Y-99263200D03*
X99441000Y-101963200D03*
D19*
X82677000Y-91948000D03*
X89230200Y-91948000D03*
D29*
X124079000Y-113588800D03*
D45*
X87376000Y-114350800D03*
X122508450Y-123575200D03*
X96200749Y-126202252D03*
X114579400Y-112674400D03*
X96226149Y-127573852D03*
X92202000Y-98531497D03*
X87376000Y-115910900D03*
X109407200Y-117297200D03*
X83286600Y-92024200D03*
X110032800Y-88950800D03*
X110845600Y-107721400D03*
X120198233Y-121776169D03*
X93406749Y-127573852D03*
X117975200Y-117072800D03*
X107117813Y-97581376D03*
X115697000Y-112699800D03*
X93406749Y-126151452D03*
X90119200Y-115747800D03*
X124489650Y-123575200D03*
X103651698Y-99472011D03*
X116756000Y-113491400D03*
X93853000Y-94767400D03*
X107659185Y-89405400D03*
X125018800Y-89027000D03*
X118044861Y-124274466D03*
X101015800Y-96621600D03*
X88823800Y-112877600D03*
X116281200Y-108737400D03*
X118081700Y-121577936D03*
X126470850Y-123575200D03*
X102997000Y-89484200D03*
X104190800Y-90474800D03*
X127889000Y-89052400D03*
X87452200Y-110236000D03*
X118081700Y-120773109D03*
X89997000Y-110185200D03*
X110845600Y-106705400D03*
X90195400Y-114579400D03*
X127889000Y-90000000D03*
X110032800Y-89800000D03*
X83413600Y-98577400D03*
X93715448Y-124857272D03*
X90119200Y-113411000D03*
X87553800Y-111607600D03*
X119745702Y-124322042D03*
X103651698Y-98499155D03*
X107300000Y-100500000D03*
X95925248Y-124831872D03*
X88849200Y-116179600D03*
X91998800Y-99491800D03*
X105486224Y-89462700D03*
X125018800Y-89839800D03*
X87376000Y-112790700D03*
X91363800Y-94742000D03*
X104100000Y-96800000D03*
X102616000Y-106883200D03*
X104648000Y-101092000D03*
X124968000Y-105918000D03*
X105422359Y-92041480D03*
X114326007Y-124516311D03*
X102800000Y-92300000D03*
X100304600Y-101600000D03*
X104411600Y-112983400D03*
X112623947Y-112537800D03*
X116100000Y-119400000D03*
X104200000Y-93600000D03*
X114956700Y-121120678D03*
X82804000Y-114088333D03*
X116332127Y-124293730D03*
X82804000Y-115798600D03*
X82753200Y-112378067D03*
X82753200Y-110667800D03*
X130937000Y-93853000D03*
X100304600Y-102463600D03*
X116205000Y-117285700D03*
X121619450Y-124718200D03*
X106070400Y-113030000D03*
X125247400Y-93243400D03*
X96494600Y-99009200D03*
X95340418Y-100883509D03*
X125272800Y-94462600D03*
X94259400Y-109956600D03*
X92049600Y-106426000D03*
X92125800Y-117850920D03*
X92125800Y-118714520D03*
X92049600Y-111490997D03*
X88620600Y-109143800D03*
X88773000Y-109931200D03*
X91363800Y-111963200D03*
X103469900Y-118774600D03*
X122923650Y-121695600D03*
X103469900Y-117136300D03*
X124913650Y-121695600D03*
X126903650Y-121695600D03*
X103505000Y-115519200D03*
X101498400Y-118186200D03*
X112100000Y-102000000D03*
X100634800Y-114477800D03*
X110015819Y-104069992D03*
X111000000Y-103000000D03*
X101482600Y-116306600D03*
D46*
X125732600Y-105915400D02*
X126281800Y-105915400D01*
X125730000Y-105918000D02*
X125732600Y-105915400D01*
X124968000Y-105918000D02*
X125730000Y-105918000D01*
X125751800Y-102105400D02*
X126281800Y-102105400D01*
X124206000Y-103651200D02*
X125751800Y-102105400D01*
X119877200Y-113475700D02*
X119924900Y-113475700D01*
X119924900Y-113475700D02*
X124206000Y-109194600D01*
X124206000Y-109194600D02*
X124206000Y-103651200D01*
X131822000Y-93341000D02*
X130426400Y-91945400D01*
X130426400Y-91945400D02*
X126281800Y-91945400D01*
X131822000Y-105160000D02*
X131822000Y-93341000D01*
X130429000Y-106553000D02*
X131822000Y-105160000D01*
X130429000Y-104013000D02*
X128921000Y-102505000D01*
X128921000Y-102505000D02*
X128921000Y-97663000D01*
D47*
X88722200Y-104863500D02*
X88950800Y-104863500D01*
X88950800Y-104863500D02*
X91074200Y-106986900D01*
X91074200Y-106986900D02*
X91074200Y-107682906D01*
X106553000Y-89712800D02*
X106553000Y-89462700D01*
D48*
X118081700Y-119329200D02*
X118081700Y-120773109D01*
D47*
X108781800Y-89405400D02*
X106610300Y-89405400D01*
D46*
X83210400Y-91948000D02*
X83286600Y-92024200D01*
X116281200Y-108737400D02*
X116729000Y-108737400D01*
D47*
X119745702Y-123893214D02*
X118820555Y-122968067D01*
X111821800Y-107165400D02*
X111305600Y-107165400D01*
D49*
X86281600Y-115910900D02*
X87376000Y-115910900D01*
D50*
X126281800Y-89405400D02*
X125453200Y-89405400D01*
D46*
X127495650Y-123570500D02*
X126475550Y-123570500D01*
D47*
X106553000Y-89462700D02*
X104250000Y-89462700D01*
X116756000Y-113491400D02*
X114942900Y-113491400D01*
D46*
X91363800Y-93712900D02*
X91363800Y-94742000D01*
D51*
X106400000Y-100200000D02*
X106700000Y-100500000D01*
X107117813Y-97581376D02*
X107117813Y-97617813D01*
D50*
X127536000Y-89405400D02*
X127889000Y-89052400D01*
D47*
X91037500Y-113411000D02*
X91037500Y-114579400D01*
X90004706Y-110192906D02*
X89997000Y-110185200D01*
X104190800Y-90474800D02*
X104190800Y-89521900D01*
X116777400Y-113491400D02*
X117947800Y-114661800D01*
X115697000Y-112705900D02*
X114927200Y-113475700D01*
D46*
X93853000Y-94767400D02*
X93853000Y-93662900D01*
D47*
X114942900Y-113491400D02*
X114927200Y-113475700D01*
D46*
X123515650Y-123570500D02*
X124484950Y-123570500D01*
D47*
X90119200Y-113411000D02*
X91037500Y-113411000D01*
D46*
X101803200Y-96621600D02*
X102082600Y-96901000D01*
D47*
X108781800Y-89405400D02*
X109578200Y-89405400D01*
D50*
X126281800Y-89405400D02*
X125397200Y-89405400D01*
D46*
X82677000Y-91948000D02*
X83210400Y-91948000D01*
X103679687Y-99500000D02*
X103651698Y-99472011D01*
D48*
X118081700Y-119329200D02*
X117975200Y-119222700D01*
D47*
X111821800Y-107165400D02*
X111401600Y-107165400D01*
D49*
X86281600Y-112790700D02*
X87376000Y-112790700D01*
D47*
X118044861Y-124274466D02*
X118044861Y-123743761D01*
X91074200Y-110192906D02*
X90004706Y-110192906D01*
D46*
X121525650Y-123570500D02*
X122503750Y-123570500D01*
D47*
X117947800Y-114661800D02*
X117975200Y-114689200D01*
X111305600Y-107165400D02*
X110845600Y-106705400D01*
D46*
X83413600Y-98577400D02*
X82677000Y-98577400D01*
D47*
X120198233Y-121776169D02*
X120012453Y-121776169D01*
D46*
X110642400Y-116890800D02*
X109813600Y-116890800D01*
D49*
X86281600Y-115910900D02*
X86281600Y-112790700D01*
D51*
X103600000Y-97900000D02*
X103600000Y-98447457D01*
D46*
X124494350Y-123570500D02*
X124489650Y-123575200D01*
D47*
X91998800Y-99491800D02*
X92227400Y-99263200D01*
D50*
X125453200Y-89405400D02*
X125018800Y-89839800D01*
D46*
X104532500Y-99500000D02*
X103679687Y-99500000D01*
D48*
X118081700Y-122229212D02*
X118820555Y-122968067D01*
D50*
X125397200Y-89405400D02*
X125018800Y-89027000D01*
D47*
X91037500Y-114579400D02*
X91037500Y-115722400D01*
D51*
X103600000Y-98447457D02*
X103651698Y-98499155D01*
D46*
X126475550Y-123570500D02*
X126470850Y-123575200D01*
D47*
X90195400Y-114579400D02*
X91037500Y-114579400D01*
D51*
X103600000Y-99523709D02*
X103600000Y-100200000D01*
D47*
X92227400Y-99263200D02*
X93091000Y-99263200D01*
X104250000Y-89462700D02*
X104190800Y-89521900D01*
X109638200Y-89405400D02*
X110032800Y-89800000D01*
X114579400Y-113127900D02*
X114927200Y-113475700D01*
D46*
X125505650Y-123570500D02*
X126466150Y-123570500D01*
X126466150Y-123570500D02*
X126470850Y-123575200D01*
D47*
X93091000Y-99263200D02*
X92933703Y-99263200D01*
D51*
X103600000Y-100200000D02*
X106400000Y-100200000D01*
D47*
X103034700Y-89521900D02*
X102997000Y-89484200D01*
X117975200Y-117072800D02*
X117975200Y-114689200D01*
D46*
X122503750Y-123570500D02*
X122508450Y-123575200D01*
D47*
X117975200Y-119222700D02*
X117975200Y-117072800D01*
X91037500Y-115722400D02*
X91062900Y-115747800D01*
X114579400Y-112674400D02*
X114579400Y-113127900D01*
D51*
X103651698Y-99472011D02*
X103600000Y-99523709D01*
D47*
X109578200Y-89405400D02*
X110032800Y-88950800D01*
D46*
X101015800Y-96621600D02*
X101803200Y-96621600D01*
D47*
X120012453Y-121776169D02*
X118820555Y-122968067D01*
D46*
X127451750Y-123487700D02*
X127524250Y-123415200D01*
D51*
X106700000Y-100500000D02*
X107300000Y-100500000D01*
D46*
X104532500Y-98500000D02*
X103652543Y-98500000D01*
D47*
X118044861Y-123743761D02*
X118820555Y-122968067D01*
X111401600Y-107165400D02*
X110845600Y-107721400D01*
X116777400Y-113491400D02*
X116756000Y-113491400D01*
D46*
X109813600Y-116890800D02*
X109407200Y-117297200D01*
D47*
X108781800Y-89405400D02*
X109638200Y-89405400D01*
X119745702Y-124322042D02*
X119745702Y-123893214D01*
X92933703Y-99263200D02*
X92202000Y-98531497D01*
D46*
X125505650Y-123570500D02*
X124494350Y-123570500D01*
X102082600Y-96901000D02*
X102298100Y-96901000D01*
D51*
X103651698Y-99472011D02*
X103651698Y-98499155D01*
D50*
X127294400Y-89405400D02*
X127889000Y-90000000D01*
X126281800Y-89405400D02*
X127536000Y-89405400D01*
D47*
X106610300Y-89405400D02*
X106553000Y-89462700D01*
X90119200Y-115747800D02*
X91062900Y-115747800D01*
X104190800Y-89521900D02*
X103034700Y-89521900D01*
D51*
X106400000Y-97900000D02*
X103600000Y-97900000D01*
X106718624Y-97581376D02*
X106400000Y-97900000D01*
D49*
X86281600Y-114350800D02*
X87376000Y-114350800D01*
D46*
X123515650Y-123570500D02*
X122513150Y-123570500D01*
D48*
X118081700Y-120773109D02*
X118081700Y-122229212D01*
D46*
X103652543Y-98500000D02*
X103651698Y-98499155D01*
D47*
X114927200Y-113475700D02*
X115274300Y-113475700D01*
D46*
X124484950Y-123570500D02*
X124489650Y-123575200D01*
D51*
X107117813Y-97581376D02*
X106718624Y-97581376D01*
D50*
X126281800Y-89405400D02*
X127294400Y-89405400D01*
D47*
X115697000Y-112699800D02*
X115697000Y-112705900D01*
D46*
X122513150Y-123570500D02*
X122508450Y-123575200D01*
X116729000Y-108737400D02*
X117592600Y-109601000D01*
X93853000Y-90537900D02*
X93848032Y-90542868D01*
X93853000Y-90537900D02*
X93929200Y-90537900D01*
X104100000Y-96800000D02*
X104350000Y-96550000D01*
X105423100Y-96901000D02*
X104901000Y-96901000D01*
X104350000Y-96550000D02*
X105072100Y-96550000D01*
X102616000Y-106883200D02*
X103092000Y-107359200D01*
X108251800Y-91945400D02*
X108781800Y-91945400D01*
X93848032Y-90542868D02*
X90635332Y-90542868D01*
X103092000Y-107359200D02*
X103901000Y-107359200D01*
X106689400Y-93507800D02*
X108251800Y-91945400D01*
X90635332Y-90542868D02*
X89230200Y-91948000D01*
X106689400Y-94640400D02*
X106689400Y-93507800D01*
X106689400Y-94640400D02*
X106689400Y-95634700D01*
X105072100Y-96550000D02*
X105423100Y-96901000D01*
X103300000Y-95300000D02*
X98691300Y-95300000D01*
X104901000Y-96901000D02*
X103300000Y-95300000D01*
X106689400Y-95634700D02*
X105423100Y-96901000D01*
X93929200Y-90537900D02*
X98691300Y-95300000D01*
X104648000Y-101092000D02*
X103935800Y-101092000D01*
X103926400Y-101101400D02*
X103901000Y-101126800D01*
X103935800Y-101092000D02*
X103901000Y-101126800D01*
X98937900Y-96837900D02*
X103226800Y-101126800D01*
X103226800Y-101126800D02*
X103901000Y-101126800D01*
X91363800Y-96901000D02*
X91363800Y-96837900D01*
X89230200Y-98577400D02*
X89687400Y-98577400D01*
X91363800Y-96837900D02*
X98937900Y-96837900D01*
X89611200Y-98577400D02*
X89230200Y-98577400D01*
X89687400Y-98577400D02*
X91363800Y-96901000D01*
D47*
X130921000Y-97409000D02*
X130921000Y-95123000D01*
D46*
X84886800Y-112460500D02*
X84556600Y-112790700D01*
D47*
X116100000Y-119400000D02*
X115027500Y-119400000D01*
X114956700Y-119329200D02*
X114956700Y-117315200D01*
D46*
X104411600Y-112983400D02*
X104362700Y-112983400D01*
D47*
X99941400Y-101963200D02*
X100304600Y-101600000D01*
X115220555Y-123621763D02*
X114326007Y-124516311D01*
X115027500Y-119400000D02*
X114956700Y-119329200D01*
X104190800Y-92646900D02*
X104190800Y-94141800D01*
X115220555Y-122968067D02*
X115220555Y-123621763D01*
X105422359Y-92041480D02*
X104816939Y-92646900D01*
X115220555Y-122968067D02*
X115220555Y-123182158D01*
D46*
X104362700Y-112983400D02*
X103499100Y-113847000D01*
D47*
X130921000Y-93869000D02*
X130937000Y-93853000D01*
X103212500Y-92646900D02*
X104190800Y-92646900D01*
X115220555Y-123182158D02*
X116332127Y-124293730D01*
X99804200Y-101963200D02*
X100304600Y-102463600D01*
X104190800Y-94141800D02*
X104689400Y-94640400D01*
X99441000Y-101963200D02*
X99941400Y-101963200D01*
X104816939Y-92646900D02*
X104190800Y-92646900D01*
X130921000Y-95123000D02*
X130921000Y-93869000D01*
D46*
X130937000Y-95218000D02*
X130921000Y-95234000D01*
D47*
X102865600Y-92300000D02*
X103212500Y-92646900D01*
X114956700Y-119329200D02*
X114956700Y-122704212D01*
D46*
X84852000Y-106349800D02*
X84886800Y-106384600D01*
D47*
X105422359Y-92041480D02*
X106049220Y-92041480D01*
X84556600Y-115910900D02*
X84556600Y-121018300D01*
D46*
X130937000Y-97033361D02*
X130920668Y-97049693D01*
D47*
X102800000Y-92300000D02*
X102865600Y-92300000D01*
D46*
X112623947Y-112537800D02*
X112623947Y-113272947D01*
X112642400Y-113291400D02*
X112642400Y-113690400D01*
D47*
X106049220Y-92041480D02*
X106553000Y-91537700D01*
D46*
X84886800Y-106384600D02*
X84886800Y-112460500D01*
D47*
X106553000Y-91537700D02*
X107415300Y-90675400D01*
X84556600Y-112790700D02*
X84556600Y-115910900D01*
X114956700Y-122704212D02*
X115220555Y-122968067D01*
D46*
X112623947Y-113272947D02*
X112642400Y-113291400D01*
D47*
X107415300Y-90675400D02*
X108781800Y-90675400D01*
X114927200Y-117285700D02*
X116205000Y-117285700D01*
X99441000Y-101963200D02*
X99804200Y-101963200D01*
X84556600Y-121018300D02*
X84162900Y-121412000D01*
D46*
X120603450Y-123702200D02*
X120603450Y-122940200D01*
X106070400Y-113100700D02*
X105324100Y-113847000D01*
X121118150Y-122425500D02*
X121525650Y-122425500D01*
X120603450Y-122940200D02*
X121118150Y-122425500D01*
X121619450Y-124718200D02*
X120603450Y-123702200D01*
X106070400Y-113030000D02*
X106070400Y-113100700D01*
X96367600Y-99009200D02*
X96113600Y-99263200D01*
X125275400Y-93215400D02*
X125247400Y-93243400D01*
X126281800Y-93215400D02*
X125275400Y-93215400D01*
X96494600Y-99009200D02*
X96367600Y-99009200D01*
X96113600Y-99263200D02*
X95631000Y-99263200D01*
X95340418Y-100883509D02*
X95340418Y-100983782D01*
X126259000Y-94462600D02*
X126281800Y-94485400D01*
X95340418Y-100983782D02*
X94361000Y-101963200D01*
X125272800Y-94462600D02*
X126259000Y-94462600D01*
D49*
X98371600Y-121694600D02*
X97245200Y-121694600D01*
D46*
X92049600Y-106426000D02*
X92024200Y-106451400D01*
D49*
X96939348Y-122000452D02*
X94803749Y-122000452D01*
X98371600Y-118285200D02*
X96347700Y-116261300D01*
X93112500Y-113411000D02*
X93112500Y-115722400D01*
D52*
X96347700Y-116261300D02*
X93112500Y-113026100D01*
D47*
X92974200Y-112887800D02*
X93112500Y-113026100D01*
D46*
X92024200Y-106451400D02*
X92024200Y-107682906D01*
D49*
X98371600Y-121694600D02*
X98371600Y-118285200D01*
D47*
X92974200Y-110192906D02*
X92974200Y-112887800D01*
D49*
X97245200Y-121694600D02*
X96939348Y-122000452D01*
X100584000Y-123907000D02*
X98371600Y-121694600D01*
D46*
X126281800Y-91945400D02*
X128013400Y-91945400D01*
X128013400Y-91945400D02*
X128921000Y-92853000D01*
X128921000Y-92853000D02*
X128921000Y-95885000D01*
X126939000Y-95595400D02*
X126031800Y-95595400D01*
X127267400Y-95755400D02*
X128921000Y-97409000D01*
X126281800Y-95755400D02*
X127267400Y-95755400D01*
D47*
X88722200Y-109880400D02*
X88773000Y-109931200D01*
X88722200Y-107988500D02*
X88722200Y-109042200D01*
D50*
X89877900Y-121412000D02*
X92125800Y-119164100D01*
D47*
X91841920Y-111963200D02*
X92049600Y-111755520D01*
X92024200Y-111465597D02*
X92049600Y-111490997D01*
X92049600Y-111755520D02*
X92049600Y-111490997D01*
D46*
X92024200Y-110192906D02*
X92024200Y-110546012D01*
D47*
X92024200Y-110192906D02*
X92024200Y-111465597D01*
D50*
X92125800Y-119164100D02*
X92125800Y-117850920D01*
D47*
X88722200Y-109042200D02*
X88620600Y-109143800D01*
X91363800Y-111963200D02*
X91841920Y-111963200D01*
X88722200Y-107988500D02*
X88722200Y-109880400D01*
D46*
X86852000Y-107728000D02*
X86852000Y-104708656D01*
X86334600Y-108245400D02*
X86852000Y-107728000D01*
X88066056Y-103494600D02*
X90794600Y-103494600D01*
X90794600Y-103494600D02*
X92974200Y-105674200D01*
X86852000Y-104708656D02*
X88066056Y-103494600D01*
X92974200Y-105674200D02*
X92974200Y-107682906D01*
X113789099Y-116015700D02*
X114927200Y-116015700D01*
X106059001Y-122382001D02*
X107584000Y-123907000D01*
X113394799Y-115621400D02*
X113789099Y-116015700D01*
X107527600Y-116764400D02*
X107527600Y-115621400D01*
X106059001Y-118814132D02*
X106059001Y-122382001D01*
X112642400Y-115622600D02*
X112641200Y-115621400D01*
X104755400Y-117510531D02*
X106059001Y-118814132D01*
X104755400Y-117510531D02*
X104755400Y-116730000D01*
X107527600Y-115621400D02*
X107527000Y-115620800D01*
X112641200Y-115621400D02*
X113394799Y-115621400D01*
X112642400Y-116890800D02*
X112642400Y-115622600D01*
X105864000Y-115621400D02*
X112641200Y-115621400D01*
X104755400Y-116730000D02*
X105864000Y-115621400D01*
X119877200Y-114745700D02*
X118902201Y-114745700D01*
X121981800Y-107695400D02*
X120076200Y-109601000D01*
X119877200Y-115091252D02*
X119877200Y-116015700D01*
X121976800Y-107535400D02*
X121976800Y-106755400D01*
X121976800Y-107651200D02*
X121976800Y-106755400D01*
X118902201Y-114745700D02*
X118602200Y-114445699D01*
X118602200Y-110591400D02*
X119592600Y-109601000D01*
X121981800Y-107165400D02*
X121981800Y-107695400D01*
X120076200Y-109601000D02*
X119592600Y-109601000D01*
X118602200Y-114445699D02*
X118602200Y-110591400D01*
X123515650Y-122287600D02*
X122923650Y-121695600D01*
X102428500Y-118774600D02*
X103469900Y-118774600D01*
X123515650Y-122425500D02*
X123515650Y-122287600D01*
X102428500Y-117136300D02*
X103469900Y-117136300D01*
X102517400Y-117136300D02*
X102530100Y-117123600D01*
X125505650Y-122287600D02*
X124913650Y-121695600D01*
X125505650Y-122425500D02*
X125505650Y-122287600D01*
X102428500Y-117136300D02*
X102517400Y-117136300D01*
X127495650Y-122287600D02*
X126903650Y-121695600D01*
X102428500Y-115498000D02*
X103483800Y-115498000D01*
X103483800Y-115498000D02*
X103505000Y-115519200D01*
X127495650Y-122425500D02*
X127495650Y-122287600D01*
X104305400Y-116543600D02*
X105677600Y-115171400D01*
X105677600Y-115171400D02*
X113394799Y-115171400D01*
X113394799Y-115171400D02*
X113820499Y-114745700D01*
X110642400Y-113690400D02*
X110642400Y-115171400D01*
X105608999Y-119000530D02*
X105608999Y-122382001D01*
X107527600Y-113664400D02*
X107527600Y-115171400D01*
X113820499Y-114745700D02*
X114927200Y-114745700D01*
X104305400Y-117696931D02*
X104305400Y-116543600D01*
X105608999Y-122382001D02*
X104084000Y-123907000D01*
X104305400Y-117696931D02*
X105608999Y-119000530D01*
X124079000Y-113588800D02*
X119990300Y-113588800D01*
X119990300Y-113588800D02*
X119877200Y-113475700D01*
X121871400Y-116700000D02*
X125320700Y-116700000D01*
X125087200Y-118368200D02*
X122368200Y-118368200D01*
X126811800Y-103215400D02*
X126031800Y-103215400D01*
X122368200Y-118368200D02*
X121285700Y-117285700D01*
X121285700Y-117285700D02*
X119877200Y-117285700D01*
X125320700Y-116700000D02*
X127812800Y-114207900D01*
X127812800Y-114207900D02*
X127812800Y-104216400D01*
X127812800Y-104216400D02*
X126811800Y-103215400D01*
X121285700Y-117285700D02*
X121871400Y-116700000D01*
X101138020Y-118240080D02*
X100603500Y-118774600D01*
X101444520Y-118240080D02*
X101138020Y-118240080D01*
X111906000Y-102000000D02*
X110998000Y-101092000D01*
X101498400Y-118186200D02*
X101444520Y-118240080D01*
X108871800Y-100835400D02*
X109031800Y-100675400D01*
X108781800Y-100925400D02*
X108781800Y-100835400D01*
X109038400Y-101092000D02*
X108781800Y-100835400D01*
X110998000Y-101092000D02*
X109038400Y-101092000D01*
X112100000Y-102000000D02*
X111906000Y-102000000D01*
X108531400Y-101175800D02*
X108781800Y-100925400D01*
X108781800Y-100835400D02*
X108871800Y-100835400D01*
X100634800Y-115466700D02*
X100603500Y-115498000D01*
X100576200Y-115468800D02*
X100605400Y-115498000D01*
X110015819Y-104069992D02*
X109321227Y-103375400D01*
X100634800Y-114477800D02*
X100634800Y-115466700D01*
X109321227Y-103375400D02*
X108781800Y-103375400D01*
X106950000Y-99500000D02*
X107000000Y-99550000D01*
X108766400Y-99550000D02*
X108781800Y-99565400D01*
X107000000Y-99550000D02*
X108766400Y-99550000D01*
X105667500Y-99500000D02*
X106950000Y-99500000D01*
X108597200Y-99750000D02*
X108781800Y-99565400D01*
X109031800Y-101945400D02*
X108871800Y-102105400D01*
X101482600Y-116306600D02*
X101433200Y-116306600D01*
X108871800Y-102105400D02*
X108781800Y-102105400D01*
X110092200Y-102105400D02*
X108781800Y-102105400D01*
X111000000Y-103000000D02*
X110986800Y-103000000D01*
X108781800Y-102105400D02*
X108781800Y-102195400D01*
X108781800Y-102195400D02*
X108625400Y-102351800D01*
X101433200Y-116306600D02*
X100603500Y-117136300D01*
X110986800Y-103000000D02*
X110092200Y-102105400D01*
X108427200Y-98650000D02*
X108781800Y-98295400D01*
X105667500Y-98500000D02*
X106950000Y-98500000D01*
X108627200Y-98450000D02*
X108781800Y-98295400D01*
X107000000Y-98450000D02*
X108627200Y-98450000D01*
X106950000Y-98500000D02*
X107000000Y-98450000D01*
X106629200Y-107229400D02*
X106629200Y-107492800D01*
X106629200Y-105205000D02*
X104551000Y-103126800D01*
X104671400Y-103006400D02*
X104519000Y-103158800D01*
X101806050Y-100500000D02*
X104432850Y-103126800D01*
X98364200Y-100500000D02*
X101806050Y-100500000D01*
X104432850Y-103126800D02*
X104551000Y-103126800D01*
X96901000Y-101963200D02*
X98364200Y-100500000D01*
X106629200Y-107229400D02*
X106629200Y-105205000D01*
X95900000Y-101100000D02*
X95900000Y-103300000D01*
X101186000Y-110413800D02*
X102462600Y-109137200D01*
X95900000Y-103300000D02*
X95600000Y-103600000D01*
X103251000Y-105359200D02*
X102387400Y-105359200D01*
X97736800Y-99263200D02*
X95900000Y-101100000D01*
X99877440Y-110138200D02*
X100338200Y-110138200D01*
X95600000Y-103600000D02*
X95600000Y-105860760D01*
X95600000Y-105860760D02*
X99877440Y-110138200D01*
X100613800Y-110413800D02*
X101186000Y-110413800D01*
X98171000Y-99263200D02*
X97736800Y-99263200D01*
X102387400Y-105359200D02*
X101676200Y-106070400D01*
X100338200Y-110138200D02*
X100613800Y-110413800D01*
X101676200Y-108350800D02*
X102462600Y-109137200D01*
X101676200Y-106070400D02*
X101676200Y-108350800D01*
X100700000Y-108899800D02*
X100700000Y-105700000D01*
X100462600Y-109137200D02*
X100700000Y-108899800D01*
X100700000Y-105700000D02*
X103251000Y-103149000D01*
X103251000Y-103149000D02*
X103251000Y-103126800D01*
X104551000Y-105359200D02*
X104551000Y-107151200D01*
X104551000Y-107151200D02*
X106629200Y-109229400D01*
G04 #@! TA.AperFunction,Conductor*
G36*
X93903044Y-109911573D02*
G01*
X93958978Y-109953443D01*
X93976101Y-109984983D01*
X94056624Y-110204112D01*
X95320960Y-113644767D01*
X95320961Y-113644768D01*
X95320962Y-113644769D01*
X95630366Y-113935973D01*
X98837826Y-116954760D01*
X98873153Y-117015041D01*
X98876840Y-117045650D01*
X98869500Y-118579912D01*
X98882200Y-120675400D01*
X99644198Y-121208799D01*
X99644199Y-121208799D01*
X99644200Y-121208800D01*
X101374643Y-121208800D01*
X101441682Y-121228485D01*
X101487437Y-121281289D01*
X101498643Y-121332800D01*
X101498643Y-122188606D01*
X101478958Y-122255645D01*
X101426154Y-122301400D01*
X101356996Y-122311344D01*
X101309546Y-122294145D01*
X101182923Y-122216043D01*
X101182918Y-122216041D01*
X101016496Y-122160894D01*
X101016489Y-122160893D01*
X100913785Y-122150400D01*
X100163800Y-122150400D01*
X100163800Y-123301917D01*
X100145391Y-123291289D01*
X99992791Y-123250400D01*
X99834809Y-123250400D01*
X99682209Y-123291289D01*
X99663800Y-123301917D01*
X99663800Y-122150400D01*
X98913814Y-122150400D01*
X98811110Y-122160893D01*
X98811103Y-122160894D01*
X98644681Y-122216041D01*
X98644676Y-122216043D01*
X98495455Y-122308084D01*
X98371484Y-122432055D01*
X98279443Y-122581276D01*
X98279441Y-122581281D01*
X98224294Y-122747703D01*
X98224293Y-122747710D01*
X98213800Y-122850414D01*
X98213800Y-123600400D01*
X99365318Y-123600400D01*
X99354689Y-123618809D01*
X99313800Y-123771409D01*
X99313800Y-123929391D01*
X99354689Y-124081991D01*
X99365318Y-124100400D01*
X98213800Y-124100400D01*
X98213800Y-124850385D01*
X98224293Y-124953089D01*
X98224294Y-124953096D01*
X98279441Y-125119518D01*
X98279443Y-125119523D01*
X98371484Y-125268744D01*
X98495455Y-125392715D01*
X98644676Y-125484756D01*
X98644681Y-125484758D01*
X98811103Y-125539905D01*
X98811110Y-125539906D01*
X98913814Y-125550399D01*
X98913827Y-125550400D01*
X99663800Y-125550400D01*
X99663800Y-124398882D01*
X99682209Y-124409511D01*
X99834809Y-124450400D01*
X99992791Y-124450400D01*
X100145391Y-124409511D01*
X100163800Y-124398882D01*
X100163800Y-125550400D01*
X100913773Y-125550400D01*
X100913785Y-125550399D01*
X101016489Y-125539906D01*
X101016496Y-125539905D01*
X101182918Y-125484758D01*
X101182929Y-125484753D01*
X101309546Y-125406655D01*
X101376938Y-125388214D01*
X101443602Y-125409136D01*
X101488372Y-125462778D01*
X101498643Y-125512193D01*
X101498643Y-125809200D01*
X101478958Y-125876239D01*
X101426154Y-125921994D01*
X101374643Y-125933200D01*
X97855785Y-125933200D01*
X97788746Y-125913515D01*
X97742991Y-125860711D01*
X97731786Y-125809627D01*
X97730761Y-125512193D01*
X97729409Y-125119518D01*
X97725723Y-124049465D01*
X97724283Y-123631632D01*
X97724283Y-123631631D01*
X96329725Y-123653855D01*
X96262380Y-123635241D01*
X96215790Y-123583173D01*
X96203749Y-123529871D01*
X96203749Y-122250452D01*
X94927749Y-122250452D01*
X94860710Y-122230767D01*
X94814955Y-122177963D01*
X94803749Y-122126452D01*
X94803749Y-122000452D01*
X94677749Y-122000452D01*
X94610710Y-121980767D01*
X94564955Y-121927963D01*
X94553749Y-121876452D01*
X94553749Y-121750452D01*
X95053749Y-121750452D01*
X96203748Y-121750452D01*
X96203748Y-120450480D01*
X96203747Y-120450465D01*
X96193254Y-120347754D01*
X96138107Y-120181332D01*
X96138105Y-120181327D01*
X96046064Y-120032106D01*
X95922094Y-119908136D01*
X95772873Y-119816095D01*
X95772868Y-119816093D01*
X95606446Y-119760946D01*
X95606439Y-119760945D01*
X95503735Y-119750452D01*
X95053749Y-119750452D01*
X95053749Y-121750452D01*
X94553749Y-121750452D01*
X94553749Y-119953014D01*
X94637359Y-119946970D01*
X94625442Y-116526768D01*
X94335747Y-116526160D01*
X94268749Y-116506334D01*
X94223105Y-116453434D01*
X94213306Y-116384255D01*
X94214757Y-116376192D01*
X94214906Y-116375495D01*
X94225399Y-116272786D01*
X94225400Y-116272773D01*
X94225400Y-115997800D01*
X93261900Y-115997800D01*
X93194861Y-115978115D01*
X93149106Y-115925311D01*
X93137900Y-115873800D01*
X93137900Y-115747800D01*
X93011900Y-115747800D01*
X92944861Y-115728115D01*
X92899106Y-115675311D01*
X92887900Y-115623800D01*
X92887900Y-115497800D01*
X93387900Y-115497800D01*
X94225399Y-115497800D01*
X94225399Y-115222828D01*
X94225398Y-115222813D01*
X94214905Y-115120102D01*
X94159758Y-114953680D01*
X94159756Y-114953675D01*
X94067715Y-114804454D01*
X93943744Y-114680483D01*
X93938919Y-114676668D01*
X93898541Y-114619648D01*
X93895400Y-114549849D01*
X93930494Y-114489432D01*
X93938919Y-114482132D01*
X93943744Y-114478316D01*
X94067715Y-114354345D01*
X94159756Y-114205124D01*
X94159758Y-114205119D01*
X94214905Y-114038697D01*
X94214906Y-114038690D01*
X94225399Y-113935986D01*
X94225400Y-113935973D01*
X94225400Y-113661000D01*
X93387900Y-113661000D01*
X93387900Y-115497800D01*
X92887900Y-115497800D01*
X92887900Y-113161000D01*
X93387900Y-113161000D01*
X94225399Y-113161000D01*
X94225399Y-112886028D01*
X94225398Y-112886013D01*
X94214905Y-112783302D01*
X94159758Y-112616880D01*
X94159756Y-112616875D01*
X94067715Y-112467654D01*
X93943745Y-112343684D01*
X93794524Y-112251643D01*
X93794519Y-112251641D01*
X93628097Y-112196494D01*
X93628090Y-112196493D01*
X93525386Y-112186000D01*
X93387900Y-112186000D01*
X93387900Y-113161000D01*
X92887900Y-113161000D01*
X92887900Y-112186000D01*
X92853704Y-112151805D01*
X92820219Y-112090482D01*
X92821208Y-112076659D01*
X92825203Y-112020789D01*
X92825203Y-112020787D01*
X92826811Y-112016702D01*
X92836165Y-111994122D01*
X92867600Y-111836086D01*
X92867600Y-111410431D01*
X92849196Y-111317906D01*
X93224200Y-111317906D01*
X93233049Y-111317906D01*
X93233063Y-111317905D01*
X93345228Y-111303137D01*
X93345232Y-111303136D01*
X93484798Y-111245327D01*
X93604652Y-111153358D01*
X93696621Y-111033504D01*
X93754430Y-110893938D01*
X93754431Y-110893934D01*
X93769199Y-110781769D01*
X93769200Y-110781755D01*
X93769200Y-110442906D01*
X93224200Y-110442906D01*
X93224200Y-111317906D01*
X92849196Y-111317906D01*
X92844583Y-111294715D01*
X92842200Y-111270524D01*
X92842200Y-110316906D01*
X92861885Y-110249867D01*
X92914689Y-110204112D01*
X92966200Y-110192906D01*
X92974200Y-110192906D01*
X92974200Y-110066906D01*
X92993885Y-109999867D01*
X93046689Y-109954112D01*
X93098200Y-109942906D01*
X93769199Y-109942906D01*
X93772030Y-109940075D01*
X93833352Y-109906589D01*
X93903044Y-109911573D01*
G37*
G04 #@! TD.AperFunction*
G04 #@! TA.AperFunction,Conductor*
G36*
X87698921Y-109599703D02*
G01*
X87765719Y-109620184D01*
X87810843Y-109673529D01*
X87820585Y-109709135D01*
X87999998Y-111226597D01*
X87999999Y-111226598D01*
X88000000Y-111226600D01*
X89305354Y-112518491D01*
X90746670Y-112551454D01*
X90813238Y-112572666D01*
X90831512Y-112587740D01*
X90842352Y-112598580D01*
X90976333Y-112688103D01*
X91050765Y-112718933D01*
X91125198Y-112749765D01*
X91283229Y-112781199D01*
X91283233Y-112781200D01*
X91283234Y-112781200D01*
X91542330Y-112781200D01*
X91609369Y-112800885D01*
X91655124Y-112853689D01*
X91666226Y-112910255D01*
X91521055Y-116467057D01*
X91498653Y-116533238D01*
X91444027Y-116576801D01*
X91397158Y-116586000D01*
X85773250Y-116586000D01*
X85706211Y-116566315D01*
X85660456Y-116513511D01*
X85649251Y-116461551D01*
X85651448Y-115855089D01*
X85673747Y-109700626D01*
X85693673Y-109633662D01*
X85746643Y-109588099D01*
X85799219Y-109577088D01*
X87698921Y-109599703D01*
G37*
G04 #@! TD.AperFunction*
G04 #@! TA.AperFunction,Conductor*
G36*
X83608762Y-109798485D02*
G01*
X83651597Y-109845323D01*
X84600000Y-111658400D01*
X84600000Y-115910900D01*
X84556600Y-115910900D01*
X84556600Y-116036900D01*
X84536915Y-116103939D01*
X84484111Y-116149694D01*
X84432600Y-116160900D01*
X83519101Y-116160900D01*
X83519101Y-116197554D01*
X83529419Y-116298552D01*
X83583646Y-116462200D01*
X83583651Y-116462211D01*
X83674152Y-116608934D01*
X83674155Y-116608938D01*
X83765036Y-116699819D01*
X83798521Y-116761142D01*
X83793537Y-116830834D01*
X83751665Y-116886767D01*
X83686201Y-116911184D01*
X83677355Y-116911500D01*
X83010155Y-116911500D01*
X82950627Y-116917901D01*
X82950620Y-116917903D01*
X82815913Y-116968145D01*
X82815906Y-116968149D01*
X82700812Y-117054309D01*
X82700809Y-117054312D01*
X82614649Y-117169406D01*
X82614645Y-117169413D01*
X82564403Y-117304120D01*
X82564401Y-117304127D01*
X82558000Y-117363655D01*
X82558000Y-121162000D01*
X84038900Y-121162000D01*
X84105939Y-121181685D01*
X84151694Y-121234489D01*
X84162900Y-121286000D01*
X84162900Y-121412000D01*
X84288900Y-121412000D01*
X84355939Y-121431685D01*
X84401694Y-121484489D01*
X84412900Y-121536000D01*
X84412900Y-125912500D01*
X84476000Y-125912500D01*
X84543039Y-125932185D01*
X84588794Y-125984989D01*
X84600000Y-126036500D01*
X84600000Y-126368000D01*
X84580315Y-126435039D01*
X84527511Y-126480794D01*
X84476000Y-126492000D01*
X82140403Y-126492000D01*
X82073364Y-126472315D01*
X82027609Y-126419511D01*
X82016403Y-126368198D01*
X82014955Y-125460344D01*
X82558000Y-125460344D01*
X82564401Y-125519872D01*
X82564403Y-125519879D01*
X82614645Y-125654586D01*
X82614649Y-125654593D01*
X82700809Y-125769687D01*
X82700812Y-125769690D01*
X82815906Y-125855850D01*
X82815913Y-125855854D01*
X82950620Y-125906096D01*
X82950627Y-125906098D01*
X83010155Y-125912499D01*
X83010172Y-125912500D01*
X83912900Y-125912500D01*
X83912900Y-121662000D01*
X82558000Y-121662000D01*
X82558000Y-125460344D01*
X82014955Y-125460344D01*
X82008815Y-121610836D01*
X82008696Y-121536000D01*
X81999267Y-115624245D01*
X83519100Y-115624245D01*
X83519100Y-115660900D01*
X84306600Y-115660900D01*
X84306600Y-114600800D01*
X83519101Y-114600800D01*
X83519101Y-114637454D01*
X83529419Y-114738452D01*
X83583646Y-114902100D01*
X83583651Y-114902111D01*
X83674151Y-115048832D01*
X83678191Y-115053942D01*
X83704329Y-115118738D01*
X83691287Y-115187380D01*
X83678191Y-115207758D01*
X83674151Y-115212867D01*
X83583651Y-115359588D01*
X83583646Y-115359599D01*
X83529419Y-115523247D01*
X83519100Y-115624245D01*
X81999267Y-115624245D01*
X81996779Y-114064145D01*
X83519100Y-114064145D01*
X83519100Y-114100800D01*
X84306600Y-114100800D01*
X84306600Y-113040700D01*
X83519101Y-113040700D01*
X83519101Y-113077354D01*
X83529419Y-113178352D01*
X83583646Y-113342000D01*
X83583651Y-113342011D01*
X83674151Y-113488732D01*
X83678191Y-113493842D01*
X83704329Y-113558638D01*
X83691287Y-113627280D01*
X83678191Y-113647658D01*
X83674151Y-113652767D01*
X83583651Y-113799488D01*
X83583646Y-113799499D01*
X83529419Y-113963147D01*
X83519100Y-114064145D01*
X81996779Y-114064145D01*
X81994291Y-112504045D01*
X83519100Y-112504045D01*
X83519100Y-112540700D01*
X84306600Y-112540700D01*
X84306600Y-111815699D01*
X84207460Y-111815700D01*
X84207444Y-111815701D01*
X84106447Y-111826019D01*
X83942799Y-111880246D01*
X83942788Y-111880251D01*
X83796065Y-111970752D01*
X83796061Y-111970755D01*
X83674155Y-112092661D01*
X83674152Y-112092665D01*
X83583651Y-112239388D01*
X83583646Y-112239399D01*
X83529419Y-112403047D01*
X83519100Y-112504045D01*
X81994291Y-112504045D01*
X81991200Y-110566200D01*
X81991200Y-109902800D01*
X82010885Y-109835761D01*
X82063689Y-109790006D01*
X82115200Y-109778800D01*
X83541723Y-109778800D01*
X83608762Y-109798485D01*
G37*
G04 #@! TD.AperFunction*
G04 #@! TA.AperFunction,Conductor*
G36*
X112869936Y-122015885D02*
G01*
X112915691Y-122068689D01*
X112926888Y-122121694D01*
X112853664Y-128199237D01*
X112833173Y-128266034D01*
X112779822Y-128311150D01*
X112730632Y-128321739D01*
X96328707Y-128448558D01*
X96261517Y-128429393D01*
X96215355Y-128376944D01*
X96203748Y-128324562D01*
X96203748Y-127250452D01*
X93403749Y-127250452D01*
X93403749Y-128348130D01*
X93384064Y-128415169D01*
X93331260Y-128460924D01*
X93280708Y-128472126D01*
X93015069Y-128474180D01*
X92947879Y-128455015D01*
X92901717Y-128402566D01*
X92890111Y-128349602D01*
X92890247Y-128320800D01*
X92903722Y-125450465D01*
X93403749Y-125450465D01*
X93403749Y-126750452D01*
X94553749Y-126750452D01*
X95053749Y-126750452D01*
X96203748Y-126750452D01*
X96203748Y-125450480D01*
X96203747Y-125450465D01*
X96193254Y-125347754D01*
X96138107Y-125181332D01*
X96138105Y-125181327D01*
X96046064Y-125032106D01*
X95922094Y-124908136D01*
X95772873Y-124816095D01*
X95772868Y-124816093D01*
X95606446Y-124760946D01*
X95606439Y-124760945D01*
X95503735Y-124750452D01*
X95053749Y-124750452D01*
X95053749Y-126750452D01*
X94553749Y-126750452D01*
X94553749Y-124750452D01*
X94103777Y-124750452D01*
X94103761Y-124750453D01*
X94001051Y-124760946D01*
X93834629Y-124816093D01*
X93834624Y-124816095D01*
X93685403Y-124908136D01*
X93561433Y-125032106D01*
X93469392Y-125181327D01*
X93469390Y-125181332D01*
X93414243Y-125347754D01*
X93414242Y-125347761D01*
X93403749Y-125450465D01*
X92903722Y-125450465D01*
X92904337Y-125319526D01*
X92907771Y-124588188D01*
X92927770Y-124521242D01*
X92980789Y-124475735D01*
X93031770Y-124464770D01*
X96828966Y-124464770D01*
X96896005Y-124484455D01*
X96941760Y-124537259D01*
X96952966Y-124588496D01*
X96957511Y-126644399D01*
X96957691Y-126726052D01*
X109372400Y-126644400D01*
X109372400Y-125426913D01*
X109392085Y-125359874D01*
X109444889Y-125314119D01*
X109514047Y-125304175D01*
X109558400Y-125319526D01*
X109660285Y-125378349D01*
X109660297Y-125378354D01*
X109866181Y-125463636D01*
X110081432Y-125521311D01*
X110081445Y-125521314D01*
X110302375Y-125550400D01*
X110525225Y-125550400D01*
X110746154Y-125521314D01*
X110746167Y-125521311D01*
X110961418Y-125463636D01*
X111167302Y-125378354D01*
X111167314Y-125378349D01*
X111360298Y-125266930D01*
X111426203Y-125216357D01*
X111426204Y-125216356D01*
X110624859Y-124415012D01*
X110645391Y-124409511D01*
X110782208Y-124330519D01*
X110893919Y-124218808D01*
X110972911Y-124081991D01*
X110978412Y-124061459D01*
X111779756Y-124862804D01*
X111779757Y-124862803D01*
X111830330Y-124796898D01*
X111941749Y-124603914D01*
X111941754Y-124603902D01*
X112027036Y-124398018D01*
X112084711Y-124182767D01*
X112084714Y-124182754D01*
X112113800Y-123961824D01*
X112113800Y-123738975D01*
X112084714Y-123518045D01*
X112084711Y-123518032D01*
X112027036Y-123302781D01*
X111941754Y-123096897D01*
X111941749Y-123096885D01*
X111830333Y-122903907D01*
X111779756Y-122837995D01*
X111779755Y-122837995D01*
X110978412Y-123639339D01*
X110972911Y-123618809D01*
X110893919Y-123481992D01*
X110782208Y-123370281D01*
X110645391Y-123291289D01*
X110624858Y-123285787D01*
X111426203Y-122484443D01*
X111426203Y-122484440D01*
X111360304Y-122433873D01*
X111360291Y-122433864D01*
X111167320Y-122322454D01*
X111167302Y-122322445D01*
X110957670Y-122235611D01*
X110958173Y-122234394D01*
X110905606Y-122197430D01*
X110879253Y-122132721D01*
X110892067Y-122064036D01*
X110939981Y-122013184D01*
X111002619Y-121996200D01*
X112802897Y-121996200D01*
X112869936Y-122015885D01*
G37*
G04 #@! TD.AperFunction*
M02*
