M48
; DRILL file {KiCad 9.0.4} date 2025-10-05T21:49:45+0200
; FORMAT={-:-/ absolute / metric / decimal}
; #@! TF.CreationDate,2025-10-05T21:49:45+02:00
; #@! TF.GenerationSoftware,Kicad,Pcbnew,9.0.4
; #@! TF.FileFunction,Plated,1,4,PTH
FMAT,2
METRIC
; #@! TA.AperFunction,Plated,PTH,ComponentDrill
T1C0.200
; #@! TA.AperFunction,Plated,PTH,ViaDrill
T2C0.300
; #@! TA.AperFunction,Plated,PTH,ComponentDrill
T3C1.000
; #@! TA.AperFunction,Plated,PTH,ComponentDrill
T4C1.200
%
G90
G05
T1
X114.632Y-96.425
X114.632Y-97.825
X115.332Y-95.725
X115.332Y-97.125
X115.332Y-98.525
X116.007Y-96.425
X116.007Y-97.825
X116.732Y-95.725
X116.732Y-97.125
X116.732Y-98.525
X117.432Y-96.425
X117.432Y-97.825
T2
X82.753Y-110.668
X82.753Y-112.378
X82.804Y-114.088
X82.804Y-115.799
X83.287Y-92.024
X83.414Y-98.577
X87.376Y-112.791
X87.376Y-114.351
X87.376Y-115.911
X87.452Y-110.236
X87.554Y-111.608
X88.621Y-109.144
X88.773Y-109.931
X88.824Y-112.878
X88.849Y-116.18
X89.997Y-110.185
X90.119Y-113.411
X90.119Y-115.748
X90.195Y-114.579
X91.364Y-94.742
X91.364Y-111.963
X91.999Y-99.492
X92.05Y-106.426
X92.05Y-111.491
X92.126Y-117.851
X92.126Y-118.715
X92.202Y-98.531
X93.407Y-126.151
X93.407Y-127.574
X93.715Y-124.857
X93.853Y-94.767
X94.259Y-109.957
X95.34Y-100.884
X95.925Y-124.832
X96.201Y-126.202
X96.226Y-127.574
X96.495Y-99.009
X100.305Y-101.6
X100.305Y-102.464
X100.635Y-114.478
X101.016Y-96.622
X101.483Y-116.307
X101.498Y-118.186
X102.616Y-106.883
X102.8Y-92.3
X102.997Y-89.484
X103.47Y-117.136
X103.47Y-118.775
X103.505Y-115.519
X103.652Y-98.499
X103.652Y-99.472
X104.1Y-96.8
X104.191Y-90.475
X104.2Y-93.6
X104.412Y-112.983
X104.648Y-101.092
X105.422Y-92.041
X105.486Y-89.463
X106.07Y-113.03
X107.118Y-97.581
X107.3Y-100.5
X107.659Y-89.405
X109.407Y-117.297
X110.016Y-104.07
X110.033Y-88.951
X110.033Y-89.8
X110.846Y-106.705
X110.846Y-107.721
X111.0Y-103.0
X112.1Y-102.0
X112.624Y-112.538
X114.326Y-124.516
X114.579Y-112.674
X114.957Y-121.121
X115.697Y-112.7
X116.1Y-119.4
X116.205Y-117.286
X116.281Y-108.737
X116.332Y-124.294
X116.756Y-113.491
X117.975Y-117.073
X118.045Y-124.274
X118.082Y-120.773
X118.082Y-121.578
X119.746Y-124.322
X120.198Y-121.776
X121.619Y-124.718
X122.508Y-123.575
X122.924Y-121.696
X124.49Y-123.575
X124.914Y-121.696
X124.968Y-105.918
X125.019Y-89.027
X125.019Y-89.84
X125.247Y-93.243
X125.273Y-94.463
X126.471Y-123.575
X126.904Y-121.696
X127.889Y-89.052
X127.889Y-90.0
X130.937Y-93.853
T3
X130.429Y-101.473
X130.429Y-104.013
X130.429Y-106.553
X130.429Y-109.093
T4
X99.914Y-123.85
X103.414Y-123.85
X106.914Y-123.85
X110.414Y-123.85
M30
