%TF.GenerationSoftware,KiCad,Pcbnew,9.0.3*%
%TF.CreationDate,2025-11-06T12:11:46+01:00*%
%TF.ProjectId,modbus-to-x,6d6f6462-7573-42d7-946f-2d782e6b6963,rev?*%
%TF.SameCoordinates,Original*%
%TF.FileFunction,Drillmap*%
%TF.FilePolarity,Positive*%
%FSLAX45Y45*%
G04 Gerber Fmt 4.5, Leading zero omitted, Abs format (unit mm)*
G04 Created by KiCad (PCBNEW 9.0.3) date 2025-11-06 12:11:46*
%MOMM*%
%LPD*%
G01*
G04 APERTURE LIST*
%ADD10C,0.100000*%
%ADD11C,0.050000*%
%ADD12C,0.200000*%
G04 APERTURE END LIST*
D10*
X4790000Y-13420000D02*
G75*
G02*
X4490000Y-13120000I0J300000D01*
G01*
X13250000Y-13120000D02*
G75*
G02*
X12950000Y-13420000I-300000J0D01*
G01*
X12950000Y-8750000D02*
G75*
G02*
X13250000Y-9050000I0J-300000D01*
G01*
X4490000Y-9050000D02*
G75*
G02*
X4790000Y-8750000I300000J0D01*
G01*
X12950000Y-13420000D02*
X4790000Y-13420000D01*
X12950000Y-8750000D02*
X4790000Y-8750000D01*
D11*
X5120000Y-9270000D02*
G75*
G02*
X4820000Y-9270000I-150000J0D01*
G01*
X4820000Y-9270000D02*
G75*
G02*
X5120000Y-9270000I150000J0D01*
G01*
X5120000Y-12870000D02*
G75*
G02*
X4820000Y-12870000I-150000J0D01*
G01*
X4820000Y-12870000D02*
G75*
G02*
X5120000Y-12870000I150000J0D01*
G01*
X8980000Y-9270000D02*
G75*
G02*
X8680000Y-9270000I-150000J0D01*
G01*
X8680000Y-9270000D02*
G75*
G02*
X8980000Y-9270000I150000J0D01*
G01*
D10*
X13250000Y-9050000D02*
X13250000Y-13120000D01*
D11*
X12880000Y-12870000D02*
G75*
G02*
X12580000Y-12870000I-150000J0D01*
G01*
X12580000Y-12870000D02*
G75*
G02*
X12880000Y-12870000I150000J0D01*
G01*
D10*
X4490000Y-9050000D02*
X4490000Y-13120000D01*
D12*
D10*
X5885000Y-9040000D02*
X5905000Y-9060000D01*
X5905000Y-9040000D02*
X5885000Y-9060000D01*
X5885000Y-9163333D02*
X5905000Y-9183333D01*
X5905000Y-9163333D02*
X5885000Y-9183333D01*
X5885000Y-9286667D02*
X5905000Y-9306667D01*
X5905000Y-9286667D02*
X5885000Y-9306667D01*
X5885000Y-9410000D02*
X5905000Y-9430000D01*
X5905000Y-9410000D02*
X5885000Y-9430000D01*
X5885000Y-9533333D02*
X5905000Y-9553333D01*
X5905000Y-9533333D02*
X5885000Y-9553333D01*
X5885000Y-9656667D02*
X5905000Y-9676667D01*
X5905000Y-9656667D02*
X5885000Y-9676667D01*
X5885000Y-9780000D02*
X5905000Y-9800000D01*
X5905000Y-9780000D02*
X5885000Y-9800000D01*
X6095000Y-9346667D02*
X6115000Y-9366667D01*
X6115000Y-9346667D02*
X6095000Y-9366667D01*
X6095000Y-9470000D02*
X6115000Y-9490000D01*
X6115000Y-9470000D02*
X6095000Y-9490000D01*
X6095000Y-9593333D02*
X6115000Y-9613333D01*
X6115000Y-9593333D02*
X6095000Y-9613333D01*
X6300000Y-9045000D02*
X6320000Y-9065000D01*
X6320000Y-9045000D02*
X6300000Y-9065000D01*
X6300000Y-9168333D02*
X6320000Y-9188333D01*
X6320000Y-9168333D02*
X6300000Y-9188333D01*
X6300000Y-9291667D02*
X6320000Y-9311667D01*
X6320000Y-9291667D02*
X6300000Y-9311667D01*
X6300000Y-9415000D02*
X6320000Y-9435000D01*
X6320000Y-9415000D02*
X6300000Y-9435000D01*
X6300000Y-9538333D02*
X6320000Y-9558333D01*
X6320000Y-9538333D02*
X6300000Y-9558333D01*
X6300000Y-9661667D02*
X6320000Y-9681667D01*
X6320000Y-9661667D02*
X6300000Y-9681667D01*
X6300000Y-9785000D02*
X6320000Y-9805000D01*
X6320000Y-9785000D02*
X6300000Y-9805000D01*
X6535000Y-9346667D02*
X6555000Y-9366667D01*
X6555000Y-9346667D02*
X6535000Y-9366667D01*
X6535000Y-9470000D02*
X6555000Y-9490000D01*
X6555000Y-9470000D02*
X6535000Y-9490000D01*
X6535000Y-9593333D02*
X6555000Y-9613333D01*
X6555000Y-9593333D02*
X6535000Y-9613333D01*
X6755000Y-9045000D02*
X6775000Y-9065000D01*
X6775000Y-9045000D02*
X6755000Y-9065000D01*
X6755000Y-9168333D02*
X6775000Y-9188333D01*
X6775000Y-9168333D02*
X6755000Y-9188333D01*
X6755000Y-9291667D02*
X6775000Y-9311667D01*
X6775000Y-9291667D02*
X6755000Y-9311667D01*
X6755000Y-9415000D02*
X6775000Y-9435000D01*
X6775000Y-9415000D02*
X6755000Y-9435000D01*
X6755000Y-9538333D02*
X6775000Y-9558333D01*
X6775000Y-9538333D02*
X6755000Y-9558333D01*
X6755000Y-9661667D02*
X6775000Y-9681667D01*
X6775000Y-9661667D02*
X6755000Y-9681667D01*
X6755000Y-9785000D02*
X6775000Y-9805000D01*
X6775000Y-9785000D02*
X6755000Y-9805000D01*
X11453180Y-9632540D02*
X11473180Y-9652540D01*
X11473180Y-9632540D02*
X11453180Y-9652540D01*
X11453180Y-9772540D02*
X11473180Y-9792540D01*
X11473180Y-9772540D02*
X11453180Y-9792540D01*
X11523180Y-9562540D02*
X11543180Y-9582540D01*
X11543180Y-9562540D02*
X11523180Y-9582540D01*
X11523180Y-9702540D02*
X11543180Y-9722540D01*
X11543180Y-9702540D02*
X11523180Y-9722540D01*
X11523180Y-9842540D02*
X11543180Y-9862540D01*
X11543180Y-9842540D02*
X11523180Y-9862540D01*
X11590680Y-9632540D02*
X11610680Y-9652540D01*
X11610680Y-9632540D02*
X11590680Y-9652540D01*
X11590680Y-9772540D02*
X11610680Y-9792540D01*
X11610680Y-9772540D02*
X11590680Y-9792540D01*
X11663180Y-9562540D02*
X11683180Y-9582540D01*
X11683180Y-9562540D02*
X11663180Y-9582540D01*
X11663180Y-9702540D02*
X11683180Y-9722540D01*
X11683180Y-9702540D02*
X11663180Y-9722540D01*
X11663180Y-9842540D02*
X11683180Y-9862540D01*
X11683180Y-9842540D02*
X11663180Y-9862540D01*
X11733180Y-9632540D02*
X11753180Y-9652540D01*
X11753180Y-9632540D02*
X11733180Y-9652540D01*
X11733180Y-9772540D02*
X11753180Y-9792540D01*
X11753180Y-9772540D02*
X11733180Y-9792540D01*
X4605000Y-9096667D02*
G75*
G02*
X4575000Y-9096667I-15000J0D01*
G01*
X4575000Y-9096667D02*
G75*
G02*
X4605000Y-9096667I15000J0D01*
G01*
X4605000Y-9340000D02*
G75*
G02*
X4575000Y-9340000I-15000J0D01*
G01*
X4575000Y-9340000D02*
G75*
G02*
X4605000Y-9340000I15000J0D01*
G01*
X4605000Y-9583333D02*
G75*
G02*
X4575000Y-9583333I-15000J0D01*
G01*
X4575000Y-9583333D02*
G75*
G02*
X4605000Y-9583333I15000J0D01*
G01*
X4605000Y-9826667D02*
G75*
G02*
X4575000Y-9826667I-15000J0D01*
G01*
X4575000Y-9826667D02*
G75*
G02*
X4605000Y-9826667I15000J0D01*
G01*
X4605000Y-10066667D02*
G75*
G02*
X4575000Y-10066667I-15000J0D01*
G01*
X4575000Y-10066667D02*
G75*
G02*
X4605000Y-10066667I15000J0D01*
G01*
X4605000Y-10310000D02*
G75*
G02*
X4575000Y-10310000I-15000J0D01*
G01*
X4575000Y-10310000D02*
G75*
G02*
X4605000Y-10310000I15000J0D01*
G01*
X4605000Y-10553333D02*
G75*
G02*
X4575000Y-10553333I-15000J0D01*
G01*
X4575000Y-10553333D02*
G75*
G02*
X4605000Y-10553333I15000J0D01*
G01*
X4605000Y-10796667D02*
G75*
G02*
X4575000Y-10796667I-15000J0D01*
G01*
X4575000Y-10796667D02*
G75*
G02*
X4605000Y-10796667I15000J0D01*
G01*
X4605000Y-11040000D02*
G75*
G02*
X4575000Y-11040000I-15000J0D01*
G01*
X4575000Y-11040000D02*
G75*
G02*
X4605000Y-11040000I15000J0D01*
G01*
X4605000Y-11260000D02*
G75*
G02*
X4575000Y-11260000I-15000J0D01*
G01*
X4575000Y-11260000D02*
G75*
G02*
X4605000Y-11260000I15000J0D01*
G01*
X4605000Y-11510000D02*
G75*
G02*
X4575000Y-11510000I-15000J0D01*
G01*
X4575000Y-11510000D02*
G75*
G02*
X4605000Y-11510000I15000J0D01*
G01*
X4605000Y-11740000D02*
G75*
G02*
X4575000Y-11740000I-15000J0D01*
G01*
X4575000Y-11740000D02*
G75*
G02*
X4605000Y-11740000I15000J0D01*
G01*
X4605000Y-11980000D02*
G75*
G02*
X4575000Y-11980000I-15000J0D01*
G01*
X4575000Y-11980000D02*
G75*
G02*
X4605000Y-11980000I15000J0D01*
G01*
X4605000Y-12223333D02*
G75*
G02*
X4575000Y-12223333I-15000J0D01*
G01*
X4575000Y-12223333D02*
G75*
G02*
X4605000Y-12223333I15000J0D01*
G01*
X4605000Y-12460000D02*
G75*
G02*
X4575000Y-12460000I-15000J0D01*
G01*
X4575000Y-12460000D02*
G75*
G02*
X4605000Y-12460000I15000J0D01*
G01*
X4605000Y-12706667D02*
G75*
G02*
X4575000Y-12706667I-15000J0D01*
G01*
X4575000Y-12706667D02*
G75*
G02*
X4605000Y-12706667I15000J0D01*
G01*
X4605000Y-12980000D02*
G75*
G02*
X4575000Y-12980000I-15000J0D01*
G01*
X4575000Y-12980000D02*
G75*
G02*
X4605000Y-12980000I15000J0D01*
G01*
X4675000Y-8930000D02*
G75*
G02*
X4645000Y-8930000I-15000J0D01*
G01*
X4645000Y-8930000D02*
G75*
G02*
X4675000Y-8930000I15000J0D01*
G01*
X4675000Y-13220000D02*
G75*
G02*
X4645000Y-13220000I-15000J0D01*
G01*
X4645000Y-13220000D02*
G75*
G02*
X4675000Y-13220000I15000J0D01*
G01*
X4735000Y-12070000D02*
G75*
G02*
X4705000Y-12070000I-15000J0D01*
G01*
X4705000Y-12070000D02*
G75*
G02*
X4735000Y-12070000I15000J0D01*
G01*
X4781000Y-10910000D02*
G75*
G02*
X4751000Y-10910000I-15000J0D01*
G01*
X4751000Y-10910000D02*
G75*
G02*
X4781000Y-10910000I15000J0D01*
G01*
X4838333Y-13280000D02*
G75*
G02*
X4808333Y-13280000I-15000J0D01*
G01*
X4808333Y-13280000D02*
G75*
G02*
X4838333Y-13280000I15000J0D01*
G01*
X4848333Y-8850000D02*
G75*
G02*
X4818333Y-8850000I-15000J0D01*
G01*
X4818333Y-8850000D02*
G75*
G02*
X4848333Y-8850000I15000J0D01*
G01*
X4895000Y-12070000D02*
G75*
G02*
X4865000Y-12070000I-15000J0D01*
G01*
X4865000Y-12070000D02*
G75*
G02*
X4895000Y-12070000I15000J0D01*
G01*
X4957000Y-10910000D02*
G75*
G02*
X4927000Y-10910000I-15000J0D01*
G01*
X4927000Y-10910000D02*
G75*
G02*
X4957000Y-10910000I15000J0D01*
G01*
X5081667Y-13280000D02*
G75*
G02*
X5051667Y-13280000I-15000J0D01*
G01*
X5051667Y-13280000D02*
G75*
G02*
X5081667Y-13280000I15000J0D01*
G01*
X5091667Y-8850000D02*
G75*
G02*
X5061667Y-8850000I-15000J0D01*
G01*
X5061667Y-8850000D02*
G75*
G02*
X5091667Y-8850000I15000J0D01*
G01*
X5133000Y-10910000D02*
G75*
G02*
X5103000Y-10910000I-15000J0D01*
G01*
X5103000Y-10910000D02*
G75*
G02*
X5133000Y-10910000I15000J0D01*
G01*
X5309000Y-10510000D02*
G75*
G02*
X5279000Y-10510000I-15000J0D01*
G01*
X5279000Y-10510000D02*
G75*
G02*
X5309000Y-10510000I15000J0D01*
G01*
X5309000Y-10910000D02*
G75*
G02*
X5279000Y-10910000I-15000J0D01*
G01*
X5279000Y-10910000D02*
G75*
G02*
X5309000Y-10910000I15000J0D01*
G01*
X5325000Y-13280000D02*
G75*
G02*
X5295000Y-13280000I-15000J0D01*
G01*
X5295000Y-13280000D02*
G75*
G02*
X5325000Y-13280000I15000J0D01*
G01*
X5335000Y-8850000D02*
G75*
G02*
X5305000Y-8850000I-15000J0D01*
G01*
X5305000Y-8850000D02*
G75*
G02*
X5335000Y-8850000I15000J0D01*
G01*
X5485000Y-10510000D02*
G75*
G02*
X5455000Y-10510000I-15000J0D01*
G01*
X5455000Y-10510000D02*
G75*
G02*
X5485000Y-10510000I15000J0D01*
G01*
X5568333Y-13280000D02*
G75*
G02*
X5538333Y-13280000I-15000J0D01*
G01*
X5538333Y-13280000D02*
G75*
G02*
X5568333Y-13280000I15000J0D01*
G01*
X5575000Y-8850000D02*
G75*
G02*
X5545000Y-8850000I-15000J0D01*
G01*
X5545000Y-8850000D02*
G75*
G02*
X5575000Y-8850000I15000J0D01*
G01*
X5595000Y-10068000D02*
G75*
G02*
X5565000Y-10068000I-15000J0D01*
G01*
X5565000Y-10068000D02*
G75*
G02*
X5595000Y-10068000I15000J0D01*
G01*
X5595000Y-10244000D02*
G75*
G02*
X5565000Y-10244000I-15000J0D01*
G01*
X5565000Y-10244000D02*
G75*
G02*
X5595000Y-10244000I15000J0D01*
G01*
X5595000Y-10420000D02*
G75*
G02*
X5565000Y-10420000I-15000J0D01*
G01*
X5565000Y-10420000D02*
G75*
G02*
X5595000Y-10420000I15000J0D01*
G01*
X5705000Y-9014000D02*
G75*
G02*
X5675000Y-9014000I-15000J0D01*
G01*
X5675000Y-9014000D02*
G75*
G02*
X5705000Y-9014000I15000J0D01*
G01*
X5705000Y-9202000D02*
G75*
G02*
X5675000Y-9202000I-15000J0D01*
G01*
X5675000Y-9202000D02*
G75*
G02*
X5705000Y-9202000I15000J0D01*
G01*
X5705000Y-9378000D02*
G75*
G02*
X5675000Y-9378000I-15000J0D01*
G01*
X5675000Y-9378000D02*
G75*
G02*
X5705000Y-9378000I15000J0D01*
G01*
X5705000Y-9554000D02*
G75*
G02*
X5675000Y-9554000I-15000J0D01*
G01*
X5675000Y-9554000D02*
G75*
G02*
X5705000Y-9554000I15000J0D01*
G01*
X5705000Y-9730000D02*
G75*
G02*
X5675000Y-9730000I-15000J0D01*
G01*
X5675000Y-9730000D02*
G75*
G02*
X5705000Y-9730000I15000J0D01*
G01*
X5705000Y-9906000D02*
G75*
G02*
X5675000Y-9906000I-15000J0D01*
G01*
X5675000Y-9906000D02*
G75*
G02*
X5705000Y-9906000I15000J0D01*
G01*
X5755000Y-10180000D02*
G75*
G02*
X5725000Y-10180000I-15000J0D01*
G01*
X5725000Y-10180000D02*
G75*
G02*
X5755000Y-10180000I15000J0D01*
G01*
X5755000Y-10290000D02*
G75*
G02*
X5725000Y-10290000I-15000J0D01*
G01*
X5725000Y-10290000D02*
G75*
G02*
X5755000Y-10290000I15000J0D01*
G01*
X5755000Y-10410000D02*
G75*
G02*
X5725000Y-10410000I-15000J0D01*
G01*
X5725000Y-10410000D02*
G75*
G02*
X5755000Y-10410000I15000J0D01*
G01*
X5755000Y-10540000D02*
G75*
G02*
X5725000Y-10540000I-15000J0D01*
G01*
X5725000Y-10540000D02*
G75*
G02*
X5755000Y-10540000I15000J0D01*
G01*
X5775000Y-12440000D02*
G75*
G02*
X5745000Y-12440000I-15000J0D01*
G01*
X5745000Y-12440000D02*
G75*
G02*
X5775000Y-12440000I15000J0D01*
G01*
X5775000Y-12520000D02*
G75*
G02*
X5745000Y-12520000I-15000J0D01*
G01*
X5745000Y-12520000D02*
G75*
G02*
X5775000Y-12520000I15000J0D01*
G01*
X5808333Y-13280000D02*
G75*
G02*
X5778333Y-13280000I-15000J0D01*
G01*
X5778333Y-13280000D02*
G75*
G02*
X5808333Y-13280000I15000J0D01*
G01*
X5818333Y-8850000D02*
G75*
G02*
X5788333Y-8850000I-15000J0D01*
G01*
X5788333Y-8850000D02*
G75*
G02*
X5818333Y-8850000I15000J0D01*
G01*
X5845000Y-10180000D02*
G75*
G02*
X5815000Y-10180000I-15000J0D01*
G01*
X5815000Y-10180000D02*
G75*
G02*
X5845000Y-10180000I15000J0D01*
G01*
X5845000Y-10290000D02*
G75*
G02*
X5815000Y-10290000I-15000J0D01*
G01*
X5815000Y-10290000D02*
G75*
G02*
X5845000Y-10290000I15000J0D01*
G01*
X5845000Y-10410000D02*
G75*
G02*
X5815000Y-10410000I-15000J0D01*
G01*
X5815000Y-10410000D02*
G75*
G02*
X5845000Y-10410000I15000J0D01*
G01*
X5845000Y-10540000D02*
G75*
G02*
X5815000Y-10540000I-15000J0D01*
G01*
X5815000Y-10540000D02*
G75*
G02*
X5845000Y-10540000I15000J0D01*
G01*
X5865000Y-9980000D02*
G75*
G02*
X5835000Y-9980000I-15000J0D01*
G01*
X5835000Y-9980000D02*
G75*
G02*
X5865000Y-9980000I15000J0D01*
G01*
X5865000Y-12440000D02*
G75*
G02*
X5835000Y-12440000I-15000J0D01*
G01*
X5835000Y-12440000D02*
G75*
G02*
X5865000Y-12440000I15000J0D01*
G01*
X5865000Y-12520000D02*
G75*
G02*
X5835000Y-12520000I-15000J0D01*
G01*
X5835000Y-12520000D02*
G75*
G02*
X5865000Y-12520000I15000J0D01*
G01*
X6045000Y-9980000D02*
G75*
G02*
X6015000Y-9980000I-15000J0D01*
G01*
X6015000Y-9980000D02*
G75*
G02*
X6045000Y-9980000I15000J0D01*
G01*
X6051667Y-13280000D02*
G75*
G02*
X6021667Y-13280000I-15000J0D01*
G01*
X6021667Y-13280000D02*
G75*
G02*
X6051667Y-13280000I15000J0D01*
G01*
X6061667Y-8850000D02*
G75*
G02*
X6031667Y-8850000I-15000J0D01*
G01*
X6031667Y-8850000D02*
G75*
G02*
X6061667Y-8850000I15000J0D01*
G01*
X6195000Y-9980000D02*
G75*
G02*
X6165000Y-9980000I-15000J0D01*
G01*
X6165000Y-9980000D02*
G75*
G02*
X6195000Y-9980000I15000J0D01*
G01*
X6295000Y-13280000D02*
G75*
G02*
X6265000Y-13280000I-15000J0D01*
G01*
X6265000Y-13280000D02*
G75*
G02*
X6295000Y-13280000I15000J0D01*
G01*
X6305000Y-8850000D02*
G75*
G02*
X6275000Y-8850000I-15000J0D01*
G01*
X6275000Y-8850000D02*
G75*
G02*
X6305000Y-8850000I15000J0D01*
G01*
X6345000Y-9980000D02*
G75*
G02*
X6315000Y-9980000I-15000J0D01*
G01*
X6315000Y-9980000D02*
G75*
G02*
X6345000Y-9980000I15000J0D01*
G01*
X6345000Y-10620000D02*
G75*
G02*
X6315000Y-10620000I-15000J0D01*
G01*
X6315000Y-10620000D02*
G75*
G02*
X6345000Y-10620000I15000J0D01*
G01*
X6375000Y-10710000D02*
G75*
G02*
X6345000Y-10710000I-15000J0D01*
G01*
X6345000Y-10710000D02*
G75*
G02*
X6375000Y-10710000I15000J0D01*
G01*
X6505000Y-9980000D02*
G75*
G02*
X6475000Y-9980000I-15000J0D01*
G01*
X6475000Y-9980000D02*
G75*
G02*
X6505000Y-9980000I15000J0D01*
G01*
X6538333Y-8850000D02*
G75*
G02*
X6508333Y-8850000I-15000J0D01*
G01*
X6508333Y-8850000D02*
G75*
G02*
X6538333Y-8850000I15000J0D01*
G01*
X6538333Y-13280000D02*
G75*
G02*
X6508333Y-13280000I-15000J0D01*
G01*
X6508333Y-13280000D02*
G75*
G02*
X6538333Y-13280000I15000J0D01*
G01*
X6685000Y-9980000D02*
G75*
G02*
X6655000Y-9980000I-15000J0D01*
G01*
X6655000Y-9980000D02*
G75*
G02*
X6685000Y-9980000I15000J0D01*
G01*
X6768333Y-13280000D02*
G75*
G02*
X6738333Y-13280000I-15000J0D01*
G01*
X6738333Y-13280000D02*
G75*
G02*
X6768333Y-13280000I15000J0D01*
G01*
X6781667Y-8850000D02*
G75*
G02*
X6751667Y-8850000I-15000J0D01*
G01*
X6751667Y-8850000D02*
G75*
G02*
X6781667Y-8850000I15000J0D01*
G01*
X6875000Y-9980000D02*
G75*
G02*
X6845000Y-9980000I-15000J0D01*
G01*
X6845000Y-9980000D02*
G75*
G02*
X6875000Y-9980000I15000J0D01*
G01*
X6875000Y-10248000D02*
G75*
G02*
X6845000Y-10248000I-15000J0D01*
G01*
X6845000Y-10248000D02*
G75*
G02*
X6875000Y-10248000I15000J0D01*
G01*
X6875000Y-10424000D02*
G75*
G02*
X6845000Y-10424000I-15000J0D01*
G01*
X6845000Y-10424000D02*
G75*
G02*
X6875000Y-10424000I15000J0D01*
G01*
X6875000Y-10600000D02*
G75*
G02*
X6845000Y-10600000I-15000J0D01*
G01*
X6845000Y-10600000D02*
G75*
G02*
X6875000Y-10600000I15000J0D01*
G01*
X7011667Y-13280000D02*
G75*
G02*
X6981667Y-13280000I-15000J0D01*
G01*
X6981667Y-13280000D02*
G75*
G02*
X7011667Y-13280000I15000J0D01*
G01*
X7025000Y-8850000D02*
G75*
G02*
X6995000Y-8850000I-15000J0D01*
G01*
X6995000Y-8850000D02*
G75*
G02*
X7025000Y-8850000I15000J0D01*
G01*
X7025000Y-9120000D02*
G75*
G02*
X6995000Y-9120000I-15000J0D01*
G01*
X6995000Y-9120000D02*
G75*
G02*
X7025000Y-9120000I15000J0D01*
G01*
X7255000Y-13280000D02*
G75*
G02*
X7225000Y-13280000I-15000J0D01*
G01*
X7225000Y-13280000D02*
G75*
G02*
X7255000Y-13280000I15000J0D01*
G01*
X7265000Y-9120000D02*
G75*
G02*
X7235000Y-9120000I-15000J0D01*
G01*
X7235000Y-9120000D02*
G75*
G02*
X7265000Y-9120000I15000J0D01*
G01*
X7268333Y-8850000D02*
G75*
G02*
X7238333Y-8850000I-15000J0D01*
G01*
X7238333Y-8850000D02*
G75*
G02*
X7268333Y-8850000I15000J0D01*
G01*
X7405000Y-12100000D02*
G75*
G02*
X7375000Y-12100000I-15000J0D01*
G01*
X7375000Y-12100000D02*
G75*
G02*
X7405000Y-12100000I15000J0D01*
G01*
X7405000Y-12210000D02*
G75*
G02*
X7375000Y-12210000I-15000J0D01*
G01*
X7375000Y-12210000D02*
G75*
G02*
X7405000Y-12210000I15000J0D01*
G01*
X7405000Y-12320000D02*
G75*
G02*
X7375000Y-12320000I-15000J0D01*
G01*
X7375000Y-12320000D02*
G75*
G02*
X7405000Y-12320000I15000J0D01*
G01*
X7485000Y-9120000D02*
G75*
G02*
X7455000Y-9120000I-15000J0D01*
G01*
X7455000Y-9120000D02*
G75*
G02*
X7485000Y-9120000I15000J0D01*
G01*
X7498333Y-13280000D02*
G75*
G02*
X7468333Y-13280000I-15000J0D01*
G01*
X7468333Y-13280000D02*
G75*
G02*
X7498333Y-13280000I15000J0D01*
G01*
X7508333Y-8850000D02*
G75*
G02*
X7478333Y-8850000I-15000J0D01*
G01*
X7478333Y-8850000D02*
G75*
G02*
X7508333Y-8850000I15000J0D01*
G01*
X7581000Y-12100000D02*
G75*
G02*
X7551000Y-12100000I-15000J0D01*
G01*
X7551000Y-12100000D02*
G75*
G02*
X7581000Y-12100000I15000J0D01*
G01*
X7581000Y-12320000D02*
G75*
G02*
X7551000Y-12320000I-15000J0D01*
G01*
X7551000Y-12320000D02*
G75*
G02*
X7581000Y-12320000I15000J0D01*
G01*
X7695000Y-9010000D02*
G75*
G02*
X7665000Y-9010000I-15000J0D01*
G01*
X7665000Y-9010000D02*
G75*
G02*
X7695000Y-9010000I15000J0D01*
G01*
X7738333Y-13280000D02*
G75*
G02*
X7708333Y-13280000I-15000J0D01*
G01*
X7708333Y-13280000D02*
G75*
G02*
X7738333Y-13280000I15000J0D01*
G01*
X7751667Y-8850000D02*
G75*
G02*
X7721667Y-8850000I-15000J0D01*
G01*
X7721667Y-8850000D02*
G75*
G02*
X7751667Y-8850000I15000J0D01*
G01*
X7805000Y-11990000D02*
G75*
G02*
X7775000Y-11990000I-15000J0D01*
G01*
X7775000Y-11990000D02*
G75*
G02*
X7805000Y-11990000I15000J0D01*
G01*
X7805000Y-12240000D02*
G75*
G02*
X7775000Y-12240000I-15000J0D01*
G01*
X7775000Y-12240000D02*
G75*
G02*
X7805000Y-12240000I15000J0D01*
G01*
X7905000Y-9120000D02*
G75*
G02*
X7875000Y-9120000I-15000J0D01*
G01*
X7875000Y-9120000D02*
G75*
G02*
X7905000Y-9120000I15000J0D01*
G01*
X7981667Y-13280000D02*
G75*
G02*
X7951667Y-13280000I-15000J0D01*
G01*
X7951667Y-13280000D02*
G75*
G02*
X7981667Y-13280000I15000J0D01*
G01*
X7985000Y-11870000D02*
G75*
G02*
X7955000Y-11870000I-15000J0D01*
G01*
X7955000Y-11870000D02*
G75*
G02*
X7985000Y-11870000I15000J0D01*
G01*
X7985000Y-12110000D02*
G75*
G02*
X7955000Y-12110000I-15000J0D01*
G01*
X7955000Y-12110000D02*
G75*
G02*
X7985000Y-12110000I15000J0D01*
G01*
X7995000Y-8850000D02*
G75*
G02*
X7965000Y-8850000I-15000J0D01*
G01*
X7965000Y-8850000D02*
G75*
G02*
X7995000Y-8850000I15000J0D01*
G01*
X8115000Y-9120000D02*
G75*
G02*
X8085000Y-9120000I-15000J0D01*
G01*
X8085000Y-9120000D02*
G75*
G02*
X8115000Y-9120000I15000J0D01*
G01*
X8165000Y-11730000D02*
G75*
G02*
X8135000Y-11730000I-15000J0D01*
G01*
X8135000Y-11730000D02*
G75*
G02*
X8165000Y-11730000I15000J0D01*
G01*
X8225000Y-13280000D02*
G75*
G02*
X8195000Y-13280000I-15000J0D01*
G01*
X8195000Y-13280000D02*
G75*
G02*
X8225000Y-13280000I15000J0D01*
G01*
X8238333Y-8850000D02*
G75*
G02*
X8208333Y-8850000I-15000J0D01*
G01*
X8208333Y-8850000D02*
G75*
G02*
X8238333Y-8850000I15000J0D01*
G01*
X8291000Y-9120000D02*
G75*
G02*
X8261000Y-9120000I-15000J0D01*
G01*
X8261000Y-9120000D02*
G75*
G02*
X8291000Y-9120000I15000J0D01*
G01*
X8315000Y-11940000D02*
G75*
G02*
X8285000Y-11940000I-15000J0D01*
G01*
X8285000Y-11940000D02*
G75*
G02*
X8315000Y-11940000I15000J0D01*
G01*
X8375000Y-11580000D02*
G75*
G02*
X8345000Y-11580000I-15000J0D01*
G01*
X8345000Y-11580000D02*
G75*
G02*
X8375000Y-11580000I15000J0D01*
G01*
X8468333Y-13280000D02*
G75*
G02*
X8438333Y-13280000I-15000J0D01*
G01*
X8438333Y-13280000D02*
G75*
G02*
X8468333Y-13280000I15000J0D01*
G01*
X8485000Y-9140000D02*
G75*
G02*
X8455000Y-9140000I-15000J0D01*
G01*
X8455000Y-9140000D02*
G75*
G02*
X8485000Y-9140000I15000J0D01*
G01*
X8485000Y-9316000D02*
G75*
G02*
X8455000Y-9316000I-15000J0D01*
G01*
X8455000Y-9316000D02*
G75*
G02*
X8485000Y-9316000I15000J0D01*
G01*
X8485000Y-9492000D02*
G75*
G02*
X8455000Y-9492000I-15000J0D01*
G01*
X8455000Y-9492000D02*
G75*
G02*
X8485000Y-9492000I15000J0D01*
G01*
X8485000Y-9668000D02*
G75*
G02*
X8455000Y-9668000I-15000J0D01*
G01*
X8455000Y-9668000D02*
G75*
G02*
X8485000Y-9668000I15000J0D01*
G01*
X8485000Y-9844000D02*
G75*
G02*
X8455000Y-9844000I-15000J0D01*
G01*
X8455000Y-9844000D02*
G75*
G02*
X8485000Y-9844000I15000J0D01*
G01*
X8485000Y-10020000D02*
G75*
G02*
X8455000Y-10020000I-15000J0D01*
G01*
X8455000Y-10020000D02*
G75*
G02*
X8485000Y-10020000I15000J0D01*
G01*
X8485000Y-10208000D02*
G75*
G02*
X8455000Y-10208000I-15000J0D01*
G01*
X8455000Y-10208000D02*
G75*
G02*
X8485000Y-10208000I15000J0D01*
G01*
X8485000Y-10384000D02*
G75*
G02*
X8455000Y-10384000I-15000J0D01*
G01*
X8455000Y-10384000D02*
G75*
G02*
X8485000Y-10384000I15000J0D01*
G01*
X8498333Y-8850000D02*
G75*
G02*
X8468333Y-8850000I-15000J0D01*
G01*
X8468333Y-8850000D02*
G75*
G02*
X8498333Y-8850000I15000J0D01*
G01*
X8575000Y-11940000D02*
G75*
G02*
X8545000Y-11940000I-15000J0D01*
G01*
X8545000Y-11940000D02*
G75*
G02*
X8575000Y-11940000I15000J0D01*
G01*
X8585000Y-11440000D02*
G75*
G02*
X8555000Y-11440000I-15000J0D01*
G01*
X8555000Y-11440000D02*
G75*
G02*
X8585000Y-11440000I15000J0D01*
G01*
X8655000Y-10650000D02*
G75*
G02*
X8625000Y-10650000I-15000J0D01*
G01*
X8625000Y-10650000D02*
G75*
G02*
X8655000Y-10650000I15000J0D01*
G01*
X8655000Y-10820000D02*
G75*
G02*
X8625000Y-10820000I-15000J0D01*
G01*
X8625000Y-10820000D02*
G75*
G02*
X8655000Y-10820000I15000J0D01*
G01*
X8655000Y-10990000D02*
G75*
G02*
X8625000Y-10990000I-15000J0D01*
G01*
X8625000Y-10990000D02*
G75*
G02*
X8655000Y-10990000I15000J0D01*
G01*
X8655000Y-11150000D02*
G75*
G02*
X8625000Y-11150000I-15000J0D01*
G01*
X8625000Y-11150000D02*
G75*
G02*
X8655000Y-11150000I15000J0D01*
G01*
X8708333Y-13280000D02*
G75*
G02*
X8678333Y-13280000I-15000J0D01*
G01*
X8678333Y-13280000D02*
G75*
G02*
X8708333Y-13280000I15000J0D01*
G01*
X8741667Y-8850000D02*
G75*
G02*
X8711667Y-8850000I-15000J0D01*
G01*
X8711667Y-8850000D02*
G75*
G02*
X8741667Y-8850000I15000J0D01*
G01*
X8755000Y-11310000D02*
G75*
G02*
X8725000Y-11310000I-15000J0D01*
G01*
X8725000Y-11310000D02*
G75*
G02*
X8755000Y-11310000I15000J0D01*
G01*
X8765000Y-12030000D02*
G75*
G02*
X8735000Y-12030000I-15000J0D01*
G01*
X8735000Y-12030000D02*
G75*
G02*
X8765000Y-12030000I15000J0D01*
G01*
X8855000Y-10710000D02*
G75*
G02*
X8825000Y-10710000I-15000J0D01*
G01*
X8825000Y-10710000D02*
G75*
G02*
X8855000Y-10710000I15000J0D01*
G01*
X8855000Y-10870000D02*
G75*
G02*
X8825000Y-10870000I-15000J0D01*
G01*
X8825000Y-10870000D02*
G75*
G02*
X8855000Y-10870000I15000J0D01*
G01*
X8855000Y-11040000D02*
G75*
G02*
X8825000Y-11040000I-15000J0D01*
G01*
X8825000Y-11040000D02*
G75*
G02*
X8855000Y-11040000I15000J0D01*
G01*
X8935000Y-11940000D02*
G75*
G02*
X8905000Y-11940000I-15000J0D01*
G01*
X8905000Y-11940000D02*
G75*
G02*
X8935000Y-11940000I15000J0D01*
G01*
X8951667Y-13280000D02*
G75*
G02*
X8921667Y-13280000I-15000J0D01*
G01*
X8921667Y-13280000D02*
G75*
G02*
X8951667Y-13280000I15000J0D01*
G01*
X8975000Y-11160000D02*
G75*
G02*
X8945000Y-11160000I-15000J0D01*
G01*
X8945000Y-11160000D02*
G75*
G02*
X8975000Y-11160000I15000J0D01*
G01*
X8985000Y-8850000D02*
G75*
G02*
X8955000Y-8850000I-15000J0D01*
G01*
X8955000Y-8850000D02*
G75*
G02*
X8985000Y-8850000I15000J0D01*
G01*
X9000000Y-9990000D02*
G75*
G02*
X8970000Y-9990000I-15000J0D01*
G01*
X8970000Y-9990000D02*
G75*
G02*
X9000000Y-9990000I15000J0D01*
G01*
X9055000Y-10620000D02*
G75*
G02*
X9025000Y-10620000I-15000J0D01*
G01*
X9025000Y-10620000D02*
G75*
G02*
X9055000Y-10620000I15000J0D01*
G01*
X9055000Y-10760000D02*
G75*
G02*
X9025000Y-10760000I-15000J0D01*
G01*
X9025000Y-10760000D02*
G75*
G02*
X9055000Y-10760000I15000J0D01*
G01*
X9055000Y-10900000D02*
G75*
G02*
X9025000Y-10900000I-15000J0D01*
G01*
X9025000Y-10900000D02*
G75*
G02*
X9055000Y-10900000I15000J0D01*
G01*
X9055000Y-11020000D02*
G75*
G02*
X9025000Y-11020000I-15000J0D01*
G01*
X9025000Y-11020000D02*
G75*
G02*
X9055000Y-11020000I15000J0D01*
G01*
X9105000Y-9750000D02*
G75*
G02*
X9075000Y-9750000I-15000J0D01*
G01*
X9075000Y-9750000D02*
G75*
G02*
X9105000Y-9750000I15000J0D01*
G01*
X9137000Y-11940000D02*
G75*
G02*
X9107000Y-11940000I-15000J0D01*
G01*
X9107000Y-11940000D02*
G75*
G02*
X9137000Y-11940000I15000J0D01*
G01*
X9150000Y-10095000D02*
G75*
G02*
X9120000Y-10095000I-15000J0D01*
G01*
X9120000Y-10095000D02*
G75*
G02*
X9150000Y-10095000I15000J0D01*
G01*
X9195000Y-13280000D02*
G75*
G02*
X9165000Y-13280000I-15000J0D01*
G01*
X9165000Y-13280000D02*
G75*
G02*
X9195000Y-13280000I15000J0D01*
G01*
X9211000Y-10620000D02*
G75*
G02*
X9181000Y-10620000I-15000J0D01*
G01*
X9181000Y-10620000D02*
G75*
G02*
X9211000Y-10620000I15000J0D01*
G01*
X9228333Y-8850000D02*
G75*
G02*
X9198333Y-8850000I-15000J0D01*
G01*
X9198333Y-8850000D02*
G75*
G02*
X9228333Y-8850000I15000J0D01*
G01*
X9335000Y-11940000D02*
G75*
G02*
X9305000Y-11940000I-15000J0D01*
G01*
X9305000Y-11940000D02*
G75*
G02*
X9335000Y-11940000I15000J0D01*
G01*
X9345000Y-9880000D02*
G75*
G02*
X9315000Y-9880000I-15000J0D01*
G01*
X9315000Y-9880000D02*
G75*
G02*
X9345000Y-9880000I15000J0D01*
G01*
X9365000Y-10620000D02*
G75*
G02*
X9335000Y-10620000I-15000J0D01*
G01*
X9335000Y-10620000D02*
G75*
G02*
X9365000Y-10620000I15000J0D01*
G01*
X9431667Y-13280000D02*
G75*
G02*
X9401667Y-13280000I-15000J0D01*
G01*
X9401667Y-13280000D02*
G75*
G02*
X9431667Y-13280000I15000J0D01*
G01*
X9468333Y-8850000D02*
G75*
G02*
X9438333Y-8850000I-15000J0D01*
G01*
X9438333Y-8850000D02*
G75*
G02*
X9468333Y-8850000I15000J0D01*
G01*
X9495000Y-10620000D02*
G75*
G02*
X9465000Y-10620000I-15000J0D01*
G01*
X9465000Y-10620000D02*
G75*
G02*
X9495000Y-10620000I15000J0D01*
G01*
X9525000Y-12840000D02*
G75*
G02*
X9495000Y-12840000I-15000J0D01*
G01*
X9495000Y-12840000D02*
G75*
G02*
X9525000Y-12840000I15000J0D01*
G01*
X9525300Y-12705100D02*
G75*
G02*
X9495300Y-12705100I-15000J0D01*
G01*
X9495300Y-12705100D02*
G75*
G02*
X9525300Y-12705100I15000J0D01*
G01*
X9555000Y-11940000D02*
G75*
G02*
X9525000Y-11940000I-15000J0D01*
G01*
X9525000Y-11940000D02*
G75*
G02*
X9555000Y-11940000I15000J0D01*
G01*
X9556170Y-12575682D02*
G75*
G02*
X9526170Y-12575682I-15000J0D01*
G01*
X9526170Y-12575682D02*
G75*
G02*
X9556170Y-12575682I15000J0D01*
G01*
X9595000Y-10700000D02*
G75*
G02*
X9565000Y-10700000I-15000J0D01*
G01*
X9565000Y-10700000D02*
G75*
G02*
X9595000Y-10700000I15000J0D01*
G01*
X9675000Y-13280000D02*
G75*
G02*
X9645000Y-13280000I-15000J0D01*
G01*
X9645000Y-13280000D02*
G75*
G02*
X9675000Y-13280000I15000J0D01*
G01*
X9680000Y-10790000D02*
G75*
G02*
X9650000Y-10790000I-15000J0D01*
G01*
X9650000Y-10790000D02*
G75*
G02*
X9680000Y-10790000I15000J0D01*
G01*
X9711667Y-8850000D02*
G75*
G02*
X9681667Y-8850000I-15000J0D01*
G01*
X9681667Y-8850000D02*
G75*
G02*
X9711667Y-8850000I15000J0D01*
G01*
X9757000Y-11940000D02*
G75*
G02*
X9727000Y-11940000I-15000J0D01*
G01*
X9727000Y-11940000D02*
G75*
G02*
X9757000Y-11940000I15000J0D01*
G01*
X9777150Y-12573142D02*
G75*
G02*
X9747150Y-12573142I-15000J0D01*
G01*
X9747150Y-12573142D02*
G75*
G02*
X9777150Y-12573142I15000J0D01*
G01*
X9780000Y-10895000D02*
G75*
G02*
X9750000Y-10895000I-15000J0D01*
G01*
X9750000Y-10895000D02*
G75*
G02*
X9780000Y-10895000I15000J0D01*
G01*
X9804700Y-12710180D02*
G75*
G02*
X9774700Y-12710180I-15000J0D01*
G01*
X9774700Y-12710180D02*
G75*
G02*
X9804700Y-12710180I15000J0D01*
G01*
X9805000Y-12850000D02*
G75*
G02*
X9775000Y-12850000I-15000J0D01*
G01*
X9775000Y-12850000D02*
G75*
G02*
X9805000Y-12850000I15000J0D01*
G01*
X9870000Y-10990000D02*
G75*
G02*
X9840000Y-10990000I-15000J0D01*
G01*
X9840000Y-10990000D02*
G75*
G02*
X9870000Y-10990000I15000J0D01*
G01*
X9875000Y-9570000D02*
G75*
G02*
X9845000Y-9570000I-15000J0D01*
G01*
X9845000Y-9570000D02*
G75*
G02*
X9875000Y-9570000I15000J0D01*
G01*
X9918333Y-13280000D02*
G75*
G02*
X9888333Y-13280000I-15000J0D01*
G01*
X9888333Y-13280000D02*
G75*
G02*
X9918333Y-13280000I15000J0D01*
G01*
X9935000Y-10360000D02*
G75*
G02*
X9905000Y-10360000I-15000J0D01*
G01*
X9905000Y-10360000D02*
G75*
G02*
X9935000Y-10360000I15000J0D01*
G01*
X9955000Y-8850000D02*
G75*
G02*
X9925000Y-8850000I-15000J0D01*
G01*
X9925000Y-8850000D02*
G75*
G02*
X9955000Y-8850000I15000J0D01*
G01*
X9955000Y-11940000D02*
G75*
G02*
X9925000Y-11940000I-15000J0D01*
G01*
X9925000Y-11940000D02*
G75*
G02*
X9955000Y-11940000I15000J0D01*
G01*
X10015000Y-9670000D02*
G75*
G02*
X9985000Y-9670000I-15000J0D01*
G01*
X9985000Y-9670000D02*
G75*
G02*
X10015000Y-9670000I15000J0D01*
G01*
X10025000Y-11150000D02*
G75*
G02*
X9995000Y-11150000I-15000J0D01*
G01*
X9995000Y-11150000D02*
G75*
G02*
X10025000Y-11150000I15000J0D01*
G01*
X10078480Y-11447780D02*
G75*
G02*
X10048480Y-11447780I-15000J0D01*
G01*
X10048480Y-11447780D02*
G75*
G02*
X10078480Y-11447780I15000J0D01*
G01*
X10100000Y-11225000D02*
G75*
G02*
X10070000Y-11225000I-15000J0D01*
G01*
X10070000Y-11225000D02*
G75*
G02*
X10100000Y-11225000I15000J0D01*
G01*
X10148333Y-13280000D02*
G75*
G02*
X10118333Y-13280000I-15000J0D01*
G01*
X10118333Y-13280000D02*
G75*
G02*
X10148333Y-13280000I15000J0D01*
G01*
X10163260Y-11630660D02*
G75*
G02*
X10133260Y-11630660I-15000J0D01*
G01*
X10133260Y-11630660D02*
G75*
G02*
X10163260Y-11630660I15000J0D01*
G01*
X10164840Y-11818620D02*
G75*
G02*
X10134840Y-11818620I-15000J0D01*
G01*
X10134840Y-11818620D02*
G75*
G02*
X10164840Y-11818620I15000J0D01*
G01*
X10165000Y-9230000D02*
G75*
G02*
X10135000Y-9230000I-15000J0D01*
G01*
X10135000Y-9230000D02*
G75*
G02*
X10165000Y-9230000I15000J0D01*
G01*
X10205000Y-8850000D02*
G75*
G02*
X10175000Y-8850000I-15000J0D01*
G01*
X10175000Y-8850000D02*
G75*
G02*
X10205000Y-8850000I15000J0D01*
G01*
X10275000Y-9000000D02*
G75*
G02*
X10245000Y-9000000I-15000J0D01*
G01*
X10245000Y-9000000D02*
G75*
G02*
X10275000Y-9000000I15000J0D01*
G01*
X10300000Y-10740000D02*
G75*
G02*
X10270000Y-10740000I-15000J0D01*
G01*
X10270000Y-10740000D02*
G75*
G02*
X10300000Y-10740000I15000J0D01*
G01*
X10315000Y-12120000D02*
G75*
G02*
X10285000Y-12120000I-15000J0D01*
G01*
X10285000Y-12120000D02*
G75*
G02*
X10315000Y-12120000I15000J0D01*
G01*
X10341855Y-10047821D02*
G75*
G02*
X10311855Y-10047821I-15000J0D01*
G01*
X10311855Y-10047821D02*
G75*
G02*
X10341855Y-10047821I15000J0D01*
G01*
X10345000Y-9730000D02*
G75*
G02*
X10315000Y-9730000I-15000J0D01*
G01*
X10315000Y-9730000D02*
G75*
G02*
X10345000Y-9730000I15000J0D01*
G01*
X10345000Y-9830000D02*
G75*
G02*
X10315000Y-9830000I-15000J0D01*
G01*
X10315000Y-9830000D02*
G75*
G02*
X10345000Y-9830000I15000J0D01*
G01*
X10345000Y-9940000D02*
G75*
G02*
X10315000Y-9940000I-15000J0D01*
G01*
X10315000Y-9940000D02*
G75*
G02*
X10345000Y-9940000I15000J0D01*
G01*
X10361990Y-11713630D02*
G75*
G02*
X10331990Y-11713630I-15000J0D01*
G01*
X10331990Y-11713630D02*
G75*
G02*
X10361990Y-11713630I15000J0D01*
G01*
X10361990Y-11877460D02*
G75*
G02*
X10331990Y-11877460I-15000J0D01*
G01*
X10331990Y-11877460D02*
G75*
G02*
X10361990Y-11877460I15000J0D01*
G01*
X10365500Y-11551920D02*
G75*
G02*
X10335500Y-11551920I-15000J0D01*
G01*
X10335500Y-11551920D02*
G75*
G02*
X10365500Y-11551920I15000J0D01*
G01*
X10391667Y-13280000D02*
G75*
G02*
X10361667Y-13280000I-15000J0D01*
G01*
X10361667Y-13280000D02*
G75*
G02*
X10391667Y-13280000I15000J0D01*
G01*
X10441855Y-10047821D02*
G75*
G02*
X10411855Y-10047821I-15000J0D01*
G01*
X10411855Y-10047821D02*
G75*
G02*
X10441855Y-10047821I15000J0D01*
G01*
X10445000Y-9730000D02*
G75*
G02*
X10415000Y-9730000I-15000J0D01*
G01*
X10415000Y-9730000D02*
G75*
G02*
X10445000Y-9730000I15000J0D01*
G01*
X10456160Y-11298340D02*
G75*
G02*
X10426160Y-11298340I-15000J0D01*
G01*
X10426160Y-11298340D02*
G75*
G02*
X10456160Y-11298340I15000J0D01*
G01*
X10465000Y-11950000D02*
G75*
G02*
X10435000Y-11950000I-15000J0D01*
G01*
X10435000Y-11950000D02*
G75*
G02*
X10465000Y-11950000I15000J0D01*
G01*
X10465000Y-12060000D02*
G75*
G02*
X10435000Y-12060000I-15000J0D01*
G01*
X10435000Y-12060000D02*
G75*
G02*
X10465000Y-12060000I15000J0D01*
G01*
X10485000Y-10160000D02*
G75*
G02*
X10455000Y-10160000I-15000J0D01*
G01*
X10455000Y-10160000D02*
G75*
G02*
X10485000Y-10160000I15000J0D01*
G01*
X10495000Y-8850000D02*
G75*
G02*
X10465000Y-8850000I-15000J0D01*
G01*
X10465000Y-8850000D02*
G75*
G02*
X10495000Y-8850000I15000J0D01*
G01*
X10551855Y-10047821D02*
G75*
G02*
X10521855Y-10047821I-15000J0D01*
G01*
X10521855Y-10047821D02*
G75*
G02*
X10551855Y-10047821I15000J0D01*
G01*
X10555000Y-9730000D02*
G75*
G02*
X10525000Y-9730000I-15000J0D01*
G01*
X10525000Y-9730000D02*
G75*
G02*
X10555000Y-9730000I15000J0D01*
G01*
X10585000Y-11710000D02*
G75*
G02*
X10555000Y-11710000I-15000J0D01*
G01*
X10555000Y-11710000D02*
G75*
G02*
X10585000Y-11710000I15000J0D01*
G01*
X10622040Y-11303000D02*
G75*
G02*
X10592040Y-11303000I-15000J0D01*
G01*
X10592040Y-11303000D02*
G75*
G02*
X10622040Y-11303000I15000J0D01*
G01*
X10635000Y-13280000D02*
G75*
G02*
X10605000Y-13280000I-15000J0D01*
G01*
X10605000Y-13280000D02*
G75*
G02*
X10635000Y-13280000I15000J0D01*
G01*
X10651855Y-10047821D02*
G75*
G02*
X10621855Y-10047821I-15000J0D01*
G01*
X10621855Y-10047821D02*
G75*
G02*
X10651855Y-10047821I15000J0D01*
G01*
X10655000Y-9730000D02*
G75*
G02*
X10625000Y-9730000I-15000J0D01*
G01*
X10625000Y-9730000D02*
G75*
G02*
X10655000Y-9730000I15000J0D01*
G01*
X10725000Y-9010000D02*
G75*
G02*
X10695000Y-9010000I-15000J0D01*
G01*
X10695000Y-9010000D02*
G75*
G02*
X10725000Y-9010000I15000J0D01*
G01*
X10725000Y-9090000D02*
G75*
G02*
X10695000Y-9090000I-15000J0D01*
G01*
X10695000Y-9090000D02*
G75*
G02*
X10725000Y-9090000I15000J0D01*
G01*
X10725000Y-9190000D02*
G75*
G02*
X10695000Y-9190000I-15000J0D01*
G01*
X10695000Y-9190000D02*
G75*
G02*
X10725000Y-9190000I15000J0D01*
G01*
X10730000Y-8850000D02*
G75*
G02*
X10700000Y-8850000I-15000J0D01*
G01*
X10700000Y-8850000D02*
G75*
G02*
X10730000Y-8850000I15000J0D01*
G01*
X10738333Y-12050000D02*
G75*
G02*
X10708333Y-12050000I-15000J0D01*
G01*
X10708333Y-12050000D02*
G75*
G02*
X10738333Y-12050000I15000J0D01*
G01*
X10741667Y-11880000D02*
G75*
G02*
X10711667Y-11880000I-15000J0D01*
G01*
X10711667Y-11880000D02*
G75*
G02*
X10741667Y-11880000I15000J0D01*
G01*
X10751855Y-10047821D02*
G75*
G02*
X10721855Y-10047821I-15000J0D01*
G01*
X10721855Y-10047821D02*
G75*
G02*
X10751855Y-10047821I15000J0D01*
G01*
X10755000Y-9730000D02*
G75*
G02*
X10725000Y-9730000I-15000J0D01*
G01*
X10725000Y-9730000D02*
G75*
G02*
X10755000Y-9730000I15000J0D01*
G01*
X10878333Y-13280000D02*
G75*
G02*
X10848333Y-13280000I-15000J0D01*
G01*
X10848333Y-13280000D02*
G75*
G02*
X10878333Y-13280000I15000J0D01*
G01*
X10927000Y-10920000D02*
G75*
G02*
X10897000Y-10920000I-15000J0D01*
G01*
X10897000Y-10920000D02*
G75*
G02*
X10927000Y-10920000I15000J0D01*
G01*
X10955720Y-11729720D02*
G75*
G02*
X10925720Y-11729720I-15000J0D01*
G01*
X10925720Y-11729720D02*
G75*
G02*
X10955720Y-11729720I15000J0D01*
G01*
X10981667Y-12050000D02*
G75*
G02*
X10951667Y-12050000I-15000J0D01*
G01*
X10951667Y-12050000D02*
G75*
G02*
X10981667Y-12050000I15000J0D01*
G01*
X10985000Y-11880000D02*
G75*
G02*
X10955000Y-11880000I-15000J0D01*
G01*
X10955000Y-11880000D02*
G75*
G02*
X10985000Y-11880000I15000J0D01*
G01*
X11016582Y-10406999D02*
G75*
G02*
X10986582Y-10406999I-15000J0D01*
G01*
X10986582Y-10406999D02*
G75*
G02*
X11016582Y-10406999I15000J0D01*
G01*
X11018280Y-8895080D02*
G75*
G02*
X10988280Y-8895080I-15000J0D01*
G01*
X10988280Y-8895080D02*
G75*
G02*
X11018280Y-8895080I15000J0D01*
G01*
X11018280Y-8980000D02*
G75*
G02*
X10988280Y-8980000I-15000J0D01*
G01*
X10988280Y-8980000D02*
G75*
G02*
X11018280Y-8980000I15000J0D01*
G01*
X11099560Y-10670540D02*
G75*
G02*
X11069560Y-10670540I-15000J0D01*
G01*
X11069560Y-10670540D02*
G75*
G02*
X11099560Y-10670540I15000J0D01*
G01*
X11099560Y-10772140D02*
G75*
G02*
X11069560Y-10772140I-15000J0D01*
G01*
X11069560Y-10772140D02*
G75*
G02*
X11099560Y-10772140I15000J0D01*
G01*
X11103000Y-10920000D02*
G75*
G02*
X11073000Y-10920000I-15000J0D01*
G01*
X11073000Y-10920000D02*
G75*
G02*
X11103000Y-10920000I15000J0D01*
G01*
X11115000Y-10300000D02*
G75*
G02*
X11085000Y-10300000I-15000J0D01*
G01*
X11085000Y-10300000D02*
G75*
G02*
X11115000Y-10300000I15000J0D01*
G01*
X11118333Y-13280000D02*
G75*
G02*
X11088333Y-13280000I-15000J0D01*
G01*
X11088333Y-13280000D02*
G75*
G02*
X11118333Y-13280000I15000J0D01*
G01*
X11125000Y-9614000D02*
G75*
G02*
X11095000Y-9614000I-15000J0D01*
G01*
X11095000Y-9614000D02*
G75*
G02*
X11125000Y-9614000I15000J0D01*
G01*
X11125000Y-9790000D02*
G75*
G02*
X11095000Y-9790000I-15000J0D01*
G01*
X11095000Y-9790000D02*
G75*
G02*
X11125000Y-9790000I15000J0D01*
G01*
X11177000Y-9120000D02*
G75*
G02*
X11147000Y-9120000I-15000J0D01*
G01*
X11147000Y-9120000D02*
G75*
G02*
X11177000Y-9120000I15000J0D01*
G01*
X11225000Y-10200000D02*
G75*
G02*
X11195000Y-10200000I-15000J0D01*
G01*
X11195000Y-10200000D02*
G75*
G02*
X11225000Y-10200000I15000J0D01*
G01*
X11225000Y-12050000D02*
G75*
G02*
X11195000Y-12050000I-15000J0D01*
G01*
X11195000Y-12050000D02*
G75*
G02*
X11225000Y-12050000I15000J0D01*
G01*
X11225000Y-12250000D02*
G75*
G02*
X11195000Y-12250000I-15000J0D01*
G01*
X11195000Y-12250000D02*
G75*
G02*
X11225000Y-12250000I15000J0D01*
G01*
X11225000Y-12453333D02*
G75*
G02*
X11195000Y-12453333I-15000J0D01*
G01*
X11195000Y-12453333D02*
G75*
G02*
X11225000Y-12453333I15000J0D01*
G01*
X11228333Y-11880000D02*
G75*
G02*
X11198333Y-11880000I-15000J0D01*
G01*
X11198333Y-11880000D02*
G75*
G02*
X11228333Y-11880000I15000J0D01*
G01*
X11253000Y-8900000D02*
G75*
G02*
X11223000Y-8900000I-15000J0D01*
G01*
X11223000Y-8900000D02*
G75*
G02*
X11253000Y-8900000I15000J0D01*
G01*
X11277395Y-11253780D02*
G75*
G02*
X11247395Y-11253780I-15000J0D01*
G01*
X11247395Y-11253780D02*
G75*
G02*
X11277395Y-11253780I15000J0D01*
G01*
X11279000Y-10920000D02*
G75*
G02*
X11249000Y-10920000I-15000J0D01*
G01*
X11249000Y-10920000D02*
G75*
G02*
X11279000Y-10920000I15000J0D01*
G01*
X11285000Y-9614000D02*
G75*
G02*
X11255000Y-9614000I-15000J0D01*
G01*
X11255000Y-9614000D02*
G75*
G02*
X11285000Y-9614000I15000J0D01*
G01*
X11285000Y-9790000D02*
G75*
G02*
X11255000Y-9790000I-15000J0D01*
G01*
X11255000Y-9790000D02*
G75*
G02*
X11285000Y-9790000I15000J0D01*
G01*
X11343000Y-10000000D02*
G75*
G02*
X11313000Y-10000000I-15000J0D01*
G01*
X11313000Y-10000000D02*
G75*
G02*
X11343000Y-10000000I15000J0D01*
G01*
X11347000Y-9390000D02*
G75*
G02*
X11317000Y-9390000I-15000J0D01*
G01*
X11317000Y-9390000D02*
G75*
G02*
X11347000Y-9390000I15000J0D01*
G01*
X11353000Y-9120000D02*
G75*
G02*
X11323000Y-9120000I-15000J0D01*
G01*
X11323000Y-9120000D02*
G75*
G02*
X11353000Y-9120000I15000J0D01*
G01*
X11361667Y-13280000D02*
G75*
G02*
X11331667Y-13280000I-15000J0D01*
G01*
X11331667Y-13280000D02*
G75*
G02*
X11361667Y-13280000I15000J0D01*
G01*
X11371000Y-10510000D02*
G75*
G02*
X11341000Y-10510000I-15000J0D01*
G01*
X11341000Y-10510000D02*
G75*
G02*
X11371000Y-10510000I15000J0D01*
G01*
X11407000Y-10220000D02*
G75*
G02*
X11377000Y-10220000I-15000J0D01*
G01*
X11377000Y-10220000D02*
G75*
G02*
X11407000Y-10220000I15000J0D01*
G01*
X11429000Y-8900000D02*
G75*
G02*
X11399000Y-8900000I-15000J0D01*
G01*
X11399000Y-8900000D02*
G75*
G02*
X11429000Y-8900000I15000J0D01*
G01*
X11447601Y-12451631D02*
G75*
G02*
X11417601Y-12451631I-15000J0D01*
G01*
X11417601Y-12451631D02*
G75*
G02*
X11447601Y-12451631I15000J0D01*
G01*
X11455000Y-10920000D02*
G75*
G02*
X11425000Y-10920000I-15000J0D01*
G01*
X11425000Y-10920000D02*
G75*
G02*
X11455000Y-10920000I15000J0D01*
G01*
X11505000Y-11255000D02*
G75*
G02*
X11475000Y-11255000I-15000J0D01*
G01*
X11475000Y-11255000D02*
G75*
G02*
X11505000Y-11255000I15000J0D01*
G01*
X11510670Y-12112068D02*
G75*
G02*
X11480670Y-12112068I-15000J0D01*
G01*
X11480670Y-12112068D02*
G75*
G02*
X11510670Y-12112068I15000J0D01*
G01*
X11519000Y-10000000D02*
G75*
G02*
X11489000Y-10000000I-15000J0D01*
G01*
X11489000Y-10000000D02*
G75*
G02*
X11519000Y-10000000I15000J0D01*
G01*
X11523000Y-9390000D02*
G75*
G02*
X11493000Y-9390000I-15000J0D01*
G01*
X11493000Y-9390000D02*
G75*
G02*
X11523000Y-9390000I15000J0D01*
G01*
X11529000Y-9120000D02*
G75*
G02*
X11499000Y-9120000I-15000J0D01*
G01*
X11499000Y-9120000D02*
G75*
G02*
X11529000Y-9120000I15000J0D01*
G01*
X11547000Y-10510000D02*
G75*
G02*
X11517000Y-10510000I-15000J0D01*
G01*
X11517000Y-10510000D02*
G75*
G02*
X11547000Y-10510000I15000J0D01*
G01*
X11583000Y-10220000D02*
G75*
G02*
X11553000Y-10220000I-15000J0D01*
G01*
X11553000Y-10220000D02*
G75*
G02*
X11583000Y-10220000I15000J0D01*
G01*
X11605000Y-8900000D02*
G75*
G02*
X11575000Y-8900000I-15000J0D01*
G01*
X11575000Y-8900000D02*
G75*
G02*
X11605000Y-8900000I15000J0D01*
G01*
X11605000Y-13280000D02*
G75*
G02*
X11575000Y-13280000I-15000J0D01*
G01*
X11575000Y-13280000D02*
G75*
G02*
X11605000Y-13280000I15000J0D01*
G01*
X11625000Y-11940000D02*
G75*
G02*
X11595000Y-11940000I-15000J0D01*
G01*
X11595000Y-11940000D02*
G75*
G02*
X11625000Y-11940000I15000J0D01*
G01*
X11635500Y-11728570D02*
G75*
G02*
X11605500Y-11728570I-15000J0D01*
G01*
X11605500Y-11728570D02*
G75*
G02*
X11635500Y-11728570I15000J0D01*
G01*
X11643120Y-10873740D02*
G75*
G02*
X11613120Y-10873740I-15000J0D01*
G01*
X11613120Y-10873740D02*
G75*
G02*
X11643120Y-10873740I15000J0D01*
G01*
X11648213Y-12429373D02*
G75*
G02*
X11618213Y-12429373I-15000J0D01*
G01*
X11618213Y-12429373D02*
G75*
G02*
X11648213Y-12429373I15000J0D01*
G01*
X11695000Y-10000000D02*
G75*
G02*
X11665000Y-10000000I-15000J0D01*
G01*
X11665000Y-10000000D02*
G75*
G02*
X11695000Y-10000000I15000J0D01*
G01*
X11699000Y-9390000D02*
G75*
G02*
X11669000Y-9390000I-15000J0D01*
G01*
X11669000Y-9390000D02*
G75*
G02*
X11699000Y-9390000I15000J0D01*
G01*
X11705000Y-9120000D02*
G75*
G02*
X11675000Y-9120000I-15000J0D01*
G01*
X11675000Y-9120000D02*
G75*
G02*
X11705000Y-9120000I15000J0D01*
G01*
X11723000Y-10510000D02*
G75*
G02*
X11693000Y-10510000I-15000J0D01*
G01*
X11693000Y-10510000D02*
G75*
G02*
X11723000Y-10510000I15000J0D01*
G01*
X11759000Y-10220000D02*
G75*
G02*
X11729000Y-10220000I-15000J0D01*
G01*
X11729000Y-10220000D02*
G75*
G02*
X11759000Y-10220000I15000J0D01*
G01*
X11781000Y-8900000D02*
G75*
G02*
X11751000Y-8900000I-15000J0D01*
G01*
X11751000Y-8900000D02*
G75*
G02*
X11781000Y-8900000I15000J0D01*
G01*
X11823170Y-12077311D02*
G75*
G02*
X11793170Y-12077311I-15000J0D01*
G01*
X11793170Y-12077311D02*
G75*
G02*
X11823170Y-12077311I15000J0D01*
G01*
X11845000Y-13280000D02*
G75*
G02*
X11815000Y-13280000I-15000J0D01*
G01*
X11815000Y-13280000D02*
G75*
G02*
X11845000Y-13280000I15000J0D01*
G01*
X11871000Y-10000000D02*
G75*
G02*
X11841000Y-10000000I-15000J0D01*
G01*
X11841000Y-10000000D02*
G75*
G02*
X11871000Y-10000000I15000J0D01*
G01*
X11875000Y-9390000D02*
G75*
G02*
X11845000Y-9390000I-15000J0D01*
G01*
X11845000Y-9390000D02*
G75*
G02*
X11875000Y-9390000I15000J0D01*
G01*
X11881000Y-9120000D02*
G75*
G02*
X11851000Y-9120000I-15000J0D01*
G01*
X11851000Y-9120000D02*
G75*
G02*
X11881000Y-9120000I15000J0D01*
G01*
X11895000Y-12160000D02*
G75*
G02*
X11865000Y-12160000I-15000J0D01*
G01*
X11865000Y-12160000D02*
G75*
G02*
X11895000Y-12160000I15000J0D01*
G01*
X11895000Y-12440000D02*
G75*
G02*
X11865000Y-12440000I-15000J0D01*
G01*
X11865000Y-12440000D02*
G75*
G02*
X11895000Y-12440000I15000J0D01*
G01*
X11899000Y-10510000D02*
G75*
G02*
X11869000Y-10510000I-15000J0D01*
G01*
X11869000Y-10510000D02*
G75*
G02*
X11899000Y-10510000I15000J0D01*
G01*
X11935000Y-10220000D02*
G75*
G02*
X11905000Y-10220000I-15000J0D01*
G01*
X11905000Y-10220000D02*
G75*
G02*
X11935000Y-10220000I15000J0D01*
G01*
X11957000Y-8900000D02*
G75*
G02*
X11927000Y-8900000I-15000J0D01*
G01*
X11927000Y-8900000D02*
G75*
G02*
X11957000Y-8900000I15000J0D01*
G01*
X11965000Y-9614000D02*
G75*
G02*
X11935000Y-9614000I-15000J0D01*
G01*
X11935000Y-9614000D02*
G75*
G02*
X11965000Y-9614000I15000J0D01*
G01*
X11965000Y-9790000D02*
G75*
G02*
X11935000Y-9790000I-15000J0D01*
G01*
X11935000Y-9790000D02*
G75*
G02*
X11965000Y-9790000I15000J0D01*
G01*
X11995000Y-12110000D02*
G75*
G02*
X11965000Y-12110000I-15000J0D01*
G01*
X11965000Y-12110000D02*
G75*
G02*
X11995000Y-12110000I15000J0D01*
G01*
X12005000Y-12480000D02*
G75*
G02*
X11975000Y-12480000I-15000J0D01*
G01*
X11975000Y-12480000D02*
G75*
G02*
X12005000Y-12480000I15000J0D01*
G01*
X12047000Y-10000000D02*
G75*
G02*
X12017000Y-10000000I-15000J0D01*
G01*
X12017000Y-10000000D02*
G75*
G02*
X12047000Y-10000000I15000J0D01*
G01*
X12049000Y-9120000D02*
G75*
G02*
X12019000Y-9120000I-15000J0D01*
G01*
X12019000Y-9120000D02*
G75*
G02*
X12049000Y-9120000I15000J0D01*
G01*
X12051000Y-9390000D02*
G75*
G02*
X12021000Y-9390000I-15000J0D01*
G01*
X12021000Y-9390000D02*
G75*
G02*
X12051000Y-9390000I15000J0D01*
G01*
X12075000Y-10510000D02*
G75*
G02*
X12045000Y-10510000I-15000J0D01*
G01*
X12045000Y-10510000D02*
G75*
G02*
X12075000Y-10510000I15000J0D01*
G01*
X12085000Y-13280000D02*
G75*
G02*
X12055000Y-13280000I-15000J0D01*
G01*
X12055000Y-13280000D02*
G75*
G02*
X12085000Y-13280000I15000J0D01*
G01*
X12125000Y-8900000D02*
G75*
G02*
X12095000Y-8900000I-15000J0D01*
G01*
X12095000Y-8900000D02*
G75*
G02*
X12125000Y-8900000I15000J0D01*
G01*
X12125000Y-9614000D02*
G75*
G02*
X12095000Y-9614000I-15000J0D01*
G01*
X12095000Y-9614000D02*
G75*
G02*
X12125000Y-9614000I15000J0D01*
G01*
X12125000Y-9790000D02*
G75*
G02*
X12095000Y-9790000I-15000J0D01*
G01*
X12095000Y-9790000D02*
G75*
G02*
X12125000Y-9790000I15000J0D01*
G01*
X12215000Y-10000000D02*
G75*
G02*
X12185000Y-10000000I-15000J0D01*
G01*
X12185000Y-10000000D02*
G75*
G02*
X12215000Y-10000000I15000J0D01*
G01*
X12219000Y-9390000D02*
G75*
G02*
X12189000Y-9390000I-15000J0D01*
G01*
X12189000Y-9390000D02*
G75*
G02*
X12219000Y-9390000I15000J0D01*
G01*
X12225000Y-9120000D02*
G75*
G02*
X12195000Y-9120000I-15000J0D01*
G01*
X12195000Y-9120000D02*
G75*
G02*
X12225000Y-9120000I15000J0D01*
G01*
X12265845Y-12357520D02*
G75*
G02*
X12235845Y-12357520I-15000J0D01*
G01*
X12235845Y-12357520D02*
G75*
G02*
X12265845Y-12357520I15000J0D01*
G01*
X12301000Y-8900000D02*
G75*
G02*
X12271000Y-8900000I-15000J0D01*
G01*
X12271000Y-8900000D02*
G75*
G02*
X12301000Y-8900000I15000J0D01*
G01*
X12305000Y-9614000D02*
G75*
G02*
X12275000Y-9614000I-15000J0D01*
G01*
X12275000Y-9614000D02*
G75*
G02*
X12305000Y-9614000I15000J0D01*
G01*
X12305000Y-9790000D02*
G75*
G02*
X12275000Y-9790000I-15000J0D01*
G01*
X12275000Y-9790000D02*
G75*
G02*
X12305000Y-9790000I15000J0D01*
G01*
X12307365Y-12169560D02*
G75*
G02*
X12277365Y-12169560I-15000J0D01*
G01*
X12277365Y-12169560D02*
G75*
G02*
X12307365Y-12169560I15000J0D01*
G01*
X12328333Y-13280000D02*
G75*
G02*
X12298333Y-13280000I-15000J0D01*
G01*
X12298333Y-13280000D02*
G75*
G02*
X12328333Y-13280000I15000J0D01*
G01*
X12391000Y-10000000D02*
G75*
G02*
X12361000Y-10000000I-15000J0D01*
G01*
X12361000Y-10000000D02*
G75*
G02*
X12391000Y-10000000I15000J0D01*
G01*
X12395000Y-9390000D02*
G75*
G02*
X12365000Y-9390000I-15000J0D01*
G01*
X12365000Y-9390000D02*
G75*
G02*
X12395000Y-9390000I15000J0D01*
G01*
X12463965Y-12357520D02*
G75*
G02*
X12433965Y-12357520I-15000J0D01*
G01*
X12433965Y-12357520D02*
G75*
G02*
X12463965Y-12357520I15000J0D01*
G01*
X12465000Y-9614000D02*
G75*
G02*
X12435000Y-9614000I-15000J0D01*
G01*
X12435000Y-9614000D02*
G75*
G02*
X12465000Y-9614000I15000J0D01*
G01*
X12465000Y-9790000D02*
G75*
G02*
X12435000Y-9790000I-15000J0D01*
G01*
X12435000Y-9790000D02*
G75*
G02*
X12465000Y-9790000I15000J0D01*
G01*
X12480000Y-11840000D02*
G75*
G02*
X12450000Y-11840000I-15000J0D01*
G01*
X12450000Y-11840000D02*
G75*
G02*
X12480000Y-11840000I15000J0D01*
G01*
X12506365Y-12169560D02*
G75*
G02*
X12476365Y-12169560I-15000J0D01*
G01*
X12476365Y-12169560D02*
G75*
G02*
X12506365Y-12169560I15000J0D01*
G01*
X12511800Y-10591800D02*
G75*
G02*
X12481800Y-10591800I-15000J0D01*
G01*
X12481800Y-10591800D02*
G75*
G02*
X12511800Y-10591800I15000J0D01*
G01*
X12516880Y-8902700D02*
G75*
G02*
X12486880Y-8902700I-15000J0D01*
G01*
X12486880Y-8902700D02*
G75*
G02*
X12516880Y-8902700I15000J0D01*
G01*
X12516880Y-8983980D02*
G75*
G02*
X12486880Y-8983980I-15000J0D01*
G01*
X12486880Y-8983980D02*
G75*
G02*
X12516880Y-8983980I15000J0D01*
G01*
X12539740Y-9324340D02*
G75*
G02*
X12509740Y-9324340I-15000J0D01*
G01*
X12509740Y-9324340D02*
G75*
G02*
X12539740Y-9324340I15000J0D01*
G01*
X12542280Y-9446260D02*
G75*
G02*
X12512280Y-9446260I-15000J0D01*
G01*
X12512280Y-9446260D02*
G75*
G02*
X12542280Y-9446260I15000J0D01*
G01*
X12571667Y-13280000D02*
G75*
G02*
X12541667Y-13280000I-15000J0D01*
G01*
X12541667Y-13280000D02*
G75*
G02*
X12571667Y-13280000I15000J0D01*
G01*
X12662085Y-12357520D02*
G75*
G02*
X12632085Y-12357520I-15000J0D01*
G01*
X12632085Y-12357520D02*
G75*
G02*
X12662085Y-12357520I15000J0D01*
G01*
X12705365Y-12169560D02*
G75*
G02*
X12675365Y-12169560I-15000J0D01*
G01*
X12675365Y-12169560D02*
G75*
G02*
X12705365Y-12169560I15000J0D01*
G01*
X12803900Y-8905240D02*
G75*
G02*
X12773900Y-8905240I-15000J0D01*
G01*
X12773900Y-8905240D02*
G75*
G02*
X12803900Y-8905240I15000J0D01*
G01*
X12803900Y-9000000D02*
G75*
G02*
X12773900Y-9000000I-15000J0D01*
G01*
X12773900Y-9000000D02*
G75*
G02*
X12803900Y-9000000I15000J0D01*
G01*
X12895000Y-13280000D02*
G75*
G02*
X12865000Y-13280000I-15000J0D01*
G01*
X12865000Y-13280000D02*
G75*
G02*
X12895000Y-13280000I15000J0D01*
G01*
X12955000Y-8850000D02*
G75*
G02*
X12925000Y-8850000I-15000J0D01*
G01*
X12925000Y-8850000D02*
G75*
G02*
X12955000Y-8850000I15000J0D01*
G01*
X13105000Y-8900000D02*
G75*
G02*
X13075000Y-8900000I-15000J0D01*
G01*
X13075000Y-8900000D02*
G75*
G02*
X13105000Y-8900000I15000J0D01*
G01*
X13115000Y-13220000D02*
G75*
G02*
X13085000Y-13220000I-15000J0D01*
G01*
X13085000Y-13220000D02*
G75*
G02*
X13115000Y-13220000I15000J0D01*
G01*
X13155000Y-9050000D02*
G75*
G02*
X13125000Y-9050000I-15000J0D01*
G01*
X13125000Y-9050000D02*
G75*
G02*
X13155000Y-9050000I15000J0D01*
G01*
X13155000Y-9286667D02*
G75*
G02*
X13125000Y-9286667I-15000J0D01*
G01*
X13125000Y-9286667D02*
G75*
G02*
X13155000Y-9286667I15000J0D01*
G01*
X13155000Y-9530000D02*
G75*
G02*
X13125000Y-9530000I-15000J0D01*
G01*
X13125000Y-9530000D02*
G75*
G02*
X13155000Y-9530000I15000J0D01*
G01*
X13155000Y-9773333D02*
G75*
G02*
X13125000Y-9773333I-15000J0D01*
G01*
X13125000Y-9773333D02*
G75*
G02*
X13155000Y-9773333I15000J0D01*
G01*
X13155000Y-10016667D02*
G75*
G02*
X13125000Y-10016667I-15000J0D01*
G01*
X13125000Y-10016667D02*
G75*
G02*
X13155000Y-10016667I15000J0D01*
G01*
X13155000Y-10256667D02*
G75*
G02*
X13125000Y-10256667I-15000J0D01*
G01*
X13125000Y-10256667D02*
G75*
G02*
X13155000Y-10256667I15000J0D01*
G01*
X13155000Y-10500000D02*
G75*
G02*
X13125000Y-10500000I-15000J0D01*
G01*
X13125000Y-10500000D02*
G75*
G02*
X13155000Y-10500000I15000J0D01*
G01*
X13155000Y-10743333D02*
G75*
G02*
X13125000Y-10743333I-15000J0D01*
G01*
X13125000Y-10743333D02*
G75*
G02*
X13155000Y-10743333I15000J0D01*
G01*
X13155000Y-10986667D02*
G75*
G02*
X13125000Y-10986667I-15000J0D01*
G01*
X13125000Y-10986667D02*
G75*
G02*
X13155000Y-10986667I15000J0D01*
G01*
X13155000Y-11250000D02*
G75*
G02*
X13125000Y-11250000I-15000J0D01*
G01*
X13125000Y-11250000D02*
G75*
G02*
X13155000Y-11250000I15000J0D01*
G01*
X13155000Y-11493333D02*
G75*
G02*
X13125000Y-11493333I-15000J0D01*
G01*
X13125000Y-11493333D02*
G75*
G02*
X13155000Y-11493333I15000J0D01*
G01*
X13155000Y-11736667D02*
G75*
G02*
X13125000Y-11736667I-15000J0D01*
G01*
X13125000Y-11736667D02*
G75*
G02*
X13155000Y-11736667I15000J0D01*
G01*
X13155000Y-11980000D02*
G75*
G02*
X13125000Y-11980000I-15000J0D01*
G01*
X13125000Y-11980000D02*
G75*
G02*
X13155000Y-11980000I15000J0D01*
G01*
X13155000Y-12220000D02*
G75*
G02*
X13125000Y-12220000I-15000J0D01*
G01*
X13125000Y-12220000D02*
G75*
G02*
X13155000Y-12220000I15000J0D01*
G01*
X13155000Y-12463333D02*
G75*
G02*
X13125000Y-12463333I-15000J0D01*
G01*
X13125000Y-12463333D02*
G75*
G02*
X13155000Y-12463333I15000J0D01*
G01*
X13155000Y-12706667D02*
G75*
G02*
X13125000Y-12706667I-15000J0D01*
G01*
X13125000Y-12706667D02*
G75*
G02*
X13155000Y-12706667I15000J0D01*
G01*
X13155000Y-12950000D02*
G75*
G02*
X13125000Y-12950000I-15000J0D01*
G01*
X13125000Y-12950000D02*
G75*
G02*
X13155000Y-12950000I15000J0D01*
G01*
X8650000Y-12200000D02*
X8650000Y-12280000D01*
X8610000Y-12240000D02*
X8690000Y-12240000D01*
X8904000Y-12200000D02*
X8904000Y-12280000D01*
X8864000Y-12240000D02*
X8944000Y-12240000D01*
X9158000Y-12200000D02*
X9158000Y-12280000D01*
X9118000Y-12240000D02*
X9198000Y-12240000D01*
X10416820Y-12511820D02*
X10416820Y-12448180D01*
X10353180Y-12448180D01*
X10353180Y-12511820D01*
X10416820Y-12511820D01*
X10518820Y-12257820D02*
X10518820Y-12194180D01*
X10455180Y-12194180D01*
X10455180Y-12257820D01*
X10518820Y-12257820D01*
X10620820Y-12511820D02*
X10620820Y-12448180D01*
X10557180Y-12448180D01*
X10557180Y-12511820D01*
X10620820Y-12511820D01*
X10722820Y-12257820D02*
X10722820Y-12194180D01*
X10659180Y-12194180D01*
X10659180Y-12257820D01*
X10722820Y-12257820D01*
X10824820Y-12511820D02*
X10824820Y-12448180D01*
X10761180Y-12448180D01*
X10761180Y-12511820D01*
X10824820Y-12511820D01*
X10926820Y-12257820D02*
X10926820Y-12194180D01*
X10863180Y-12194180D01*
X10863180Y-12257820D01*
X10926820Y-12257820D01*
D12*
X4745777Y-13736484D02*
X4745777Y-13536484D01*
X4745777Y-13536484D02*
X4793396Y-13536484D01*
X4793396Y-13536484D02*
X4821967Y-13546008D01*
X4821967Y-13546008D02*
X4841015Y-13565055D01*
X4841015Y-13565055D02*
X4850539Y-13584103D01*
X4850539Y-13584103D02*
X4860063Y-13622198D01*
X4860063Y-13622198D02*
X4860063Y-13650769D01*
X4860063Y-13650769D02*
X4850539Y-13688865D01*
X4850539Y-13688865D02*
X4841015Y-13707912D01*
X4841015Y-13707912D02*
X4821967Y-13726960D01*
X4821967Y-13726960D02*
X4793396Y-13736484D01*
X4793396Y-13736484D02*
X4745777Y-13736484D01*
X4945777Y-13736484D02*
X4945777Y-13603150D01*
X4945777Y-13641246D02*
X4955301Y-13622198D01*
X4955301Y-13622198D02*
X4964824Y-13612674D01*
X4964824Y-13612674D02*
X4983872Y-13603150D01*
X4983872Y-13603150D02*
X5002920Y-13603150D01*
X5069586Y-13736484D02*
X5069586Y-13603150D01*
X5069586Y-13536484D02*
X5060063Y-13546008D01*
X5060063Y-13546008D02*
X5069586Y-13555531D01*
X5069586Y-13555531D02*
X5079110Y-13546008D01*
X5079110Y-13546008D02*
X5069586Y-13536484D01*
X5069586Y-13536484D02*
X5069586Y-13555531D01*
X5193396Y-13736484D02*
X5174348Y-13726960D01*
X5174348Y-13726960D02*
X5164824Y-13707912D01*
X5164824Y-13707912D02*
X5164824Y-13536484D01*
X5298158Y-13736484D02*
X5279110Y-13726960D01*
X5279110Y-13726960D02*
X5269586Y-13707912D01*
X5269586Y-13707912D02*
X5269586Y-13536484D01*
X5526729Y-13736484D02*
X5526729Y-13536484D01*
X5526729Y-13536484D02*
X5593396Y-13679341D01*
X5593396Y-13679341D02*
X5660062Y-13536484D01*
X5660062Y-13536484D02*
X5660062Y-13736484D01*
X5841015Y-13736484D02*
X5841015Y-13631722D01*
X5841015Y-13631722D02*
X5831491Y-13612674D01*
X5831491Y-13612674D02*
X5812443Y-13603150D01*
X5812443Y-13603150D02*
X5774348Y-13603150D01*
X5774348Y-13603150D02*
X5755301Y-13612674D01*
X5841015Y-13726960D02*
X5821967Y-13736484D01*
X5821967Y-13736484D02*
X5774348Y-13736484D01*
X5774348Y-13736484D02*
X5755301Y-13726960D01*
X5755301Y-13726960D02*
X5745777Y-13707912D01*
X5745777Y-13707912D02*
X5745777Y-13688865D01*
X5745777Y-13688865D02*
X5755301Y-13669817D01*
X5755301Y-13669817D02*
X5774348Y-13660293D01*
X5774348Y-13660293D02*
X5821967Y-13660293D01*
X5821967Y-13660293D02*
X5841015Y-13650769D01*
X5936253Y-13603150D02*
X5936253Y-13803150D01*
X5936253Y-13612674D02*
X5955301Y-13603150D01*
X5955301Y-13603150D02*
X5993396Y-13603150D01*
X5993396Y-13603150D02*
X6012443Y-13612674D01*
X6012443Y-13612674D02*
X6021967Y-13622198D01*
X6021967Y-13622198D02*
X6031491Y-13641246D01*
X6031491Y-13641246D02*
X6031491Y-13698388D01*
X6031491Y-13698388D02*
X6021967Y-13717436D01*
X6021967Y-13717436D02*
X6012443Y-13726960D01*
X6012443Y-13726960D02*
X5993396Y-13736484D01*
X5993396Y-13736484D02*
X5955301Y-13736484D01*
X5955301Y-13736484D02*
X5936253Y-13726960D01*
X6117205Y-13717436D02*
X6126729Y-13726960D01*
X6126729Y-13726960D02*
X6117205Y-13736484D01*
X6117205Y-13736484D02*
X6107682Y-13726960D01*
X6107682Y-13726960D02*
X6117205Y-13717436D01*
X6117205Y-13717436D02*
X6117205Y-13736484D01*
X6117205Y-13612674D02*
X6126729Y-13622198D01*
X6126729Y-13622198D02*
X6117205Y-13631722D01*
X6117205Y-13631722D02*
X6107682Y-13622198D01*
X6107682Y-13622198D02*
X6117205Y-13612674D01*
X6117205Y-13612674D02*
X6117205Y-13631722D01*
D10*
X4465000Y-14055000D02*
X4485000Y-14075000D01*
X4485000Y-14055000D02*
X4465000Y-14075000D01*
D12*
X4783872Y-13956484D02*
X4802920Y-13956484D01*
X4802920Y-13956484D02*
X4821967Y-13966008D01*
X4821967Y-13966008D02*
X4831491Y-13975531D01*
X4831491Y-13975531D02*
X4841015Y-13994579D01*
X4841015Y-13994579D02*
X4850539Y-14032674D01*
X4850539Y-14032674D02*
X4850539Y-14080293D01*
X4850539Y-14080293D02*
X4841015Y-14118388D01*
X4841015Y-14118388D02*
X4831491Y-14137436D01*
X4831491Y-14137436D02*
X4821967Y-14146960D01*
X4821967Y-14146960D02*
X4802920Y-14156484D01*
X4802920Y-14156484D02*
X4783872Y-14156484D01*
X4783872Y-14156484D02*
X4764824Y-14146960D01*
X4764824Y-14146960D02*
X4755301Y-14137436D01*
X4755301Y-14137436D02*
X4745777Y-14118388D01*
X4745777Y-14118388D02*
X4736253Y-14080293D01*
X4736253Y-14080293D02*
X4736253Y-14032674D01*
X4736253Y-14032674D02*
X4745777Y-13994579D01*
X4745777Y-13994579D02*
X4755301Y-13975531D01*
X4755301Y-13975531D02*
X4764824Y-13966008D01*
X4764824Y-13966008D02*
X4783872Y-13956484D01*
X4936253Y-14137436D02*
X4945777Y-14146960D01*
X4945777Y-14146960D02*
X4936253Y-14156484D01*
X4936253Y-14156484D02*
X4926729Y-14146960D01*
X4926729Y-14146960D02*
X4936253Y-14137436D01*
X4936253Y-14137436D02*
X4936253Y-14156484D01*
X5021967Y-13975531D02*
X5031491Y-13966008D01*
X5031491Y-13966008D02*
X5050539Y-13956484D01*
X5050539Y-13956484D02*
X5098158Y-13956484D01*
X5098158Y-13956484D02*
X5117205Y-13966008D01*
X5117205Y-13966008D02*
X5126729Y-13975531D01*
X5126729Y-13975531D02*
X5136253Y-13994579D01*
X5136253Y-13994579D02*
X5136253Y-14013627D01*
X5136253Y-14013627D02*
X5126729Y-14042198D01*
X5126729Y-14042198D02*
X5012444Y-14156484D01*
X5012444Y-14156484D02*
X5136253Y-14156484D01*
X5260063Y-13956484D02*
X5279110Y-13956484D01*
X5279110Y-13956484D02*
X5298158Y-13966008D01*
X5298158Y-13966008D02*
X5307682Y-13975531D01*
X5307682Y-13975531D02*
X5317205Y-13994579D01*
X5317205Y-13994579D02*
X5326729Y-14032674D01*
X5326729Y-14032674D02*
X5326729Y-14080293D01*
X5326729Y-14080293D02*
X5317205Y-14118388D01*
X5317205Y-14118388D02*
X5307682Y-14137436D01*
X5307682Y-14137436D02*
X5298158Y-14146960D01*
X5298158Y-14146960D02*
X5279110Y-14156484D01*
X5279110Y-14156484D02*
X5260063Y-14156484D01*
X5260063Y-14156484D02*
X5241015Y-14146960D01*
X5241015Y-14146960D02*
X5231491Y-14137436D01*
X5231491Y-14137436D02*
X5221967Y-14118388D01*
X5221967Y-14118388D02*
X5212444Y-14080293D01*
X5212444Y-14080293D02*
X5212444Y-14032674D01*
X5212444Y-14032674D02*
X5221967Y-13994579D01*
X5221967Y-13994579D02*
X5231491Y-13975531D01*
X5231491Y-13975531D02*
X5241015Y-13966008D01*
X5241015Y-13966008D02*
X5260063Y-13956484D01*
X5450539Y-13956484D02*
X5469586Y-13956484D01*
X5469586Y-13956484D02*
X5488634Y-13966008D01*
X5488634Y-13966008D02*
X5498158Y-13975531D01*
X5498158Y-13975531D02*
X5507682Y-13994579D01*
X5507682Y-13994579D02*
X5517205Y-14032674D01*
X5517205Y-14032674D02*
X5517205Y-14080293D01*
X5517205Y-14080293D02*
X5507682Y-14118388D01*
X5507682Y-14118388D02*
X5498158Y-14137436D01*
X5498158Y-14137436D02*
X5488634Y-14146960D01*
X5488634Y-14146960D02*
X5469586Y-14156484D01*
X5469586Y-14156484D02*
X5450539Y-14156484D01*
X5450539Y-14156484D02*
X5431491Y-14146960D01*
X5431491Y-14146960D02*
X5421967Y-14137436D01*
X5421967Y-14137436D02*
X5412444Y-14118388D01*
X5412444Y-14118388D02*
X5402920Y-14080293D01*
X5402920Y-14080293D02*
X5402920Y-14032674D01*
X5402920Y-14032674D02*
X5412444Y-13994579D01*
X5412444Y-13994579D02*
X5421967Y-13975531D01*
X5421967Y-13975531D02*
X5431491Y-13966008D01*
X5431491Y-13966008D02*
X5450539Y-13956484D01*
X5602920Y-14156484D02*
X5602920Y-14023150D01*
X5602920Y-14042198D02*
X5612443Y-14032674D01*
X5612443Y-14032674D02*
X5631491Y-14023150D01*
X5631491Y-14023150D02*
X5660063Y-14023150D01*
X5660063Y-14023150D02*
X5679110Y-14032674D01*
X5679110Y-14032674D02*
X5688634Y-14051722D01*
X5688634Y-14051722D02*
X5688634Y-14156484D01*
X5688634Y-14051722D02*
X5698158Y-14032674D01*
X5698158Y-14032674D02*
X5717205Y-14023150D01*
X5717205Y-14023150D02*
X5745777Y-14023150D01*
X5745777Y-14023150D02*
X5764824Y-14032674D01*
X5764824Y-14032674D02*
X5774348Y-14051722D01*
X5774348Y-14051722D02*
X5774348Y-14156484D01*
X5869586Y-14156484D02*
X5869586Y-14023150D01*
X5869586Y-14042198D02*
X5879110Y-14032674D01*
X5879110Y-14032674D02*
X5898158Y-14023150D01*
X5898158Y-14023150D02*
X5926729Y-14023150D01*
X5926729Y-14023150D02*
X5945777Y-14032674D01*
X5945777Y-14032674D02*
X5955301Y-14051722D01*
X5955301Y-14051722D02*
X5955301Y-14156484D01*
X5955301Y-14051722D02*
X5964824Y-14032674D01*
X5964824Y-14032674D02*
X5983872Y-14023150D01*
X5983872Y-14023150D02*
X6012443Y-14023150D01*
X6012443Y-14023150D02*
X6031491Y-14032674D01*
X6031491Y-14032674D02*
X6041015Y-14051722D01*
X6041015Y-14051722D02*
X6041015Y-14156484D01*
X6431491Y-13946960D02*
X6260063Y-14204103D01*
X6688634Y-13956484D02*
X6707682Y-13956484D01*
X6707682Y-13956484D02*
X6726729Y-13966008D01*
X6726729Y-13966008D02*
X6736253Y-13975531D01*
X6736253Y-13975531D02*
X6745777Y-13994579D01*
X6745777Y-13994579D02*
X6755301Y-14032674D01*
X6755301Y-14032674D02*
X6755301Y-14080293D01*
X6755301Y-14080293D02*
X6745777Y-14118388D01*
X6745777Y-14118388D02*
X6736253Y-14137436D01*
X6736253Y-14137436D02*
X6726729Y-14146960D01*
X6726729Y-14146960D02*
X6707682Y-14156484D01*
X6707682Y-14156484D02*
X6688634Y-14156484D01*
X6688634Y-14156484D02*
X6669586Y-14146960D01*
X6669586Y-14146960D02*
X6660063Y-14137436D01*
X6660063Y-14137436D02*
X6650539Y-14118388D01*
X6650539Y-14118388D02*
X6641015Y-14080293D01*
X6641015Y-14080293D02*
X6641015Y-14032674D01*
X6641015Y-14032674D02*
X6650539Y-13994579D01*
X6650539Y-13994579D02*
X6660063Y-13975531D01*
X6660063Y-13975531D02*
X6669586Y-13966008D01*
X6669586Y-13966008D02*
X6688634Y-13956484D01*
X6841015Y-14137436D02*
X6850539Y-14146960D01*
X6850539Y-14146960D02*
X6841015Y-14156484D01*
X6841015Y-14156484D02*
X6831491Y-14146960D01*
X6831491Y-14146960D02*
X6841015Y-14137436D01*
X6841015Y-14137436D02*
X6841015Y-14156484D01*
X6974348Y-13956484D02*
X6993396Y-13956484D01*
X6993396Y-13956484D02*
X7012444Y-13966008D01*
X7012444Y-13966008D02*
X7021967Y-13975531D01*
X7021967Y-13975531D02*
X7031491Y-13994579D01*
X7031491Y-13994579D02*
X7041015Y-14032674D01*
X7041015Y-14032674D02*
X7041015Y-14080293D01*
X7041015Y-14080293D02*
X7031491Y-14118388D01*
X7031491Y-14118388D02*
X7021967Y-14137436D01*
X7021967Y-14137436D02*
X7012444Y-14146960D01*
X7012444Y-14146960D02*
X6993396Y-14156484D01*
X6993396Y-14156484D02*
X6974348Y-14156484D01*
X6974348Y-14156484D02*
X6955301Y-14146960D01*
X6955301Y-14146960D02*
X6945777Y-14137436D01*
X6945777Y-14137436D02*
X6936253Y-14118388D01*
X6936253Y-14118388D02*
X6926729Y-14080293D01*
X6926729Y-14080293D02*
X6926729Y-14032674D01*
X6926729Y-14032674D02*
X6936253Y-13994579D01*
X6936253Y-13994579D02*
X6945777Y-13975531D01*
X6945777Y-13975531D02*
X6955301Y-13966008D01*
X6955301Y-13966008D02*
X6974348Y-13956484D01*
X7164825Y-13956484D02*
X7183872Y-13956484D01*
X7183872Y-13956484D02*
X7202920Y-13966008D01*
X7202920Y-13966008D02*
X7212444Y-13975531D01*
X7212444Y-13975531D02*
X7221967Y-13994579D01*
X7221967Y-13994579D02*
X7231491Y-14032674D01*
X7231491Y-14032674D02*
X7231491Y-14080293D01*
X7231491Y-14080293D02*
X7221967Y-14118388D01*
X7221967Y-14118388D02*
X7212444Y-14137436D01*
X7212444Y-14137436D02*
X7202920Y-14146960D01*
X7202920Y-14146960D02*
X7183872Y-14156484D01*
X7183872Y-14156484D02*
X7164825Y-14156484D01*
X7164825Y-14156484D02*
X7145777Y-14146960D01*
X7145777Y-14146960D02*
X7136253Y-14137436D01*
X7136253Y-14137436D02*
X7126729Y-14118388D01*
X7126729Y-14118388D02*
X7117206Y-14080293D01*
X7117206Y-14080293D02*
X7117206Y-14032674D01*
X7117206Y-14032674D02*
X7126729Y-13994579D01*
X7126729Y-13994579D02*
X7136253Y-13975531D01*
X7136253Y-13975531D02*
X7145777Y-13966008D01*
X7145777Y-13966008D02*
X7164825Y-13956484D01*
X7298158Y-13956484D02*
X7431491Y-13956484D01*
X7431491Y-13956484D02*
X7345777Y-14156484D01*
X7517206Y-14156484D02*
X7555301Y-14156484D01*
X7555301Y-14156484D02*
X7574348Y-14146960D01*
X7574348Y-14146960D02*
X7583872Y-14137436D01*
X7583872Y-14137436D02*
X7602920Y-14108865D01*
X7602920Y-14108865D02*
X7612444Y-14070769D01*
X7612444Y-14070769D02*
X7612444Y-13994579D01*
X7612444Y-13994579D02*
X7602920Y-13975531D01*
X7602920Y-13975531D02*
X7593396Y-13966008D01*
X7593396Y-13966008D02*
X7574348Y-13956484D01*
X7574348Y-13956484D02*
X7536253Y-13956484D01*
X7536253Y-13956484D02*
X7517206Y-13966008D01*
X7517206Y-13966008D02*
X7507682Y-13975531D01*
X7507682Y-13975531D02*
X7498158Y-13994579D01*
X7498158Y-13994579D02*
X7498158Y-14042198D01*
X7498158Y-14042198D02*
X7507682Y-14061246D01*
X7507682Y-14061246D02*
X7517206Y-14070769D01*
X7517206Y-14070769D02*
X7536253Y-14080293D01*
X7536253Y-14080293D02*
X7574348Y-14080293D01*
X7574348Y-14080293D02*
X7593396Y-14070769D01*
X7593396Y-14070769D02*
X7602920Y-14061246D01*
X7602920Y-14061246D02*
X7612444Y-14042198D01*
X7688634Y-13956484D02*
X7688634Y-13994579D01*
X7764825Y-13956484D02*
X7764825Y-13994579D01*
X8060063Y-14232674D02*
X8050539Y-14223150D01*
X8050539Y-14223150D02*
X8031491Y-14194579D01*
X8031491Y-14194579D02*
X8021968Y-14175531D01*
X8021968Y-14175531D02*
X8012444Y-14146960D01*
X8012444Y-14146960D02*
X8002920Y-14099341D01*
X8002920Y-14099341D02*
X8002920Y-14061246D01*
X8002920Y-14061246D02*
X8012444Y-14013627D01*
X8012444Y-14013627D02*
X8021968Y-13985055D01*
X8021968Y-13985055D02*
X8031491Y-13966008D01*
X8031491Y-13966008D02*
X8050539Y-13937436D01*
X8050539Y-13937436D02*
X8060063Y-13927912D01*
X8117206Y-13956484D02*
X8241015Y-13956484D01*
X8241015Y-13956484D02*
X8174348Y-14032674D01*
X8174348Y-14032674D02*
X8202920Y-14032674D01*
X8202920Y-14032674D02*
X8221968Y-14042198D01*
X8221968Y-14042198D02*
X8231491Y-14051722D01*
X8231491Y-14051722D02*
X8241015Y-14070769D01*
X8241015Y-14070769D02*
X8241015Y-14118388D01*
X8241015Y-14118388D02*
X8231491Y-14137436D01*
X8231491Y-14137436D02*
X8221968Y-14146960D01*
X8221968Y-14146960D02*
X8202920Y-14156484D01*
X8202920Y-14156484D02*
X8145777Y-14156484D01*
X8145777Y-14156484D02*
X8126729Y-14146960D01*
X8126729Y-14146960D02*
X8117206Y-14137436D01*
X8336253Y-14156484D02*
X8374348Y-14156484D01*
X8374348Y-14156484D02*
X8393396Y-14146960D01*
X8393396Y-14146960D02*
X8402920Y-14137436D01*
X8402920Y-14137436D02*
X8421968Y-14108865D01*
X8421968Y-14108865D02*
X8431491Y-14070769D01*
X8431491Y-14070769D02*
X8431491Y-13994579D01*
X8431491Y-13994579D02*
X8421968Y-13975531D01*
X8421968Y-13975531D02*
X8412444Y-13966008D01*
X8412444Y-13966008D02*
X8393396Y-13956484D01*
X8393396Y-13956484D02*
X8355301Y-13956484D01*
X8355301Y-13956484D02*
X8336253Y-13966008D01*
X8336253Y-13966008D02*
X8326729Y-13975531D01*
X8326729Y-13975531D02*
X8317206Y-13994579D01*
X8317206Y-13994579D02*
X8317206Y-14042198D01*
X8317206Y-14042198D02*
X8326729Y-14061246D01*
X8326729Y-14061246D02*
X8336253Y-14070769D01*
X8336253Y-14070769D02*
X8355301Y-14080293D01*
X8355301Y-14080293D02*
X8393396Y-14080293D01*
X8393396Y-14080293D02*
X8412444Y-14070769D01*
X8412444Y-14070769D02*
X8421968Y-14061246D01*
X8421968Y-14061246D02*
X8431491Y-14042198D01*
X8669587Y-14156484D02*
X8669587Y-13956484D01*
X8755301Y-14156484D02*
X8755301Y-14051722D01*
X8755301Y-14051722D02*
X8745777Y-14032674D01*
X8745777Y-14032674D02*
X8726730Y-14023150D01*
X8726730Y-14023150D02*
X8698158Y-14023150D01*
X8698158Y-14023150D02*
X8679111Y-14032674D01*
X8679111Y-14032674D02*
X8669587Y-14042198D01*
X8879111Y-14156484D02*
X8860063Y-14146960D01*
X8860063Y-14146960D02*
X8850539Y-14137436D01*
X8850539Y-14137436D02*
X8841015Y-14118388D01*
X8841015Y-14118388D02*
X8841015Y-14061246D01*
X8841015Y-14061246D02*
X8850539Y-14042198D01*
X8850539Y-14042198D02*
X8860063Y-14032674D01*
X8860063Y-14032674D02*
X8879111Y-14023150D01*
X8879111Y-14023150D02*
X8907682Y-14023150D01*
X8907682Y-14023150D02*
X8926730Y-14032674D01*
X8926730Y-14032674D02*
X8936253Y-14042198D01*
X8936253Y-14042198D02*
X8945777Y-14061246D01*
X8945777Y-14061246D02*
X8945777Y-14118388D01*
X8945777Y-14118388D02*
X8936253Y-14137436D01*
X8936253Y-14137436D02*
X8926730Y-14146960D01*
X8926730Y-14146960D02*
X8907682Y-14156484D01*
X8907682Y-14156484D02*
X8879111Y-14156484D01*
X9060063Y-14156484D02*
X9041015Y-14146960D01*
X9041015Y-14146960D02*
X9031492Y-14127912D01*
X9031492Y-14127912D02*
X9031492Y-13956484D01*
X9212444Y-14146960D02*
X9193396Y-14156484D01*
X9193396Y-14156484D02*
X9155301Y-14156484D01*
X9155301Y-14156484D02*
X9136253Y-14146960D01*
X9136253Y-14146960D02*
X9126730Y-14127912D01*
X9126730Y-14127912D02*
X9126730Y-14051722D01*
X9126730Y-14051722D02*
X9136253Y-14032674D01*
X9136253Y-14032674D02*
X9155301Y-14023150D01*
X9155301Y-14023150D02*
X9193396Y-14023150D01*
X9193396Y-14023150D02*
X9212444Y-14032674D01*
X9212444Y-14032674D02*
X9221968Y-14051722D01*
X9221968Y-14051722D02*
X9221968Y-14070769D01*
X9221968Y-14070769D02*
X9126730Y-14089817D01*
X9298158Y-14146960D02*
X9317206Y-14156484D01*
X9317206Y-14156484D02*
X9355301Y-14156484D01*
X9355301Y-14156484D02*
X9374349Y-14146960D01*
X9374349Y-14146960D02*
X9383873Y-14127912D01*
X9383873Y-14127912D02*
X9383873Y-14118388D01*
X9383873Y-14118388D02*
X9374349Y-14099341D01*
X9374349Y-14099341D02*
X9355301Y-14089817D01*
X9355301Y-14089817D02*
X9326730Y-14089817D01*
X9326730Y-14089817D02*
X9307682Y-14080293D01*
X9307682Y-14080293D02*
X9298158Y-14061246D01*
X9298158Y-14061246D02*
X9298158Y-14051722D01*
X9298158Y-14051722D02*
X9307682Y-14032674D01*
X9307682Y-14032674D02*
X9326730Y-14023150D01*
X9326730Y-14023150D02*
X9355301Y-14023150D01*
X9355301Y-14023150D02*
X9374349Y-14032674D01*
X9450539Y-14232674D02*
X9460063Y-14223150D01*
X9460063Y-14223150D02*
X9479111Y-14194579D01*
X9479111Y-14194579D02*
X9488634Y-14175531D01*
X9488634Y-14175531D02*
X9498158Y-14146960D01*
X9498158Y-14146960D02*
X9507682Y-14099341D01*
X9507682Y-14099341D02*
X9507682Y-14061246D01*
X9507682Y-14061246D02*
X9498158Y-14013627D01*
X9498158Y-14013627D02*
X9488634Y-13985055D01*
X9488634Y-13985055D02*
X9479111Y-13966008D01*
X9479111Y-13966008D02*
X9460063Y-13937436D01*
X9460063Y-13937436D02*
X9450539Y-13927912D01*
D10*
X4485000Y-14329000D02*
G75*
G02*
X4455000Y-14329000I-15000J0D01*
G01*
X4455000Y-14329000D02*
G75*
G02*
X4485000Y-14329000I15000J0D01*
G01*
D12*
X4783872Y-14220484D02*
X4802920Y-14220484D01*
X4802920Y-14220484D02*
X4821967Y-14230008D01*
X4821967Y-14230008D02*
X4831491Y-14239531D01*
X4831491Y-14239531D02*
X4841015Y-14258579D01*
X4841015Y-14258579D02*
X4850539Y-14296674D01*
X4850539Y-14296674D02*
X4850539Y-14344293D01*
X4850539Y-14344293D02*
X4841015Y-14382388D01*
X4841015Y-14382388D02*
X4831491Y-14401436D01*
X4831491Y-14401436D02*
X4821967Y-14410960D01*
X4821967Y-14410960D02*
X4802920Y-14420484D01*
X4802920Y-14420484D02*
X4783872Y-14420484D01*
X4783872Y-14420484D02*
X4764824Y-14410960D01*
X4764824Y-14410960D02*
X4755301Y-14401436D01*
X4755301Y-14401436D02*
X4745777Y-14382388D01*
X4745777Y-14382388D02*
X4736253Y-14344293D01*
X4736253Y-14344293D02*
X4736253Y-14296674D01*
X4736253Y-14296674D02*
X4745777Y-14258579D01*
X4745777Y-14258579D02*
X4755301Y-14239531D01*
X4755301Y-14239531D02*
X4764824Y-14230008D01*
X4764824Y-14230008D02*
X4783872Y-14220484D01*
X4936253Y-14401436D02*
X4945777Y-14410960D01*
X4945777Y-14410960D02*
X4936253Y-14420484D01*
X4936253Y-14420484D02*
X4926729Y-14410960D01*
X4926729Y-14410960D02*
X4936253Y-14401436D01*
X4936253Y-14401436D02*
X4936253Y-14420484D01*
X5012444Y-14220484D02*
X5136253Y-14220484D01*
X5136253Y-14220484D02*
X5069586Y-14296674D01*
X5069586Y-14296674D02*
X5098158Y-14296674D01*
X5098158Y-14296674D02*
X5117205Y-14306198D01*
X5117205Y-14306198D02*
X5126729Y-14315722D01*
X5126729Y-14315722D02*
X5136253Y-14334769D01*
X5136253Y-14334769D02*
X5136253Y-14382388D01*
X5136253Y-14382388D02*
X5126729Y-14401436D01*
X5126729Y-14401436D02*
X5117205Y-14410960D01*
X5117205Y-14410960D02*
X5098158Y-14420484D01*
X5098158Y-14420484D02*
X5041015Y-14420484D01*
X5041015Y-14420484D02*
X5021967Y-14410960D01*
X5021967Y-14410960D02*
X5012444Y-14401436D01*
X5260063Y-14220484D02*
X5279110Y-14220484D01*
X5279110Y-14220484D02*
X5298158Y-14230008D01*
X5298158Y-14230008D02*
X5307682Y-14239531D01*
X5307682Y-14239531D02*
X5317205Y-14258579D01*
X5317205Y-14258579D02*
X5326729Y-14296674D01*
X5326729Y-14296674D02*
X5326729Y-14344293D01*
X5326729Y-14344293D02*
X5317205Y-14382388D01*
X5317205Y-14382388D02*
X5307682Y-14401436D01*
X5307682Y-14401436D02*
X5298158Y-14410960D01*
X5298158Y-14410960D02*
X5279110Y-14420484D01*
X5279110Y-14420484D02*
X5260063Y-14420484D01*
X5260063Y-14420484D02*
X5241015Y-14410960D01*
X5241015Y-14410960D02*
X5231491Y-14401436D01*
X5231491Y-14401436D02*
X5221967Y-14382388D01*
X5221967Y-14382388D02*
X5212444Y-14344293D01*
X5212444Y-14344293D02*
X5212444Y-14296674D01*
X5212444Y-14296674D02*
X5221967Y-14258579D01*
X5221967Y-14258579D02*
X5231491Y-14239531D01*
X5231491Y-14239531D02*
X5241015Y-14230008D01*
X5241015Y-14230008D02*
X5260063Y-14220484D01*
X5450539Y-14220484D02*
X5469586Y-14220484D01*
X5469586Y-14220484D02*
X5488634Y-14230008D01*
X5488634Y-14230008D02*
X5498158Y-14239531D01*
X5498158Y-14239531D02*
X5507682Y-14258579D01*
X5507682Y-14258579D02*
X5517205Y-14296674D01*
X5517205Y-14296674D02*
X5517205Y-14344293D01*
X5517205Y-14344293D02*
X5507682Y-14382388D01*
X5507682Y-14382388D02*
X5498158Y-14401436D01*
X5498158Y-14401436D02*
X5488634Y-14410960D01*
X5488634Y-14410960D02*
X5469586Y-14420484D01*
X5469586Y-14420484D02*
X5450539Y-14420484D01*
X5450539Y-14420484D02*
X5431491Y-14410960D01*
X5431491Y-14410960D02*
X5421967Y-14401436D01*
X5421967Y-14401436D02*
X5412444Y-14382388D01*
X5412444Y-14382388D02*
X5402920Y-14344293D01*
X5402920Y-14344293D02*
X5402920Y-14296674D01*
X5402920Y-14296674D02*
X5412444Y-14258579D01*
X5412444Y-14258579D02*
X5421967Y-14239531D01*
X5421967Y-14239531D02*
X5431491Y-14230008D01*
X5431491Y-14230008D02*
X5450539Y-14220484D01*
X5602920Y-14420484D02*
X5602920Y-14287150D01*
X5602920Y-14306198D02*
X5612443Y-14296674D01*
X5612443Y-14296674D02*
X5631491Y-14287150D01*
X5631491Y-14287150D02*
X5660063Y-14287150D01*
X5660063Y-14287150D02*
X5679110Y-14296674D01*
X5679110Y-14296674D02*
X5688634Y-14315722D01*
X5688634Y-14315722D02*
X5688634Y-14420484D01*
X5688634Y-14315722D02*
X5698158Y-14296674D01*
X5698158Y-14296674D02*
X5717205Y-14287150D01*
X5717205Y-14287150D02*
X5745777Y-14287150D01*
X5745777Y-14287150D02*
X5764824Y-14296674D01*
X5764824Y-14296674D02*
X5774348Y-14315722D01*
X5774348Y-14315722D02*
X5774348Y-14420484D01*
X5869586Y-14420484D02*
X5869586Y-14287150D01*
X5869586Y-14306198D02*
X5879110Y-14296674D01*
X5879110Y-14296674D02*
X5898158Y-14287150D01*
X5898158Y-14287150D02*
X5926729Y-14287150D01*
X5926729Y-14287150D02*
X5945777Y-14296674D01*
X5945777Y-14296674D02*
X5955301Y-14315722D01*
X5955301Y-14315722D02*
X5955301Y-14420484D01*
X5955301Y-14315722D02*
X5964824Y-14296674D01*
X5964824Y-14296674D02*
X5983872Y-14287150D01*
X5983872Y-14287150D02*
X6012443Y-14287150D01*
X6012443Y-14287150D02*
X6031491Y-14296674D01*
X6031491Y-14296674D02*
X6041015Y-14315722D01*
X6041015Y-14315722D02*
X6041015Y-14420484D01*
X6431491Y-14210960D02*
X6260063Y-14468103D01*
X6688634Y-14220484D02*
X6707682Y-14220484D01*
X6707682Y-14220484D02*
X6726729Y-14230008D01*
X6726729Y-14230008D02*
X6736253Y-14239531D01*
X6736253Y-14239531D02*
X6745777Y-14258579D01*
X6745777Y-14258579D02*
X6755301Y-14296674D01*
X6755301Y-14296674D02*
X6755301Y-14344293D01*
X6755301Y-14344293D02*
X6745777Y-14382388D01*
X6745777Y-14382388D02*
X6736253Y-14401436D01*
X6736253Y-14401436D02*
X6726729Y-14410960D01*
X6726729Y-14410960D02*
X6707682Y-14420484D01*
X6707682Y-14420484D02*
X6688634Y-14420484D01*
X6688634Y-14420484D02*
X6669586Y-14410960D01*
X6669586Y-14410960D02*
X6660063Y-14401436D01*
X6660063Y-14401436D02*
X6650539Y-14382388D01*
X6650539Y-14382388D02*
X6641015Y-14344293D01*
X6641015Y-14344293D02*
X6641015Y-14296674D01*
X6641015Y-14296674D02*
X6650539Y-14258579D01*
X6650539Y-14258579D02*
X6660063Y-14239531D01*
X6660063Y-14239531D02*
X6669586Y-14230008D01*
X6669586Y-14230008D02*
X6688634Y-14220484D01*
X6841015Y-14401436D02*
X6850539Y-14410960D01*
X6850539Y-14410960D02*
X6841015Y-14420484D01*
X6841015Y-14420484D02*
X6831491Y-14410960D01*
X6831491Y-14410960D02*
X6841015Y-14401436D01*
X6841015Y-14401436D02*
X6841015Y-14420484D01*
X6974348Y-14220484D02*
X6993396Y-14220484D01*
X6993396Y-14220484D02*
X7012444Y-14230008D01*
X7012444Y-14230008D02*
X7021967Y-14239531D01*
X7021967Y-14239531D02*
X7031491Y-14258579D01*
X7031491Y-14258579D02*
X7041015Y-14296674D01*
X7041015Y-14296674D02*
X7041015Y-14344293D01*
X7041015Y-14344293D02*
X7031491Y-14382388D01*
X7031491Y-14382388D02*
X7021967Y-14401436D01*
X7021967Y-14401436D02*
X7012444Y-14410960D01*
X7012444Y-14410960D02*
X6993396Y-14420484D01*
X6993396Y-14420484D02*
X6974348Y-14420484D01*
X6974348Y-14420484D02*
X6955301Y-14410960D01*
X6955301Y-14410960D02*
X6945777Y-14401436D01*
X6945777Y-14401436D02*
X6936253Y-14382388D01*
X6936253Y-14382388D02*
X6926729Y-14344293D01*
X6926729Y-14344293D02*
X6926729Y-14296674D01*
X6926729Y-14296674D02*
X6936253Y-14258579D01*
X6936253Y-14258579D02*
X6945777Y-14239531D01*
X6945777Y-14239531D02*
X6955301Y-14230008D01*
X6955301Y-14230008D02*
X6974348Y-14220484D01*
X7231491Y-14420484D02*
X7117206Y-14420484D01*
X7174348Y-14420484D02*
X7174348Y-14220484D01*
X7174348Y-14220484D02*
X7155301Y-14249055D01*
X7155301Y-14249055D02*
X7136253Y-14268103D01*
X7136253Y-14268103D02*
X7117206Y-14277627D01*
X7421967Y-14420484D02*
X7307682Y-14420484D01*
X7364825Y-14420484D02*
X7364825Y-14220484D01*
X7364825Y-14220484D02*
X7345777Y-14249055D01*
X7345777Y-14249055D02*
X7326729Y-14268103D01*
X7326729Y-14268103D02*
X7307682Y-14277627D01*
X7536253Y-14306198D02*
X7517206Y-14296674D01*
X7517206Y-14296674D02*
X7507682Y-14287150D01*
X7507682Y-14287150D02*
X7498158Y-14268103D01*
X7498158Y-14268103D02*
X7498158Y-14258579D01*
X7498158Y-14258579D02*
X7507682Y-14239531D01*
X7507682Y-14239531D02*
X7517206Y-14230008D01*
X7517206Y-14230008D02*
X7536253Y-14220484D01*
X7536253Y-14220484D02*
X7574348Y-14220484D01*
X7574348Y-14220484D02*
X7593396Y-14230008D01*
X7593396Y-14230008D02*
X7602920Y-14239531D01*
X7602920Y-14239531D02*
X7612444Y-14258579D01*
X7612444Y-14258579D02*
X7612444Y-14268103D01*
X7612444Y-14268103D02*
X7602920Y-14287150D01*
X7602920Y-14287150D02*
X7593396Y-14296674D01*
X7593396Y-14296674D02*
X7574348Y-14306198D01*
X7574348Y-14306198D02*
X7536253Y-14306198D01*
X7536253Y-14306198D02*
X7517206Y-14315722D01*
X7517206Y-14315722D02*
X7507682Y-14325246D01*
X7507682Y-14325246D02*
X7498158Y-14344293D01*
X7498158Y-14344293D02*
X7498158Y-14382388D01*
X7498158Y-14382388D02*
X7507682Y-14401436D01*
X7507682Y-14401436D02*
X7517206Y-14410960D01*
X7517206Y-14410960D02*
X7536253Y-14420484D01*
X7536253Y-14420484D02*
X7574348Y-14420484D01*
X7574348Y-14420484D02*
X7593396Y-14410960D01*
X7593396Y-14410960D02*
X7602920Y-14401436D01*
X7602920Y-14401436D02*
X7612444Y-14382388D01*
X7612444Y-14382388D02*
X7612444Y-14344293D01*
X7612444Y-14344293D02*
X7602920Y-14325246D01*
X7602920Y-14325246D02*
X7593396Y-14315722D01*
X7593396Y-14315722D02*
X7574348Y-14306198D01*
X7688634Y-14220484D02*
X7688634Y-14258579D01*
X7764825Y-14220484D02*
X7764825Y-14258579D01*
X8060063Y-14496674D02*
X8050539Y-14487150D01*
X8050539Y-14487150D02*
X8031491Y-14458579D01*
X8031491Y-14458579D02*
X8021968Y-14439531D01*
X8021968Y-14439531D02*
X8012444Y-14410960D01*
X8012444Y-14410960D02*
X8002920Y-14363341D01*
X8002920Y-14363341D02*
X8002920Y-14325246D01*
X8002920Y-14325246D02*
X8012444Y-14277627D01*
X8012444Y-14277627D02*
X8021968Y-14249055D01*
X8021968Y-14249055D02*
X8031491Y-14230008D01*
X8031491Y-14230008D02*
X8050539Y-14201436D01*
X8050539Y-14201436D02*
X8060063Y-14191912D01*
X8117206Y-14220484D02*
X8241015Y-14220484D01*
X8241015Y-14220484D02*
X8174348Y-14296674D01*
X8174348Y-14296674D02*
X8202920Y-14296674D01*
X8202920Y-14296674D02*
X8221968Y-14306198D01*
X8221968Y-14306198D02*
X8231491Y-14315722D01*
X8231491Y-14315722D02*
X8241015Y-14334769D01*
X8241015Y-14334769D02*
X8241015Y-14382388D01*
X8241015Y-14382388D02*
X8231491Y-14401436D01*
X8231491Y-14401436D02*
X8221968Y-14410960D01*
X8221968Y-14410960D02*
X8202920Y-14420484D01*
X8202920Y-14420484D02*
X8145777Y-14420484D01*
X8145777Y-14420484D02*
X8126729Y-14410960D01*
X8126729Y-14410960D02*
X8117206Y-14401436D01*
X8307682Y-14220484D02*
X8431491Y-14220484D01*
X8431491Y-14220484D02*
X8364825Y-14296674D01*
X8364825Y-14296674D02*
X8393396Y-14296674D01*
X8393396Y-14296674D02*
X8412444Y-14306198D01*
X8412444Y-14306198D02*
X8421968Y-14315722D01*
X8421968Y-14315722D02*
X8431491Y-14334769D01*
X8431491Y-14334769D02*
X8431491Y-14382388D01*
X8431491Y-14382388D02*
X8421968Y-14401436D01*
X8421968Y-14401436D02*
X8412444Y-14410960D01*
X8412444Y-14410960D02*
X8393396Y-14420484D01*
X8393396Y-14420484D02*
X8336253Y-14420484D01*
X8336253Y-14420484D02*
X8317206Y-14410960D01*
X8317206Y-14410960D02*
X8307682Y-14401436D01*
X8498158Y-14220484D02*
X8631491Y-14220484D01*
X8631491Y-14220484D02*
X8545777Y-14420484D01*
X8860063Y-14420484D02*
X8860063Y-14220484D01*
X8945777Y-14420484D02*
X8945777Y-14315722D01*
X8945777Y-14315722D02*
X8936253Y-14296674D01*
X8936253Y-14296674D02*
X8917206Y-14287150D01*
X8917206Y-14287150D02*
X8888634Y-14287150D01*
X8888634Y-14287150D02*
X8869587Y-14296674D01*
X8869587Y-14296674D02*
X8860063Y-14306198D01*
X9069587Y-14420484D02*
X9050539Y-14410960D01*
X9050539Y-14410960D02*
X9041015Y-14401436D01*
X9041015Y-14401436D02*
X9031492Y-14382388D01*
X9031492Y-14382388D02*
X9031492Y-14325246D01*
X9031492Y-14325246D02*
X9041015Y-14306198D01*
X9041015Y-14306198D02*
X9050539Y-14296674D01*
X9050539Y-14296674D02*
X9069587Y-14287150D01*
X9069587Y-14287150D02*
X9098158Y-14287150D01*
X9098158Y-14287150D02*
X9117206Y-14296674D01*
X9117206Y-14296674D02*
X9126730Y-14306198D01*
X9126730Y-14306198D02*
X9136253Y-14325246D01*
X9136253Y-14325246D02*
X9136253Y-14382388D01*
X9136253Y-14382388D02*
X9126730Y-14401436D01*
X9126730Y-14401436D02*
X9117206Y-14410960D01*
X9117206Y-14410960D02*
X9098158Y-14420484D01*
X9098158Y-14420484D02*
X9069587Y-14420484D01*
X9250539Y-14420484D02*
X9231492Y-14410960D01*
X9231492Y-14410960D02*
X9221968Y-14391912D01*
X9221968Y-14391912D02*
X9221968Y-14220484D01*
X9402920Y-14410960D02*
X9383873Y-14420484D01*
X9383873Y-14420484D02*
X9345777Y-14420484D01*
X9345777Y-14420484D02*
X9326730Y-14410960D01*
X9326730Y-14410960D02*
X9317206Y-14391912D01*
X9317206Y-14391912D02*
X9317206Y-14315722D01*
X9317206Y-14315722D02*
X9326730Y-14296674D01*
X9326730Y-14296674D02*
X9345777Y-14287150D01*
X9345777Y-14287150D02*
X9383873Y-14287150D01*
X9383873Y-14287150D02*
X9402920Y-14296674D01*
X9402920Y-14296674D02*
X9412444Y-14315722D01*
X9412444Y-14315722D02*
X9412444Y-14334769D01*
X9412444Y-14334769D02*
X9317206Y-14353817D01*
X9488634Y-14410960D02*
X9507682Y-14420484D01*
X9507682Y-14420484D02*
X9545777Y-14420484D01*
X9545777Y-14420484D02*
X9564825Y-14410960D01*
X9564825Y-14410960D02*
X9574349Y-14391912D01*
X9574349Y-14391912D02*
X9574349Y-14382388D01*
X9574349Y-14382388D02*
X9564825Y-14363341D01*
X9564825Y-14363341D02*
X9545777Y-14353817D01*
X9545777Y-14353817D02*
X9517206Y-14353817D01*
X9517206Y-14353817D02*
X9498158Y-14344293D01*
X9498158Y-14344293D02*
X9488634Y-14325246D01*
X9488634Y-14325246D02*
X9488634Y-14315722D01*
X9488634Y-14315722D02*
X9498158Y-14296674D01*
X9498158Y-14296674D02*
X9517206Y-14287150D01*
X9517206Y-14287150D02*
X9545777Y-14287150D01*
X9545777Y-14287150D02*
X9564825Y-14296674D01*
X9641015Y-14496674D02*
X9650539Y-14487150D01*
X9650539Y-14487150D02*
X9669587Y-14458579D01*
X9669587Y-14458579D02*
X9679111Y-14439531D01*
X9679111Y-14439531D02*
X9688634Y-14410960D01*
X9688634Y-14410960D02*
X9698158Y-14363341D01*
X9698158Y-14363341D02*
X9698158Y-14325246D01*
X9698158Y-14325246D02*
X9688634Y-14277627D01*
X9688634Y-14277627D02*
X9679111Y-14249055D01*
X9679111Y-14249055D02*
X9669587Y-14230008D01*
X9669587Y-14230008D02*
X9650539Y-14201436D01*
X9650539Y-14201436D02*
X9641015Y-14191912D01*
D10*
X4445000Y-14553000D02*
X4445000Y-14633000D01*
X4405000Y-14593000D02*
X4485000Y-14593000D01*
D12*
X4783872Y-14484484D02*
X4802920Y-14484484D01*
X4802920Y-14484484D02*
X4821967Y-14494008D01*
X4821967Y-14494008D02*
X4831491Y-14503531D01*
X4831491Y-14503531D02*
X4841015Y-14522579D01*
X4841015Y-14522579D02*
X4850539Y-14560674D01*
X4850539Y-14560674D02*
X4850539Y-14608293D01*
X4850539Y-14608293D02*
X4841015Y-14646388D01*
X4841015Y-14646388D02*
X4831491Y-14665436D01*
X4831491Y-14665436D02*
X4821967Y-14674960D01*
X4821967Y-14674960D02*
X4802920Y-14684484D01*
X4802920Y-14684484D02*
X4783872Y-14684484D01*
X4783872Y-14684484D02*
X4764824Y-14674960D01*
X4764824Y-14674960D02*
X4755301Y-14665436D01*
X4755301Y-14665436D02*
X4745777Y-14646388D01*
X4745777Y-14646388D02*
X4736253Y-14608293D01*
X4736253Y-14608293D02*
X4736253Y-14560674D01*
X4736253Y-14560674D02*
X4745777Y-14522579D01*
X4745777Y-14522579D02*
X4755301Y-14503531D01*
X4755301Y-14503531D02*
X4764824Y-14494008D01*
X4764824Y-14494008D02*
X4783872Y-14484484D01*
X4936253Y-14665436D02*
X4945777Y-14674960D01*
X4945777Y-14674960D02*
X4936253Y-14684484D01*
X4936253Y-14684484D02*
X4926729Y-14674960D01*
X4926729Y-14674960D02*
X4936253Y-14665436D01*
X4936253Y-14665436D02*
X4936253Y-14684484D01*
X5060063Y-14570198D02*
X5041015Y-14560674D01*
X5041015Y-14560674D02*
X5031491Y-14551150D01*
X5031491Y-14551150D02*
X5021967Y-14532103D01*
X5021967Y-14532103D02*
X5021967Y-14522579D01*
X5021967Y-14522579D02*
X5031491Y-14503531D01*
X5031491Y-14503531D02*
X5041015Y-14494008D01*
X5041015Y-14494008D02*
X5060063Y-14484484D01*
X5060063Y-14484484D02*
X5098158Y-14484484D01*
X5098158Y-14484484D02*
X5117205Y-14494008D01*
X5117205Y-14494008D02*
X5126729Y-14503531D01*
X5126729Y-14503531D02*
X5136253Y-14522579D01*
X5136253Y-14522579D02*
X5136253Y-14532103D01*
X5136253Y-14532103D02*
X5126729Y-14551150D01*
X5126729Y-14551150D02*
X5117205Y-14560674D01*
X5117205Y-14560674D02*
X5098158Y-14570198D01*
X5098158Y-14570198D02*
X5060063Y-14570198D01*
X5060063Y-14570198D02*
X5041015Y-14579722D01*
X5041015Y-14579722D02*
X5031491Y-14589246D01*
X5031491Y-14589246D02*
X5021967Y-14608293D01*
X5021967Y-14608293D02*
X5021967Y-14646388D01*
X5021967Y-14646388D02*
X5031491Y-14665436D01*
X5031491Y-14665436D02*
X5041015Y-14674960D01*
X5041015Y-14674960D02*
X5060063Y-14684484D01*
X5060063Y-14684484D02*
X5098158Y-14684484D01*
X5098158Y-14684484D02*
X5117205Y-14674960D01*
X5117205Y-14674960D02*
X5126729Y-14665436D01*
X5126729Y-14665436D02*
X5136253Y-14646388D01*
X5136253Y-14646388D02*
X5136253Y-14608293D01*
X5136253Y-14608293D02*
X5126729Y-14589246D01*
X5126729Y-14589246D02*
X5117205Y-14579722D01*
X5117205Y-14579722D02*
X5098158Y-14570198D01*
X5260063Y-14484484D02*
X5279110Y-14484484D01*
X5279110Y-14484484D02*
X5298158Y-14494008D01*
X5298158Y-14494008D02*
X5307682Y-14503531D01*
X5307682Y-14503531D02*
X5317205Y-14522579D01*
X5317205Y-14522579D02*
X5326729Y-14560674D01*
X5326729Y-14560674D02*
X5326729Y-14608293D01*
X5326729Y-14608293D02*
X5317205Y-14646388D01*
X5317205Y-14646388D02*
X5307682Y-14665436D01*
X5307682Y-14665436D02*
X5298158Y-14674960D01*
X5298158Y-14674960D02*
X5279110Y-14684484D01*
X5279110Y-14684484D02*
X5260063Y-14684484D01*
X5260063Y-14684484D02*
X5241015Y-14674960D01*
X5241015Y-14674960D02*
X5231491Y-14665436D01*
X5231491Y-14665436D02*
X5221967Y-14646388D01*
X5221967Y-14646388D02*
X5212444Y-14608293D01*
X5212444Y-14608293D02*
X5212444Y-14560674D01*
X5212444Y-14560674D02*
X5221967Y-14522579D01*
X5221967Y-14522579D02*
X5231491Y-14503531D01*
X5231491Y-14503531D02*
X5241015Y-14494008D01*
X5241015Y-14494008D02*
X5260063Y-14484484D01*
X5450539Y-14484484D02*
X5469586Y-14484484D01*
X5469586Y-14484484D02*
X5488634Y-14494008D01*
X5488634Y-14494008D02*
X5498158Y-14503531D01*
X5498158Y-14503531D02*
X5507682Y-14522579D01*
X5507682Y-14522579D02*
X5517205Y-14560674D01*
X5517205Y-14560674D02*
X5517205Y-14608293D01*
X5517205Y-14608293D02*
X5507682Y-14646388D01*
X5507682Y-14646388D02*
X5498158Y-14665436D01*
X5498158Y-14665436D02*
X5488634Y-14674960D01*
X5488634Y-14674960D02*
X5469586Y-14684484D01*
X5469586Y-14684484D02*
X5450539Y-14684484D01*
X5450539Y-14684484D02*
X5431491Y-14674960D01*
X5431491Y-14674960D02*
X5421967Y-14665436D01*
X5421967Y-14665436D02*
X5412444Y-14646388D01*
X5412444Y-14646388D02*
X5402920Y-14608293D01*
X5402920Y-14608293D02*
X5402920Y-14560674D01*
X5402920Y-14560674D02*
X5412444Y-14522579D01*
X5412444Y-14522579D02*
X5421967Y-14503531D01*
X5421967Y-14503531D02*
X5431491Y-14494008D01*
X5431491Y-14494008D02*
X5450539Y-14484484D01*
X5602920Y-14684484D02*
X5602920Y-14551150D01*
X5602920Y-14570198D02*
X5612443Y-14560674D01*
X5612443Y-14560674D02*
X5631491Y-14551150D01*
X5631491Y-14551150D02*
X5660063Y-14551150D01*
X5660063Y-14551150D02*
X5679110Y-14560674D01*
X5679110Y-14560674D02*
X5688634Y-14579722D01*
X5688634Y-14579722D02*
X5688634Y-14684484D01*
X5688634Y-14579722D02*
X5698158Y-14560674D01*
X5698158Y-14560674D02*
X5717205Y-14551150D01*
X5717205Y-14551150D02*
X5745777Y-14551150D01*
X5745777Y-14551150D02*
X5764824Y-14560674D01*
X5764824Y-14560674D02*
X5774348Y-14579722D01*
X5774348Y-14579722D02*
X5774348Y-14684484D01*
X5869586Y-14684484D02*
X5869586Y-14551150D01*
X5869586Y-14570198D02*
X5879110Y-14560674D01*
X5879110Y-14560674D02*
X5898158Y-14551150D01*
X5898158Y-14551150D02*
X5926729Y-14551150D01*
X5926729Y-14551150D02*
X5945777Y-14560674D01*
X5945777Y-14560674D02*
X5955301Y-14579722D01*
X5955301Y-14579722D02*
X5955301Y-14684484D01*
X5955301Y-14579722D02*
X5964824Y-14560674D01*
X5964824Y-14560674D02*
X5983872Y-14551150D01*
X5983872Y-14551150D02*
X6012443Y-14551150D01*
X6012443Y-14551150D02*
X6031491Y-14560674D01*
X6031491Y-14560674D02*
X6041015Y-14579722D01*
X6041015Y-14579722D02*
X6041015Y-14684484D01*
X6431491Y-14474960D02*
X6260063Y-14732103D01*
X6688634Y-14484484D02*
X6707682Y-14484484D01*
X6707682Y-14484484D02*
X6726729Y-14494008D01*
X6726729Y-14494008D02*
X6736253Y-14503531D01*
X6736253Y-14503531D02*
X6745777Y-14522579D01*
X6745777Y-14522579D02*
X6755301Y-14560674D01*
X6755301Y-14560674D02*
X6755301Y-14608293D01*
X6755301Y-14608293D02*
X6745777Y-14646388D01*
X6745777Y-14646388D02*
X6736253Y-14665436D01*
X6736253Y-14665436D02*
X6726729Y-14674960D01*
X6726729Y-14674960D02*
X6707682Y-14684484D01*
X6707682Y-14684484D02*
X6688634Y-14684484D01*
X6688634Y-14684484D02*
X6669586Y-14674960D01*
X6669586Y-14674960D02*
X6660063Y-14665436D01*
X6660063Y-14665436D02*
X6650539Y-14646388D01*
X6650539Y-14646388D02*
X6641015Y-14608293D01*
X6641015Y-14608293D02*
X6641015Y-14560674D01*
X6641015Y-14560674D02*
X6650539Y-14522579D01*
X6650539Y-14522579D02*
X6660063Y-14503531D01*
X6660063Y-14503531D02*
X6669586Y-14494008D01*
X6669586Y-14494008D02*
X6688634Y-14484484D01*
X6841015Y-14665436D02*
X6850539Y-14674960D01*
X6850539Y-14674960D02*
X6841015Y-14684484D01*
X6841015Y-14684484D02*
X6831491Y-14674960D01*
X6831491Y-14674960D02*
X6841015Y-14665436D01*
X6841015Y-14665436D02*
X6841015Y-14684484D01*
X6974348Y-14484484D02*
X6993396Y-14484484D01*
X6993396Y-14484484D02*
X7012444Y-14494008D01*
X7012444Y-14494008D02*
X7021967Y-14503531D01*
X7021967Y-14503531D02*
X7031491Y-14522579D01*
X7031491Y-14522579D02*
X7041015Y-14560674D01*
X7041015Y-14560674D02*
X7041015Y-14608293D01*
X7041015Y-14608293D02*
X7031491Y-14646388D01*
X7031491Y-14646388D02*
X7021967Y-14665436D01*
X7021967Y-14665436D02*
X7012444Y-14674960D01*
X7012444Y-14674960D02*
X6993396Y-14684484D01*
X6993396Y-14684484D02*
X6974348Y-14684484D01*
X6974348Y-14684484D02*
X6955301Y-14674960D01*
X6955301Y-14674960D02*
X6945777Y-14665436D01*
X6945777Y-14665436D02*
X6936253Y-14646388D01*
X6936253Y-14646388D02*
X6926729Y-14608293D01*
X6926729Y-14608293D02*
X6926729Y-14560674D01*
X6926729Y-14560674D02*
X6936253Y-14522579D01*
X6936253Y-14522579D02*
X6945777Y-14503531D01*
X6945777Y-14503531D02*
X6955301Y-14494008D01*
X6955301Y-14494008D02*
X6974348Y-14484484D01*
X7107682Y-14484484D02*
X7231491Y-14484484D01*
X7231491Y-14484484D02*
X7164825Y-14560674D01*
X7164825Y-14560674D02*
X7193396Y-14560674D01*
X7193396Y-14560674D02*
X7212444Y-14570198D01*
X7212444Y-14570198D02*
X7221967Y-14579722D01*
X7221967Y-14579722D02*
X7231491Y-14598769D01*
X7231491Y-14598769D02*
X7231491Y-14646388D01*
X7231491Y-14646388D02*
X7221967Y-14665436D01*
X7221967Y-14665436D02*
X7212444Y-14674960D01*
X7212444Y-14674960D02*
X7193396Y-14684484D01*
X7193396Y-14684484D02*
X7136253Y-14684484D01*
X7136253Y-14684484D02*
X7117206Y-14674960D01*
X7117206Y-14674960D02*
X7107682Y-14665436D01*
X7421967Y-14684484D02*
X7307682Y-14684484D01*
X7364825Y-14684484D02*
X7364825Y-14484484D01*
X7364825Y-14484484D02*
X7345777Y-14513055D01*
X7345777Y-14513055D02*
X7326729Y-14532103D01*
X7326729Y-14532103D02*
X7307682Y-14541627D01*
X7602920Y-14484484D02*
X7507682Y-14484484D01*
X7507682Y-14484484D02*
X7498158Y-14579722D01*
X7498158Y-14579722D02*
X7507682Y-14570198D01*
X7507682Y-14570198D02*
X7526729Y-14560674D01*
X7526729Y-14560674D02*
X7574348Y-14560674D01*
X7574348Y-14560674D02*
X7593396Y-14570198D01*
X7593396Y-14570198D02*
X7602920Y-14579722D01*
X7602920Y-14579722D02*
X7612444Y-14598769D01*
X7612444Y-14598769D02*
X7612444Y-14646388D01*
X7612444Y-14646388D02*
X7602920Y-14665436D01*
X7602920Y-14665436D02*
X7593396Y-14674960D01*
X7593396Y-14674960D02*
X7574348Y-14684484D01*
X7574348Y-14684484D02*
X7526729Y-14684484D01*
X7526729Y-14684484D02*
X7507682Y-14674960D01*
X7507682Y-14674960D02*
X7498158Y-14665436D01*
X7688634Y-14484484D02*
X7688634Y-14522579D01*
X7764825Y-14484484D02*
X7764825Y-14522579D01*
X8060063Y-14760674D02*
X8050539Y-14751150D01*
X8050539Y-14751150D02*
X8031491Y-14722579D01*
X8031491Y-14722579D02*
X8021968Y-14703531D01*
X8021968Y-14703531D02*
X8012444Y-14674960D01*
X8012444Y-14674960D02*
X8002920Y-14627341D01*
X8002920Y-14627341D02*
X8002920Y-14589246D01*
X8002920Y-14589246D02*
X8012444Y-14541627D01*
X8012444Y-14541627D02*
X8021968Y-14513055D01*
X8021968Y-14513055D02*
X8031491Y-14494008D01*
X8031491Y-14494008D02*
X8050539Y-14465436D01*
X8050539Y-14465436D02*
X8060063Y-14455912D01*
X8117206Y-14484484D02*
X8241015Y-14484484D01*
X8241015Y-14484484D02*
X8174348Y-14560674D01*
X8174348Y-14560674D02*
X8202920Y-14560674D01*
X8202920Y-14560674D02*
X8221968Y-14570198D01*
X8221968Y-14570198D02*
X8231491Y-14579722D01*
X8231491Y-14579722D02*
X8241015Y-14598769D01*
X8241015Y-14598769D02*
X8241015Y-14646388D01*
X8241015Y-14646388D02*
X8231491Y-14665436D01*
X8231491Y-14665436D02*
X8221968Y-14674960D01*
X8221968Y-14674960D02*
X8202920Y-14684484D01*
X8202920Y-14684484D02*
X8145777Y-14684484D01*
X8145777Y-14684484D02*
X8126729Y-14674960D01*
X8126729Y-14674960D02*
X8117206Y-14665436D01*
X8479111Y-14684484D02*
X8479111Y-14484484D01*
X8564825Y-14684484D02*
X8564825Y-14579722D01*
X8564825Y-14579722D02*
X8555301Y-14560674D01*
X8555301Y-14560674D02*
X8536253Y-14551150D01*
X8536253Y-14551150D02*
X8507682Y-14551150D01*
X8507682Y-14551150D02*
X8488634Y-14560674D01*
X8488634Y-14560674D02*
X8479111Y-14570198D01*
X8688634Y-14684484D02*
X8669587Y-14674960D01*
X8669587Y-14674960D02*
X8660063Y-14665436D01*
X8660063Y-14665436D02*
X8650539Y-14646388D01*
X8650539Y-14646388D02*
X8650539Y-14589246D01*
X8650539Y-14589246D02*
X8660063Y-14570198D01*
X8660063Y-14570198D02*
X8669587Y-14560674D01*
X8669587Y-14560674D02*
X8688634Y-14551150D01*
X8688634Y-14551150D02*
X8717206Y-14551150D01*
X8717206Y-14551150D02*
X8736253Y-14560674D01*
X8736253Y-14560674D02*
X8745777Y-14570198D01*
X8745777Y-14570198D02*
X8755301Y-14589246D01*
X8755301Y-14589246D02*
X8755301Y-14646388D01*
X8755301Y-14646388D02*
X8745777Y-14665436D01*
X8745777Y-14665436D02*
X8736253Y-14674960D01*
X8736253Y-14674960D02*
X8717206Y-14684484D01*
X8717206Y-14684484D02*
X8688634Y-14684484D01*
X8869587Y-14684484D02*
X8850539Y-14674960D01*
X8850539Y-14674960D02*
X8841015Y-14655912D01*
X8841015Y-14655912D02*
X8841015Y-14484484D01*
X9021968Y-14674960D02*
X9002920Y-14684484D01*
X9002920Y-14684484D02*
X8964825Y-14684484D01*
X8964825Y-14684484D02*
X8945777Y-14674960D01*
X8945777Y-14674960D02*
X8936253Y-14655912D01*
X8936253Y-14655912D02*
X8936253Y-14579722D01*
X8936253Y-14579722D02*
X8945777Y-14560674D01*
X8945777Y-14560674D02*
X8964825Y-14551150D01*
X8964825Y-14551150D02*
X9002920Y-14551150D01*
X9002920Y-14551150D02*
X9021968Y-14560674D01*
X9021968Y-14560674D02*
X9031492Y-14579722D01*
X9031492Y-14579722D02*
X9031492Y-14598769D01*
X9031492Y-14598769D02*
X8936253Y-14617817D01*
X9107682Y-14674960D02*
X9126730Y-14684484D01*
X9126730Y-14684484D02*
X9164825Y-14684484D01*
X9164825Y-14684484D02*
X9183873Y-14674960D01*
X9183873Y-14674960D02*
X9193396Y-14655912D01*
X9193396Y-14655912D02*
X9193396Y-14646388D01*
X9193396Y-14646388D02*
X9183873Y-14627341D01*
X9183873Y-14627341D02*
X9164825Y-14617817D01*
X9164825Y-14617817D02*
X9136253Y-14617817D01*
X9136253Y-14617817D02*
X9117206Y-14608293D01*
X9117206Y-14608293D02*
X9107682Y-14589246D01*
X9107682Y-14589246D02*
X9107682Y-14579722D01*
X9107682Y-14579722D02*
X9117206Y-14560674D01*
X9117206Y-14560674D02*
X9136253Y-14551150D01*
X9136253Y-14551150D02*
X9164825Y-14551150D01*
X9164825Y-14551150D02*
X9183873Y-14560674D01*
X9260063Y-14760674D02*
X9269587Y-14751150D01*
X9269587Y-14751150D02*
X9288634Y-14722579D01*
X9288634Y-14722579D02*
X9298158Y-14703531D01*
X9298158Y-14703531D02*
X9307682Y-14674960D01*
X9307682Y-14674960D02*
X9317206Y-14627341D01*
X9317206Y-14627341D02*
X9317206Y-14589246D01*
X9317206Y-14589246D02*
X9307682Y-14541627D01*
X9307682Y-14541627D02*
X9298158Y-14513055D01*
X9298158Y-14513055D02*
X9288634Y-14494008D01*
X9288634Y-14494008D02*
X9269587Y-14465436D01*
X9269587Y-14465436D02*
X9260063Y-14455912D01*
D10*
X4471820Y-14888820D02*
X4471820Y-14825180D01*
X4408180Y-14825180D01*
X4408180Y-14888820D01*
X4471820Y-14888820D01*
D12*
X4783872Y-14748484D02*
X4802920Y-14748484D01*
X4802920Y-14748484D02*
X4821967Y-14758008D01*
X4821967Y-14758008D02*
X4831491Y-14767531D01*
X4831491Y-14767531D02*
X4841015Y-14786579D01*
X4841015Y-14786579D02*
X4850539Y-14824674D01*
X4850539Y-14824674D02*
X4850539Y-14872293D01*
X4850539Y-14872293D02*
X4841015Y-14910388D01*
X4841015Y-14910388D02*
X4831491Y-14929436D01*
X4831491Y-14929436D02*
X4821967Y-14938960D01*
X4821967Y-14938960D02*
X4802920Y-14948484D01*
X4802920Y-14948484D02*
X4783872Y-14948484D01*
X4783872Y-14948484D02*
X4764824Y-14938960D01*
X4764824Y-14938960D02*
X4755301Y-14929436D01*
X4755301Y-14929436D02*
X4745777Y-14910388D01*
X4745777Y-14910388D02*
X4736253Y-14872293D01*
X4736253Y-14872293D02*
X4736253Y-14824674D01*
X4736253Y-14824674D02*
X4745777Y-14786579D01*
X4745777Y-14786579D02*
X4755301Y-14767531D01*
X4755301Y-14767531D02*
X4764824Y-14758008D01*
X4764824Y-14758008D02*
X4783872Y-14748484D01*
X4936253Y-14929436D02*
X4945777Y-14938960D01*
X4945777Y-14938960D02*
X4936253Y-14948484D01*
X4936253Y-14948484D02*
X4926729Y-14938960D01*
X4926729Y-14938960D02*
X4936253Y-14929436D01*
X4936253Y-14929436D02*
X4936253Y-14948484D01*
X5041015Y-14948484D02*
X5079110Y-14948484D01*
X5079110Y-14948484D02*
X5098158Y-14938960D01*
X5098158Y-14938960D02*
X5107682Y-14929436D01*
X5107682Y-14929436D02*
X5126729Y-14900865D01*
X5126729Y-14900865D02*
X5136253Y-14862769D01*
X5136253Y-14862769D02*
X5136253Y-14786579D01*
X5136253Y-14786579D02*
X5126729Y-14767531D01*
X5126729Y-14767531D02*
X5117205Y-14758008D01*
X5117205Y-14758008D02*
X5098158Y-14748484D01*
X5098158Y-14748484D02*
X5060063Y-14748484D01*
X5060063Y-14748484D02*
X5041015Y-14758008D01*
X5041015Y-14758008D02*
X5031491Y-14767531D01*
X5031491Y-14767531D02*
X5021967Y-14786579D01*
X5021967Y-14786579D02*
X5021967Y-14834198D01*
X5021967Y-14834198D02*
X5031491Y-14853246D01*
X5031491Y-14853246D02*
X5041015Y-14862769D01*
X5041015Y-14862769D02*
X5060063Y-14872293D01*
X5060063Y-14872293D02*
X5098158Y-14872293D01*
X5098158Y-14872293D02*
X5117205Y-14862769D01*
X5117205Y-14862769D02*
X5126729Y-14853246D01*
X5126729Y-14853246D02*
X5136253Y-14834198D01*
X5260063Y-14748484D02*
X5279110Y-14748484D01*
X5279110Y-14748484D02*
X5298158Y-14758008D01*
X5298158Y-14758008D02*
X5307682Y-14767531D01*
X5307682Y-14767531D02*
X5317205Y-14786579D01*
X5317205Y-14786579D02*
X5326729Y-14824674D01*
X5326729Y-14824674D02*
X5326729Y-14872293D01*
X5326729Y-14872293D02*
X5317205Y-14910388D01*
X5317205Y-14910388D02*
X5307682Y-14929436D01*
X5307682Y-14929436D02*
X5298158Y-14938960D01*
X5298158Y-14938960D02*
X5279110Y-14948484D01*
X5279110Y-14948484D02*
X5260063Y-14948484D01*
X5260063Y-14948484D02*
X5241015Y-14938960D01*
X5241015Y-14938960D02*
X5231491Y-14929436D01*
X5231491Y-14929436D02*
X5221967Y-14910388D01*
X5221967Y-14910388D02*
X5212444Y-14872293D01*
X5212444Y-14872293D02*
X5212444Y-14824674D01*
X5212444Y-14824674D02*
X5221967Y-14786579D01*
X5221967Y-14786579D02*
X5231491Y-14767531D01*
X5231491Y-14767531D02*
X5241015Y-14758008D01*
X5241015Y-14758008D02*
X5260063Y-14748484D01*
X5450539Y-14748484D02*
X5469586Y-14748484D01*
X5469586Y-14748484D02*
X5488634Y-14758008D01*
X5488634Y-14758008D02*
X5498158Y-14767531D01*
X5498158Y-14767531D02*
X5507682Y-14786579D01*
X5507682Y-14786579D02*
X5517205Y-14824674D01*
X5517205Y-14824674D02*
X5517205Y-14872293D01*
X5517205Y-14872293D02*
X5507682Y-14910388D01*
X5507682Y-14910388D02*
X5498158Y-14929436D01*
X5498158Y-14929436D02*
X5488634Y-14938960D01*
X5488634Y-14938960D02*
X5469586Y-14948484D01*
X5469586Y-14948484D02*
X5450539Y-14948484D01*
X5450539Y-14948484D02*
X5431491Y-14938960D01*
X5431491Y-14938960D02*
X5421967Y-14929436D01*
X5421967Y-14929436D02*
X5412444Y-14910388D01*
X5412444Y-14910388D02*
X5402920Y-14872293D01*
X5402920Y-14872293D02*
X5402920Y-14824674D01*
X5402920Y-14824674D02*
X5412444Y-14786579D01*
X5412444Y-14786579D02*
X5421967Y-14767531D01*
X5421967Y-14767531D02*
X5431491Y-14758008D01*
X5431491Y-14758008D02*
X5450539Y-14748484D01*
X5602920Y-14948484D02*
X5602920Y-14815150D01*
X5602920Y-14834198D02*
X5612443Y-14824674D01*
X5612443Y-14824674D02*
X5631491Y-14815150D01*
X5631491Y-14815150D02*
X5660063Y-14815150D01*
X5660063Y-14815150D02*
X5679110Y-14824674D01*
X5679110Y-14824674D02*
X5688634Y-14843722D01*
X5688634Y-14843722D02*
X5688634Y-14948484D01*
X5688634Y-14843722D02*
X5698158Y-14824674D01*
X5698158Y-14824674D02*
X5717205Y-14815150D01*
X5717205Y-14815150D02*
X5745777Y-14815150D01*
X5745777Y-14815150D02*
X5764824Y-14824674D01*
X5764824Y-14824674D02*
X5774348Y-14843722D01*
X5774348Y-14843722D02*
X5774348Y-14948484D01*
X5869586Y-14948484D02*
X5869586Y-14815150D01*
X5869586Y-14834198D02*
X5879110Y-14824674D01*
X5879110Y-14824674D02*
X5898158Y-14815150D01*
X5898158Y-14815150D02*
X5926729Y-14815150D01*
X5926729Y-14815150D02*
X5945777Y-14824674D01*
X5945777Y-14824674D02*
X5955301Y-14843722D01*
X5955301Y-14843722D02*
X5955301Y-14948484D01*
X5955301Y-14843722D02*
X5964824Y-14824674D01*
X5964824Y-14824674D02*
X5983872Y-14815150D01*
X5983872Y-14815150D02*
X6012443Y-14815150D01*
X6012443Y-14815150D02*
X6031491Y-14824674D01*
X6031491Y-14824674D02*
X6041015Y-14843722D01*
X6041015Y-14843722D02*
X6041015Y-14948484D01*
X6431491Y-14738960D02*
X6260063Y-14996103D01*
X6688634Y-14748484D02*
X6707682Y-14748484D01*
X6707682Y-14748484D02*
X6726729Y-14758008D01*
X6726729Y-14758008D02*
X6736253Y-14767531D01*
X6736253Y-14767531D02*
X6745777Y-14786579D01*
X6745777Y-14786579D02*
X6755301Y-14824674D01*
X6755301Y-14824674D02*
X6755301Y-14872293D01*
X6755301Y-14872293D02*
X6745777Y-14910388D01*
X6745777Y-14910388D02*
X6736253Y-14929436D01*
X6736253Y-14929436D02*
X6726729Y-14938960D01*
X6726729Y-14938960D02*
X6707682Y-14948484D01*
X6707682Y-14948484D02*
X6688634Y-14948484D01*
X6688634Y-14948484D02*
X6669586Y-14938960D01*
X6669586Y-14938960D02*
X6660063Y-14929436D01*
X6660063Y-14929436D02*
X6650539Y-14910388D01*
X6650539Y-14910388D02*
X6641015Y-14872293D01*
X6641015Y-14872293D02*
X6641015Y-14824674D01*
X6641015Y-14824674D02*
X6650539Y-14786579D01*
X6650539Y-14786579D02*
X6660063Y-14767531D01*
X6660063Y-14767531D02*
X6669586Y-14758008D01*
X6669586Y-14758008D02*
X6688634Y-14748484D01*
X6841015Y-14929436D02*
X6850539Y-14938960D01*
X6850539Y-14938960D02*
X6841015Y-14948484D01*
X6841015Y-14948484D02*
X6831491Y-14938960D01*
X6831491Y-14938960D02*
X6841015Y-14929436D01*
X6841015Y-14929436D02*
X6841015Y-14948484D01*
X6974348Y-14748484D02*
X6993396Y-14748484D01*
X6993396Y-14748484D02*
X7012444Y-14758008D01*
X7012444Y-14758008D02*
X7021967Y-14767531D01*
X7021967Y-14767531D02*
X7031491Y-14786579D01*
X7031491Y-14786579D02*
X7041015Y-14824674D01*
X7041015Y-14824674D02*
X7041015Y-14872293D01*
X7041015Y-14872293D02*
X7031491Y-14910388D01*
X7031491Y-14910388D02*
X7021967Y-14929436D01*
X7021967Y-14929436D02*
X7012444Y-14938960D01*
X7012444Y-14938960D02*
X6993396Y-14948484D01*
X6993396Y-14948484D02*
X6974348Y-14948484D01*
X6974348Y-14948484D02*
X6955301Y-14938960D01*
X6955301Y-14938960D02*
X6945777Y-14929436D01*
X6945777Y-14929436D02*
X6936253Y-14910388D01*
X6936253Y-14910388D02*
X6926729Y-14872293D01*
X6926729Y-14872293D02*
X6926729Y-14824674D01*
X6926729Y-14824674D02*
X6936253Y-14786579D01*
X6936253Y-14786579D02*
X6945777Y-14767531D01*
X6945777Y-14767531D02*
X6955301Y-14758008D01*
X6955301Y-14758008D02*
X6974348Y-14748484D01*
X7107682Y-14748484D02*
X7231491Y-14748484D01*
X7231491Y-14748484D02*
X7164825Y-14824674D01*
X7164825Y-14824674D02*
X7193396Y-14824674D01*
X7193396Y-14824674D02*
X7212444Y-14834198D01*
X7212444Y-14834198D02*
X7221967Y-14843722D01*
X7221967Y-14843722D02*
X7231491Y-14862769D01*
X7231491Y-14862769D02*
X7231491Y-14910388D01*
X7231491Y-14910388D02*
X7221967Y-14929436D01*
X7221967Y-14929436D02*
X7212444Y-14938960D01*
X7212444Y-14938960D02*
X7193396Y-14948484D01*
X7193396Y-14948484D02*
X7136253Y-14948484D01*
X7136253Y-14948484D02*
X7117206Y-14938960D01*
X7117206Y-14938960D02*
X7107682Y-14929436D01*
X7412444Y-14748484D02*
X7317206Y-14748484D01*
X7317206Y-14748484D02*
X7307682Y-14843722D01*
X7307682Y-14843722D02*
X7317206Y-14834198D01*
X7317206Y-14834198D02*
X7336253Y-14824674D01*
X7336253Y-14824674D02*
X7383872Y-14824674D01*
X7383872Y-14824674D02*
X7402920Y-14834198D01*
X7402920Y-14834198D02*
X7412444Y-14843722D01*
X7412444Y-14843722D02*
X7421967Y-14862769D01*
X7421967Y-14862769D02*
X7421967Y-14910388D01*
X7421967Y-14910388D02*
X7412444Y-14929436D01*
X7412444Y-14929436D02*
X7402920Y-14938960D01*
X7402920Y-14938960D02*
X7383872Y-14948484D01*
X7383872Y-14948484D02*
X7336253Y-14948484D01*
X7336253Y-14948484D02*
X7317206Y-14938960D01*
X7317206Y-14938960D02*
X7307682Y-14929436D01*
X7593396Y-14815150D02*
X7593396Y-14948484D01*
X7545777Y-14738960D02*
X7498158Y-14881817D01*
X7498158Y-14881817D02*
X7621967Y-14881817D01*
X7688634Y-14748484D02*
X7688634Y-14786579D01*
X7764825Y-14748484D02*
X7764825Y-14786579D01*
X8060063Y-15024674D02*
X8050539Y-15015150D01*
X8050539Y-15015150D02*
X8031491Y-14986579D01*
X8031491Y-14986579D02*
X8021968Y-14967531D01*
X8021968Y-14967531D02*
X8012444Y-14938960D01*
X8012444Y-14938960D02*
X8002920Y-14891341D01*
X8002920Y-14891341D02*
X8002920Y-14853246D01*
X8002920Y-14853246D02*
X8012444Y-14805627D01*
X8012444Y-14805627D02*
X8021968Y-14777055D01*
X8021968Y-14777055D02*
X8031491Y-14758008D01*
X8031491Y-14758008D02*
X8050539Y-14729436D01*
X8050539Y-14729436D02*
X8060063Y-14719912D01*
X8221968Y-14748484D02*
X8183872Y-14748484D01*
X8183872Y-14748484D02*
X8164825Y-14758008D01*
X8164825Y-14758008D02*
X8155301Y-14767531D01*
X8155301Y-14767531D02*
X8136253Y-14796103D01*
X8136253Y-14796103D02*
X8126729Y-14834198D01*
X8126729Y-14834198D02*
X8126729Y-14910388D01*
X8126729Y-14910388D02*
X8136253Y-14929436D01*
X8136253Y-14929436D02*
X8145777Y-14938960D01*
X8145777Y-14938960D02*
X8164825Y-14948484D01*
X8164825Y-14948484D02*
X8202920Y-14948484D01*
X8202920Y-14948484D02*
X8221968Y-14938960D01*
X8221968Y-14938960D02*
X8231491Y-14929436D01*
X8231491Y-14929436D02*
X8241015Y-14910388D01*
X8241015Y-14910388D02*
X8241015Y-14862769D01*
X8241015Y-14862769D02*
X8231491Y-14843722D01*
X8231491Y-14843722D02*
X8221968Y-14834198D01*
X8221968Y-14834198D02*
X8202920Y-14824674D01*
X8202920Y-14824674D02*
X8164825Y-14824674D01*
X8164825Y-14824674D02*
X8145777Y-14834198D01*
X8145777Y-14834198D02*
X8136253Y-14843722D01*
X8136253Y-14843722D02*
X8126729Y-14862769D01*
X8479111Y-14948484D02*
X8479111Y-14748484D01*
X8564825Y-14948484D02*
X8564825Y-14843722D01*
X8564825Y-14843722D02*
X8555301Y-14824674D01*
X8555301Y-14824674D02*
X8536253Y-14815150D01*
X8536253Y-14815150D02*
X8507682Y-14815150D01*
X8507682Y-14815150D02*
X8488634Y-14824674D01*
X8488634Y-14824674D02*
X8479111Y-14834198D01*
X8688634Y-14948484D02*
X8669587Y-14938960D01*
X8669587Y-14938960D02*
X8660063Y-14929436D01*
X8660063Y-14929436D02*
X8650539Y-14910388D01*
X8650539Y-14910388D02*
X8650539Y-14853246D01*
X8650539Y-14853246D02*
X8660063Y-14834198D01*
X8660063Y-14834198D02*
X8669587Y-14824674D01*
X8669587Y-14824674D02*
X8688634Y-14815150D01*
X8688634Y-14815150D02*
X8717206Y-14815150D01*
X8717206Y-14815150D02*
X8736253Y-14824674D01*
X8736253Y-14824674D02*
X8745777Y-14834198D01*
X8745777Y-14834198D02*
X8755301Y-14853246D01*
X8755301Y-14853246D02*
X8755301Y-14910388D01*
X8755301Y-14910388D02*
X8745777Y-14929436D01*
X8745777Y-14929436D02*
X8736253Y-14938960D01*
X8736253Y-14938960D02*
X8717206Y-14948484D01*
X8717206Y-14948484D02*
X8688634Y-14948484D01*
X8869587Y-14948484D02*
X8850539Y-14938960D01*
X8850539Y-14938960D02*
X8841015Y-14919912D01*
X8841015Y-14919912D02*
X8841015Y-14748484D01*
X9021968Y-14938960D02*
X9002920Y-14948484D01*
X9002920Y-14948484D02*
X8964825Y-14948484D01*
X8964825Y-14948484D02*
X8945777Y-14938960D01*
X8945777Y-14938960D02*
X8936253Y-14919912D01*
X8936253Y-14919912D02*
X8936253Y-14843722D01*
X8936253Y-14843722D02*
X8945777Y-14824674D01*
X8945777Y-14824674D02*
X8964825Y-14815150D01*
X8964825Y-14815150D02*
X9002920Y-14815150D01*
X9002920Y-14815150D02*
X9021968Y-14824674D01*
X9021968Y-14824674D02*
X9031492Y-14843722D01*
X9031492Y-14843722D02*
X9031492Y-14862769D01*
X9031492Y-14862769D02*
X8936253Y-14881817D01*
X9107682Y-14938960D02*
X9126730Y-14948484D01*
X9126730Y-14948484D02*
X9164825Y-14948484D01*
X9164825Y-14948484D02*
X9183873Y-14938960D01*
X9183873Y-14938960D02*
X9193396Y-14919912D01*
X9193396Y-14919912D02*
X9193396Y-14910388D01*
X9193396Y-14910388D02*
X9183873Y-14891341D01*
X9183873Y-14891341D02*
X9164825Y-14881817D01*
X9164825Y-14881817D02*
X9136253Y-14881817D01*
X9136253Y-14881817D02*
X9117206Y-14872293D01*
X9117206Y-14872293D02*
X9107682Y-14853246D01*
X9107682Y-14853246D02*
X9107682Y-14843722D01*
X9107682Y-14843722D02*
X9117206Y-14824674D01*
X9117206Y-14824674D02*
X9136253Y-14815150D01*
X9136253Y-14815150D02*
X9164825Y-14815150D01*
X9164825Y-14815150D02*
X9183873Y-14824674D01*
X9260063Y-15024674D02*
X9269587Y-15015150D01*
X9269587Y-15015150D02*
X9288634Y-14986579D01*
X9288634Y-14986579D02*
X9298158Y-14967531D01*
X9298158Y-14967531D02*
X9307682Y-14938960D01*
X9307682Y-14938960D02*
X9317206Y-14891341D01*
X9317206Y-14891341D02*
X9317206Y-14853246D01*
X9317206Y-14853246D02*
X9307682Y-14805627D01*
X9307682Y-14805627D02*
X9298158Y-14777055D01*
X9298158Y-14777055D02*
X9288634Y-14758008D01*
X9288634Y-14758008D02*
X9269587Y-14729436D01*
X9269587Y-14729436D02*
X9260063Y-14719912D01*
M02*
