G04 #@! TF.GenerationSoftware,KiCad,Pcbnew,9.0.3*
G04 #@! TF.CreationDate,2025-11-06T12:11:40+01:00*
G04 #@! TF.ProjectId,modbus-to-x,6d6f6462-7573-42d7-946f-2d782e6b6963,rev?*
G04 #@! TF.SameCoordinates,Original*
G04 #@! TF.FileFunction,Copper,L2,Inr*
G04 #@! TF.FilePolarity,Positive*
%FSLAX46Y46*%
G04 Gerber Fmt 4.6, Leading zero omitted, Abs format (unit mm)*
G04 Created by KiCad (PCBNEW 9.0.3) date 2025-11-06 12:11:40*
%MOMM*%
%LPD*%
G01*
G04 APERTURE LIST*
G04 #@! TA.AperFunction,HeatsinkPad*
%ADD10C,0.600000*%
G04 #@! TD*
G04 #@! TA.AperFunction,ComponentPad*
%ADD11R,1.500000X1.500000*%
G04 #@! TD*
G04 #@! TA.AperFunction,ComponentPad*
%ADD12C,1.600000*%
G04 #@! TD*
G04 #@! TA.AperFunction,ComponentPad*
%ADD13C,1.408000*%
G04 #@! TD*
G04 #@! TA.AperFunction,ViaPad*
%ADD14C,0.600000*%
G04 #@! TD*
G04 APERTURE END LIST*
D10*
X65450000Y-94800000D03*
X65450000Y-96033333D03*
X65450000Y-93566666D03*
X58950000Y-90500000D03*
X58950000Y-91733333D03*
X58950000Y-97900000D03*
X58950000Y-94200000D03*
X58950000Y-95433333D03*
X58950000Y-92966667D03*
X58950000Y-96666667D03*
X63100000Y-90550000D03*
X63100000Y-91783333D03*
X63100000Y-97950000D03*
X63100000Y-94250000D03*
X63100000Y-95483333D03*
X63100000Y-93016667D03*
X63100000Y-96716667D03*
X61050000Y-96033333D03*
X61050000Y-94800000D03*
X61050000Y-93566666D03*
X67650000Y-90550000D03*
X67650000Y-91783333D03*
X67650000Y-93016667D03*
X67650000Y-94250000D03*
X67650000Y-95483333D03*
X67650000Y-96716667D03*
X67650000Y-97950000D03*
D11*
X89040000Y-122400000D03*
D12*
X91580000Y-122400000D03*
X86500000Y-122400000D03*
D13*
X108950000Y-122260000D03*
X107930000Y-124800000D03*
X106910000Y-122260000D03*
X105890000Y-124800000D03*
X104870000Y-122260000D03*
X103850000Y-124800000D03*
D10*
X117431800Y-96425400D03*
X114631800Y-96425400D03*
X114631800Y-97825400D03*
X115331800Y-95725400D03*
X115331800Y-97125400D03*
X115331800Y-98525400D03*
X116006800Y-96425400D03*
X116006800Y-97825400D03*
X116731800Y-95725400D03*
X116731800Y-97125400D03*
X116731800Y-98525400D03*
X117431800Y-97825400D03*
D14*
X124650000Y-118400000D03*
X100850000Y-112250000D03*
X100100000Y-111500000D03*
X107150000Y-88500000D03*
X100000000Y-96700000D03*
X98600000Y-95700000D03*
X107100000Y-91900000D03*
X107368548Y-100478205D03*
X104268548Y-100478205D03*
X105368548Y-100478205D03*
X106368548Y-100478205D03*
X103268548Y-100478205D03*
X106400000Y-97300000D03*
X105400000Y-97300000D03*
X104300000Y-97300000D03*
X103300000Y-97300000D03*
X105700000Y-117100000D03*
X103000000Y-121200000D03*
X104500000Y-120600000D03*
X104500000Y-119500000D03*
X99200000Y-103600000D03*
X89850000Y-99900000D03*
X91350000Y-100950000D03*
X46600000Y-132200000D03*
X122900000Y-96140000D03*
X119200000Y-102200000D03*
X131400000Y-95300000D03*
X131400000Y-102566667D03*
X84700000Y-100200000D03*
X122508450Y-123575200D03*
X131400000Y-100166667D03*
X97897000Y-127101800D03*
X95400000Y-119400000D03*
X58500000Y-99800000D03*
X95800000Y-107000000D03*
X45900000Y-95833334D03*
X97900000Y-128500000D03*
X73900000Y-121000000D03*
X82233333Y-88500000D03*
X120600000Y-105100000D03*
X45900000Y-115100000D03*
X48233333Y-132800000D03*
X115320000Y-105100000D03*
X122100000Y-91200000D03*
X45900000Y-110400000D03*
X109407200Y-117297200D03*
X110032800Y-88950800D03*
X66700000Y-99800000D03*
X89200000Y-119400000D03*
X114400000Y-109200000D03*
X54700000Y-105100000D03*
X117080000Y-105100000D03*
X57933333Y-132800000D03*
X55800000Y-100680000D03*
X131400000Y-109866667D03*
X110845600Y-107721400D03*
X67666666Y-88500000D03*
X45900000Y-90966667D03*
X123133333Y-132800000D03*
X119800000Y-121100000D03*
X109700000Y-118800000D03*
X112100000Y-124533334D03*
X119500000Y-96140000D03*
X95100000Y-128400000D03*
X112700000Y-97900000D03*
X68600000Y-106000000D03*
X89700000Y-88500000D03*
X85700000Y-114400000D03*
X118300000Y-132800000D03*
X47660000Y-109100000D03*
X116900000Y-91200000D03*
X85600000Y-119400000D03*
X94166666Y-132800000D03*
X131400000Y-97733334D03*
X120320000Y-100000000D03*
X101333333Y-132800000D03*
X94800000Y-106200000D03*
X79700000Y-121100000D03*
X115900000Y-132800000D03*
X65233333Y-88500000D03*
X131400000Y-114933333D03*
X79666666Y-132800000D03*
X120700000Y-132800000D03*
X60300000Y-99800000D03*
X118600000Y-93900000D03*
X112640000Y-109200000D03*
X45900000Y-112600000D03*
X107400000Y-97300000D03*
X65233333Y-132800000D03*
X129400000Y-88500000D03*
X52940000Y-105100000D03*
X108633333Y-132800000D03*
X45900000Y-117400000D03*
X84700000Y-102080000D03*
X50766667Y-88500000D03*
X95103000Y-127051000D03*
X84533333Y-132800000D03*
X76800000Y-90100000D03*
X68600000Y-102480000D03*
X111100000Y-97900000D03*
X84700000Y-91400000D03*
X83000000Y-119400000D03*
X84833333Y-88500000D03*
X116840000Y-93900000D03*
X69966666Y-132800000D03*
X131400000Y-105000000D03*
X118660000Y-91200000D03*
X93200000Y-119400000D03*
X119500000Y-97900000D03*
X96966666Y-88500000D03*
X56900000Y-93780000D03*
X58033333Y-88500000D03*
X55533333Y-132800000D03*
X62800000Y-132800000D03*
X83600000Y-115800000D03*
X92133333Y-88500000D03*
X56900000Y-92020000D03*
X130900000Y-89000000D03*
X111100000Y-96140000D03*
X79800000Y-88500000D03*
X125566667Y-132800000D03*
X90400000Y-106200000D03*
X87500000Y-120300000D03*
X113280000Y-100000000D03*
X124489650Y-123575200D03*
X109120000Y-109200000D03*
X115080000Y-93900000D03*
X131400000Y-122200000D03*
X78900000Y-91200000D03*
X111033333Y-132800000D03*
X77366666Y-88500000D03*
X91220000Y-119400000D03*
X53200000Y-88500000D03*
X103766666Y-132800000D03*
X103300000Y-99400000D03*
X45900000Y-129800000D03*
X82760000Y-91200000D03*
X56900000Y-99060000D03*
X55800000Y-102440000D03*
X104800000Y-88500000D03*
X115140000Y-91200000D03*
X74933333Y-88500000D03*
X87400000Y-113100000D03*
X73900000Y-122100000D03*
X45900000Y-119800000D03*
X98550000Y-109900000D03*
X121100000Y-96140000D03*
X97420000Y-119400000D03*
X79700000Y-118700000D03*
X73900000Y-123200000D03*
X77900000Y-122400000D03*
X124500000Y-97900000D03*
X113380000Y-91200000D03*
X109666666Y-120500000D03*
X118840000Y-105100000D03*
X53100000Y-132800000D03*
X45900000Y-105533334D03*
X121100000Y-97900000D03*
X68600000Y-104240000D03*
X70100000Y-88500000D03*
X91800000Y-132800000D03*
X97650000Y-108950000D03*
X75660000Y-121000000D03*
X131400000Y-112500000D03*
X99400000Y-88500000D03*
X131400000Y-117366667D03*
X125018800Y-89027000D03*
X118800000Y-124400000D03*
X118560000Y-100000000D03*
X50666666Y-132800000D03*
X45900000Y-93400000D03*
X61800000Y-99800000D03*
X84700000Y-103840000D03*
X115040000Y-100000000D03*
X94533333Y-88500000D03*
X111620000Y-91200000D03*
X112100000Y-122500000D03*
X60466667Y-88500000D03*
X123800000Y-93900000D03*
X47200000Y-120700000D03*
X113320000Y-93900000D03*
X63300000Y-99800000D03*
X72533333Y-88500000D03*
X131400000Y-129500000D03*
X48800000Y-120700000D03*
X128800000Y-132800000D03*
X131000000Y-132200000D03*
X117440000Y-102200000D03*
X77900000Y-119900000D03*
X62900000Y-88500000D03*
X56900000Y-90140000D03*
X114140000Y-89000000D03*
X131400000Y-119800000D03*
X115680000Y-102200000D03*
X72400000Y-132800000D03*
X122000000Y-100000000D03*
X70100000Y-91200000D03*
X87266666Y-88500000D03*
X115900000Y-89000000D03*
X116281200Y-108737400D03*
X52940000Y-109100000D03*
X91960000Y-106200000D03*
X84700000Y-98440000D03*
X82100000Y-132800000D03*
X120360000Y-93900000D03*
X123760000Y-100000000D03*
X122900000Y-97900000D03*
X112100000Y-120500000D03*
X72500000Y-91200000D03*
X118800000Y-121600000D03*
X45900000Y-100666667D03*
X112700000Y-96140000D03*
X117660000Y-89000000D03*
X107233333Y-120500000D03*
X122040000Y-93900000D03*
X96600000Y-132800000D03*
X122860000Y-89000000D03*
X113560000Y-105100000D03*
X81000000Y-91200000D03*
X124500000Y-96140000D03*
X126470850Y-123575200D03*
X63600000Y-107100000D03*
X68600000Y-99800000D03*
X99400000Y-119400000D03*
X131400000Y-92866667D03*
X107266667Y-118800000D03*
X102600000Y-90000000D03*
X112380000Y-89000000D03*
X131400000Y-124633333D03*
X48333333Y-88500000D03*
X127889000Y-89052400D03*
X131400000Y-90500000D03*
X96650000Y-107900000D03*
X45900000Y-127066667D03*
X84700000Y-94920000D03*
X81500000Y-117300000D03*
X118081700Y-120773109D03*
X113466666Y-132800000D03*
X121100000Y-89000000D03*
X63300000Y-106200000D03*
X116800000Y-100000000D03*
X131400000Y-127066667D03*
X110845600Y-106705400D03*
X110880000Y-109200000D03*
X45900000Y-122233333D03*
X112133334Y-118800000D03*
X67533333Y-132800000D03*
X127889000Y-90000000D03*
X99033333Y-132800000D03*
X45900000Y-107966667D03*
X49420000Y-109100000D03*
X106200000Y-132800000D03*
X75660000Y-123200000D03*
X93500000Y-106200000D03*
X110032800Y-89800000D03*
X95411699Y-125756820D03*
X120340000Y-91200000D03*
X131400000Y-107433334D03*
X55600000Y-88500000D03*
X119420000Y-89000000D03*
X60366666Y-132800000D03*
X119900000Y-124800000D03*
X113920000Y-102200000D03*
X55800000Y-104200000D03*
X103300000Y-98300000D03*
X89366666Y-132800000D03*
X46600000Y-89300000D03*
X97621499Y-125731420D03*
X64900000Y-99800000D03*
X90400000Y-107600000D03*
X74833333Y-132800000D03*
X84700000Y-96680000D03*
X45900000Y-98266667D03*
X74700000Y-91200000D03*
X51180000Y-109100000D03*
X56900000Y-97300000D03*
X45900000Y-124600000D03*
X56900000Y-95540000D03*
X84700000Y-93160000D03*
X45900000Y-103100000D03*
X86933333Y-132800000D03*
X101500000Y-92300000D03*
X89600000Y-111600000D03*
X125018800Y-89839800D03*
X90400000Y-109000000D03*
X77233333Y-132800000D03*
X101900000Y-88500000D03*
X90400000Y-110200000D03*
X102850000Y-107400000D03*
X104700000Y-101600000D03*
X124968000Y-105918000D03*
X86400000Y-111500000D03*
X88400000Y-107100000D03*
X86400000Y-106500000D03*
X114326007Y-124516311D03*
X107100000Y-90100000D03*
X104411600Y-112983400D03*
X86400000Y-109900000D03*
X88400000Y-108700000D03*
X86400000Y-108200000D03*
X112623947Y-112537800D03*
X116100000Y-119400000D03*
X107100000Y-90900000D03*
X114956700Y-121120678D03*
X116332127Y-124293730D03*
X88400000Y-110400000D03*
X116205000Y-117285700D03*
X106070400Y-113030000D03*
X125247400Y-93243400D03*
X93300000Y-98800000D03*
X125272800Y-94462600D03*
X58300000Y-105400000D03*
X58300000Y-101800000D03*
X57600000Y-124400000D03*
X57400000Y-102900000D03*
X58300000Y-102900000D03*
X57600000Y-125200000D03*
X58500000Y-125200000D03*
X58500000Y-124400000D03*
X58300000Y-104100000D03*
X57400000Y-101800000D03*
X57400000Y-105400000D03*
X57400000Y-104100000D03*
X103469900Y-118774600D03*
X122923650Y-121695600D03*
X103469900Y-117136300D03*
X124913650Y-121695600D03*
X126903650Y-121695600D03*
X103505000Y-115519200D03*
X101498400Y-118186200D03*
X112100000Y-102000000D03*
X100634800Y-114477800D03*
X110015819Y-104069992D03*
X111000000Y-103000000D03*
X101482600Y-116306600D03*
X90900000Y-97500000D03*
X114900000Y-112550000D03*
G04 #@! TA.AperFunction,Conductor*
G36*
X93474839Y-88020185D02*
G01*
X93520594Y-88072989D01*
X93526489Y-88100089D01*
X93531800Y-88105400D01*
X130182851Y-88105400D01*
X130184206Y-88105606D01*
X130184892Y-88105417D01*
X130219740Y-88111014D01*
X130236549Y-88116251D01*
X130309391Y-88138950D01*
X130324904Y-88144955D01*
X130766302Y-88350941D01*
X130777994Y-88357180D01*
X130913465Y-88439075D01*
X130925776Y-88447573D01*
X131151573Y-88624473D01*
X131162781Y-88634403D01*
X131365596Y-88837218D01*
X131375526Y-88848426D01*
X131466701Y-88964803D01*
X131481457Y-88988838D01*
X131932646Y-89955672D01*
X131942248Y-89985758D01*
X131979923Y-90191340D01*
X131981728Y-90206205D01*
X131999274Y-90496263D01*
X131999500Y-90503750D01*
X131999500Y-131196249D01*
X131999274Y-131203736D01*
X131981728Y-131493794D01*
X131979923Y-131508659D01*
X131935107Y-131753211D01*
X131925335Y-131783658D01*
X131499833Y-132687848D01*
X131485247Y-132711521D01*
X131375530Y-132851567D01*
X131365600Y-132862777D01*
X131268004Y-132960372D01*
X131236580Y-132983194D01*
X130051510Y-133586504D01*
X129995253Y-133600000D01*
X50313984Y-133600000D01*
X50288007Y-133597249D01*
X46180067Y-132717153D01*
X46118639Y-132683861D01*
X46084961Y-132622643D01*
X46084334Y-132619627D01*
X45915456Y-131753211D01*
X45537437Y-129813803D01*
X45402790Y-129123006D01*
X45400500Y-129099283D01*
X45400500Y-128568872D01*
X47699500Y-128568872D01*
X47699500Y-128831127D01*
X47720436Y-128990140D01*
X47733730Y-129091116D01*
X47742275Y-129123006D01*
X47801602Y-129344418D01*
X47801605Y-129344428D01*
X47901953Y-129586690D01*
X47901958Y-129586700D01*
X48033075Y-129813803D01*
X48192718Y-130021851D01*
X48192726Y-130021860D01*
X48378140Y-130207274D01*
X48378148Y-130207281D01*
X48586196Y-130366924D01*
X48813299Y-130498041D01*
X48813309Y-130498046D01*
X49055571Y-130598394D01*
X49055581Y-130598398D01*
X49308884Y-130666270D01*
X49568880Y-130700500D01*
X49568887Y-130700500D01*
X49831113Y-130700500D01*
X49831120Y-130700500D01*
X50091116Y-130666270D01*
X50344419Y-130598398D01*
X50586697Y-130498043D01*
X50813803Y-130366924D01*
X51021851Y-130207282D01*
X51021855Y-130207277D01*
X51021860Y-130207274D01*
X51207274Y-130021860D01*
X51207277Y-130021855D01*
X51207282Y-130021851D01*
X51366924Y-129813803D01*
X51498043Y-129586697D01*
X51598398Y-129344419D01*
X51666270Y-129091116D01*
X51700500Y-128831120D01*
X51700500Y-128568880D01*
X51700499Y-128568872D01*
X125299500Y-128568872D01*
X125299500Y-128831127D01*
X125320436Y-128990140D01*
X125333730Y-129091116D01*
X125342275Y-129123006D01*
X125401602Y-129344418D01*
X125401605Y-129344428D01*
X125501953Y-129586690D01*
X125501958Y-129586700D01*
X125633075Y-129813803D01*
X125792718Y-130021851D01*
X125792726Y-130021860D01*
X125978140Y-130207274D01*
X125978148Y-130207281D01*
X126186196Y-130366924D01*
X126413299Y-130498041D01*
X126413309Y-130498046D01*
X126655571Y-130598394D01*
X126655581Y-130598398D01*
X126908884Y-130666270D01*
X127168880Y-130700500D01*
X127168887Y-130700500D01*
X127431113Y-130700500D01*
X127431120Y-130700500D01*
X127691116Y-130666270D01*
X127944419Y-130598398D01*
X128186697Y-130498043D01*
X128413803Y-130366924D01*
X128621851Y-130207282D01*
X128621855Y-130207277D01*
X128621860Y-130207274D01*
X128807274Y-130021860D01*
X128807277Y-130021855D01*
X128807282Y-130021851D01*
X128966924Y-129813803D01*
X129098043Y-129586697D01*
X129198398Y-129344419D01*
X129266270Y-129091116D01*
X129300500Y-128831120D01*
X129300500Y-128568880D01*
X129266270Y-128308884D01*
X129198398Y-128055581D01*
X129100204Y-127818520D01*
X129098046Y-127813309D01*
X129098041Y-127813299D01*
X128966924Y-127586196D01*
X128807281Y-127378148D01*
X128807274Y-127378140D01*
X128621860Y-127192726D01*
X128621851Y-127192718D01*
X128413803Y-127033075D01*
X128186700Y-126901958D01*
X128186690Y-126901953D01*
X127944428Y-126801605D01*
X127944421Y-126801603D01*
X127944419Y-126801602D01*
X127691116Y-126733730D01*
X127633339Y-126726123D01*
X127431127Y-126699500D01*
X127431120Y-126699500D01*
X127168880Y-126699500D01*
X127168872Y-126699500D01*
X126937772Y-126729926D01*
X126908884Y-126733730D01*
X126792093Y-126765024D01*
X126655581Y-126801602D01*
X126655571Y-126801605D01*
X126413309Y-126901953D01*
X126413299Y-126901958D01*
X126186196Y-127033075D01*
X125978148Y-127192718D01*
X125792718Y-127378148D01*
X125633075Y-127586196D01*
X125501958Y-127813299D01*
X125501953Y-127813309D01*
X125401605Y-128055571D01*
X125401602Y-128055581D01*
X125333730Y-128308885D01*
X125299500Y-128568872D01*
X51700499Y-128568872D01*
X51666270Y-128308884D01*
X51598398Y-128055581D01*
X51500204Y-127818520D01*
X51498046Y-127813309D01*
X51498041Y-127813299D01*
X51366924Y-127586196D01*
X51207281Y-127378148D01*
X51207274Y-127378140D01*
X51021860Y-127192726D01*
X51021855Y-127192722D01*
X51021851Y-127192718D01*
X50876152Y-127080918D01*
X50813803Y-127033075D01*
X50734720Y-126987417D01*
X98969500Y-126987417D01*
X98969500Y-127212582D01*
X99004723Y-127434976D01*
X99074305Y-127649125D01*
X99157957Y-127813299D01*
X99176527Y-127849745D01*
X99308876Y-128031908D01*
X99468092Y-128191124D01*
X99650255Y-128323473D01*
X99745041Y-128371769D01*
X99850874Y-128425694D01*
X99850876Y-128425694D01*
X99850879Y-128425696D01*
X99965666Y-128462992D01*
X100065023Y-128495276D01*
X100176220Y-128512888D01*
X100287417Y-128530500D01*
X100287418Y-128530500D01*
X100512582Y-128530500D01*
X100512583Y-128530500D01*
X100734976Y-128495276D01*
X100949121Y-128425696D01*
X101149745Y-128323473D01*
X101331908Y-128191124D01*
X101491124Y-128031908D01*
X101623473Y-127849745D01*
X101725696Y-127649121D01*
X101795276Y-127434976D01*
X101830500Y-127212583D01*
X101830500Y-126987417D01*
X110969500Y-126987417D01*
X110969500Y-127212582D01*
X111004723Y-127434976D01*
X111074305Y-127649125D01*
X111157957Y-127813299D01*
X111176527Y-127849745D01*
X111308876Y-128031908D01*
X111468092Y-128191124D01*
X111650255Y-128323473D01*
X111745041Y-128371769D01*
X111850874Y-128425694D01*
X111850876Y-128425694D01*
X111850879Y-128425696D01*
X111965666Y-128462992D01*
X112065023Y-128495276D01*
X112176220Y-128512888D01*
X112287417Y-128530500D01*
X112287418Y-128530500D01*
X112512582Y-128530500D01*
X112512583Y-128530500D01*
X112734976Y-128495276D01*
X112949121Y-128425696D01*
X113149745Y-128323473D01*
X113331908Y-128191124D01*
X113491124Y-128031908D01*
X113623473Y-127849745D01*
X113725696Y-127649121D01*
X113795276Y-127434976D01*
X113830500Y-127212583D01*
X113830500Y-126987417D01*
X113795276Y-126765023D01*
X113725694Y-126550874D01*
X113623472Y-126350254D01*
X113491124Y-126168092D01*
X113331908Y-126008876D01*
X113149745Y-125876527D01*
X112949125Y-125774305D01*
X112734976Y-125704723D01*
X112542989Y-125674316D01*
X112512583Y-125669500D01*
X112287417Y-125669500D01*
X112260667Y-125673736D01*
X112065023Y-125704723D01*
X111850874Y-125774305D01*
X111650254Y-125876527D01*
X111468089Y-126008878D01*
X111308878Y-126168089D01*
X111176527Y-126350254D01*
X111074305Y-126550874D01*
X111004723Y-126765023D01*
X110969500Y-126987417D01*
X101830500Y-126987417D01*
X101795276Y-126765023D01*
X101725694Y-126550874D01*
X101623472Y-126350254D01*
X101491124Y-126168092D01*
X101331908Y-126008876D01*
X101149745Y-125876527D01*
X100949125Y-125774305D01*
X100734976Y-125704723D01*
X100542989Y-125674316D01*
X100512583Y-125669500D01*
X100287417Y-125669500D01*
X100260667Y-125673736D01*
X100065023Y-125704723D01*
X99850874Y-125774305D01*
X99650254Y-125876527D01*
X99468089Y-126008878D01*
X99308878Y-126168089D01*
X99176527Y-126350254D01*
X99074305Y-126550874D01*
X99004723Y-126765023D01*
X98969500Y-126987417D01*
X50734720Y-126987417D01*
X50586700Y-126901958D01*
X50586690Y-126901953D01*
X50344428Y-126801605D01*
X50344421Y-126801603D01*
X50344419Y-126801602D01*
X50091116Y-126733730D01*
X50033339Y-126726123D01*
X49831127Y-126699500D01*
X49831120Y-126699500D01*
X49568880Y-126699500D01*
X49568872Y-126699500D01*
X49337772Y-126729926D01*
X49308884Y-126733730D01*
X49192093Y-126765024D01*
X49055581Y-126801602D01*
X49055571Y-126801605D01*
X48813309Y-126901953D01*
X48813299Y-126901958D01*
X48586196Y-127033075D01*
X48378148Y-127192718D01*
X48192718Y-127378148D01*
X48033075Y-127586196D01*
X47901958Y-127813299D01*
X47901953Y-127813309D01*
X47801605Y-128055571D01*
X47801602Y-128055581D01*
X47733730Y-128308885D01*
X47699500Y-128568872D01*
X45400500Y-128568872D01*
X45400500Y-124321153D01*
X56799500Y-124321153D01*
X56799500Y-124478846D01*
X56830261Y-124633489D01*
X56830264Y-124633501D01*
X56879574Y-124752548D01*
X56887043Y-124822018D01*
X56879574Y-124847452D01*
X56830264Y-124966498D01*
X56830261Y-124966510D01*
X56799500Y-125121153D01*
X56799500Y-125278846D01*
X56830261Y-125433489D01*
X56830264Y-125433501D01*
X56890602Y-125579172D01*
X56890609Y-125579185D01*
X56978210Y-125710288D01*
X56978213Y-125710292D01*
X57089707Y-125821786D01*
X57089711Y-125821789D01*
X57220814Y-125909390D01*
X57220827Y-125909397D01*
X57366498Y-125969735D01*
X57366503Y-125969737D01*
X57521153Y-126000499D01*
X57521156Y-126000500D01*
X57521158Y-126000500D01*
X57678844Y-126000500D01*
X57678845Y-126000499D01*
X57833497Y-125969737D01*
X57979179Y-125909394D01*
X57981110Y-125908103D01*
X57982276Y-125907737D01*
X57984546Y-125906525D01*
X57984776Y-125906955D01*
X58047786Y-125887226D01*
X58115166Y-125905710D01*
X58118850Y-125908077D01*
X58120821Y-125909394D01*
X58120824Y-125909395D01*
X58120827Y-125909397D01*
X58266498Y-125969735D01*
X58266503Y-125969737D01*
X58421153Y-126000499D01*
X58421156Y-126000500D01*
X58421158Y-126000500D01*
X58578844Y-126000500D01*
X58578845Y-126000499D01*
X58733497Y-125969737D01*
X58879179Y-125909394D01*
X59010289Y-125821789D01*
X59121789Y-125710289D01*
X59209394Y-125579179D01*
X59269737Y-125433497D01*
X59300500Y-125278842D01*
X59300500Y-125121158D01*
X59300500Y-125121155D01*
X59300499Y-125121153D01*
X59289024Y-125063465D01*
X59269737Y-124966503D01*
X59220425Y-124847452D01*
X59217144Y-124816938D01*
X59211697Y-124786745D01*
X59213245Y-124780677D01*
X59212956Y-124777983D01*
X59220425Y-124752547D01*
X59240037Y-124705199D01*
X102645500Y-124705199D01*
X102645500Y-124894800D01*
X102672214Y-125063467D01*
X102675158Y-125082055D01*
X102714750Y-125203905D01*
X102733747Y-125262372D01*
X102819819Y-125431296D01*
X102931259Y-125584679D01*
X103065321Y-125718741D01*
X103218704Y-125830181D01*
X103281294Y-125862072D01*
X103387627Y-125916252D01*
X103387629Y-125916252D01*
X103387632Y-125916254D01*
X103567945Y-125974842D01*
X103661574Y-125989671D01*
X103755200Y-126004500D01*
X103755204Y-126004500D01*
X103944800Y-126004500D01*
X104028022Y-125991318D01*
X104132055Y-125974842D01*
X104312368Y-125916254D01*
X104481296Y-125830181D01*
X104634679Y-125718741D01*
X104768741Y-125584679D01*
X104769677Y-125583389D01*
X104770158Y-125583018D01*
X104771905Y-125580974D01*
X104772334Y-125581340D01*
X104825003Y-125540720D01*
X104894616Y-125534736D01*
X104956413Y-125567337D01*
X104970319Y-125583385D01*
X104971259Y-125584679D01*
X105105321Y-125718741D01*
X105258704Y-125830181D01*
X105321294Y-125862072D01*
X105427627Y-125916252D01*
X105427629Y-125916252D01*
X105427632Y-125916254D01*
X105607945Y-125974842D01*
X105701574Y-125989671D01*
X105795200Y-126004500D01*
X105795204Y-126004500D01*
X105984800Y-126004500D01*
X106068022Y-125991318D01*
X106172055Y-125974842D01*
X106352368Y-125916254D01*
X106521296Y-125830181D01*
X106674679Y-125718741D01*
X106808741Y-125584679D01*
X106809677Y-125583389D01*
X106810158Y-125583018D01*
X106811905Y-125580974D01*
X106812334Y-125581340D01*
X106865003Y-125540720D01*
X106934616Y-125534736D01*
X106996413Y-125567337D01*
X107010319Y-125583385D01*
X107011259Y-125584679D01*
X107145321Y-125718741D01*
X107298704Y-125830181D01*
X107361294Y-125862072D01*
X107467627Y-125916252D01*
X107467629Y-125916252D01*
X107467632Y-125916254D01*
X107647945Y-125974842D01*
X107741574Y-125989671D01*
X107835200Y-126004500D01*
X107835204Y-126004500D01*
X108024800Y-126004500D01*
X108108022Y-125991318D01*
X108212055Y-125974842D01*
X108392368Y-125916254D01*
X108561296Y-125830181D01*
X108714679Y-125718741D01*
X108848741Y-125584679D01*
X108960181Y-125431296D01*
X109046254Y-125262368D01*
X109104842Y-125082055D01*
X109131218Y-124915519D01*
X109134500Y-124894800D01*
X109134500Y-124705199D01*
X109117070Y-124595153D01*
X109104842Y-124517945D01*
X109078692Y-124437464D01*
X113525507Y-124437464D01*
X113525507Y-124595157D01*
X113556268Y-124749800D01*
X113556271Y-124749812D01*
X113616609Y-124895483D01*
X113616616Y-124895496D01*
X113704217Y-125026599D01*
X113704220Y-125026603D01*
X113815714Y-125138097D01*
X113815718Y-125138100D01*
X113946821Y-125225701D01*
X113946834Y-125225708D01*
X114092505Y-125286046D01*
X114092510Y-125286048D01*
X114247160Y-125316810D01*
X114247163Y-125316811D01*
X114247165Y-125316811D01*
X114404851Y-125316811D01*
X114404852Y-125316810D01*
X114559504Y-125286048D01*
X114705186Y-125225705D01*
X114836296Y-125138100D01*
X114947796Y-125026600D01*
X115035401Y-124895490D01*
X115035689Y-124894796D01*
X115073289Y-124804019D01*
X115095744Y-124749808D01*
X115126507Y-124595153D01*
X115126507Y-124437469D01*
X115126507Y-124437466D01*
X115126506Y-124437464D01*
X115103371Y-124321158D01*
X115095744Y-124282814D01*
X115067606Y-124214883D01*
X115531627Y-124214883D01*
X115531627Y-124372576D01*
X115562388Y-124527219D01*
X115562391Y-124527231D01*
X115622729Y-124672902D01*
X115622736Y-124672915D01*
X115710337Y-124804018D01*
X115710340Y-124804022D01*
X115821834Y-124915516D01*
X115821838Y-124915519D01*
X115952941Y-125003120D01*
X115952954Y-125003127D01*
X116098625Y-125063465D01*
X116098630Y-125063467D01*
X116192078Y-125082055D01*
X116253280Y-125094229D01*
X116253283Y-125094230D01*
X116253285Y-125094230D01*
X116410971Y-125094230D01*
X116410972Y-125094229D01*
X116565624Y-125063467D01*
X116711306Y-125003124D01*
X116842416Y-124915519D01*
X116953916Y-124804019D01*
X117041521Y-124672909D01*
X117101864Y-124527227D01*
X117132627Y-124372572D01*
X117132627Y-124214888D01*
X117132627Y-124214885D01*
X117132626Y-124214883D01*
X117123004Y-124166510D01*
X117101864Y-124060233D01*
X117101471Y-124059283D01*
X117041524Y-123914557D01*
X117041517Y-123914544D01*
X116953916Y-123783441D01*
X116953913Y-123783437D01*
X116842419Y-123671943D01*
X116842415Y-123671940D01*
X116711312Y-123584339D01*
X116711299Y-123584332D01*
X116565628Y-123523994D01*
X116565616Y-123523991D01*
X116410972Y-123493230D01*
X116410969Y-123493230D01*
X116253285Y-123493230D01*
X116253282Y-123493230D01*
X116098637Y-123523991D01*
X116098625Y-123523994D01*
X115952954Y-123584332D01*
X115952941Y-123584339D01*
X115821838Y-123671940D01*
X115821834Y-123671943D01*
X115710340Y-123783437D01*
X115710337Y-123783441D01*
X115622736Y-123914544D01*
X115622729Y-123914557D01*
X115562391Y-124060228D01*
X115562388Y-124060240D01*
X115531627Y-124214883D01*
X115067606Y-124214883D01*
X115056798Y-124188791D01*
X115035404Y-124137138D01*
X115035397Y-124137125D01*
X114947796Y-124006022D01*
X114947793Y-124006018D01*
X114836299Y-123894524D01*
X114836295Y-123894521D01*
X114705192Y-123806920D01*
X114705179Y-123806913D01*
X114559508Y-123746575D01*
X114559496Y-123746572D01*
X114404852Y-123715811D01*
X114404849Y-123715811D01*
X114247165Y-123715811D01*
X114247162Y-123715811D01*
X114092517Y-123746572D01*
X114092505Y-123746575D01*
X113946834Y-123806913D01*
X113946821Y-123806920D01*
X113815718Y-123894521D01*
X113815714Y-123894524D01*
X113704220Y-124006018D01*
X113704217Y-124006022D01*
X113616616Y-124137125D01*
X113616609Y-124137138D01*
X113556271Y-124282809D01*
X113556268Y-124282821D01*
X113525507Y-124437464D01*
X109078692Y-124437464D01*
X109046254Y-124337632D01*
X108960181Y-124168704D01*
X108848741Y-124015321D01*
X108714679Y-123881259D01*
X108561296Y-123769819D01*
X108392372Y-123683747D01*
X108333905Y-123664750D01*
X108212055Y-123625158D01*
X108212051Y-123625157D01*
X108212050Y-123625157D01*
X108024800Y-123595500D01*
X108024796Y-123595500D01*
X107835204Y-123595500D01*
X107835200Y-123595500D01*
X107647949Y-123625157D01*
X107647946Y-123625157D01*
X107647945Y-123625158D01*
X107632240Y-123630261D01*
X107467627Y-123683747D01*
X107298703Y-123769819D01*
X107145319Y-123881260D01*
X107011258Y-124015321D01*
X107010317Y-124016618D01*
X107009832Y-124016991D01*
X107008095Y-124019026D01*
X107007667Y-124018660D01*
X106954987Y-124059283D01*
X106885373Y-124065261D01*
X106823579Y-124032654D01*
X106809683Y-124016618D01*
X106808741Y-124015321D01*
X106674680Y-123881260D01*
X106532846Y-123778211D01*
X106521296Y-123769819D01*
X106352372Y-123683747D01*
X106293905Y-123664750D01*
X106172055Y-123625158D01*
X106172051Y-123625157D01*
X106172050Y-123625157D01*
X105984800Y-123595500D01*
X105984796Y-123595500D01*
X105795204Y-123595500D01*
X105795200Y-123595500D01*
X105607949Y-123625157D01*
X105607946Y-123625157D01*
X105607945Y-123625158D01*
X105592240Y-123630261D01*
X105427627Y-123683747D01*
X105258703Y-123769819D01*
X105105319Y-123881260D01*
X104971258Y-124015321D01*
X104970317Y-124016618D01*
X104969832Y-124016991D01*
X104968095Y-124019026D01*
X104967667Y-124018660D01*
X104914987Y-124059283D01*
X104845373Y-124065261D01*
X104783579Y-124032654D01*
X104769683Y-124016618D01*
X104768741Y-124015321D01*
X104634680Y-123881260D01*
X104492846Y-123778211D01*
X104481296Y-123769819D01*
X104312372Y-123683747D01*
X104253905Y-123664750D01*
X104132055Y-123625158D01*
X104132051Y-123625157D01*
X104132050Y-123625157D01*
X103944800Y-123595500D01*
X103944796Y-123595500D01*
X103755204Y-123595500D01*
X103755200Y-123595500D01*
X103567949Y-123625157D01*
X103567946Y-123625157D01*
X103567945Y-123625158D01*
X103552240Y-123630261D01*
X103387627Y-123683747D01*
X103218703Y-123769819D01*
X103065319Y-123881260D01*
X102931260Y-124015319D01*
X102819819Y-124168703D01*
X102733747Y-124337627D01*
X102694153Y-124459482D01*
X102687864Y-124478842D01*
X102675157Y-124517949D01*
X102645500Y-124705199D01*
X59240037Y-124705199D01*
X59261709Y-124652879D01*
X59263188Y-124649305D01*
X59269737Y-124633497D01*
X59300500Y-124478842D01*
X59300500Y-124321158D01*
X59300500Y-124321155D01*
X59300499Y-124321153D01*
X59279360Y-124214883D01*
X59269737Y-124166503D01*
X59225717Y-124060228D01*
X59209397Y-124020827D01*
X59209390Y-124020814D01*
X59121789Y-123889711D01*
X59121786Y-123889707D01*
X59010292Y-123778213D01*
X59010288Y-123778210D01*
X58879185Y-123690609D01*
X58879172Y-123690602D01*
X58733501Y-123630264D01*
X58733489Y-123630261D01*
X58578845Y-123599500D01*
X58578842Y-123599500D01*
X58421158Y-123599500D01*
X58421155Y-123599500D01*
X58266510Y-123630261D01*
X58266498Y-123630264D01*
X58120822Y-123690604D01*
X58120820Y-123690605D01*
X58118885Y-123691899D01*
X58117717Y-123692264D01*
X58115451Y-123693476D01*
X58115221Y-123693045D01*
X58052206Y-123712773D01*
X57984827Y-123694285D01*
X57981115Y-123691899D01*
X57979179Y-123690605D01*
X57979177Y-123690604D01*
X57833501Y-123630264D01*
X57833489Y-123630261D01*
X57678845Y-123599500D01*
X57678842Y-123599500D01*
X57521158Y-123599500D01*
X57521155Y-123599500D01*
X57366510Y-123630261D01*
X57366498Y-123630264D01*
X57220827Y-123690602D01*
X57220814Y-123690609D01*
X57089711Y-123778210D01*
X57089707Y-123778213D01*
X56978213Y-123889707D01*
X56978210Y-123889711D01*
X56890609Y-124020814D01*
X56890602Y-124020827D01*
X56830264Y-124166498D01*
X56830261Y-124166510D01*
X56799500Y-124321153D01*
X45400500Y-124321153D01*
X45400500Y-122297648D01*
X85199500Y-122297648D01*
X85199500Y-122502351D01*
X85231522Y-122704534D01*
X85294781Y-122899223D01*
X85343448Y-122994736D01*
X85368239Y-123043391D01*
X85387715Y-123081613D01*
X85508028Y-123247213D01*
X85652786Y-123391971D01*
X85752616Y-123464500D01*
X85818390Y-123512287D01*
X85934607Y-123571503D01*
X86000776Y-123605218D01*
X86000778Y-123605218D01*
X86000781Y-123605220D01*
X86105137Y-123639127D01*
X86195465Y-123668477D01*
X86291869Y-123683746D01*
X86397648Y-123700500D01*
X86397649Y-123700500D01*
X86602351Y-123700500D01*
X86602352Y-123700500D01*
X86804534Y-123668477D01*
X86999219Y-123605220D01*
X87181610Y-123512287D01*
X87288205Y-123434842D01*
X87347213Y-123391971D01*
X87347215Y-123391968D01*
X87347219Y-123391966D01*
X87491966Y-123247219D01*
X87566568Y-123144536D01*
X87621898Y-123101870D01*
X87691511Y-123095891D01*
X87753306Y-123128496D01*
X87787664Y-123189334D01*
X87790177Y-123204166D01*
X87795909Y-123257483D01*
X87846202Y-123392328D01*
X87846206Y-123392335D01*
X87932452Y-123507544D01*
X87932455Y-123507547D01*
X88047664Y-123593793D01*
X88047671Y-123593797D01*
X88182517Y-123644091D01*
X88182516Y-123644091D01*
X88189444Y-123644835D01*
X88242127Y-123650500D01*
X89837872Y-123650499D01*
X89897483Y-123644091D01*
X90032331Y-123593796D01*
X90147546Y-123507546D01*
X90233796Y-123392331D01*
X90284091Y-123257483D01*
X90289823Y-123204162D01*
X90316560Y-123139615D01*
X90373952Y-123099767D01*
X90443777Y-123097273D01*
X90503866Y-123132925D01*
X90513430Y-123144536D01*
X90588028Y-123247212D01*
X90588032Y-123247217D01*
X90732786Y-123391971D01*
X90832616Y-123464500D01*
X90898390Y-123512287D01*
X91014607Y-123571503D01*
X91080776Y-123605218D01*
X91080778Y-123605218D01*
X91080781Y-123605220D01*
X91185137Y-123639127D01*
X91275465Y-123668477D01*
X91371869Y-123683746D01*
X91477648Y-123700500D01*
X91477649Y-123700500D01*
X91682351Y-123700500D01*
X91682352Y-123700500D01*
X91884534Y-123668477D01*
X92079219Y-123605220D01*
X92261610Y-123512287D01*
X92368205Y-123434842D01*
X92427213Y-123391971D01*
X92427215Y-123391968D01*
X92427219Y-123391966D01*
X92571966Y-123247219D01*
X92571968Y-123247215D01*
X92571971Y-123247213D01*
X92650818Y-123138687D01*
X92692287Y-123081610D01*
X92785220Y-122899219D01*
X92848477Y-122704534D01*
X92880500Y-122502352D01*
X92880500Y-122297648D01*
X92859522Y-122165199D01*
X103665500Y-122165199D01*
X103665500Y-122354800D01*
X103688870Y-122502352D01*
X103695158Y-122542055D01*
X103734750Y-122663905D01*
X103753747Y-122722372D01*
X103839682Y-122891027D01*
X103839819Y-122891296D01*
X103951259Y-123044679D01*
X104085321Y-123178741D01*
X104238704Y-123290181D01*
X104318515Y-123330846D01*
X104407627Y-123376252D01*
X104407629Y-123376252D01*
X104407632Y-123376254D01*
X104587945Y-123434842D01*
X104681574Y-123449671D01*
X104775200Y-123464500D01*
X104775204Y-123464500D01*
X104964800Y-123464500D01*
X105048022Y-123451318D01*
X105152055Y-123434842D01*
X105332368Y-123376254D01*
X105501296Y-123290181D01*
X105654679Y-123178741D01*
X105788741Y-123044679D01*
X105789677Y-123043389D01*
X105790158Y-123043018D01*
X105791905Y-123040974D01*
X105792334Y-123041340D01*
X105845003Y-123000720D01*
X105914616Y-122994736D01*
X105976413Y-123027337D01*
X105990319Y-123043385D01*
X105991259Y-123044679D01*
X106125321Y-123178741D01*
X106278704Y-123290181D01*
X106358515Y-123330846D01*
X106447627Y-123376252D01*
X106447629Y-123376252D01*
X106447632Y-123376254D01*
X106627945Y-123434842D01*
X106721574Y-123449671D01*
X106815200Y-123464500D01*
X106815204Y-123464500D01*
X107004800Y-123464500D01*
X107088022Y-123451318D01*
X107192055Y-123434842D01*
X107372368Y-123376254D01*
X107541296Y-123290181D01*
X107694679Y-123178741D01*
X107828741Y-123044679D01*
X107884858Y-122967440D01*
X107888590Y-122963184D01*
X107901373Y-122955072D01*
X108507861Y-122348584D01*
X108530667Y-122433694D01*
X108589910Y-122536306D01*
X108673694Y-122620090D01*
X108776306Y-122679333D01*
X108861414Y-122702137D01*
X108292806Y-123270745D01*
X108292806Y-123270746D01*
X108318966Y-123289752D01*
X108487821Y-123375789D01*
X108668062Y-123434354D01*
X108855238Y-123464000D01*
X109044762Y-123464000D01*
X109231937Y-123434354D01*
X109412182Y-123375788D01*
X109412184Y-123375787D01*
X109581027Y-123289756D01*
X109581043Y-123289746D01*
X109607192Y-123270746D01*
X109607193Y-123270745D01*
X109038585Y-122702137D01*
X109123694Y-122679333D01*
X109226306Y-122620090D01*
X109310090Y-122536306D01*
X109369333Y-122433694D01*
X109392137Y-122348585D01*
X109960745Y-122917193D01*
X109960746Y-122917192D01*
X109979746Y-122891043D01*
X109979756Y-122891027D01*
X110065787Y-122722184D01*
X110065788Y-122722182D01*
X110124354Y-122541937D01*
X110154000Y-122354762D01*
X110154000Y-122165237D01*
X110124354Y-121978062D01*
X110065789Y-121797821D01*
X109979752Y-121628966D01*
X109960745Y-121602806D01*
X109392137Y-122171414D01*
X109369333Y-122086306D01*
X109310090Y-121983694D01*
X109226306Y-121899910D01*
X109123694Y-121840667D01*
X109038584Y-121817861D01*
X109607193Y-121249253D01*
X109581033Y-121230246D01*
X109416141Y-121146229D01*
X109416139Y-121146227D01*
X109412181Y-121144211D01*
X109231937Y-121085645D01*
X109044762Y-121056000D01*
X108855238Y-121056000D01*
X108668062Y-121085645D01*
X108487821Y-121144210D01*
X108318969Y-121230245D01*
X108292806Y-121249253D01*
X108861415Y-121817861D01*
X108776306Y-121840667D01*
X108673694Y-121899910D01*
X108589910Y-121983694D01*
X108530667Y-122086306D01*
X108507861Y-122171414D01*
X107916551Y-121580104D01*
X107915398Y-121579773D01*
X107903996Y-121569067D01*
X107888591Y-121556815D01*
X107884849Y-121552546D01*
X107828741Y-121475321D01*
X107694679Y-121341259D01*
X107541296Y-121229819D01*
X107494949Y-121206204D01*
X107372372Y-121143747D01*
X107313905Y-121124750D01*
X107192055Y-121085158D01*
X107192051Y-121085157D01*
X107192050Y-121085157D01*
X107004800Y-121055500D01*
X107004796Y-121055500D01*
X106815204Y-121055500D01*
X106815200Y-121055500D01*
X106627949Y-121085157D01*
X106627946Y-121085157D01*
X106627945Y-121085158D01*
X106569482Y-121104153D01*
X106447627Y-121143747D01*
X106278703Y-121229819D01*
X106125319Y-121341260D01*
X105991258Y-121475321D01*
X105990317Y-121476618D01*
X105989832Y-121476991D01*
X105988095Y-121479026D01*
X105987667Y-121478660D01*
X105934987Y-121519283D01*
X105865373Y-121525261D01*
X105803579Y-121492654D01*
X105789683Y-121476618D01*
X105788741Y-121475321D01*
X105654680Y-121341260D01*
X105620492Y-121316421D01*
X105501296Y-121229819D01*
X105454949Y-121206204D01*
X105332372Y-121143747D01*
X105273905Y-121124750D01*
X105152055Y-121085158D01*
X105152051Y-121085157D01*
X105152050Y-121085157D01*
X104964800Y-121055500D01*
X104964796Y-121055500D01*
X104775204Y-121055500D01*
X104775200Y-121055500D01*
X104587949Y-121085157D01*
X104587946Y-121085157D01*
X104587945Y-121085158D01*
X104529482Y-121104153D01*
X104407627Y-121143747D01*
X104238703Y-121229819D01*
X104085319Y-121341260D01*
X103951260Y-121475319D01*
X103839819Y-121628703D01*
X103753747Y-121797627D01*
X103723598Y-121890416D01*
X103711033Y-121929089D01*
X103695157Y-121977949D01*
X103665500Y-122165199D01*
X92859522Y-122165199D01*
X92848477Y-122095466D01*
X92785220Y-121900781D01*
X92785218Y-121900778D01*
X92785218Y-121900776D01*
X92749190Y-121830068D01*
X92692287Y-121718390D01*
X92658221Y-121671502D01*
X92571971Y-121552786D01*
X92427213Y-121408028D01*
X92261613Y-121287715D01*
X92261612Y-121287714D01*
X92261610Y-121287713D01*
X92186128Y-121249253D01*
X92079223Y-121194781D01*
X91884534Y-121131522D01*
X91709995Y-121103878D01*
X91682352Y-121099500D01*
X91477648Y-121099500D01*
X91453329Y-121103351D01*
X91275465Y-121131522D01*
X91080776Y-121194781D01*
X90898386Y-121287715D01*
X90732786Y-121408028D01*
X90588032Y-121552782D01*
X90588028Y-121552787D01*
X90513430Y-121655463D01*
X90458100Y-121698129D01*
X90388487Y-121704108D01*
X90326692Y-121671502D01*
X90292334Y-121610664D01*
X90289822Y-121595831D01*
X90284091Y-121542516D01*
X90233797Y-121407671D01*
X90233793Y-121407664D01*
X90147547Y-121292455D01*
X90147544Y-121292452D01*
X90032335Y-121206206D01*
X90032328Y-121206202D01*
X89897482Y-121155908D01*
X89897483Y-121155908D01*
X89837883Y-121149501D01*
X89837881Y-121149500D01*
X89837873Y-121149500D01*
X89837864Y-121149500D01*
X88242129Y-121149500D01*
X88242123Y-121149501D01*
X88182516Y-121155908D01*
X88047671Y-121206202D01*
X88047664Y-121206206D01*
X87932455Y-121292452D01*
X87932452Y-121292455D01*
X87846206Y-121407664D01*
X87846202Y-121407671D01*
X87795908Y-121542516D01*
X87790176Y-121595834D01*
X87763438Y-121660385D01*
X87706045Y-121700233D01*
X87636220Y-121702726D01*
X87576131Y-121667073D01*
X87566569Y-121655463D01*
X87491971Y-121552786D01*
X87347213Y-121408028D01*
X87181613Y-121287715D01*
X87181612Y-121287714D01*
X87181610Y-121287713D01*
X87106128Y-121249253D01*
X86999223Y-121194781D01*
X86804534Y-121131522D01*
X86629995Y-121103878D01*
X86602352Y-121099500D01*
X86397648Y-121099500D01*
X86373329Y-121103351D01*
X86195465Y-121131522D01*
X86000776Y-121194781D01*
X85818386Y-121287715D01*
X85652786Y-121408028D01*
X85508028Y-121552786D01*
X85387715Y-121718386D01*
X85294781Y-121900776D01*
X85231522Y-122095465D01*
X85199500Y-122297648D01*
X45400500Y-122297648D01*
X45400500Y-121041831D01*
X114156200Y-121041831D01*
X114156200Y-121199524D01*
X114186961Y-121354167D01*
X114186964Y-121354179D01*
X114247302Y-121499850D01*
X114247309Y-121499863D01*
X114334910Y-121630966D01*
X114334913Y-121630970D01*
X114446407Y-121742464D01*
X114446411Y-121742467D01*
X114577514Y-121830068D01*
X114577527Y-121830075D01*
X114723198Y-121890413D01*
X114723203Y-121890415D01*
X114877853Y-121921177D01*
X114877856Y-121921178D01*
X114877858Y-121921178D01*
X115035544Y-121921178D01*
X115035545Y-121921177D01*
X115190197Y-121890415D01*
X115335879Y-121830072D01*
X115466989Y-121742467D01*
X115578489Y-121630967D01*
X115587987Y-121616753D01*
X122123150Y-121616753D01*
X122123150Y-121774446D01*
X122153911Y-121929089D01*
X122153914Y-121929101D01*
X122214252Y-122074772D01*
X122214259Y-122074785D01*
X122301860Y-122205888D01*
X122301863Y-122205892D01*
X122413357Y-122317386D01*
X122413361Y-122317389D01*
X122544464Y-122404990D01*
X122544477Y-122404997D01*
X122613759Y-122433694D01*
X122690153Y-122465337D01*
X122844803Y-122496099D01*
X122844806Y-122496100D01*
X122844808Y-122496100D01*
X123002494Y-122496100D01*
X123002495Y-122496099D01*
X123157147Y-122465337D01*
X123302829Y-122404994D01*
X123433939Y-122317389D01*
X123545439Y-122205889D01*
X123633044Y-122074779D01*
X123693387Y-121929097D01*
X123724150Y-121774442D01*
X123724150Y-121616758D01*
X123724150Y-121616755D01*
X123724149Y-121616753D01*
X124113150Y-121616753D01*
X124113150Y-121774446D01*
X124143911Y-121929089D01*
X124143914Y-121929101D01*
X124204252Y-122074772D01*
X124204259Y-122074785D01*
X124291860Y-122205888D01*
X124291863Y-122205892D01*
X124403357Y-122317386D01*
X124403361Y-122317389D01*
X124534464Y-122404990D01*
X124534477Y-122404997D01*
X124603759Y-122433694D01*
X124680153Y-122465337D01*
X124834803Y-122496099D01*
X124834806Y-122496100D01*
X124834808Y-122496100D01*
X124992494Y-122496100D01*
X124992495Y-122496099D01*
X125147147Y-122465337D01*
X125292829Y-122404994D01*
X125423939Y-122317389D01*
X125535439Y-122205889D01*
X125623044Y-122074779D01*
X125683387Y-121929097D01*
X125714150Y-121774442D01*
X125714150Y-121616758D01*
X125714150Y-121616755D01*
X125714149Y-121616753D01*
X126103150Y-121616753D01*
X126103150Y-121774446D01*
X126133911Y-121929089D01*
X126133914Y-121929101D01*
X126194252Y-122074772D01*
X126194259Y-122074785D01*
X126281860Y-122205888D01*
X126281863Y-122205892D01*
X126393357Y-122317386D01*
X126393361Y-122317389D01*
X126524464Y-122404990D01*
X126524477Y-122404997D01*
X126593759Y-122433694D01*
X126670153Y-122465337D01*
X126824803Y-122496099D01*
X126824806Y-122496100D01*
X126824808Y-122496100D01*
X126982494Y-122496100D01*
X126982495Y-122496099D01*
X127137147Y-122465337D01*
X127282829Y-122404994D01*
X127413939Y-122317389D01*
X127525439Y-122205889D01*
X127613044Y-122074779D01*
X127673387Y-121929097D01*
X127704150Y-121774442D01*
X127704150Y-121616758D01*
X127704150Y-121616755D01*
X127704149Y-121616753D01*
X127696793Y-121579773D01*
X127673387Y-121462103D01*
X127623333Y-121341260D01*
X127613047Y-121316427D01*
X127613040Y-121316414D01*
X127525439Y-121185311D01*
X127525436Y-121185307D01*
X127413942Y-121073813D01*
X127413938Y-121073810D01*
X127282835Y-120986209D01*
X127282822Y-120986202D01*
X127137151Y-120925864D01*
X127137139Y-120925861D01*
X126982495Y-120895100D01*
X126982492Y-120895100D01*
X126824808Y-120895100D01*
X126824805Y-120895100D01*
X126670160Y-120925861D01*
X126670148Y-120925864D01*
X126524477Y-120986202D01*
X126524464Y-120986209D01*
X126393361Y-121073810D01*
X126393357Y-121073813D01*
X126281863Y-121185307D01*
X126281860Y-121185311D01*
X126194259Y-121316414D01*
X126194252Y-121316427D01*
X126133914Y-121462098D01*
X126133911Y-121462110D01*
X126103150Y-121616753D01*
X125714149Y-121616753D01*
X125706793Y-121579773D01*
X125683387Y-121462103D01*
X125633333Y-121341260D01*
X125623047Y-121316427D01*
X125623040Y-121316414D01*
X125535439Y-121185311D01*
X125535436Y-121185307D01*
X125423942Y-121073813D01*
X125423938Y-121073810D01*
X125292835Y-120986209D01*
X125292822Y-120986202D01*
X125147151Y-120925864D01*
X125147139Y-120925861D01*
X124992495Y-120895100D01*
X124992492Y-120895100D01*
X124834808Y-120895100D01*
X124834805Y-120895100D01*
X124680160Y-120925861D01*
X124680148Y-120925864D01*
X124534477Y-120986202D01*
X124534464Y-120986209D01*
X124403361Y-121073810D01*
X124403357Y-121073813D01*
X124291863Y-121185307D01*
X124291860Y-121185311D01*
X124204259Y-121316414D01*
X124204252Y-121316427D01*
X124143914Y-121462098D01*
X124143911Y-121462110D01*
X124113150Y-121616753D01*
X123724149Y-121616753D01*
X123716793Y-121579773D01*
X123693387Y-121462103D01*
X123643333Y-121341260D01*
X123633047Y-121316427D01*
X123633040Y-121316414D01*
X123545439Y-121185311D01*
X123545436Y-121185307D01*
X123433942Y-121073813D01*
X123433938Y-121073810D01*
X123302835Y-120986209D01*
X123302822Y-120986202D01*
X123157151Y-120925864D01*
X123157139Y-120925861D01*
X123002495Y-120895100D01*
X123002492Y-120895100D01*
X122844808Y-120895100D01*
X122844805Y-120895100D01*
X122690160Y-120925861D01*
X122690148Y-120925864D01*
X122544477Y-120986202D01*
X122544464Y-120986209D01*
X122413361Y-121073810D01*
X122413357Y-121073813D01*
X122301863Y-121185307D01*
X122301860Y-121185311D01*
X122214259Y-121316414D01*
X122214252Y-121316427D01*
X122153914Y-121462098D01*
X122153911Y-121462110D01*
X122123150Y-121616753D01*
X115587987Y-121616753D01*
X115612696Y-121579773D01*
X115638086Y-121541775D01*
X115666090Y-121499863D01*
X115666090Y-121499862D01*
X115666094Y-121499857D01*
X115726437Y-121354175D01*
X115757200Y-121199520D01*
X115757200Y-121041836D01*
X115757200Y-121041833D01*
X115757199Y-121041831D01*
X115746134Y-120986206D01*
X115726437Y-120887181D01*
X115726435Y-120887176D01*
X115666097Y-120741505D01*
X115666090Y-120741492D01*
X115578489Y-120610389D01*
X115578486Y-120610385D01*
X115466992Y-120498891D01*
X115466988Y-120498888D01*
X115335885Y-120411287D01*
X115335872Y-120411280D01*
X115190201Y-120350942D01*
X115190189Y-120350939D01*
X115035545Y-120320178D01*
X115035542Y-120320178D01*
X114877858Y-120320178D01*
X114877855Y-120320178D01*
X114723210Y-120350939D01*
X114723198Y-120350942D01*
X114577527Y-120411280D01*
X114577514Y-120411287D01*
X114446411Y-120498888D01*
X114446407Y-120498891D01*
X114334913Y-120610385D01*
X114334910Y-120610389D01*
X114247309Y-120741492D01*
X114247302Y-120741505D01*
X114186964Y-120887176D01*
X114186961Y-120887188D01*
X114156200Y-121041831D01*
X45400500Y-121041831D01*
X45400500Y-118107353D01*
X100697900Y-118107353D01*
X100697900Y-118265046D01*
X100728661Y-118419689D01*
X100728664Y-118419701D01*
X100789002Y-118565372D01*
X100789009Y-118565385D01*
X100876610Y-118696488D01*
X100876613Y-118696492D01*
X100988107Y-118807986D01*
X100988111Y-118807989D01*
X101119214Y-118895590D01*
X101119227Y-118895597D01*
X101264898Y-118955935D01*
X101264903Y-118955937D01*
X101419553Y-118986699D01*
X101419556Y-118986700D01*
X101419558Y-118986700D01*
X101577244Y-118986700D01*
X101577245Y-118986699D01*
X101731897Y-118955937D01*
X101877579Y-118895594D01*
X102008689Y-118807989D01*
X102120189Y-118696489D01*
X102207794Y-118565379D01*
X102268137Y-118419697D01*
X102298900Y-118265042D01*
X102298900Y-118107358D01*
X102298900Y-118107355D01*
X102298899Y-118107353D01*
X102289842Y-118061821D01*
X102268137Y-117952703D01*
X102249408Y-117907486D01*
X102207797Y-117807027D01*
X102207790Y-117807014D01*
X102120189Y-117675911D01*
X102120186Y-117675907D01*
X102008692Y-117564413D01*
X102008688Y-117564410D01*
X101877585Y-117476809D01*
X101877572Y-117476802D01*
X101731901Y-117416464D01*
X101731889Y-117416461D01*
X101577245Y-117385700D01*
X101577242Y-117385700D01*
X101419558Y-117385700D01*
X101419555Y-117385700D01*
X101264910Y-117416461D01*
X101264898Y-117416464D01*
X101119227Y-117476802D01*
X101119214Y-117476809D01*
X100988111Y-117564410D01*
X100988107Y-117564413D01*
X100876613Y-117675907D01*
X100876610Y-117675911D01*
X100789009Y-117807014D01*
X100789002Y-117807027D01*
X100728664Y-117952698D01*
X100728661Y-117952710D01*
X100697900Y-118107353D01*
X45400500Y-118107353D01*
X45400500Y-116227753D01*
X100682100Y-116227753D01*
X100682100Y-116385446D01*
X100712861Y-116540089D01*
X100712864Y-116540101D01*
X100773202Y-116685772D01*
X100773209Y-116685785D01*
X100860810Y-116816888D01*
X100860813Y-116816892D01*
X100972307Y-116928386D01*
X100972311Y-116928389D01*
X101103414Y-117015990D01*
X101103427Y-117015997D01*
X101249098Y-117076335D01*
X101249103Y-117076337D01*
X101403753Y-117107099D01*
X101403756Y-117107100D01*
X101403758Y-117107100D01*
X101561444Y-117107100D01*
X101561445Y-117107099D01*
X101716097Y-117076337D01*
X101761687Y-117057453D01*
X102669400Y-117057453D01*
X102669400Y-117215146D01*
X102700161Y-117369789D01*
X102700164Y-117369801D01*
X102760502Y-117515472D01*
X102760509Y-117515485D01*
X102848110Y-117646588D01*
X102848113Y-117646592D01*
X102959607Y-117758086D01*
X102959611Y-117758089D01*
X103090719Y-117845693D01*
X103091463Y-117846091D01*
X103091779Y-117846402D01*
X103095786Y-117849079D01*
X103095278Y-117849838D01*
X103141308Y-117895053D01*
X103156769Y-117963191D01*
X103132938Y-118028871D01*
X103095465Y-118061341D01*
X103095786Y-118061821D01*
X103091964Y-118064374D01*
X103091463Y-118064809D01*
X103090719Y-118065206D01*
X102959611Y-118152810D01*
X102959607Y-118152813D01*
X102848113Y-118264307D01*
X102848110Y-118264311D01*
X102760509Y-118395414D01*
X102760502Y-118395427D01*
X102700164Y-118541098D01*
X102700161Y-118541110D01*
X102669400Y-118695753D01*
X102669400Y-118853446D01*
X102700161Y-119008089D01*
X102700164Y-119008101D01*
X102760502Y-119153772D01*
X102760509Y-119153785D01*
X102848110Y-119284888D01*
X102848113Y-119284892D01*
X102959607Y-119396386D01*
X102959611Y-119396389D01*
X103090714Y-119483990D01*
X103090727Y-119483997D01*
X103236398Y-119544335D01*
X103236403Y-119544337D01*
X103391053Y-119575099D01*
X103391056Y-119575100D01*
X103391058Y-119575100D01*
X103548744Y-119575100D01*
X103548745Y-119575099D01*
X103703397Y-119544337D01*
X103849079Y-119483994D01*
X103980189Y-119396389D01*
X104055425Y-119321153D01*
X115299500Y-119321153D01*
X115299500Y-119478846D01*
X115330261Y-119633489D01*
X115330264Y-119633501D01*
X115390602Y-119779172D01*
X115390609Y-119779185D01*
X115478210Y-119910288D01*
X115478213Y-119910292D01*
X115589707Y-120021786D01*
X115589711Y-120021789D01*
X115720814Y-120109390D01*
X115720827Y-120109397D01*
X115866498Y-120169735D01*
X115866503Y-120169737D01*
X116021153Y-120200499D01*
X116021156Y-120200500D01*
X116021158Y-120200500D01*
X116178844Y-120200500D01*
X116178845Y-120200499D01*
X116333497Y-120169737D01*
X116479179Y-120109394D01*
X116610289Y-120021789D01*
X116721789Y-119910289D01*
X116809394Y-119779179D01*
X116869737Y-119633497D01*
X116900500Y-119478842D01*
X116900500Y-119321158D01*
X116900500Y-119321155D01*
X116900499Y-119321153D01*
X116869738Y-119166510D01*
X116869737Y-119166503D01*
X116809794Y-119021786D01*
X116809397Y-119020827D01*
X116809390Y-119020814D01*
X116721789Y-118889711D01*
X116721786Y-118889707D01*
X116610292Y-118778213D01*
X116610288Y-118778210D01*
X116479185Y-118690609D01*
X116479172Y-118690602D01*
X116333501Y-118630264D01*
X116333489Y-118630261D01*
X116178845Y-118599500D01*
X116178842Y-118599500D01*
X116021158Y-118599500D01*
X116021155Y-118599500D01*
X115866510Y-118630261D01*
X115866498Y-118630264D01*
X115720827Y-118690602D01*
X115720814Y-118690609D01*
X115589711Y-118778210D01*
X115589707Y-118778213D01*
X115478213Y-118889707D01*
X115478210Y-118889711D01*
X115390609Y-119020814D01*
X115390602Y-119020827D01*
X115330264Y-119166498D01*
X115330261Y-119166510D01*
X115299500Y-119321153D01*
X104055425Y-119321153D01*
X104091689Y-119284889D01*
X104099620Y-119273018D01*
X104117557Y-119246176D01*
X104117557Y-119246175D01*
X104179290Y-119153785D01*
X104179290Y-119153784D01*
X104179294Y-119153779D01*
X104239637Y-119008097D01*
X104270400Y-118853442D01*
X104270400Y-118695758D01*
X104270400Y-118695755D01*
X104270399Y-118695753D01*
X104244467Y-118565385D01*
X104239637Y-118541103D01*
X104189351Y-118419701D01*
X104179297Y-118395427D01*
X104179288Y-118395411D01*
X104171634Y-118383955D01*
X104129670Y-118321153D01*
X123849500Y-118321153D01*
X123849500Y-118478846D01*
X123880261Y-118633489D01*
X123880264Y-118633501D01*
X123940602Y-118779172D01*
X123940609Y-118779185D01*
X124028210Y-118910288D01*
X124028213Y-118910292D01*
X124139707Y-119021786D01*
X124139711Y-119021789D01*
X124270814Y-119109390D01*
X124270827Y-119109397D01*
X124377991Y-119153785D01*
X124416503Y-119169737D01*
X124571153Y-119200499D01*
X124571156Y-119200500D01*
X124571158Y-119200500D01*
X124728844Y-119200500D01*
X124728845Y-119200499D01*
X124883497Y-119169737D01*
X125029179Y-119109394D01*
X125160289Y-119021789D01*
X125271789Y-118910289D01*
X125359394Y-118779179D01*
X125419737Y-118633497D01*
X125450500Y-118478842D01*
X125450500Y-118321158D01*
X125450500Y-118321155D01*
X125450499Y-118321153D01*
X125419737Y-118166503D01*
X125419735Y-118166498D01*
X125359397Y-118020827D01*
X125359390Y-118020814D01*
X125271789Y-117889711D01*
X125271786Y-117889707D01*
X125160292Y-117778213D01*
X125160288Y-117778210D01*
X125029185Y-117690609D01*
X125029172Y-117690602D01*
X124883501Y-117630264D01*
X124883489Y-117630261D01*
X124728845Y-117599500D01*
X124728842Y-117599500D01*
X124571158Y-117599500D01*
X124571155Y-117599500D01*
X124416510Y-117630261D01*
X124416498Y-117630264D01*
X124270827Y-117690602D01*
X124270814Y-117690609D01*
X124139711Y-117778210D01*
X124139707Y-117778213D01*
X124028213Y-117889707D01*
X124028210Y-117889711D01*
X123940609Y-118020814D01*
X123940602Y-118020827D01*
X123880264Y-118166498D01*
X123880261Y-118166510D01*
X123849500Y-118321153D01*
X104129670Y-118321153D01*
X104091689Y-118264311D01*
X104091686Y-118264307D01*
X103980192Y-118152813D01*
X103980188Y-118152810D01*
X103849086Y-118065210D01*
X103848343Y-118064813D01*
X103848026Y-118064501D01*
X103844014Y-118061821D01*
X103844522Y-118061060D01*
X103798495Y-118015854D01*
X103783029Y-117947718D01*
X103806856Y-117882036D01*
X103844335Y-117849559D01*
X103844014Y-117849079D01*
X103847841Y-117846521D01*
X103848343Y-117846087D01*
X103849068Y-117845698D01*
X103849079Y-117845694D01*
X103980189Y-117758089D01*
X104091689Y-117646589D01*
X104179294Y-117515479D01*
X104239637Y-117369797D01*
X104270400Y-117215142D01*
X104270400Y-117206853D01*
X115404500Y-117206853D01*
X115404500Y-117364546D01*
X115435261Y-117519189D01*
X115435264Y-117519201D01*
X115495602Y-117664872D01*
X115495609Y-117664885D01*
X115583210Y-117795988D01*
X115583213Y-117795992D01*
X115694707Y-117907486D01*
X115694711Y-117907489D01*
X115825814Y-117995090D01*
X115825827Y-117995097D01*
X115971498Y-118055435D01*
X115971503Y-118055437D01*
X116126153Y-118086199D01*
X116126156Y-118086200D01*
X116126158Y-118086200D01*
X116283844Y-118086200D01*
X116283845Y-118086199D01*
X116438497Y-118055437D01*
X116584179Y-117995094D01*
X116715289Y-117907489D01*
X116826789Y-117795989D01*
X116914394Y-117664879D01*
X116974737Y-117519197D01*
X117005500Y-117364542D01*
X117005500Y-117206858D01*
X117005500Y-117206855D01*
X117005499Y-117206853D01*
X116985657Y-117107100D01*
X116974737Y-117052203D01*
X116959737Y-117015990D01*
X116914397Y-116906527D01*
X116914390Y-116906514D01*
X116826789Y-116775411D01*
X116826786Y-116775407D01*
X116715292Y-116663913D01*
X116715288Y-116663910D01*
X116584185Y-116576309D01*
X116584172Y-116576302D01*
X116438501Y-116515964D01*
X116438489Y-116515961D01*
X116283845Y-116485200D01*
X116283842Y-116485200D01*
X116126158Y-116485200D01*
X116126155Y-116485200D01*
X115971510Y-116515961D01*
X115971498Y-116515964D01*
X115825827Y-116576302D01*
X115825814Y-116576309D01*
X115694711Y-116663910D01*
X115694707Y-116663913D01*
X115583213Y-116775407D01*
X115583210Y-116775411D01*
X115495609Y-116906514D01*
X115495602Y-116906527D01*
X115435264Y-117052198D01*
X115435261Y-117052210D01*
X115404500Y-117206853D01*
X104270400Y-117206853D01*
X104270400Y-117057458D01*
X104270400Y-117057455D01*
X104270399Y-117057453D01*
X104244726Y-116928389D01*
X104239637Y-116902803D01*
X104186870Y-116775411D01*
X104179297Y-116757127D01*
X104179290Y-116757114D01*
X104091689Y-116626011D01*
X104091686Y-116626007D01*
X103980192Y-116514513D01*
X103980188Y-116514510D01*
X103871804Y-116442089D01*
X103826999Y-116388476D01*
X103818292Y-116319151D01*
X103848447Y-116256124D01*
X103879160Y-116232048D01*
X103879114Y-116231979D01*
X103880027Y-116231368D01*
X103882257Y-116229621D01*
X103884171Y-116228596D01*
X103884179Y-116228594D01*
X104015289Y-116140989D01*
X104126789Y-116029489D01*
X104214394Y-115898379D01*
X104274737Y-115752697D01*
X104305500Y-115598042D01*
X104305500Y-115440358D01*
X104305500Y-115440355D01*
X104305499Y-115440353D01*
X104274738Y-115285710D01*
X104274737Y-115285703D01*
X104258928Y-115247537D01*
X104214397Y-115140027D01*
X104214390Y-115140014D01*
X104126789Y-115008911D01*
X104126786Y-115008907D01*
X104015292Y-114897413D01*
X104015288Y-114897410D01*
X103884185Y-114809809D01*
X103884172Y-114809802D01*
X103738501Y-114749464D01*
X103738489Y-114749461D01*
X103583845Y-114718700D01*
X103583842Y-114718700D01*
X103426158Y-114718700D01*
X103426155Y-114718700D01*
X103271510Y-114749461D01*
X103271498Y-114749464D01*
X103125827Y-114809802D01*
X103125814Y-114809809D01*
X102994711Y-114897410D01*
X102994707Y-114897413D01*
X102883213Y-115008907D01*
X102883210Y-115008911D01*
X102795609Y-115140014D01*
X102795602Y-115140027D01*
X102735264Y-115285698D01*
X102735261Y-115285710D01*
X102704500Y-115440353D01*
X102704500Y-115598046D01*
X102735261Y-115752689D01*
X102735264Y-115752701D01*
X102795602Y-115898372D01*
X102795609Y-115898385D01*
X102883210Y-116029488D01*
X102883213Y-116029492D01*
X102994707Y-116140986D01*
X102994711Y-116140989D01*
X103103095Y-116213410D01*
X103147900Y-116267023D01*
X103156607Y-116336348D01*
X103126452Y-116399375D01*
X103095740Y-116423453D01*
X103095786Y-116423521D01*
X103094897Y-116424114D01*
X103092660Y-116425869D01*
X103090719Y-116426906D01*
X102959611Y-116514510D01*
X102959607Y-116514513D01*
X102848113Y-116626007D01*
X102848110Y-116626011D01*
X102760509Y-116757114D01*
X102760502Y-116757127D01*
X102700164Y-116902798D01*
X102700161Y-116902810D01*
X102669400Y-117057453D01*
X101761687Y-117057453D01*
X101861779Y-117015994D01*
X101861785Y-117015990D01*
X101963145Y-116948264D01*
X101978060Y-116938296D01*
X101992889Y-116928389D01*
X102104389Y-116816889D01*
X102191994Y-116685779D01*
X102252337Y-116540097D01*
X102283100Y-116385442D01*
X102283100Y-116227758D01*
X102283100Y-116227755D01*
X102283099Y-116227753D01*
X102252338Y-116073110D01*
X102252337Y-116073103D01*
X102234271Y-116029488D01*
X102191997Y-115927427D01*
X102191990Y-115927414D01*
X102104389Y-115796311D01*
X102104386Y-115796307D01*
X101992892Y-115684813D01*
X101992888Y-115684810D01*
X101861785Y-115597209D01*
X101861772Y-115597202D01*
X101716101Y-115536864D01*
X101716089Y-115536861D01*
X101561445Y-115506100D01*
X101561442Y-115506100D01*
X101403758Y-115506100D01*
X101403755Y-115506100D01*
X101249110Y-115536861D01*
X101249098Y-115536864D01*
X101103427Y-115597202D01*
X101103414Y-115597209D01*
X100972311Y-115684810D01*
X100972307Y-115684813D01*
X100860813Y-115796307D01*
X100860810Y-115796311D01*
X100773209Y-115927414D01*
X100773202Y-115927427D01*
X100712864Y-116073098D01*
X100712861Y-116073110D01*
X100682100Y-116227753D01*
X45400500Y-116227753D01*
X45400500Y-114398953D01*
X99834300Y-114398953D01*
X99834300Y-114556646D01*
X99865061Y-114711289D01*
X99865064Y-114711301D01*
X99925402Y-114856972D01*
X99925409Y-114856985D01*
X100013010Y-114988088D01*
X100013013Y-114988092D01*
X100124507Y-115099586D01*
X100124511Y-115099589D01*
X100255614Y-115187190D01*
X100255627Y-115187197D01*
X100401298Y-115247535D01*
X100401303Y-115247537D01*
X100555953Y-115278299D01*
X100555956Y-115278300D01*
X100555958Y-115278300D01*
X100713644Y-115278300D01*
X100713645Y-115278299D01*
X100868297Y-115247537D01*
X101013979Y-115187194D01*
X101145089Y-115099589D01*
X101256589Y-114988089D01*
X101344194Y-114856979D01*
X101404537Y-114711297D01*
X101435300Y-114556642D01*
X101435300Y-114398958D01*
X101435300Y-114398955D01*
X101435299Y-114398953D01*
X101404538Y-114244310D01*
X101404537Y-114244303D01*
X101404535Y-114244298D01*
X101344197Y-114098627D01*
X101344190Y-114098614D01*
X101256589Y-113967511D01*
X101256586Y-113967507D01*
X101145092Y-113856013D01*
X101145088Y-113856010D01*
X101013985Y-113768409D01*
X101013972Y-113768402D01*
X100868301Y-113708064D01*
X100868289Y-113708061D01*
X100713645Y-113677300D01*
X100713642Y-113677300D01*
X100555958Y-113677300D01*
X100555955Y-113677300D01*
X100401310Y-113708061D01*
X100401298Y-113708064D01*
X100255627Y-113768402D01*
X100255614Y-113768409D01*
X100124511Y-113856010D01*
X100124507Y-113856013D01*
X100013013Y-113967507D01*
X100013010Y-113967511D01*
X99925409Y-114098614D01*
X99925402Y-114098627D01*
X99865064Y-114244298D01*
X99865061Y-114244310D01*
X99834300Y-114398953D01*
X45400500Y-114398953D01*
X45400500Y-112904553D01*
X103611100Y-112904553D01*
X103611100Y-113062246D01*
X103641861Y-113216889D01*
X103641864Y-113216901D01*
X103702202Y-113362572D01*
X103702209Y-113362585D01*
X103789810Y-113493688D01*
X103789813Y-113493692D01*
X103901307Y-113605186D01*
X103901311Y-113605189D01*
X104032414Y-113692790D01*
X104032427Y-113692797D01*
X104144924Y-113739394D01*
X104178103Y-113753137D01*
X104332753Y-113783899D01*
X104332756Y-113783900D01*
X104332758Y-113783900D01*
X104490444Y-113783900D01*
X104490445Y-113783899D01*
X104645097Y-113753137D01*
X104790779Y-113692794D01*
X104921889Y-113605189D01*
X105033389Y-113493689D01*
X105120994Y-113362579D01*
X105121747Y-113361171D01*
X105122336Y-113360570D01*
X105124379Y-113357514D01*
X105124958Y-113357901D01*
X105170704Y-113311321D01*
X105238840Y-113295853D01*
X105304522Y-113319678D01*
X105345672Y-113372160D01*
X105361002Y-113409172D01*
X105361009Y-113409185D01*
X105448610Y-113540288D01*
X105448613Y-113540292D01*
X105560107Y-113651786D01*
X105560111Y-113651789D01*
X105691214Y-113739390D01*
X105691227Y-113739397D01*
X105836898Y-113799735D01*
X105836903Y-113799737D01*
X105991553Y-113830499D01*
X105991556Y-113830500D01*
X105991558Y-113830500D01*
X106149244Y-113830500D01*
X106149245Y-113830499D01*
X106303897Y-113799737D01*
X106449579Y-113739394D01*
X106580689Y-113651789D01*
X106692189Y-113540289D01*
X106779794Y-113409179D01*
X106840137Y-113263497D01*
X106870900Y-113108842D01*
X106870900Y-112951158D01*
X106870900Y-112951155D01*
X106870899Y-112951153D01*
X106840137Y-112796503D01*
X106829698Y-112771301D01*
X106779797Y-112650827D01*
X106779790Y-112650814D01*
X106693556Y-112521757D01*
X106693555Y-112521755D01*
X106693553Y-112521753D01*
X106692186Y-112519707D01*
X106631432Y-112458953D01*
X111823447Y-112458953D01*
X111823447Y-112616646D01*
X111854208Y-112771289D01*
X111854211Y-112771301D01*
X111914549Y-112916972D01*
X111914556Y-112916985D01*
X112002157Y-113048088D01*
X112002160Y-113048092D01*
X112113654Y-113159586D01*
X112113658Y-113159589D01*
X112244761Y-113247190D01*
X112244774Y-113247197D01*
X112362242Y-113295853D01*
X112390450Y-113307537D01*
X112545100Y-113338299D01*
X112545103Y-113338300D01*
X112545105Y-113338300D01*
X112702791Y-113338300D01*
X112702792Y-113338299D01*
X112857444Y-113307537D01*
X113003126Y-113247194D01*
X113134236Y-113159589D01*
X113245736Y-113048089D01*
X113333341Y-112916979D01*
X113393684Y-112771297D01*
X113424447Y-112616642D01*
X113424447Y-112458958D01*
X113424447Y-112458955D01*
X113424446Y-112458953D01*
X113414353Y-112408211D01*
X113393684Y-112304303D01*
X113379367Y-112269738D01*
X113333344Y-112158627D01*
X113333337Y-112158614D01*
X113245736Y-112027511D01*
X113245733Y-112027507D01*
X113134239Y-111916013D01*
X113134235Y-111916010D01*
X113003132Y-111828409D01*
X113003119Y-111828402D01*
X112857448Y-111768064D01*
X112857436Y-111768061D01*
X112702792Y-111737300D01*
X112702789Y-111737300D01*
X112545105Y-111737300D01*
X112545102Y-111737300D01*
X112390457Y-111768061D01*
X112390445Y-111768064D01*
X112244774Y-111828402D01*
X112244761Y-111828409D01*
X112113658Y-111916010D01*
X112113654Y-111916013D01*
X112002160Y-112027507D01*
X112002157Y-112027511D01*
X111914556Y-112158614D01*
X111914549Y-112158627D01*
X111854211Y-112304298D01*
X111854208Y-112304310D01*
X111823447Y-112458953D01*
X106631432Y-112458953D01*
X106580692Y-112408213D01*
X106580688Y-112408210D01*
X106449585Y-112320609D01*
X106449572Y-112320602D01*
X106303901Y-112260264D01*
X106303889Y-112260261D01*
X106149245Y-112229500D01*
X106149242Y-112229500D01*
X105991558Y-112229500D01*
X105991555Y-112229500D01*
X105836910Y-112260261D01*
X105836898Y-112260264D01*
X105691227Y-112320602D01*
X105691214Y-112320609D01*
X105560111Y-112408210D01*
X105560107Y-112408213D01*
X105448613Y-112519707D01*
X105448610Y-112519711D01*
X105361003Y-112650824D01*
X105360242Y-112652248D01*
X105359647Y-112652853D01*
X105357621Y-112655886D01*
X105357045Y-112655501D01*
X105311276Y-112702089D01*
X105243138Y-112717545D01*
X105177460Y-112693708D01*
X105136327Y-112641240D01*
X105120994Y-112604221D01*
X105120990Y-112604214D01*
X105033389Y-112473111D01*
X105033386Y-112473107D01*
X104921892Y-112361613D01*
X104921888Y-112361610D01*
X104790785Y-112274009D01*
X104790772Y-112274002D01*
X104645101Y-112213664D01*
X104645089Y-112213661D01*
X104490445Y-112182900D01*
X104490442Y-112182900D01*
X104332758Y-112182900D01*
X104332755Y-112182900D01*
X104178110Y-112213661D01*
X104178098Y-112213664D01*
X104032427Y-112274002D01*
X104032414Y-112274009D01*
X103901311Y-112361610D01*
X103901307Y-112361613D01*
X103789813Y-112473107D01*
X103789810Y-112473111D01*
X103702209Y-112604214D01*
X103702202Y-112604227D01*
X103641864Y-112749898D01*
X103641861Y-112749910D01*
X103611100Y-112904553D01*
X45400500Y-112904553D01*
X45400500Y-106421153D01*
X85599500Y-106421153D01*
X85599500Y-106578846D01*
X85630261Y-106733489D01*
X85630264Y-106733501D01*
X85690602Y-106879172D01*
X85690609Y-106879185D01*
X85778210Y-107010288D01*
X85778213Y-107010292D01*
X85889707Y-107121786D01*
X85889711Y-107121789D01*
X86020814Y-107209390D01*
X86020823Y-107209395D01*
X86083699Y-107235439D01*
X86138102Y-107279280D01*
X86160167Y-107345574D01*
X86142888Y-107413273D01*
X86091751Y-107460884D01*
X86083699Y-107464561D01*
X86020823Y-107490604D01*
X86020814Y-107490609D01*
X85889711Y-107578210D01*
X85889707Y-107578213D01*
X85778213Y-107689707D01*
X85778210Y-107689711D01*
X85690609Y-107820814D01*
X85690602Y-107820827D01*
X85630264Y-107966498D01*
X85630261Y-107966510D01*
X85599500Y-108121153D01*
X85599500Y-108278846D01*
X85630261Y-108433489D01*
X85630264Y-108433501D01*
X85690602Y-108579172D01*
X85690609Y-108579185D01*
X85778210Y-108710288D01*
X85778213Y-108710292D01*
X85889707Y-108821786D01*
X85889711Y-108821789D01*
X86020814Y-108909390D01*
X86020823Y-108909395D01*
X86083699Y-108935439D01*
X86138102Y-108979280D01*
X86160167Y-109045574D01*
X86142888Y-109113273D01*
X86091751Y-109160884D01*
X86083699Y-109164561D01*
X86020823Y-109190604D01*
X86020814Y-109190609D01*
X85889711Y-109278210D01*
X85889707Y-109278213D01*
X85778213Y-109389707D01*
X85778210Y-109389711D01*
X85690609Y-109520814D01*
X85690602Y-109520827D01*
X85630264Y-109666498D01*
X85630261Y-109666510D01*
X85599500Y-109821153D01*
X85599500Y-109978846D01*
X85630261Y-110133489D01*
X85630264Y-110133501D01*
X85690602Y-110279172D01*
X85690609Y-110279185D01*
X85778210Y-110410288D01*
X85778213Y-110410292D01*
X85889707Y-110521786D01*
X85889711Y-110521789D01*
X86002118Y-110596898D01*
X86046923Y-110650510D01*
X86055630Y-110719835D01*
X86025475Y-110782863D01*
X86002118Y-110803102D01*
X85889711Y-110878210D01*
X85889707Y-110878213D01*
X85778213Y-110989707D01*
X85778210Y-110989711D01*
X85690609Y-111120814D01*
X85690602Y-111120827D01*
X85630264Y-111266498D01*
X85630261Y-111266510D01*
X85599500Y-111421153D01*
X85599500Y-111578846D01*
X85630261Y-111733489D01*
X85630264Y-111733501D01*
X85690602Y-111879172D01*
X85690609Y-111879185D01*
X85778210Y-112010288D01*
X85778213Y-112010292D01*
X85889707Y-112121786D01*
X85889711Y-112121789D01*
X86020814Y-112209390D01*
X86020827Y-112209397D01*
X86143633Y-112260264D01*
X86166503Y-112269737D01*
X86321153Y-112300499D01*
X86321156Y-112300500D01*
X86321158Y-112300500D01*
X86478844Y-112300500D01*
X86478845Y-112300499D01*
X86633497Y-112269737D01*
X86768873Y-112213663D01*
X86779172Y-112209397D01*
X86779172Y-112209396D01*
X86779179Y-112209394D01*
X86910289Y-112121789D01*
X87021789Y-112010289D01*
X87109394Y-111879179D01*
X87169737Y-111733497D01*
X87200500Y-111578842D01*
X87200500Y-111421158D01*
X87200500Y-111421155D01*
X87200499Y-111421153D01*
X87169738Y-111266510D01*
X87169737Y-111266503D01*
X87142398Y-111200500D01*
X87109397Y-111120827D01*
X87109390Y-111120814D01*
X87021789Y-110989711D01*
X87021786Y-110989707D01*
X86910292Y-110878213D01*
X86910288Y-110878210D01*
X86797881Y-110803102D01*
X86753076Y-110749490D01*
X86744369Y-110680165D01*
X86774523Y-110617137D01*
X86797881Y-110596898D01*
X86831981Y-110574112D01*
X86910289Y-110521789D01*
X87021789Y-110410289D01*
X87109394Y-110279179D01*
X87169737Y-110133497D01*
X87200500Y-109978842D01*
X87200500Y-109821158D01*
X87200500Y-109821155D01*
X87200499Y-109821153D01*
X87174531Y-109690604D01*
X87169737Y-109666503D01*
X87119647Y-109545574D01*
X87109397Y-109520827D01*
X87109390Y-109520814D01*
X87021789Y-109389711D01*
X87021786Y-109389707D01*
X86910292Y-109278213D01*
X86910288Y-109278210D01*
X86779185Y-109190609D01*
X86779172Y-109190602D01*
X86716301Y-109164561D01*
X86661897Y-109120721D01*
X86639832Y-109054427D01*
X86657111Y-108986727D01*
X86708248Y-108939116D01*
X86716301Y-108935439D01*
X86779172Y-108909397D01*
X86779172Y-108909396D01*
X86779179Y-108909394D01*
X86910289Y-108821789D01*
X87021789Y-108710289D01*
X87109394Y-108579179D01*
X87169737Y-108433497D01*
X87200500Y-108278842D01*
X87200500Y-108121158D01*
X87200500Y-108121155D01*
X87200499Y-108121153D01*
X87180734Y-108021789D01*
X87169737Y-107966503D01*
X87129656Y-107869737D01*
X87109397Y-107820827D01*
X87109390Y-107820814D01*
X87021789Y-107689711D01*
X87021786Y-107689707D01*
X86910292Y-107578213D01*
X86910288Y-107578210D01*
X86779185Y-107490609D01*
X86779172Y-107490602D01*
X86716301Y-107464561D01*
X86661897Y-107420721D01*
X86639832Y-107354427D01*
X86657111Y-107286727D01*
X86708248Y-107239116D01*
X86716301Y-107235439D01*
X86779172Y-107209397D01*
X86779172Y-107209396D01*
X86779179Y-107209394D01*
X86910289Y-107121789D01*
X87010925Y-107021153D01*
X87599500Y-107021153D01*
X87599500Y-107178846D01*
X87630261Y-107333489D01*
X87630264Y-107333501D01*
X87690602Y-107479172D01*
X87690609Y-107479185D01*
X87778210Y-107610288D01*
X87778213Y-107610292D01*
X87889707Y-107721786D01*
X87889711Y-107721789D01*
X88002118Y-107796898D01*
X88046923Y-107850510D01*
X88055630Y-107919835D01*
X88025475Y-107982863D01*
X88002118Y-108003102D01*
X87889711Y-108078210D01*
X87889707Y-108078213D01*
X87778213Y-108189707D01*
X87778210Y-108189711D01*
X87690609Y-108320814D01*
X87690602Y-108320827D01*
X87630264Y-108466498D01*
X87630261Y-108466510D01*
X87599500Y-108621153D01*
X87599500Y-108778846D01*
X87630261Y-108933489D01*
X87630264Y-108933501D01*
X87690602Y-109079172D01*
X87690609Y-109079185D01*
X87778210Y-109210288D01*
X87778213Y-109210292D01*
X87889707Y-109321786D01*
X87889711Y-109321789D01*
X88020814Y-109409390D01*
X88020823Y-109409395D01*
X88083699Y-109435439D01*
X88138102Y-109479280D01*
X88160167Y-109545574D01*
X88142888Y-109613273D01*
X88091751Y-109660884D01*
X88083699Y-109664561D01*
X88020823Y-109690604D01*
X88020814Y-109690609D01*
X87889711Y-109778210D01*
X87889707Y-109778213D01*
X87778213Y-109889707D01*
X87778210Y-109889711D01*
X87690609Y-110020814D01*
X87690602Y-110020827D01*
X87630264Y-110166498D01*
X87630261Y-110166510D01*
X87599500Y-110321153D01*
X87599500Y-110478846D01*
X87630261Y-110633489D01*
X87630264Y-110633501D01*
X87690602Y-110779172D01*
X87690609Y-110779185D01*
X87778210Y-110910288D01*
X87778213Y-110910292D01*
X87889707Y-111021786D01*
X87889711Y-111021789D01*
X88020814Y-111109390D01*
X88020827Y-111109397D01*
X88166498Y-111169735D01*
X88166503Y-111169737D01*
X88321153Y-111200499D01*
X88321156Y-111200500D01*
X88321158Y-111200500D01*
X88478844Y-111200500D01*
X88478845Y-111200499D01*
X88633497Y-111169737D01*
X88751592Y-111120821D01*
X88779172Y-111109397D01*
X88779172Y-111109396D01*
X88779179Y-111109394D01*
X88910289Y-111021789D01*
X89021789Y-110910289D01*
X89109394Y-110779179D01*
X89121692Y-110749490D01*
X89123067Y-110746166D01*
X89169737Y-110633497D01*
X89200500Y-110478842D01*
X89200500Y-110321158D01*
X89200500Y-110321155D01*
X89200499Y-110321153D01*
X89169738Y-110166510D01*
X89169737Y-110166503D01*
X89156062Y-110133489D01*
X89109397Y-110020827D01*
X89109390Y-110020814D01*
X89021789Y-109889711D01*
X89021786Y-109889707D01*
X88910292Y-109778213D01*
X88910288Y-109778210D01*
X88779185Y-109690609D01*
X88779172Y-109690602D01*
X88716301Y-109664561D01*
X88661897Y-109620721D01*
X88639832Y-109554427D01*
X88657111Y-109486727D01*
X88708248Y-109439116D01*
X88716301Y-109435439D01*
X88779172Y-109409397D01*
X88779172Y-109409396D01*
X88779179Y-109409394D01*
X88910289Y-109321789D01*
X89021789Y-109210289D01*
X89109394Y-109079179D01*
X89169737Y-108933497D01*
X89200500Y-108778842D01*
X89200500Y-108621158D01*
X89200500Y-108621155D01*
X89200499Y-108621153D01*
X89169738Y-108466510D01*
X89169737Y-108466503D01*
X89156062Y-108433489D01*
X89109397Y-108320827D01*
X89109390Y-108320814D01*
X89021789Y-108189711D01*
X89021786Y-108189707D01*
X88910292Y-108078213D01*
X88910288Y-108078210D01*
X88797881Y-108003102D01*
X88753076Y-107949490D01*
X88744369Y-107880165D01*
X88774523Y-107817137D01*
X88797881Y-107796898D01*
X88831981Y-107774112D01*
X88910289Y-107721789D01*
X89021789Y-107610289D01*
X89109394Y-107479179D01*
X89169737Y-107333497D01*
X89172193Y-107321153D01*
X102049500Y-107321153D01*
X102049500Y-107478846D01*
X102080261Y-107633489D01*
X102080264Y-107633501D01*
X102140602Y-107779172D01*
X102140609Y-107779185D01*
X102228210Y-107910288D01*
X102228213Y-107910292D01*
X102339707Y-108021786D01*
X102339711Y-108021789D01*
X102470814Y-108109390D01*
X102470827Y-108109397D01*
X102616498Y-108169735D01*
X102616503Y-108169737D01*
X102771153Y-108200499D01*
X102771156Y-108200500D01*
X102771158Y-108200500D01*
X102928844Y-108200500D01*
X102928845Y-108200499D01*
X103083497Y-108169737D01*
X103229179Y-108109394D01*
X103360289Y-108021789D01*
X103471789Y-107910289D01*
X103559394Y-107779179D01*
X103619737Y-107633497D01*
X103650500Y-107478842D01*
X103650500Y-107321158D01*
X103650500Y-107321155D01*
X103650499Y-107321153D01*
X103628269Y-107209395D01*
X103619737Y-107166503D01*
X103559534Y-107021158D01*
X103559397Y-107020827D01*
X103559390Y-107020814D01*
X103471789Y-106889711D01*
X103471786Y-106889707D01*
X103360292Y-106778213D01*
X103360288Y-106778210D01*
X103229185Y-106690609D01*
X103229172Y-106690602D01*
X103083501Y-106630264D01*
X103083489Y-106630261D01*
X102928845Y-106599500D01*
X102928842Y-106599500D01*
X102771158Y-106599500D01*
X102771155Y-106599500D01*
X102616510Y-106630261D01*
X102616498Y-106630264D01*
X102470827Y-106690602D01*
X102470814Y-106690609D01*
X102339711Y-106778210D01*
X102339707Y-106778213D01*
X102228213Y-106889707D01*
X102228210Y-106889711D01*
X102140609Y-107020814D01*
X102140602Y-107020827D01*
X102080264Y-107166498D01*
X102080261Y-107166510D01*
X102049500Y-107321153D01*
X89172193Y-107321153D01*
X89176301Y-107300500D01*
X89178216Y-107290874D01*
X89178216Y-107290873D01*
X89200499Y-107178846D01*
X89200500Y-107178844D01*
X89200500Y-107021155D01*
X89200499Y-107021153D01*
X89174353Y-106889711D01*
X89169737Y-106866503D01*
X89169735Y-106866498D01*
X89109397Y-106720827D01*
X89109390Y-106720814D01*
X89021789Y-106589711D01*
X89021786Y-106589707D01*
X88910292Y-106478213D01*
X88910288Y-106478210D01*
X88779185Y-106390609D01*
X88779172Y-106390602D01*
X88633501Y-106330264D01*
X88633489Y-106330261D01*
X88478845Y-106299500D01*
X88478842Y-106299500D01*
X88321158Y-106299500D01*
X88321155Y-106299500D01*
X88166510Y-106330261D01*
X88166498Y-106330264D01*
X88020827Y-106390602D01*
X88020814Y-106390609D01*
X87889711Y-106478210D01*
X87889707Y-106478213D01*
X87778213Y-106589707D01*
X87778210Y-106589711D01*
X87690609Y-106720814D01*
X87690602Y-106720827D01*
X87630264Y-106866498D01*
X87630261Y-106866510D01*
X87599500Y-107021153D01*
X87010925Y-107021153D01*
X87021789Y-107010289D01*
X87109394Y-106879179D01*
X87169737Y-106733497D01*
X87200500Y-106578842D01*
X87200500Y-106421158D01*
X87200500Y-106421155D01*
X87200499Y-106421153D01*
X87182419Y-106330261D01*
X87169737Y-106266503D01*
X87142398Y-106200500D01*
X87109397Y-106120827D01*
X87109390Y-106120814D01*
X87021789Y-105989711D01*
X87021786Y-105989707D01*
X86910292Y-105878213D01*
X86910288Y-105878210D01*
X86851836Y-105839153D01*
X124167500Y-105839153D01*
X124167500Y-105996846D01*
X124198261Y-106151489D01*
X124198264Y-106151501D01*
X124258602Y-106297172D01*
X124258609Y-106297185D01*
X124346210Y-106428288D01*
X124346213Y-106428292D01*
X124457707Y-106539786D01*
X124457711Y-106539789D01*
X124588814Y-106627390D01*
X124588827Y-106627397D01*
X124734498Y-106687735D01*
X124734503Y-106687737D01*
X124889153Y-106718499D01*
X124889156Y-106718500D01*
X124889158Y-106718500D01*
X125046844Y-106718500D01*
X125046845Y-106718499D01*
X125201497Y-106687737D01*
X125340253Y-106630263D01*
X125347172Y-106627397D01*
X125347172Y-106627396D01*
X125347179Y-106627394D01*
X125478289Y-106539789D01*
X125589789Y-106428289D01*
X125677394Y-106297179D01*
X125737737Y-106151497D01*
X125768500Y-105996842D01*
X125768500Y-105839158D01*
X125768500Y-105839155D01*
X125768499Y-105839153D01*
X125758842Y-105790606D01*
X125737737Y-105684503D01*
X125737735Y-105684498D01*
X125677397Y-105538827D01*
X125677390Y-105538814D01*
X125589789Y-105407711D01*
X125589786Y-105407707D01*
X125478292Y-105296213D01*
X125478288Y-105296210D01*
X125347185Y-105208609D01*
X125347172Y-105208602D01*
X125201501Y-105148264D01*
X125201489Y-105148261D01*
X125046845Y-105117500D01*
X125046842Y-105117500D01*
X124889158Y-105117500D01*
X124889155Y-105117500D01*
X124734510Y-105148261D01*
X124734498Y-105148264D01*
X124588827Y-105208602D01*
X124588814Y-105208609D01*
X124457711Y-105296210D01*
X124457707Y-105296213D01*
X124346213Y-105407707D01*
X124346210Y-105407711D01*
X124258609Y-105538814D01*
X124258602Y-105538827D01*
X124198264Y-105684498D01*
X124198261Y-105684510D01*
X124167500Y-105839153D01*
X86851836Y-105839153D01*
X86779185Y-105790609D01*
X86779172Y-105790602D01*
X86633501Y-105730264D01*
X86633489Y-105730261D01*
X86478845Y-105699500D01*
X86478842Y-105699500D01*
X86321158Y-105699500D01*
X86321155Y-105699500D01*
X86166510Y-105730261D01*
X86166498Y-105730264D01*
X86020827Y-105790602D01*
X86020814Y-105790609D01*
X85889711Y-105878210D01*
X85889707Y-105878213D01*
X85778213Y-105989707D01*
X85778210Y-105989711D01*
X85690609Y-106120814D01*
X85690602Y-106120827D01*
X85630264Y-106266498D01*
X85630261Y-106266510D01*
X85599500Y-106421153D01*
X45400500Y-106421153D01*
X45400500Y-101721153D01*
X56599500Y-101721153D01*
X56599500Y-101878846D01*
X56630261Y-102033489D01*
X56630264Y-102033501D01*
X56690602Y-102179172D01*
X56690609Y-102179185D01*
X56758713Y-102281109D01*
X56779591Y-102347787D01*
X56761107Y-102415167D01*
X56758713Y-102418891D01*
X56690609Y-102520814D01*
X56690602Y-102520827D01*
X56630264Y-102666498D01*
X56630261Y-102666510D01*
X56599500Y-102821153D01*
X56599500Y-102978846D01*
X56630261Y-103133489D01*
X56630264Y-103133501D01*
X56690602Y-103279172D01*
X56690609Y-103279185D01*
X56778210Y-103410288D01*
X56778213Y-103410292D01*
X56780240Y-103412319D01*
X56780962Y-103413642D01*
X56782076Y-103414999D01*
X56781818Y-103415210D01*
X56813725Y-103473642D01*
X56808741Y-103543334D01*
X56782001Y-103584939D01*
X56782076Y-103585001D01*
X56781552Y-103585639D01*
X56780240Y-103587681D01*
X56778213Y-103589707D01*
X56778210Y-103589711D01*
X56690609Y-103720814D01*
X56690602Y-103720827D01*
X56630264Y-103866498D01*
X56630261Y-103866510D01*
X56599500Y-104021153D01*
X56599500Y-104178846D01*
X56630261Y-104333489D01*
X56630264Y-104333501D01*
X56690602Y-104479172D01*
X56690609Y-104479185D01*
X56778210Y-104610288D01*
X56778213Y-104610292D01*
X56830240Y-104662319D01*
X56863725Y-104723642D01*
X56858741Y-104793334D01*
X56830240Y-104837681D01*
X56778213Y-104889707D01*
X56778210Y-104889711D01*
X56690609Y-105020814D01*
X56690602Y-105020827D01*
X56630264Y-105166498D01*
X56630261Y-105166510D01*
X56599500Y-105321153D01*
X56599500Y-105478846D01*
X56630261Y-105633489D01*
X56630264Y-105633501D01*
X56690602Y-105779172D01*
X56690609Y-105779185D01*
X56778210Y-105910288D01*
X56778213Y-105910292D01*
X56889707Y-106021786D01*
X56889711Y-106021789D01*
X57020814Y-106109390D01*
X57020827Y-106109397D01*
X57122448Y-106151489D01*
X57166503Y-106169737D01*
X57321153Y-106200499D01*
X57321156Y-106200500D01*
X57321158Y-106200500D01*
X57478844Y-106200500D01*
X57478845Y-106200499D01*
X57633497Y-106169737D01*
X57751592Y-106120821D01*
X57779172Y-106109397D01*
X57779172Y-106109396D01*
X57779179Y-106109394D01*
X57781110Y-106108103D01*
X57782276Y-106107737D01*
X57784546Y-106106525D01*
X57784776Y-106106955D01*
X57847786Y-106087226D01*
X57915166Y-106105710D01*
X57918850Y-106108077D01*
X57920821Y-106109394D01*
X57920824Y-106109395D01*
X57920827Y-106109397D01*
X58022448Y-106151489D01*
X58066503Y-106169737D01*
X58221153Y-106200499D01*
X58221156Y-106200500D01*
X58221158Y-106200500D01*
X58378844Y-106200500D01*
X58378845Y-106200499D01*
X58533497Y-106169737D01*
X58651592Y-106120821D01*
X58679172Y-106109397D01*
X58679172Y-106109396D01*
X58679179Y-106109394D01*
X58810289Y-106021789D01*
X58921789Y-105910289D01*
X59009394Y-105779179D01*
X59069737Y-105633497D01*
X59100500Y-105478842D01*
X59100500Y-105321158D01*
X59100500Y-105321155D01*
X59100499Y-105321153D01*
X59095538Y-105296211D01*
X59069737Y-105166503D01*
X59062181Y-105148261D01*
X59009397Y-105020827D01*
X59009390Y-105020814D01*
X58921789Y-104889711D01*
X58921786Y-104889707D01*
X58869760Y-104837681D01*
X58836275Y-104776358D01*
X58841259Y-104706666D01*
X58869760Y-104662319D01*
X58921786Y-104610292D01*
X58921789Y-104610289D01*
X59009394Y-104479179D01*
X59069737Y-104333497D01*
X59100500Y-104178842D01*
X59100500Y-104021158D01*
X59098131Y-104009248D01*
X59098131Y-104009245D01*
X59094531Y-103991145D01*
X109215319Y-103991145D01*
X109215319Y-104148838D01*
X109246080Y-104303481D01*
X109246083Y-104303493D01*
X109306421Y-104449164D01*
X109306428Y-104449177D01*
X109394029Y-104580280D01*
X109394032Y-104580284D01*
X109505526Y-104691778D01*
X109505530Y-104691781D01*
X109636633Y-104779382D01*
X109636646Y-104779389D01*
X109782317Y-104839727D01*
X109782322Y-104839729D01*
X109936972Y-104870491D01*
X109936975Y-104870492D01*
X109936977Y-104870492D01*
X110094663Y-104870492D01*
X110094664Y-104870491D01*
X110249316Y-104839729D01*
X110394998Y-104779386D01*
X110526108Y-104691781D01*
X110637608Y-104580281D01*
X110725213Y-104449171D01*
X110785556Y-104303489D01*
X110816319Y-104148834D01*
X110816319Y-103991150D01*
X110816319Y-103991147D01*
X110816318Y-103991145D01*
X110807874Y-103948691D01*
X110814101Y-103879100D01*
X110856964Y-103823922D01*
X110922854Y-103800678D01*
X110929491Y-103800500D01*
X111078844Y-103800500D01*
X111078845Y-103800499D01*
X111233497Y-103769737D01*
X111351592Y-103720821D01*
X111379172Y-103709397D01*
X111379172Y-103709396D01*
X111379179Y-103709394D01*
X111510289Y-103621789D01*
X111621789Y-103510289D01*
X111709394Y-103379179D01*
X111769737Y-103233497D01*
X111800500Y-103078842D01*
X111800500Y-102921158D01*
X111800498Y-102921152D01*
X111800357Y-102919713D01*
X111800500Y-102918958D01*
X111800500Y-102915066D01*
X111801238Y-102915066D01*
X111813374Y-102851066D01*
X111861438Y-102800355D01*
X111929288Y-102783678D01*
X111947946Y-102785937D01*
X112000952Y-102796480D01*
X112021157Y-102800500D01*
X112021158Y-102800500D01*
X112178844Y-102800500D01*
X112178845Y-102800499D01*
X112333497Y-102769737D01*
X112479179Y-102709394D01*
X112610289Y-102621789D01*
X112721789Y-102510289D01*
X112809394Y-102379179D01*
X112869737Y-102233497D01*
X112900500Y-102078842D01*
X112900500Y-101921158D01*
X112900500Y-101921155D01*
X112900499Y-101921153D01*
X112869737Y-101766503D01*
X112850955Y-101721158D01*
X112809397Y-101620827D01*
X112809390Y-101620814D01*
X112721789Y-101489711D01*
X112721786Y-101489707D01*
X112610292Y-101378213D01*
X112610288Y-101378210D01*
X112479185Y-101290609D01*
X112479172Y-101290602D01*
X112333501Y-101230264D01*
X112333489Y-101230261D01*
X112178845Y-101199500D01*
X112178842Y-101199500D01*
X112021158Y-101199500D01*
X112021155Y-101199500D01*
X111866510Y-101230261D01*
X111866498Y-101230264D01*
X111720827Y-101290602D01*
X111720814Y-101290609D01*
X111589711Y-101378210D01*
X111589707Y-101378213D01*
X111478213Y-101489707D01*
X111478210Y-101489711D01*
X111390609Y-101620814D01*
X111390602Y-101620827D01*
X111330264Y-101766498D01*
X111330261Y-101766510D01*
X111299500Y-101921153D01*
X111299500Y-102078847D01*
X111299643Y-102080301D01*
X111299500Y-102081054D01*
X111299500Y-102084934D01*
X111298764Y-102084934D01*
X111286618Y-102148946D01*
X111238549Y-102199652D01*
X111170696Y-102216320D01*
X111152048Y-102214061D01*
X111078845Y-102199500D01*
X111078842Y-102199500D01*
X110921158Y-102199500D01*
X110921155Y-102199500D01*
X110766510Y-102230261D01*
X110766498Y-102230264D01*
X110620827Y-102290602D01*
X110620814Y-102290609D01*
X110489711Y-102378210D01*
X110489707Y-102378213D01*
X110378213Y-102489707D01*
X110378210Y-102489711D01*
X110290609Y-102620814D01*
X110290602Y-102620827D01*
X110230264Y-102766498D01*
X110230261Y-102766510D01*
X110199500Y-102921153D01*
X110199500Y-103078846D01*
X110207945Y-103121301D01*
X110201718Y-103190892D01*
X110158855Y-103246070D01*
X110092965Y-103269314D01*
X110086328Y-103269492D01*
X109936974Y-103269492D01*
X109782329Y-103300253D01*
X109782317Y-103300256D01*
X109636646Y-103360594D01*
X109636633Y-103360601D01*
X109505530Y-103448202D01*
X109505526Y-103448205D01*
X109394032Y-103559699D01*
X109394029Y-103559703D01*
X109306428Y-103690806D01*
X109306421Y-103690819D01*
X109246083Y-103836490D01*
X109246080Y-103836502D01*
X109215319Y-103991145D01*
X59094531Y-103991145D01*
X59069738Y-103866508D01*
X59069737Y-103866507D01*
X59069737Y-103866503D01*
X59057310Y-103836502D01*
X59009397Y-103720827D01*
X59009390Y-103720814D01*
X58921789Y-103589711D01*
X58919766Y-103587688D01*
X58919043Y-103586365D01*
X58917924Y-103585001D01*
X58918182Y-103584788D01*
X58886276Y-103526368D01*
X58891255Y-103456676D01*
X58917999Y-103415060D01*
X58917924Y-103414999D01*
X58918454Y-103414351D01*
X58919766Y-103412312D01*
X58921789Y-103410289D01*
X59009394Y-103279179D01*
X59013407Y-103269492D01*
X59069735Y-103133501D01*
X59069737Y-103133497D01*
X59100500Y-102978842D01*
X59100500Y-102821158D01*
X59100500Y-102821155D01*
X59100499Y-102821153D01*
X59078269Y-102709397D01*
X59069737Y-102666503D01*
X59050812Y-102620814D01*
X59009397Y-102520827D01*
X59009393Y-102520820D01*
X59009389Y-102520814D01*
X58941284Y-102418888D01*
X58920408Y-102352214D01*
X58938892Y-102284834D01*
X58941257Y-102281152D01*
X59009394Y-102179179D01*
X59069737Y-102033497D01*
X59100500Y-101878842D01*
X59100500Y-101721158D01*
X59100500Y-101721155D01*
X59100499Y-101721153D01*
X59069737Y-101566503D01*
X59050955Y-101521158D01*
X59050953Y-101521153D01*
X103899500Y-101521153D01*
X103899500Y-101678846D01*
X103930261Y-101833489D01*
X103930264Y-101833501D01*
X103990602Y-101979172D01*
X103990609Y-101979185D01*
X104078210Y-102110288D01*
X104078213Y-102110292D01*
X104189707Y-102221786D01*
X104189711Y-102221789D01*
X104320814Y-102309390D01*
X104320827Y-102309397D01*
X104418853Y-102350000D01*
X104466503Y-102369737D01*
X104621153Y-102400499D01*
X104621156Y-102400500D01*
X104621158Y-102400500D01*
X104778844Y-102400500D01*
X104778845Y-102400499D01*
X104933497Y-102369737D01*
X105079179Y-102309394D01*
X105210289Y-102221789D01*
X105321789Y-102110289D01*
X105409394Y-101979179D01*
X105469737Y-101833497D01*
X105500500Y-101678842D01*
X105500500Y-101521158D01*
X105500500Y-101521155D01*
X105500499Y-101521153D01*
X105480543Y-101420827D01*
X105469737Y-101366503D01*
X105437929Y-101289711D01*
X105409397Y-101220827D01*
X105409390Y-101220814D01*
X105321789Y-101089711D01*
X105321786Y-101089707D01*
X105210292Y-100978213D01*
X105210288Y-100978210D01*
X105079185Y-100890609D01*
X105079172Y-100890602D01*
X104933501Y-100830264D01*
X104933489Y-100830261D01*
X104778845Y-100799500D01*
X104778842Y-100799500D01*
X104621158Y-100799500D01*
X104621155Y-100799500D01*
X104466510Y-100830261D01*
X104466498Y-100830264D01*
X104320827Y-100890602D01*
X104320814Y-100890609D01*
X104189711Y-100978210D01*
X104189707Y-100978213D01*
X104078213Y-101089707D01*
X104078210Y-101089711D01*
X103990609Y-101220814D01*
X103990602Y-101220827D01*
X103930264Y-101366498D01*
X103930261Y-101366510D01*
X103899500Y-101521153D01*
X59050953Y-101521153D01*
X59009397Y-101420827D01*
X59009390Y-101420814D01*
X58921789Y-101289711D01*
X58921786Y-101289707D01*
X58810292Y-101178213D01*
X58810288Y-101178210D01*
X58679185Y-101090609D01*
X58679172Y-101090602D01*
X58533501Y-101030264D01*
X58533489Y-101030261D01*
X58378845Y-100999500D01*
X58378842Y-100999500D01*
X58221158Y-100999500D01*
X58221155Y-100999500D01*
X58066510Y-101030261D01*
X58066498Y-101030264D01*
X57920822Y-101090604D01*
X57920820Y-101090605D01*
X57918885Y-101091899D01*
X57917717Y-101092264D01*
X57915451Y-101093476D01*
X57915221Y-101093045D01*
X57852206Y-101112773D01*
X57784827Y-101094285D01*
X57781115Y-101091899D01*
X57779179Y-101090605D01*
X57779177Y-101090604D01*
X57633501Y-101030264D01*
X57633489Y-101030261D01*
X57478845Y-100999500D01*
X57478842Y-100999500D01*
X57321158Y-100999500D01*
X57321155Y-100999500D01*
X57166510Y-101030261D01*
X57166498Y-101030264D01*
X57020827Y-101090602D01*
X57020814Y-101090609D01*
X56889711Y-101178210D01*
X56889707Y-101178213D01*
X56778213Y-101289707D01*
X56778210Y-101289711D01*
X56690609Y-101420814D01*
X56690602Y-101420827D01*
X56630264Y-101566498D01*
X56630261Y-101566510D01*
X56599500Y-101721153D01*
X45400500Y-101721153D01*
X45400500Y-98721153D01*
X92499500Y-98721153D01*
X92499500Y-98878846D01*
X92530261Y-99033489D01*
X92530264Y-99033501D01*
X92590602Y-99179172D01*
X92590609Y-99179185D01*
X92678210Y-99310288D01*
X92678213Y-99310292D01*
X92789707Y-99421786D01*
X92789711Y-99421789D01*
X92920814Y-99509390D01*
X92920827Y-99509397D01*
X93066498Y-99569735D01*
X93066503Y-99569737D01*
X93221153Y-99600499D01*
X93221156Y-99600500D01*
X93221158Y-99600500D01*
X93378844Y-99600500D01*
X93378845Y-99600499D01*
X93533497Y-99569737D01*
X93679179Y-99509394D01*
X93810289Y-99421789D01*
X93921789Y-99310289D01*
X94009394Y-99179179D01*
X94069737Y-99033497D01*
X94100500Y-98878842D01*
X94100500Y-98721158D01*
X94100500Y-98721155D01*
X94100499Y-98721153D01*
X94069738Y-98566510D01*
X94069737Y-98566503D01*
X94069735Y-98566498D01*
X94009397Y-98420827D01*
X94009390Y-98420814D01*
X93921789Y-98289711D01*
X93921786Y-98289707D01*
X93810292Y-98178213D01*
X93810288Y-98178210D01*
X93679185Y-98090609D01*
X93679172Y-98090602D01*
X93533501Y-98030264D01*
X93533489Y-98030261D01*
X93378845Y-97999500D01*
X93378842Y-97999500D01*
X93221158Y-97999500D01*
X93221155Y-97999500D01*
X93066510Y-98030261D01*
X93066498Y-98030264D01*
X92920827Y-98090602D01*
X92920814Y-98090609D01*
X92789711Y-98178210D01*
X92789707Y-98178213D01*
X92678213Y-98289707D01*
X92678210Y-98289711D01*
X92590609Y-98420814D01*
X92590602Y-98420827D01*
X92530264Y-98566498D01*
X92530261Y-98566510D01*
X92499500Y-98721153D01*
X45400500Y-98721153D01*
X45400500Y-97421153D01*
X90099500Y-97421153D01*
X90099500Y-97578846D01*
X90130261Y-97733489D01*
X90130264Y-97733501D01*
X90190602Y-97879172D01*
X90190609Y-97879185D01*
X90278210Y-98010288D01*
X90278213Y-98010292D01*
X90389707Y-98121786D01*
X90389711Y-98121789D01*
X90520814Y-98209390D01*
X90520827Y-98209397D01*
X90666498Y-98269735D01*
X90666503Y-98269737D01*
X90821153Y-98300499D01*
X90821156Y-98300500D01*
X90821158Y-98300500D01*
X90978844Y-98300500D01*
X90978845Y-98300499D01*
X91133497Y-98269737D01*
X91279179Y-98209394D01*
X91410289Y-98121789D01*
X91521789Y-98010289D01*
X91609394Y-97879179D01*
X91669737Y-97733497D01*
X91700500Y-97578842D01*
X91700500Y-97421158D01*
X91700500Y-97421155D01*
X91700499Y-97421153D01*
X91680734Y-97321789D01*
X91669737Y-97266503D01*
X91646452Y-97210288D01*
X91609397Y-97120827D01*
X91609390Y-97120814D01*
X91521789Y-96989711D01*
X91521786Y-96989707D01*
X91410292Y-96878213D01*
X91410288Y-96878210D01*
X91279185Y-96790609D01*
X91279172Y-96790602D01*
X91133501Y-96730264D01*
X91133489Y-96730261D01*
X90978845Y-96699500D01*
X90978842Y-96699500D01*
X90821158Y-96699500D01*
X90821155Y-96699500D01*
X90666510Y-96730261D01*
X90666498Y-96730264D01*
X90520827Y-96790602D01*
X90520814Y-96790609D01*
X90389711Y-96878210D01*
X90389707Y-96878213D01*
X90278213Y-96989707D01*
X90278210Y-96989711D01*
X90190609Y-97120814D01*
X90190602Y-97120827D01*
X90130264Y-97266498D01*
X90130261Y-97266510D01*
X90099500Y-97421153D01*
X45400500Y-97421153D01*
X45400500Y-95621153D01*
X97799500Y-95621153D01*
X97799500Y-95778846D01*
X97830261Y-95933489D01*
X97830264Y-95933501D01*
X97890602Y-96079172D01*
X97890609Y-96079185D01*
X97978210Y-96210288D01*
X97978213Y-96210292D01*
X98089707Y-96321786D01*
X98089711Y-96321789D01*
X98220814Y-96409390D01*
X98220827Y-96409397D01*
X98358683Y-96466498D01*
X98366503Y-96469737D01*
X98478567Y-96492028D01*
X98521153Y-96500499D01*
X98521156Y-96500500D01*
X98521158Y-96500500D01*
X98678844Y-96500500D01*
X98678845Y-96500499D01*
X98833497Y-96469737D01*
X98979179Y-96409394D01*
X99032939Y-96373473D01*
X99099616Y-96352595D01*
X99166996Y-96371079D01*
X99213687Y-96423058D01*
X99224863Y-96492028D01*
X99223447Y-96500766D01*
X99199500Y-96621153D01*
X99199500Y-96778846D01*
X99230261Y-96933489D01*
X99230264Y-96933501D01*
X99290602Y-97079172D01*
X99290609Y-97079185D01*
X99378210Y-97210288D01*
X99378213Y-97210292D01*
X99489707Y-97321786D01*
X99489711Y-97321789D01*
X99620814Y-97409390D01*
X99620827Y-97409397D01*
X99766498Y-97469735D01*
X99766503Y-97469737D01*
X99921153Y-97500499D01*
X99921156Y-97500500D01*
X99921158Y-97500500D01*
X100078844Y-97500500D01*
X100078845Y-97500499D01*
X100233497Y-97469737D01*
X100379179Y-97409394D01*
X100510289Y-97321789D01*
X100621789Y-97210289D01*
X100709394Y-97079179D01*
X100769737Y-96933497D01*
X100800500Y-96778842D01*
X100800500Y-96621158D01*
X100800500Y-96621155D01*
X100800499Y-96621153D01*
X100769738Y-96466510D01*
X100769737Y-96466503D01*
X100731203Y-96373473D01*
X100709397Y-96320827D01*
X100709390Y-96320814D01*
X100621789Y-96189711D01*
X100621786Y-96189707D01*
X100510292Y-96078213D01*
X100510288Y-96078210D01*
X100379185Y-95990609D01*
X100379172Y-95990602D01*
X100233501Y-95930264D01*
X100233489Y-95930261D01*
X100078845Y-95899500D01*
X100078842Y-95899500D01*
X99921158Y-95899500D01*
X99921155Y-95899500D01*
X99766510Y-95930261D01*
X99766498Y-95930264D01*
X99620827Y-95990602D01*
X99620811Y-95990611D01*
X99567058Y-96026527D01*
X99500380Y-96047404D01*
X99433001Y-96028918D01*
X99386311Y-95976939D01*
X99375136Y-95907969D01*
X99376547Y-95899257D01*
X99400500Y-95778842D01*
X99400500Y-95621158D01*
X99400500Y-95621155D01*
X99400499Y-95621153D01*
X99369738Y-95466510D01*
X99369737Y-95466503D01*
X99369735Y-95466498D01*
X99309397Y-95320827D01*
X99309390Y-95320814D01*
X99221789Y-95189711D01*
X99221786Y-95189707D01*
X99110292Y-95078213D01*
X99110288Y-95078210D01*
X98979185Y-94990609D01*
X98979172Y-94990602D01*
X98833501Y-94930264D01*
X98833489Y-94930261D01*
X98678845Y-94899500D01*
X98678842Y-94899500D01*
X98521158Y-94899500D01*
X98521155Y-94899500D01*
X98366510Y-94930261D01*
X98366498Y-94930264D01*
X98220827Y-94990602D01*
X98220814Y-94990609D01*
X98089711Y-95078210D01*
X98089707Y-95078213D01*
X97978213Y-95189707D01*
X97978210Y-95189711D01*
X97890609Y-95320814D01*
X97890602Y-95320827D01*
X97830264Y-95466498D01*
X97830261Y-95466510D01*
X97799500Y-95621153D01*
X45400500Y-95621153D01*
X45400500Y-92568872D01*
X47699500Y-92568872D01*
X47699500Y-92831127D01*
X47720436Y-92990140D01*
X47733730Y-93091116D01*
X47795661Y-93322246D01*
X47801602Y-93344418D01*
X47801605Y-93344428D01*
X47901953Y-93586690D01*
X47901958Y-93586700D01*
X48033075Y-93813803D01*
X48192718Y-94021851D01*
X48192726Y-94021860D01*
X48378140Y-94207274D01*
X48378148Y-94207281D01*
X48378149Y-94207282D01*
X48406596Y-94229110D01*
X48586196Y-94366924D01*
X48813299Y-94498041D01*
X48813309Y-94498046D01*
X49055571Y-94598394D01*
X49055581Y-94598398D01*
X49308884Y-94666270D01*
X49568880Y-94700500D01*
X49568887Y-94700500D01*
X49831113Y-94700500D01*
X49831120Y-94700500D01*
X50091116Y-94666270D01*
X50344419Y-94598398D01*
X50586697Y-94498043D01*
X50813803Y-94366924D01*
X51021851Y-94207282D01*
X51021855Y-94207277D01*
X51021860Y-94207274D01*
X51207274Y-94021860D01*
X51207277Y-94021855D01*
X51207282Y-94021851D01*
X51366924Y-93813803D01*
X51498043Y-93586697D01*
X51598398Y-93344419D01*
X51666270Y-93091116D01*
X51700500Y-92831120D01*
X51700500Y-92568880D01*
X51700499Y-92568872D01*
X86299500Y-92568872D01*
X86299500Y-92831127D01*
X86320436Y-92990140D01*
X86333730Y-93091116D01*
X86395661Y-93322246D01*
X86401602Y-93344418D01*
X86401605Y-93344428D01*
X86501953Y-93586690D01*
X86501958Y-93586700D01*
X86633075Y-93813803D01*
X86792718Y-94021851D01*
X86792726Y-94021860D01*
X86978140Y-94207274D01*
X86978148Y-94207281D01*
X86978149Y-94207282D01*
X87006596Y-94229110D01*
X87186196Y-94366924D01*
X87413299Y-94498041D01*
X87413309Y-94498046D01*
X87655571Y-94598394D01*
X87655581Y-94598398D01*
X87908884Y-94666270D01*
X88168880Y-94700500D01*
X88168887Y-94700500D01*
X88431113Y-94700500D01*
X88431120Y-94700500D01*
X88691116Y-94666270D01*
X88944419Y-94598398D01*
X89186697Y-94498043D01*
X89413803Y-94366924D01*
X89621851Y-94207282D01*
X89621855Y-94207277D01*
X89621860Y-94207274D01*
X89807274Y-94021860D01*
X89807277Y-94021855D01*
X89807282Y-94021851D01*
X89966924Y-93813803D01*
X90098043Y-93586697D01*
X90198398Y-93344419D01*
X90246593Y-93164553D01*
X124446900Y-93164553D01*
X124446900Y-93322246D01*
X124477661Y-93476889D01*
X124477664Y-93476901D01*
X124538002Y-93622572D01*
X124538009Y-93622585D01*
X124625610Y-93753688D01*
X124625613Y-93753692D01*
X124649940Y-93778019D01*
X124683425Y-93839342D01*
X124678441Y-93909034D01*
X124654075Y-93946953D01*
X124654872Y-93947607D01*
X124651008Y-93952314D01*
X124563409Y-94083414D01*
X124563402Y-94083427D01*
X124503064Y-94229098D01*
X124503061Y-94229110D01*
X124472300Y-94383753D01*
X124472300Y-94541446D01*
X124503061Y-94696089D01*
X124503064Y-94696101D01*
X124563402Y-94841772D01*
X124563409Y-94841785D01*
X124651010Y-94972888D01*
X124651013Y-94972892D01*
X124762507Y-95084386D01*
X124762511Y-95084389D01*
X124893614Y-95171990D01*
X124893627Y-95171997D01*
X125039298Y-95232335D01*
X125039303Y-95232337D01*
X125193953Y-95263099D01*
X125193956Y-95263100D01*
X125193958Y-95263100D01*
X125351644Y-95263100D01*
X125351645Y-95263099D01*
X125506297Y-95232337D01*
X125651979Y-95171994D01*
X125783089Y-95084389D01*
X125894589Y-94972889D01*
X125982194Y-94841779D01*
X126042537Y-94696097D01*
X126073300Y-94541442D01*
X126073300Y-94383758D01*
X126073300Y-94383755D01*
X126073299Y-94383753D01*
X126042538Y-94229110D01*
X126042537Y-94229103D01*
X126033495Y-94207274D01*
X125982197Y-94083427D01*
X125982190Y-94083414D01*
X125894589Y-93952311D01*
X125894586Y-93952307D01*
X125870259Y-93927980D01*
X125836774Y-93866657D01*
X125841758Y-93796965D01*
X125866128Y-93759050D01*
X125865328Y-93758393D01*
X125869190Y-93753688D01*
X125956794Y-93622579D01*
X126017137Y-93476897D01*
X126047900Y-93322242D01*
X126047900Y-93164558D01*
X126047900Y-93164555D01*
X126047899Y-93164553D01*
X126040304Y-93126370D01*
X126017137Y-93009903D01*
X126008951Y-92990140D01*
X125956797Y-92864227D01*
X125956790Y-92864214D01*
X125869189Y-92733111D01*
X125869186Y-92733107D01*
X125757692Y-92621613D01*
X125757688Y-92621610D01*
X125626585Y-92534009D01*
X125626572Y-92534002D01*
X125480901Y-92473664D01*
X125480889Y-92473661D01*
X125326245Y-92442900D01*
X125326242Y-92442900D01*
X125168558Y-92442900D01*
X125168555Y-92442900D01*
X125013910Y-92473661D01*
X125013898Y-92473664D01*
X124868227Y-92534002D01*
X124868214Y-92534009D01*
X124737111Y-92621610D01*
X124737107Y-92621613D01*
X124625613Y-92733107D01*
X124625610Y-92733111D01*
X124538009Y-92864214D01*
X124538002Y-92864227D01*
X124477664Y-93009898D01*
X124477661Y-93009910D01*
X124446900Y-93164553D01*
X90246593Y-93164553D01*
X90266270Y-93091116D01*
X90300500Y-92831120D01*
X90300500Y-92568880D01*
X90266270Y-92308884D01*
X90198398Y-92055581D01*
X90198394Y-92055571D01*
X90098046Y-91813309D01*
X90098041Y-91813299D01*
X89966924Y-91586196D01*
X89807281Y-91378148D01*
X89807274Y-91378140D01*
X89621860Y-91192726D01*
X89621851Y-91192718D01*
X89413803Y-91033075D01*
X89186700Y-90901958D01*
X89186690Y-90901953D01*
X88944428Y-90801605D01*
X88944421Y-90801603D01*
X88944419Y-90801602D01*
X88691116Y-90733730D01*
X88633339Y-90726123D01*
X88431127Y-90699500D01*
X88431120Y-90699500D01*
X88168880Y-90699500D01*
X88168872Y-90699500D01*
X87937772Y-90729926D01*
X87908884Y-90733730D01*
X87655581Y-90801602D01*
X87655571Y-90801605D01*
X87413309Y-90901953D01*
X87413299Y-90901958D01*
X87186196Y-91033075D01*
X86978148Y-91192718D01*
X86792718Y-91378148D01*
X86633075Y-91586196D01*
X86501958Y-91813299D01*
X86501953Y-91813309D01*
X86401605Y-92055571D01*
X86401602Y-92055581D01*
X86341690Y-92279179D01*
X86333730Y-92308885D01*
X86299500Y-92568872D01*
X51700499Y-92568872D01*
X51666270Y-92308884D01*
X51598398Y-92055581D01*
X51598394Y-92055571D01*
X51498046Y-91813309D01*
X51498041Y-91813299D01*
X51366924Y-91586196D01*
X51207281Y-91378148D01*
X51207274Y-91378140D01*
X51021860Y-91192726D01*
X51021851Y-91192718D01*
X50813803Y-91033075D01*
X50586700Y-90901958D01*
X50586690Y-90901953D01*
X50344428Y-90801605D01*
X50344421Y-90801603D01*
X50344419Y-90801602D01*
X50091116Y-90733730D01*
X50033339Y-90726123D01*
X49831127Y-90699500D01*
X49831120Y-90699500D01*
X49568880Y-90699500D01*
X49568872Y-90699500D01*
X49337772Y-90729926D01*
X49308884Y-90733730D01*
X49055581Y-90801602D01*
X49055571Y-90801605D01*
X48813309Y-90901953D01*
X48813299Y-90901958D01*
X48586196Y-91033075D01*
X48378148Y-91192718D01*
X48192718Y-91378148D01*
X48033075Y-91586196D01*
X47901958Y-91813299D01*
X47901953Y-91813309D01*
X47801605Y-92055571D01*
X47801602Y-92055581D01*
X47741690Y-92279179D01*
X47733730Y-92308885D01*
X47699500Y-92568872D01*
X45400500Y-92568872D01*
X45400500Y-90655195D01*
X45411962Y-90603126D01*
X45681241Y-90021153D01*
X106299500Y-90021153D01*
X106299500Y-90178846D01*
X106330261Y-90333489D01*
X106330264Y-90333501D01*
X106379574Y-90452548D01*
X106387043Y-90522018D01*
X106379574Y-90547452D01*
X106330264Y-90666498D01*
X106330261Y-90666510D01*
X106299500Y-90821153D01*
X106299500Y-90978846D01*
X106330261Y-91133489D01*
X106330264Y-91133501D01*
X106390602Y-91279172D01*
X106390609Y-91279185D01*
X106425304Y-91331109D01*
X106446182Y-91397786D01*
X106427698Y-91465167D01*
X106425304Y-91468891D01*
X106390609Y-91520814D01*
X106390602Y-91520827D01*
X106330264Y-91666498D01*
X106330261Y-91666510D01*
X106299500Y-91821153D01*
X106299500Y-91978846D01*
X106330261Y-92133489D01*
X106330264Y-92133501D01*
X106390602Y-92279172D01*
X106390609Y-92279185D01*
X106478210Y-92410288D01*
X106478213Y-92410292D01*
X106589707Y-92521786D01*
X106589711Y-92521789D01*
X106720814Y-92609390D01*
X106720827Y-92609397D01*
X106866498Y-92669735D01*
X106866503Y-92669737D01*
X107021153Y-92700499D01*
X107021156Y-92700500D01*
X107021158Y-92700500D01*
X107178844Y-92700500D01*
X107178845Y-92700499D01*
X107333497Y-92669737D01*
X107446166Y-92623067D01*
X107479172Y-92609397D01*
X107479172Y-92609396D01*
X107479179Y-92609394D01*
X107610289Y-92521789D01*
X107721789Y-92410289D01*
X107809394Y-92279179D01*
X107869737Y-92133497D01*
X107900500Y-91978842D01*
X107900500Y-91821158D01*
X107900500Y-91821155D01*
X107900499Y-91821153D01*
X107869738Y-91666510D01*
X107869737Y-91666503D01*
X107869735Y-91666498D01*
X107809396Y-91520825D01*
X107809394Y-91520822D01*
X107809394Y-91520821D01*
X107774694Y-91468889D01*
X107753816Y-91402215D01*
X107772300Y-91334835D01*
X107774676Y-91331136D01*
X107809394Y-91279179D01*
X107869737Y-91133497D01*
X107900500Y-90978842D01*
X107900500Y-90821158D01*
X107900500Y-90821155D01*
X107900499Y-90821153D01*
X107883109Y-90733730D01*
X107869737Y-90666503D01*
X107820425Y-90547452D01*
X107812956Y-90477983D01*
X107820425Y-90452548D01*
X107869735Y-90333501D01*
X107869737Y-90333497D01*
X107900500Y-90178842D01*
X107900500Y-90021158D01*
X107900500Y-90021155D01*
X107900499Y-90021153D01*
X107869738Y-89866510D01*
X107869737Y-89866503D01*
X107869735Y-89866498D01*
X107809397Y-89720827D01*
X107809390Y-89720814D01*
X107721789Y-89589711D01*
X107721786Y-89589707D01*
X107610292Y-89478213D01*
X107610288Y-89478210D01*
X107479185Y-89390609D01*
X107479172Y-89390602D01*
X107333501Y-89330264D01*
X107333489Y-89330261D01*
X107178845Y-89299500D01*
X107178842Y-89299500D01*
X107021158Y-89299500D01*
X107021155Y-89299500D01*
X106866510Y-89330261D01*
X106866498Y-89330264D01*
X106720827Y-89390602D01*
X106720814Y-89390609D01*
X106589711Y-89478210D01*
X106589707Y-89478213D01*
X106478213Y-89589707D01*
X106478210Y-89589711D01*
X106390609Y-89720814D01*
X106390602Y-89720827D01*
X106330264Y-89866498D01*
X106330261Y-89866510D01*
X106299500Y-90021153D01*
X45681241Y-90021153D01*
X46181338Y-88940330D01*
X46227353Y-88887757D01*
X46240021Y-88880708D01*
X48040587Y-88012798D01*
X48094429Y-88000500D01*
X93407800Y-88000500D01*
X93474839Y-88020185D01*
G37*
G04 #@! TD.AperFunction*
M02*
