G04 #@! TF.GenerationSoftware,KiCad,Pcbnew,9.0.4*
G04 #@! TF.CreationDate,2025-09-21T22:22:09+02:00*
G04 #@! TF.ProjectId,modbus-to-x,6d6f6462-7573-42d7-946f-2d782e6b6963,rev?*
G04 #@! TF.SameCoordinates,Original*
G04 #@! TF.FileFunction,Soldermask,Top*
G04 #@! TF.FilePolarity,Negative*
%FSLAX46Y46*%
G04 Gerber Fmt 4.6, Leading zero omitted, Abs format (unit mm)*
G04 Created by KiCad (PCBNEW 9.0.4) date 2025-09-21 22:22:09*
%MOMM*%
%LPD*%
G01*
G04 APERTURE LIST*
G04 Aperture macros list*
%AMRoundRect*
0 Rectangle with rounded corners*
0 $1 Rounding radius*
0 $2 $3 $4 $5 $6 $7 $8 $9 X,Y pos of 4 corners*
0 Add a 4 corners polygon primitive as box body*
4,1,4,$2,$3,$4,$5,$6,$7,$8,$9,$2,$3,0*
0 Add four circle primitives for the rounded corners*
1,1,$1+$1,$2,$3*
1,1,$1+$1,$4,$5*
1,1,$1+$1,$6,$7*
1,1,$1+$1,$8,$9*
0 Add four rect primitives between the rounded corners*
20,1,$1+$1,$2,$3,$4,$5,0*
20,1,$1+$1,$4,$5,$6,$7,0*
20,1,$1+$1,$6,$7,$8,$9,0*
20,1,$1+$1,$8,$9,$2,$3,0*%
G04 Aperture macros list end*
%ADD10C,0.600000*%
%ADD11R,3.800000X3.800000*%
%ADD12R,1.500000X0.900000*%
%ADD13R,0.900000X1.500000*%
%ADD14C,1.700000*%
%ADD15R,1.700000X1.700000*%
%ADD16RoundRect,0.102000X1.900000X1.015000X-1.900000X1.015000X-1.900000X-1.015000X1.900000X-1.015000X0*%
%ADD17RoundRect,0.155000X-0.212500X-0.155000X0.212500X-0.155000X0.212500X0.155000X-0.212500X0.155000X0*%
%ADD18RoundRect,0.250000X0.650000X-0.412500X0.650000X0.412500X-0.650000X0.412500X-0.650000X-0.412500X0*%
%ADD19RoundRect,0.237500X-0.250000X-0.237500X0.250000X-0.237500X0.250000X0.237500X-0.250000X0.237500X0*%
%ADD20RoundRect,0.250000X0.337500X0.475000X-0.337500X0.475000X-0.337500X-0.475000X0.337500X-0.475000X0*%
%ADD21RoundRect,0.102000X0.500000X-0.250000X0.500000X0.250000X-0.500000X0.250000X-0.500000X-0.250000X0*%
%ADD22RoundRect,0.250000X0.350000X0.450000X-0.350000X0.450000X-0.350000X-0.450000X0.350000X-0.450000X0*%
%ADD23RoundRect,0.250000X-1.050000X-0.550000X1.050000X-0.550000X1.050000X0.550000X-1.050000X0.550000X0*%
%ADD24R,0.660400X1.346200*%
%ADD25RoundRect,0.237500X0.300000X0.237500X-0.300000X0.237500X-0.300000X-0.237500X0.300000X-0.237500X0*%
%ADD26RoundRect,0.250000X-0.650000X0.412500X-0.650000X-0.412500X0.650000X-0.412500X0.650000X0.412500X0*%
%ADD27R,0.500000X1.000000*%
%ADD28RoundRect,0.160000X0.160000X-0.222500X0.160000X0.222500X-0.160000X0.222500X-0.160000X-0.222500X0*%
%ADD29RoundRect,0.250000X-0.350000X-0.450000X0.350000X-0.450000X0.350000X0.450000X-0.350000X0.450000X0*%
%ADD30RoundRect,0.250000X-0.337500X-0.475000X0.337500X-0.475000X0.337500X0.475000X-0.337500X0.475000X0*%
%ADD31RoundRect,0.250000X0.412500X0.650000X-0.412500X0.650000X-0.412500X-0.650000X0.412500X-0.650000X0*%
%ADD32C,2.400000*%
%ADD33RoundRect,0.250001X-0.949999X-0.949999X0.949999X-0.949999X0.949999X0.949999X-0.949999X0.949999X0*%
%ADD34RoundRect,0.250000X-0.450000X0.350000X-0.450000X-0.350000X0.450000X-0.350000X0.450000X0.350000X0*%
%ADD35RoundRect,0.250000X-0.475000X0.337500X-0.475000X-0.337500X0.475000X-0.337500X0.475000X0.337500X0*%
%ADD36RoundRect,0.250000X-0.650000X1.500000X-0.650000X-1.500000X0.650000X-1.500000X0.650000X1.500000X0*%
%ADD37RoundRect,0.250000X-0.625000X0.400000X-0.625000X-0.400000X0.625000X-0.400000X0.625000X0.400000X0*%
%ADD38RoundRect,0.250000X-0.412500X-0.650000X0.412500X-0.650000X0.412500X0.650000X-0.412500X0.650000X0*%
%ADD39RoundRect,0.150000X0.825000X0.150000X-0.825000X0.150000X-0.825000X-0.150000X0.825000X-0.150000X0*%
%ADD40RoundRect,0.250000X0.450000X-0.350000X0.450000X0.350000X-0.450000X0.350000X-0.450000X-0.350000X0*%
%ADD41RoundRect,0.099250X0.297750X-0.627750X0.297750X0.627750X-0.297750X0.627750X-0.297750X-0.627750X0*%
%ADD42R,2.209800X8.001000*%
%ADD43RoundRect,0.102000X0.370000X0.850000X-0.370000X0.850000X-0.370000X-0.850000X0.370000X-0.850000X0*%
G04 APERTURE END LIST*
D10*
X117431800Y-97825400D03*
X117431800Y-96425400D03*
X116731800Y-98525400D03*
X116731800Y-97125400D03*
X116731800Y-95725400D03*
D11*
X116031800Y-97125400D03*
D10*
X116006800Y-97825400D03*
X116006800Y-96425400D03*
X115331800Y-98525400D03*
X115331800Y-97125400D03*
X115331800Y-95725400D03*
X114631800Y-97825400D03*
X114631800Y-96425400D03*
D12*
X126281800Y-89405400D03*
X126281800Y-90675400D03*
X126281800Y-91945400D03*
X126281800Y-93215400D03*
X126281800Y-94485400D03*
X126281800Y-95755400D03*
X126281800Y-97025400D03*
X126281800Y-98295400D03*
X126281800Y-99565400D03*
X126281800Y-100835400D03*
X126281800Y-102105400D03*
X126281800Y-103375400D03*
X126281800Y-104645400D03*
X126281800Y-105915400D03*
D13*
X123251800Y-107165400D03*
X121981800Y-107165400D03*
X120711800Y-107165400D03*
X119441800Y-107165400D03*
X118171800Y-107165400D03*
X116901800Y-107165400D03*
X115631800Y-107165400D03*
X114361800Y-107165400D03*
X113091800Y-107165400D03*
X111821800Y-107165400D03*
D12*
X108781800Y-105915400D03*
X108781800Y-104645400D03*
X108781800Y-103375400D03*
X108781800Y-102105400D03*
X108781800Y-100835400D03*
X108781800Y-99565400D03*
X108781800Y-98295400D03*
X108781800Y-97025400D03*
X108781800Y-95755400D03*
X108781800Y-94485400D03*
X108781800Y-93215400D03*
X108781800Y-91945400D03*
X108781800Y-90675400D03*
X108781800Y-89405400D03*
D14*
X130429000Y-100711000D03*
X130429000Y-103251000D03*
X130429000Y-105791000D03*
D15*
X130429000Y-108331000D03*
D16*
X125087200Y-118368200D03*
D17*
X104525723Y-98553406D03*
X105660723Y-98553406D03*
X104513858Y-99579651D03*
X105648858Y-99579651D03*
D18*
X91363800Y-96837900D03*
X91363800Y-93712900D03*
D19*
X100603500Y-117136300D03*
X102428500Y-117136300D03*
D20*
X93137900Y-113411000D03*
X91062900Y-113411000D03*
D21*
X107000000Y-99550000D03*
X107000000Y-98450000D03*
D22*
X130921000Y-95123000D03*
X128921000Y-95123000D03*
D23*
X115220555Y-122968067D03*
X118820555Y-122968067D03*
D24*
X82677000Y-98577400D03*
X89230200Y-98577400D03*
D25*
X86281600Y-112790700D03*
X84556600Y-112790700D03*
D26*
X93853000Y-90537900D03*
X93853000Y-93662900D03*
D27*
X104551000Y-105359200D03*
X103251000Y-105359200D03*
X103901000Y-107359200D03*
D18*
X88722200Y-107988500D03*
X88722200Y-104863500D03*
D28*
X125505650Y-123570500D03*
X125505650Y-122425500D03*
D19*
X103499100Y-113847000D03*
X105324100Y-113847000D03*
D29*
X84471000Y-106324400D03*
X86471000Y-106324400D03*
D28*
X121525650Y-123570500D03*
X121525650Y-122425500D03*
X127495650Y-123570500D03*
X127495650Y-122425500D03*
D30*
X91062900Y-115747800D03*
X93137900Y-115747800D03*
D19*
X100603500Y-118774600D03*
X102428500Y-118774600D03*
D29*
X110642400Y-113690400D03*
X112642400Y-113690400D03*
D25*
X86281600Y-115910900D03*
X84556600Y-115910900D03*
D31*
X105462500Y-96700000D03*
X102337500Y-96700000D03*
D22*
X102462600Y-109137200D03*
X100462600Y-109137200D03*
D19*
X100603500Y-115498000D03*
X102428500Y-115498000D03*
D32*
X110413800Y-123850400D03*
D33*
X99913800Y-123850400D03*
D32*
X103413800Y-123850400D03*
X106913800Y-123850400D03*
D34*
X106629200Y-107229400D03*
X106629200Y-109229400D03*
D35*
X106553000Y-89462700D03*
X106553000Y-91537700D03*
D29*
X117592600Y-109601000D03*
X119592600Y-109601000D03*
D36*
X94803749Y-122000452D03*
X94803749Y-127000452D03*
D37*
X107527600Y-113664400D03*
X107527600Y-116764400D03*
D38*
X114956700Y-119329200D03*
X118081700Y-119329200D03*
D39*
X119877200Y-117285700D03*
X119877200Y-116015700D03*
X119877200Y-114745700D03*
X119877200Y-113475700D03*
X114927200Y-113475700D03*
X114927200Y-114745700D03*
X114927200Y-116015700D03*
X114927200Y-117285700D03*
D40*
X86334600Y-110245400D03*
X86334600Y-108245400D03*
D29*
X104700000Y-94600000D03*
X106700000Y-94600000D03*
X110642400Y-116890800D03*
X112642400Y-116890800D03*
D28*
X123515650Y-123570500D03*
X123515650Y-122425500D03*
D41*
X91074200Y-110192906D03*
X92024200Y-110192906D03*
X92974200Y-110192906D03*
X92974200Y-107682906D03*
X92024200Y-107682906D03*
X91074200Y-107682906D03*
D26*
X104190800Y-89521900D03*
X104190800Y-92646900D03*
D25*
X86281600Y-114350800D03*
X84556600Y-114350800D03*
D42*
X84162900Y-121412000D03*
X89877900Y-121412000D03*
D27*
X103251000Y-103126800D03*
X104551000Y-103126800D03*
X103901000Y-101126800D03*
D43*
X93091000Y-99263200D03*
X94361000Y-101963200D03*
X95631000Y-99263200D03*
X96901000Y-101963200D03*
X98171000Y-99263200D03*
X99441000Y-101963200D03*
D24*
X82677000Y-91948000D03*
X89230200Y-91948000D03*
D16*
X124079000Y-113588800D03*
D22*
X130921000Y-97409000D03*
X128921000Y-97409000D03*
M02*
