<svg id="svg" version="1.1" xmlns="http://www.w3.org/2000/svg" xmlns:xlink="http://www.w3.org/1999/xlink" width="400" height="400" viewBox="0, 0, 400,400"><g id="svgg"><path id="path0" d="M250.781 103.938 C 250.244 104.092,248.838 104.237,247.656 104.259 C 238.745 104.426,226.155 109.529,219.238 115.779 C 218.389 116.546,217.552 117.045,217.378 116.888 C 217.204 116.730,217.177 116.803,217.318 117.049 C 217.459 117.295,217.320 117.594,217.010 117.712 C 214.619 118.630,214.900 122.262,217.554 124.744 C 220.792 127.773,221.344 127.708,226.690 123.674 C 231.622 119.953,239.418 116.246,240.677 117.024 C 240.951 117.193,241.033 117.140,240.880 116.893 C 240.473 116.235,245.769 115.463,250.586 115.477 C 255.018 115.490,259.375 116.169,259.375 116.848 C 259.375 117.060,259.555 117.122,259.775 116.986 C 261.054 116.196,269.626 120.229,274.609 123.966 C 279.487 127.624,280.621 127.627,283.969 123.995 C 287.106 120.591,285.792 118.376,277.249 112.671 C 272.162 109.273,263.842 105.469,261.499 105.469 C 261.165 105.469,260.973 105.337,261.072 105.176 C 261.172 105.015,260.699 104.859,260.021 104.829 C 256.868 104.691,252.129 104.157,251.953 103.920 C 251.846 103.775,251.318 103.783,250.781 103.938 M257.957 105.387 C 258.062 105.557,257.545 105.626,256.809 105.540 C 256.072 105.454,255.469 105.315,255.469 105.231 C 255.469 104.937,257.768 105.081,257.957 105.387 M85.609 120.547 C 84.155 121.566,83.930 122.879,83.966 130.143 L 84.000 137.050 78.621 137.021 C 67.366 136.962,65.512 138.769,65.302 150.000 L 65.175 156.836 59.083 156.719 C 51.225 156.567,49.609 157.206,49.609 160.469 C 49.609 163.788,50.965 164.202,61.426 164.084 L 65.234 164.041 65.234 169.130 L 65.234 174.219 58.381 174.219 C 51.625 174.219,51.513 174.232,50.568 175.178 C 49.183 176.563,49.259 178.616,50.751 180.108 L 51.893 181.250 58.542 181.250 L 65.191 181.250 65.310 192.676 L 65.430 204.102 66.505 205.932 C 68.679 209.629,71.182 210.594,78.634 210.607 L 84.025 210.616 83.951 217.147 C 83.856 225.480,84.606 227.344,88.052 227.344 C 90.851 227.344,91.385 225.695,91.430 216.912 L 91.463 210.582 96.317 210.642 L 101.172 210.703 101.172 218.012 L 101.172 225.321 102.374 226.332 C 103.883 227.603,105.486 227.627,106.912 226.402 L 108.008 225.460 108.129 218.042 L 108.250 210.625 112.899 210.635 L 117.549 210.645 117.661 214.014 C 117.723 215.867,117.686 219.025,117.578 221.032 C 117.393 224.495,117.433 224.740,118.359 225.843 C 119.786 227.542,122.220 227.815,123.603 226.432 L 124.609 225.426 124.609 217.965 L 124.609 210.504 130.176 210.571 C 137.656 210.662,139.696 210.065,142.300 207.022 C 144.324 204.657,144.531 203.229,144.531 191.624 L 144.531 181.250 151.270 181.249 C 159.793 181.247,161.681 180.357,160.780 176.769 C 160.187 174.408,159.513 174.219,151.684 174.219 L 144.531 174.219 144.531 169.133 L 144.531 164.046 150.919 164.100 C 158.825 164.167,160.938 163.376,160.938 160.352 C 160.937 157.306,159.191 156.641,151.191 156.641 L 144.531 156.641 144.531 150.644 C 144.531 144.341,144.254 142.818,142.736 140.771 C 142.238 140.099,141.911 139.440,142.009 139.306 C 142.107 139.172,142.076 139.145,141.940 139.245 C 141.804 139.345,141.253 139.082,140.717 138.660 C 139.125 137.408,137.032 137.074,130.653 137.055 L 124.609 137.037 124.609 129.681 C 124.609 122.338,124.608 122.324,123.598 121.124 C 122.220 119.485,120.322 119.462,118.720 121.064 L 117.578 122.206 117.578 129.653 L 117.578 137.101 112.921 137.022 L 108.265 136.943 108.279 130.093 C 108.296 121.350,107.729 119.922,104.238 119.922 C 101.445 119.922,101.172 120.776,101.172 129.529 L 101.172 137.078 95.996 137.066 C 91.587 137.056,90.925 136.977,91.527 136.534 C 91.961 136.214,92.078 135.916,91.829 135.762 C 91.580 135.608,91.436 133.593,91.457 130.549 C 91.514 122.175,91.533 122.333,90.264 121.064 C 88.950 119.750,87.049 119.539,85.609 120.547 M89.613 121.037 C 89.727 121.221,89.298 121.353,88.661 121.330 C 88.023 121.308,87.501 121.157,87.501 120.996 C 87.500 120.590,89.360 120.626,89.613 121.037 M104.691 120.993 C 103.941 121.083,103.203 121.358,103.052 121.602 C 102.901 121.847,102.641 121.911,102.474 121.745 C 101.982 121.253,103.214 120.711,104.688 120.772 L 106.055 120.828 104.691 120.993 M123.078 121.387 C 123.518 121.968,123.513 121.997,123.048 121.582 C 122.746 121.313,122.096 121.094,121.602 121.094 C 121.107 121.094,120.689 121.313,120.672 121.582 C 120.649 121.945,120.593 121.951,120.452 121.604 C 120.347 121.347,119.981 121.246,119.637 121.377 C 119.222 121.537,119.107 121.464,119.295 121.160 C 119.744 120.434,122.481 120.598,123.078 121.387 M243.007 125.007 C 241.417 125.431,239.190 126.202,238.057 126.721 C 236.924 127.240,235.896 127.563,235.772 127.439 C 235.648 127.315,235.547 127.389,235.547 127.603 C 235.547 127.818,234.672 128.560,233.603 129.253 C 232.534 129.946,230.912 131.209,229.999 132.061 C 228.924 133.063,228.128 133.519,227.743 133.353 C 213.434 127.188,196.799 136.082,193.599 151.607 C 193.127 153.900,193.004 154.100,192.080 154.088 C 191.526 154.081,191.159 154.213,191.263 154.381 C 191.367 154.550,191.009 154.688,190.467 154.688 C 189.050 154.688,185.625 156.046,183.379 157.499 C 182.316 158.187,181.270 158.700,181.055 158.639 C 180.840 158.578,180.768 158.632,180.895 158.759 C 181.021 158.886,180.433 159.736,179.587 160.647 C 171.709 169.139,174.120 183.581,184.487 189.984 C 189.881 193.316,188.327 193.138,214.063 193.370 C 226.631 193.483,236.684 193.615,236.403 193.663 C 236.121 193.711,235.987 193.905,236.104 194.094 C 236.376 194.534,234.044 201.324,233.561 201.498 C 233.361 201.570,233.285 201.770,233.391 201.942 C 233.498 202.114,232.532 205.127,231.245 208.639 C 228.173 217.025,228.205 218.579,231.459 219.004 C 233.774 219.307,235.025 218.650,236.016 216.611 C 236.488 215.639,237.010 214.844,237.175 214.844 C 237.340 214.844,237.374 214.580,237.251 214.258 C 237.127 213.936,237.231 213.672,237.481 213.672 C 237.732 213.672,237.836 213.509,237.713 213.310 C 237.590 213.110,237.859 212.012,238.311 210.868 C 238.763 209.725,240.269 205.640,241.657 201.792 C 243.045 197.943,244.354 194.472,244.565 194.077 C 244.930 193.396,245.910 193.359,263.783 193.353 C 286.547 193.344,288.650 193.021,294.130 188.681 C 294.935 188.043,295.706 187.604,295.844 187.706 C 295.981 187.807,296.011 187.779,295.910 187.642 C 295.809 187.505,296.501 186.532,297.447 185.480 C 303.236 179.042,304.660 169.460,301.013 161.493 C 300.480 160.328,300.121 159.375,300.217 159.375 C 300.312 159.375,300.083 159.050,299.707 158.653 C 299.331 158.256,298.334 157.039,297.492 155.948 C 293.875 151.265,287.892 148.185,281.498 147.715 L 278.035 147.461 277.186 144.531 C 275.754 139.595,270.697 131.650,269.323 132.177 C 268.968 132.314,268.853 132.120,268.960 131.565 C 269.046 131.119,269.014 130.856,268.889 130.981 C 268.764 131.106,267.758 130.527,266.655 129.694 C 260.253 124.864,250.668 122.964,243.007 125.007 M220.636 125.790 C 221.474 126.042,221.521 126.111,220.875 126.138 C 220.433 126.157,219.730 125.895,219.313 125.557 C 218.896 125.219,218.788 125.062,219.074 125.208 C 219.359 125.355,220.062 125.616,220.636 125.790 M260.938 127.148 C 261.475 127.455,261.738 127.707,261.523 127.707 C 261.309 127.707,260.693 127.455,260.156 127.148 C 259.619 126.841,259.355 126.590,259.570 126.590 C 259.785 126.590,260.400 126.841,260.938 127.148 M287.296 149.648 C 287.506 149.853,287.066 149.815,286.319 149.562 C 284.570 148.971,284.231 148.638,285.742 148.996 C 286.387 149.149,287.086 149.442,287.296 149.648 M127.945 152.041 C 129.985 153.914,130.059 154.673,130.067 173.828 C 130.075 192.995,130.023 193.485,127.827 195.295 L 126.384 196.484 104.748 196.484 L 83.111 196.484 81.599 194.973 L 80.088 193.461 80.097 173.624 L 80.106 153.787 81.557 152.341 L 83.008 150.895 104.780 150.828 L 126.552 150.761 127.945 152.041 M79.192 161.035 C 79.110 161.948,79.043 161.201,79.043 159.375 C 79.043 157.549,79.110 156.802,79.192 157.715 C 79.275 158.628,79.275 160.122,79.192 161.035 M87.402 157.453 C 85.867 158.347,85.243 160.540,86.001 162.377 C 86.250 162.982,86.436 163.579,86.413 163.704 C 86.367 163.956,86.504 163.986,89.098 164.303 C 91.470 164.592,92.915 163.458,93.237 161.053 C 93.633 158.101,90.067 155.901,87.402 157.453 M159.151 158.016 C 160.290 158.878,159.732 158.978,158.398 158.152 C 157.754 157.753,157.490 157.431,157.813 157.436 C 158.135 157.442,158.737 157.703,159.151 158.016 M87.298 158.887 C 87.141 159.263,86.877 160.098,86.710 160.742 C 86.478 161.643,86.399 161.717,86.368 161.061 C 86.323 160.093,86.963 158.203,87.337 158.203 C 87.473 158.203,87.455 158.511,87.298 158.887 M160.156 160.524 C 160.156 161.156,160.010 161.763,159.831 161.874 C 159.652 161.984,159.505 161.468,159.505 160.725 C 159.505 159.983,159.652 159.375,159.831 159.375 C 160.010 159.375,160.156 159.892,160.156 160.524 M92.415 161.492 C 92.273 162.246,92.023 162.946,91.859 163.047 C 91.695 163.149,91.740 162.461,91.959 161.518 C 92.425 159.509,92.790 159.488,92.415 161.492 M62.891 163.042 C 63.428 163.109,61.143 163.188,57.813 163.217 C 54.482 163.246,51.964 163.138,52.215 162.979 C 52.635 162.711,60.628 162.759,62.891 163.042 M90.885 163.100 C 90.885 163.992,88.094 164.042,87.217 163.166 C 86.775 162.723,87.027 162.630,88.788 162.584 C 90.394 162.541,90.885 162.662,90.885 163.100 M156.055 162.891 C 156.210 163.142,155.002 163.255,152.660 163.208 L 149.023 163.136 152.344 162.891 C 154.170 162.756,155.698 162.613,155.739 162.573 C 155.780 162.533,155.922 162.676,156.055 162.891 M147.559 163.170 C 146.968 163.260,146.001 163.260,145.410 163.170 C 144.819 163.081,145.303 163.008,146.484 163.008 C 147.666 163.008,148.149 163.081,147.559 163.170 M62.630 165.061 C 62.630 165.768,63.757 165.653,63.903 164.932 C 63.959 164.658,63.912 164.621,63.800 164.850 C 63.660 165.136,63.445 165.141,63.113 164.866 C 62.766 164.578,62.630 164.633,62.630 165.061 M160.156 178.697 C 160.156 179.012,159.761 179.461,159.277 179.695 C 158.457 180.093,158.446 180.083,159.121 179.540 C 159.519 179.220,159.728 178.771,159.586 178.542 C 159.445 178.312,159.515 178.125,159.743 178.125 C 159.970 178.125,160.156 178.382,160.156 178.697 M87.623 183.167 C 85.545 184.461,85.035 186.159,86.104 188.225 C 87.237 190.417,89.947 190.829,91.879 189.102 C 95.250 186.091,91.445 180.785,87.623 183.167 M118.146 183.771 C 117.215 184.702,117.031 185.289,117.159 186.914 C 117.530 191.610,124.601 190.990,124.608 186.260 C 124.612 183.251,120.320 181.597,118.146 183.771 M119.922 183.703 C 119.385 183.971,118.638 184.803,118.262 185.552 C 117.736 186.602,117.579 186.725,117.579 186.088 C 117.578 185.114,119.365 183.201,120.268 183.209 C 120.668 183.213,120.542 183.393,119.922 183.703 M92.572 186.296 C 92.580 187.549,92.358 187.232,92.049 185.547 C 91.872 184.585,91.912 184.353,92.182 184.766 C 92.393 185.088,92.569 185.776,92.572 186.296 M87.393 188.256 C 87.656 188.676,88.434 189.081,89.147 189.170 L 90.430 189.328 89.228 189.391 C 88.397 189.434,87.744 189.152,87.109 188.477 C 86.605 187.939,86.356 187.500,86.557 187.500 C 86.757 187.500,87.134 187.840,87.393 188.256 M118.750 188.044 C 118.750 188.343,119.014 188.689,119.336 188.813 C 119.658 188.937,119.925 188.824,119.928 188.562 C 119.932 188.229,120.020 188.215,120.221 188.516 C 120.379 188.752,120.771 189.046,121.094 189.168 C 121.455 189.306,121.302 189.403,120.692 189.422 C 120.149 189.439,119.314 189.179,118.837 188.845 C 117.935 188.213,117.682 187.500,118.359 187.500 C 118.574 187.500,118.750 187.745,118.750 188.044 M79.186 190.918 C 79.097 191.509,79.023 191.025,79.023 189.844 C 79.023 188.662,79.097 188.179,79.186 188.770 C 79.276 189.360,79.276 190.327,79.186 190.918 M113.175 209.660 C 112.364 209.745,111.134 209.743,110.441 209.657 C 109.747 209.571,110.410 209.501,111.914 209.503 C 113.418 209.505,113.985 209.576,113.175 209.660 M161.230 212.792 L 155.859 212.913 155.859 230.480 L 155.859 248.047 159.375 248.047 L 162.891 248.047 162.905 245.605 C 162.913 244.263,162.920 239.253,162.921 234.473 C 162.922 227.940,163.040 225.780,163.395 225.775 C 163.692 225.772,163.722 225.663,163.475 225.482 C 163.085 225.197,162.675 223.047,163.010 223.047 C 163.107 223.047,163.585 224.146,164.072 225.488 C 164.559 226.831,165.189 228.457,165.472 229.102 C 165.755 229.746,166.542 231.768,167.221 233.594 C 167.900 235.420,168.855 237.969,169.343 239.258 C 171.899 246.011,172.594 247.979,172.468 248.104 C 172.392 248.180,173.363 248.242,174.625 248.242 L 176.921 248.242 178.295 244.922 C 179.050 243.096,180.013 240.635,180.433 239.453 C 180.853 238.271,182.013 235.195,183.010 232.617 C 184.008 230.039,185.016 227.358,185.251 226.660 C 185.486 225.962,185.835 225.391,186.026 225.391 C 186.218 225.391,186.275 225.231,186.155 225.035 C 185.870 224.575,186.307 223.438,186.768 223.438 C 187.166 223.438,186.938 241.907,186.532 242.564 C 186.395 242.786,186.468 242.969,186.696 242.969 C 186.923 242.969,187.109 243.155,187.109 243.382 C 187.109 243.610,186.934 243.688,186.720 243.555 C 186.462 243.396,186.459 243.653,186.710 244.314 C 186.957 244.962,186.956 245.313,186.709 245.313 C 186.500 245.313,186.328 245.499,186.328 245.726 C 186.328 245.954,186.504 246.031,186.719 245.898 C 187.217 245.590,187.230 246.208,186.735 246.702 C 185.887 247.550,187.018 247.995,190.241 248.080 L 193.555 248.168 193.656 230.517 L 193.758 212.867 188.797 212.977 L 183.836 213.086 182.899 215.430 C 182.383 216.719,181.800 217.832,181.603 217.904 C 181.406 217.977,181.329 218.171,181.431 218.336 C 181.660 218.707,177.744 229.054,177.310 229.224 C 177.138 229.292,177.094 229.600,177.212 229.908 C 177.331 230.216,177.203 230.469,176.930 230.469 C 176.656 230.469,176.533 230.570,176.657 230.694 C 176.945 230.982,175.414 235.547,175.030 235.547 C 174.871 235.547,174.552 234.976,174.323 234.277 C 174.093 233.579,172.215 228.557,170.150 223.116 C 168.085 217.676,166.496 213.062,166.619 212.863 C 166.742 212.663,166.789 212.539,166.722 212.586 C 166.656 212.633,164.185 212.726,161.230 212.792 M248.828 218.759 L 248.828 224.627 247.855 223.990 C 247.320 223.639,246.996 223.152,247.136 222.906 C 247.276 222.661,247.253 222.585,247.085 222.737 C 246.916 222.889,246.053 222.631,245.166 222.163 C 235.770 217.204,225.397 229.670,229.816 240.611 C 230.370 241.981,230.730 243.253,230.617 243.436 C 230.503 243.619,230.556 243.721,230.733 243.662 C 230.910 243.603,231.762 244.258,232.627 245.117 C 233.491 245.977,234.897 247.031,235.752 247.461 C 236.606 247.891,237.393 248.330,237.500 248.438 C 238.620 249.557,244.779 248.409,247.082 246.650 C 249.216 245.022,249.096 245.020,248.902 246.680 C 248.779 247.736,248.886 248.052,249.371 248.070 C 249.717 248.082,251.055 248.093,252.344 248.093 C 253.633 248.093,254.951 248.082,255.273 248.070 C 255.785 248.050,255.859 245.823,255.859 230.469 L 255.859 212.891 252.344 212.891 L 248.828 212.891 248.828 218.759 M260.891 213.574 C 260.866 213.950,260.887 214.434,260.938 214.648 C 260.989 214.863,260.998 215.830,260.958 216.797 C 260.849 219.402,260.823 227.869,260.914 231.445 C 260.957 233.164,260.967 234.658,260.935 234.766 C 260.661 235.699,260.676 236.328,260.972 236.328 C 261.168 236.328,261.328 236.602,261.328 236.937 C 261.328 237.272,261.196 237.465,261.035 237.365 C 260.799 237.219,260.741 241.792,260.910 247.168 C 260.936 248.012,261.077 248.047,264.414 248.047 L 267.891 248.047 267.718 246.198 L 267.546 244.350 268.811 245.644 C 272.752 249.675,279.935 249.752,284.172 245.810 C 284.812 245.214,285.515 244.785,285.734 244.857 C 285.954 244.928,286.006 244.860,285.851 244.706 C 285.697 244.551,285.887 243.965,286.275 243.403 C 287.244 242.000,288.281 239.247,288.281 238.078 C 288.281 237.545,288.413 237.109,288.574 237.109 C 288.735 237.109,288.867 236.318,288.867 235.352 C 288.867 234.385,288.735 233.594,288.574 233.594 C 288.413 233.594,288.281 233.073,288.281 232.437 C 288.281 230.310,286.710 226.941,284.787 224.947 C 283.777 223.898,283.051 222.910,283.174 222.750 C 283.297 222.591,283.253 222.577,283.076 222.719 C 282.898 222.860,282.012 222.649,281.108 222.249 C 279.257 221.430,275.068 220.668,274.801 221.101 C 274.704 221.256,274.078 221.493,273.408 221.627 C 272.738 221.761,271.407 222.399,270.451 223.045 C 269.494 223.690,268.632 224.219,268.535 224.219 C 268.438 224.219,268.359 221.670,268.359 218.555 L 268.359 212.891 264.648 212.891 C 261.392 212.891,260.932 212.974,260.891 213.574 M166.220 214.483 C 166.597 215.669,166.216 215.791,165.697 214.650 C 165.452 214.112,165.411 213.672,165.607 213.672 C 165.803 213.672,166.079 214.037,166.220 214.483 M184.214 215.525 C 183.794 215.945,183.571 215.357,183.866 214.607 C 184.143 213.903,184.164 213.902,184.300 214.581 C 184.379 214.974,184.341 215.399,184.214 215.525 M100.006 216.895 C 100.010 217.890,100.138 218.356,100.328 218.057 C 100.625 217.589,100.477 215.234,100.151 215.234 C 100.068 215.234,100.003 215.981,100.006 216.895 M235.212 216.878 L 234.388 218.164 234.382 217.067 C 234.378 216.463,234.532 216.067,234.725 216.186 C 234.917 216.305,235.185 216.114,235.320 215.762 C 235.455 215.410,235.671 215.228,235.800 215.357 C 235.929 215.487,235.664 216.171,235.212 216.878 M208.984 221.435 C 208.232 221.600,206.738 222.128,205.664 222.607 C 204.590 223.087,203.623 223.504,203.516 223.534 C 201.159 224.191,196.907 234.819,198.077 237.128 C 198.236 237.440,198.559 238.426,198.796 239.318 C 202.067 251.621,221.681 251.797,225.239 239.554 C 228.359 228.825,219.631 219.096,208.984 221.435 M329.688 221.361 C 323.225 222.425,319.467 228.562,322.499 233.100 C 322.896 233.694,323.167 234.355,323.101 234.570 C 323.036 234.785,323.114 234.829,323.276 234.667 C 323.437 234.506,323.847 234.619,324.187 234.919 C 325.047 235.679,328.064 236.643,332.339 237.523 C 337.383 238.561,338.868 239.580,337.919 241.353 C 336.522 243.964,328.125 243.114,328.125 240.362 C 328.125 239.812,323.357 239.614,321.582 240.090 C 319.199 240.729,321.968 245.516,325.682 247.178 C 326.594 247.586,327.269 247.993,327.183 248.081 C 326.924 248.346,330.052 248.609,333.594 248.619 C 340.794 248.641,345.630 244.427,344.746 238.902 C 344.149 235.169,341.595 233.284,335.683 232.212 C 330.343 231.244,328.737 230.521,328.590 229.017 C 328.277 225.807,335.905 225.338,336.911 228.505 C 337.135 229.211,337.492 229.297,340.196 229.297 C 343.760 229.297,343.788 229.280,343.282 227.415 C 342.053 222.882,336.221 220.285,329.688 221.361 M292.188 228.320 C 292.188 232.357,292.042 234.766,291.797 234.766 C 291.582 234.766,291.409 235.073,291.412 235.449 C 291.417 236.038,291.475 236.052,291.828 235.547 C 292.135 235.108,292.196 235.354,292.073 236.523 C 291.982 237.383,292.076 239.229,292.282 240.625 C 292.488 242.021,292.668 243.384,292.682 243.652 C 292.697 243.921,292.845 244.141,293.012 244.141 C 293.179 244.141,293.631 244.676,294.018 245.330 C 296.236 249.084,303.209 249.778,307.784 246.699 L 309.766 245.365 309.766 246.706 C 309.766 248.028,309.791 248.048,311.523 248.096 C 312.490 248.123,313.501 248.171,313.770 248.203 C 314.038 248.236,314.856 248.170,315.588 248.056 L 316.918 247.850 316.860 240.624 C 316.828 236.650,316.801 230.806,316.799 227.637 L 316.797 221.875 313.086 221.875 L 309.375 221.875 309.375 230.255 C 309.375 239.417,309.270 239.951,307.190 241.376 C 304.616 243.140,300.989 242.499,299.860 240.080 C 299.134 238.525,299.038 224.352,299.747 223.460 C 300.093 223.026,300.083 222.964,299.707 223.190 C 299.380 223.387,299.219 223.219,299.219 222.679 C 299.219 221.927,298.992 221.875,295.703 221.875 L 292.188 221.875 292.188 228.320 M311.075 222.955 C 310.828 223.113,310.544 223.682,310.444 224.219 C 310.290 225.046,310.254 225.001,310.209 223.926 C 310.169 222.955,310.317 222.658,310.840 222.662 C 311.279 222.666,311.363 222.771,311.075 222.955 M314.746 222.936 C 314.155 223.026,313.188 223.026,312.598 222.936 C 312.007 222.847,312.490 222.773,313.672 222.773 C 314.854 222.773,315.337 222.847,314.746 222.936 M87.597 225.843 C 87.353 226.778,86.626 226.758,85.751 225.791 C 85.068 225.037,85.083 225.021,86.419 225.071 C 87.543 225.114,87.752 225.251,87.597 225.843 M122.712 225.942 C 122.996 225.767,123.063 225.830,122.889 226.112 C 122.593 226.590,120.782 226.718,119.776 226.332 C 119.318 226.156,119.283 225.987,119.626 225.619 C 119.983 225.237,120.303 225.250,121.166 225.681 C 121.765 225.980,122.461 226.097,122.712 225.942 M285.764 227.076 C 286.323 228.231,286.320 228.264,285.732 227.539 C 284.770 226.353,284.205 225.240,284.729 225.564 C 284.967 225.711,285.433 226.391,285.764 227.076 M215.288 227.957 C 220.182 230.488,219.660 240.276,214.525 242.233 C 213.111 242.772,210.277 242.643,209.645 242.011 C 209.333 241.699,208.970 241.551,208.838 241.683 C 207.788 242.733,205.522 238.138,205.522 234.961 C 205.522 228.838,210.327 225.392,215.288 227.957 M243.945 227.383 C 251.367 229.406,250.067 242.539,242.442 242.572 C 240.572 242.580,238.522 241.637,237.709 240.396 C 237.369 239.877,237.196 239.453,237.324 239.453 C 237.451 239.453,237.290 239.187,236.965 238.863 C 235.214 237.112,236.786 227.546,238.637 228.689 C 238.826 228.806,239.079 228.646,239.199 228.334 C 239.372 227.883,240.854 227.216,242.188 226.991 C 242.295 226.972,243.086 227.149,243.945 227.383 M275.621 227.287 C 275.507 227.471,275.824 227.543,276.325 227.447 C 278.606 227.011,281.243 231.201,281.248 235.266 C 281.251 238.058,279.446 241.786,278.403 241.141 C 278.184 241.006,278.121 241.084,278.264 241.314 C 278.679 241.986,275.893 242.700,273.912 242.428 C 265.593 241.288,266.675 227.471,275.121 226.993 C 275.509 226.971,275.734 227.104,275.621 227.287 M287.783 235.638 C 287.696 236.340,287.623 235.859,287.621 234.570 C 287.619 233.281,287.690 232.707,287.779 233.294 C 287.868 233.881,287.870 234.935,287.783 235.638 M199.097 235.059 C 198.999 235.435,198.919 235.127,198.919 234.375 C 198.919 233.623,198.999 233.315,199.097 233.691 C 199.196 234.067,199.196 234.683,199.097 235.059 M339.258 233.740 L 340.430 234.241 339.160 234.243 C 338.462 234.244,337.891 234.111,337.891 233.948 C 337.891 233.785,337.583 233.571,337.207 233.472 C 336.637 233.323,336.653 233.289,337.305 233.266 C 337.734 233.251,338.613 233.464,339.258 233.740 M204.573 236.031 C 204.480 236.517,204.400 236.211,204.395 235.352 C 204.391 234.492,204.467 234.095,204.565 234.468 C 204.663 234.842,204.667 235.545,204.573 236.031 M344.030 241.309 C 343.940 241.899,343.867 241.416,343.867 240.234 C 343.867 239.053,343.940 238.569,344.030 239.160 C 344.119 239.751,344.119 240.718,344.030 241.309 M228.260 241.228 C 228.133 241.559,228.138 241.940,228.272 242.074 C 228.406 242.208,228.516 242.003,228.516 241.619 C 228.516 241.009,228.603 240.989,229.199 241.456 C 229.819 241.942,229.833 241.928,229.347 241.309 C 228.690 240.471,228.554 240.461,228.260 241.228 M169.047 241.241 C 168.922 241.444,169.067 241.949,169.371 242.364 C 169.962 243.173,170.050 242.851,169.571 241.627 C 169.408 241.212,169.173 241.038,169.047 241.241 M203.125 244.381 C 203.125 245.096,202.985 245.065,202.173 244.168 C 201.518 243.444,201.524 243.422,202.308 243.627 C 202.757 243.745,203.125 244.084,203.125 244.381 M261.995 245.406 C 261.902 245.892,261.822 245.586,261.817 244.727 C 261.813 243.867,261.889 243.470,261.987 243.843 C 262.085 244.217,262.088 244.920,261.995 245.406 M342.547 244.764 C 342.027 245.320,341.278 245.949,340.882 246.162 C 340.487 246.376,340.832 245.840,341.649 244.972 C 342.466 244.105,343.215 243.475,343.314 243.574 C 343.412 243.672,343.067 244.208,342.547 244.764 M234.161 244.875 C 234.063 244.974,234.291 245.420,234.667 245.867 L 235.352 246.680 234.436 245.903 C 233.127 244.791,232.470 243.529,233.553 244.206 C 233.985 244.476,234.259 244.777,234.161 244.875 M160.066 247.154 C 159.479 247.243,158.424 247.245,157.722 247.158 C 157.020 247.071,157.500 246.998,158.789 246.996 C 160.078 246.994,160.653 247.065,160.066 247.154 M211.133 247.653 L 213.477 247.940 211.523 247.963 C 210.449 247.976,208.867 247.741,208.008 247.440 C 206.978 247.079,206.845 246.973,207.617 247.130 C 208.262 247.260,209.844 247.496,211.133 247.653 M216.406 247.461 C 214.599 248.157,213.611 248.178,214.844 247.493 C 215.381 247.195,216.260 246.948,216.797 246.943 C 217.639 246.936,217.585 247.007,216.406 247.461 M253.613 247.158 C 252.915 247.244,251.772 247.244,251.074 247.158 C 250.376 247.071,250.947 247.000,252.344 247.000 C 253.740 247.000,254.312 247.071,253.613 247.158 M264.941 247.151 C 264.458 247.244,263.667 247.244,263.184 247.151 C 262.700 247.058,263.096 246.981,264.063 246.981 C 265.029 246.981,265.425 247.058,264.941 247.151 M280.399 247.281 C 280.039 247.491,278.896 247.747,277.860 247.848 C 276.268 248.005,276.176 247.981,277.266 247.695 C 277.975 247.509,278.664 247.248,278.796 247.116 C 278.928 246.983,279.491 246.880,280.046 246.887 C 280.892 246.897,280.949 246.961,280.399 247.281 M314.556 247.150 C 314.076 247.243,313.197 247.245,312.603 247.155 C 312.009 247.066,312.402 246.990,313.477 246.987 C 314.551 246.984,315.037 247.057,314.556 247.150 M89.591 247.654 C 89.129 247.840,88.634 248.183,88.490 248.416 C 88.345 248.650,88.093 248.758,87.929 248.656 C 87.765 248.555,87.601 248.684,87.565 248.943 C 87.528 249.202,87.395 250.052,87.267 250.831 C 87.070 252.032,87.214 252.449,88.212 253.566 L 89.388 254.883 101.298 254.883 L 113.207 254.883 113.259 260.059 C 113.292 263.408,113.168 265.234,112.905 265.234 C 112.682 265.234,112.500 265.421,112.500 265.648 C 112.500 265.876,112.676 265.953,112.891 265.820 C 113.147 265.662,113.279 268.842,113.275 275.075 C 113.271 281.350,113.141 284.372,112.891 283.984 C 112.663 283.632,112.510 283.584,112.506 283.864 C 112.503 284.120,112.676 284.438,112.891 284.570 C 113.455 284.919,113.374 287.788,112.793 288.023 C 112.402 288.180,112.402 288.226,112.793 288.250 C 113.110 288.270,113.283 288.933,113.287 290.137 C 113.298 293.676,115.160 295.419,118.014 294.564 C 120.358 293.861,120.313 294.274,120.313 273.894 L 120.313 255.158 124.807 255.105 C 132.280 255.018,132.358 255.148,132.449 267.676 C 132.482 272.134,132.627 275.781,132.771 275.781 C 132.916 275.781,133.345 276.306,133.724 276.948 C 135.133 279.333,141.032 281.291,144.232 280.435 C 145.201 280.176,145.242 280.239,145.502 282.369 C 145.649 283.580,146.096 285.317,146.496 286.230 C 146.895 287.144,147.124 287.891,147.005 287.891 C 146.886 287.891,147.787 288.872,149.006 290.072 C 158.672 299.585,173.242 293.342,173.242 279.688 C 173.242 268.785,165.737 263.134,154.120 265.288 C 153.700 265.366,153.085 265.656,152.753 265.932 C 152.420 266.209,151.357 267.006,150.391 267.704 C 149.421 268.403,148.107 269.880,147.461 270.996 L 146.289 273.021 143.310 273.034 C 139.359 273.051,139.543 273.501,139.387 263.477 C 139.211 252.262,137.989 249.541,132.374 247.874 C 130.070 247.189,91.237 246.990,89.591 247.654 M334.570 247.656 C 334.714 247.889,334.290 248.031,333.519 248.008 C 332.304 247.971,332.285 247.950,333.203 247.656 C 333.740 247.484,334.213 247.326,334.254 247.305 C 334.295 247.283,334.438 247.441,334.570 247.656 M242.487 247.935 C 241.900 248.024,240.846 248.026,240.144 247.939 C 239.442 247.852,239.922 247.779,241.211 247.777 C 242.500 247.775,243.074 247.846,242.487 247.935 M93.072 254.181 C 92.591 254.274,91.712 254.276,91.119 254.187 C 90.525 254.097,90.918 254.021,91.992 254.018 C 93.066 254.015,93.552 254.089,93.072 254.181 M102.441 254.182 C 101.958 254.275,101.167 254.275,100.684 254.182 C 100.200 254.089,100.596 254.013,101.563 254.013 C 102.529 254.013,102.925 254.089,102.441 254.182 M201.987 265.753 C 199.990 268.475,198.188 270.703,197.983 270.703 C 197.778 270.703,197.706 270.859,197.824 271.049 C 197.942 271.240,197.748 271.635,197.393 271.928 C 196.924 272.315,196.706 272.336,196.595 272.005 C 196.510 271.755,194.871 269.303,192.952 266.557 L 189.464 261.564 184.966 261.468 C 182.493 261.415,180.469 261.447,180.469 261.539 C 180.469 261.691,185.249 268.225,190.531 275.293 L 192.647 278.125 186.889 285.742 C 183.722 289.932,180.972 293.359,180.777 293.359 C 180.582 293.359,180.519 293.515,180.637 293.706 C 180.754 293.896,180.589 294.269,180.269 294.535 C 179.076 295.525,179.779 295.726,184.056 295.618 L 188.424 295.508 192.552 289.768 C 194.822 286.612,196.809 284.063,196.968 284.104 C 197.806 284.324,201.484 290.054,201.090 290.528 C 200.772 290.911,200.814 290.978,201.264 290.806 C 201.673 290.649,202.439 291.372,203.738 293.141 L 205.619 295.703 210.069 295.703 C 212.516 295.703,214.460 295.566,214.388 295.398 C 214.316 295.229,212.764 293.089,210.938 290.640 C 209.111 288.192,207.661 286.044,207.715 285.868 C 207.769 285.691,207.658 285.547,207.469 285.547 C 206.592 285.547,201.449 278.002,202.035 277.574 C 202.355 277.340,202.599 277.033,202.578 276.891 C 202.557 276.749,205.044 273.308,208.105 269.243 C 211.167 265.179,213.672 261.745,213.672 261.613 C 213.672 261.481,211.914 261.407,209.765 261.448 C 207.617 261.490,205.805 261.361,205.739 261.163 C 205.673 260.965,203.985 263.030,201.987 265.753 M207.422 269.330 C 207.422 269.388,207.168 269.646,206.858 269.904 C 206.398 270.286,206.305 270.230,206.352 269.604 C 206.396 269.016,207.422 268.754,207.422 269.330 M205.247 272.070 C 204.673 272.822,204.116 273.438,204.007 273.438 C 203.814 273.438,204.290 272.743,205.414 271.387 C 206.440 270.148,206.311 270.675,205.247 272.070 M162.773 272.318 C 164.169 273.176,165.813 275.552,165.434 276.165 C 165.299 276.384,165.385 276.563,165.627 276.563 C 165.868 276.563,166.027 276.870,165.980 277.246 C 165.934 277.622,166.035 278.252,166.206 278.647 C 166.376 279.041,166.305 280.305,166.048 281.455 C 163.959 290.789,152.344 289.216,152.344 279.598 C 152.344 276.382,154.684 271.734,155.919 272.498 C 156.101 272.610,156.250 272.521,156.250 272.300 C 156.250 271.003,160.654 271.016,162.773 272.318 M137.751 278.711 C 138.500 279.460,137.932 279.451,136.937 278.699 C 136.511 278.377,136.395 278.125,136.672 278.125 C 136.943 278.125,137.429 278.389,137.751 278.711 M112.591 279.688 C 112.591 280.439,112.671 280.747,112.769 280.371 C 112.868 279.995,112.868 279.380,112.769 279.004 C 112.671 278.628,112.591 278.936,112.591 279.688 M189.977 283.203 C 189.596 283.848,189.142 284.375,188.967 284.375 C 188.792 284.375,189.038 283.848,189.515 283.203 C 189.991 282.559,190.446 282.031,190.525 282.031 C 190.604 282.031,190.358 282.559,189.977 283.203 M114.533 291.776 C 114.626 292.409,114.558 292.839,114.382 292.730 C 114.069 292.536,113.916 290.625,114.213 290.625 C 114.297 290.625,114.440 291.143,114.533 291.776 M152.830 290.885 C 152.560 290.993,152.438 291.243,152.560 291.440 C 152.909 292.005,152.346 291.855,151.702 291.211 C 151.181 290.690,151.239 290.628,152.218 290.656 C 152.824 290.673,153.099 290.776,152.830 290.885 M167.188 291.406 C 166.650 291.826,166.035 292.160,165.820 292.148 C 165.605 292.136,165.651 292.037,165.920 291.928 C 166.190 291.819,166.295 291.542,166.153 291.313 C 166.011 291.083,166.062 290.998,166.267 291.125 C 166.471 291.251,166.894 291.193,167.206 290.996 C 168.207 290.363,168.196 290.618,167.188 291.406 M182.617 292.969 C 181.905 293.756,184.128 294.111,187.793 293.796 C 188.723 293.716,188.979 294.295,188.221 294.764 C 187.941 294.937,187.876 294.871,188.049 294.592 C 188.202 294.344,188.156 294.141,187.946 294.141 C 187.737 294.141,187.504 294.324,187.429 294.549 C 187.345 294.801,186.068 294.913,184.086 294.842 L 180.879 294.727 181.874 293.457 C 182.421 292.759,182.972 292.188,183.097 292.188 C 183.222 292.188,183.006 292.539,182.617 292.969 M206.256 293.861 C 206.259 293.693,206.422 293.807,206.617 294.116 C 206.925 294.603,207.062 294.603,207.662 294.116 C 208.042 293.807,208.228 293.764,208.074 294.020 C 207.869 294.361,208.471 294.474,210.347 294.446 C 211.750 294.426,212.990 294.501,213.103 294.614 C 213.884 295.394,206.190 294.895,205.376 294.112 L 204.492 293.263 205.371 293.716 C 205.854 293.964,206.253 294.030,206.256 293.861 M184.863 294.410 C 185.239 294.508,185.854 294.508,186.230 294.410 C 186.606 294.312,186.299 294.231,185.547 294.231 C 184.795 294.231,184.487 294.312,184.863 294.410 " stroke="none" fill="#121212" fill-rule="evenodd"></path><path id="path1" d="M249.965 103.546 C 249.564 103.799,249.706 103.896,250.488 103.900 C 251.655 103.907,251.865 103.715,251.039 103.398 C 250.751 103.288,250.267 103.354,249.965 103.546 M245.610 104.183 C 246.096 104.276,246.799 104.272,247.173 104.175 C 247.546 104.077,247.148 104.000,246.289 104.005 C 245.430 104.009,245.124 104.089,245.610 104.183 M254.594 104.183 C 255.080 104.276,255.783 104.272,256.157 104.175 C 256.530 104.077,256.133 104.000,255.273 104.005 C 254.414 104.009,254.108 104.089,254.594 104.183 M283.984 117.773 C 284.713 118.525,285.397 119.141,285.505 119.141 C 285.612 119.141,285.104 118.525,284.375 117.773 C 283.646 117.021,282.962 116.406,282.855 116.406 C 282.747 116.406,283.256 117.021,283.984 117.773 M234.277 118.973 C 232.763 119.795,232.934 120.079,234.473 119.296 C 235.945 118.547,236.206 118.353,235.710 118.375 C 235.513 118.384,234.868 118.653,234.277 118.973 M87.016 119.808 C 87.502 119.901,88.205 119.897,88.579 119.800 C 88.952 119.702,88.555 119.625,87.695 119.630 C 86.836 119.634,86.530 119.714,87.016 119.808 M102.590 119.840 C 102.484 120.010,103.045 120.085,103.836 120.007 C 105.998 119.794,106.255 119.597,104.418 119.562 C 103.517 119.545,102.695 119.670,102.590 119.840 M121.353 119.895 C 122.247 120.041,123.222 120.327,123.520 120.530 C 123.817 120.732,123.725 120.591,123.315 120.215 C 122.861 119.798,122.015 119.550,121.148 119.580 L 119.727 119.629 121.353 119.895 M84.767 120.897 C 84.263 121.433,83.925 121.937,84.015 122.017 C 84.106 122.097,84.589 121.658,85.088 121.042 C 86.207 119.663,86.010 119.574,84.767 120.897 M117.188 128.288 C 117.188 132.740,117.060 134.361,116.699 134.507 C 116.309 134.665,116.309 134.710,116.699 134.735 C 117.611 134.792,117.265 136.649,116.309 136.834 C 115.555 136.979,115.583 137.011,116.504 137.056 L 117.578 137.109 117.578 129.688 C 117.578 125.605,117.490 122.266,117.383 122.266 C 117.275 122.266,117.188 124.976,117.188 128.288 M124.686 129.590 C 124.644 133.726,124.741 137.110,124.902 137.110 C 125.063 137.110,125.150 134.869,125.094 132.130 C 124.905 122.911,124.763 122.023,124.686 129.590 M83.692 124.023 C 83.697 124.883,83.777 125.188,83.870 124.702 C 83.963 124.217,83.960 123.513,83.862 123.140 C 83.764 122.767,83.688 123.164,83.692 124.023 M100.489 125.195 C 100.493 126.055,100.573 126.360,100.667 125.874 C 100.760 125.388,100.757 124.685,100.659 124.312 C 100.561 123.938,100.485 124.336,100.489 125.195 M247.369 124.108 C 247.962 124.198,248.841 124.196,249.322 124.103 C 249.802 124.010,249.316 123.937,248.242 123.940 C 247.168 123.943,246.775 124.019,247.369 124.108 M251.860 124.104 C 252.346 124.198,253.049 124.194,253.423 124.097 C 253.796 123.999,253.398 123.922,252.539 123.927 C 251.680 123.931,251.374 124.011,251.860 124.104 M83.725 128.516 C 83.725 130.127,83.794 130.786,83.878 129.980 C 83.963 129.175,83.963 127.856,83.878 127.051 C 83.794 126.245,83.725 126.904,83.725 128.516 M221.484 126.953 L 220.117 127.241 221.364 127.292 C 222.049 127.321,222.719 127.168,222.852 126.953 C 222.984 126.738,223.039 126.586,222.972 126.614 C 222.906 126.642,222.236 126.795,221.484 126.953 M108.294 128.906 C 108.294 129.658,108.374 129.966,108.472 129.590 C 108.571 129.214,108.571 128.599,108.472 128.223 C 108.374 127.847,108.294 128.154,108.294 128.906 M108.294 131.641 C 108.294 132.393,108.374 132.700,108.472 132.324 C 108.571 131.948,108.571 131.333,108.472 130.957 C 108.374 130.581,108.294 130.889,108.294 131.641 M229.518 132.004 C 228.586 132.977,228.275 133.092,227.438 132.774 C 226.897 132.568,226.382 132.473,226.293 132.561 C 226.204 132.650,226.649 132.902,227.281 133.123 C 228.321 133.485,228.554 133.396,229.722 132.191 C 230.432 131.459,230.923 130.859,230.814 130.859 C 230.704 130.859,230.122 131.374,229.518 132.004 M100.449 132.097 C 100.417 132.670,100.289 133.461,100.166 133.855 C 99.953 134.531,99.965 134.532,100.386 133.877 C 100.631 133.495,100.758 132.704,100.669 132.119 L 100.508 131.055 100.449 132.097 M220.610 131.526 C 221.096 131.620,221.799 131.616,222.173 131.518 C 222.546 131.421,222.148 131.344,221.289 131.349 C 220.430 131.353,220.124 131.433,220.610 131.526 M270.313 132.617 C 271.041 133.369,271.726 133.984,271.833 133.984 C 271.940 133.984,271.432 133.369,270.703 132.617 C 269.974 131.865,269.290 131.250,269.183 131.250 C 269.075 131.250,269.584 131.865,270.313 132.617 M83.700 135.547 C 83.700 136.514,83.776 136.909,83.869 136.426 C 83.963 135.942,83.963 135.151,83.869 134.668 C 83.776 134.185,83.700 134.580,83.700 135.547 M100.781 135.547 C 100.781 135.762,100.796 136.050,100.815 136.187 C 100.833 136.324,100.613 136.585,100.326 136.767 C 99.926 137.020,99.964 137.099,100.488 137.103 C 100.959 137.108,101.172 136.805,101.172 136.133 C 101.172 135.596,101.084 135.156,100.977 135.156 C 100.869 135.156,100.781 135.332,100.781 135.547 M64.844 149.990 L 64.844 156.230 58.691 156.348 L 52.539 156.467 58.887 156.554 L 65.234 156.641 65.234 150.195 C 65.234 146.650,65.146 143.750,65.039 143.750 C 64.932 143.750,64.844 146.558,64.844 149.990 M144.618 150.488 L 144.531 156.641 151.270 156.553 L 158.008 156.466 151.475 156.348 L 144.942 156.231 144.823 150.284 L 144.705 144.336 144.618 150.488 M277.759 145.964 C 277.683 147.361,278.209 147.656,280.771 147.656 C 283.891 147.656,283.836 147.320,280.694 147.189 C 278.832 147.111,278.369 146.952,278.105 146.301 C 277.929 145.865,277.773 145.713,277.759 145.964 M128.159 152.585 C 128.677 153.255,129.180 153.733,129.276 153.648 C 129.372 153.562,128.948 153.014,128.333 152.430 L 127.216 151.367 128.159 152.585 M294.922 152.857 C 294.922 152.924,295.493 153.495,296.191 154.126 L 297.461 155.273 296.314 154.004 C 295.244 152.821,294.922 152.555,294.922 152.857 M129.443 158.398 C 129.444 160.762,129.508 161.678,129.586 160.435 C 129.664 159.192,129.663 157.258,129.584 156.138 C 129.506 155.018,129.442 156.035,129.443 158.398 M87.014 157.520 C 86.508 158.003,86.367 158.203,86.700 157.965 C 87.032 157.726,87.656 157.336,88.086 157.098 C 88.516 156.859,88.657 156.659,88.401 156.653 C 88.144 156.646,87.520 157.036,87.014 157.520 M49.309 160.547 C 49.309 161.299,49.390 161.606,49.488 161.230 C 49.586 160.854,49.586 160.239,49.488 159.863 C 49.390 159.487,49.309 159.795,49.309 160.547 M92.151 163.520 C 91.864 163.867,91.271 164.295,90.834 164.472 C 90.274 164.699,90.221 164.802,90.655 164.819 C 90.993 164.833,91.683 164.404,92.188 163.867 C 92.692 163.330,93.008 162.891,92.889 162.891 C 92.771 162.891,92.439 163.174,92.151 163.520 M129.473 176.758 C 129.473 184.492,129.525 187.712,129.589 183.912 C 129.653 180.113,129.653 173.784,129.589 169.850 C 129.526 165.915,129.473 169.023,129.473 176.758 M53.809 164.345 C 54.507 164.432,55.649 164.432,56.348 164.345 C 57.046 164.258,56.475 164.188,55.078 164.188 C 53.682 164.188,53.110 164.258,53.809 164.345 M58.501 164.339 C 58.987 164.432,59.690 164.429,60.063 164.331 C 60.437 164.233,60.039 164.157,59.180 164.161 C 58.320 164.165,58.015 164.245,58.501 164.339 M61.417 164.282 C 61.538 164.402,62.358 164.511,63.240 164.523 C 64.122 164.535,64.844 164.711,64.844 164.913 C 64.844 165.115,64.668 165.172,64.453 165.039 C 64.238 164.906,64.063 164.984,64.063 165.211 C 64.063 165.439,64.232 165.625,64.440 165.625 C 64.652 165.625,64.872 167.470,64.943 169.824 L 65.068 174.023 65.151 169.043 L 65.234 164.063 63.216 164.063 C 62.106 164.063,61.297 164.161,61.417 164.282 M144.617 169.038 C 144.707 173.129,144.831 174.021,145.313 174.056 C 145.650 174.081,145.691 174.029,145.410 173.935 C 145.056 173.816,144.922 172.498,144.922 169.145 C 144.922 165.809,145.058 164.463,145.410 164.321 C 145.698 164.205,145.612 164.111,145.203 164.093 C 144.566 164.065,144.517 164.478,144.617 169.038 M147.363 164.342 C 147.954 164.432,148.921 164.432,149.512 164.342 C 150.103 164.253,149.619 164.180,148.438 164.180 C 147.256 164.180,146.772 164.253,147.363 164.342 M153.418 164.338 C 153.901 164.431,154.692 164.431,155.176 164.338 C 155.659 164.245,155.264 164.169,154.297 164.169 C 153.330 164.169,152.935 164.245,153.418 164.338 M303.237 170.508 C 303.240 171.582,303.316 171.975,303.405 171.381 C 303.495 170.788,303.493 169.909,303.400 169.428 C 303.307 168.948,303.234 169.434,303.237 170.508 M174.700 171.094 C 174.700 171.846,174.780 172.153,174.879 171.777 C 174.977 171.401,174.977 170.786,174.879 170.410 C 174.780 170.034,174.700 170.342,174.700 171.094 M50.904 174.512 C 50.494 174.888,50.352 175.071,50.589 174.918 C 50.825 174.766,51.449 174.469,51.974 174.259 C 52.578 174.018,52.694 173.869,52.289 173.853 C 51.937 173.839,51.314 174.136,50.904 174.512 M55.386 174.118 C 56.738 174.194,58.847 174.194,60.074 174.116 C 61.301 174.039,60.195 173.976,57.617 173.977 C 55.039 173.978,54.035 174.041,55.386 174.118 M149.121 174.117 C 150.464 174.194,152.661 174.194,154.004 174.117 C 155.347 174.041,154.248 173.979,151.563 173.979 C 148.877 173.979,147.778 174.041,149.121 174.117 M49.309 177.734 C 49.309 178.486,49.390 178.794,49.488 178.418 C 49.586 178.042,49.586 177.427,49.488 177.051 C 49.390 176.675,49.309 176.982,49.309 177.734 M160.938 177.682 C 160.938 178.297,160.569 179.308,160.118 179.928 L 159.299 181.055 160.313 179.959 C 161.188 179.014,161.780 176.563,161.133 176.563 C 161.025 176.563,160.938 177.066,160.938 177.682 M55.390 181.541 C 57.172 181.613,59.985 181.613,61.640 181.540 C 63.294 181.467,61.836 181.408,58.398 181.408 C 54.961 181.409,53.607 181.468,55.390 181.541 M65.016 192.383 C 65.016 198.613,65.070 201.107,65.136 197.925 C 65.202 194.743,65.202 189.646,65.136 186.597 C 65.070 183.549,65.016 186.152,65.016 192.383 M144.703 192.188 C 144.703 198.311,144.757 200.815,144.823 197.754 C 144.889 194.692,144.889 189.683,144.823 186.621 C 144.757 183.560,144.703 186.064,144.703 192.188 M148.358 181.541 C 150.141 181.613,152.954 181.613,154.608 181.540 C 156.263 181.467,154.805 181.408,151.367 181.408 C 147.930 181.409,146.576 181.468,148.358 181.541 M124.700 186.328 C 124.700 187.080,124.780 187.388,124.879 187.012 C 124.977 186.636,124.977 186.021,124.879 185.645 C 124.780 185.269,124.700 185.576,124.700 186.328 M180.184 186.939 C 180.994 187.812,181.553 188.629,181.427 188.755 C 181.301 188.881,181.373 189.093,181.588 189.225 C 182.809 189.980,182.116 188.546,180.550 187.076 C 178.737 185.376,178.732 185.374,180.184 186.939 M88.770 190.504 C 89.146 190.602,89.761 190.602,90.137 190.504 C 90.513 190.405,90.205 190.325,89.453 190.325 C 88.701 190.325,88.394 190.405,88.770 190.504 M203.000 193.652 C 209.054 193.713,219.073 193.713,225.265 193.652 C 231.457 193.592,226.504 193.542,214.258 193.542 C 202.012 193.542,196.945 193.592,203.000 193.652 M244.792 193.620 C 244.648 193.763,244.534 194.071,244.537 194.303 C 244.541 194.557,244.666 194.533,244.851 194.242 C 245.088 193.869,249.621 193.733,264.474 193.652 L 283.789 193.547 264.421 193.453 C 253.768 193.402,244.935 193.477,244.792 193.620 M83.203 196.076 C 83.525 196.294,84.126 196.475,84.538 196.478 C 85.537 196.486,85.225 196.263,83.789 195.942 C 82.933 195.750,82.775 195.786,83.203 196.076 M66.406 206.763 C 66.406 206.830,66.978 207.401,67.676 208.032 L 68.945 209.180 67.798 207.910 C 66.729 206.727,66.406 206.461,66.406 206.763 M77.641 210.823 C 78.127 210.917,78.830 210.913,79.204 210.815 C 79.577 210.717,79.180 210.641,78.320 210.645 C 77.461 210.650,77.155 210.730,77.641 210.823 M81.641 210.698 C 81.641 210.781,82.168 210.926,82.813 211.021 C 83.457 211.115,83.984 211.047,83.984 210.870 C 83.984 210.692,83.457 210.547,82.813 210.547 C 82.168 210.547,81.641 210.615,81.641 210.698 M91.895 210.816 C 92.271 210.914,92.886 210.914,93.262 210.816 C 93.638 210.718,93.330 210.638,92.578 210.638 C 91.826 210.638,91.519 210.718,91.895 210.816 M100.456 211.369 C 100.173 211.821,100.116 212.084,100.328 211.953 C 100.541 211.821,100.804 211.935,100.912 212.205 C 101.021 212.474,101.124 212.212,101.141 211.621 C 101.178 210.331,101.118 210.309,100.456 211.369 M116.104 210.826 L 117.169 210.988 117.286 217.701 L 117.403 224.414 117.490 217.480 L 117.578 210.547 116.309 210.605 C 115.140 210.659,115.124 210.677,116.104 210.826 M124.870 210.807 C 124.727 210.951,124.609 214.298,124.609 218.247 C 124.609 225.348,124.599 225.437,123.651 226.385 C 123.123 226.912,122.847 227.344,123.036 227.344 C 124.589 227.344,125.000 225.415,125.000 218.126 L 125.000 210.966 128.809 210.838 L 132.617 210.710 128.874 210.629 C 126.815 210.584,125.013 210.664,124.870 210.807 M108.294 212.500 C 108.294 213.252,108.374 213.560,108.472 213.184 C 108.571 212.808,108.571 212.192,108.472 211.816 C 108.374 211.440,108.294 211.748,108.294 212.500 M155.469 230.458 L 155.469 248.438 157.520 248.367 L 159.570 248.297 157.715 248.150 L 155.859 248.004 155.859 230.447 L 155.859 212.891 161.100 212.891 C 164.290 212.891,166.419 213.047,166.540 213.291 C 166.649 213.511,166.693 213.467,166.638 213.193 C 166.563 212.824,165.106 212.667,161.003 212.587 L 155.469 212.479 155.469 230.458 M186.833 212.790 C 188.292 212.865,190.577 212.865,191.911 212.789 C 193.245 212.713,192.051 212.651,189.258 212.652 C 186.465 212.652,185.374 212.715,186.833 212.790 M252.051 212.791 L 255.859 212.919 255.859 230.450 C 255.859 242.033,255.724 248.049,255.459 248.180 C 255.239 248.290,255.283 248.334,255.557 248.278 C 255.950 248.198,256.076 244.419,256.156 230.339 L 256.258 212.500 252.250 212.582 L 248.242 212.664 252.051 212.791 M264.551 212.791 L 268.359 212.919 268.359 218.569 C 268.359 224.280,268.496 224.797,269.668 223.503 C 270.204 222.910,270.217 222.786,269.745 222.786 C 269.432 222.786,269.258 222.921,269.359 223.085 C 269.461 223.249,269.365 223.494,269.147 223.629 C 268.885 223.791,268.750 221.940,268.750 218.187 L 268.750 212.500 264.746 212.582 L 260.742 212.664 264.551 212.791 M248.591 218.359 C 248.591 221.260,248.652 222.446,248.727 220.996 C 248.802 219.546,248.802 217.173,248.727 215.723 C 248.652 214.272,248.591 215.459,248.591 218.359 M108.348 219.141 C 108.348 221.396,108.412 222.319,108.491 221.191 C 108.570 220.063,108.570 218.218,108.491 217.090 C 108.412 215.962,108.348 216.885,108.348 219.141 M236.136 216.787 C 236.001 217.211,235.439 217.914,234.885 218.349 C 234.332 218.784,234.063 219.141,234.288 219.141 C 234.760 219.141,236.719 216.913,236.719 216.376 C 236.719 215.753,236.391 215.984,236.136 216.787 M231.548 219.417 C 232.033 219.510,232.737 219.507,233.110 219.409 C 233.483 219.311,233.086 219.235,232.227 219.239 C 231.367 219.243,231.062 219.323,231.548 219.417 M211.041 220.983 C 211.634 221.073,212.513 221.071,212.994 220.978 C 213.474 220.885,212.988 220.812,211.914 220.815 C 210.840 220.818,210.447 220.894,211.041 220.983 M240.532 220.979 C 241.018 221.073,241.721 221.069,242.094 220.972 C 242.468 220.874,242.070 220.797,241.211 220.802 C 240.352 220.806,240.046 220.886,240.532 220.979 M275.879 220.972 C 276.255 221.071,276.870 221.071,277.246 220.972 C 277.622 220.874,277.314 220.794,276.563 220.794 C 275.811 220.794,275.503 220.874,275.879 220.972 M331.744 220.983 C 332.337 221.073,333.216 221.071,333.697 220.978 C 334.177 220.885,333.691 220.812,332.617 220.815 C 331.543 220.818,331.150 220.894,331.744 220.983 M271.503 221.855 C 271.191 222.053,270.768 222.111,270.564 221.984 C 270.359 221.858,270.318 221.958,270.471 222.206 C 270.722 222.612,271.843 222.310,272.624 221.627 C 272.968 221.326,272.042 221.514,271.503 221.855 M295.385 221.775 C 298.931 221.895,299.179 221.957,299.336 222.768 C 299.476 223.493,299.512 223.459,299.556 222.559 L 299.609 221.484 295.605 221.566 L 291.602 221.648 295.385 221.775 M311.244 221.773 C 312.379 221.852,314.137 221.851,315.150 221.771 C 316.163 221.691,315.234 221.626,313.086 221.627 C 310.938 221.628,310.108 221.694,311.244 221.773 M232.599 224.316 L 231.055 225.977 232.715 224.432 C 233.628 223.583,234.375 222.836,234.375 222.772 C 234.375 222.477,234.035 222.772,232.599 224.316 M340.234 222.778 C 340.234 222.846,340.806 223.417,341.504 224.048 L 342.773 225.195 341.626 223.926 C 340.557 222.742,340.234 222.477,340.234 222.778 M323.218 224.316 L 322.070 225.586 323.340 224.439 C 324.038 223.808,324.609 223.236,324.609 223.169 C 324.609 222.867,324.287 223.133,323.218 224.316 M100.707 224.544 C 100.613 225.190,100.725 225.651,100.977 225.651 C 101.228 225.651,101.340 225.190,101.246 224.544 C 101.156 223.936,101.035 223.438,100.977 223.438 C 100.918 223.438,100.797 223.936,100.707 224.544 M162.918 223.633 C 162.918 223.848,163.170 224.463,163.477 225.000 C 163.784 225.537,164.035 225.801,164.035 225.586 C 164.035 225.371,163.784 224.756,163.477 224.219 C 163.170 223.682,162.918 223.418,162.918 223.633 M221.875 224.805 C 222.604 225.557,223.288 226.172,223.395 226.172 C 223.503 226.172,222.994 225.557,222.266 224.805 C 221.537 224.053,220.853 223.438,220.745 223.438 C 220.638 223.438,221.146 224.053,221.875 224.805 M201.733 225.098 L 200.586 226.367 201.855 225.220 C 202.554 224.589,203.125 224.018,203.125 223.950 C 203.125 223.649,202.803 223.914,201.733 225.098 M107.065 226.321 L 106.122 227.539 107.239 226.477 C 107.854 225.892,108.278 225.344,108.182 225.259 C 108.086 225.173,107.583 225.651,107.065 226.321 M286.990 227.925 C 287.348 228.674,287.709 229.218,287.794 229.133 C 287.973 228.954,286.787 226.563,286.520 226.563 C 286.421 226.563,286.633 227.176,286.990 227.925 M87.207 227.613 C 87.583 227.711,88.198 227.711,88.574 227.613 C 88.950 227.515,88.643 227.434,87.891 227.434 C 87.139 227.434,86.831 227.515,87.207 227.613 M208.734 228.095 C 208.059 228.506,207.388 229.036,207.242 229.272 C 207.096 229.508,207.647 229.246,208.466 228.690 C 209.349 228.091,210.309 227.747,210.825 227.846 C 211.304 227.937,211.602 227.862,211.489 227.678 C 211.150 227.130,210.040 227.298,208.734 228.095 M299.309 228.516 C 299.309 229.268,299.390 229.575,299.488 229.199 C 299.586 228.823,299.586 228.208,299.488 227.832 C 299.390 227.456,299.309 227.764,299.309 228.516 M186.456 230.273 C 186.458 231.777,186.529 232.345,186.613 231.534 C 186.698 230.724,186.696 229.493,186.610 228.800 C 186.524 228.106,186.455 228.770,186.456 230.273 M321.205 229.492 C 321.208 230.566,321.284 230.959,321.374 230.366 C 321.464 229.772,321.461 228.893,321.369 228.413 C 321.276 227.932,321.203 228.418,321.205 229.492 M260.653 229.688 C 260.653 230.654,260.729 231.050,260.823 230.566 C 260.916 230.083,260.916 229.292,260.823 228.809 C 260.729 228.325,260.653 228.721,260.653 229.688 M270.374 229.036 C 269.717 229.736,269.655 229.948,270.110 229.948 C 270.436 229.948,270.615 229.860,270.507 229.752 C 270.399 229.644,270.602 229.234,270.958 228.840 C 271.910 227.789,271.378 227.967,270.374 229.036 M328.775 229.168 C 328.459 229.483,329.639 230.859,330.226 230.859 C 330.455 230.859,330.249 230.584,329.768 230.247 C 329.287 229.910,328.994 229.470,329.118 229.270 C 329.378 228.849,329.159 228.784,328.775 229.168 M337.160 229.785 C 337.362 230.161,337.917 230.445,338.393 230.416 C 339.193 230.366,339.184 230.345,338.281 230.129 C 337.664 229.982,338.384 229.818,340.234 229.684 L 343.164 229.471 339.979 229.286 C 337.036 229.116,336.821 229.154,337.160 229.785 M299.344 232.422 C 299.344 233.818,299.415 234.390,299.501 233.691 C 299.588 232.993,299.588 231.851,299.501 231.152 C 299.415 230.454,299.344 231.025,299.344 232.422 M268.480 234.570 C 268.483 235.859,268.556 236.340,268.642 235.638 C 268.729 234.935,268.728 233.881,268.638 233.294 C 268.549 232.707,268.478 233.281,268.480 234.570 M218.466 235.156 C 218.466 236.123,218.542 236.519,218.635 236.035 C 218.728 235.552,218.728 234.761,218.635 234.277 C 218.542 233.794,218.466 234.189,218.466 235.156 M288.770 235.352 C 288.775 236.211,288.855 236.517,288.948 236.031 C 289.042 235.545,289.038 234.842,288.940 234.468 C 288.842 234.095,288.766 234.492,288.770 235.352 M343.013 234.942 C 343.360 235.382,343.838 236.094,344.075 236.523 C 344.313 236.953,344.513 237.088,344.519 236.823 C 344.526 236.557,344.048 235.846,343.457 235.241 C 342.866 234.637,342.666 234.502,343.013 234.942 M205.559 236.328 C 205.559 237.080,205.640 237.388,205.738 237.012 C 205.836 236.636,205.836 236.021,205.738 235.645 C 205.640 235.269,205.559 235.576,205.559 236.328 M225.888 236.719 C 225.888 237.686,225.964 238.081,226.057 237.598 C 226.150 237.114,226.150 236.323,226.057 235.840 C 225.964 235.356,225.888 235.752,225.888 236.719 M186.456 240.039 C 186.458 241.543,186.529 242.110,186.613 241.300 C 186.698 240.489,186.696 239.259,186.610 238.566 C 186.524 237.872,186.455 238.535,186.456 240.039 M216.747 240.102 C 216.452 240.459,215.684 241.074,215.039 241.468 C 214.395 241.862,214.089 242.185,214.361 242.186 C 214.852 242.187,217.997 239.484,217.528 239.464 C 217.393 239.458,217.042 239.745,216.747 240.102 M299.609 239.787 C 299.609 240.535,302.023 242.187,303.057 242.148 C 303.976 242.112,303.938 242.069,302.741 241.788 C 301.992 241.612,300.981 241.004,300.494 240.439 C 300.008 239.873,299.609 239.580,299.609 239.787 M322.754 239.733 C 323.345 239.822,324.312 239.822,324.902 239.733 C 325.493 239.643,325.010 239.570,323.828 239.570 C 322.646 239.570,322.163 239.643,322.754 239.733 M211.230 242.463 C 211.714 242.556,212.505 242.556,212.988 242.463 C 213.472 242.370,213.076 242.294,212.109 242.294 C 211.143 242.294,210.747 242.370,211.230 242.463 M241.704 242.464 C 242.190 242.557,242.893 242.554,243.266 242.456 C 243.640 242.358,243.242 242.282,242.383 242.286 C 241.523 242.290,241.218 242.370,241.704 242.464 M274.316 242.457 C 274.692 242.555,275.308 242.555,275.684 242.457 C 276.060 242.359,275.752 242.278,275.000 242.278 C 274.248 242.278,273.940 242.359,274.316 242.457 M331.738 242.847 C 332.114 242.946,332.729 242.946,333.105 242.847 C 333.481 242.749,333.174 242.669,332.422 242.669 C 331.670 242.669,331.362 242.749,331.738 242.847 M162.963 245.573 C 162.918 247.075,162.707 248.056,162.402 248.179 C 162.020 248.333,162.023 248.383,162.415 248.407 C 163.145 248.452,163.344 247.634,163.180 245.266 L 163.035 243.164 162.963 245.573 M201.758 244.922 C 202.597 245.781,203.371 246.484,203.479 246.484 C 203.586 246.484,202.988 245.781,202.148 244.922 C 201.309 244.062,200.535 243.359,200.427 243.359 C 200.320 243.359,200.919 244.062,201.758 244.922 M221.854 245.215 L 220.508 246.680 221.973 245.334 C 223.336 244.081,223.617 243.750,223.319 243.750 C 223.254 243.750,222.594 244.409,221.854 245.215 M322.462 245.248 C 323.106 245.965,323.984 246.734,324.414 246.956 C 324.844 247.179,325.020 247.207,324.805 247.019 C 324.590 246.831,323.711 246.063,322.852 245.311 L 321.291 243.945 322.462 245.248 M247.627 246.355 L 246.680 247.398 247.742 246.648 C 248.326 246.236,248.809 245.767,248.816 245.605 C 248.836 245.124,248.622 245.259,247.627 246.355 M268.020 246.609 L 267.969 248.100 264.294 247.976 C 262.273 247.908,260.701 247.983,260.801 248.145 C 261.036 248.522,267.646 248.517,268.173 248.139 C 268.401 247.974,268.465 247.267,268.322 246.484 L 268.072 245.117 268.020 246.609 M308.752 246.154 C 308.579 246.434,308.645 246.499,308.924 246.326 C 309.227 246.139,309.375 246.439,309.375 247.243 C 309.375 248.398,309.430 248.435,311.035 248.372 L 312.695 248.306 311.230 248.153 C 309.905 248.014,309.766 247.891,309.766 246.851 C 309.766 245.685,309.258 245.335,308.752 246.154 M234.200 246.908 C 234.468 247.341,236.734 248.552,236.923 248.363 C 236.996 248.291,236.362 247.852,235.515 247.388 C 234.668 246.924,234.076 246.708,234.200 246.908 M100.516 247.168 C 106.278 247.229,115.594 247.229,121.219 247.168 C 126.843 247.107,122.129 247.057,110.742 247.057 C 99.355 247.057,94.754 247.107,100.516 247.168 M186.427 247.656 C 186.552 248.115,187.299 248.248,189.875 248.270 L 193.164 248.298 190.051 248.154 C 188.225 248.070,186.800 247.816,186.603 247.541 C 186.366 247.208,186.315 247.241,186.427 247.656 M315.625 248.047 L 314.258 248.335 315.504 248.386 C 316.190 248.414,316.859 248.262,316.992 248.047 C 317.125 247.832,317.179 247.679,317.113 247.708 C 317.047 247.736,316.377 247.889,315.625 248.047 M174.316 248.316 C 174.692 248.414,175.308 248.414,175.684 248.316 C 176.060 248.218,175.752 248.138,175.000 248.138 C 174.248 248.138,173.940 248.218,174.316 248.316 M251.270 248.327 C 251.860 248.416,252.827 248.416,253.418 248.327 C 254.009 248.237,253.525 248.164,252.344 248.164 C 251.162 248.164,250.679 248.237,251.270 248.327 M211.035 249.108 C 211.626 249.197,212.593 249.197,213.184 249.108 C 213.774 249.018,213.291 248.945,212.109 248.945 C 210.928 248.945,210.444 249.018,211.035 249.108 M240.723 249.097 C 241.099 249.196,241.714 249.196,242.090 249.097 C 242.466 248.999,242.158 248.919,241.406 248.919 C 240.654 248.919,240.347 248.999,240.723 249.097 M275.879 249.097 C 276.255 249.196,276.870 249.196,277.246 249.097 C 277.622 248.999,277.314 248.919,276.563 248.919 C 275.811 248.919,275.503 248.999,275.879 249.097 M301.079 249.104 C 301.565 249.198,302.268 249.194,302.641 249.097 C 303.015 248.999,302.617 248.922,301.758 248.927 C 300.898 248.931,300.593 249.011,301.079 249.104 M331.543 249.111 C 332.241 249.197,333.384 249.197,334.082 249.111 C 334.780 249.024,334.209 248.953,332.813 248.953 C 331.416 248.953,330.845 249.024,331.543 249.111 M86.725 251.009 C 86.728 251.636,86.899 252.412,87.104 252.734 C 87.359 253.133,87.401 252.822,87.238 251.758 C 86.942 249.827,86.717 249.498,86.725 251.009 M88.227 254.291 C 88.734 254.724,88.924 255.078,88.650 255.078 C 88.376 255.078,88.255 255.182,88.382 255.309 C 88.509 255.436,88.881 255.390,89.209 255.207 C 89.688 254.939,89.560 254.740,88.554 254.189 L 87.305 253.504 88.227 254.291 M101.850 255.366 L 112.488 255.481 112.690 256.354 C 112.802 256.834,112.946 258.984,113.012 261.133 C 113.119 264.652,113.134 264.548,113.165 260.081 L 113.201 255.123 102.206 255.187 L 91.211 255.251 101.850 255.366 M120.703 256.250 C 120.703 256.895,120.771 257.422,120.854 257.422 C 120.937 257.422,121.082 256.895,121.177 256.250 C 121.272 255.605,121.204 255.078,121.026 255.078 C 120.848 255.078,120.703 255.605,120.703 256.250 M123.730 255.366 C 124.858 255.445,126.704 255.445,127.832 255.366 C 128.960 255.287,128.037 255.223,125.781 255.223 C 123.525 255.223,122.603 255.287,123.730 255.366 M131.731 258.594 C 131.731 259.346,131.812 259.653,131.910 259.277 C 132.008 258.901,132.008 258.286,131.910 257.910 C 131.812 257.534,131.731 257.842,131.731 258.594 M120.881 274.219 C 120.881 282.705,120.933 286.177,120.996 281.934 C 121.059 277.690,121.059 270.747,120.996 266.504 C 120.933 262.261,120.881 265.732,120.881 274.219 M179.982 261.654 C 179.873 262.070,180.002 262.370,180.290 262.370 C 180.562 262.370,180.697 262.141,180.590 261.862 C 180.438 261.466,181.422 261.326,185.022 261.230 L 189.648 261.105 184.909 261.021 C 180.602 260.945,180.152 261.003,179.982 261.654 M209.900 261.229 C 213.836 261.346,214.098 261.403,213.611 262.025 C 213.138 262.629,213.154 262.642,213.765 262.163 C 214.990 261.202,214.076 260.936,209.840 261.020 L 205.664 261.103 209.900 261.229 M112.884 265.723 C 112.747 267.730,112.899 284.123,113.055 284.279 C 113.180 284.404,113.281 280.257,113.281 275.065 C 113.281 269.873,113.193 265.625,113.086 265.625 C 112.979 265.625,112.888 265.669,112.884 265.723 M148.807 268.652 L 147.461 270.117 148.926 268.771 C 150.289 267.518,150.570 267.188,150.272 267.188 C 150.207 267.188,149.547 267.847,148.807 268.652 M169.141 268.555 C 169.869 269.307,170.554 269.922,170.661 269.922 C 170.768 269.922,170.260 269.307,169.531 268.555 C 168.802 267.803,168.118 267.188,168.011 267.188 C 167.903 267.188,168.412 267.803,169.141 268.555 M139.465 271.730 C 139.444 272.506,140.545 273.108,141.676 272.938 C 142.742 272.778,142.738 272.772,141.523 272.715 C 140.793 272.681,140.108 272.372,139.875 271.973 C 139.656 271.597,139.472 271.487,139.465 271.730 M132.130 273.242 C 132.134 274.102,132.214 274.407,132.308 273.921 C 132.401 273.435,132.397 272.732,132.300 272.359 C 132.202 271.985,132.125 272.383,132.130 273.242 M152.465 279.492 C 152.467 280.781,152.540 281.262,152.627 280.559 C 152.714 279.857,152.712 278.803,152.623 278.216 C 152.534 277.629,152.463 278.203,152.465 279.492 M173.544 281.250 C 173.544 282.217,173.620 282.612,173.713 282.129 C 173.806 281.646,173.806 280.854,173.713 280.371 C 173.620 279.888,173.544 280.283,173.544 281.250 M140.337 280.749 C 140.931 280.839,141.810 280.836,142.291 280.744 C 142.771 280.651,142.285 280.578,141.211 280.580 C 140.137 280.583,139.744 280.659,140.337 280.749 M187.836 283.887 C 186.712 285.243,186.236 285.938,186.429 285.938 C 186.537 285.938,187.095 285.322,187.669 284.570 C 188.733 283.175,188.862 282.648,187.836 283.887 M112.997 286.328 C 112.997 287.295,113.073 287.690,113.166 287.207 C 113.259 286.724,113.259 285.933,113.166 285.449 C 113.073 284.966,112.997 285.361,112.997 286.328 M162.931 286.166 C 162.201 286.685,161.795 287.109,162.030 287.109 C 162.264 287.109,162.950 286.675,163.552 286.145 C 164.933 284.931,164.656 284.940,162.931 286.166 M112.755 290.117 C 113.079 292.587,113.281 292.742,113.281 290.518 C 113.281 289.528,113.108 288.611,112.895 288.479 C 112.649 288.327,112.598 288.921,112.755 290.117 M147.478 289.426 C 147.354 289.626,147.432 289.900,147.650 290.035 C 147.868 290.170,148.047 290.148,148.047 289.985 C 148.047 289.823,148.706 290.296,149.512 291.036 L 150.977 292.382 149.432 290.722 C 147.713 288.874,147.788 288.924,147.478 289.426 M165.234 293.359 C 164.482 293.771,164.008 294.115,164.180 294.124 C 164.594 294.146,166.797 293.000,166.797 292.763 C 166.797 292.508,166.774 292.516,165.234 293.359 M179.500 294.914 C 178.708 295.789,179.347 296.337,180.739 295.977 C 181.177 295.863,181.014 295.777,180.311 295.748 C 179.201 295.704,179.192 295.686,179.883 294.922 C 180.272 294.492,180.502 294.141,180.395 294.141 C 180.287 294.141,179.884 294.489,179.500 294.914 M214.101 294.824 C 214.398 295.308,214.892 295.703,215.198 295.703 C 215.505 295.703,215.682 295.657,215.592 295.601 C 215.503 295.545,215.009 295.150,214.495 294.722 L 213.561 293.945 214.101 294.824 M157.910 294.816 C 158.716 294.900,160.034 294.900,160.840 294.816 C 161.646 294.732,160.986 294.663,159.375 294.663 C 157.764 294.663,157.104 294.732,157.910 294.816 " stroke="none" fill="#404140" fill-rule="evenodd"></path><path id="path2" d="M100.909 125.195 C 100.911 126.699,100.982 127.267,101.066 126.456 C 101.151 125.646,101.149 124.415,101.063 123.722 C 100.977 123.028,100.908 123.691,100.909 125.195 M100.751 130.762 C 100.735 132.212,100.663 133.705,100.591 134.080 C 100.519 134.456,100.620 134.861,100.816 134.982 C 101.020 135.109,101.172 133.693,101.172 131.664 C 101.172 129.717,101.084 128.125,100.977 128.125 C 100.869 128.125,100.768 129.312,100.751 130.762 M62.798 174.104 C 63.283 174.198,63.987 174.194,64.360 174.097 C 64.733 173.999,64.336 173.922,63.477 173.927 C 62.617 173.931,62.312 174.011,62.798 174.104 M193.849 214.258 C 193.853 215.117,193.933 215.423,194.026 214.937 C 194.120 214.451,194.116 213.748,194.018 213.374 C 193.921 213.001,193.844 213.398,193.849 214.258 M100.909 218.164 C 100.911 219.668,100.982 220.235,101.066 219.425 C 101.151 218.614,101.149 217.384,101.063 216.691 C 100.977 215.997,100.908 216.660,100.909 218.164 M193.923 227.930 C 193.923 234.375,193.976 237.067,194.042 233.911 C 194.108 230.755,194.108 225.482,194.042 222.192 C 193.977 218.902,193.923 221.484,193.923 227.930 M100.872 222.266 C 100.872 223.018,100.952 223.325,101.051 222.949 C 101.149 222.573,101.149 221.958,101.051 221.582 C 100.952 221.206,100.872 221.514,100.872 222.266 M193.856 245.313 C 193.856 246.279,193.933 246.675,194.026 246.191 C 194.119 245.708,194.119 244.917,194.026 244.434 C 193.933 243.950,193.856 244.346,193.856 245.313 M132.177 267.773 C 132.178 270.137,132.243 271.053,132.320 269.810 C 132.398 268.567,132.397 266.633,132.319 265.513 C 132.240 264.393,132.176 265.410,132.177 267.773 " stroke="none" fill="#2f2f2f" fill-rule="evenodd"></path><path id="path3" d="M255.469 105.231 C 255.469 105.315,256.072 105.454,256.809 105.540 C 257.545 105.626,258.062 105.557,257.957 105.387 C 257.768 105.081,255.469 104.937,255.469 105.231 M87.501 120.996 C 87.501 121.157,88.023 121.308,88.661 121.330 C 89.298 121.353,89.727 121.221,89.613 121.037 C 89.360 120.626,87.500 120.590,87.501 120.996 M103.813 120.979 C 104.299 121.073,105.002 121.069,105.376 120.972 C 105.749 120.874,105.352 120.797,104.492 120.802 C 103.633 120.806,103.327 120.886,103.813 120.979 M119.295 121.160 C 119.107 121.464,119.222 121.537,119.637 121.377 C 119.981 121.246,120.347 121.347,120.452 121.604 C 120.593 121.951,120.649 121.945,120.672 121.582 C 120.689 121.313,121.107 121.094,121.602 121.094 C 122.096 121.094,122.746 121.313,123.048 121.582 C 123.513 121.997,123.518 121.968,123.078 121.387 C 122.481 120.598,119.744 120.434,119.295 121.160 M219.313 125.557 C 219.730 125.895,220.433 126.157,220.875 126.138 C 221.521 126.111,221.474 126.042,220.636 125.790 C 220.062 125.616,219.359 125.355,219.074 125.208 C 218.788 125.062,218.896 125.219,219.313 125.557 M260.156 127.148 C 260.693 127.455,261.309 127.707,261.523 127.707 C 261.738 127.707,261.475 127.455,260.938 127.148 C 260.400 126.841,259.785 126.590,259.570 126.590 C 259.355 126.590,259.619 126.841,260.156 127.148 M284.766 148.910 C 284.873 149.016,285.572 149.309,286.319 149.562 C 287.066 149.815,287.506 149.853,287.296 149.648 C 287.086 149.442,286.387 149.149,285.742 148.996 C 285.098 148.843,284.658 148.805,284.766 148.910 M79.043 159.375 C 79.043 161.201,79.110 161.948,79.192 161.035 C 79.275 160.122,79.275 158.628,79.192 157.715 C 79.110 156.802,79.043 157.549,79.043 159.375 M129.786 158.008 C 129.790 158.867,129.870 159.173,129.964 158.687 C 130.057 158.201,130.054 157.498,129.956 157.124 C 129.858 156.751,129.782 157.148,129.786 158.008 M158.398 158.152 C 159.043 158.551,159.645 158.812,159.737 158.732 C 160.007 158.495,158.451 157.448,157.813 157.436 C 157.490 157.431,157.754 157.753,158.398 158.152 M86.709 159.205 C 86.500 159.756,86.346 160.591,86.368 161.061 C 86.399 161.717,86.478 161.643,86.710 160.742 C 86.877 160.098,87.141 159.263,87.298 158.887 C 87.455 158.511,87.473 158.203,87.337 158.203 C 87.201 158.203,86.919 158.654,86.709 159.205 M159.505 160.725 C 159.505 161.468,159.652 161.984,159.831 161.874 C 160.010 161.763,160.156 161.156,160.156 160.524 C 160.156 159.892,160.010 159.375,159.831 159.375 C 159.652 159.375,159.505 159.983,159.505 160.725 M92.235 160.352 C 92.203 160.781,92.086 161.572,91.976 162.109 L 91.775 163.086 92.193 162.128 C 92.423 161.601,92.540 160.810,92.453 160.370 C 92.298 159.591,92.292 159.590,92.235 160.352 M52.215 162.979 C 51.964 163.138,54.482 163.246,57.813 163.217 C 64.551 163.158,64.327 162.980,57.293 162.804 C 54.751 162.740,52.466 162.819,52.215 162.979 M87.217 163.166 C 88.094 164.042,90.885 163.992,90.885 163.100 C 90.885 162.662,90.394 162.541,88.788 162.584 C 87.027 162.630,86.775 162.723,87.217 163.166 M152.344 162.891 L 149.023 163.136 152.660 163.208 C 155.002 163.255,156.210 163.142,156.055 162.891 C 155.922 162.676,155.780 162.533,155.739 162.573 C 155.698 162.613,154.170 162.756,152.344 162.891 M145.410 163.170 C 146.001 163.260,146.968 163.260,147.559 163.170 C 148.149 163.081,147.666 163.008,146.484 163.008 C 145.303 163.008,144.819 163.081,145.410 163.170 M119.043 183.747 C 118.667 184.032,118.359 184.406,118.359 184.576 C 118.359 184.747,118.667 184.619,119.043 184.291 C 119.419 183.964,119.990 183.599,120.313 183.480 C 120.833 183.289,120.833 183.263,120.313 183.246 C 119.990 183.236,119.419 183.461,119.043 183.747 M92.049 185.547 C 92.358 187.232,92.580 187.549,92.572 186.296 C 92.569 185.776,92.393 185.088,92.182 184.766 C 91.912 184.353,91.872 184.585,92.049 185.547 M87.109 188.477 C 87.744 189.152,88.397 189.434,89.228 189.391 L 90.430 189.328 89.147 189.170 C 88.434 189.081,87.656 188.676,87.393 188.256 C 87.134 187.840,86.757 187.500,86.557 187.500 C 86.356 187.500,86.605 187.939,87.109 188.477 M117.969 187.868 C 117.969 188.494,119.652 189.455,120.692 189.422 C 121.302 189.403,121.455 189.306,121.094 189.168 C 120.771 189.046,120.379 188.752,120.221 188.516 C 120.020 188.215,119.932 188.229,119.928 188.562 C 119.925 188.824,119.658 188.937,119.336 188.813 C 119.014 188.689,118.750 188.343,118.750 188.044 C 118.750 187.745,118.574 187.500,118.359 187.500 C 118.145 187.500,117.969 187.666,117.969 187.868 M129.794 189.063 C 129.794 190.029,129.870 190.425,129.963 189.941 C 130.056 189.458,130.056 188.667,129.963 188.184 C 129.870 187.700,129.794 188.096,129.794 189.063 M79.023 189.844 C 79.023 191.025,79.097 191.509,79.186 190.918 C 79.276 190.327,79.276 189.360,79.186 188.770 C 79.097 188.179,79.023 188.662,79.023 189.844 M110.441 209.657 C 111.134 209.743,112.364 209.745,113.175 209.660 C 113.985 209.576,113.418 209.505,111.914 209.503 C 110.410 209.501,109.747 209.571,110.441 209.657 M165.697 214.650 C 165.942 215.188,166.218 215.553,166.310 215.461 C 166.586 215.185,165.991 213.672,165.607 213.672 C 165.411 213.672,165.452 214.112,165.697 214.650 M183.866 214.607 C 183.706 215.013,183.667 215.438,183.780 215.551 C 184.136 215.907,184.450 215.323,184.300 214.581 C 184.164 213.902,184.143 213.903,183.866 214.607 M235.320 215.762 C 235.185 216.114,234.917 216.305,234.725 216.186 C 234.532 216.067,234.378 216.463,234.382 217.067 L 234.388 218.164 235.212 216.878 C 235.664 216.171,235.929 215.487,235.800 215.357 C 235.671 215.228,235.455 215.410,235.320 215.762 M310.209 223.926 C 310.254 225.001,310.290 225.046,310.444 224.219 C 310.544 223.682,310.828 223.113,311.075 222.955 C 311.363 222.771,311.279 222.666,310.840 222.662 C 310.317 222.658,310.169 222.955,310.209 223.926 M312.598 222.936 C 313.188 223.026,314.155 223.026,314.746 222.936 C 315.337 222.847,314.854 222.773,313.672 222.773 C 312.490 222.773,312.007 222.847,312.598 222.936 M85.751 225.791 C 86.626 226.758,87.353 226.778,87.597 225.843 C 87.752 225.251,87.543 225.114,86.419 225.071 C 85.083 225.021,85.068 225.037,85.751 225.791 M119.623 225.623 C 119.124 226.157,119.773 226.563,121.126 226.563 C 122.142 226.563,122.065 226.067,120.970 225.560 C 120.305 225.252,119.953 225.269,119.623 225.623 M186.855 228.125 C 186.855 229.951,186.923 230.698,187.005 229.785 C 187.087 228.872,187.087 227.378,187.005 226.465 C 186.923 225.552,186.855 226.299,186.855 228.125 M291.903 226.563 C 291.903 227.529,291.979 227.925,292.073 227.441 C 292.166 226.958,292.166 226.167,292.073 225.684 C 291.979 225.200,291.903 225.596,291.903 226.563 M284.698 226.027 C 285.562 227.602,286.432 228.458,285.764 227.076 C 285.433 226.391,284.967 225.711,284.729 225.564 C 284.420 225.372,284.411 225.504,284.698 226.027 M287.621 234.570 C 287.623 235.859,287.696 236.340,287.783 235.638 C 287.870 234.935,287.868 233.881,287.779 233.294 C 287.690 232.707,287.619 233.281,287.621 234.570 M186.840 235.352 C 186.842 236.641,186.915 237.121,187.002 236.419 C 187.089 235.717,187.087 234.662,186.998 234.075 C 186.909 233.488,186.838 234.063,186.840 235.352 M198.919 234.375 C 198.919 235.127,198.999 235.435,199.097 235.059 C 199.196 234.683,199.196 234.067,199.097 233.691 C 198.999 233.315,198.919 233.623,198.919 234.375 M337.207 233.472 C 337.583 233.571,337.891 233.785,337.891 233.948 C 337.891 234.111,338.462 234.244,339.160 234.243 L 340.430 234.241 339.258 233.740 C 338.613 233.464,337.734 233.251,337.305 233.266 C 336.653 233.289,336.637 233.323,337.207 233.472 M204.395 235.352 C 204.400 236.211,204.480 236.517,204.573 236.031 C 204.667 235.545,204.663 234.842,204.565 234.468 C 204.467 234.095,204.391 234.492,204.395 235.352 M291.888 236.328 C 291.888 237.080,291.968 237.388,292.066 237.012 C 292.164 236.636,292.164 236.021,292.066 235.645 C 291.968 235.269,291.888 235.576,291.888 236.328 M343.867 240.234 C 343.867 241.416,343.940 241.899,344.030 241.309 C 344.119 240.718,344.119 239.751,344.030 239.160 C 343.940 238.569,343.867 239.053,343.867 240.234 M202.173 244.168 C 202.985 245.065,203.125 245.096,203.125 244.381 C 203.125 244.084,202.757 243.745,202.308 243.627 C 201.524 243.422,201.518 243.444,202.173 244.168 M261.817 244.727 C 261.822 245.586,261.902 245.892,261.995 245.406 C 262.088 244.920,262.085 244.217,261.987 243.843 C 261.889 243.470,261.813 243.867,261.817 244.727 M341.649 244.972 C 340.832 245.840,340.487 246.376,340.882 246.162 C 341.804 245.666,343.548 243.809,343.314 243.574 C 343.215 243.475,342.466 244.105,341.649 244.972 M233.144 244.420 C 233.351 244.808,233.933 245.476,234.436 245.903 L 235.352 246.680 234.667 245.867 C 234.291 245.420,234.063 244.974,234.161 244.875 C 234.259 244.777,233.985 244.476,233.553 244.206 C 232.849 243.766,232.806 243.789,233.144 244.420 M157.722 247.158 C 158.424 247.245,159.479 247.243,160.066 247.154 C 160.653 247.065,160.078 246.994,158.789 246.996 C 157.500 246.998,157.020 247.071,157.722 247.158 M208.008 247.440 C 208.867 247.741,210.449 247.976,211.523 247.963 L 213.477 247.940 211.133 247.653 C 209.844 247.496,208.262 247.260,207.617 247.130 C 206.845 246.973,206.978 247.079,208.008 247.440 M214.844 247.493 C 213.611 248.178,214.599 248.157,216.406 247.461 C 217.585 247.007,217.639 246.936,216.797 246.943 C 216.260 246.948,215.381 247.195,214.844 247.493 M251.074 247.158 C 251.772 247.244,252.915 247.244,253.613 247.158 C 254.312 247.071,253.740 247.000,252.344 247.000 C 250.947 247.000,250.376 247.071,251.074 247.158 M263.184 247.151 C 263.667 247.244,264.458 247.244,264.941 247.151 C 265.425 247.058,265.029 246.981,264.063 246.981 C 263.096 246.981,262.700 247.058,263.184 247.151 M278.796 247.116 C 278.664 247.248,277.975 247.509,277.266 247.695 C 276.176 247.981,276.268 248.005,277.860 247.848 C 280.066 247.632,281.714 246.907,280.046 246.887 C 279.491 246.880,278.928 246.983,278.796 247.116 M312.603 247.155 C 313.197 247.245,314.076 247.243,314.556 247.150 C 315.037 247.057,314.551 246.984,313.477 246.987 C 312.402 246.990,312.009 247.066,312.603 247.155 M333.203 247.656 C 332.285 247.950,332.304 247.971,333.519 248.008 C 334.290 248.031,334.714 247.889,334.570 247.656 C 334.438 247.441,334.295 247.283,334.254 247.305 C 334.213 247.326,333.740 247.484,333.203 247.656 M240.144 247.939 C 240.846 248.026,241.900 248.024,242.487 247.935 C 243.074 247.846,242.500 247.775,241.211 247.777 C 239.922 247.779,239.442 247.852,240.144 247.939 M91.119 254.187 C 91.712 254.276,92.591 254.274,93.072 254.181 C 93.552 254.089,93.066 254.015,91.992 254.018 C 90.918 254.021,90.525 254.097,91.119 254.187 M100.684 254.182 C 101.167 254.275,101.958 254.275,102.441 254.182 C 102.925 254.089,102.529 254.013,101.563 254.013 C 100.596 254.013,100.200 254.089,100.684 254.182 M185.059 261.604 C 185.542 261.697,186.333 261.697,186.816 261.604 C 187.300 261.511,186.904 261.435,185.938 261.435 C 184.971 261.435,184.575 261.511,185.059 261.604 M206.352 269.604 C 206.305 270.230,206.398 270.286,206.858 269.904 C 207.548 269.331,207.552 269.274,206.916 269.030 C 206.616 268.915,206.386 269.149,206.352 269.604 M205.414 271.387 C 204.290 272.743,203.814 273.438,204.007 273.438 C 204.116 273.438,204.673 272.822,205.247 272.070 C 206.311 270.675,206.440 270.148,205.414 271.387 M136.937 278.699 C 137.932 279.451,138.500 279.460,137.751 278.711 C 137.429 278.389,136.943 278.125,136.672 278.125 C 136.395 278.125,136.511 278.377,136.937 278.699 M189.515 283.203 C 189.038 283.848,188.792 284.375,188.967 284.375 C 189.142 284.375,189.596 283.848,189.977 283.203 C 190.358 282.559,190.604 282.031,190.525 282.031 C 190.446 282.031,189.991 282.559,189.515 283.203 M114.063 291.579 C 114.063 292.103,114.206 292.621,114.382 292.730 C 114.558 292.839,114.626 292.409,114.533 291.776 C 114.329 290.380,114.063 290.268,114.063 291.579 M151.702 291.211 C 152.346 291.855,152.909 292.005,152.560 291.440 C 152.438 291.243,152.560 290.993,152.830 290.885 C 153.099 290.776,152.824 290.673,152.218 290.656 C 151.239 290.628,151.181 290.690,151.702 291.211 M167.206 290.996 C 166.894 291.193,166.471 291.251,166.267 291.125 C 166.062 290.998,166.011 291.083,166.153 291.313 C 166.295 291.542,166.190 291.819,165.920 291.928 C 165.651 292.037,165.605 292.136,165.820 292.148 C 166.035 292.160,166.650 291.826,167.188 291.406 C 168.196 290.618,168.207 290.363,167.206 290.996 M181.874 293.457 L 180.879 294.727 184.086 294.842 C 186.068 294.913,187.345 294.801,187.429 294.549 C 187.504 294.324,187.737 294.141,187.946 294.141 C 188.156 294.141,188.202 294.344,188.049 294.592 C 187.876 294.871,187.941 294.937,188.221 294.764 C 188.979 294.295,188.723 293.716,187.793 293.796 C 184.128 294.111,181.905 293.756,182.617 292.969 C 183.006 292.539,183.222 292.188,183.097 292.188 C 182.972 292.188,182.421 292.759,181.874 293.457 M205.355 294.092 C 206.233 294.937,212.173 295.375,212.636 294.629 C 212.736 294.468,211.686 294.372,210.303 294.416 C 208.428 294.476,207.860 294.377,208.070 294.026 C 208.227 293.764,208.046 293.804,207.662 294.116 C 207.062 294.603,206.925 294.603,206.617 294.116 C 206.422 293.807,206.259 293.693,206.256 293.861 C 206.253 294.030,205.854 293.964,205.371 293.716 L 204.492 293.263 205.355 294.092 M186.230 294.410 C 185.854 294.508,185.239 294.508,184.863 294.410 C 184.487 294.312,184.795 294.231,185.547 294.231 C 186.299 294.231,186.606 294.312,186.230 294.410 " stroke="none" fill="#191c18" fill-rule="evenodd"></path><path id="path4" d="M129.824 163.281 C 129.824 165.107,129.891 165.854,129.974 164.941 C 130.056 164.028,130.056 162.534,129.974 161.621 C 129.891 160.708,129.824 161.455,129.824 163.281 M129.858 177.539 C 129.858 183.125,129.913 185.356,129.980 182.496 C 130.046 179.637,130.046 175.067,129.979 172.340 C 129.912 169.614,129.857 171.953,129.858 177.539 M291.903 223.438 C 291.903 224.404,291.979 224.800,292.073 224.316 C 292.166 223.833,292.166 223.042,292.073 222.559 C 291.979 222.075,291.903 222.471,291.903 223.438 M291.903 229.688 C 291.903 230.654,291.979 231.050,292.073 230.566 C 292.166 230.083,292.166 229.292,292.073 228.809 C 291.979 228.325,291.903 228.721,291.903 229.688 M291.888 232.813 C 291.888 233.564,291.968 233.872,292.066 233.496 C 292.164 233.120,292.164 232.505,292.066 232.129 C 291.968 231.753,291.888 232.061,291.888 232.813 M120.478 263.281 C 120.478 267.900,120.535 269.790,120.604 267.480 C 120.673 265.171,120.673 261.392,120.604 259.082 C 120.535 256.772,120.478 258.662,120.478 263.281 M120.483 282.031 C 120.483 287.725,120.538 290.054,120.604 287.207 C 120.671 284.360,120.671 279.702,120.604 276.855 C 120.538 274.009,120.483 276.338,120.483 282.031 " stroke="none" fill="#232324" fill-rule="evenodd"></path></g></svg>